<?xml version="1.0" encoding="UTF-8"?>
<svg width="24px" height="24px" viewBox="0 0 24 24" version="1.1" xmlns="http://www.w3.org/2000/svg" xmlns:xlink="http://www.w3.org/1999/xlink">
    <title>hangdian</title>
    <g id="hangdian" stroke="none" stroke-width="1" fill="none" fill-rule="evenodd">
        <polygon id="多边形" fill="#FFFFFF" fill-rule="nonzero" transform="translate(18.500000, 19.125000) scale(1, -1) translate(-18.500000, -19.125000) " points="18.5 15 23.2631397 23.25 13.7368603 23.25"></polygon>
        <polygon id="路径" fill="#000000" fill-rule="nonzero" transform="translate(18.499500, 18.731602) scale(1, -1) translate(-18.499500, -18.731602) " points="18.5000715 15.7316024 15.0342685 21.7316024 21.9647315 21.7316024"></polygon>
        <polygon id="多边形" fill="#FFFFFF" transform="translate(18.500000, 18.466148) scale(1, -1) rotate(-360.000000) translate(-18.500000, -18.466148) " points="18.5 16.4661479 20.8094011 20.4661479 16.1905989 20.4661479"></polygon>
        <path d="M12,1 L12,22 L9,22 L9,1 L12,1 Z M11,2 L10,2 L10,21 L11,21 L11,2 Z" id="矩形" fill="#FFFFFF" fill-rule="nonzero" transform="translate(10.500000, 11.500000) rotate(-270.000000) translate(-10.500000, -11.500000) "></path>
        <path d="M12,0 L12,22 L9,22 L9,0 L12,0 Z M11,1 L10,1 L10,21 L11,21 L11,1 Z" id="矩形" fill="#FFFFFF" fill-rule="nonzero"></path>
        <line x1="10.5" y1="1" x2="10.5" y2="20.9150568" id="路径-5" stroke="#000000"></line>
        <line x1="20" y1="11.5" x2="1" y2="11.5" id="路径-5" stroke="#000000"></line>
        <line x1="10.5" y1="21" x2="10.5" y2="1" id="路径-5" stroke="#000000"></line>
    </g>
</svg>