<svg width="48" height="47" xmlns="http://www.w3.org/2000/svg" xmlns:xlink="http://www.w3.org/1999/xlink"><defs><filter x="-25%" y="-25%" width="150%" height="150%" filterUnits="objectBoundingBox" id="a"><feMorphology radius="1" operator="dilate" in="SourceAlpha" result="shadowSpreadOuter1"/><feOffset in="shadowSpreadOuter1" result="shadowOffsetOuter1"/><feGaussianBlur stdDeviation="2" in="shadowOffsetOuter1" result="shadowBlurOuter1"/><feComposite in="shadowBlurOuter1" in2="SourceAlpha" operator="out" result="shadowBlurOuter1"/><feColorMatrix values="0 0 0 0 0.176470588 0 0 0 0 0.549019608 0 0 0 0 0.941176471 0 0 0 1 0" in="shadowBlurOuter1"/></filter><circle id="b" cx="18" cy="18" r="18"/><path d="m14.717 10.35.212.016.425.022c.283.018.564.052.836.157.07.026.14.044.213.063.428.11.858.201 1.275.333.302.096.589.239.88.364.246.106.5.198.733.334.42.25.84.502 1.226.796.46.349.862.767 1.142 1.28.353.65.46 1.322.187 2.041-.331.877-.957 1.497-1.708 2.004-.413.279-.858.517-1.308.734a13.52 13.52 0 0 1-1.473.609c-.427.147-.873.246-1.31.345-.461.103-.925.194-1.39.26-.655.092-1.31.18-1.97.228a24.459 24.459 0 0 1-4.577-.096 20.238 20.238 0 0 1-2.475-.455c-.622-.15-1.226-.385-1.823-.612-.43-.166-.858-.356-1.263-.58-.899-.5-1.712-1.112-2.217-2.033-.328-.602-.442-1.24-.21-1.927.228-.682.656-1.214 1.204-1.651a13.85 13.85 0 0 1 1.282-.877c.232-.143.497-.235.748-.342.309-.132.618-.264.931-.377a7.7 7.7 0 0 1 .855-.272c.475-.117.953-.217 1.436-.305.195-.036.405-.033.604-.018.077.007.15.095.225.147-.052.066-.093.154-.159.198-.092.055-.206.08-.313.106-.387.096-.777.173-1.156.29-.38.118-.748.268-1.112.419-.243.099-.487.205-.711.337-.858.507-1.628 1.101-1.915 2.121-.077.28-.063.554.015.833.162.58.511 1.035.953 1.428a5.42 5.42 0 0 0 1.628 1.009c.556.216 1.112.448 1.687.616.486.147.99.235 1.491.32 1.046.172 2.1.29 3.204.235 1.123.077 2.269-.096 3.407-.268.512-.077 1.012-.239 1.513-.378.354-.1.707-.202 1.046-.345.961-.4 1.864-.903 2.527-1.74a2.31 2.31 0 0 0 .482-1.093c.092-.613-.162-1.123-.53-1.59-.313-.4-.722-.685-1.146-.96-.57-.379-1.204-.624-1.837-.86-.398-.15-.825-.227-1.238-.337l-.392-.1a2.662 2.662 0 0 1-.193-.061c-.07-.026-.118-.118-.177-.18.081-.066.166-.195.236-.187zm-.178 1.525c.226.004.379.122.435.326.113.407.214.815.33 1.219.134.463.275.926.416 1.389.093.315.201.626.278.94.016.06-.065.164-.133.208-.065.041-.17.03-.254.034-.665.003-1.33.007-1.994.007-.323 0-.403-.078-.415-.374-.017-.445-.037-.89-.057-1.334-.012-.24-.1-.318-.363-.318-1.12-.004-2.24-.004-3.364 0-.27 0-.383.089-.415.333-.056.452-.109.908-.157 1.363-.024.238-.097.326-.363.326-.737.008-1.479.008-2.216 0-.262-.003-.314-.118-.23-.344.141-.393.266-.79.383-1.186.214-.733.411-1.467.617-2.2.076-.278.241-.393.548-.393h1.208c.307 0 .395.078.383.367-.008.178-.036.356-.048.533-.016.27.076.36.366.36h1.532v.022h1.551c.342 0 .447-.104.423-.419-.012-.177-.04-.355-.044-.533-.004-.226.076-.315.314-.322.423-.011.846-.015 1.27-.004zm-4.783-1.9c.452.003.895.003 1.334.003h1.507c.238 0 .298.06.29.274-.004.104-.004.212-.008.315-.008.226-.105.323-.35.348-.053.004-.11.004-.162.004H9.752c-.39 0-.515-.115-.515-.474 0-.47 0-.47.52-.47zM12.585 8c.254 0 .31.056.306.282-.004.251 0 .503-.008.759-.004.215-.076.267-.31.267H9.595c-.294 0-.354-.052-.354-.323l-.004-.722c0-.207.056-.26.29-.263l.777.001.774-.001h1.507zM11.141.032c.254.319.504.642.747.972.637.859 1.27 1.721 1.908 2.58l1.002 1.358c.03.04.051.084.07.128.095.231-.004.393-.254.396-.509.008-1.02.004-1.529.004-.346 0-.38.033-.38.378 0 .503.005 1.002.008 1.505 0 .216-.051.271-.269.275-.464 0-.928-.004-1.395-.004H9.668c-.24 0-.288-.055-.288-.293.004-.507.004-1.017.004-1.523 0-.301-.044-.338-.339-.338-.504.004-1.005.011-1.51-.004-.103-.003-.272-.058-.29-.12a.474.474 0 0 1 .058-.368c.73-1.005 1.473-2 2.21-2.998.42-.572.836-1.145 1.256-1.717.066-.088.129-.18.21-.25.03-.025.136-.01.162.019z" id="c"/></defs><g fill="none" fill-rule="evenodd"><g transform="translate(6 5.5)"><use fill="#000" filter="url(#a)" xlink:href="#b"/><circle stroke="#FFF" stroke-width="2" stroke-linejoin="square" fill="#2D8CF0" cx="18" cy="18" r="17"/></g><g transform="translate(13 13)"><mask id="d" fill="#fff"><use xlink:href="#c"/></mask><use fill="#000" fill-rule="nonzero" xlink:href="#c"/><g mask="url(#d)"><path fill="#FFF" d="M-22-26h68v68h-68z"/></g></g></g></svg>