<?xml version="1.0" standalone="no"?><!DOCTYPE svg PUBLIC "-//W3C//DTD SVG 1.1//EN" "http://www.w3.org/Graphics/SVG/1.1/DTD/svg11.dtd"><svg t="1732784864829" class="icon" viewBox="0 0 1638 1024" version="1.1" xmlns="http://www.w3.org/2000/svg" p-id="20425" id="mx_n_1732784864830" xmlns:xlink="http://www.w3.org/1999/xlink" width="319.921875" height="200"><path d="M664.576 443.630933l-130.048-71.68a22.9376 22.9376 0 0 0-16.384-2.116266 21.060267 21.060267 0 0 0-13.243733 9.216 19.285333 19.285333 0 0 0 7.099733 27.682133l130.048 71.68c4.846933 3.242667 10.922667 3.9936 16.384 2.048a21.162667 21.162667 0 0 0 13.312-9.216 16.827733 16.827733 0 0 0 2.048-15.36 15.598933 15.598933 0 0 0-9.216-12.253867zM143.36 358.6048a71.68 71.68 0 1 0-71.68 71.68 71.202133 71.202133 0 0 0 71.68-71.68z m-71.68 40.96a40.96 40.96 0 1 1 0-81.92 40.96 40.96 0 0 1 0 81.92z m348.16 260.1984l376.832 228.4544c3.822933 2.013867 8.055467 3.072 12.356267 3.106133a22.869333 22.869333 0 0 0 11.229866-3.106133L1218.56 662.869333a23.04 23.04 0 0 0 10.308267-18.466133v-274.568533a23.210667 23.210667 0 0 0-10.308267-19.456 20.104533 20.104533 0 0 0-21.469867 0 20.957867 20.957867 0 0 0-10.24 19.456v262.314666l-356.352 201.728V463.086933a30.071467 30.071467 0 0 0-2.048-9.216l368.64-206.882133a22.050133 22.050133 0 0 0 11.264-19.524267 20.138667 20.138667 0 0 0-12.288-18.432L818.244267 22.596267a21.981867 21.981867 0 0 0-19.490134 0L420.864 209.032533a21.9136 21.9136 0 0 0-12.288 18.432v4.096a7.68 7.68 0 0 1-0.989867 4.096V640.341333c1.536 7.7824 5.905067 14.677333 12.253867 19.421867zM809.028267 65.604267l332.765866 163.84-332.8 185.480533-332.8-185.4464 332.8-163.84zM452.608 264.328533l337.92 189.5424a30.071467 30.071467 0 0 0-2.048 9.216V832.853333l-335.872-203.8784V264.328533zM194.56 747.861333h-30.72v-28.672a11.537067 11.537067 0 0 0-10.24-12.288 10.922667 10.922667 0 0 0-10.24 12.288v28.672h-30.72a10.24 10.24 0 1 0 0 20.48h30.72v28.740267a11.4688 11.4688 0 0 0 10.24 12.253867 10.8544 10.8544 0 0 0 10.24-12.253867v-28.706133h30.72a10.24 10.24 0 0 0 0-20.514134z m1433.6-92.16h-30.651733v-28.706133a11.4688 11.4688 0 0 0-10.274134-12.253867 10.8544 10.8544 0 0 0-10.24 12.253867v28.706133h-30.72a10.24 10.24 0 1 0 0 20.445867h30.72v28.706133a11.537067 11.537067 0 0 0 10.24 12.322134 10.922667 10.922667 0 0 0 10.274134-12.288v-28.740267h30.685866a10.24 10.24 0 1 0 0-20.445867z m-204.8-491.758933a61.474133 61.474133 0 1 0 0 122.948267 61.474133 61.474133 0 0 0 0-122.948267z m0 92.194133a30.72 30.72 0 1 1 30.72-30.72 30.139733 30.139733 0 0 1-30.72 30.72zM245.76 117.828267a15.36 15.36 0 1 0 30.754133 0v-35.84h35.84a15.36 15.36 0 1 0 0-30.72H276.48V15.36a15.36 15.36 0 1 0-30.72 0v35.908267H209.92a15.36 15.36 0 0 0 0 30.72h35.84v35.84z m153.634133 855.415466H256a20.48 20.48 0 0 0 0 40.96H399.36a20.48 20.48 0 0 0 0-40.96z m880.64 0h-798.72a20.48 20.48 0 1 0 0 40.96h798.72a20.48 20.48 0 1 0 0-40.96z" p-id="20426" fill="#c7d1dc"></path></svg>