<?xml version="1.0" encoding="UTF-8"?>
<svg width="30px" height="30px" viewBox="0 0 30 30" version="1.1" xmlns="http://www.w3.org/2000/svg" xmlns:xlink="http://www.w3.org/1999/xlink">
    <defs>
        <filter id="filter-1">
            <feColorMatrix in="SourceGraphic" type="matrix" values="0 0 0 0 0.780392 0 0 0 0 0.819608 0 0 0 0 0.862745 0 0 0 1.000000 0"></feColorMatrix>
        </filter>
    </defs>
    <g id="页面-1" stroke="none" stroke-width="1" fill="none" fill-rule="evenodd">
        <g id="设备数据" transform="translate(-822.000000, -317.000000)">
            <g id="编组-3" transform="translate(662.000000, 51.000000)">
                <g id="检测数据" transform="translate(0.000000, 86.000000)">
                    <g id="zanwushuju备份" transform="translate(160.000000, 180.000000)" filter="url(#filter-1)">
                        <g id="编组" transform="translate(0.000000, -0.000000)" fill="#70A3FB" fill-rule="nonzero">
                            <path d="M0,28.1927711 C0,29.1908761 6.67401615,30 14.9068323,30 C23.1396484,30 29.8136646,29.1908761 29.8136646,28.1927711 C29.8136646,27.1946661 23.1396484,26.3855422 14.9068323,26.3855422 C6.67401615,26.3855422 0,27.1946661 0,28.1927711 Z" id="路径"></path>
                            <path d="M0.52173913,9.86746988 C0.52173913,10.1746988 0.763975155,10.4096386 1.08074534,10.4096386 C1.39751553,10.4096386 1.63975155,10.1746988 1.63975155,9.86746988 C1.63975155,9.56024096 1.39751553,9.3253012 1.08074534,9.3253012 C0.782608696,9.3253012 0.52173913,9.57831325 0.52173913,9.86746988 Z M30,25.9337349 C29.2919255,26.1144578 29.1428571,26.2590361 28.9751553,26.9277108 C28.7888199,26.2409639 28.6397516,26.0963855 27.9503106,25.9337349 C28.6397516,25.753012 28.8074534,25.6084337 28.9751553,24.939759 C29.1428571,25.6084337 29.2919255,25.7710843 30,25.9337349 Z M3.63354037,7.96987952 C2.72049689,8.20481928 2.53416149,8.38554217 2.29192547,9.27108434 C2.04968944,8.38554217 1.86335404,8.20481928 0.950310559,7.96987952 C1.86335404,7.73493976 2.04968944,7.53614458 2.29192547,6.6686747 C2.51552795,7.55421687 2.72049689,7.73493976 3.63354037,7.96987952 Z M25.9937888,4.86144578 C25.4347826,5.0060241 25.3229814,5.11445783 25.173913,5.65662651 C25.0248447,5.11445783 24.9130435,5.0060241 24.3540373,4.86144578 C24.9130435,4.71686747 25.0248447,4.60843373 25.173913,4.06626506 C25.3043478,4.60843373 25.4347826,4.71686747 25.9937888,4.86144578 Z M28.3975155,2.07831325 C26.9440994,2.43975904 26.6459627,2.74698795 26.2546584,4.15662651 C25.8819876,2.74698795 25.5652174,2.45783133 24.1118012,2.07831325 C25.5652174,1.71686747 25.863354,1.40963855 26.2546584,0 C26.6273292,1.39156627 26.9440994,1.69879518 28.3975155,2.07831325 Z" id="形状"></path>
                            <polygon id="路径" points="12.802795 22.4319362 12.802795 22.5226323 13.5742754 23.2141903 16.531617 21.8197373 13.8548138 23.4862787 13.8548138 24.3025438 14.2873104 23.8944112 14.2873104 23.8830742 14.2873104 23.8944112 14.719807 24.3025438 17.01087 21.58166 17.01087 21.4909639"></polygon>
                            <path d="M25.0813163,17.1733257 C25.0813163,17.1443126 25.0663592,17.129806 25.0663592,17.1007929 L25.0663592,17.0862864 L21.8505892,8.94810862 C21.3869201,7.56998583 20.0706979,6.64156627 18.5749909,6.64156627 L11.2609838,6.64156627 C9.76527679,6.64156627 8.44905464,7.56998583 7.98538547,8.94810862 L4.76961545,17.0862864 L4.76961545,17.1007929 C4.75465839,17.129806 4.75465839,17.1443126 4.75465839,17.1733257 L4.75465839,23.5972742 C4.75465839,25.4396068 6.29523658,26.933782 8.19478445,26.933782 L21.6561473,26.933782 C23.5556952,26.933782 25.0962734,25.4396068 25.0962734,23.5972742 L25.0962734,17.2313519 C25.0813163,17.2168454 25.0813163,17.2168454 25.0813163,17.2023388 L25.0813163,17.1733257 Z M8.82298139,9.25274629 C8.82298139,9.25274629 8.82298139,9.23823974 8.83793845,9.23823974 C9.16699399,8.19376773 10.1541606,7.51195961 11.2609838,7.51195961 L18.5600339,7.51195961 C19.666857,7.51195961 20.6540236,8.19376773 20.9980362,9.22373318 C20.9980362,9.22373318 20.9980362,9.23823974 21.0129933,9.23823974 L23.9894502,16.7816487 L17.1540693,16.7816487 C16.8997991,16.7816487 16.7053572,16.9702339 16.7053572,17.2168454 C16.7053572,18.174278 15.8976754,18.9576321 14.9105088,18.9576321 C13.9233422,18.9576321 13.1156604,18.174278 13.1156604,17.2168454 C13.1156604,16.9702339 12.9212185,16.7816487 12.6669483,16.7816487 L5.84652448,16.7816487 L8.82298139,9.25274629 Z M24.1838921,23.4496297 C24.1838921,24.813246 23.0471548,25.9157442 21.6411902,25.9157442 L8.17982738,25.9157442 C6.77386282,25.9157442 5.63712551,24.813246 5.63712551,23.4496297 L5.63712551,17.6665486 L12.2631075,17.6665486 C12.4725064,18.8996058 13.5793296,19.842532 14.9105088,19.842532 C16.241688,19.842532 17.3485112,18.8996058 17.5579102,17.6665486 L24.1838921,17.6665486 L24.1838921,23.4496297 Z" id="形状"></path>
                            <path d="M14.9068325,17.6170527 C14.5237073,17.6170527 14.2226802,17.3250927 14.2226802,16.9535074 L14.2226802,15.6264168 L7.99689441,15.6264168 L10.2409139,9.94646908 L10.254597,9.91992727 C10.4461596,9.36254922 10.9661153,8.99096386 11.5681694,8.99096386 L18.2454957,8.99096386 C18.8475497,8.99096386 19.3675055,9.36254922 19.5590681,9.91992727 L19.5727512,9.94646908 L21.8167707,15.6264168 L15.5909848,15.6264168 L15.5909848,16.9535074 C15.5909848,17.3250927 15.2899578,17.6170527 14.9068325,17.6170527 L14.9068325,17.6170527 Z" id="路径"></path>
                        </g>
                    </g>
                </g>
            </g>
        </g>
    </g>
</svg>