<?xml version="1.0" standalone="no"?><!DOCTYPE svg PUBLIC "-//W3C//DTD SVG 1.1//EN" "http://www.w3.org/Graphics/SVG/1.1/DTD/svg11.dtd"><svg class="icon" width="1000px" height="1000.00px" viewBox="0 0 1024 1024" version="1.1" xmlns="http://www.w3.org/2000/svg"><path d="M0 1024V0h1024v1024H0zM992 32H32v960h960V32z" fill="#00FF00" /><path d="M117.384533 836.983467v35.601066c5.5808-9.728 9.693867-20.224 12.2368-31.146666 3.601067-14.404267 5.512533-29.184 5.6832-44.032 0.290133-15.701333 0.136533-34.816-0.426666-57.378134h58.5728a494.472533 494.472533 0 0 0-0.8704 31.1296c0 10.683733 0.290133 21.3504 0.8704 32.034134h-42.837334c-0.580267 8.891733-1.467733 16.896-2.6112 24.029866h47.2064a681.898667 681.898667 0 0 0-0.887466 34.696534c0.017067 11.264 0.3072 23.125333 0.887466 35.584h-50.688a1486.506667 1486.506667 0 0 0 0.8704-56.9344 251.511467 251.511467 0 0 1-17.476266 50.705066 140.8 140.8 0 0 0-10.496-12.458666v13.346133c17.476267 15.428267 45.1584 23.1424 83.0464 23.1424 37.888 0 66.730667-0.904533 86.562133-2.679467a50.688 50.688 0 0 0-6.144 19.575467c-25.6512 0-51.729067-0.290133-78.250667-0.887467-26.504533-0.597333-44.885333-2.9696-55.074133-7.150933a151.773867 151.773867 0 0 1-24.917333-12.458667c-6.417067-4.130133-11.52-3.6864-15.291734 1.3312l-14.4384 19.131734a92.672 92.672 0 0 0-15.735466-10.666667c9.045333-8.021333 17.5104-16.64 25.361066-25.8048v-73.8304c-8.174933 0-16.3328 0.3072-24.490666 0.887467v-17.783467c8.157867 0.597333 21.845333 0.904533 41.096533 0.887467-1.1776 12.458667-1.757867 22.8352-1.757867 31.1296z m3.498667-63.146667c-4.6592 2.389333-10.205867 5.341867-16.605867 8.874667a165.376 165.376 0 0 0-19.234133-36.471467c5.819733-3.549867 11.076267-6.519467 15.735467-8.891733 7.5776 11.639467 14.301867 23.842133 20.104533 36.471466z m56.832 14.216533v-32.9216H151.483733v32.938667h26.231467z m1.757867 94.3104v-40.925866H161.109333v40.925866h18.363734z m87.415466-95.197866l-6.997333 22.237866c6.417067 0 13.1072-0.290133 20.1216-0.887466v17.800533a575.6928 575.6928 0 0 0-32.3584-0.887467v27.562667c9.3184 0 18.653867-0.290133 27.989333-0.887467v15.121067a445.6448 445.6448 0 0 0-27.989333-0.887467v41.813334h-17.476267c0.5632-13.6192 0.853333-27.562667 0.853334-41.813334-9.6256-0.0512-19.285333 0.546133-28.842667 1.792v-16.0256a413.013333 413.013333 0 0 0 28.842667 0.887467v-27.579733c-9.3184 0-19.524267 0.3072-30.583467 0.887466v-17.783466a481.792 481.792 0 0 0 27.972267 0.887466h16.605866c3.259733-12.868267 5.597867-25.941333 6.997334-39.150933 6.8096 2.491733 13.824 4.266667 20.992 5.341867a42.376533 42.376533 0 0 0-6.126934 11.5712z m-19.217066-35.584c10.478933 0 19.797333-0.3072 27.972266-0.887467v16.896a696.064 696.064 0 0 0-37.597866-0.887467c-13.994667 0-26.231467 0.290133-36.727467 0.887467v-16.896c8.7552 0.597333 18.0736 0.887467 27.989333 0.887467-1.024-7.509333-2.474667-14.933333-4.386133-22.254934 7.5776-1.160533 13.994667-2.3552 19.234133-3.584 1.160533 9.5232 2.321067 18.141867 3.498667 25.838934z m-10.496 48.930133c-5.12 2.321067-10.0864 5.000533-14.848 8.021333a155.767467 155.767467 0 0 0-14.848-29.371733c4.898133-1.877333 9.5744-4.266667 13.994666-7.1168 6.365867 11.264 11.605333 20.770133 15.701334 28.4672zM93.184 934.536533l-1.297067-1.109333a90.197333 90.197333 0 0 0-15.4624-10.478933l-2.013866-1.1264 1.7408-1.536a263.6288 263.6288 0 0 0 24.797866-25.207467v-71.5776c-7.594667 0.034133-15.189333 0.341333-22.784 0.8704l-1.706666 0.136533v-21.2992l1.706666 0.136534c8.072533 0.580267 21.4528 0.887467 40.96 0.887466h1.774934l-0.170667 1.774934c-1.160533 12.288-1.757867 22.715733-1.757867 30.993066v29.303467c3.976533-8.055467 7.0144-16.520533 9.096534-25.258667 3.549867-14.2848 5.444267-28.928 5.632-43.656533 0.290133-15.735467 0.119467-35.0208-0.426667-57.309867l-0.0512-1.672533h61.934933l-0.119466 1.723733a578.56 578.56 0 0 0 0 62.976l0.1024 1.706667H152.098133c-0.4608 6.9632-1.194667 13.892267-2.235733 20.7872h47.018667l-0.085334 1.706667a697.122133 697.122133 0 0 0 0 70.126933l0.068267 1.706667H142.848l0.085333-1.706667c0.4608-11.537067 0.750933-26.248533 0.836267-43.895467-3.84 13.141333-8.6528 25.975467-14.404267 38.4l-1.109333 2.423467-1.621333-2.0992c-2.423467-3.208533-4.9664-6.314667-7.6288-9.352533v8.4992c17.152 14.7456 44.544 22.254933 81.4592 22.254933 37.666133 0 66.730667-0.904533 86.4256-2.679467l2.9696-0.256-1.4336 2.6624c-3.242667 5.853867-5.256533 12.288-5.9392 18.944l-0.119467 1.4848h-1.4848c-25.309867 0-51.643733-0.290133-78.2848-0.887466-26.965333-0.597333-45.175467-2.9696-55.637333-7.236267a153.975467 153.975467 0 0 1-25.173334-12.5952c-5.666133-3.6352-9.847467-3.413333-13.175466 0.955733l-15.428267 20.48z m21.589333-27.2384c3.140267 0.170667 6.178133 1.2288 8.738134 3.072a151.893333 151.893333 0 0 0 24.661333 12.288c9.949867 4.0448 28.296533 6.4 54.510933 6.997334 26.112 0.580267 51.950933 0.887467 76.8 0.904533 0.7168-5.5808 2.3552-11.025067 4.8128-16.0768-19.694933 1.604267-47.854933 2.4064-83.797333 2.4064-38.109867 0-66.423467-7.901867-84.104533-23.552l-0.546134-0.477867v-55.876266c0-7.953067 0.512-17.92 1.5872-29.525334-17.373867 0-29.764267-0.256-37.751466-0.750933v14.301867c7.68-0.512 15.36-0.768 22.8864-0.768h1.604266v76.0832l-0.392533 0.443733a266.24 266.24 0 0 1-23.790933 24.439467c4.4544 2.542933 8.704 5.4272 12.714666 8.6528l13.4144-17.783467a10.581333 10.581333 0 0 1 8.635734-4.778667z m31.402667-11.434666h47.36a717.6704 717.6704 0 0 1 0-67.037867H146.944v11.7248c0 22.596267-0.238933 41.198933-0.785067 55.330133h0.034134z m-29.047467-19.643734l1.416534 1.4336c3.1744 3.362133 6.178133 6.8608 8.994133 10.513067 7.048533-15.394133 12.509867-31.453867 16.2816-47.957333l2.491733-11.383467H146.090667l0.324266-1.877333c1.2288-7.918933 2.0992-15.872 2.594134-23.876267l0.1024-1.501867h42.666666a592.759467 592.759467 0 0 1-0.034133-59.938133H136.533333c0.512 21.6576 0.682667 40.448 0.392534 55.808-0.187733 14.984533-2.116267 29.883733-5.7344 44.424533a117.213867 117.213867 0 0 1-12.3904 31.556267l-1.655467 2.798933z m132.130134 33.570134H228.522667l0.068266-1.6896c0.546133-13.141333 0.853333-26.624 0.8704-40.106667-9.045333 0-18.090667 0.597333-27.050666 1.757867l-1.792 0.238933v-19.626667l1.706666 0.136534c8.072533 0.546133 17.186133 0.853333 27.136 0.853333v-24.285867c-8.772267 0-18.500267 0.3072-28.945066 0.853334l-1.672534 0.1024v-21.213867l1.6896 0.085333c6.997333 0.392533 13.6192 0.682667 19.729067 0.802134a156.962133 156.962133 0 0 0-14.165333-27.648l-1.024-1.672534 1.792-0.733866c4.778667-1.8432 9.3696-4.181333 13.687466-6.9632l1.416534-0.955734 0.853333 1.501867c5.376 9.437867 10.632533 18.944 15.7696 28.501333l0.8192 1.536-1.570133 0.733867a121.821867 121.821867 0 0 0-11.195734 5.768533h17.152c3.072-12.3904 5.290667-24.9856 6.656-37.6832l0.170667-1.6896a869.7344 869.7344 0 0 0-12.561067-0.1024 665.6 665.6 0 0 0-36.625066 0.904534l-1.6896 0.085333v-20.360533l1.706666 0.119466c7.9872 0.5632 16.7424 0.853333 26.043734 0.8704-0.682667-5.12-2.065067-11.8784-4.096-20.206933l-0.443734-1.723733 1.757867-0.273067c6.417067-0.9728 12.8-2.1504 19.114667-3.549867l1.723733-0.392533 0.221867 1.809067c1.024 8.704 2.1504 16.896 3.2768 24.3712 10.103467 0 18.773333-0.3072 26.504533-0.8704l1.706667-0.136534v20.3776l-1.706667-0.1024a570.2144 570.2144 0 0 0-23.773867-0.768l0.8192 0.290134c6.690133 2.440533 13.6192 4.1984 20.667734 5.256533l2.730666 0.443733-1.706666 2.184534a40.789333 40.789333 0 0 0-5.888 11.1104l-6.2976 20.036266c5.802667-0.0512 11.776-0.341333 17.783466-0.853333l1.723734-0.170667v21.282134l-1.6896-0.085334a561.834667 561.834667 0 0 0-30.651734-0.8704v24.302934a434.244267 434.244267 0 0 0 26.282667-0.8704l1.6896-0.119467v18.602667l-1.6896-0.119467a446.498133 446.498133 0 0 0-26.282667-0.8704v41.796267z m-17.408-3.242667h14.216533v-41.813333h1.5872c8.669867 0 17.544533 0.256 26.385067 0.785066v-11.6736c-8.789333 0.512-17.578667 0.785067-26.385067 0.785067h-1.5872V823.808h1.5872c10.3936 0 20.718933 0.273067 30.754133 0.802133v-14.336c-6.280533 0.512-12.509867 0.750933-18.500266 0.750934H257.706667l7.645866-24.3712c1.245867-3.464533 2.850133-6.775467 4.829867-9.898667a108.714667 108.714667 0 0 1-16.776533-4.266667 288.512 288.512 0 0 1-6.826667 37.307734l-0.3072 1.211733h-17.851733c-7.8848 0-16.7424-0.256-26.385067-0.802133v14.370133c10.513067-0.512 20.258133-0.785067 29.013333-0.785067h1.5872v30.8224h-1.5872a432.128 432.128 0 0 1-27.255466-0.785066v12.4416c9.045333-1.0752 18.141867-1.5872 27.255466-1.536h1.5872v1.621333c0 13.499733-0.256 27.016533-0.785066 40.192z m-22.016-126.634667c5.239467 8.2944 9.693867 17.066667 13.294933 26.197334 3.84-2.321067 7.799467-4.437333 11.844267-6.365867-4.590933-8.533333-9.2672-16.9984-14.062934-25.412267a81.271467 81.271467 0 0 1-11.093333 5.5808h0.034133z m28.228266-14.848c13.687467 0 25.770667 0.273067 36.010667 0.802134v-13.431467c-7.714133 0.512-16.384 0.768-26.385067 0.768h-1.416533l-0.2048-1.365333a856.576 856.576 0 0 1-3.293867-24.064c-4.539733 0.9728-9.8816 1.962667-15.872 2.901333 1.7408 6.826667 3.072 13.755733 3.9936 20.736l0.2048 1.809067h-1.792c-9.386667 0-18.261333-0.256-26.385066-0.785067v13.4656c11.690667-0.580267 23.415467-0.853333 35.1232-0.8192h0.017066z m-57.002666 118.920534H159.505067v-44.168534h21.5552v44.168534z m-18.363734-3.242667h15.189334v-37.6832h-15.189334v37.6832z m16.605867-91.067733H149.896533v-36.164267h29.405867v36.181333z m-26.2144-3.242667h23.04v-29.696H153.088v29.696z m-49.629867-1.399467l-0.6656-1.7408a164.864 164.864 0 0 0-19.0464-36.096l-1.024-1.4336 1.4848-0.9216c5.1712-3.191467 10.461867-6.178133 15.854934-8.96l1.314133-0.648533 0.768 1.245867c7.6288 11.707733 14.3872 23.978667 20.224 36.693333l0.6144 1.416533-1.365333 0.682667c-5.563733 2.8672-11.093333 5.819733-16.554667 8.874667l-1.604267 0.887466z m-16.093866-38.2976c7.168 10.513067 13.124267 21.8112 17.749333 33.672534a491.52 491.52 0 0 1 13.704533-7.338667c-5.461333-11.605333-11.6736-22.8352-18.602666-33.621333-3.959467 2.082133-8.277333 4.522667-12.868267 7.287466z m247.722666 146.295467c-6.485333 9.5744-13.482667 18.773333-20.992 27.579733a39.424 39.424 0 0 0-11.3664-14.2336c7.5776-7.6288 14.609067-15.803733 20.992-24.456533a189.44 189.44 0 0 0 17.493334-30.72c-4.676267-8.9088-9.198933-16.896-13.550934-24.029867a147.626667 147.626667 0 0 0-16.1792-21.333333c4.437333-2.798933 8.533333-6.0928 12.2368-9.813333 4.283733 5.0688 8.226133 10.410667 11.776 16.0256 3.771733 5.9392 8.004267 12.458667 12.680534 19.575466a145.6128 145.6128 0 0 0 6.997333-27.579733c1.7408-10.683733 3.191467-22.528 4.369067-35.584h-23.586134c-9.898667 0-17.749333 0.290133-23.6032 0.887467v-16.896c5.819733 0.597333 13.397333 0.887467 22.7328 0.887466h41.984c-0.597333 7.714133-1.314133 14.984533-2.184533 21.794134-0.853333 6.8096-2.321067 16.298667-4.369067 28.4672a226.304 226.304 0 0 1-6.144 28.023466c-2.048 6.536533-3.652267 11.8784-4.8128 16.008534a1493.1456 1493.1456 0 0 1 27.989334 42.7008 55.125333 55.125333 0 0 0-13.994667 10.683733 289.757867 289.757867 0 0 0-11.3664-20.906667 156.5184 156.5184 0 0 0-9.608533-14.677333 523.946667 523.946667 0 0 1-17.493334 27.613867z m160.8704-18.670933a379.904 379.904 0 0 0-27.101866-0.904534h-6.144v32.938667h13.124266c12.2368 0 22.4256-0.3072 30.583467-0.904533v15.121066a401.186133 401.186133 0 0 0-30.583467-0.887466h-62.071466v17.800533h-14.848c0.580267-8.891733 0.8704-24.029867 0.887466-45.380267V802.304c-2.3552 4.744533-4.4032 9.216-6.144 13.346133a164.522667 164.522667 0 0 1-6.997333 14.2336 39.697067 39.697067 0 0 0-15.735467-8.891733c5.290667-7.7824 9.949867-15.957333 13.994667-24.4736 4.061867-8.584533 7.560533-16.452267 10.478933-23.569067 2.8672-6.997333 5.341867-14.114133 7.424-21.367466 1.8944-6.382933 3.208533-12.936533 3.925334-19.5584 6.997333 2.389333 13.4144 4.4544 19.2512 6.229333-2.474667 3.754667-4.539733 7.7824-6.144 12.014933-2.338133 5.632-4.9664 12.612267-7.867734 20.906667h59.477334c10.496 0 20.394667-0.3072 29.730133-0.904533v15.138133c-5.239467-0.580267-14.848-0.887467-28.842667-0.887467h-9.6256v29.354667h6.997334c9.3184 0 17.749333-0.290133 25.344-0.887467v16.008534a289.9968 289.9968 0 0 0-25.344-0.887467h-6.997334V860.16h6.144c10.478933 0 19.524267-0.290133 27.101867-0.887467v15.121067l-0.017067-0.017067z m-49.834666-60.501334v-29.354666h-32.3584v29.354666h32.3584z m0 46.250667v-32.017067h-32.3584v32.034134h32.3584z m0 46.267733V873.472h-32.3584v32.9216h32.3584z m0.853333-158.805333a360.362667 360.362667 0 0 1-7.867733-10.24c4.0448-2.935467 7.850667-6.212267 11.3664-9.7792 4.642133 5.341867 8.721067 9.7792 12.2368 13.346133a71.68 71.68 0 0 1 8.738133 10.666667c-4.898133 3.874133-9.5744 8.021333-13.994667 12.458667a114.7392 114.7392 0 0 0-10.478933-16.452267z m-31.624533 191.573333h-18.141867l0.1024-1.723733c0.580267-8.9088 0.8704-24.132267 0.8704-45.277867v-82.773333c-1.092267 2.338133-2.0992 4.6592-3.072 6.894933a163.396267 163.396267 0 0 1-7.048533 14.404267l-1.024 1.877333-1.501867-1.536c-4.334933-3.925333-9.506133-6.826667-15.121067-8.482133l-1.8432-0.631467a133.12 133.12 0 0 1-2.679466 10.24c-1.928533 6.144-3.464533 11.229867-4.608 15.223467 3.072 4.4544 7.168 10.530133 11.810133 17.646933 5.256533 8.021333 10.513067 16.1792 15.752533 24.490667l0.9728 1.536-1.5872 0.836267a53.589333 53.589333 0 0 0-13.585066 10.3424l-1.536 1.604266-1.006934-2.013866a285.0816 285.0816 0 0 0-19.370666-33.450667 558.2336 558.2336 0 0 1-16.3328 25.6 314.077867 314.077867 0 0 1-21.0944 27.716267l-1.536 1.8432-1.0752-2.167467a37.922133 37.922133 0 0 0-10.9056-13.653333l-1.467734-1.143467 1.314134-1.314133c7.509333-7.5776 14.4896-15.701333 20.821333-24.285867 6.5536-9.3696 12.2368-19.3024 16.981333-29.696a412.7232 412.7232 0 0 0-13.1072-23.210667 147.9168 147.9168 0 0 0-16.008533-21.111466l-1.297067-1.450667 1.6384-1.024c4.317867-2.730667 8.328533-5.922133 11.946667-9.557333l1.194667-1.2288 1.143466 1.314133c4.334933 5.12 8.328533 10.530133 11.946667 16.196267 3.584 5.649067 7.2192 11.281067 10.888533 16.896 2.6112-7.918933 4.573867-16.042667 5.8368-24.285867 1.6384-10.0352 3.072-21.367467 4.1984-33.6896h-21.845333c-9.7792 0-17.664 0.290133-23.466667 0.887467l-1.7408 0.170666v-20.48l1.7408 0.170667c5.7344 0.597333 13.124267 0.904533 22.5792 0.904533h43.690667l-0.136533 1.7408c-0.546133 7.304533-1.262933 14.609067-2.184534 21.879467-0.853333 6.621867-2.304 15.957333-4.386133 28.535467-0.9728 5.853867-2.0992 11.690667-3.3792 17.493333l0.9216-1.3312c5.239467-7.7312 9.864533-15.837867 13.858133-24.2688 3.703467-7.7312 7.185067-15.5648 10.461867-23.483733 2.833067-6.929067 5.290667-14.011733 7.3728-21.213867 1.8432-6.2976 3.140267-12.7488 3.874133-19.285333l0.2048-2.048 1.8944 0.6656c6.741333 2.304 13.192533 4.386133 19.182934 6.212266l2.2016 0.6656-1.3824 1.860267c-2.389333 3.669333-4.386133 7.5776-5.9392 11.6736-2.491733 6.144-4.864 12.373333-7.0656 18.653867h57.1904c10.564267 0 20.5312-0.3072 29.610666-0.887467l1.706667-0.1024v18.670933l-1.774933-0.187733c-5.205333-0.597333-14.848-0.887467-28.672-0.887467h-8.021334v26.112h5.410134c9.3696 0 17.834667-0.3072 25.224533-0.887466l1.706667-0.136534v19.541334l-1.706667-0.170667a290.269867 290.269867 0 0 0-25.224533-0.8704h-5.410134v28.791467h4.539734c10.666667 0 19.490133-0.3072 26.965333-0.904534l1.706667-0.136533v18.6368l-1.6896-0.119467a379.118933 379.118933 0 0 0-26.9824-0.887466h-4.539734v29.696h11.52c12.458667 0 22.4256-0.3072 30.498134-0.887467l1.706666-0.136533v18.6368l-1.723733-0.136534a405.4016 405.4016 0 0 0-30.481067-0.887466h-60.484266v17.783466z m-14.762667-3.242666h11.5712v-17.783467h63.675733c12.1344 0 21.674667 0.238933 29.013334 0.750933v-11.605333c-7.8336 0.512-17.3568 0.768-29.013334 0.768h-14.6944v-36.164267h7.714134c9.147733 0 17.7152 0.256 25.4976 0.768v-11.656533c-7.202133 0.512-15.5648 0.768-25.4976 0.768h-7.7312v-35.2768h8.6016c9.5232 0 17.493333 0.238933 23.7568 0.750933v-12.509866c-7.048533 0.512-15.035733 0.768-23.7568 0.768h-8.584534v-32.597334h11.195734c12.509867 0 21.674667 0.238933 27.255466 0.699734v-11.588267c-8.704 0.512-18.141867 0.785067-28.125866 0.785067h-61.713067l0.768-2.167467c2.423467-7.0656 5.0688-14.08 7.901867-20.992 1.416533-3.601067 3.106133-7.099733 5.051733-10.461867-4.864-1.536-10.001067-3.1744-15.36-4.949333-0.785067 6.024533-2.048 11.997867-3.754667 17.834667-2.116267 7.304533-4.608 14.4896-7.492266 21.504-3.293867 7.9872-6.8096 15.872-10.530134 23.688533-3.754667 7.936-8.0896 15.598933-12.919466 22.920533 4.642133 1.621333 8.977067 4.027733 12.8 7.1168 2.491733-4.6592 4.437333-8.704 5.9392-12.288 1.809067-4.3008 3.8912-8.823467 6.144-13.431466l3.0208-6.144v96.733866a842.666667 842.666667 0 0 1-0.7168 43.793067v-0.034133zM305.117867 906.24c3.771733 3.242667 6.929067 7.150933 9.301333 11.52a314.709333 314.709333 0 0 0 19.3536-25.634133c6.4-9.506133 12.288-18.756267 17.408-27.511467l1.194667-1.9968 1.4336 1.826133c3.515733 4.7616 6.7584 9.728 9.728 14.848 3.703467 6.212267 7.202133 12.561067 10.461866 19.029334a57.002667 57.002667 0 0 1 11.264-8.567467c-4.949333-7.7824-9.864533-15.428267-14.779733-22.9376a909.602133 909.602133 0 0 0-12.202667-18.210133l-0.4608-0.631467 0.187734-0.750933c1.143467-4.0448 2.730667-9.301333 4.829866-16.042667 2.6112-9.147733 4.642133-18.432 6.075734-27.818667 2.082133-12.544 3.5328-21.845333 4.352-28.416 0.802133-6.144 1.467733-12.6976 2.048-19.968h-40.226134c-8.635733 0-15.581867-0.238933-21.1456-0.733866v13.346133c5.700267-0.512 13.1072-0.7168 22.016-0.7168h25.361067l-0.170667 1.757867c-1.024 11.946667-2.491733 23.8592-4.386133 35.720533a148.565333 148.565333 0 0 1-7.0656 27.886933l-1.109333 2.952534-1.706667-2.628267c-4.676267-7.133867-8.9088-13.653333-12.6976-19.592533a141.4656 141.4656 0 0 0-10.581333-14.5408c-2.986667 2.8672-6.229333 5.461333-9.6768 7.765333 5.597867 6.280533 10.6496 13.038933 15.086933 20.1728 4.795733 7.8848 9.335467 15.9232 13.602133 24.1152l0.392534 0.7168-0.3584 0.750933a190.1568 190.1568 0 0 1-17.646934 30.958934c-6.075733 8.226133-12.714667 16.042667-19.882666 23.330133z m142.592 1.757867H412.16v-36.1472h35.5328v36.1472z m-32.3584-3.242667h29.184v-29.696h-29.184v29.696z m32.3584-43.008H412.16v-35.259733h35.5328v35.259733z m-32.3584-3.242667h29.184v-28.7744h-29.184v28.7744z m32.3584-43.008H412.16v-32.597333h35.5328v32.597333z m-32.3584-3.242666h29.184v-26.112h-29.184v26.112z m41.762133-45.5168l-1.024-1.8944a113.117867 113.117867 0 0 0-10.3424-16.213334c-2.679467-3.413333-5.3248-6.826667-7.901867-10.2912l-0.9728-1.3312 1.3312-0.955733c3.976533-2.901333 7.714133-6.109867 11.1616-9.608533l1.194667-1.262934 1.143467 1.297067c3.925333 4.539733 7.970133 8.96 12.151466 13.277867 3.328 3.345067 6.314667 6.997333 8.942934 10.922666l0.836266 1.245867-1.1776 0.938667a153.429333 153.429333 0 0 0-13.824 12.322133l-1.536 1.553067z m-15.7184-29.013334c1.6896 2.235733 3.959467 5.188267 6.843733 8.874667 3.584 4.6592 6.826667 9.6256 9.6256 14.813867 3.6352-3.566933 7.458133-6.946133 11.434667-10.1376a71.816533 71.816533 0 0 0-7.68-9.216 298.5472 298.5472 0 0 1-11.195733-12.1344 96.8192 96.8192 0 0 1-9.045334 7.765333v0.034133z m118.3744 20.104534c0-6.5024-0.290133-14.813867-0.853333-24.917334h18.346666a464.213333 464.213333 0 0 0-0.8704 24.917334v32.938666c8.738133 0 17.7664-0.3072 27.101867-0.904533v16.008533a495.889067 495.889067 0 0 0-27.101867-0.887466v64.955733c6.382933-2.372267 16.008533-6.519467 28.842667-12.458667 0 5.341867 0.290133 10.7008 0.8704 16.008534-9.898667 4.7616-21.845333 9.949867-35.84 15.581866-11.997867 4.693333-23.688533 10.1888-34.9696 16.452267a102.229333 102.229333 0 0 0-10.478933-17.783467 464.725333 464.725333 0 0 0 34.9696-11.5712v-71.168c-12.8512 0-23.04 0.290133-30.600534 0.887467v-16.008533c9.898667 0.597333 20.087467 0.887467 30.600534 0.887466v-32.938666z m154.743467-22.237867v14.2336a60.381867 60.381867 0 0 0-26.658134 16.008533 1939.285333 1939.285333 0 0 0-38.912 37.376h78.677334c-0.580267 4.164267-1.1776 13.653333-1.7408 28.4672l-3.498667 66.730667c-0.597333 14.848-3.652267 24.029867-9.181867 27.579733-5.5296 3.549867-15.291733 5.922133-29.2864 7.1168a63.658667 63.658667 0 0 0-7.867733-21.333333c12.2368 1.194667 20.104533 0.887467 23.6032-0.904533a13.312 13.312 0 0 0 6.126933-11.5712l3.498667-80.964267h-16.605867a278.357333 278.357333 0 0 1-10.496 44.4928 142.711467 142.711467 0 0 1-14.421333 30.702933 107.4176 107.4176 0 0 1-18.807467 22.237867c-8.192 7.099733-16.964267 13.482667-26.231466 19.114667a43.6224 43.6224 0 0 0-12.2368-15.121067 147.899733 147.899733 0 0 0 27.101866-18.670933 91.648 91.648 0 0 0 20.104534-24.917334c5.256533-9.5232 9.216-19.694933 11.776-30.242133 2.628267-10.683733 4.522667-19.882667 5.700266-27.5968h-17.493333a108.612267 108.612267 0 0 1-7.441067 27.136 115.0976 115.0976 0 0 1-16.162133 27.136 144.093867 144.093867 0 0 1-27.101867 25.8048 46.882133 46.882133 0 0 0-13.124266-13.346133 85.640533 85.640533 0 0 0 32.768-31.1296c7.0144-10.752 11.639467-22.903467 13.550933-35.601067a104.311467 104.311467 0 0 0-13.1072 1.774933c-2.338133 0.6144-6.126933 1.792-11.3664 3.566934a170.205867 170.205867 0 0 0-5.256533-17.800534c9.898667-1.1776 21.418667-7.850667 34.542933-20.0192 13.124267-12.168533 24.917333-23.876267 35.413333-35.140266h-33.2288c-12.834133 0-24.7808 0.290133-35.84 0.887466v-16.896c10.496 0.597333 22.152533 0.904533 34.986667 0.887467h68.215467zM622.08 937.181867l-0.785067-1.5872a41.9328 41.9328 0 0 0-11.776-14.574934l-1.9456-1.536 2.184534-1.1776a146.875733 146.875733 0 0 0 26.794666-18.500266 90.368 90.368 0 0 0 19.780267-24.456534c5.188267-9.386667 9.096533-19.438933 11.639467-29.866666 2.389333-9.6768 4.181333-18.261333 5.358933-25.5488h-14.216533a111.957333 111.957333 0 0 1-7.355734 26.146133 117.128533 117.128533 0 0 1-16.384 27.511467 145.988267 145.988267 0 0 1-27.409066 26.094933l-1.450667 1.0752-0.887467-1.570133a45.448533 45.448533 0 0 0-12.663466-12.834134l-2.048-1.536 2.218666-1.2288c4.181333-2.286933 8.192-4.9152 11.946667-7.850666-9.642667 4.590933-21.1456 9.557333-34.184533 14.7968-11.946667 4.693333-23.569067 10.171733-34.798934 16.384l-1.536 0.8704-0.7168-1.621334a101.154133 101.154133 0 0 0-10.308266-17.5104l-1.348267-1.877333 2.218667-0.648533a456.789333 456.789333 0 0 0 33.792-11.127467v-68.4032c-11.9296 0-21.640533 0.3072-28.8768 0.853333l-1.706667 0.170667v-19.524267l1.672533 0.1024c9.1648 0.5632 18.875733 0.853333 28.910934 0.887467v-31.2832c0-6.382933-0.290133-14.711467-0.853334-24.814933l-0.119466-1.706667h21.742933l-0.1024 1.706667c-0.580267 10.410667-0.8704 18.773333-0.8704 24.814933v31.2832c8.482133-0.034133 16.964267-0.341333 25.429333-0.887467l1.672534-0.1024v19.456l-1.6896-0.1024c-9.745067-0.512-18.295467-0.836267-25.412267-0.853333v60.962133c6.331733-2.4576 15.274667-6.3488 26.624-11.605333l2.2528-1.024v2.525867c0 5.290667 0.290133 10.581333 0.8704 15.837866l0.034133 0.3072a82.346667 82.346667 0 0 0 17.5616-20.548266 91.357867 91.357867 0 0 0 13.073067-32.938667 89.668267 89.668267 0 0 0-10.888533 1.536c-2.372267 0.631467-6.161067 1.826133-11.264 3.549867l-1.6384 0.546133-0.392534-1.706667c-1.4336-5.956267-3.1744-11.8272-5.205333-17.6128l-0.7168-1.9456 2.048-0.238933c9.5232-1.1264 20.8384-7.7312 33.6384-19.6096a691.029333 691.029333 0 0 0 32.768-32.324267h-29.4912c-12.629333 0-24.661333 0.3072-35.771733 0.904534l-1.655467 0.085333v-20.3264l1.672533 0.085333c10.24 0.597333 21.9648 0.887467 34.884267 0.887467h69.7856v17.152l-1.262933 0.273067a59.221333 59.221333 0 0 0-25.924267 15.633066c-9.079467 8.3968-21.162667 20.002133-36.010667 34.542934h76.561067l-0.273067 1.8432c-0.580267 4.0448-1.143467 13.568-1.723733 28.296533l-3.584 66.7648c-0.597333 15.530667-3.857067 24.9856-9.898667 28.893867-5.819733 3.703467-15.633067 6.144-30.020266 7.338666l-1.467734 0.136534-0.256-1.4848a62.532267 62.532267 0 0 0-7.68-20.7872l-1.570133-2.747734 3.106133 0.3072c4.130133 0.426667 8.277333 0.682667 12.424534 0.699734a23.893333 23.893333 0 0 0 10.308266-1.4336c3.413333-2.269867 5.410133-6.144 5.239467-10.24l3.413333-79.189334h-13.550933a280.064 280.064 0 0 1-10.325333 43.400534 144.964267 144.964267 0 0 1-14.609067 31.061333c-5.307733 8.3456-11.7248 15.940267-19.0976 22.562133a194.389333 194.389333 0 0 1-26.453333 19.285334l-1.450667 0.9216z m-8.704-17.169067c4.0448 3.566933 7.441067 7.799467 10.001067 12.544 8.669867-5.341867 16.896-11.383467 24.576-18.056533A105.6768 105.6768 0 0 0 666.453333 892.586667a141.4656 141.4656 0 0 0 14.267734-30.327467c4.676267-14.4384 8.157867-29.218133 10.410666-44.219733l0.238934-1.365334h19.626666l-0.068266 1.706667-3.498667 80.964267a14.916267 14.916267 0 0 1-6.997333 12.9536c-3.549867 1.774933-10.530133 2.218667-21.469867 1.314133 2.952533 5.563733 5.085867 11.537067 6.314667 17.7152a65.024 65.024 0 0 0 27.136-6.741333c5.051733-3.242667 7.8848-12.0832 8.448-26.282667l3.498666-66.730667c0.512-13.141333 1.024-21.947733 1.536-26.7776h-80.8448l2.8672-2.781866c16.162133-15.872 29.252267-28.450133 38.912-37.410134a64.512 64.512 0 0 1 26.146134-16.093866v-11.3152H646.314667c-12.458667 0-23.381333-0.273067-33.365334-0.802134v13.482667c10.666667-0.512 22.186667-0.802133 34.2528-0.802133h36.932267l-2.56 2.730666a683.52 683.52 0 0 1-35.498667 35.242667c-12.458667 11.537067-23.671467 18.312533-33.4336 20.1216 1.416533 4.0448 2.816 8.874667 4.1984 14.370133 4.369067-1.4336 7.68-2.474667 9.864534-3.0208a103.765333 103.765333 0 0 1 13.3632-1.826133l1.9456-0.187733-0.221867 1.979733a91.716267 91.716267 0 0 1-13.789867 36.266667 87.261867 87.261867 0 0 1-31.197866 30.481066c4.061867 3.037867 7.645867 6.673067 10.615466 10.8032a141.533867 141.533867 0 0 0 25.429334-24.4736 114.056533 114.056533 0 0 0 15.940266-26.760533c3.584-8.5504 6.0416-17.544533 7.338667-26.7264l0.1536-1.399467h20.753067l-0.290134 1.877334c-1.160533 7.748267-3.072 17.066667-5.700266 27.716266a124.330667 124.330667 0 0 1-11.963734 30.651734 94.173867 94.173867 0 0 1-20.48 25.361066 150.647467 150.647467 0 0 1-25.258666 17.749334h0.034133z m-85.9136-31.368533c3.242667 4.608 6.126933 9.506133 8.6016 14.592a297.181867 297.181867 0 0 1 33.6384-15.701334c13.312-5.358933 25.002667-10.410667 34.730667-15.0528a139.656533 139.656533 0 0 1-0.733867-12.509866c-11.6736 5.358933-20.650667 9.216-26.7264 11.4688l-2.1504 0.785066V803.328h1.604267c7.0656 0 15.633067 0.273067 25.514666 0.802133v-12.578133a431.274667 431.274667 0 0 1-25.514666 0.785067h-1.604267v-34.542934c0-5.7856 0.256-13.6192 0.785067-23.296h-14.984534c0.512 9.506133 0.785067 17.152 0.785067 23.296v34.542934h-1.6384c-10.0352 0-19.797333-0.256-29.013333-0.785067v12.526933c7.4752-0.512 17.220267-0.750933 29.013333-0.750933h1.5872v73.9328l-1.024 0.392533c-10.837333 4.061867-21.8112 7.7312-32.904533 10.990934h0.034133z m262.280533-126.395734v31.146667h47.2064c-0.597333 13.653333-0.887467 27.306667-0.8704 40.925867 0 13.056 0.290133 23.722667 0.8704 32.034133h-48.0768a125.047467 125.047467 0 0 1-6.144 32.034133c-3.874133 11.5712-8.5504 22.869333-13.994666 33.792a30.242133 30.242133 0 0 0-15.735467-8.9088c9.301333-14.165333 15.138133-30.3104 17.0496-47.1552 2.1504-19.2 3.1744-38.519467 3.072-57.856 0-21.333333-0.290133-43.8784-0.8704-67.601066 31.470933-3.566933 52.155733-8.021333 62.071467-13.346134 2.7648 6.144 5.973333 12.100267 9.608533 17.783467-6.434133 0.631467-24.507733 3.0208-54.2208 7.168h0.034133z m31.470934 88.9856v-43.605333h-31.470934v43.588267h31.470934zM916.48 759.125333c-11.093333 1.501867-25.088 2.833067-41.984 4.010667v42.7008h49.834667c8.1408 0 16.896-0.3072 26.231466-0.887467v16.008534a432.503467 432.503467 0 0 0-27.101866-0.887467v79.189333c0 11.861333 0.290133 22.528 0.853333 32.034134h-18.346667c0.580267-10.683733 0.8704-21.367467 0.8704-32.034134v-79.189333H874.496a286.122667 286.122667 0 0 1-6.997333 55.6032 160.324267 160.324267 0 0 1-12.2368 33.365333c-5.12 9.557333-11.264 18.500267-18.363734 26.692267a38.5024 38.5024 0 0 0-14.848-10.683733 107.997867 107.997867 0 0 0 23.620267-33.348267c6.024533-13.5168 9.710933-27.9552 10.922667-42.717867 1.450667-15.701333 2.184533-31.266133 2.184533-46.711466 0-16.008533-0.290133-33.518933-0.8704-52.48 12.868267-0.324267 25.7024-1.365333 38.468267-3.1232 13.755733-1.314133 27.2896-4.437333 40.209066-9.335467 2.901333 6.519467 5.819733 12.7488 8.7552 18.688-8.192 0.597333-17.800533 1.621333-28.859733 3.106133z m-79.5648 179.080534l-1.194667-1.416534a37.12 37.12 0 0 0-14.267733-10.24l-2.321067-0.938666 1.826134-1.7408a107.4176 107.4176 0 0 0 23.2448-32.8704 130.082133 130.082133 0 0 0 10.786133-42.1888c1.450667-15.633067 2.184533-31.2832 2.184533-46.5408 0-15.752533-0.290133-33.3824-0.8704-52.445867l-0.068266-1.672533h1.655466c12.8-0.324267 25.6-1.365333 38.280534-3.1232a153.719467 153.719467 0 0 0 39.799466-9.216l1.416534-0.580267 0.648533 1.4336c2.781867 6.263467 5.6832 12.458667 8.704 18.619733l1.058133 2.167467-2.389333 0.170667c-8.192 0.6144-17.851733 1.655467-28.757333 3.1232-10.717867 1.450667-24.3712 2.747733-40.567467 3.925333v39.543467h48.2304c8.2432 0 17.032533-0.3072 26.112-0.887467l1.706667-0.119467v19.490134l-1.706667-0.119467a427.52 427.52 0 0 0-25.412267-0.853333v77.533866c0 12.0832 0.290133 22.528 0.8704 31.931734l0.119467 1.706666h-21.7088l0.085333-1.706666a593.749333 593.749333 0 0 0 0.887467-31.931734v-77.568H876.032a283.6992 283.6992 0 0 1-6.9632 54.408534 161.211733 161.211733 0 0 1-12.3904 33.706666 148.189867 148.189867 0 0 1-18.551467 26.9824l-1.211733 1.416534z m-12.014933-13.6704c4.488533 2.1504 8.5504 5.12 11.963733 8.7552 6.519467-7.7312 12.219733-16.110933 16.9984-25.019734a159.607467 159.607467 0 0 0 12.117333-33.006933c4.096-18.158933 6.417067-36.693333 6.929067-55.296l0.085333-1.536h35.447467v80.7936c0 10.001067-0.256 20.241067-0.768 30.4128h14.9504a537.088 537.088 0 0 1-0.768-30.4128v-80.776533h1.604267c8.106667 0 16.6912 0.256 25.4976 0.768v-12.544c-8.567467 0.512-16.8448 0.785067-24.6272 0.785066h-51.421867v-45.858133l1.4848-0.085333a674.423467 674.423467 0 0 0 41.864533-4.010667 540.279467 540.279467 0 0 1 26.555734-2.935467c-2.389333-4.9152-4.7616-10.001067-7.0656-15.1552a162.679467 162.679467 0 0 1-39.202134 8.874667c-12.270933 1.655467-24.6272 2.696533-37.000533 3.1232 0.546133 18.432 0.8192 35.549867 0.8192 50.858667 0 15.3088-0.733867 31.112533-2.184533 46.882133a133.4272 133.4272 0 0 1-11.076267 43.2128c-5.4272 11.946667-12.970667 22.852267-22.203733 32.170667z m-55.739734 10.376533l-1.570133-1.5872a28.962133 28.962133 0 0 0-14.916267-8.465067l-2.338133-0.4608 1.314133-2.048a107.008 107.008 0 0 0 16.7936-46.421333c2.133333-19.1488 3.157333-38.4 3.072-57.6512 0-20.992-0.3072-43.758933-0.887466-67.584l-0.034134-1.4848 1.467734-0.170667c31.112533-3.515733 51.797333-7.953067 61.4912-13.192533l1.536-0.802133 0.699733 1.5872c2.730667 6.0928 5.905067 11.963733 9.489067 17.578666l1.4336 2.2528-2.628267 0.256c-6.3488 0.597333-24.081067 2.9184-52.736 6.912v28.091734h47.274667l-0.068267 1.706666c-0.580267 13.312-0.8704 27.067733-0.8704 40.840534 0 13.294933 0.290133 23.722667 0.8704 31.914666l0.136533 1.7408h-48.366933a126.293333 126.293333 0 0 1-6.109867 30.9248c-3.8912 11.656533-8.584533 23.022933-14.062933 34.030934l-0.989867 2.048z m-13.602133-12.680533c4.727467 1.399467 9.079467 3.874133 12.6976 7.236266 5.000533-10.24 9.3184-20.804267 12.936533-31.624533 3.3792-10.24 5.410133-20.855467 6.0416-31.607467l0.085334-1.536h47.872a490.24 490.24 0 0 1-0.750934-30.4128c0-13.243733 0.273067-26.453333 0.802134-39.304533h-47.138134V760.832l1.365334-0.187733c26.282667-3.6864 43.6224-5.973333 51.712-6.8608a140.014933 140.014933 0 0 1-7.6288-14.2336c-10.478933 5.051733-30.037333 9.181867-59.682134 12.578133 0.546133 23.296 0.836267 45.568 0.836267 66.167467a502.784 502.784 0 0 1-3.072 58.026666 110.609067 110.609067 0 0 1-16.0768 45.909334z m67.2256-69.410134h-34.645333v-46.830933h34.645333v46.830933z m-31.470933-3.242666h28.279466v-40.3456h-28.296533v40.3456zM808.96 511.488V512H624.64l-87.04-97.28-87.04 87.04 32.631467 149.162667A35.805867 35.805867 0 1 1 414.72 665.6l-46.08-215.04 71.68-76.8-66.56-76.8V358.4l-0.238933 0.238933a12.6976 12.6976 0 0 1-14.882134 14.882134L358.4 373.76h-148.48v-0.512a30.6176 30.6176 0 0 1 0-60.416v-0.512h107.52v-81.92l81.92-66.56h153.6l107.52 122.88-0.853333 0.750933a28.0576 28.0576 0 1 1-48.810667 25.873067L527.36 225.28h-40.96L665.6 440.32h143.36v0.512a35.669333 35.669333 0 0 1 0 70.656zM320 199.68a53.76 53.76 0 1 1 0-107.52 53.76 53.76 0 0 1 0 107.52z" fill="#00FF00" /></svg>