<?xml version="1.0" standalone="no"?><!DOCTYPE svg PUBLIC "-//W3C//DTD SVG 1.1//EN" "http://www.w3.org/Graphics/SVG/1.1/DTD/svg11.dtd"><svg class="icon" width="1000px" height="1000.00px" viewBox="0 0 1024 1024" version="1.1" xmlns="http://www.w3.org/2000/svg"><path d="M0 1024V0h1024v1024H0zM992 32H32v960h960V32z" fill="#00FF00" /><path d="M376.68864 750.24384a71.90016 71.90016 0 0 0 21.07904 11.45344 66.048 66.048 0 0 0-16.6912 19.3792h39.5264q21.94944 0 43.03872-1.76128v18.49856q-21.07904-1.7408-43.91424-1.76128h-47.42656q-7.90528 8.82176-14.49472 17.1776a144.12288 144.12288 0 0 1-16.24576 17.18272h47.42656a122.25536 122.25536 0 0 0-1.75616-22.90688h21.07904a220.7232 220.7232 0 0 0-0.87552 22.90688h21.07904q21.07904 0 37.76512-0.88064v17.61792q-16.70656-0.87552-37.76512-0.88064h-21.07904v24.66816h57.088q14.04416 0 28.10368-0.88064v16.72704q-13.17376-0.87552-27.22816-0.88064H407.43424v17.61792q0 14.96064 0.87552 26.42944h-21.95968a118.72768 118.72768 0 0 0 2.63168-26.42944v-17.60768H327.50592q-19.33824 0-30.72 0.88064v-16.73728q14.91456 0.90112 30.72 0.88064h61.48096v-24.66816h-36.864a161.152 161.152 0 0 0-28.10368 2.64704 185.856 185.856 0 0 0-7.90528-19.38432q12.288-5.28896 34.2528-33.47968a165.46816 165.46816 0 0 0-26.34752 1.76128v-17.61792q13.17376 0.896 36.00896 0.88064a95.50848 95.50848 0 0 0 16.66048-30.83264z m108.91264 2.64192c0 5.88288 0.2816 12.63616 0.87552 20.26496h-19.32288v-25.5488H321.3568v29.07136h-19.32288q0.8704-10.5728 0.88064-21.1456t-0.88064-22.90176h184.448a241.59232 241.59232 0 0 0-0.88064 20.25984z m-75.55072 178.688h-25.72288l0.45568-1.96608a117.504 117.504 0 0 0 2.60096-26.07104v-16.01536h-59.904c-12.71808 0-23.04 0.30208-30.61248 0.88064l-1.73056 0.14336V868.352l1.69472 0.10752c9.69216 0.58368 20.01408 0.88064 30.64832 0.88064h59.904V847.872h-35.28704a159.81056 159.81056 0 0 0-27.82208 2.63168l-1.3312 0.23552-0.45568-1.28a187.904 187.904 0 0 0-7.83872-19.20512l-0.75264-1.536 1.57184-0.67584c7.51104-3.24096 18.12992-13.45024 31.55456-30.3616a154.5728 154.5728 0 0 0-22.7584 1.7152l-1.86368 0.31232v-21.25312l1.71008 0.128c8.51968 0.58368 20.01408 0.86528 35.10272 0.88064a93.64992 93.64992 0 0 0 15.93344-29.63968l0.17408-0.62976H322.95936v29.07648h-22.66624l0.14336-1.73056c0.57856-7.05024 0.87552-14.11072 0.87552-21.02272s-0.29696-14.56128-0.87552-22.79424l-0.128-1.71008h187.904l-0.14336 1.74592a237.62944 237.62944 0 0 0-0.87552 20.11648c0 5.94944 0.29696 12.71296 0.87552 20.13696l0.14336 1.73056h-22.656v-25.5488h-87.552a71.13216 71.13216 0 0 0 20.3264 10.9824l3.29216 1.16224-3.02592 1.75104a57.7536 57.7536 0 0 0-14.45888 16.384h36.46976c14.58688 0 29.01504-0.59904 42.89536-1.76128l1.7408-0.14336v22.016l-1.72544-0.14336a534.5792 534.5792 0 0 0-43.79136-1.76128h-46.70464c-5.05344 5.632-9.728 11.23328-13.96224 16.57856a140.71808 140.71808 0 0 1-13.40928 14.5664h41.71776a117.49376 117.49376 0 0 0-1.71008-20.992l-0.38912-1.92H410.112l-0.2048 1.792a203.8016 203.8016 0 0 0-0.86528 21.10976h19.456c14.336 0 26.66496-0.29696 37.68832-0.87552l1.67936-0.09728v20.992l-1.67936-0.09216a730.75712 730.75712 0 0 0-37.68832-0.88576h-19.456v21.45792h55.48032c9.44128 0 18.8672-0.29696 28.01152-0.88064l1.69472-0.10752v20.16768l-1.71008-0.11264a414.97088 414.97088 0 0 0-27.136-0.88064H409.03168v16.01536c0 10.01984 0.29696 18.86208 0.87552 26.30656z m-21.7088-3.21024h18.24256c-0.512-7.20896-0.75264-15.36-0.75264-24.82688v-19.22048H465.408c8.704 0 17.30048 0.25088 25.63072 0.768v-13.312a451.584 451.584 0 0 1-26.50624 0.77824H405.83168v-27.8784h22.67648c13.20448 0 25.36448 0.26624 36.16768 0.78336v-14.22336c-10.6496 0.5376-22.49216 0.78848-36.16768 0.78848h-22.67648v-1.60768c0-9.12384 0.22016-16.12288 0.70144-21.2992h-17.37216a132.87936 132.87936 0 0 1 1.42848 21.2992v1.5872H337.408l3.072-2.80064a144.93696 144.93696 0 0 0 16.0768-16.9728 355.00032 355.00032 0 0 1 14.55616-17.25952l0.47104-0.512h48.128c14.45888 0 28.672 0.512 42.3168 1.61792v-15.00672c-13.44512 1.08544-27.37152 1.62304-41.43616 1.62304h-42.496l1.65888-2.49856a87.552 87.552 0 0 1 14.6176-18.048 73.04192 73.04192 0 0 1-16.7936-9.1904 103.20896 103.20896 0 0 1-16.2816 29.09184l-0.4864 0.64512h-0.80896c-14.57152 0-25.84576-0.25088-34.41152-0.77312v14.03392a176.47616 176.47616 0 0 1 24.75008-1.49504h3.29728l-2.048 2.59584c-14.08512 18.05824-25.01632 28.9792-33.37728 33.23904 2.048 4.3264 4.33152 9.9584 6.80448 16.80384a163.24608 163.24608 0 0 1 27.05408-2.42176h38.48704v27.8784H327.50592c-10.0864 0-19.87584-0.256-29.14304-0.77824v13.312c7.49568-0.512 17.28512-0.75264 29.14304-0.75264h63.0784v19.22048a124.9536 124.9536 0 0 1-2.24256 24.8064z m-84.56704-153.2928h15.98464V745.984h148.992v25.5488h16a252.04224 252.04224 0 0 1-0.75776-18.65728c0-6.03648 0.256-12.288 0.73728-18.65728H303.75936c0.512 7.68 0.75264 14.81728 0.75264 21.2992s-0.25088 12.99456-0.73728 19.55328z m239.7952-24.82688v177.95584h-17.56672q0.86528-20.26496 0.87552-36.99712v-114.52928q0-17.60256-0.87552-41.40544h77.312q-7.90016 26.42944-12.288 39.20384t-10.53696 29.51168a141.60384 141.60384 0 0 1 17.56672 30.39232 53.76 53.76 0 0 1 3.5072 22.90688 35.84 35.84 0 0 1-7.90016 19.82464q-7.03488 8.82688-33.37728 13.2096a69.632 69.632 0 0 0-7.90528-20.25984 70.76864 70.76864 0 0 0 22.8352-2.64192 13.4912 13.4912 0 0 0 8.3456-11.89888 39.53664 39.53664 0 0 0-5.26848-22.46144 299.3408 299.3408 0 0 0-16.25088-28.19072 368.83456 368.83456 0 0 0 18.432-54.62016h-36.864z m111.98464 1.76128a304.83968 304.83968 0 0 0 1.31584 34.36032 154.28608 154.28608 0 0 0 10.53696 43.60704 237.09696 237.09696 0 0 0 18.88768 38.76352 159.744 159.744 0 0 0 19.32288 25.984 122.15808 122.15808 0 0 0 18.00192 15.872 66.49856 66.49856 0 0 0-14.0544 14.976 195.00544 195.00544 0 0 1-31.17568-37.44256 259.32288 259.32288 0 0 1-29.42464-66.51392 225.01888 225.01888 0 0 1-12.73344 44.4928 192.512 192.512 0 0 1-18.432 31.27296 166.59456 166.59456 0 0 1-28.544 30.83264 38.46656 38.46656 0 0 0-14.92992-14.09536 120.02816 120.02816 0 0 0 34.688-32.59392 137.3696 137.3696 0 0 0 18.88768-39.64416 215.25504 215.25504 0 0 0 7.90528-41.40544q1.74592-20.25472 1.75616-37.00224 0-17.60256-1.75616-37.888a206.21824 206.21824 0 0 0 21.95456 1.76128 206.52032 206.52032 0 0 0-2.20672 24.66304z m-66.72384 178.64704l-0.9728-1.61792a37.04832 37.04832 0 0 0-14.336-13.5168l-2.3808-1.3056 2.28864-1.4592a119.22432 119.22432 0 0 0 34.23744-32.1536 136.98048 136.98048 0 0 0 18.66752-39.1936 214.21056 214.21056 0 0 0 7.83872-41.088c1.16224-13.51168 1.75616-25.9072 1.75616-36.864 0-11.51488-0.59392-24.21248-1.75616-37.73952l-0.16896-1.96608 1.96096 0.22016a205.35808 205.35808 0 0 0 21.76512 1.76128h1.8688l-0.2816 1.85344a207.21152 207.21152 0 0 0-2.18112 24.46336 311.296 311.296 0 0 0 1.31584 34.17088 154.112 154.112 0 0 0 10.42944 43.16672 237.83424 237.83424 0 0 0 18.75968 38.49728 158.65856 158.65856 0 0 0 19.11808 25.72288 120.41728 120.41728 0 0 0 17.77152 15.65184l1.75616 1.23904-1.67424 1.34144a64.80384 64.80384 0 0 0-13.72672 14.61248l-1.024 1.536-1.3824-1.20832a198.20032 198.20032 0 0 1-31.44704-37.76 251.61728 251.61728 0 0 1-27.77088-61.14816 206.208 206.208 0 0 1-11.5968 38.912 194.11968 194.11968 0 0 1-18.60096 31.5392 168.61696 168.61696 0 0 1-28.81024 31.13472z m-11.46368-16.62464a39.7312 39.7312 0 0 1 12.23168 11.776 165.76 165.76 0 0 0 26.88512-29.3376 193.4336 193.4336 0 0 0 18.28864-31.00672 226.43712 226.43712 0 0 0 12.62592-44.16512l1.2544-6.08256 1.84832 5.92896a259.24096 259.24096 0 0 0 29.21984 66.10432 199.08096 199.08096 0 0 0 29.56288 35.9168 68.16256 68.16256 0 0 1 11.70432-12.47744 127.74912 127.74912 0 0 1-16.53248-14.81728 163.45088 163.45088 0 0 1-19.52768-26.25536 238.40256 238.40256 0 0 1-19.01056-39.03488 155.98592 155.98592 0 0 1-10.64448-44.0576 308.95616 308.95616 0 0 1-1.32096-34.5344 212.23936 212.23936 0 0 1 1.93024-23.04c-4.39296-0.128-10.54208-0.62976-18.31936-1.536 1.024 12.88192 1.58208 25.0112 1.58208 36.05504s-0.57856 23.552-1.75616 37.14048a217.52832 217.52832 0 0 1-7.96672 41.72288 139.46368 139.46368 0 0 1-19.10272 40.09984 120.832 120.832 0 0 1-32.95232 31.60064z m-32.19968 15.77472h-20.84352l0.08192-1.66912c0.57856-13.55776 0.87552-25.984 0.87552-36.93056v-114.52928c0-11.53024-0.29696-25.43616-0.87552-41.33888l-0.06656-1.66912h81.11616l-0.62464 2.048c-5.19168 17.36704-9.33376 30.58176-12.3136 39.26528-2.82112 8.192-6.272 17.88928-10.24 28.75904a140.6976 140.6976 0 0 1 17.26464 30.06464 55.37792 55.37792 0 0 1 3.584 23.59296 37.45792 37.45792 0 0 1-8.24832 20.70528c-4.98688 6.26176-16.23552 10.752-34.36544 13.79328l-1.48992 0.25088-0.34304-1.47456a68.18304 68.18304 0 0 0-7.71584-19.7888l-1.4592-2.44224h2.83648a69.92896 69.92896 0 0 0 22.272-2.56 11.89888 11.89888 0 0 0 7.32672-10.60352 38.19008 38.19008 0 0 0-5.12-21.504 297.0112 297.0112 0 0 0-16.1536-28.032l-0.512-0.78336 0.4096-0.8192a353.536 353.536 0 0 0 17.75616-52.29056h-33.15712V929.792z m-17.4848-3.20512h14.2848v-177.95584h40.60672l-0.5632 2.048a389.37088 389.37088 0 0 1-18.16064 54.07232 302.47424 302.47424 0 0 1 15.872 27.57632 41.10848 41.10848 0 0 1 5.41184 23.40864 15.0272 15.0272 0 0 1-9.35936 13.184 65.4592 65.4592 0 0 1-20.6592 2.71872 72.40192 72.40192 0 0 1 6.36928 16.83456c16.2304-2.84672 26.624-7.00416 30.91456-12.38016a34.37056 34.37056 0 0 0 7.55712-18.944 52.40832 52.40832 0 0 0-3.41504-22.22592 140.95872 140.95872 0 0 0-17.36704-30.0032l-0.512-0.70656 0.30208-0.78848c4.096-11.18208 7.63392-21.0944 10.5216-29.47584s6.77376-20.78208 11.65312-37.08416h-73.47712c0.55296 15.26272 0.8192 28.672 0.8192 39.80288v114.52928c0 10.53184-0.26624 22.44096-0.79872 35.38944z" fill="#00FF00" /><path d="M644.00384 464.6656l80.93184 236.88704-210.34496-146.88256-210.34496 146.88256L385.1776 464.6656l-210.944-146.10944 260.36736 0.47616 79.97952-237.18912 79.97952 237.18912 260.36736-0.47616z m-61.44-129.75616l-67.97824-201.856-67.98336 201.85088L225.28 334.49984l179.3024 124.34432-68.79232 201.6 178.79552-125.0048 178.80064 125.0048-68.79744-201.6 179.29728-124.34432z m-43.52 93.48608c-6.26688-19.06688-3.02592-45.43488-2.01728-52.3264H451.61984V356.864h93.82912l4.096-8.704 17.4848 12.2112s-12.48256 21.46304-12.2368 34.88256 1.3056 18.88768 5.24288 26.1632 17.92 26.97728 26.22464 31.39584l-15.73376 17.44384s-24.22272-19.7632-31.49312-41.86624z m-80.43008-43.60704H484.864s-0.76288 44.18048-19.23072 68.02432-22.72768 19.968-22.72768 19.968a382.74048 382.74048 0 0 0 12.2368-44.36992c1.9712-13.83424 3.47136-43.6224 3.47136-43.6224z m103.15264 88.95488l19.23072 12.2112L565.248 506.88H446.37696v-22.67648h108.39552z" fill="#00FF00" /></svg>