<?xml version="1.0" standalone="no"?><!DOCTYPE svg PUBLIC "-//W3C//DTD SVG 1.1//EN" "http://www.w3.org/Graphics/SVG/1.1/DTD/svg11.dtd"><svg class="icon" width="1000px" height="1000.00px" viewBox="0 0 1024 1024" version="1.1" xmlns="http://www.w3.org/2000/svg"><path d="M864 1024H160A160 160 0 0 1 0 864V160A160 160 0 0 1 160 0h704A160 160 0 0 1 1024 160v704A160 160 0 0 1 864 1024z m128-832a160 160 0 0 0-160-160h-640a160 160 0 0 0-160 160v640a160 160 0 0 0 160 160h640a160 160 0 0 0 160-160v-640z" fill="#FF0000" /><path d="M322.594133 826.368c-0.682667 7.5264-0.989867 15.104-0.887466 22.664533v42.7008l13.994666-4.352V803.669333h-27.0848c0.580267-13.3632 0.853333-25.565867 0.853334-36.608 0.017067-11.042133-0.273067-21.213867-0.853334-30.498133h63.778134c-0.597333 7.560533-1.024 18.602667-1.314134 33.109333-0.273067 14.506667-0.136533 25.856 0.443734 33.9968H351.402667v30.498134c6.997333 0 14.865067-0.290133 23.6032-0.853334v15.6672c-8.738133-0.580267-16.605867-0.853333-23.6032-0.8704v33.109334l27.101866-9.5744v14.813866c-30.890667 12.202667-49.834667 19.7632-56.797866 22.664534-6.997333 2.901333-13.994667 6.0928-20.992 9.5744-1.757867-6.382933-3.7888-12.782933-6.126934-19.165867l12.2368-3.4816v-50.551467c0-6.980267-0.290133-13.3632-0.887466-19.165866h16.605866l0.034134 0.017066z m34.082134-36.608v-39.2192h-32.341334v39.2192H356.693333z m27.9552 38.3488c9.3184 0.597333 25.326933 0.887467 48.059733 0.8704 0-7.543467-0.290133-15.394133-0.8704-23.552h16.605867c-0.597333 7.5776-0.887467 15.428267-0.887467 23.552 23.296 0 40.192-0.290133 50.688-0.8704v16.554667a748.3392 748.3392 0 0 0-39.3216-0.853334 134.826667 134.826667 0 0 0 20.104533 31.368534 97.28 97.28 0 0 0 25.344 22.647466c-6.656 3.1744-12.168533 8.362667-15.735466 14.830934a157.730133 157.730133 0 0 1-24.456534-29.6448 180.872533 180.872533 0 0 1-16.605866-30.498134v48.810667c0 8.123733 0.290133 17.698133 0.853333 28.740267h-16.5888c0.580267-11.042133 0.853333-20.6336 0.8704-28.740267v-51.456a154.897067 154.897067 0 0 1-19.6608 35.7376 170.325333 170.325333 0 0 1-31.0272 32.256 62.327467 62.327467 0 0 0-16.605867-9.591467 128.7168 128.7168 0 0 0 29.269334-24.832 159.505067 159.505067 0 0 0 24.917333-40.516266 1217.706667 1217.706667 0 0 0-34.9696 1.7408v-16.554667z m58.9824-74.513067c-20.104533 2.048-37.717333 3.652267-52.872534 4.778667a33.399467 33.399467 0 0 0-6.997333-16.554667c17.9712 0.512 35.9424-0.341333 53.76-2.6112 14.6944-1.297067 29.201067-4.215467 43.264-8.704 2.389333 7.1168 6.263467 13.653333 11.349333 19.182934-12.2368 0.5632-28.398933 1.860267-48.503466 3.8912v0.017066z m-31.0272 50.107734a71.5264 71.5264 0 0 0-14.848 6.109866c-2.679467-12.8-6.485333-25.344-11.349334-37.4784 5.034667-1.4848 9.984-3.242667 14.848-5.2224 4.932267 11.793067 8.738133 24.046933 11.349334 36.573867v0.017067z m35.84-6.9632c-5.307733 1.194667-10.564267 2.628267-15.7184 4.352a145.271467 145.271467 0 0 0-8.772267-34.884267c4.096-1.160533 9.3184-2.6112 15.735467-4.352 3.601067 11.434667 6.536533 23.074133 8.7552 34.850133v0.034134z m26.2144 8.704a79.872 79.872 0 0 0-15.7184-6.109867 235.861333 235.861333 0 0 0 17.4592-40.0896c5.256533 2.901333 11.076267 5.802667 17.476266 8.704-4.096 4.6592-10.496 17.152-19.234133 37.4784h0.017067z m-24.5248 126.208h-19.968l0.085333-1.672534c0.580267-11.0592 0.887467-20.701867 0.887467-28.672v-43.4176a162.082133 162.082133 0 0 1-16.776534 28.672 173.175467 173.175467 0 0 1-31.317333 32.546134l-1.024 0.836266-1.024-0.853333a60.279467 60.279467 0 0 0-16.162133-9.335467l-2.901334-1.194666 2.679467-1.621334a128.034133 128.034133 0 0 0 28.893867-24.558933 154.897067 154.897067 0 0 0 23.569066-37.768533c-14.1312 0.5632-24.7296 1.109333-32.3072 1.6384l-1.706666 0.119466v-19.968l1.706666 0.1024c8.96 0.5632 24.149333 0.853333 46.336 0.8704-0.034133-7.2704-0.341333-14.557867-0.853333-21.828266l-0.1536-1.706667h20.053333l-0.136533 1.706667a311.637333 311.637333 0 0 0-0.853333 21.8112c22.801067 0 38.843733-0.290133 48.981333-0.853334l1.672533-0.1024v19.933867l-1.6896-0.1024a705.877333 705.877333 0 0 0-36.727466-0.853333 136.106667 136.106667 0 0 0 18.8416 28.740266c6.929067 8.840533 15.36 16.384 24.917333 22.306134l2.56 1.4848-2.645333 1.3312a33.792 33.792 0 0 0-15.0528 14.165333l-0.9728 1.792-1.536-1.399467a159.812267 159.812267 0 0 1-24.712534-29.934933 211.9168 211.9168 0 0 1-13.687466-23.808v41.250133c0 8.2432 0.3072 17.92 0.887466 28.672l0.136534 1.672534z m-16.605867-3.1744h13.226667c-0.512-10.171733-0.768-19.285333-0.768-27.170134v-57.088l3.072 7.68c4.5056 10.581333 10.018133 20.6848 16.452266 30.208 6.485333 10.154667 14.1312 19.541333 22.766934 27.9552 3.208533-5.12 7.6288-9.352533 12.868266-12.356266a104.96 104.96 0 0 1-23.364266-21.5552 137.506133 137.506133 0 0 1-20.309334-31.744l-0.989866-2.218667h2.440533c14.779733 0 27.460267 0.256 37.7344 0.768v-13.2096c-10.496 0.512-26.589867 0.785067-49.083733 0.785067h-1.604267v-1.5872c0-7.6288 0.256-15.018667 0.750933-21.947734h-13.1584c0.512 7.611733 0.750933 15.0016 0.750934 21.947734v1.5872h-1.604267c-21.794133 0-37.0176-0.238933-46.472533-0.768v13.141333c7.953067-0.512 18.8928-1.041067 33.28-1.604267l2.56-0.119466-1.058134 2.372266a162.0992 162.0992 0 0 1-25.156266 40.9088 132.608 132.608 0 0 1-27.050667 23.517867c4.693333 2.048 9.130667 4.676267 13.175467 7.816533a169.045333 169.045333 0 0 0 29.730133-31.1296 153.634133 153.634133 0 0 0 19.456-35.3792l3.072-8.072533v60.074667c0.0512 7.611733-0.2048 16.725333-0.7168 27.170133z m-133.802667-7.458134l-0.512-1.877333c-1.757867-6.417067-3.771733-12.782933-6.058666-19.0464l-0.597334-1.604267 12.7488-3.618133v-49.3568c0-6.3488-0.273067-12.6976-0.887466-19.012267l-0.170667-1.7408h20.155733l-0.187733 1.757867c-0.682667 7.4752-0.989867 14.984533-0.887467 22.4768v40.533333l10.8032-3.345066v-80.896h-27.170133l0.085333-1.655467c0.5632-13.380267 0.853333-25.685333 0.853334-36.539733 0-10.871467-0.290133-21.0944-0.853334-30.4128l-0.119466-1.6896h67.2256l-0.136534 1.723733c-0.597333 7.509333-1.024 18.602667-1.314133 33.024s-0.136533 25.873067 0.426667 33.8432l0.119466 1.706667h-20.224v27.306666c6.656-0.034133 14.0288-0.341333 21.896534-0.853333l1.706666-0.136533v19.114666l-1.706666-0.119466a386.269867 386.269867 0 0 0-21.896534-0.853334v29.252267l27.101867-9.591467v18.176l-1.024 0.375467c-31.300267 12.373333-49.8688 19.797333-56.7808 22.647467-7.0656 2.935467-14.0288 6.144-20.872533 9.557333l-1.706667 0.853333z m-3.003733-20.411733c1.877333 5.290667 3.584 10.5984 5.0688 15.8208 6.365867-3.1232 12.8-6.0416 19.336533-8.772267 6.826667-2.850133 25.088-10.1376 55.808-22.272v-11.4688l-27.0848 9.591467v-36.9664h1.5872c6.485333 0 13.858133 0.256 22.016 0.768v-12.288c-7.936 0.512-15.325867 0.750933-22.016 0.750933h-1.5872v-33.672533h19.968a422.229333 422.229333 0 0 1-0.3072-32.426667c0.256-13.4144 0.648533-23.995733 1.194667-31.505066h-60.381867c0.512 8.925867 0.768 18.6368 0.768 28.910933 0 10.461867-0.273067 22.237867-0.802133 35.0208h27.016533v86.4256l-17.169066 5.358933v-44.885333c0-9.0112 0.221867-15.940267 0.699733-21.060267h-13.1072c0.477867 5.4272 0.7168 11.332267 0.7168 17.578667v51.746133l-11.7248 3.345067z m99.908267-88.354133l-0.426667-2.1504a226.269867 226.269867 0 0 0-11.264-37.205334l-0.648533-1.6384 1.706666-0.494933c4.9664-1.467733 9.8816-3.191467 14.677334-5.154133l1.4848-0.597334 0.597333 1.467734c4.9664 11.912533 8.8064 24.251733 11.434667 36.881066l0.3072 1.4336-1.416534 0.4096c-5.034667 1.450667-9.898667 3.447467-14.506666 5.973334l-1.9456 1.0752z m-8.106667-38.912c4.334933 11.042133 7.799467 22.4256 10.359467 33.9968a76.288 76.288 0 0 1 11.8784-4.778667 202.581333 202.581333 0 0 0-10.410667-33.416533c-3.874133 1.536-7.8336 2.952533-11.8272 4.1984z m86.9376 34.2528l-1.536-0.750934a79.086933 79.086933 0 0 0-15.4112-5.973333l-2.082133-0.512 1.109333-1.877333c6.997333-12.680533 12.8-26.0096 17.322667-39.765334l0.648533-1.792 1.655467 0.9216c5.666133 3.1232 11.451733 6.007467 17.3568 8.6528l1.962666 0.887467-1.4336 1.604267c-3.925333 4.471467-10.308267 16.9472-18.944 37.051733l-0.648533 1.553067z m-14.097067-9.2672c4.283733 1.314133 8.465067 2.952533 12.4928 4.932266 4.744533-12.0832 10.5984-23.722667 17.493334-34.7136-4.983467-2.304-9.728-4.642133-14.08-6.997333a248.593067 248.593067 0 0 1-15.906134 36.778667z m-29.917866 4.829866l-0.3072-1.826133a144.145067 144.145067 0 0 0-8.6016-34.4064l-0.853334-1.723733 1.860267-0.512c4.096-1.160533 9.335467-2.628267 15.735467-4.369067l1.536-0.392533 0.443733 1.4848c3.6352 11.502933 6.570667 23.210667 8.789333 35.072l0.238934 1.467733-1.467734 0.341333a158.481067 158.481067 0 0 0-15.581866 4.3008l-1.792 0.5632z m-5.239467-35.925333c3.6864 10.2912 6.280533 20.923733 7.765333 31.744 4.164267-1.3312 8.379733-2.491733 12.629334-3.4816a307.950933 307.950933 0 0 0-7.9872-31.709867l-12.407467 3.447467z m-67.925333 24.098133H322.730667v-42.3936h35.498666v42.3936z m-32.341334-3.1744h29.149867V752.128h-29.149867v36.0448-0.017067z m63.488-28.091733l-0.221866-1.4336a31.829333 31.829333 0 0 0-6.656-15.786667l-2.3552-2.7648 3.6352 0.136534a357.4784 357.4784 0 0 0 53.486933-2.6112 199.3216 199.3216 0 0 0 42.871467-8.618667l1.536-0.580267 0.512 1.570134c2.3552 6.894933 6.109867 13.226667 11.042133 18.602666l2.304 2.525867-3.362133 0.170667c-12.168533 0.580267-28.450133 1.8944-48.418134 3.925333-20.206933 2.048-38.007467 3.6352-52.906666 4.778667l-1.467734 0.085333z m-2.389333-16.554667c2.525867 4.010667 4.232533 8.482133 5.051733 13.1584a2194.090667 2194.090667 0 0 0 51.4048-4.676266 1061.9904 1061.9904 0 0 1 45.312-3.754667 55.159467 55.159467 0 0 1-8.994133-15.7184c-13.7216 4.1472-27.818667 6.912-42.103467 8.260267-16.810667 2.082133-33.7408 2.986667-50.670933 2.730666z m160.1536 77.602134c-1.297067 8.072533-1.877333 16.2304-1.7408 24.405333v51.421867l16.5888-3.4816v-88.029867h-28.842667c0.597333-11.042133 0.887467-22.0672 0.887467-33.109333 0-11.605333-0.290133-22.084267-0.8704-31.402667h62.907733c-0.580267 10.478933-0.8704 21.504-0.853333 33.143467 0 11.605333 0.290133 22.0672 0.853333 31.368533h-19.217066v30.498133c8.738133 0 17.186133-0.290133 25.344-0.853333v15.6672c-8.157867-0.5632-16.605867-0.853333-25.344-0.853333v40.96a1687.313067 1687.313067 0 0 0 27.0848-6.997334 132.778667 132.778667 0 0 0-0.8704 14.830934c-16.896 2.901333-31.744 6.109867-44.544 9.591466-10.205867 2.542933-20.138667 6.0416-29.696 10.4448a109.738667 109.738667 0 0 0-7.850667-18.295466l10.478933-0.8704v-57.514667c0-6.980267-0.290133-13.943467-0.887466-20.923733h16.605866-0.034133z m34.082133-27.886934V753.152h-33.211733v40.106667h33.211733v-0.034134z m65.536-37.4784a147.643733 147.643733 0 0 1-13.124266 39.662934 131.293867 131.293867 0 0 1-24.456534 32.6656 38.7072 38.7072 0 0 0-14.848-10.4448 78.165333 78.165333 0 0 0 22.272-22.664534c4.949333-8.106667 8.635733-16.930133 10.922667-26.146133-9.3184 0-17.186133 0.290133-23.586133 0.8704v-14.813867c7.2704 0.529067 14.557867 0.8192 21.845333 0.8704h20.992-0.017067z m62.037334 127.249067c0 18.0224 0.290133 32.546133 0.8704 43.5712h-16.605867v-13.943467h-63.7952v14.813867h-15.7184c0.580267-11.042133 0.853333-25.565867 0.8704-43.5712 0-18.005333-0.290133-32.529067-0.8704-43.588267h96.119467a787.729067 787.729067 0 0 0-0.8704 42.717867z m-15.735467-13.073067V852.48h-63.7952v17.425067h63.7952z m0 30.498134v-17.408h-63.7952v17.408h63.7952z m-26.2144-164.7104v13.073066c2.645333 5.546667 5.870933 10.8032 9.6256 15.684267a153.224533 153.224533 0 0 0 26.2144-23.552c5.239467 5.2224 10.1888 9.8816 14.848 13.943467-5.8368 1.7408-17.2032 8.704-34.082133 20.906666a97.621333 97.621333 0 0 0 19.217066 20.48c7.6288 6.144 16.1792 10.990933 25.344 14.3872-5.546667 3.754667-10.069333 8.840533-13.1072 14.813867a107.8272 107.8272 0 0 1-28.842666-22.2208 136.362667 136.362667 0 0 1-19.217067-27.460267v35.754667c1.160533 5.802667-1.706667 11.690667-6.997333 14.370133a67.310933 67.310933 0 0 1-20.957867 5.666134 37.666133 37.666133 0 0 0-6.144-18.295467c12.2368 1.1776 18.6368-1.160533 19.217067-6.9632v-56.661333c0-6.9632-0.290133-15.104-0.8704-24.405334h16.605866c-0.5632 5.8368-0.853333 9.3184-0.853333 10.478934z m-35.976533 193.314133h-19.012267l0.085333-1.672533c0.580267-11.076267 0.887467-25.7024 0.887467-43.52 0-17.800533-0.3072-32.4096-0.887467-43.52l-0.085333-1.655467h99.498667l-0.1024 1.672533a799.402667 799.402667 0 0 0-0.8704 42.615467c0 18.3296 0.290133 32.546133 0.8704 43.52l0.1024 1.672533h-19.882667v-13.943466h-60.603733v14.830933z m-15.633067-3.1744h12.4416v-14.813867h66.9696v13.943467h13.312c-0.512-10.752-0.785067-24.507733-0.785067-41.984s0.256-30.890667 0.785067-41.130667h-92.7232c0.512 10.922667 0.768 25.0368 0.768 41.984 0 16.964267-0.256 31.095467-0.768 42.001067z m-87.381333-4.881067l-0.580267-1.7408a106.3936 106.3936 0 0 0-7.765333-18.0224l-1.194667-2.167466 11.502933-0.955734v-56.046933c0-6.826667-0.3072-13.824-0.8704-20.804267l-0.1536-1.706666h20.258134l-0.341334 1.877333c-1.28 7.970133-1.8432 16.042667-1.723733 24.1152v49.4592l13.4144-2.816v-85.1456h-28.928l0.085333-1.672533c0.580267-11.0592 0.8704-22.186667 0.8704-33.041067 0-11.434667-0.290133-21.947733-0.853333-31.266133l-0.119467-1.706667h66.304l-0.1024 1.706667a587.3152 587.3152 0 0 0-0.853333 33.024c0 11.707733 0.290133 22.2208 0.853333 31.266133l0.119467 1.6896h-19.336533v27.306667c7.8848 0 15.7696-0.290133 23.637333-0.853334l1.706667-0.119466v19.131733l-1.706667-0.136533a355.566933 355.566933 0 0 0-23.637333-0.853334v37.3248c8.618667-2.1504 16.964267-4.3008 25.088-6.485333l2.269866-0.597333-0.256 2.338133a129.194667 129.194667 0 0 0-0.8704 14.626133v1.3312l-1.3312 0.238934c-16.827733 2.901333-31.744 6.126933-44.407466 9.557333-10.120533 2.525867-19.968 5.973333-29.422934 10.359467l-1.655466 0.785066z m-4.369067-19.165866c2.4064 4.744533 4.488533 9.642667 6.212267 14.677333a183.927467 183.927467 0 0 1 28.381866-9.7792 482.1504 482.1504 0 0 1 43.383467-9.386667c0.0512-3.652267 0.256-7.441067 0.648533-11.332266-8.055467 2.1504-16.349867 4.266667-24.8832 6.382933l-1.979733 0.512v-44.5952h1.5872c8.055467 0 16.042667 0.256 23.7568 0.750933v-12.253866c-7.509333 0.512-15.5136 0.733867-23.7568 0.733866h-1.5872V803.84h19.114667a516.642133 516.642133 0 0 1-0.768-29.781333c0-11.144533 0.256-21.725867 0.785066-31.5392H534.869333c0.512 8.977067 0.768 18.978133 0.768 29.781333 0 10.376533-0.273067 20.974933-0.785066 31.5392h28.740266v90.897067l-19.797333 4.1472v-53.367467a150.749867 150.749867 0 0 1 1.467733-22.818133h-12.970666c0.4608 6.485333 0.7168 12.970667 0.7168 19.336533v58.9824l-9.506134 0.785067z m171.178667 0.2048H627.712v-20.599467h66.9696v20.599467z m-63.7952-3.1744h60.603733v-14.250667h-60.603733v14.250667z m63.7952-27.323734H627.712v-20.616533h66.9696v20.616533z m-63.7952-3.1744h60.603733v-14.267733h-60.603733v14.2848-0.017067z m6.434133-34.935466v-1.826134a36.386133 36.386133 0 0 0-5.905067-17.493333l-1.5872-2.696533 3.106134 0.3072c1.9968 0.170667 3.84 0.273067 5.495466 0.273066 11.400533 0 11.844267-4.386133 11.9808-5.819733v-56.490667c0-6.826667-0.290133-14.984533-0.853333-24.32l-0.119467-1.672533h20.053334l-0.170667 1.7408a148.48 148.48 0 0 0-0.853333 10.308267v12.7488c2.321067 4.846933 5.12 9.454933 8.362666 13.7728a149.640533 149.640533 0 0 0 24.644267-22.3232l1.1264-1.3312 1.211733 1.2288c5.290667 5.256533 10.24 9.915733 14.779734 13.8752l2.184533 1.8944-2.781867 0.836266c-5.495467 1.621333-16.349867 8.277333-32.3072 19.746134 5.12 7.082667 11.178667 13.431467 18.005334 18.875733 7.492267 6.007467 15.889067 10.786133 24.917333 14.1312l2.816 1.058133-2.474667 1.7408a38.109867 38.109867 0 0 0-12.5952 14.216534l-0.750933 1.4848-1.450667-0.802134a109.806933 109.806933 0 0 1-29.252266-22.562133 138.837333 138.837333 0 0 1-16.452267-22.391467v29.610667a14.677333 14.677333 0 0 1-7.850667 15.8208 69.632 69.632 0 0 1-21.504 5.802667l-1.774933 0.256z m-1.6896-18.3296c2.56 4.522667 4.1984 9.5232 4.795733 14.677333 6.485333-0.785067 12.8-2.56 18.7392-5.2736a11.690667 11.690667 0 0 0 6.109867-12.8v-42.2912l2.986667 5.666133c5.2224 9.7792 11.605333 18.8928 19.012266 27.136 7.799467 8.448 16.913067 15.581867 26.999467 21.0944a40.96 40.96 0 0 1 10.496-12.1856 91.989333 91.989333 0 0 1-23.074133-13.585066 99.618133 99.618133 0 0 1-19.541334-20.821334l-0.887466-1.262933 1.262933-0.9216c9.984-7.748267 20.6848-14.506667 31.965867-20.206933-4.010667-3.584-7.901867-7.253333-11.707734-11.025067a160.597333 160.597333 0 0 1-25.361066 22.459733l-1.297067 0.955734-0.955733-1.297067a88.064 88.064 0 0 1-9.762134-15.991467l-0.136533-0.631466v-13.056c0-1.399467 0.341333-5.290667 0.699733-8.874667h-13.141333c0.512 8.772267 0.768 16.264533 0.768 22.818133v56.644267c-0.597333 5.922133-5.700267 8.8576-15.172267 8.8576-0.887467 0-1.826133 0-2.798933-0.085333z m-26.504533 15.36l-1.1264-1.28a37.205333 37.205333 0 0 0-14.250667-10.018134l-2.730667-1.092266 2.389334-1.706667c8.721067-5.819733 16.162133-13.380267 21.845333-22.186667 4.5056-7.389867 7.936-15.36 10.222933-23.722666-8.311467 0.0512-15.479467 0.341333-21.384533 0.8704l-1.723733 0.170666V753.152l1.706666 0.119467c8.4992 0.580267 15.803733 0.8704 21.725867 0.8704h22.8864l-0.3584 1.877333a150.1696 150.1696 0 0 1-13.2608 40.106667c-6.485333 12.2368-14.848 23.381333-24.763733 33.058133l-1.194667 1.245867z m-11.605334-13.141334c4.4032 2.0992 8.362667 4.983467 11.741867 8.4992a129.706667 129.706667 0 0 0 23.005867-31.112533 145.083733 145.083733 0 0 0 12.578133-37.341867H625.834667c-5.5808 0-12.3904-0.238933-20.258134-0.750933v11.383467c6.144-0.512 13.550933-0.733867 22.016-0.733867h2.048l-0.512 1.979733a96.324267 96.324267 0 0 1-11.093333 26.5728c-5.393067 8.413867-12.356267 15.701333-20.497067 21.504z m-14.6944-22.459733h-36.386133v-43.264h36.386133v43.264z m-33.211733-3.1744h30.037333v-36.9152h-30.037333v36.9152zM858.043733 379.904a40.96 40.96 0 0 1-44.936533 36.5568l-140.612267-14.4384-94.446933 104.209067c-0.221867 0.221867-0.477867 0.4096-0.7168 0.631466l2.389333 4.386134 87.278934-2.133334 0.068266 1.1264 0.4608-0.256 85.674667 157.405867a40.96 40.96 0 0 1-71.936 39.168l-62.2592-114.3808-112.128 2.7648a40.8576 40.8576 0 0 1-33.757867-14.336l-0.256 0.136533-0.631466-1.160533a40.6528 40.6528 0 0 1-6.826667-12.6976l-74.0352-137.6256-27.989333 89.053867a30.4128 30.4128 0 0 1-27.8528 23.381333l0.017066 0.136533-131.549866 21.947734a30.72 30.72 0 1 1-10.103467-60.603734l116.104533-19.370666 42.581334-135.441067c-0.955733-1.911467-1.467733-3.1232-1.467734-3.1232L531.012267 116.616533a29.832533 29.832533 0 0 1 42.734933 0.750934A31.266133 31.266133 0 0 1 573.44 160.938667l-105.472 142.8992 24.4736 44.970666-0.068267 0.034134 40.891734 75.997866 107.52-109.704533 2.389333 2.338133 0.085333-0.853333 178.261334 18.3296a40.96 40.96 0 0 1 36.522666 44.936533zM286.72 363.52a71.68 71.68 0 1 1 0-143.36 71.68 71.68 0 0 1 0 143.36z" fill="#FF0000" /></svg>