<?xml version="1.0" standalone="no"?><!DOCTYPE svg PUBLIC "-//W3C//DTD SVG 1.1//EN" "http://www.w3.org/Graphics/SVG/1.1/DTD/svg11.dtd"><svg class="icon" width="1000px" height="1000.00px" viewBox="0 0 1024 1024" version="1.1" xmlns="http://www.w3.org/2000/svg"><path d="M864 1024H160A160 160 0 0 1 0 864V160A160 160 0 0 1 160 0h704A160 160 0 0 1 1024 160v704A160 160 0 0 1 864 1024z m128-832a160 160 0 0 0-160-160h-640a160 160 0 0 0-160 160v640a160 160 0 0 0 160 160h640a160 160 0 0 0 160-160v-640z" fill="#FF0000" /><path d="M73.454933 886.152533c6.997333 0.597333 13.994667 0.904533 20.992 0.887467h72.704v-19.575467H103.202133c0.580267-8.2944 0.8704-21.333333 0.887467-39.133866 0-17.800533-0.290133-30.549333-0.887467-38.263467h144.452267c-0.597333 7.714133-0.887467 20.48-0.853333 38.263467 0 17.783467 0.290133 30.8224 0.853333 39.133866h-64.768v19.575467h64.768c11.093333 0 21.2992-0.290133 30.651733-0.887467v16.896a496.247467 496.247467 0 0 0-30.651733-0.887466h-64.768v14.2336c0 5.341867 0.273067 11.844267 0.853333 19.575466H165.376c1.058133-6.485333 1.6384-13.021867 1.757867-19.575466v-14.250667H94.464c-6.417067 0-13.4144 0.290133-20.992 0.887467v-16.896z m77.038934-134.3488h49.902933c0-6.5024-0.290133-13.6192-0.8704-21.333333h18.3808c-0.580267 7.099733-0.8704 14.216533-0.8704 21.333333h25.378133c6.997333 0 16.930133-0.290133 29.781334-0.887466v16.896a312.183467 312.183467 0 0 0-23.6544-0.8704h-31.505067c-0.068267 6.229333 0.221867 12.458667 0.887467 18.670933h-17.5104v-18.670933H150.493867v18.670933H133.000533c0.5632-7.1168 0.853333-13.346133 0.853334-18.670933h-20.138667c-9.335467 0-20.4288 0.290133-33.28 0.8704V750.933333c12.8512 0.6144 21.316267 0.904533 25.412267 0.887467h28.0064c0-6.5024-0.290133-13.6192-0.8704-21.333333h18.3808c-0.580267 7.714133-0.8704 14.830933-0.853334 21.333333z m79.6672 70.2976v-17.800533H120.7296v17.800533h109.431467z m0 31.1296v-16.896H120.7296v16.896h109.431467z m-44.663467 84.360534H163.515733l0.290134-1.860267a134.997333 134.997333 0 0 0 1.7408-19.336533v-12.612267H94.464c-6.280533 0-13.312 0.3072-20.872533 0.887467l-1.723734 0.1536V884.394667l1.723734 0.136533c6.8096 0.580267 13.824 0.887467 20.872533 0.887467H165.546667v-16.3328H101.512533l0.119467-1.723734c0.580267-8.2944 0.8704-21.418667 0.8704-39.031466 0-17.629867-0.290133-30.429867-0.8704-38.126934l-0.136533-1.757866h147.9168l-0.136534 1.7408c-0.580267 7.611733-0.8704 20.087467-0.8704 38.144 0 18.039467 0.290133 30.839467 0.853334 39.031466l0.136533 1.723734H184.490667v16.3328h63.1808c11.1616 0 21.435733-0.3072 30.549333-0.887467l1.706667-0.119467v20.3776l-1.706667-0.119466a490.752 490.752 0 0 0-30.549333-0.887467H184.490667v12.629333c0 5.393067 0.290133 11.912533 0.8704 19.456l0.136533 1.706667z m-18.261333-3.242667h14.813866c-0.512-6.8608-0.750933-12.9024-0.750933-17.954133v-15.872h66.389333c10.308267 0 20.053333 0.256 29.0304 0.785066v-13.431466c-8.7552 0.512-18.500267 0.768-29.0304 0.768h-66.389333v-22.818134h64.6656a665.514667 665.514667 0 0 1-0.750933-37.512533c0-16.810667 0.238933-28.842667 0.750933-36.642133H104.96c0.512 7.936 0.750933 20.224 0.750933 36.642133 0 16.503467-0.256 29.098667-0.768 37.512533h63.778134v22.818134h-74.24c-6.519467 0-13.038933-0.256-19.4048-0.750934v13.397334c6.997333-0.512 13.5168-0.768 19.421866-0.768h74.24v15.872a131.140267 131.140267 0 0 1-1.501866 17.954133z m64.512-79.496533h-112.64v-20.138667h112.64v20.138667z m-109.431467-3.242667h106.257067v-13.653333H122.333867v13.653333z m109.431467-27.886933h-112.64v-21.0432h112.64v21.0432z m-109.431467-3.242667h106.257067v-14.557867H122.333867v14.557867z m97.399467-33.245867H198.826667v-18.670933H152.098133v18.670933H131.242667l0.136533-1.7408c0.512-6.382933 0.802133-12.066133 0.853333-16.930133H113.732267c-9.1648 0-20.3264 0.290133-33.194667 0.887467l-1.6896 0.085333V749.226667l1.672533 0.085333a711.168 711.168 0 0 0 25.309867 0.887467h26.402133c-0.068267-6.536533-0.341333-13.090133-0.853333-19.6096l-0.136533-1.7408h21.845333l-0.136533 1.7408c-0.512 6.519467-0.785067 13.073067-0.853334 19.6096h46.677334c-0.068267-6.536533-0.341333-13.090133-0.853334-19.6096l-0.136533-1.7408h21.8624l-0.136533 1.757866c-0.529067 6.519467-0.8192 13.056-0.853334 19.592534h23.773867c7.168 0 17.152-0.290133 29.696-0.887467l1.672533-0.085333v20.343466l-1.723733-0.119466a305.152 305.152 0 0 0-23.517867-0.887467h-29.9008c-0.0512 5.632 0.238933 11.264 0.853334 16.861867l0.2048 1.809066z m-17.732267-3.242666h14.1312a174.08 174.08 0 0 1-0.682667-17.066667v-1.604267h33.109334c7.509333 0 14.916267 0.256 22.050133 0.750934V752.64a702.293333 702.293333 0 0 1-28.16 0.802133h-26.965333v-1.621333c0-6.656 0.238933-13.2608 0.7168-19.729067h-14.933334c0.512 7.133867 0.750933 13.755733 0.750934 19.729067v1.621333H148.906667v-1.621333c0-6.144 0.256-12.765867 0.750933-19.729067h-14.9504c0.512 7.133867 0.750933 13.755733 0.750933 19.729067v1.621333H105.847467c-4.061867 0-12.288-0.256-23.790934-0.802133v13.499733c12.219733-0.529067 22.869333-0.802133 31.675734-0.802133h21.725866v1.621333c0 4.864-0.256 10.581333-0.733866 17.066667h14.165333v-18.688h53.111467v18.670933z m116.599467 92.8256c3.140267-14.7968 4.898133-29.832533 5.256533-44.936534v-64.938666c0-12.458667-0.290133-21.6576-0.8704-27.579734h140.9536c12.834133 0 21.879467-0.3072 27.136-0.887466v16.008533a264.8064 264.8064 0 0 0-27.136-0.887467h-122.555733v75.605334c-0.4096 15.0528-1.723733 30.0544-3.9424 44.936533a158.378667 158.378667 0 0 1-9.642667 35.157333c-3.362133 8.5504-7.304533 16.878933-11.810133 24.900267a58.743467 58.743467 0 0 0-18.3808-8.891733 118.3744 118.3744 0 0 0 20.992-48.4864z m42.461866 20.8896c6.6048-6.980267 12.3392-14.7456 17.066667-23.125334 4.334933 4.539733 9.0112 8.704 14.011733 12.458667a259.874133 259.874133 0 0 1-40.277333 40.925867 121.3952 121.3952 0 0 0-12.253867-12.458667 108.987733 108.987733 0 0 0 21.469867-17.800533z m52.974934-115.643734h64.785066c-0.580267 5.341867-0.887467 13.653333-0.853333 24.917334V834.56c0 9.506133 0.273067 18.397867 0.853333 26.692267h-49.015466v54.272c0 8.2944-2.628267 13.482667-7.8848 15.5648a104.533333 104.533333 0 0 1-25.3952 4.898133 83.182933 83.182933 0 0 0-6.144-20.48c6.417067 0.8192 12.9024 0.682667 19.268266-0.4608a7.953067 7.953067 0 0 0 2.628267-7.560533v-46.250667h-49.885867c0.580267-7.1168 0.853333-15.7184 0.853334-25.8048v-29.354667c0-9.489067-0.273067-17.493333-0.853334-24.029866h35.8912c2.6112-8.3968 4.386133-17.032533 5.256534-25.787734l19.2512 5.3248c-4.1984 6.212267-7.168 13.141333-8.7552 20.48z m46.3872 32.904534v-19.5584H379.904v19.5584h80.520533z m0 32.034133v-18.670933H379.904v18.670933h80.520533z m35.0208 65.8432c-4.369067 3.84-8.465067 8.021333-12.253867 12.458667a329.540267 329.540267 0 0 0-37.649067-37.376c4.096-4.744533 7.901867-8.891733 11.383467-12.458667a440.832 440.832 0 0 1 38.536533 37.376z m-100.2496 24.8832l-0.256-1.4848a81.578667 81.578667 0 0 0-6.007467-20.0704l-1.092267-2.423467 2.628267 0.136534c4.4032 0.221867 8.106667 0.341333 10.990933 0.341333 2.5088 0.238933 5.034667 0.034133 7.4752-0.631467a7.082667 7.082667 0 0 0 1.7408-6.0928v-44.6464h-50.0224l0.136534-1.7408a324.266667 324.266667 0 0 0 0.8704-25.668266v-29.354667c0-9.335467-0.290133-17.373867-0.8704-23.893333l-0.170667-1.757867h36.437333c2.423467-7.8848 4.061867-15.9744 4.881067-24.183467v-1.058133h-58.965333v74.001067c-0.4096 15.121067-1.723733 30.208-3.959467 45.175466a161.348267 161.348267 0 0 1-9.728 35.498667c-3.413333 8.6528-7.389867 17.0496-11.9296 25.1392l-0.887467 1.501867-1.399466-1.024a57.344 57.344 0 0 0-17.885867-8.6528l-2.269867-0.648534 1.399467-1.8944a117.384533 117.384533 0 0 0 20.736-47.837866c3.106133-14.677333 4.846933-29.610667 5.2224-44.612267v-64.904533c0-12.288-0.290133-21.504-0.8704-27.426134l-0.170667-1.774933h142.711467a268.8 268.8 0 0 0 26.965333-0.887467l1.774934-0.2048v19.677867l-1.792-0.221867a261.376 261.376 0 0 0-26.948267-0.887466H405.845333l19.541334 5.4272-1.297067 1.877333c-3.703467 5.461333-6.417067 11.537067-8.021333 17.92h64.512l-0.2048 1.826133c-0.580267 5.2224-0.8704 13.312-0.8704 24.7296V834.56c0 9.557333 0.290133 18.500267 0.8704 26.5728l0.136533 1.7408h-49.152v52.650667c0 8.994133-2.986667 14.7456-8.891733 17.066666-8.362667 2.730667-17.0496 4.437333-25.821867 5.0176l-1.467733 0.119467z m-2.304-20.48a85.333333 85.333333 0 0 1 4.949333 16.930133 99.157333 99.157333 0 0 0 23.483733-4.608c4.608-1.826133 6.877867-6.417067 6.877867-14.045866V859.648h48.896a381.098667 381.098667 0 0 1-0.750933-25.088v-27.579733c0-10.2912 0.221867-17.954133 0.7168-23.278934H411.989333l0.4608-1.9968a61.44 61.44 0 0 1 7.748267-19.114666l-15.189333-4.215467c-1.1264 8.157867-2.8672 16.213333-5.205334 24.132267l-0.341333 1.194666h-35.3792c0.512 6.263467 0.750933 13.789867 0.750933 22.391467v29.354667c0 9.216-0.256 17.339733-0.750933 24.183466h49.7664v47.889067a9.216 9.216 0 0 1-3.498667 9.0112 21.5552 21.5552 0 0 1-8.9088 0.9728c-2.372267 0-5.239467-0.085333-8.567466-0.238933z m-92.672 7.133867c5.410133 1.774933 10.530133 4.283733 15.223466 7.492266 4.096-7.509333 7.714133-15.274667 10.8544-23.210666a157.184 157.184 0 0 0 9.540267-34.781867c2.218667-14.813867 3.515733-29.764267 3.925333-44.731733V751.957333h124.177067c11.861333 0 20.445867 0.238933 25.5488 0.682667v-12.3904c-5.410133 0.512-13.824 0.7168-25.5488 0.7168h-139.195733c0.512 6.024533 0.7168 14.7456 0.7168 25.941333v64.955734a246.903467 246.903467 0 0 1-5.290667 45.243733 120.968533 120.968533 0 0 1-19.933867 47.274667z m51.387733 5.802666l-0.9728-1.160533a120.4736 120.4736 0 0 0-12.0832-12.288l-1.6384-1.467733 1.8432-1.143467a107.963733 107.963733 0 0 0 21.1456-17.527467c6.519467-6.894933 12.168533-14.557867 16.827733-22.818133l1.024-1.8432 1.4848 1.501867c4.266667 4.471467 8.874667 8.584533 13.824 12.288l1.416534 1.024-1.1264 1.365333a262.656 262.656 0 0 1-40.516267 41.1648l-1.2288 0.887467z m-9.335467-14.455466c3.464533 3.157333 6.741333 6.485333 9.8304 10.018133a263.8848 263.8848 0 0 0 37.717334-38.434133 115.6608 115.6608 0 0 1-11.349334-10.103467c-4.608 7.799467-10.052267 15.0528-16.264533 21.623467-5.973333 6.4-12.6464 12.066133-19.9168 16.896h-0.034133z m140.868267 12.0832l-1.194667-1.4848a329.6256 329.6256 0 0 0-37.444266-37.1712l-1.2288-1.0752 1.0752-1.2288c3.669333-4.3008 7.492267-8.482133 11.451733-12.526934l1.058133-1.092266 1.1264 1.024a437.76 437.76 0 0 1 38.7072 37.546666l1.024 1.245867-1.194666 1.024c-4.317867 3.805867-8.362667 7.901867-12.100267 12.288l-1.28 1.450667z m-35.328-40.0384c12.629333 10.786133 24.4736 22.493867 35.4304 35.003733 3.1232-3.566933 6.4512-6.946133 9.966933-10.120533a476.672 476.672 0 0 0-36.1984-34.952534c-3.157333 3.2768-6.212267 6.638933-9.181866 10.069334h-0.017067z m14.199467-39.150934h-83.712V826.709333h83.729066v21.9136z m-80.5376-3.242666h77.380266v-15.428267h-77.3632v15.445333-0.017066z m80.554666-28.791467h-83.729066v-22.801067h83.729066v22.801067z m-80.554666-3.242667h77.380266v-16.315733h-77.3632v16.3328z m250.112-56.661333a668.842667 668.842667 0 0 0 0 34.7136c0.392533 14.455467 3.191467 28.740267 8.311466 42.257067 4.539733 12.970667 11.349333 25.019733 20.138667 35.584a125.781333 125.781333 0 0 0 28.450133 24.4736 140.8 140.8 0 0 0 40.721067 16.452266 66.184533 66.184533 0 0 0-15.752533 20.48 240.725333 240.725333 0 0 1-31.965867-17.339733 158.754133 158.754133 0 0 1-23.210667-18.688 138.888533 138.888533 0 0 1-19.677866-24.456533 131.601067 131.601067 0 0 1-15.325867-36.488534 119.381333 119.381333 0 0 1-12.253867 34.2528c-5.034667 8.874667-10.752 17.339733-17.083733 25.344a118.784 118.784 0 0 1-23.210667 21.794134c-9.335467 6.826667-19.5584 14.097067-30.634666 21.794133a51.677867 51.677867 0 0 0-18.3808-16.896c18.090667-6.997333 34.816-17.066667 49.476266-29.7984a103.936 103.936 0 0 0 29.320534-41.813333 218.624 218.624 0 0 0 11.8272-54.272c2.082133-22.340267 2.816-44.765867 2.184533-67.1744 6.946133 1.262933 13.943467 2.1504 20.992 2.6624a120.746667 120.746667 0 0 0-3.925333 27.136z m-62.600534 40.942933a390.912 390.912 0 0 1-10.513066 36.027734 156.228267 156.228267 0 0 0-19.2512-4.437334 148.48 148.48 0 0 0 9.6256-24.4736 282.794667 282.794667 0 0 0 8.7552-36.027733c6.570667 2.082133 13.312 3.584 20.138666 4.437333-4.232533 7.6288-7.168 15.889067-8.738133 24.4736z m121.685334 0.887467c-4.6592 12.765867-9.045333 23.586133-13.124267 32.477867a58.077867 58.077867 0 0 0-18.3808-8.021334c5.8368-9.472 10.8032-19.456 14.882133-29.7984 4.078933-10.376533 7.287467-19.712 9.6256-28.023466 6.6048 3.4304 13.6704 5.8368 20.992 7.1168a76.458667 76.458667 0 0 0-13.960533 26.248533h-0.034133z m-151.04 140.629333l-0.887467-1.416533c-4.522667-6.826667-10.6496-12.458667-17.834667-16.384l-2.901333-1.6896 3.072-1.245867a167.099733 167.099733 0 0 0 49.032533-29.525333 102.912 102.912 0 0 0 28.859734-41.130667c6.178133-17.408 10.120533-35.498667 11.741866-53.879466 2.082133-22.254933 2.798933-44.612267 2.184534-66.9696l-0.0512-1.979734 1.928533 0.341334c6.894933 1.245867 13.858133 2.133333 20.855467 2.6624l1.911466 0.136533-0.512 1.911467a119.893333 119.893333 0 0 0-3.8912 26.743466 701.952 701.952 0 0 0 0 34.628267c0.4096 14.267733 3.191467 28.3648 8.226134 41.710933 4.471467 12.8 11.195733 24.6784 19.848533 35.089067a124.706133 124.706133 0 0 0 28.091733 24.149333c12.4928 7.492267 26.077867 12.970667 40.260267 16.264534l2.8672 0.733866-2.184533 2.048a65.194667 65.194667 0 0 0-15.36 19.933867l-0.6656 1.501867-1.450667-0.682667a245.794133 245.794133 0 0 1-32.170667-17.4592 161.092267 161.092267 0 0 1-23.432533-18.875733 141.380267 141.380267 0 0 1-19.933867-24.746667 126.532267 126.532267 0 0 1-13.824-31.044267 114.005333 114.005333 0 0 1-11.042133 28.740267 203.332267 203.332267 0 0 1-17.2032 25.565867c-6.826667 8.379733-14.728533 15.803733-23.517867 22.084266-10.154667 7.389867-20.3776 14.660267-30.6688 21.828267l-1.3312 0.955733z m-14.336-18.909866c5.9904 3.720533 11.178667 8.584533 15.2576 14.336 9.813333-6.843733 19.575467-13.789867 29.252266-20.8384a117.879467 117.879467 0 0 0 22.8864-21.504c6.280533-7.936 11.946667-16.349867 16.930134-25.156267 5.7344-10.581333 9.813333-21.9648 12.100266-33.792l1.365334-6.4 1.7408 6.314667c3.191467 12.6976 8.2944 24.849067 15.121066 36.027733 5.546667 8.772267 12.0832 16.878933 19.456 24.183467 7.0656 6.8608 14.7456 13.056 22.954667 18.4832 9.693867 6.263467 19.831467 11.793067 30.327467 16.571733 3.447467-6.5024 7.953067-12.407467 13.312-17.476267a139.3664 139.3664 0 0 1-38.365867-15.9232 127.249067 127.249067 0 0 1-28.808533-24.7808 116.616533 116.616533 0 0 1-20.4288-36.078933 131.4304 131.4304 0 0 1-8.413867-42.786133c-0.290133-13.909333-0.290133-25.6 0-34.781867a123.392 123.392 0 0 1 3.498667-25.6c-6.144-0.512-11.946667-1.262933-17.339734-2.184533a550.673067 550.673067 0 0 1-2.218666 65.3824 221.184 221.184 0 0 1-11.9296 54.6816 105.8816 105.8816 0 0 1-29.781334 42.461866 167.970133 167.970133 0 0 1-46.882133 28.859734h-0.034133z m34.2016-84.5824l-1.450667-0.443734a154.743467 154.743467 0 0 0-19.080533-4.4032l-2.218667-0.375466 1.0752-2.013867c3.8912-7.765333 7.0656-15.872 9.5232-24.183467 3.6864-11.7248 6.587733-23.688533 8.704-35.805866l0.341333-1.8432 1.7408 0.580266c6.485333 2.048 13.124267 3.515733 19.848534 4.4032l2.6112 0.341334-1.536 2.184533a79.189333 79.189333 0 0 0-8.4992 23.9104 391.714133 391.714133 0 0 1-10.530134 36.181333l-0.529066 1.4848z m-17.8176-7.68c5.3248 0.955733 10.581333 2.184533 15.803733 3.669333 3.84-11.298133 7.168-22.784 9.966933-34.4064 1.5872-7.901867 4.164267-15.5648 7.645867-22.8352a116.974933 116.974933 0 0 1-16.2304-3.584c-2.116267 11.639467-4.949333 23.1424-8.482133 34.423467a164.744533 164.744533 0 0 1-8.704 22.749866z m136.533333 5.410133l-1.536-1.024a56.6784 56.6784 0 0 0-17.885867-7.7824l-2.116266-0.546133 1.160533-1.877334c5.768533-9.403733 10.717867-19.285333 14.762667-29.559466 4.010667-10.24 7.236267-19.6096 9.557333-27.869867l0.5632-1.962667 1.757867 1.024c6.468267 3.345067 13.397333 5.6832 20.548266 6.946134l2.952534 0.580266-2.133334 2.1504a75.349333 75.349333 0 0 0-13.636266 25.668267 464.384 464.384 0 0 1-13.175467 32.597333l-0.8192 1.655467z m-16.554667-11.434667c5.358933 1.518933 10.478933 3.754667 15.2064 6.656 3.857067-8.4992 8.004267-18.807467 12.3392-30.651733a90.5728 90.5728 0 0 1 12.458667-24.661333 74.9568 74.9568 0 0 1-16.981333-5.751467c-2.304 7.8848-5.376 16.708267-9.130667 26.248533a189.9008 189.9008 0 0 1-13.892267 28.177067zM884.599467 907.946667a120.763733 120.763733 0 0 1-36.352-49.390934 140.680533 140.680533 0 0 1-13.141334 26.692267c-4.932267 7.936-10.973867 15.121067-17.937066 21.3504a148.855467 148.855467 0 0 1-21.896534 16.008533c-9.147733 5.393067-18.653867 10.1376-28.450133 14.2336a43.690667 43.690667 0 0 0-15.752533-15.121066 137.216 137.216 0 0 0 41.5744-18.2272 89.565867 89.565867 0 0 0 27.579733-28.023467 111.0016 111.0016 0 0 0 13.568-36.027733c2.679467-14.216533 3.413333-28.740267 2.2016-43.1616 6.997333 0.6144 14.592 1.194667 22.749867 1.792a72.192 72.192 0 0 0-2.184534 30.242133c2.218667 11.588267 6.3488 22.698667 12.253867 32.9216 7.185067 13.021867 16.861867 24.490667 28.4672 33.792a126.651733 126.651733 0 0 0 49.015467 23.125333 47.547733 47.547733 0 0 0-13.141334 18.670934 144.9984 144.9984 0 0 1-48.554666-28.8768z m53.845333-116.992c0 3.549867 0.290133 10.069333 0.8704 19.575466H920.064v-28.484266h-144.452267v30.2592h-19.285333c0.597333-10.069333 0.887467-17.493333 0.887467-22.254934 0.017067-4.744533-0.273067-12.765867-0.8704-24.0128h182.971733c-0.580267 12.458667-0.887467 20.770133-0.8704 24.917334z m-154.965333 82.7392a73.079467 73.079467 0 0 0-16.64-6.229334c3.498667-7.714133 6.8608-15.274667 10.069333-22.698666 3.925333-9.642667 6.997333-19.626667 9.216-29.7984a82.090667 82.090667 0 0 0 18.397867 6.229333c-3.5328 8.9088-10.5472 26.402133-21.0432 52.497067z m43.776-139.6736c6.144-1.979733 12.014933-4.6592 17.5104-8.021334 6.0928 9.9328 11.3664 20.343467 15.752533 31.146667-6.997333 2.389333-13.141333 4.7616-18.3808 7.1168a104.3968 104.3968 0 0 0-14.882133-30.242133z m74.410666 139.6736a51.950933 51.950933 0 0 0-14.882133-8.021334 158.890667 158.890667 0 0 0 21.009067-48.042666c5.205333 3.8912 11.178667 6.621867 17.5104 8.021333-6.656 16.571733-14.557867 32.648533-23.620267 48.042667z m-135.509333 65.2288l-0.699733-1.28a42.530133 42.530133 0 0 0-15.2064-14.523734l-3.191467-2.013866 3.618133-0.955734a136.2432 136.2432 0 0 0 41.130667-18.0224 88.456533 88.456533 0 0 0 27.0848-27.4944c6.468267-10.990933 10.990933-22.9888 13.3632-35.515733a160.477867 160.477867 0 0 0 2.1504-42.7008l-0.136533-1.911467 1.877333 0.170667c6.997333 0.597333 14.557867 1.194667 22.7328 1.774933l1.962667 0.136534-0.512 1.911466a70.656 70.656 0 0 0-2.167467 29.559467c2.2016 11.400533 6.280533 22.357333 12.0832 32.392533a112.520533 112.520533 0 0 0 28.0576 33.314134 125.696 125.696 0 0 0 48.4352 22.8352l2.8672 0.733866-2.2016 2.048a46.250667 46.250667 0 0 0-12.714667 18.039467l-0.512 1.467733-1.450666-0.4608a147.421867 147.421867 0 0 1-49.152-29.218133 124.501333 124.501333 0 0 1-35.2768-46.250667c-3.242667 8.072533-7.185067 15.837867-11.8272 23.176534-5.0176 8.072533-11.1616 15.36-18.244267 21.7088a149.879467 149.879467 0 0 1-22.1184 16.1792c-9.216 5.4272-18.773333 10.205867-28.637867 14.336l-1.3312 0.5632z m82.090667-84.906667l1.536 3.9936a119.517867 119.517867 0 0 0 35.84 48.708267 146.705067 146.705067 0 0 0 46.609066 28.16 48.64 48.64 0 0 1 10.9056-15.837867 126.464 126.464 0 0 1-46.848-22.698667 115.848533 115.848533 0 0 1-28.859733-34.304 107.042133 107.042133 0 0 1-12.424533-33.4336 73.1648 73.1648 0 0 1 1.706666-29.013333 1276.2112 1276.2112 0 0 1-18.961066-1.4848c1.024 13.9264 0.221867 27.9552-2.372267 41.6768a112.913067 112.913067 0 0 1-13.7728 36.5568 91.4432 91.4432 0 0 1-28.0576 28.535467 137.3184 137.3184 0 0 1-38.587733 17.5104c4.983467 3.242667 9.250133 7.492267 12.544 12.458666 9.2672-3.9424 18.295467-8.482133 26.965333-13.585066 7.68-4.608 14.933333-9.9328 21.674667-15.837867 6.826667-6.144 12.765867-13.2096 17.646933-20.992a139.776 139.776 0 0 0 12.970667-26.402133l1.467733-4.010667z m53.9136 22.101333l-1.4336-1.092266a50.688 50.688 0 0 0-14.4384-7.7824l-1.962667-0.648534 1.1264-1.774933a157.764267 157.764267 0 0 0 20.7872-47.5648l0.5632-2.286933 1.911467 1.365333a44.373333 44.373333 0 0 0 16.896 7.7312l1.8432 0.375467-0.6656 1.774933a361.250133 361.250133 0 0 1-23.722667 48.298667l-0.904533 1.604266z m-12.936534-11.264c4.2496 1.6384 8.260267 3.822933 11.946667 6.468267 8.328533-14.318933 15.6672-29.184 21.981867-44.4928-5.12-1.365333-9.984-3.566933-14.370134-6.536533a161.2288 161.2288 0 0 1-19.5584 44.544v0.017066z m-104.9088 11.093334l-1.536-0.785067a70.5536 70.5536 0 0 0-16.264533-6.0928l-1.9456-0.443733 0.836267-1.8432c3.498667-7.68 6.843733-15.240533 10.069333-22.647467 3.84-9.557333 6.894933-19.456 9.079467-29.525333l0.477866-2.013867 1.809067 0.938667c5.751467 2.730667 11.793067 4.778667 18.0224 6.0928l1.809067 0.426666-0.682667 1.757867c-3.498667 8.9088-10.496 26.402133-20.992 52.514133l-0.682667 1.621334z m-15.189333-9.591467c4.6592 1.28 9.181867 2.986667 13.533867 5.12 9.489067-23.586133 16.042667-39.970133 19.6608-49.117867-5.188267-1.194667-10.24-2.901333-15.121067-5.034666-2.1504 9.591467-5.12 18.9952-8.8064 28.125866-2.986667 6.826667-6.075733 13.806933-9.284267 20.906667z m8.072533-52.411733h-22.562133l0.119467-1.706667c0.580267-10.24 0.853333-17.493333 0.853333-22.1696s-0.290133-12.458667-0.853333-23.927467l-0.1024-1.706666h85.845333a102.8096 102.8096 0 0 0-14.5408-29.457067l-1.297067-1.792 2.0992-0.682667c6.007467-1.9456 11.776-4.590933 17.169067-7.850666l1.314133-0.853334 0.853334 1.314134a216.746667 216.746667 0 0 1 15.906133 31.402666l0.682667 1.6384-1.6384 0.546134c-5.632 1.911467-10.752 3.84-15.189334 5.7344h95.1296l-0.068266 1.706666a669.013333 669.013333 0 0 0-0.8704 24.832c0 3.618133 0.3072 10.3424 0.853333 19.456l0.119467 1.706667h-22.562134V783.701333H777.216v30.242134z m-19.165866-3.242667h15.9744v-30.2592h147.643733v28.4672h15.957333c-0.512-8.311467-0.750933-14.4896-0.750933-17.954133 0-4.096 0.256-12.1344 0.785067-23.278934H758.033067c0.512 10.581333 0.785067 17.92 0.785066 22.391467 0 4.488533-0.256 11.2128-0.785066 20.616533z m71.765333-75.844267a106.837333 106.837333 0 0 1 13.312 27.204267c5.000533-2.1504 10.069333-4.096 15.223467-5.870933a212.616533 212.616533 0 0 0-14.08-27.9552c-4.590933 2.6624-9.437867 4.881067-14.455467 6.6048zM875.52 302.08c-37.12 49.92-102.4 76.8-102.4 76.8a2088.567467 2088.567467 0 0 0-179.2 143.36l5.12-66.56c2.56-108.8 96-139.52 158.72-168.96 62.72-29.44 174.08-107.52 174.08-107.52 19.2-40.96 17.749333-30.72 17.749333-10.24 0 20.48-36.949333 83.2-74.069333 133.12zM486.4 552.96l-3.413333 10.24H665.6c-6.4-38.4 56.32-87.04 56.32-87.04 101.12-104.96 215.04-56.32 215.04-56.32-136.96 40.96-158.72 143.36-158.72 143.36h156.16a17.92 17.92 0 1 1 0 35.84H90.026667c-1.877333 5.6832-3.1744 7.901867-2.269867-0.170667A17.8688 17.8688 0 0 1 89.6 563.2h4.010667c3.1232-16.981333 7.611733-40.226133 13.909333-71.68 44.612267-222.72 179.2-271.36 179.2-271.36-28.808533 33.348267-37.888 73.949867-61.44 122.88-40.482133 84.1216-21.4528 195.328-16.452267 220.16h148.992c-6.8096-72.021333 77.380267-184.32 77.380267-184.32 158.72-170.24 281.6-148.48 281.6-148.48l-102.4 107.52c-104.96 87.04-128 215.04-128 215.04z m-163.84-112.64c-40.96 47.36-30.72 112.64-30.72 112.64s-12.8 8.96-30.72-61.44 15.36-133.12 66.56-199.68c51.2-66.56 92.16-168.96 92.16-168.96 19.2 65.28-3.84 152.32-10.24 194.56-6.4 42.24-46.08 75.52-87.04 122.88z" fill="#FF0000" /></svg>