<?xml version="1.0" standalone="no"?><!DOCTYPE svg PUBLIC "-//W3C//DTD SVG 1.1//EN" "http://www.w3.org/Graphics/SVG/1.1/DTD/svg11.dtd"><svg class="icon" width="1000px" height="1000.00px" viewBox="0 0 1024 1024" version="1.1" xmlns="http://www.w3.org/2000/svg"><path d="M864 1024H160A160 160 0 0 1 0 864V160A160 160 0 0 1 160 0h704A160 160 0 0 1 1024 160v704A160 160 0 0 1 864 1024z m128-832a160 160 0 0 0-160-160h-640a160 160 0 0 0-160 160v640a160 160 0 0 0 160 160h640a160 160 0 0 0 160-160v-640z" fill="#FF0000" /><path d="M104.584533 884.736c-9.045333 2.901333-17.732267 6.792533-25.890133 11.639467A273.698133 273.698133 0 0 0 71.68 876.544a94.293333 94.293333 0 0 0 25.463467-5.1712v-69.853867c-8.192 0-15.803733 0.290133-22.8352 0.853334v-15.5136c7.031467 0.580267 14.6432 0.8704 22.8352 0.853333v-31.044267c0-6.314667-0.3072-13.789867-0.887467-22.4256h17.5616a275.456 275.456 0 0 0-0.887467 22.4256v31.061334c7.031467 0 14.045867-0.290133 21.077334-0.853334v15.5136c-7.031467-0.580267-14.045867-0.853333-21.060267-0.853333v64.6656A118.442667 118.442667 0 0 0 133.973333 860.16c-0.546133 5.154133-0.853333 10.3424-0.8704 15.530667-9.386667 2.884267-18.8928 5.905067-28.535466 9.045333z m161.962667-78.045867a205.9776 205.9776 0 0 0-7.4752 25.873067 295.936 295.936 0 0 1-7.901867 28.450133c-2.372267 7.748267-5.461333 15.2576-9.216 22.4256 5.853867 10.359467 10.820267 16.674133 14.933334 18.978134 4.096 2.304 7.0144-4.027733 8.772266-18.978134 4.539733 4.676267 9.898667 8.465067 15.803734 11.2128a100.864 100.864 0 0 1-9.216 25.019734c-3.805867 6.894933-8.482133 8.9088-14.045867 6.024533a51.421867 51.421867 0 0 1-15.36-12.509867 128.8192 128.8192 0 0 1-12.288-16.810666c-5.0176 6.109867-10.4448 11.8784-16.247467 17.237333-6.314667 5.888-13.226667 11.093333-20.616533 15.530667a52.957867 52.957867 0 0 0-14.045867-13.789867 127.658667 127.658667 0 0 0 24.132267-15.086933 95.6928 95.6928 0 0 0 18.005333-19.4048 211.234133 211.234133 0 0 1-11.4176-49.595734 633.514667 633.514667 0 0 1-4.386133-50.449066H160.324267v31.044266h37.7344a370.7904 370.7904 0 0 0-0.853334 27.5968l-0.887466 35.362134c0 10.3424-2.781867 17.1008-8.362667 20.258133-6.7072 3.584-13.9776 6.058667-21.504 7.338667a66.594133 66.594133 0 0 0-6.144-19.831467c9.949867 0 15.957333-0.853333 18.005333-2.56a11.997867 11.997867 0 0 0 3.072-9.489067l0.887467-43.997866H160.324267c0 8.635733-0.443733 18.261333-1.314134 28.893866a110.1312 110.1312 0 0 1-8.772266 33.6384 138.427733 138.427733 0 0 1-24.149334 36.6592 62.856533 62.856533 0 0 0-16.674133-9.489066 116.258133 116.258133 0 0 0 25.019733-33.621334c4.693333-9.9328 7.662933-20.5824 8.772267-31.488 0.887467-10.069333 1.314133-23.432533 1.314133-40.106666 0-17.237333-0.290133-32.2048-0.8704-44.8512h61.44c0-10.922667-0.580267-23.8592-1.757866-38.8096 6.365867 1.143467 12.834133 1.723733 19.3024 1.723733-1.877333 12.270933-2.474667 24.695467-1.757867 37.085867h13.175467c12.868267 0 25.4464-0.290133 37.7344-0.853334v16.384c-12.288-0.580267-24.866133-0.853333-37.7344-0.853333h-12.288c0.580267 12.6464 1.604267 26.1632 3.072 40.516267 1.536 14.865067 4.334933 29.5936 8.3456 43.997866a171.861333 171.861333 0 0 0 8.772266-30.208c2.3552-11.690667 4.113067-23.5008 5.2736-35.362133 6.2976 2.679467 12.7488 4.983467 19.319467 6.894933z m0-52.616533c-5.495467 2.269867-10.5472 5.4784-14.933333 9.489067a199.168 199.168 0 0 0-18.432-26.7264c4.932267-2.4576 9.6256-5.341867 14.045866-8.635734 7.1168 8.106667 13.568 16.759467 19.319467 25.890134z m-73.301333 177.220267l-0.8704-1.2288a51.5072 51.5072 0 0 0-13.6192-13.397334l-2.304-1.536 2.4576-1.211733a126.173867 126.173867 0 0 0 23.842133-14.848 93.7984 93.7984 0 0 0 17.2032-18.432c-5.632-15.889067-9.386667-32.392533-11.195733-49.152a641.877333 641.877333 0 0 1-4.334934-49.066667h-42.496v27.904h37.888l-0.136533 1.655467c-0.580267 7.970133-0.8704 16.930133-0.8704 27.477333l-0.887467 35.396267c0 10.871467-3.072 18.158933-9.130666 21.6064-6.894933 3.652267-14.336 6.1952-22.016 7.509333l-1.655467 0.324267-0.256-1.6384a65.4336 65.4336 0 0 0-6.007467-19.370667l-1.143466-2.286933h2.56c12.458667 0 15.9744-1.3824 16.9472-2.218667a10.5984 10.5984 0 0 0 2.525866-8.277333l0.853334-42.410667H161.911467c-0.085333 9.1648-0.512 18.312533-1.314134 27.4432a111.957333 111.957333 0 0 1-8.874666 34.116267A140.868267 140.868267 0 0 1 127.317333 926.72l-1.058133 1.194667-1.211733-1.024a60.7232 60.7232 0 0 0-16.247467-9.216l-2.218667-0.9216 1.706667-1.655467a115.712 115.712 0 0 0 24.695467-33.1776c4.608-9.762133 7.509333-20.224 8.635733-30.958933 0.853333-9.966933 1.314133-23.415467 1.314133-39.970134 0-17.015467-0.3072-32.085333-0.887466-44.765866l-0.068267-1.655467h61.508267a527.018667 527.018667 0 0 0-1.7408-37.12l-0.170667-2.048 2.048 0.375467c6.280533 1.1264 12.6464 1.706667 19.029333 1.706666h1.911467l-0.341333 1.8432a171.690667 171.690667 0 0 0-1.774934 35.242667h11.605334c5.461333 0 10.888533-0.068267 16.213333-0.1536l-0.034133-0.085333a199.441067 199.441067 0 0 0-18.295467-26.5216l-1.245867-1.536 1.774934-0.887467c4.846933-2.389333 9.472-5.239467 13.824-8.465067l1.194666-0.887466 0.989867 1.143466c7.168 8.157867 13.653333 16.896 19.456 26.077867l0.9216 1.501867-1.6384 0.733866a50.3808 50.3808 0 0 0-14.114133 8.8576c6.365867-0.136533 12.5952-0.375467 18.6368-0.648533l1.6896-0.085333V783.36l-1.6896-0.085333a813.806933 813.806933 0 0 0-37.666134-0.853334h-10.615466c0.597333 12.202667 1.5872 25.2416 2.986666 38.8096 1.365333 13.141333 3.720533 26.146133 7.031467 38.929067 2.901333-8.260267 5.2224-16.725333 6.929067-25.2928 2.3552-11.639467 4.096-23.381333 5.239466-35.208533l0.221867-2.184534 2.048 0.887467c6.229333 2.6624 12.612267 4.949333 19.114667 6.826667l1.604266 0.512-0.5632 1.536a206.848 206.848 0 0 0-7.406933 25.7024c-2.048 9.216-4.727467 18.824533-7.936 28.586666a138.837333 138.837333 0 0 1-8.9088 21.930667c3.208533 6.877867 7.953067 12.9024 13.892267 17.629867 0.221867 0.1536 0.512 0.238933 0.785066 0.256 0.341333 0 3.5328-0.512 5.5808-18.056534l0.392534-3.2256 2.338133 2.304c4.420267 4.522667 9.608533 8.209067 15.342933 10.871467l1.194667 0.546133-0.290133 1.28a103.509333 103.509333 0 0 1-9.386667 25.3952c-4.1984 7.6288-9.8304 9.9328-16.196267 6.690134a53.4528 53.4528 0 0 1-15.837866-12.9024 132.130133 132.130133 0 0 1-11.264-15.104 185.002667 185.002667 0 0 1-14.933334 15.6672 127.351467 127.351467 0 0 1-20.8896 15.7184l-1.297066 0.768z m-10.513067-15.701334c4.334933 3.242667 8.157867 7.099733 11.383467 11.434667 6.826667-4.1984 13.2096-9.079467 19.080533-14.523733 5.751467-5.341867 11.127467-11.042133 16.093867-17.1008l1.450666-1.774934 1.194667 1.9456c3.584 5.853867 7.645867 11.4176 12.1344 16.622934 4.130133 4.949333 9.198933 9.079467 14.8992 12.117333 4.7104 2.474667 8.533333 0.682667 11.8784-5.393067 3.8912-7.389867 6.843733-15.240533 8.772267-23.364266a54.272 54.272 0 0 1-12.765867-8.772267c-1.706667 12.219733-4.317867 17.698133-8.379733 17.698133a4.778667 4.778667 0 0 1-2.389334-0.6656c-4.386133-2.440533-9.472-8.8576-15.530666-19.575466l-0.426667-0.768 0.426667-0.768c3.703467-7.082667 6.7584-14.506667 9.1136-22.152534 3.072-9.301333 5.700267-18.7392 7.850666-28.296533 1.826133-8.311467 4.1472-16.503467 6.946134-24.5248a181.367467 181.367467 0 0 1-15.872-5.597867 346.794667 346.794667 0 0 1-5.0688 33.348267c-2.013867 10.410667-4.983467 20.599467-8.874667 30.464l-1.774933 4.386133-1.245867-4.5568c-4.027733-14.4896-6.826667-29.2864-8.3968-44.253866a724.872533 724.872533 0 0 1-3.072-40.618667l-0.085333-1.621333h13.9776c12.151467 0 24.285867 0.256 36.1472 0.768v-13.090134c-11.554133 0.512-23.7056 0.802133-36.1472 0.802134h-14.6944l-0.068267-1.536c-0.648533-11.895467-0.170667-23.808 1.467733-35.601067a112.64 112.64 0 0 1-15.6672-1.3824c1.0752 14.216533 1.604267 26.624 1.604267 36.9152v1.570133H145.322667c0.512 12.373333 0.802133 26.9312 0.802133 43.281067 0 16.64-0.443733 30.173867-1.314133 40.2432a98.423467 98.423467 0 0 1-8.925867 31.982933 115.473067 115.473067 0 0 1-23.688533 32.443734c4.864 2.048 9.472 4.6592 13.687466 7.8336a135.543467 135.543467 0 0 0 22.869334-35.054934c4.608-10.530133 7.5264-21.725867 8.6528-33.160533 0.853333-10.530133 1.314133-20.224 1.314133-28.7744v-1.570133h25.173333l-0.904533 45.568a13.482667 13.482667 0 0 1-3.618133 10.666666c-1.4336 1.194667-4.7104 2.747733-16.520534 2.935467 2.304 5.239467 3.959467 10.734933 4.932267 16.384 6.775467-1.28 13.312-3.584 19.387733-6.826667 5.000533-2.833067 7.543467-9.216 7.543467-18.8928l0.887467-35.396266c0-9.847467 0.238933-18.3808 0.750933-25.992534H158.72v-34.133333h48.776533l0.068267 1.501867c0.580267 14.336 2.048 31.266133 4.386133 50.346666 1.792 16.7936 5.5808 33.314133 11.3152 49.2032l0.3072 0.768-0.494933 0.682667A97.621333 97.621333 0 0 1 204.8 901.495467a126.976 126.976 0 0 1-22.0672 14.08z m52.923733-178.2272c6.007467 7.509333 11.4688 15.4112 16.349867 23.7056 3.720533-3.106133 7.850667-5.700267 12.253867-7.68a210.5856 210.5856 0 0 0-17.288534-23.04 95.232 95.232 0 0 1-11.3152 6.997334z m-157.9008 161.4336l-0.597333-1.9456c-2.065067-6.656-4.4032-13.243733-6.997333-19.712l-0.853334-2.167466H71.68a90.282667 90.282667 0 0 0 23.8592-4.7616v-67.106134c-7.048533 0.017067-14.08 0.3072-21.0944 0.853334l-1.723733 0.136533v-18.944l1.7408 0.136533c6.3488 0.512 13.448533 0.8192 21.077333 0.853334v-29.474134c0-6.161067-0.290133-13.687467-0.887467-22.306133l-0.1024-1.672533h20.992l-0.136533 1.6896c-0.580267 7.406933-0.8704 14.848-0.8704 22.289066v29.474134c6.4512-0.034133 12.885333-0.324267 19.319467-0.853334l1.7408-0.136533v18.944l-1.706667-0.136533c-6.485333-0.512-12.970667-0.8192-19.3536-0.853334v61.184c6.434133-1.348267 12.7488-3.242667 18.875733-5.632l2.4576-0.904533-0.273066 2.56c-0.546133 5.12-0.853333 10.24-0.8704 15.36v1.160533l-1.1264 0.341334c-9.5232 2.952533-19.029333 5.973333-28.501334 9.045333a125.2352 125.2352 0 0 0-25.5488 11.502933l-1.792 1.0752z m-3.754666-20.753066c1.8432 4.744533 3.7376 10.103467 5.632 15.957333 7.748267-4.420267 15.957333-8.021333 24.456533-10.752 9.386667-3.072 18.602667-6.007467 27.426133-8.704a146.944 146.944 0 0 1 0.648534-12.014933c-6.144 2.269867-12.4928 4.027733-18.944 5.2224l-1.877334 0.341333v-68.1472h1.5872c6.4 0 12.970667 0.238933 19.456 0.733867v-12.117334c-6.468267 0.494933-12.970667 0.733867-19.456 0.733867h-1.604266v-32.631467c0-7.0144 0.256-13.994667 0.750933-20.8384h-14.1312c0.512 8.004267 0.785067 15.018667 0.785067 20.8384v32.631467H97.109333c-7.645867 0-14.762667-0.256-21.230933-0.733867v12.117334c7.0656-0.512 14.148267-0.750933 21.230933-0.733867h1.5872v72.584533l-1.109333 0.341334a106.888533 106.888533 0 0 1-23.620267 5.1712z m381.269333-115.336534a1310.72 1310.72 0 0 0 45.653333-0.853333v17.237333a1312.085333 1312.085333 0 0 0-45.653333-0.853333H409.6v29.320533h67.584c-0.597333 10.359467-0.887467 20.992-0.8704 31.914667v42.257067c0 9.7792-3.362133 16.384-10.103467 19.831466a80.2304 80.2304 0 0 1-28.535466 6.894934 60.501333 60.501333 0 0 0-7.8848-20.6848c7.765333 0.2048 15.530667-0.068267 23.261866-0.853334 3.208533-0.580267 4.829867-3.464533 4.829867-8.635733v-55.210667H409.6v68.1472c0 14.370133 0.290133 26.743467 0.887467 37.0688H390.314667c0.580267-10.3424 0.853333-22.698667 0.8704-37.0688v-68.1472H342.016v84.5312h-19.285333c0.5632-9.198933 0.853333-20.1216 0.853333-32.768v-31.914666c0-13.2096-0.273067-25.002667-0.853333-35.362134h68.437333V778.24h-45.6192c-15.223467 0-30.446933 0.290133-45.653333 0.853333v-17.237333c15.189333 0.580267 30.4128 0.8704 45.653333 0.853333h109.7216z m-41.250133-9.489066c-5.5296 2.389333-10.820267 5.2736-15.803734 8.635733a140.407467 140.407467 0 0 0-20.189866-26.743467c4.676267-3.447467 9.352533-6.6048 14.045866-9.489066a172.544 172.544 0 0 1 21.947734 27.5968z m-1.826134 176.64H388.608l0.1024-1.672534c0.580267-10.359467 0.8704-22.801067 0.8704-36.983466v-66.56h-45.943467v84.5312H321.024l0.1024-1.672534c0.597333-9.216 0.887467-20.206933 0.887467-32.682666v-31.914667c0-13.038933-0.290133-24.900267-0.887467-35.259733l-0.085333-1.672534h68.5568v-26.180266h-44.032c-15.018667 0-30.344533 0.3072-45.568 0.853333l-1.672534 0.085333v-20.514133l1.672534 0.068267c14.848 0.5632 30.208 0.853333 45.568 0.853333H395.946667a141.038933 141.038933 0 0 0-19.114667-24.951467l-1.194667-1.28 1.399467-1.058133c4.608-3.413333 9.386667-6.621867 14.165333-9.557333l1.092267-0.682667 0.887467 0.904533c8.328533 8.4992 15.752533 17.834667 22.186666 27.8528l1.024 1.536-1.706666 0.750934c-4.3008 1.877333-8.482133 4.061867-12.4928 6.485333h53.060266c14.2336 0 29.576533-0.290133 45.568-0.853333l1.672534-0.068267v20.514133l-1.672534-0.068266c-15.189333-0.546133-30.378667-0.836267-45.568-0.853334h-44.032v26.1632h67.669334l-0.085334 1.672534a558.609067 558.609067 0 0 0-0.887466 31.812266v42.274134c0 10.359467-3.6864 17.5104-10.9568 21.230933a82.295467 82.295467 0 0 1-29.098667 7.0656l-1.501867 0.136533-0.238933-1.450666a59.392 59.392 0 0 0-7.68-20.138667l-1.416533-2.389333h2.798933c7.662933 0.2048 15.325867-0.068267 22.954667-0.853334 0.8704-0.1536 3.5328-0.6144 3.5328-7.0656V824.661333h-45.056v66.56c0 14.677333 0.290133 26.7776 0.853333 37.000534l0.068267 1.655466zM392.021333 926.72h16.810667a695.022933 695.022933 0 0 1-0.785067-35.498667v-69.717333h51.473067v56.7808c0 7.509333-3.328 9.659733-6.144 10.171733-6.912 0.750933-13.858133 1.041067-20.821333 0.8704 3.037867 5.461333 5.2224 11.3152 6.485333 17.408a76.6976 76.6976 0 0 0 26.487467-6.587733c6.212267-3.191467 9.216-9.216 9.216-18.432v-42.257067c0-10.478933 0.256-20.667733 0.785066-30.344533h-67.4816v-32.4608h47.240534c13.3632 0 28.194133 0.256 44.032 0.802133v-13.994666a1274.709333 1274.709333 0 0 1-44.032 0.8192h-109.738667c-14.848 0-29.696-0.273067-44.032-0.802134v13.994667a1202.858667 1202.858667 0 0 1 44.032-0.8192h47.2576v32.4608h-68.369067c0.512 10.0352 0.785067 21.4016 0.785067 33.792v31.914667c0 11.776-0.256 22.289067-0.785067 31.197866h16.008534v-84.514133h52.360533v69.717333c0 13.482667-0.273067 25.429333-0.785067 35.498667z m-11.588266-191.3856c6.946133 7.406933 13.1072 15.530667 18.346666 24.234667 4.113067-2.645333 8.430933-4.983467 12.885334-6.997334-5.802667-8.9088-12.458667-17.2544-19.797334-24.917333-3.857067 2.389333-7.697067 4.949333-11.434666 7.68z m239.889066 140.356267c-10.615467 0.682667-21.162667 2.133333-31.5904 4.317866 0 23.005867 0.290133 39.68 0.8704 50.005334h-17.5616c0.580267-10.3424 0.8704-25.873067 0.887467-46.592-15.701333 2.56-31.232 6.007467-46.523733 10.359466-1.757867-6.314667-3.805867-12.936533-6.144-19.831466a481.553067 481.553067 0 0 0 52.667733-5.1712v-32.768c-6.4512 0-13.175467 0.273067-20.189867 0.853333a46.267733 46.267733 0 0 0-18.432 5.1712l-9.659733-18.961067c6.485333-2.901333 11.656533-8.1408 14.4896-14.677333 5.5296-10.581333 10.359467-21.538133 14.472533-32.768-11.127467 0-20.189867 0.290133-27.204266 0.8704v-15.5136c7.594667 0.580267 17.834667 0.8704 30.72 0.853333a231.082667 231.082667 0 0 0 8.772266-35.345066c5.853867 2.304 12.5952 4.608 20.189867 6.894933a108.7488 108.7488 0 0 0-12.288 28.4672h22.8352c7.901867 0.170667 15.8208-0.119467 23.688533-0.8704v15.530667c-5.853867-0.580267-13.755733-0.853333-23.688533-0.853334h-26.350933a442.606933 442.606933 0 0 1-21.947734 46.592h24.576c0-10.922667-0.290133-20.992-0.8704-30.208h17.5616a418.304 418.304 0 0 0-0.887466 30.208c10.530133 0 21.060267-0.3072 31.607466-0.887466v15.530666a761.856 761.856 0 0 0-31.607466-0.853333v31.044267c9.352533-1.723733 20.48-3.7376 33.365333-6.0416-1.194667 4.778667-1.792 9.710933-1.757867 14.6432z m98.304 43.9808c-3.959467 1.297067-8.123733 1.877333-12.288 1.723733h-7.901866c-12.288 0-18.432-6.6048-18.432-19.831467l7.031466-110.3872h-24.576a370.176 370.176 0 0 1-4.386133 47.872 218.333867 218.333867 0 0 1-10.973867 40.96 209.237333 209.237333 0 0 1-25.890133 45.704534 65.450667 65.450667 0 0 0-18.432-10.359467c8.704-7.816533 16.110933-16.9984 21.930667-27.170133 5.614933-10.2912 10.171733-21.128533 13.602133-32.341334 3.805867-12.066133 6.877867-33.621333 9.216-64.682666-10.530133 0-18.722133 0.290133-24.576 0.853333v-14.6432c5.853867 0.580267 14.336 0.8704 25.463467 0.853333 0.580267-20.104533 0.853333-37.0688 0.8704-50.875733 5.853867 1.160533 12.288 2.304 19.319466 3.447467-2.3552 6.314667-4.096 22.135467-5.256533 47.445333h40.362667c-1.160533 11.502933-2.048 21.572267-2.628267 30.208l-4.386133 87.9616c0 6.314667 1.314133 9.7792 3.9424 10.3424a16.093867 16.093867 0 0 0 7.458133 0c2.338133-0.5632 4.096-6.6048 5.290667-18.107733 5.239467 3.771733 11.2128 6.417067 17.544533 7.765333-5.2736 14.336-9.386667 22.101333-12.288 23.261867z m-127.351466 11.9296h-20.9408l0.1024-1.672534c0.5632-10.0352 0.853333-25.019733 0.8704-44.578133-14.984533 2.4576-29.815467 5.768533-44.407467 9.949867l-1.604267 0.512-0.4608-1.604267a373.077333 373.077333 0 0 0-6.109866-19.7632l-0.7168-2.048h2.235733c17.1008-0.733867 34.133333-2.389333 51.063467-4.9664V837.632c-6.144 0.0512-12.322133 0.341333-18.449067 0.853333a44.578133 44.578133 0 0 0-17.783467 4.983467l-1.467733 0.785067-11.229867-22.0672 1.757867-0.580267c6.0928-2.781867 10.922667-7.748267 13.568-13.892267 5.154133-9.864533 9.693867-20.036267 13.585067-30.446933-9.949867 0.034133-18.261333 0.324267-24.7808 0.853333l-1.6896 0.119467v-18.944l1.723733 0.136533c7.2704 0.546133 16.896 0.836267 29.405867 0.853334 3.669333-11.093333 6.485333-22.459733 8.379733-33.9968l0.273067-1.9968 1.911466 0.750933c5.751467 2.269867 12.4928 4.573867 20.0704 6.843733l2.184534 0.682667-1.365334 1.774933a101.205333 101.205333 0 0 0-11.3664 25.941334h20.616534c7.816533 0.170667 15.650133-0.1024 23.4496-0.853334l1.8432-0.256v16.503467l1.194666 0.119467c5.4784 0.5632 13.2608 0.853333 23.722667 0.853333 0.5632-19.524267 0.853333-36.096 0.853333-49.3056v-1.928533l1.911467 0.392533c5.922133 1.160533 12.3904 2.321067 19.268267 3.4304l1.911466 0.3072-0.682666 1.792c-2.218667 6.024533-3.9424 21.248-5.12 45.329067h40.482133l-0.170667 1.706666a902.7072 902.7072 0 0 0-2.645333 30.1568l-4.386133 87.927467c0 5.12 0.989867 8.362667 2.696533 8.704 2.218667 0.512 4.522667 0.512 6.724267 0 0.119467-0.034133 2.4576-0.887467 4.061866-16.725333l0.290134-2.679467 2.235733 1.536c5.0688 3.652267 10.837333 6.212267 16.9472 7.509333l1.8432 0.341334-0.648533 1.7408c-7.2192 19.677867-10.837333 23.261867-13.2096 24.2176-4.1472 1.365333-8.516267 1.979733-12.885334 1.826133h-7.901866c-13.090133 0-20.0192-7.389867-20.0192-21.4016l6.912-108.834133h-21.333334a369.885867 369.885867 0 0 1-4.352 46.5408 221.405867 221.405867 0 0 1-11.042133 41.284266c-6.741333 16.384-15.496533 31.863467-26.094933 46.08l-0.989867 1.365334-1.3312-1.024a64.034133 64.034133 0 0 0-17.9712-10.103467l-2.4576-0.8704 1.911467-1.757867a108.356267 108.356267 0 0 0 21.623466-26.7776c5.563733-10.1888 10.069333-20.9408 13.482667-32.034133 3.669333-11.690667 6.7072-32.768 9.045333-62.634667-9.591467 0.034133-17.2032 0.3072-22.698666 0.853334l-1.757867 0.170666v-15.598933l-1.194667-0.1024c-5.8368-0.580267-13.7728-0.853333-23.552-0.853333h-25.258666c-6.007467 14.813867-12.8 29.303467-20.343467 43.4176h20.2752c0-10.171733-0.3072-19.7632-0.853333-28.5184l-0.119467-1.672534h20.992l-0.119467 1.6896c-0.5632 7.594667-0.853333 16.930133-0.8704 28.484267 10.103467 0 20.138667-0.3072 29.9008-0.853333l1.706667-0.085334v18.824534l-1.706667-0.068267a813.346133 813.346133 0 0 0-29.9008-0.853333v27.579733c8.96-1.655467 19.456-3.549867 31.470934-5.700267l2.440533-0.443733-0.6144 2.389333a57.856 57.856 0 0 0-1.706667 14.267734v1.570133h-1.604266a217.770667 217.770667 0 0 0-29.986134 4.0448c0 22.6816 0.290133 38.570667 0.853334 48.64l0.1024 1.655467z m-17.544534-3.157334h14.165334a1075.3024 1075.3024 0 0 1-0.785067-48.4352v-1.314133l1.297067-0.238933a259.072 259.072 0 0 1 30.327466-4.3008 61.44 61.44 0 0 1 1.2288-11.144534c-11.8784 2.133333-22.186667 3.9936-30.958933 5.614934l-1.877333 0.341333v-34.525867h1.5872c7.816533 0 17.629867 0.256 30.0032 0.802134v-12.219734a577.877333 577.877333 0 0 1-30.0032 0.768H587.093333v-1.570133c0-11.502933 0.256-20.906667 0.750934-28.6208h-14.114134c0.512 8.840533 0.768 18.432 0.768 28.6208v1.5872H545.621333l1.28-2.338133c8.192-15.018667 15.479467-30.5152 21.8624-46.3872l0.4096-0.989867h27.426134c8.942933 0 16.384 0.238933 22.101333 0.7168v-12.014933c-4.4544 0.426667-11.7248 0.631467-22.101333 0.631466H571.562667l0.648533-2.048c2.730667-9.4208 6.5024-18.517333 11.264-27.101866a274.193067 274.193067 0 0 1-16.315733-5.5808 252.996267 252.996267 0 0 1-8.5504 33.621333l-0.341334 1.109333h-1.194666c-12.202667 0-21.76-0.221867-29.1328-0.733866v12.117333a380.416 380.416 0 0 1 25.6-0.7168h2.338133l-0.8192 2.116267a280.610133 280.610133 0 0 1-14.592 32.955733c-2.8672 6.263467-7.662933 11.434667-13.6704 14.762667l8.1408 15.991466a49.2032 49.2032 0 0 1 17.595733-4.608c6.7584-0.546133 13.533867-0.836267 20.3264-0.853333h1.604267v35.720533l-1.3824 0.170667c-23.808 3.208533-40.840533 4.949333-50.688 5.188267 1.877333 5.632 3.549867 11.093333 5.034667 16.264533 14.848-4.061867 29.917867-7.3728 45.124266-9.898667l1.8944-0.341333v1.8944a943.445333 943.445333 0 0 1-0.750933 44.987733z m31.965867-13.653333c5.393067 2.218667 10.496 5.12 15.1552 8.6528a205.277867 205.277867 0 0 0 24.746667-43.997867c4.932267-13.175467 8.567467-26.794667 10.888533-40.669866 2.474667-15.7696 3.925333-31.6928 4.369067-47.650134l0.034133-1.536h27.8528l-0.119467 1.672534-7.0144 110.3872c0 12.1856 5.512533 18.176 16.827734 18.176h7.901866c3.959467 0.1536 7.918933-0.4096 11.690667-1.621334 1.092267-0.426667 4.266667-3.328 10.752-20.667733a48.162133 48.162133 0 0 1-14.114133-6.144c-1.655467 13.8752-4.0448 16.366933-6.178134 16.896a18.0736 18.0736 0 0 1-8.192 0c-5.205333-1.1264-5.205333-9.216-5.205333-11.895467l4.4032-88.064c0.546133-8.192 1.365333-17.749333 2.4576-28.535466h-40.277333l0.068266-1.6384c0.1536-15.479467 1.7408-30.890667 4.778667-46.08-5.2224-0.853333-10.427733-1.792-15.616-2.798934 0 13.2608-0.341333 29.696-0.887467 49.015467l-0.034133 1.536h-1.570133c-10.274133 0-18.107733-0.238933-23.8592-0.7168v11.2128c5.802667-0.477867 13.499733-0.699733 22.9888-0.699733h1.6896l-0.119467 1.6896c-2.3552 31.010133-5.461333 52.906667-9.284267 65.024a177.7152 177.7152 0 0 1-13.738666 32.631466 109.909333 109.909333 0 0 1-20.3776 25.821867h-0.034134z m142.779733-104.635733a391.850667 391.850667 0 0 0 24.576 0.853333h18.432c-0.597333 9.216-0.887467 18.9952-0.887466 29.320533v48.298667c15.223467 13.789867 40.96 20.701867 77.2608 20.701867 28.16 0.477867 56.32-0.955733 84.258133-4.317867a143.581867 143.581867 0 0 0-7.0144 20.701867 1450.5472 1450.5472 0 0 1-59.255467 0.426666 494.865067 494.865067 0 0 1-41.693866-2.1504 114.517333 114.517333 0 0 1-27.204267-5.614933 102.9632 102.9632 0 0 1-21.504-11.2128c-7.338667-4.881067-13.312-5.0176-18.005333-0.426667-6.0416 6.1952-11.605333 12.817067-16.674134 19.848534a104.192 104.192 0 0 0-15.803733-12.9536 196.608 196.608 0 0 0 28.962133-24.132267V824.832c-8.772267 0-17.237333 0.290133-25.4464 0.853333v-15.530666z m14.045867-68.1472a76.322133 76.322133 0 0 0 18.432-5.1712c4.096 11.502933 7.901867 24.1664 11.400533 37.956266a86.3232 86.3232 0 0 0-18.432 6.024534 402.824533 402.824533 0 0 0-11.400533-38.8096z m44.765867 16.384c8.772267 0.580267 35.396267 0.8704 79.872 0.853333 4.676267-10.922667 9.0624-22.1184 13.175466-33.621333 7.594667 2.884267 14.0288 5.188267 19.3024 6.894933-6.587733 8.055467-11.912533 17.066667-15.803733 26.743467 22.818133 0 39.202133-0.290133 49.152-0.853334v15.5136c-9.949867-0.580267-32.187733-0.853333-66.696533-0.853333l-4.4032 17.237333h50.926933c-0.597333 13.789867-0.887467 31.914667-0.887467 54.3232 0 21.845333 0.290133 38.229333 0.887467 49.152h-109.738667c1.160533-12.629333 1.7408-29.013333 1.757867-49.152 0-20.1216-0.273067-38.229333-0.8704-54.3232h39.492267l4.386133-17.237333c-31.5904 0-51.780267 0.273067-60.5696 0.853333v-15.530666h0.017067z m55.296-9.489067c-4.693333 2.901333-9.3696 6.058667-14.045867 9.489067a160.426667 160.426667 0 0 0-17.5616-23.278934c4.096-2.8672 8.4992-6.0416 13.175467-9.489066 7.611733 9.216 13.755733 16.981333 18.432 23.296z m52.667733 71.594667v-16.384h-72.8576v16.384h72.874667z m0 29.320533v-16.384h-72.8576v16.384h72.874667z m0 30.208v-17.2544h-72.8576v17.237333h72.874667z m-154.299733 48.981333l-1.314134-1.314133a103.970133 103.970133 0 0 0-15.5648-12.731733l-1.9968-1.314134 1.9968-1.297066a194.679467 194.679467 0 0 0 28.2624-23.5008v-62.464c-8.0896 0.034133-16.0768 0.324267-23.7568 0.853333l-1.706666 0.136533V808.448l1.706666 0.119467c9.1136 0.5632 17.339733 0.853333 24.4736 0.853333h20.138667l-0.119467 1.672533c-0.597333 9.728-0.887467 19.456-0.853333 29.218134v47.616c14.8992 13.141333 40.3456 19.8144 75.639467 19.8144 28.074667 0.477867 56.149333-0.955733 84.036266-4.283734l2.816-0.4096-1.109333 2.56c-2.833067 6.638933-5.154133 13.482667-6.946133 20.48l-0.290134 1.143467-1.211733 0.034133c-22.647467 0.5632-42.666667 0.699733-59.3408 0.426667a519.338667 519.338667 0 0 1-41.8304-2.1504 116.992 116.992 0 0 1-27.5968-5.700267 105.0624 105.0624 0 0 1-21.845333-11.383466c-6.638933-4.420267-11.776-4.693333-15.9744-0.631467-5.973333 6.144-11.502933 12.714667-16.503467 19.677867l-1.109333 1.501866z m24.2176-27.170133c4.027733 0.221867 7.918933 1.6384 11.178666 4.0448 6.587733 4.488533 13.687467 8.192 21.162667 11.025067a113.322667 113.322667 0 0 0 26.811733 5.5296c11.076267 1.1264 25.053867 1.860267 41.557334 2.1504 16.384 0.273067 35.84 0.136533 57.975466-0.392534 1.536-5.853867 3.447467-11.605333 5.7344-17.2032-27.136 3.0208-54.442667 4.317867-81.749333 3.925334-36.522667 0-62.890667-7.099733-78.336-21.111467l-0.512-0.477867v-48.981333c0-9.847467 0.256-19.165867 0.785067-27.7504h-16.725334c-6.741333 0-14.472533-0.238933-22.9888-0.750933v12.151466c7.953067-0.512 15.906133-0.768 23.8592-0.750933h1.604267v66.901333l-0.4608 0.4608c-8.413867 8.465067-17.527467 16.1792-27.272533 23.04 4.522667 3.191467 8.8064 6.7072 12.8 10.530134 4.778667-6.536533 10.052267-12.7488 15.735466-18.551467a12.356267 12.356267 0 0 1 8.840534-3.805867v0.017067z m149.333333-6.4512h-113.152l0.170667-1.706667c1.143467-12.663467 1.7408-29.149867 1.7408-49.015466a1521.493333 1521.493333 0 0 0-0.887467-54.272l-0.0512-1.6384h39.901867l3.584-14.114134c-30.173867 0-49.8176 0.3072-58.402134 0.8704l-1.706666 0.1024V756.736l1.706666 0.119467c5.5808 0.375467 18.363733 0.631467 38.775467 0.768a166.638933 166.638933 0 0 0-16.384-21.435734l-1.160533-1.314133 1.450666-1.024c4.096-2.8672 8.465067-6.024533 13.141334-9.472l1.211733-0.904533 0.989867 1.160533c7.5776 9.216 13.789867 17.066667 18.4832 23.381333l1.024 1.3312-1.4848 0.9216c-3.771733 2.321067-7.4752 4.778667-11.093334 7.355734 9.728 0.0512 20.992 0.085333 33.757867 0.085333 4.5568-10.752 8.8064-21.6064 12.714667-32.597333l0.546133-1.536 1.536 0.597333c7.424 2.816 13.892267 5.12 19.234133 6.877867l2.474667 0.802133-1.8432 1.792a95.744 95.744 0 0 0-14.421333 24.064c21.845333-0.017067 37.0688-0.3072 46.557866-0.853333l1.706667-0.119467v18.8928l-1.706667-0.1024c-9.847467-0.5632-31.8464-0.853333-65.365333-0.8704l-3.584 14.097067h50.5344l-0.068267 1.6384c-0.580267 13.653333-0.887467 31.419733-0.887466 54.272 0 22.2208 0.3072 38.263467 0.887466 49.083733l0.068267 1.655467z m-109.6704-3.140267h106.2912a1078.1696 1078.1696 0 0 1-0.785067-47.616c0-21.981867 0.256-39.287467 0.802134-52.753066h-51.285334l5.188267-20.394667h1.245867c32.477867 0 54.357333 0.256 65.109333 0.768v-12.1856c-10.018133 0.512-25.6 0.768-47.547733 0.768h-2.5088l1.024-2.218667a123.4944 123.4944 0 0 1 14.4384-25.361066c-4.522667-1.536-9.728-3.396267-15.5136-5.5808-3.959467 10.973867-8.192 21.794133-12.663467 32.2048l-0.4096 0.955733h-1.0752c-42.4448 0-68.113067-0.238933-78.267733-0.750933v12.168533c9.608533-0.512 29.422933-0.750933 58.965333-0.750933h2.048l-5.188267 20.3776h-39.082666c0.529067 15.803733 0.802133 33.536 0.802133 52.770133 0.034133 19.0976-0.512 35.072-1.570133 47.581867v0.017066z m8.533333-156.842666c5.7344 6.485333 10.973867 13.397333 15.650134 20.701866 3.652267-2.6624 7.424-5.205333 11.264-7.611733a649.898667 649.898667 0 0 0-16.384-20.6848c-3.720533 2.696533-7.202133 5.239467-10.530134 7.5776v0.017067z m83.490134 146.193066h-76.049067V861.184h76.066133v20.394667h-0.017066z m-72.874667-3.140266h69.666133v-14.114134h-69.632v14.114134h-0.017066z m72.874667-27.050667h-76.049067v-19.524267h76.066133v19.524267h-0.017066z m-72.874667-3.140267h69.666133v-13.243733h-69.632v13.243733h-0.017066z m72.874667-26.180266h-76.049067v-19.541334h76.066133v19.541334h-0.017066z m-72.874667-3.140267h69.666133v-13.2608h-69.632v13.243733h-0.017066z m-71.185067-35.84l-0.443733-1.8944a406.186667 406.186667 0 0 0-11.3664-38.656l-0.580267-1.7408 1.8432-0.3072a74.683733 74.683733 0 0 0 18.039467-5.0688l1.604267-0.682667 0.580266 1.604267c4.386133 12.509867 8.192 25.224533 11.434667 38.075733l0.4096 1.604267-1.6384 0.341333c-6.229333 1.297067-12.288 3.2768-18.090667 5.922134l-1.792 0.802133z m-8.157866-39.816533c4.608 13.7728 8.123733 25.634133 10.410666 35.362133 4.949333-2.133333 10.103467-3.822933 15.36-5.0176a431.650133 431.650133 0 0 0-10.410666-34.645333c-4.949333 1.9456-10.103467 3.3792-15.36 4.266666v0.034134zM690.909867 542.72H338.210133c-39.748267 0-71.970133-22.920533-71.970133-51.2 0 0 61.44-331.946667 66.56-353.28 5.12-21.333333 28.040533-51.2 56.32-51.2h250.88c28.279467 0 46.933333 34.986667 51.2 51.2 4.266667 16.213333 71.68 353.28 71.68 353.28 0 28.279467-32.221867 51.2-71.970133 51.2zM332.8 465.92a40.96 40.96 0 1 0 81.92 0 40.96 40.96 0 0 0-81.92 0zM599.04 128H424.96a20.48 20.48 0 1 0 0 40.96h174.08a20.48 20.48 0 0 0 0-40.96z m46.08 97.28a25.6 25.6 0 0 0-25.6-25.6H404.48a25.6 25.6 0 0 0-25.6 25.6l-30.72 143.36c0 14.1312 14.336 25.6 32 25.6h268.8c17.681067 0 32-11.4688 32-25.6l-35.84-143.36z m0 199.68a40.96 40.96 0 1 0 0 81.92 40.96 40.96 0 0 0 0-81.92z m-209.92 153.6l-12.629333 40.96h190.293333l-18.944-40.96h66.56l71.68 107.52h-87.04l-21.162667-35.84H404.650667l-15.530667 35.84h-92.16l71.68-107.52h66.56z" fill="#FF0000" /></svg>