<?xml version="1.0" standalone="no"?><!DOCTYPE svg PUBLIC "-//W3C//DTD SVG 1.1//EN" "http://www.w3.org/Graphics/SVG/1.1/DTD/svg11.dtd"><svg class="icon" width="1000px" height="1000.00px" viewBox="0 0 1024 1024" version="1.1" xmlns="http://www.w3.org/2000/svg"><path d="M864 1024H160A160 160 0 0 1 0 864V160A160 160 0 0 1 160 0h704A160 160 0 0 1 1024 160v704A160 160 0 0 1 864 1024z m128-832a160 160 0 0 0-160-160h-640a160 160 0 0 0-160 160v640a160 160 0 0 0 160 160h640a160 160 0 0 0 160-160v-640z" fill="#FF0000" /><path d="M233.198933 780.544v113.083733c0 13.550933 0.290133 26.2144 0.8704 37.9904h-19.4048c1.3312-12.322133 1.911467-24.712533 1.774934-37.102933v-87.466667a681.352533 681.352533 0 0 1-22.0672 33.570134 44.782933 44.782933 0 0 0-12.3392-14.1312 273.8688 273.8688 0 0 0 25.6-37.9904 263.611733 263.611733 0 0 0 24.695466-58.299734c5.290667 2.935467 12.356267 6.485333 21.162667 10.581334-4.7104 4.727467-11.485867 17.988267-20.309333 39.765333z m135.850667 62.72c-11.178667 24.746667-20.5824 45.056-28.228267 60.962133 6.468267 3.5328 15.274667 8.823467 26.453334 15.906134a115.4048 115.4048 0 0 0-11.451734 16.776533c-10.001067-7.0656-23.0912-15.172267-39.253333-24.285867-16.1792-9.130667-27.4944-15.172267-33.962667-18.1248 2.9184-5.290667 5.563733-10.2912 7.918934-15.018666 7.645867 3.5328 19.4048 9.130667 35.293866 16.7936 5.888-11.776 11.4688-24.439467 16.776534-37.9904h-68.8128c3.515733-10.581333 7.338667-23.552 11.4688-38.877867h-19.421867c-8.823467 0-16.469333 0.3072-22.9376 0.887467v-15.889067c7.645867 0.597333 15.581867 0.887467 23.825067 0.887467h21.162666c2.3552-11.195733 4.113067-20.309333 5.290667-27.392h-13.226667c-10.581333 0-19.114667 0.290133-25.6 0.887466V762.88c7.0656 0.597333 15.291733 0.887467 24.712534 0.887467h16.759466a311.296 311.296 0 0 0 3.5328-35.328c6.673067 1.604267 13.448533 2.781867 20.292267 3.515733a158.2592 158.2592 0 0 0-7.953067 31.812267h37.956267c9.403733 0 18.2272-0.290133 26.453333-0.887467v15.872a375.739733 375.739733 0 0 0-27.3408-0.8704h-38.8096c-1.194667 6.485333-2.952533 15.616-5.290666 27.392h55.569066c11.758933 0 20.872533-0.3072 27.357867-0.887467v15.906134a340.650667 340.650667 0 0 0-27.357867-0.887467h-58.2144a1293.636267 1293.636267 0 0 1-6.178133 23.842133h73.216v0.017067z m-12.714667 95.982933l-1.450666-1.024c-9.966933-7.048533-23.125333-15.189333-39.099734-24.2176-16.110933-9.079467-27.477333-15.1552-33.8432-18.039466l-1.604266-0.733867 0.853333-1.536c2.730667-4.9152 5.376-9.898667 7.8848-14.9504l0.7168-1.416533 1.416533 0.682666c7.355733 3.396267 18.432 8.669867 33.877334 16.093867 5.495467-11.195733 10.5472-22.613333 15.138133-34.235733H271.530667l0.682666-2.116267c3.362133-10.069333 6.929067-22.101333 10.9056-36.744533h-17.3056c-8.704 0-16.349867 0.290133-22.784 0.8704l-1.757866 0.170666v-19.421866l1.723733 0.136533c7.441067 0.580267 15.4112 0.887467 23.7056 0.887467h19.8656c1.9968-9.5744 3.584-17.698133 4.693333-24.183467h-11.332266c-10.4448 0-18.9952 0.3072-25.429334 0.887467l-1.757866 0.170666v-19.421866l1.757866 0.136533c6.946133 0.580267 14.967467 0.887467 24.576 0.887467h15.36a300.544 300.544 0 0 0 3.328-33.7408v-2.048l1.962667 0.4608c6.621867 1.5872 13.312 2.7648 20.087467 3.498666l2.56 0.256-1.314134 2.2016c-1.092267 1.8432-3.2768 8.465067-7.3728 29.354667h35.9424c9.472 0 18.3296-0.3072 26.350934-0.887467l1.706666-0.119466v19.370666l-1.706666-0.119466a365.124267 365.124267 0 0 0-27.2384-0.887467H311.296c-1.109333 6.007467-2.6624 14.062933-4.6592 24.1664h53.6064c11.9296 0 20.821333-0.290133 27.204267-0.887467l1.7408-0.170666v19.438933l-1.723734-0.136533c-7.0656-0.597333-16.213333-0.887467-27.221333-0.887467H303.274667c-2.013867 7.970133-3.7888 14.848-5.3248 20.6336h73.608533l-1.024 2.269867a3014.058667 3014.058667 0 0 1-27.579733 59.613866c6.314667 3.5328 14.7968 8.6528 25.224533 15.2064l1.570133 1.024-1.211733 1.4336c-4.266667 5.1712-8.0384 10.7008-11.3152 16.554667l-0.904533 1.518933z m-71.492266-45.482666c6.656 3.1744 17.578667 9.045333 32.512 17.442133 15.36 8.6528 28.091733 16.503467 37.956266 23.381333 2.850133-4.9152 6.0416-9.608533 9.557334-14.08a476.945067 476.945067 0 0 0-24.814934-14.848l-1.348266-0.733866 0.682666-1.365334c7.2704-15.189333 16.401067-34.901333 27.170134-58.6752H293.717333l0.546134-2.048c1.774933-6.4512 3.822933-14.3872 6.178133-23.825066l0.3072-1.194667h59.477333c10.24 0 18.858667 0.238933 25.7536 0.733867v-12.3904c-6.314667 0.477867-14.762667 0.733867-25.7536 0.733866h-57.5488l0.4096-1.928533c2.321067-11.776 4.096-20.872533 5.2736-27.357867l0.238934-1.3312h40.157866c9.728 0 18.3808 0.256 25.7536 0.750934v-12.424534c-7.645867 0.512-15.991467 0.750933-24.866133 0.750934H309.76l0.3584-1.8944c1.706667-10.205867 4.096-20.2752 7.150933-30.1568a165.12 165.12 0 0 1-16.3328-2.8672c-0.187733 6.826667-1.365333 17.834667-3.515733 33.536l-0.170667 1.3824h-18.176c-8.874667 0-16.469333-0.221867-23.108266-0.733867v12.3904c6.314667-0.512 14.336-0.733867 23.978666-0.733867h15.1552l-0.324266 1.877334c-1.194667 7.082667-2.9696 16.3328-5.290667 27.4432l-0.290133 1.28H266.752c-7.424 0.017067-14.830933-0.238933-22.2208-0.750934v12.424534c6.144-0.512 13.312-0.750933 21.333333-0.750934h21.504l-0.5632 2.048c-3.925333 14.592-7.4752 26.6752-10.786133 36.846934h68.949333l-0.853333 2.184533a466.141867 466.141867 0 0 1-16.827733 38.126933l-0.7168 1.4336-1.416534-0.699733c-11.264-5.461333-22.528-10.820267-33.860266-16.110933-1.928533 3.805867-4.096 7.8848-6.434134 12.151466v-0.017066z m-49.066667 39.458133h-22.9376l0.221867-1.809067c1.314133-12.270933 1.911467-24.576 1.774933-36.9152v-81.834666a644.8128 644.8128 0 0 1-19.1488 28.910933l-1.536 2.1504-1.194667-2.389333a43.588267 43.588267 0 0 0-11.9296-13.585067l-1.297066-1.024 1.0752-1.28a274.176 274.176 0 0 0 25.429333-37.751467 264.192 264.192 0 0 0 24.541867-57.941333l0.580266-1.9456 1.757867 0.989867c5.2224 2.9184 12.322133 6.485333 21.060267 10.5472l2.0992 0.9728-1.6384 1.6384c-4.5056 4.5056-11.1616 17.6128-19.8144 38.912v112.759466c0 13.653333 0.3072 26.402133 0.8704 37.922134l0.085333 1.672533z m-19.3024-3.2256h15.872c-0.512-11.093333-0.785067-23.330133-0.785067-36.369067l0.1024-113.664c8.123733-20.036267 14.404267-32.7168 19.1488-38.621866a371.029333 371.029333 0 0 1-17.5616-8.7552 264.738133 264.738133 0 0 1-24.285866 56.746666 290.8672 290.8672 0 0 1-24.644267 36.949334c3.9936 3.208533 7.441067 7.031467 10.24 11.3152 5.5808-7.936 12.475733-18.500267 20.5312-31.402667l2.986667-4.778667v93.098667a331.776 331.776 0 0 1-1.604267 35.498667z m334.318933-25.770667a119.176533 119.176533 0 0 1-28.245333-31.812266c0 34.167467 0.3072 54.784 0.887467 61.8496h-18.517334c0.580267-7.68 0.8704-27.392 0.8704-59.1872a133.5808 133.5808 0 0 1-33.962666 32.682666 263.850667 263.850667 0 0 1-48.9472 25.6 32.8704 32.8704 0 0 0-15.018667-16.7936 156.296533 156.296533 0 0 0 51.626667-20.753066 97.553067 97.553067 0 0 0 28.672-26.0608h-44.117334c-8.2432 0-17.937067 0.290133-29.115733 0.8704v-15.889067c11.178667 0.597333 20.872533 0.887467 29.115733 0.887467h61.7472c0-4.7104-0.290133-10.888533-0.8704-18.568534h18.517334c-0.546133 6.178133-0.853333 12.373333-0.8704 18.568534h65.28c7.6288 0 15.872-0.3072 24.695466-0.887467v15.889067c-8.823467-0.580267-17.066667-0.853333-24.695466-0.8704h-47.650134a86.357333 86.357333 0 0 0 37.0688 29.149866c13.141333 5.905067 27.136 9.7792 41.472 11.485867-7.68 7.645867-11.776 13.824-12.356266 18.551467-25.309867-7.048533-43.844267-15.291733-55.586134-24.712534z m-88.234666-118.3744c-3.720533 4.676267-6.980267 9.693867-9.728 15.018667a158.0544 158.0544 0 0 0-36.164267-20.309333c3.549867-4.164267 6.2464-8.96 7.936-14.148267 16.4864 7.68 29.1328 14.148267 37.956267 19.438933z m-31.744 60.962134a62.976 62.976 0 0 0-12.3392-15.018667 279.313067 279.313067 0 0 0 52.923733-37.9904c1.4848 5.512533 3.549867 10.837333 6.178133 15.889067a10157.994667 10157.994667 0 0 0-46.762666 37.12z m1.774933-102.485334c2.935467-3.5328 6.178133-7.662933 9.728-12.373333 13.5168 7.68 25.275733 14.4384 35.293867 20.309333a70.980267 70.980267 0 0 0-11.4688 14.148267 174.762667 174.762667 0 0 0-33.570134-22.084267h0.017067z m71.458133 62.293334c8.635733-9.915733 14.421333-21.981867 16.759467-34.901334-8.823467 0-18.5344 0.290133-29.115733 0.8704v-15.889066c11.178667 0.597333 21.162667 0.887467 30.0032 0.8704 0.597333-10.001067 0.597333-20.036267 0-30.037334 6.621867 1.706667 13.448533 2.6112 20.292266 2.6624-1.774933 3.5328-2.952533 12.6464-3.5328 27.374934h43.229867c-0.648533 6.485333-1.245867 12.970667-1.757867 19.456l-2.6624 35.328c0.597333 5.905067 2.6624 8.840533 6.178134 8.840533h9.728a5.461333 5.461333 0 0 0 5.751466-3.5328c1.365333-5.802667 2.082133-11.7248 2.184534-17.681067a30.72 30.72 0 0 0 18.5344 7.0656c-2.3552 15.906133-5.751467 24.593067-10.1376 26.077867a68.334933 68.334933 0 0 1-18.5344 2.645333 78.199467 78.199467 0 0 1-21.162667-1.774933c-6.178133-1.467733-8.977067-6.912-8.379733-16.3328l2.628266-45.943467H537.6a87.227733 87.227733 0 0 1-14.114133 37.546667c-7.662933 11.485867-21.777067 23.415467-42.3424 35.771733a42.581333 42.581333 0 0 0-15.872-13.243733 93.508267 93.508267 0 0 0 38.741333-25.1904h0.034133z m21.162667 129.262933h-22.016l0.119467-1.7408c0.546133-7.253333 0.853333-25.480533 0.853333-54.186667a137.898667 137.898667 0 0 1-31.402667 29.149867 267.810133 267.810133 0 0 1-49.271466 25.770667l-1.655467 0.682666-0.512-1.706666a31.607467 31.607467 0 0 0-14.336-15.872l-3.242667-2.082134 3.754667-0.853333a155.562667 155.562667 0 0 0 51.080533-20.5312 105.233067 105.233067 0 0 0 26.4704-23.108267h-41.0112c-8.072533 0-17.851733 0.290133-29.0304 0.8704l-1.6896 0.1024v-19.3024l1.6896 0.085334c10.9056 0.580267 20.650667 0.887467 29.0304 0.887466h60.125867a281.412267 281.412267 0 0 0-0.853333-16.827733l-0.136534-1.723733h22.016l-0.136533 1.7408c-0.512 6.1952-0.8192 11.8272-0.8704 16.810666h63.658667c7.7312 0 16.008533-0.3072 24.576-0.887466l1.706666-0.119467v19.3536l-1.706666-0.119467c-8.192-0.546133-16.384-0.853333-24.576-0.8704h-44.3904a85.333333 85.333333 0 0 0 34.440533 26.0608 141.602133 141.602133 0 0 0 40.994133 11.3664l3.413334 0.324267-2.440534 2.4064c-7.338667 7.355733-11.349333 13.294933-11.8784 17.629867l-0.238933 1.860266-1.809067-0.512c-25.378133-7.099733-44.270933-15.530667-56.149333-25.0368a123.204267 123.204267 0 0 1-25.6-27.511466c0 31.163733 0.3072 49.5616 0.853333 56.149333l0.170667 1.7408z m-18.568533-3.2256h15.086933c-0.512-8.3456-0.750933-28.1088-0.750933-60.245333v-5.819734l2.986666 5.000534c7.338667 12.032 16.776533 22.664533 27.8528 31.3856 11.264 9.045333 29.184 17.1008 53.333334 23.9616 2.133333-5.819733 5.632-11.0592 10.1376-15.291734a149.435733 149.435733 0 0 1-38.638934-11.229866 88.064 88.064 0 0 1-37.717333-29.696l-1.877333-2.56h50.807466c7.0656 0 14.848 0.256 23.0912 0.768v-12.458667c-8.0384 0.512-15.8208 0.768-23.0912 0.768h-66.901333v-1.604267c0-4.983467 0.238933-10.683733 0.733867-16.9472h-15.0528c0.512 7.0144 0.768 12.578133 0.768 16.9472v1.604267h-63.368534c-7.9872 0-17.237333-0.273067-27.4944-0.785067v12.4928c10.530133-0.512 19.780267-0.785067 27.4944-0.785066h47.0528l-1.5872 2.474666a99.584 99.584 0 0 1-29.1328 26.555734 155.374933 155.374933 0 0 1-48.571733 20.1216c5.2224 3.413333 9.386667 8.2432 12.032 13.909333 16.503467-6.638933 32.290133-14.9504 47.104-24.814933a132.437333 132.437333 0 0 0 33.570133-32.290134l2.901334-4.096v5.051734c-0.017067 29.4912-0.256 48.827733-0.785067 57.582933h0.017067z m-76.2368-83.456l-0.9728-1.570133a60.893867 60.893867 0 0 0-12.032-14.6432l-1.792-1.5872 2.133333-1.0752a278.391467 278.391467 0 0 0 52.599467-37.751467l1.979733-1.706667 0.631467 2.56c1.450667 5.376 3.4816 10.581333 6.058666 15.530667l0.580267 1.194667-1.024 0.785066a11229.5936 11229.5936 0 0 0-46.7456 37.12l-1.416533 1.143467z m-9.130667-17.0496c3.805867 3.652267 7.168 7.765333 9.966933 12.2368 8.874667-7.1168 23.637333-18.824533 44.305067-35.157333a84.992 84.992 0 0 1-5.0176-12.561067 287.232 287.232 0 0 1-49.271467 35.498667l0.017067-0.017067z m59.255467 15.121067l-0.8192-1.450667a41.233067 41.233067 0 0 0-15.274667-12.6464l-2.9696-1.706667 3.208533-1.211733a92.279467 92.279467 0 0 0 38.144-24.712533 71.68 71.68 0 0 0 16.042667-32.221867c-8.157867 0.034133-17.271467 0.341333-27.067733 0.853333l-1.706667 0.1024v-19.3024l1.6896 0.085334a571.733333 571.733333 0 0 0 28.381867 0.8704c0.512-9.4208 0.494933-18.858667-0.068267-28.279467l-0.170667-2.235733 2.167467 0.546133c6.5024 1.672533 13.192533 2.56 19.899733 2.594133h2.6112l-1.160533 2.338134c-1.109333 2.218667-2.56 8.362667-3.293867 25.053866h43.3152l-0.187733 1.809067c-0.597333 5.905067-1.1776 12.356267-1.757867 19.4048l-2.645333 35.328c0.7168 7.099733 3.618133 7.099733 4.5568 7.099733h9.728a3.805867 3.805867 0 0 0 4.232533-2.491733c1.297067-5.632 2.013867-11.400533 2.0992-17.186133l0.221867-3.310934 2.4576 2.184534c4.9664 4.096 11.1616 6.434133 17.578667 6.656l1.723733 0.119466-0.238933 1.723734c-2.525867 16.964267-6.0928 25.6512-11.246934 27.357866-6.144 1.774933-12.526933 2.696533-18.944 2.730667a78.045867 78.045867 0 0 1-21.623466-1.792c-7.0144-1.672533-10.257067-7.765333-9.591467-18.0224l2.56-44.2368h-23.381333a89.224533 89.224533 0 0 1-14.165334 36.829867c-7.748267 11.6224-22.1696 23.842133-42.837333 36.266666l-1.467733 0.853334z m-11.6224-15.189334c4.898133 2.7136 9.216 6.365867 12.714666 10.752 19.5584-11.9296 33.1776-23.517867 40.4992-34.5088 7.389867-11.042133 12.117333-23.671467 13.824-36.864l0.187734-1.399466h29.5936l-2.730667 47.650133c-0.512 8.618667 1.774933 13.397333 7.168 14.677333 6.775467 1.518933 13.755733 2.0992 20.718933 1.723734a67.822933 67.822933 0 0 0 18.0736-2.56c2.048-0.682667 5.870933-4.608 8.8064-23.074134a33.314133 33.314133 0 0 1-15.274666-5.393066 67.9936 67.9936 0 0 1-2.0992 15.104 7.0144 7.0144 0 0 1-7.236267 4.573866h-9.728c-3.072 0-6.946133-1.774933-7.7824-10.274133l2.645333-35.6352c0.512-6.365867 1.058133-12.270933 1.5872-17.698133H536.746667l0.068266-1.672534c0-8.6528 0.955733-17.288533 2.816-25.736533a85.7088 85.7088 0 0 1-16.213333-2.1504c0.426667 9.335467 0.392533 18.705067-0.136533 28.023467l-0.068267 1.536h-1.536c-8.533333 0-18.090667-0.256-28.398933-0.785067v12.4928c10.018133-0.512 19.2512-0.785067 27.511466-0.785067h1.962667l-0.341333 1.8944a74.990933 74.990933 0 0 1-17.134934 35.669334 93.0816 93.0816 0 0 1-36.386133 24.439466z m-15.530667-28.6208l-1.536-1.416533a158.464 158.464 0 0 0-35.771733-20.053333l-1.962667-0.8704 1.399467-1.655467c3.413333-3.976533 6.007467-8.6016 7.645866-13.585067l0.5632-1.706666 1.6384 0.750933c16.776533 7.816533 29.218133 14.199467 38.0928 19.524267l1.553067 0.938666-1.109333 1.4336a88.456533 88.456533 0 0 0-9.540267 14.7456l-0.9728 1.8944z m-34.0992-23.552a167.8848 167.8848 0 0 1 33.109333 18.3808c2.286933-4.1984 4.9152-8.209067 7.816534-12.014933-8.277333-4.864-19.899733-10.786133-34.6112-17.681067a43.690667 43.690667 0 0 1-6.314667 11.349334v-0.034134z m47.274667-11.025066l-1.4848-1.297067c-10.205867-8.533333-21.333333-15.872-33.211734-21.845333l-1.774933-0.938667 1.262933-1.536c3.328-4.027733 6.536533-8.123733 9.659734-12.288l0.853333-1.160533 1.2288 0.7168c14.045867 7.970133 25.6 14.609067 35.328 20.3264l1.792 1.0752-1.467733 1.450666a70.280533 70.280533 0 0 0-11.2128 13.824l-0.989867 1.672534z m-31.453867-25.088c10.871467 5.632 21.128533 12.3904 30.6176 20.138666 2.696533-4.061867 5.802667-7.850667 9.250133-11.298133-10.7008-6.263467-21.4528-12.458667-32.256-18.568533a315.733333 315.733333 0 0 1-7.6288 9.745066z m232.157867 56.149333a56.832 56.832 0 0 0-13.226667 10.615467 340.650667 340.650667 0 0 0-21.179733-29.149867c4.215467-3.089067 8.055467-6.656 11.4688-10.5984a584.533333 584.533333 0 0 0 22.920533 29.184v-0.034133z m-4.4032 92.7744c4.317867-14.336 6.690133-29.184 7.048533-44.168533-9.728 4.437333-18.653867 10.410667-26.453333 17.664a467.1488 467.1488 0 0 0-9.728-18.551467c5.853867-2.338133 12.032-4.846933 18.517333-7.509333 6.0416-2.440533 11.9296-5.239467 17.646933-8.3968v-39.748267c0-12.9536-0.597333-26.504533-1.774933-40.635733h78.506667a92.7744 92.7744 0 0 0-5.290667-22.084267 94.378667 94.378667 0 0 0 19.421867-3.549867c2.935467 8.2944 5.0176 16.896 6.178133 25.6h43.229867c7.048533 0 14.677333-0.290133 22.920533-0.887466v16.7936a465.339733 465.339733 0 0 0-22.920533-0.887467h-123.511467c0 45.3632-0.290133 74.376533-0.887467 87.04a198.2976 198.2976 0 0 1-6.161066 39.765333 201.216 201.216 0 0 1-16.759467 42.837334 45.226667 45.226667 0 0 0-16.776533-10.581334 100.7104 100.7104 0 0 0 16.776533-32.6656v-0.034133z m148.206933-101.597867c9.728-0.0512 19.456-0.631467 29.098667-1.757866v16.776533a535.586133 535.586133 0 0 0-29.098667-0.8704h-36.181333c0 8.2432-0.290133 17.066667-0.8704 26.504533h59.989333c-0.597333 12.356267-0.904533 23.552-0.887467 33.570134v40.618666c0 9.437867-1.757867 15.7696-5.290666 19.012267a66.901333 66.901333 0 0 1-23.825067 10.154667 44.936533 44.936533 0 0 0-10.581333-21.1968c5.9392 0.256 11.8784-0.341333 17.646933-1.774934 3.515733-1.160533 5.290667-5.290667 5.290667-12.373333v-52.974933h-44.117334l-0.8704 6.178133a357.461333 357.461333 0 0 1 37.922134 36.232533c-5.888 4.113067-11.485867 8.2432-16.759467 12.356267a248.951467 248.951467 0 0 0-25.6-33.570133 92.501333 92.501333 0 0 1-9.728 20.309333c-5.444267 8.277333-11.332267 16.247467-17.646933 23.8592-5.290667-5.290667-11.605333-9.506133-18.517334-12.356267a109.909333 109.909333 0 0 0 22.050134-23.415466c5.973333-8.823467 9.6256-18.9952 10.581333-29.5936h-37.888v83.9168h-17.646933c0.580267-11.776 0.887467-29.149867 0.887466-52.1216 0-22.954667-0.290133-38.570667-0.887466-46.813867h57.344c0.580267-8.2432 0.887467-17.066667 0.887466-26.504533h-23.825066a1244.16 1244.16 0 0 0-40.584534 0.8704v-15.889067c15.291733 0.597333 28.501333 0.887467 39.697067 0.887467h79.4112v-0.034134z m-147.797333 147.592534l-1.536-1.570134a44.151467 44.151467 0 0 0-16.1792-10.24l-2.116267-0.768 1.399467-1.7408a99.84 99.84 0 0 0 16.4864-32.170666c4.027733-13.312 6.3488-27.067733 6.8608-40.96-8.635733 4.061867-16.554667 9.454933-23.517867 15.9744l-1.570133 1.809066-1.092267-2.133333c-3.089067-6.229333-6.314667-12.407467-9.6768-18.500267L631.466667 846.813867l1.706666-0.682667c5.853867-2.3552 12.032-4.846933 18.500267-7.509333 5.6832-2.304 11.246933-4.9152 16.64-7.850667V801.28l-0.3072 0.170667a55.637333 55.637333 0 0 0-12.8 10.274133l-1.399467 1.416533-1.092266-1.672533a336.605867 336.605867 0 0 0-21.077334-29.013333l-1.024-1.297067 1.3312-1.024c4.113067-3.003733 7.867733-6.485333 11.195734-10.359467l1.314133-1.570133 1.245867 1.672533c6.263467 8.584533 13.909333 18.2784 22.664533 28.8256v-6.656c0-12.731733-0.597333-26.350933-1.757867-40.516266l-0.1536-1.7408h78.472534a96.0512 96.0512 0 0 0-5.0176-19.933867l-0.699734-1.962667 2.0992-0.170666a93.610667 93.610667 0 0 0 19.063467-3.4816l1.467733-0.443734 0.512 1.450667c2.833067 7.953067 4.864 16.1792 6.058667 24.541867h41.8304c7.1168 0 14.813867-0.290133 22.8352-0.8704l1.706667-0.136534v20.224l-1.706667-0.085333a482.816 482.816 0 0 0-22.8352-0.887467h-121.9584c0 44.151467-0.3072 72.891733-0.887467 85.504-0.7168 13.533867-2.798933 26.965333-6.229333 40.072534a203.7248 203.7248 0 0 1-16.896 43.195733l-0.989867 1.911467z m-14.592-14.0288c5.051733 2.082133 9.693867 5.000533 13.7216 8.669866A195.345067 195.345067 0 0 0 684.1856 853.333333c0.597333-12.680533 0.887467-41.9328 0.887467-86.9376v-1.604266h125.115733c4.437333 0 11.434667 0.238933 21.333333 0.785066v-13.346133c-7.492267 0.512-14.660267 0.750933-21.333333 0.750933h-44.6464l-0.170667-1.3824a125.508267 125.508267 0 0 0-5.632-23.876266c-5.290667 1.450667-10.717867 2.4576-16.1792 2.986666 2.338133 6.638933 3.925333 13.5168 4.693334 20.5312l0.170666 1.7408H669.866667c1.058133 12.970667 1.604267 26.0096 1.621333 39.031467v40.704l-0.8192 0.4608a169.028267 169.028267 0 0 1-17.8176 8.482133l-16.8448 6.826667c2.474667 4.522667 5.102933 9.557333 7.850667 14.967467 7.68-6.5024 16.1792-11.997867 25.2928-16.3328l2.4576-1.28-0.119467 2.781866a168.3968 168.3968 0 0 1-7.1168 44.5952 104.3968 104.3968 0 0 1-15.701333 31.488v-0.017066z m-13.5168-143.018667c6.792533 8.482133 13.175467 17.271467 19.131733 26.350933 3.1744-3.208533 6.690133-6.075733 10.478933-8.533333a589.380267 589.380267 0 0 1-20.548266-26.112c-2.781867 3.037867-5.819733 5.802667-9.079467 8.328533v-0.017066z m167.662933 155.511467l-0.392533-1.6384a43.741867 43.741867 0 0 0-10.171734-20.48l-2.747733-2.730667h3.8912c5.768533 0.238933 11.537067-0.341333 17.134933-1.706667 2.781867-0.904533 4.1984-4.5568 4.1984-10.837333v-51.370667H773.632l-0.546133 3.8912c13.294933 11.042133 25.770667 23.005867 37.376 35.822934l1.245866 1.365333-1.501866 1.024a448.341333 448.341333 0 0 0-16.708267 12.3392l-1.365333 1.0752-0.9728-1.467733a258.013867 258.013867 0 0 0-23.6032-31.3856 94.8224 94.8224 0 0 1-8.977067 18.107733c-5.461333 8.328533-11.400533 16.349867-17.749333 24.0128l-1.1264 1.399467-1.262934-1.28a55.9104 55.9104 0 0 0-18.005333-12.032l-2.525867-1.024 2.133334-1.706667a109.226667 109.226667 0 0 0 21.742933-23.04 61.218133 61.218133 0 0 0 10.103467-27.050667h-34.525867v83.882667h-20.957867l0.1024-1.6896c0.580267-11.810133 0.887467-29.320533 0.887467-52.053333 0-22.698667-0.3072-38.4512-0.887467-46.711467l-0.119466-1.706667h57.5488c0.494933-7.338667 0.750933-15.1552 0.785066-23.296h-22.186666c-9.9328 0-23.210667 0.3072-40.533334 0.887467l-1.672533 0.068267v-19.2512l1.672533 0.068266c14.916267 0.580267 28.2624 0.8704 39.6288 0.8704h79.4112a263.1168 263.1168 0 0 0 28.928-1.757866l1.792-0.187734v20.2752l-1.706666-0.085333a534.8352 534.8352 0 0 0-29.013334-0.887467h-34.56c-0.0512 7.7824-0.324267 15.530667-0.785066 23.296h59.972266l-0.085333 1.6896a700.928 700.928 0 0 0-0.887467 33.4848v40.635734c0 9.966933-1.877333 16.5888-5.802666 20.189866-3.754667 3.447467-11.758933 6.877867-24.4736 10.513067l-1.604267 0.477867z m-5.888-21.6576c3.857067 5.290667 6.656 11.264 8.192 17.6128 7.7312-1.706667 15.069867-4.864 21.589333-9.335467 3.1744-2.901333 4.778667-8.9088 4.778667-17.800533v-40.635734c0-9.728 0.273067-20.48 0.802133-31.965866H772.266667l0.119466-1.706667c0.580267-9.437867 0.8704-18.312533 0.8704-26.402133v-1.621334h37.7856c8.2432 0 17.476267 0.273067 27.4944 0.802134v-13.312c-9.130667 1.006933-18.312533 1.536-27.4944 1.570133H731.648a999.936 999.936 0 0 1-38.0928-0.8192v12.561067a1237.794133 1237.794133 0 0 1 38.980267-0.8192h25.429333v1.604266c0 8.874667-0.290133 17.7664-0.887467 26.624l-0.119466 1.501867h-57.122134c0.512 8.704 0.768 23.893333 0.768 45.226667 0 21.7088-0.273067 38.690133-0.802133 50.517333h14.336v-83.933867h41.335467l-0.170667 1.792a64.989867 64.989867 0 0 1-10.888533 30.344534 111.530667 111.530667 0 0 1-20.309334 22.084266c5.632 2.628267 10.786133 6.144 15.3088 10.3936 5.870933-7.168 11.3664-14.609067 16.4352-22.357333 3.976533-6.229333 7.168-12.936533 9.540267-19.968l0.853333-2.56 1.860267 1.9968c9.130667 10.069333 17.408 20.8896 24.7808 32.324267 4.590933-3.515733 9.233067-6.946133 13.960533-10.274134a355.054933 355.054933 0 0 0-36.522666-34.696533l-0.733867-0.597333 1.211733-8.465067h47.104v54.613333c0 7.8336-2.133333 12.509867-6.382933 13.909334-4.778667 1.262933-9.6768 1.877333-14.592 1.792zM680.96 460.8a148.48 148.48 0 1 1 0-296.96 148.48 148.48 0 0 1 0 296.96z m0-276.48a128 128 0 1 0 0 256 128 128 0 0 0 0-256z m97.28 158.72h-66.56V409.6a5.12 5.12 0 0 1-5.12 5.12h-51.2a5.12 5.12 0 0 1-5.12-5.12v-66.56h-66.56a5.12 5.12 0 0 1-5.12-5.12v-51.2a5.12 5.12 0 0 1 5.12-5.12h66.56v-66.56a5.12 5.12 0 0 1 5.12-5.12h51.2a5.12 5.12 0 0 1 5.12 5.12v66.56h66.56a5.12 5.12 0 0 1 5.12 5.12v51.2a5.12 5.12 0 0 1-5.12 5.12z m-266.24-102.4l5.12 128s-23.671467 59.511467-51.2 61.44c0 0 66.56 38.656 66.56 117.76 0 0 4.096 78.592-102.4 97.28a703.419733 703.419733 0 0 1-199.68 5.12s-40.96-0.256-35.84-51.2c5.12-50.944 12.288-126.208 92.16-168.96 0 0 70.656-21.76 51.2-76.8 0 0-36.864-26.88-35.84-87.04 1.024-60.16 34.816-81.152 61.44-87.04 26.624-5.888 65.536-12.544 102.4 5.12 0 0 42.496 2.816 46.08 30.72 0 0 4.352 13.397333-5.12 10.24 0 0-17.408 6.997333 5.12 15.36z" fill="#FF0000" /></svg>