<?xml version="1.0" standalone="no"?><!DOCTYPE svg PUBLIC "-//W3C//DTD SVG 1.1//EN" "http://www.w3.org/Graphics/SVG/1.1/DTD/svg11.dtd"><svg class="icon" width="1000px" height="1000.00px" viewBox="0 0 1024 1024" version="1.1" xmlns="http://www.w3.org/2000/svg"><path d="M864 1024H160A160 160 0 0 1 0 864V160A160 160 0 0 1 160 0h704A160 160 0 0 1 1024 160v704A160 160 0 0 1 864 1024z m128-832a160 160 0 0 0-160-160h-640a160 160 0 0 0-160 160v640a160 160 0 0 0 160 160h640a160 160 0 0 0 160-160v-640z" fill="#FF0000" /><path d="M46.5408 769.467733c9.949867 0.631467 18.653867 0.955733 26.112 0.938667h19.592533a506.043733 506.043733 0 0 0-0.9216 32.119467v52.8896c16.145067 15.121067 43.52 22.6816 82.090667 22.6816a636.074667 636.074667 0 0 0 89.5488-4.727467 160.392533 160.392533 0 0 0-7.458133 22.664533 1487.189333 1487.189333 0 0 1-62.976 0.477867 513.2288 513.2288 0 0 1-44.305067-2.3552 118.6816 118.6816 0 0 1-28.910933-6.144 108.1344 108.1344 0 0 1-22.852267-12.288c-7.7824-5.341867-14.148267-5.495467-19.114667-0.4608-6.434133 6.792533-12.356267 14.045867-17.7152 21.725867-5.12-5.2736-10.752-10.018133-16.7936-14.165334a210.261333 210.261333 0 0 0 30.788267-26.453333v-70.8608c-9.335467 0-18.346667 0.3072-27.050667 0.938667v-16.9984l-0.034133 0.017066z m14.933333-74.615466c6.741333-1.024 13.312-2.935467 19.575467-5.666134 4.352 12.5952 8.3968 26.453333 12.1344 41.5744a90.453333 90.453333 0 0 0-19.592533 6.6048c-2.491733-11.349333-6.536533-25.514667-12.117334-42.513066z m47.5648 17.954133c9.335467 0.648533 37.614933 0.955733 84.8896 0.938667 4.949333-11.946667 9.6256-24.234667 13.994667-36.846934 8.072533 3.157333 14.916267 5.6832 20.514133 7.560534a113.681067 113.681067 0 0 0-16.810666 29.269333c24.251733 0 41.659733-0.324267 52.224-0.938667v17.015467c-10.5472-0.6144-34.184533-0.938667-70.877867-0.938667l-4.6592 18.8928h54.101333a1483.332267 1483.332267 0 0 0-0.938666 59.528534c0 23.927467 0.3072 41.8816 0.938666 53.845333H125.832533c1.2288-13.824 1.860267-31.778133 1.877334-53.845333a1649.664 1649.664 0 0 0-0.938667-59.528534h41.966933l4.6592-18.909866c-33.5872 0-55.04 0.3072-64.3584 0.938666v-16.9984z m58.760534-10.376533a214.186667 214.186667 0 0 0-14.916267 10.376533c-5.444267-9.045333-11.690667-17.578667-18.653867-25.514667 4.369067-3.140267 9.0112-6.6048 13.994667-10.376533 8.072533 10.069333 14.592 18.568533 19.575467 25.480533v0.034134z m55.978666 78.404266v-17.937066H146.346667v17.937066h77.4144z m0 32.119467v-17.954133H146.346667v17.954133h77.4144z m0 33.0752v-18.909867H146.346667v18.909867h77.4144z m-163.976533 53.623467l-1.399467-1.4336a111.240533 111.240533 0 0 0-16.554666-13.960534l-2.0992-1.4336 2.116266-1.4336c10.8032-7.594667 20.855467-16.213333 30.037334-25.719466v-68.4032c-8.430933 0.017067-16.8448 0.341333-25.2416 0.9216l-1.809067 0.136533v-20.701867l1.809067 0.119467c9.6768 0.631467 18.432 0.938667 26.0096 0.938667h21.4016l-0.119467 1.826133c-0.631467 10.666667-0.955733 21.333333-0.9216 32.017067v52.155733c15.837867 14.404267 42.871467 21.7088 80.384 21.7088 29.832533 0.512 59.665067-1.041067 89.2928-4.7104l2.986667-0.426667-1.194667 2.816c-2.986667 7.287467-5.461333 14.779733-7.355733 22.442667l-0.324267 1.262933-1.28 0.034134a1523.712 1523.712 0 0 1-63.044267 0.4608 524.731733 524.731733 0 0 1-44.458666-2.3552 121.275733 121.275733 0 0 1-29.320534-6.2464 110.5408 110.5408 0 0 1-23.227733-12.458667c-7.0144-4.829867-12.526933-5.154133-16.964267-0.682667-6.365867 6.724267-12.219733 13.9264-17.527466 21.538134l-1.194667 1.5872z m25.736533-29.764267c4.3008 0.256 8.448 1.792 11.8784 4.437333 6.980267 4.898133 14.523733 8.96 22.4768 12.0832 9.216 3.1744 18.7904 5.188267 28.501334 6.007467 11.776 1.245867 26.624 2.048 44.168533 2.372267 17.373867 0.290133 38.109867 0.1536 61.5936-0.443734 1.6384-6.4 3.669333-12.6976 6.0928-18.8416a672.7168 672.7168 0 0 1-86.8352 4.3008c-38.826667 0-66.850133-7.7824-83.234133-23.125333l-0.546134-0.512v-53.6576c0-10.786133 0.273067-20.992 0.8192-30.4128H72.669867c-7.168 0-15.377067-0.273067-24.4224-0.8192v13.312c8.192-0.546133 16.725333-0.8192 25.344-0.8192h1.706666v73.284267l-0.512 0.546133a219.4432 219.4432 0 0 1-28.928 25.2416c4.8128 3.498667 9.352533 7.338667 13.568 11.537067 5.085867-7.168 10.683733-13.960533 16.725334-20.3264a12.9536 12.9536 0 0 1 9.386666-4.1472z m158.685867-7.099733H123.972267l0.170666-1.877334c1.2288-13.858133 1.860267-31.914667 1.860267-53.691733 0-21.76-0.324267-41.745067-0.938667-59.4432l-0.068266-1.792h42.3936l3.822933-15.445333c-32.068267 0-52.923733 0.341333-62.0544 0.938666l-1.826133 0.119467v-20.701867l1.826133 0.136534c5.922133 0.4096 19.5072 0.682667 41.198933 0.8192a182.357333 182.357333 0 0 0-17.408-23.483734l-1.245866-1.4336 1.536-1.092266c4.334933-3.1232 8.994133-6.587733 13.960533-10.376534l1.297067-0.989866 1.058133 1.28c8.021333 10.069333 14.6432 18.688 19.6608 25.6l1.092267 1.4848-1.570134 0.989866c-3.976533 2.5088-7.918933 5.2224-11.793066 8.055467 10.3424 0.068267 22.306133 0.085333 35.874133 0.1024 4.846933-11.776 9.352533-23.671467 13.5168-35.703467l0.580267-1.6896 1.6384 0.648534c7.867733 3.072 14.7456 5.614933 20.4288 7.5264l2.645333 0.887466-1.979733 1.979734a105.5232 105.5232 0 0 0-15.325867 26.350933c23.210667-0.034133 39.406933-0.341333 49.476267-0.955733l1.792-0.119467v20.6848l-1.792-0.119467c-10.461867-0.597333-33.826133-0.9216-69.461334-0.938666l-3.822933 15.445333h53.7088l-0.085333 1.792a1506.065067 1506.065067 0 0 0-0.938667 59.460267c0 24.337067 0.3072 41.915733 0.938667 53.76l0.085333 1.792z m-116.5312-3.4304h112.930133a1214.5152 1214.5152 0 0 1-0.8192-52.138667c0-24.098133 0.273067-43.025067 0.853334-57.787733h-54.510934l5.495467-22.340267h1.348267c34.5088 0 57.7536 0.290133 69.188266 0.853333v-13.3632c-10.6496 0.546133-27.221333 0.836267-50.5344 0.836267h-2.645333l1.092267-2.440533a136.2944 136.2944 0 0 1 15.342933-27.767467 492.356267 492.356267 0 0 1-16.4864-6.126933 673.3824 673.3824 0 0 1-13.482667 35.293866l-0.426666 1.024h-1.109334c-45.1072 0-72.3968-0.256-83.182933-0.8192v13.329067c10.222933-0.546133 31.2832-0.8192 62.651733-0.8192h2.184534l-5.512534 22.340267H128.529067c0.580267 17.3056 0.853333 36.744533 0.853333 57.787733a658.090667 658.090667 0 0 1-1.6896 52.1728v-0.034133z m9.045333-171.810134c6.144 7.1168 11.690667 14.6944 16.64 22.664534 3.925333-2.935467 7.936-5.7344 11.9808-8.328534a672.256 672.256 0 0 0-17.442133-22.664533c-3.6864 2.833067-7.406933 5.632-11.178667 8.362667v-0.034134z m88.7296 160.136534H144.64v-22.306134h80.827733v22.340267-0.034133z m-77.4144-3.447467h74.018134v-15.4112H148.053333v15.445333-0.034133z m77.4144-29.627733H144.64v-21.384534h80.827733v21.384534z m-77.4144-3.4304h74.018134v-14.506667H148.053333v14.506667z m77.4144-28.689067H144.64v-21.384533h80.827733v21.384533z m-77.4144-3.447467h74.018134v-14.506666H148.053333v14.506666z m-75.656533-39.287466l-0.477867-2.065067a453.853867 453.853867 0 0 0-12.066133-42.359467l-0.631467-1.877333 1.962667-0.341333a77.482667 77.482667 0 0 0 19.165867-5.563734l1.706666-0.768 0.6144 1.774934c4.369067 12.663467 8.465067 26.709333 12.151467 41.728l0.443733 1.757866-1.757866 0.341334a89.770667 89.770667 0 0 0-19.217067 6.485333l-1.8944 0.887467z m-8.686933-43.605334c4.9152 15.086933 8.635733 28.091733 11.093333 38.741334 5.239467-2.338133 10.7008-4.181333 16.298667-5.512534a477.866667 477.866667 0 0 0-11.0592-37.9392 80.554667 80.554667 0 0 1-16.3328 4.744534v-0.034134z m228.1472 193.262934a79.496533 79.496533 0 0 0-7.458134-17.954134c5.444267-0.426667 10.786133-1.706667 15.837867-3.771733v-59.528533c0-5.034667-0.3072-11.639467-0.9216-19.848534h17.7152c-0.733867 8.192-1.024 16.384-0.9216 24.576v51.029334c4.369067-1.245867 9.6256-2.833067 15.837867-4.727467v-95.3856h-30.754134c0.6144-6.2976 0.9216-17.322667 0.9216-33.0752 0-16.384-0.3072-27.716267-0.9216-33.9968h71.816534c-0.631467 6.912-0.938667 18.261333-0.9216 33.9968 0 15.121067 0.3072 26.146133 0.9216 33.0752h-25.173334v34.013867c7.7824 0 15.5648-0.341333 23.313067-0.955734v17.015467c-8.0896-0.631467-15.872-0.955733-23.313067-0.955733v42.496a298.8032 298.8032 0 0 0 34.5088-12.288 75.912533 75.912533 0 0 0 0 17.015466c-41.6768 12.629333-71.850667 22.391467-90.487466 29.303467v-0.034133z m64.3584-139.810134v-38.741333h-38.229334v38.741333h38.229334z m64.375466-45.329066h68.096a252.859733 252.859733 0 0 1-17.271466 34.013866c-6.144 10.4448-12.834133 20.5312-20.053334 30.225067a134.485333 134.485333 0 0 0 54.101334 24.576 99.601067 99.601067 0 0 0-11.195734 17.015467 308.701867 308.701867 0 0 1-26.112-12.7488 189.252267 189.252267 0 0 1-27.050666-17.476267c-8.328533 6.4512-17.237333 12.151467-26.589867 16.9984-9.642667 5.051733-20.053333 10.0864-31.249067 15.121067a64.187733 64.187733 0 0 0-10.257066-16.059734c9.557333-2.389333 18.926933-5.546667 27.989333-9.454933a104.4992 104.4992 0 0 0 27.972267-16.9984c-6.229333-6.2976-15.2576-16.6912-27.050667-31.1808-3.6864 6.519467-7.7312 12.834133-12.117333 18.8928a62.805333 62.805333 0 0 0-13.994667-10.376533 108.1344 108.1344 0 0 0 20.514133-28.808534c6.656-12.458667 11.946667-25.6 15.837867-39.202133 5.8368 4.0448 12.561067 6.621867 19.592533 7.560533a89.224533 89.224533 0 0 0-11.1616 17.92z m58.760534 147.387733c0 20.155733 0.3072 34.952533 0.9216 44.407467h-17.7152v-17.954134h-53.162667v18.8928h-16.7936c0.6144-10.717867 0.9216-25.821867 0.938667-45.329066 0-20.138667-0.3072-34.645333-0.938667-43.451734h87.671467c-0.631467 8.192-0.938667 22.664533-0.9216 43.434667z m-16.7936 12.288v-40.618667h-53.162667v40.618667h53.162667z m-23.313067-105.813333c5.051733-5.632 9.437867-11.793067 13.056-18.432 4.113067-6.877867 7.850667-13.9776 11.195733-21.248H414.037333l-3.720533 6.6048c8.192 12.202667 17.92 23.313067 28.910933 33.0752z m-28.16 140.5952h-20.3264l0.119467-1.826134c0.6144-10.717867 0.938667-25.941333 0.938666-45.226666 0-18.500267-0.290133-32.392533-0.802133-41.335467-2.338133 1.092267-4.693333 2.1504-7.0656 3.2256l-1.570133 0.682667-0.682667-1.570134a61.781333 61.781333 0 0 0-8.874667-14.2848v17.322667l-1.826133-0.119467c-7.150933-0.5632-14.318933-0.853333-21.486933-0.938666v38.570666c6.007467-1.6384 16.8448-5.563733 32.221866-11.6736l2.6624-1.092266-0.341333 2.884266a74.581333 74.581333 0 0 0 0 16.622934l0.119467 1.416533-1.348267 0.392533c-41.540267 12.561067-71.953067 22.391467-90.368 29.252267l-1.792 0.682667-0.443733-1.877334a78.336 78.336 0 0 0-7.304534-17.544533l-1.2288-2.286933 2.56-0.256c4.898133-0.426667 9.728-1.501867 14.336-3.2256v-58.3168c0-4.9664-0.341333-11.4176-0.938666-19.712l-0.136534-1.860267h21.469867l-0.221867 1.928533c-0.733867 8.0896-1.041067 16.213333-0.9216 24.354134v48.725333c3.584-1.041067 7.7312-2.286933 12.458667-3.703467v-92.416h-30.976l0.187733-1.877333c0.6144-6.280533 0.938667-17.339733 0.938667-32.9216 0-16.162133-0.324267-27.562667-0.938667-33.860267l-0.170666-1.877333h75.537066l-0.170666 1.877333c-0.597333 6.826667-0.9216 17.885867-0.9216 33.8432 0 5.802667 0.034133 10.9568 0.119466 15.479467l0.768-0.699733a106.871467 106.871467 0 0 0 20.155734-28.330667 199.850667 199.850667 0 0 0 15.735466-38.877867l0.6144-2.218666 1.928534 1.245866c5.614933 3.874133 12.066133 6.365867 18.8416 7.2704l3.242666 0.341334-2.116266 2.5088a81.578667 81.578667 0 0 0-9.693867 15.104h67.874133l-0.9728 2.389333c-4.9152 11.8272-10.734933 23.278933-17.373866 34.235733a357.888 357.888 0 0 1-19.114667 29.013334 134.656 134.656 0 0 0 52.1216 23.210666l2.645333 0.597334-1.706666 2.184533a98.269867 98.269867 0 0 0-10.990934 16.708267l-0.7168 1.4336-1.467733-0.6144c-7.509333-3.157333-16.3328-7.4752-26.2656-12.834134a192.546133 192.546133 0 0 1-26.248533-16.827733c-8.123733 6.1952-16.7424 11.6736-25.8048 16.384a535.04 535.04 0 0 1-16.110934 8.0896h82.8928l-0.1536 1.860267c-0.6144 8.072533-0.938667 22.254933-0.938666 43.3152 0 20.48 0.324267 34.952533 0.938666 44.288l0.136534 1.8432h-21.248v-17.954134h-49.783467v18.8928-0.017066z m-16.6912-3.447467h13.294933v-18.8928h56.576v17.954133h14.199467a804.130133 804.130133 0 0 1-0.8192-42.666666c0-19.677867 0.256-33.3312 0.802133-41.762134H394.410667c0.546133 9.045333 0.8192 23.04 0.8192 41.745067 0 18.295467-0.256 32.9728-0.836267 43.6224z m-107.3152-22.391467c2.423467 4.5568 4.420267 9.335467 5.9392 14.267734 18.432-6.7584 47.854933-16.264533 87.5008-28.2624a82.432 82.432 0 0 1-0.170667-13.1072c-10.461867 4.437333-21.213867 8.209067-32.1536 11.3152l-2.065066 0.494933v-46.370133h1.706666c6.826667 0 14.08 0.256 21.6064 0.802133V798.72c-7.185067 0.529067-14.404267 0.802133-21.6064 0.802133h-1.706666v-37.461333h25.0368a439.586133 439.586133 0 0 1-0.785067-31.351467c0-14.677333 0.256-25.258667 0.785067-32.273066h-68.096c0.512 6.656 0.750933 17.493333 0.750933 32.273066 0 14.199467-0.256 24.746667-0.768 31.351467h30.6176v98.423467l-1.211733 0.375466c-6.229333 1.877333-11.52 3.464533-15.872 4.727467l-2.2016 0.6144v-53.2992c0-9.7792 0.238933-17.288533 0.750933-22.8352h-13.9776c0.546133 7.509333 0.802133 13.4656 0.802133 18.1248v60.654933l-1.024 0.443734c-4.437333 1.826133-9.096533 3.037867-13.858133 3.618133v-0.034133z m89.019733-75.9808c3.157333 3.925333 5.853867 8.226133 8.021334 12.765867 2.2528-1.024 4.488533-2.013867 6.690133-3.054933v-0.170667h0.392533c7.8848-3.6864 15.445333-7.406933 22.5792-11.144533 9.2672-4.8128 18.090667-10.4448 26.333867-16.827734l1.024-0.8192 1.058133 0.8192c8.430933 6.5024 17.408 12.305067 26.794667 17.322667 9.216 4.949333 17.442133 9.0112 24.541867 12.049067 2.6112-4.8128 5.614933-9.403733 8.977066-13.7216a135.253333 135.253333 0 0 1-52.155733-24.251734l-1.3312-1.0752 1.024-1.348266c7.202133-9.659733 13.858133-19.694933 19.950933-30.071467 6.0928-10.0864 11.502933-20.5824 16.162134-31.402667h-68.266667l1.2288-2.491733c2.679467-5.5808 5.870933-10.9056 9.506133-15.906133a47.786667 47.786667 0 0 1-15.36-6.161067c-3.874133 12.919467-9.028267 25.429333-15.36 37.341867a116.104533 116.104533 0 0 1-19.2 27.665066c3.925333 2.321067 7.5776 5.034667 10.922667 8.123734 3.310933-4.625067 6.894933-10.257067 10.871467-17.169067l1.1776-2.116267 1.536 1.911467c11.758933 14.404267 20.821333 24.849067 26.948266 31.061333l1.314134 1.314134-1.399467 1.211733a106.427733 106.427733 0 0 1-28.433067 17.288533 193.536 193.536 0 0 1-25.565866 8.874667h0.017066z m-26.538666-31.402666v30.549333c6.877867-0.0512 13.738667-0.341333 20.599466-0.8704l-0.273066-0.324267 2.7648-0.648533a180.104533 180.104533 0 0 0 27.716266-9.3696 104.123733 104.123733 0 0 0 26.112-15.530667 503.005867 503.005867 0 0 1-24.302933-28.040533c-3.362133 5.8368-7.031467 11.485867-10.990933 16.930133l-1.194667 1.5872-1.365333-1.416533a62.1568 62.1568 0 0 0-13.636267-10.103467l-1.024-0.546133c0.1536 6.7072 0.392533 11.9808 0.768 15.9232l0.170667 1.877333H349.525333l0.034134-0.017066z m114.722133 100.130133h-56.593067v-44.066133h56.576v44.066133z m-53.162667-3.447467h49.7664v-37.1712h-49.800533v37.1712h0.034133z m28.2112-101.717333l-1.194666-1.0752a175.957333 175.957333 0 0 1-29.201067-33.3824l-0.580267-0.904533 4.744534-8.3968h53.026133l-1.058133 2.423466c-3.3792 7.338667-7.168 14.506667-11.298134 21.435734a97.536 97.536 0 0 1-13.329066 18.756266l-1.109334 1.160534z m-26.9824-35.498667c7.68 11.281067 16.708267 21.589333 26.8288 30.737067a106.837333 106.837333 0 0 0 11.6736-16.896c4.215467-7.2192 7.5776-13.482667 10.001067-18.653867h-45.806933l-2.696534 4.829867z m-54.408533 26.368h-41.642667v-42.171733h41.642667v42.171733z m-38.229333-3.447466h34.850133v-35.2768h-34.850133v35.2768z m312.661333 84.872533a171.0592 171.0592 0 0 0 38.229333-59.528533c5.973333 4.437333 12.202667 8.533333 18.653867 12.288a416.955733 416.955733 0 0 1-43.844267 59.511466c21.128533 16.384 51.6096 26.453333 91.409067 30.242134-5.0688 6.468267-8.874667 13.824-11.195733 21.725866-39.799467-7.560533-71.509333-21.111467-95.146667-40.618666a244.565333 244.565333 0 0 1-93.269333 42.496 54.203733 54.203733 0 0 0-10.257067-20.770134c37.922133-4.420267 67.7888-15.752533 89.565867-34.013866a218.5728 218.5728 0 0 1-34.525867-56.695467 90.794667 90.794667 0 0 0 17.749333-9.437867c11.144533 25.838933 22.016 44.100267 32.597334 54.801067h0.017066z m-72.8064-97.314133c-9.3184 0-18.346667 0.324267-27.050667 0.955733V717.482667l26.112 1.8944h145.527467l30.7712-1.877334v19.831467c-10.564267-0.631467-20.821333-1.245867-30.7712-1.877333h-144.5888z m-8.3968 65.194666a58.658133 58.658133 0 0 0-17.7152-15.121066 139.605333 139.605333 0 0 0 32.170667-23.620267c7.970133-7.5776 15.3088-15.786667 21.930666-24.576 6.212267 4.420267 12.731733 9.147733 19.575467 14.165333-8.704 8.209067-27.357867 24.593067-55.9616 49.152z m97.006933-89.770666l-22.391466 6.621866a459.741867 459.741867 0 0 0-13.994667-34.952533c7.4752-2.5088 14.933333-4.7104 22.391467-6.6048 6.229333 14.4896 10.888533 26.146133 13.994666 34.952533z m47.581867 43.008c11.178667 8.4992 22.0672 16.520533 32.631467 24.081066-6.468267 4.7104-12.407467 10.0864-17.7152 16.059734-5.597867-7.560533-23.005867-21.725867-52.224-42.496 4.9664-5.051733 10.257067-9.796267 15.8208-14.1824 3.1232 2.525867 10.274133 8.0384 21.486933 16.5376z m-159.829333 147.063466l-0.392534-1.6384a53.026133 53.026133 0 0 0-9.949866-20.138666l-1.911467-2.440534 3.037867-0.341333c36.6592-4.266667 66.013867-15.189333 87.3472-32.512a220.757333 220.757333 0 0 1-33.672534-55.790933l-0.682666-1.604267 1.604266-0.682667c6.109867-2.423467 11.946667-5.5296 17.390934-9.233066l1.706666-1.245867 0.853334 1.9456c10.615467 24.576 21.060267 42.376533 31.0784 53.026133a170.308267 170.308267 0 0 0 36.642133-57.685333l0.8192-2.116267 1.792 1.365334c5.9392 4.4032 12.117333 8.482133 18.500267 12.1856l1.518933 0.887466-0.938667 1.518934a428.2368 428.2368 0 0 1-42.752 58.368c20.753067 15.428267 50.653867 25.105067 89.0368 28.740266l2.952534 0.290134-1.7408 2.440533a63.931733 63.931733 0 0 0-10.922667 21.0944l-0.341333 1.6384-1.6384-0.3072c-39.3216-7.4752-71.253333-20.974933-94.8736-40.157867a247.6032 247.6032 0 0 1-92.842667 42.052267l-1.621333 0.341333z m-5.853867-21.504c3.754667 5.256533 6.587733 11.144533 8.328533 17.373867a243.677867 243.677867 0 0 0 91.0336-41.8304l1.0752-0.8192 1.024 0.853333c22.9376 18.9952 54.1696 32.426667 92.8256 39.953067 2.1504-6.536533 5.3248-12.6976 9.3696-18.261333-38.570667-4.010667-68.608-14.199467-89.378133-30.293334l-1.4848-1.160533 1.262933-1.365333a416.034133 416.034133 0 0 0 42.7008-57.770667 195.925333 195.925333 0 0 1-15.496533-10.171733 173.226667 173.226667 0 0 1-37.819733 58.026666l-1.194667 1.2288-1.194667-1.2288c-10.410667-10.513067-21.213867-28.484267-32.187733-53.418666a94.839467 94.839467 0 0 1-14.7456 7.765333 217.224533 217.224533 0 0 0 33.570133 54.664533l1.092267 1.3312-1.348267 1.092267c-21.316267 17.937067-50.722133 29.3888-87.432533 34.030933z m20.872533-76.356266l-1.092266-1.365334a57.002667 57.002667 0 0 0-17.2032-14.6944l-2.816-1.536 2.833066-1.518933a137.813333 137.813333 0 0 0 31.7952-23.330133c7.6288-7.2704 14.677333-15.121067 21.0944-23.483734h-25.992533c-9.181867 0-18.244267 0.324267-26.9312 0.938667l-1.826133 0.136533v-22.596266l27.938133 2.013866h65.297067a458.581333 458.581333 0 0 0-13.789867-34.4064l-0.785067-1.723733 1.792-0.6144c7.424-2.5088 14.933333-4.727467 22.510934-6.656l1.399466-0.341333 0.580267 1.3312c6.178133 14.4384 10.922667 26.2144 14.0288 35.054933l0.6144 1.7408-1.757867 0.512c-6.485333 1.877333-12.288 3.584-17.408 5.12h72.925867c9.8304-0.631467 20.087467-1.245867 30.6688-1.877333l1.809067-0.136534v23.517867l-1.809067-0.085333c-10.581333-0.6144-20.8384-1.245867-30.788267-1.877334h-27.204266c6.587733 5.154133 13.243733 10.257067 19.933866 15.3088 10.752 8.174933 21.623467 16.196267 32.597334 24.064l1.962666 1.3824-1.928533 1.4336c-6.365867 4.608-12.219733 9.915733-17.442133 15.803734l-1.399467 1.5872-1.245867-1.706667c-5.461333-7.355733-22.903467-21.521067-51.848533-42.1376l-1.672533-1.1776 1.450666-1.450667c4.573867-4.642133 9.4208-9.0112 14.506667-13.1072h-81.4592c5.700267 4.078933 11.639467 8.379733 17.851733 12.936534l1.6896 1.245866-1.536 1.416534c-8.669867 8.192-26.9824 24.2688-56.0128 49.186133l-1.3312 1.092267z m-14.011733-17.527467c5.461333 3.413333 10.325333 7.68 14.455467 12.629333 26.624-22.903467 44.032-38.144 53.077333-46.523733-5.751467-4.1984-11.264-8.192-16.5376-11.946667-6.4512 8.311467-13.499733 16.145067-21.111467 23.415467a141.824 141.824 0 0 1-29.883733 22.442667z m124.16-34.269867c26.709333 19.0464 43.008 32.221867 49.664 40.072534 4.5056-4.881067 9.437867-9.3696 14.7456-13.380267a1535.300267 1535.300267 0 0 1-30.754133-22.7328 1195.690667 1195.690667 0 0 1-20.4288-15.701333 166.570667 166.570667 0 0 0-13.226667 11.758933v-0.017067z m-101.5296-17.5616h144.5888c9.472 0.6144 19.114667 1.194667 29.0816 1.774934v-16.162134l-28.996267 1.774934h-145.6128l-24.405333-1.757867v15.189333c8.430933-0.546133 16.896-0.8192 25.344-0.8192z m54.562133-50.141866c4.642133 10.4448 8.874667 21.0432 12.731734 31.7952 5.461333-1.655467 11.8272-3.5328 19.080533-5.632a622.984533 622.984533 0 0 0-12.731733-31.778134c-6.417067 1.672533-12.8 3.5328-19.080534 5.632z m189.832534 113.271466v56.695467c15.530667 15.752533 44.1344 23.620267 85.8112 23.620267 41.659733 0 72.1408-1.911467 91.409066-5.6832a63.726933 63.726933 0 0 0-6.5536 23.620266c-49.749333 0.631467-85.0432 0-105.864533-1.877333a141.346133 141.346133 0 0 1-50.8416-12.765867c-13.056-6.6048-21.76-7.560533-26.112-2.833066-6.058667 7.168-11.3664 14.916267-15.837867 23.1424a130.9696 130.9696 0 0 0-16.7936-16.042667 885.930667 885.930667 0 0 1 28.910934-24.576v-81.237333c-4.983467 0-12.7488 0.3072-23.313067 0.938666v-17.954133c9.9328 0.648533 23.313067 0.955733 40.106667 0.955733a660.8896 660.8896 0 0 0-0.9216 33.9968z m11.178666-74.632533c-6.314667 3.3792-12.014933 7.850667-16.776533 13.226667a230.570667 230.570667 0 0 0-24.251733-37.7856c4.949333-3.771733 10.24-7.560533 15.837866-11.332267l25.1904 35.8912z m148.309334-36.846933a334.455467 334.455467 0 0 1-27.511467 28.330666c-9.642667 8.840533-18.193067 17.032533-25.668267 24.576h54.101334a859.818667 859.818667 0 0 0-0.938667 40.635734v65.194666c0.6144 8.192-1.570133 13.550933-6.5536 16.042667-7.133867 3.191467-14.677333 5.4272-22.391467 6.621867a62.2592 62.2592 0 0 0-9.3184-19.831467c6.314667-0.119467 12.578133-1.0752 18.653867-2.833067 3.089067-1.245867 4.334933-7.236267 3.720533-17.954133h-41.984v38.741333h-16.725333v-38.741333h-41.045333v38.741333h-16.776534a2132.3776 2132.3776 0 0 0 0-126.600533h55.022934a104.192 104.192 0 0 0-20.514134-20.7872c4.352-3.771733 8.3968-7.8848 12.117334-12.288 8.123733 6.1952 15.906133 12.817067 23.313066 19.848533a1248.119467 1248.119467 0 0 1 23.330134-24.576h-59.6992c-12.458667 0-23.330133 0.3072-32.648534 0.938667v-17.015467c9.335467 0.648533 19.592533 0.9728 30.788267 0.955734h100.727467z m-74.615467 87.8592V752.469333h-41.045333v20.770134h41.045333z m0 37.802666v-22.6816h-41.045333v22.6816h41.045333z m58.760533-37.802666V752.469333h-41.984v20.770134h41.984z m0 37.802666v-22.6816h-41.984v22.6816h41.984z m-171.349333 92.672l-1.536-1.792a130.935467 130.935467 0 0 0-16.571733-15.837866l-1.6384-1.28 1.570133-1.365334a853.282133 853.282133 0 0 1 28.330667-24.098133v-78.677333c-4.9152 0.0512-11.9808 0.3584-21.521067 0.9216l-1.809067 0.119466v-21.640533l1.826134 0.119467c9.8304 0.631467 22.903467 0.955733 39.9872 0.955733h1.809066l-0.1024 1.792c-0.6144 12.305067-0.938667 23.722667-0.938666 33.928533v55.978667c15.2576 15.0016 43.537067 22.613333 84.104533 22.613333 41.335467 0 71.9872-1.911467 91.101867-5.649066l3.3792-0.682667-1.536 3.157333c-3.584 7.168-5.751467 14.984533-6.365867 22.971734l-0.119467 1.570133h-1.570133c-49.629867 0.7168-85.248 0-106.0352-1.877333a143.991467 143.991467 0 0 1-51.438933-12.936534c-12.168533-6.178133-20.3776-7.287467-24.1152-3.191466-5.973333 7.0656-11.2128 14.711467-15.633067 22.8352l-1.160533 2.048z m-14.404267-19.063466c4.932267 4.096 9.557333 8.516267 13.824 13.243733a132.608 132.608 0 0 1 14.916267-21.435733c4.949333-5.341867 14.097067-4.642133 28.125867 2.4576a140.253867 140.253867 0 0 0 50.2272 12.5952c20.4288 1.8432 55.466667 2.4576 104.157866 1.911466a65.365333 65.365333 0 0 1 5.137067-19.626666 563.029333 563.029333 0 0 1-88.4736 5.085866c-41.949867 0-71.236267-8.106667-87.005867-24.1152l-0.512-0.512v-57.3952c0-9.762133 0.290133-20.616533 0.836267-32.290133-15.291733 0-27.306667-0.290133-36.590933-0.8192v14.2848c9.8304-0.546133 16.930133-0.853333 21.623466-0.853333h1.706667v83.797333l-0.631467 0.529067a829.44 829.44 0 0 0-27.3408 23.1424z m171.400534-15.872l-0.375467-1.6384a61.166933 61.166933 0 0 0-9.0624-19.234134l-1.6384-2.5088 2.9184-0.170666c6.144-0.136533 12.2368-1.058133 18.141867-2.730667 1.024-0.4096 3.242667-2.679467 2.730666-14.6432h-38.656v38.741333h-20.206933v-38.741333h-37.5808v38.741333h-20.258133l0.068266-1.774933a2116.471467 2116.471467 0 0 0 0-126.498133l-0.0512-1.757867h53.486934a128.682667 128.682667 0 0 0-18.295467-17.749333l-1.570133-1.297067 1.536-1.348267c4.283733-3.703467 8.277333-7.748267 11.946666-12.0832l1.058134-1.245866 1.28 1.006933c10.154667 8.021333 17.629867 14.301867 22.2208 18.7392 6.3488-6.8608 12.782933-13.653333 19.285333-20.3776h-55.637333c-12.253867 0-23.210667 0.324267-32.529067 0.938667l-1.809067 0.119466v-20.701866l1.809067 0.136533a449.706667 449.706667 0 0 0 30.6688 0.955733h104.4992l-2.491733 2.850134a339.336533 339.336533 0 0 1-27.648 28.501333 725.162667 725.162667 0 0 0-22.647467 21.5552h51.746133l-0.085333 1.792a893.3888 893.3888 0 0 0-0.938667 40.533333v65.194667c0.6656 8.789333-1.8432 14.7456-7.458133 17.6128a90.112 90.112 0 0 1-22.8352 6.7584l-1.621333 0.341333z m-5.034667-20.3264c3.293867 5.051733 5.853867 10.5472 7.594667 16.315733a82.602667 82.602667 0 0 0 20.360533-6.144c4.334933-2.2016 6.144-6.894933 5.597867-14.3872v-65.3312c0-12.834133 0.273067-25.9072 0.853333-38.894933h-56.439467l2.901334-2.935467c7.441067-7.543467 16.110933-15.837867 25.719466-24.6272 8.738133-8.004267 17.0496-16.452267 24.8832-25.344H862.72c-10.5984 0-20.3776-0.256-29.0816-0.8192v13.312a518.980267 518.980267 0 0 1 30.941867-0.8192h63.829333l-2.935467 2.935467c-7.850667 8.072533-15.616 16.247467-23.261866 24.5248l-1.211734 1.314133-1.245866-1.262933a269.824 269.824 0 0 0-21.896534-18.705067 116.053333 116.053333 0 0 1-9.728 9.898667c7.355733 5.6832 13.8752 12.3904 19.3536 19.899733l1.6384 2.628267h-56.3712c0.597333 21.538133 0.887467 42.564267 0.887467 62.5152 0 19.968-0.290133 40.328533-0.887467 60.6208h13.346134v-38.724267h44.4416v38.741333h13.380266v-38.741333h45.294934l0.085333 1.6384c0.682667 11.810133-0.853333 18.0736-4.795733 19.6608-5.290667 1.6384-10.752 2.56-16.298667 2.730667z m21.0944-35.703467h-45.380267v-26.112h45.380267v26.112z m-41.984-3.4304h38.570667v-19.234133h-38.570667v19.234133z m-16.776533 3.4304h-44.4416v-26.112h44.4416v26.112z m-41.045334-3.4304h37.632v-19.234133h-37.614933v19.234133h-0.017067z m99.805867-34.3552h-45.380267v-24.234667h45.380267v24.234667z m-41.984-3.447467h38.570667V754.176h-38.570667v17.339733z m-16.776533 3.447467h-44.4416v-24.234667h44.4416v24.234667z m-41.045334-3.447467h37.632V754.176h-37.614933v17.339733h-0.017067z m-51.575466-32.938666l-1.109334-2.389334a228.317867 228.317867 0 0 0-24.064-37.4784l-1.041066-1.365333 1.365333-1.058133c5.205333-3.9424 10.530133-7.748267 15.940267-11.383467l1.3824-0.938667 0.9728 1.365334c10.5472 15.121067 18.944 27.0848 25.156266 35.8912l1.143467 1.5872-1.706667 0.938666a59.221333 59.221333 0 0 0-16.315733 12.834134l-1.706667 1.9968z m-21.418667-40.567467c8.379733 10.820267 15.837867 22.3232 22.289067 34.4064 4.096-4.215467 8.772267-7.8336 13.858133-10.752-5.922133-8.362667-13.6192-19.370667-23.125333-32.9728-4.4032 3.0208-8.738133 6.109867-13.021867 9.3184zM721.92 346.453333v-10.24l-40.96-40.96s16.384-107.264-71.68-107.52c-88.064-0.256-215.04 0-215.04 0s-51.2 14.592-51.2 107.52a96.836267 96.836267 0 0 0-32.6144 51.2h-105.472C207.684267 178.824533 344.354133 44.356267 512 44.356267c167.662933 0 304.3328 134.468267 307.080533 302.097066H721.92z m-30.72 87.04h-358.4a5.12 5.12 0 0 1 0-10.24h358.4a5.12 5.12 0 0 1 0 10.24z m5.12-81.92a25.6 25.6 0 1 1-51.2 0 25.6 25.6 0 0 1 51.2 0z m-25.6-43.52a4.608 4.608 0 0 1-5.12 2.56l-76.8 5.12a5.12 5.12 0 0 1 0-10.24H665.6a4.608 4.608 0 0 1 5.12 2.56z m-20.48-43.52v20.48h-128v-71.68h76.8a51.2 51.2 0 0 1 51.2 51.2z m-81.92 71.68v51.2a30.72 30.72 0 0 1-30.72 30.72h-51.2a30.72 30.72 0 0 1-30.72-30.72v-51.2a30.72 30.72 0 0 1 30.72-30.72h51.2a30.72 30.72 0 0 1 30.72 30.72z m-138.24-122.88h76.8v71.68h-128v-20.48a51.2 51.2 0 0 1 51.2-51.2z m-51.2 138.24a25.6 25.6 0 1 1-51.2 0 25.6 25.6 0 0 1 51.2 0zM358.4 305.493333h76.8a5.12 5.12 0 0 1 0 10.24l-76.8-5.12a8.823467 8.823467 0 0 1-5.12-2.56 4.608 4.608 0 0 1 5.12-2.56z m-51.2 66.56c0 50.944 5.12 61.44 5.12 61.44s15.36 4.352 15.36 30.72V494.933333s1.024 19.712 25.6 20.48a30.208 30.208 0 0 0 30.72-20.48v-40.96H409.6l15.36 5.12h179.2l10.24-5.12h30.72v46.08s12.288 20.48 25.6 20.48 30.72-20.48 30.72-20.48v-46.08s6.144-19.2 20.48-25.6v-66.56h97.024C813.533867 527.428267 677.700267 658.8928 512 658.8928c-165.717333 0-301.533867-131.464533-306.944-297.079467h102.656c-0.341333 3.413333-0.512 6.826667-0.512 10.24z" fill="#FF0000" /></svg>