<?xml version="1.0" standalone="no"?><!DOCTYPE svg PUBLIC "-//W3C//DTD SVG 1.1//EN" "http://www.w3.org/Graphics/SVG/1.1/DTD/svg11.dtd"><svg class="icon" width="1000px" height="1000.00px" viewBox="0 0 1024 1024" version="1.1" xmlns="http://www.w3.org/2000/svg"><path d="M0 1024V0h1024v1024H0zM992 32H32v960h960V32z" fill="#0000FF" /><path d="M911.274667 453.819733l-14.848 3.976534-2.423467-9.028267-73.1648-57.258667-71.236267 54.510934-2.645333 9.728-14.865067-3.925334 50.551467-186.2656a819.712 819.712 0 0 1-67.191467 18.944 491.2128 491.2128 0 0 1-60.091733 9.557334v2.901333h-35.84v20.48h51.2v0.341333l75.383467 314.368-19.9168 4.778667-2.184534-9.096533-116.565333-94.890667-118.4768 96.768-1.1264-1.3824-1.604267 6.519467-20.309333-4.7616 76.8-311.808V317.44h56.32v-20.087467l-5.1712 0.034134-0.2048-0.324267c-4.846933 1.9968-79.991467 32.6656-141.789867 44.6464a1501.866667 1501.866667 0 0 1-83.234133 13.312V373.76h-51.2v25.6h71.68l105.608533 437.162667-24.8832 6.007466-1.6896-6.997333-163.396266-139.52-166.485334 143.428267-1.245866 5.358933-24.388267-6.058667 102.4-434.5856V399.36h76.8v-25.6h-51.2v-25.6h51.2v-30.72h-40.96v-25.6h40.96v-51.2h25.6v51.2s168.994133-0.802133 250.88-45.192533V240.64h30.72V204.8h20.48v35.84h15.8208c55.432533-4.608 119.9616-20.992 158.2592-31.880533V204.8h13.653333c4.778667-1.416533 8.789333-2.645333 11.946667-3.618133V184.32h15.36V204.8h10.24v15.36h-10.24v10.24h15.36v15.36h-15.36v15.36h30.72v15.36h-1.536l47.530667 177.339733z m-254.5664-106.6496l-40.8064 34.133334 61.098666 50.517333-20.309333-84.650667z m59.426133 247.808l-30.2592-126.1568-62.242133 50.858667 92.501333 75.298133z m-220.842667 3.191467l96-78.4384-63.863466-51.985067-32.136534 130.423467z m112.1792-91.648l68.3008-55.808-71.850666-59.392-68.061867 56.8832 71.611733 58.3168zM537.6 426.530133l54.1696-45.277866-35.7376-29.559467-18.432 74.837333z m25.856-88.610133l40.277333 33.28 39.850667-33.28h-80.128z m326.144 94.395733L868.864 354.816l-39.594667 30.276267 60.330667 47.223466z m-135.6288-2.423466l58.606933-44.834134-38.2976-29.969066-20.309333 74.8032z m23.210667-85.538134l43.810133 34.286934 45.0048-34.423467-2.013867-7.492267-0.170666 0.238934-40.772267-32.375467-44.6464 35.328-1.194667 4.437333z m37.614933-46.318933l-20.599467-16.349867-11.264 41.5744 31.863467-25.224533z m4.4032-45.226667c-4.846933 1.826133-13.0048 4.778667-23.313067 8.311467H819.2v-8.2944zM371.677867 436.189867l-55.466667 49.0496 85.230933 74.120533-29.764266-123.170133z m88.32 365.585066l-47.889067-198.229333-91.716267 79.018667 139.605334 119.210666z m-313.736534 3.754667l142.7456-122.965333-94.72-80.861867L146.261333 805.546667z m158.378667-136.413867l96.341333-83.012266-100.266666-87.176534-95.982934 84.872534 99.908267 85.316266z m-99.549867-113.152l79.940267-70.690133-52.514133-45.6704-27.426134 116.360533z m41.813334-130.986666l53.6064 46.592 52.736-46.592h-106.325334zM599.04 261.12h-20.48a704.136533 704.136533 0 0 1-128 35.84 1551.530667 1551.530667 0 0 1-87.04 11.1616v9.3184h-46.08v30.72h1.450667l-0.238934-7.543467s155.767467-5.461333 239.428267-47.377066V276.48h40.96v-15.36zM819.2 220.16h-13.994667c-28.9792 11.776-58.897067 20.992-89.463466 27.5968-23.313067 4.437333-46.916267 7.236267-70.621867 8.3968v4.9664h-25.6v15.36h35.84v1.706667a1066.0864 1066.0864 0 0 0 146.8416-32.426667H783.36v-15.36H819.2v-10.24z m-15.086933 56.32l18.944 15.018667 18.9952-15.018667h-37.9392z m45.6192 6.997333l-18.432 14.592 28.3648 22.528-9.9328-37.12z" fill="#0000FF" /></svg>