<?xml version="1.0" standalone="no"?><!DOCTYPE svg PUBLIC "-//W3C//DTD SVG 1.1//EN" "http://www.w3.org/Graphics/SVG/1.1/DTD/svg11.dtd"><svg class="icon" width="1000px" height="983.67px" viewBox="0 0 1041 1024" version="1.1" xmlns="http://www.w3.org/2000/svg"><path d="M872.533333 1024H168.533333A160 160 0 0 1 8.533333 864V160A160 160 0 0 1 168.533333 0h704A160 160 0 0 1 1032.533333 160v704A160 160 0 0 1 872.533333 1024z m128-832a160 160 0 0 0-160-160h-640a160 160 0 0 0-160 160v640a160 160 0 0 0 160 160h640a160 160 0 0 0 160-160v-640z" fill="#FF0000" /><path d="M130.5088 880.2816a218.043733 218.043733 0 0 0 28.16-10.5984c-0.597333 6.485333-0.887467 12.373333-0.887467 17.664-9.984 3.549867-21.282133 7.3728-33.8944 11.485867-11.0592 3.498667-21.8112 7.936-32.136533 13.277866a75.810133 75.810133 0 0 0-8.789333-18.568533c8.8064-2.3552 18.773333-5.290667 29.934933-8.840533V806.912c-11.1616 0-20.258133 0.290133-27.306667 0.887467v-16.7936c7.048533 0.597333 16.145067 0.887467 27.306667 0.887466v-28.296533c0-10.001067-0.3072-20.0192-0.887467-30.037333H131.413333c-0.597333 7.662933-0.887467 17.681067-0.887466 30.037333V791.893333c10.581333 0 19.0976-0.3072 25.531733-0.887466v16.7936a297.4208 297.4208 0 0 0-25.531733-0.887467v73.3696h-0.017067z m15.837867-64.512a142.148267 142.148267 0 0 0 23.773866-7.082667v-20.309333c0-10.615467-0.290133-22.698667-0.8704-36.2496h17.595734a729.7536 729.7536 0 0 0-0.887467 35.362133v15.906134l26.4192-9.728v-35.362134c0-10.001067-0.290133-20.0192-0.887467-30.037333h18.500267a393.4208 393.4208 0 0 0-0.887467 30.9248v29.184c8.8064-2.3552 24.064-7.355733 45.7728-15.018667a396.9536 396.9536 0 0 0-0.8704 30.9248v34.474667c0.580267 15.325867-2.218667 25.053867-8.362666 29.184a73.898667 73.898667 0 0 1-23.330134 9.728 98.082133 98.082133 0 0 0-7.936-18.551467c6.877867-0.170667 13.653333-1.826133 19.8144-4.864 2.645333-2.048 3.669333-8.686933 3.072-19.899733V796.330667c-9.984 2.952533-19.370667 5.888-28.16 8.840533v59.221333c0 10.5984 0.290133 19.456 0.887467 26.5216h-18.4832c0.580267-10.615467 0.853333-19.456 0.8704-26.5216v-53.930666l-26.402133 9.728v73.3696c0 11.776 4.096 17.681067 12.322133 17.681066h56.32a11.264 11.264 0 0 0 11.451733-5.751466c2.474667-6.417067 4.266667-13.090133 5.290667-19.899734 5.751467 4.096 12.373333 6.826667 19.3536 7.970134a66.133333 66.133333 0 0 1-11.434667 26.077866 25.309867 25.309867 0 0 1-19.370666 6.656h-69.5296c-12.919467 0-19.677867-7.970133-20.258134-23.876266v-76.919467a69.597867 69.597867 0 0 0-15.837866 7.0656 158.549333 158.549333 0 0 0-7.936-16.7936v0.017067z m113.578666 112.093867h-69.546666c-13.8752 0-21.248-8.567467-21.845334-25.429334V827.733333c-4.676267 1.536-9.1648 3.584-13.346133 6.144l-1.6384 1.092267-0.750933-1.809067a161.399467 161.399467 0 0 0-7.850667-16.605866l-1.109333-1.9968 2.235733-0.392534a138.973867 138.973867 0 0 0 22.459733-6.6048v-19.217066c0-10.410667-0.3072-22.562133-0.887466-36.181334l-0.085334-1.672533h20.992l-0.068266 1.706667a734.429867 734.429867 0 0 0-0.887467 35.2768v13.585066l23.176533-8.533333v-34.218667c0-9.847467-0.290133-19.9168-0.887466-29.952l-0.1024-1.706666h21.947733l-0.136533 1.7408c-0.597333 6.9632-0.887467 17.032533-0.887467 30.805333v27.050667c9.0112-2.56 23.6544-7.389867 43.639467-14.4384l2.338133-0.8192-0.2048 2.491733c-0.580267 6.946133-0.8704 17.032533-0.8704 30.788267v34.474666c0.6144 16.008533-2.372267 26.026667-9.079467 30.498134-7.3216 4.6592-15.36 8.021333-23.825066 9.949866l-1.501867 0.375467-0.443733-1.4848a97.723733 97.723733 0 0 0-7.7824-18.244267l-1.160534-2.0992 2.389334-0.273066c12.714667-1.416533 17.3568-3.242667 18.9952-4.539734 1.2288-0.938667 3.191467-4.608 2.474666-18.517333v-35.925333c-8.618667 2.56-16.9984 5.205333-24.968533 7.850666v58.026667c0 10.752 0.3072 19.421867 0.887467 26.385067l0.136533 1.757866h-21.930667l0.1024-1.706666c0.580267-10.615467 0.8704-19.5072 0.8704-26.4192v-51.592534l-23.210666 8.533334v72.226133c0 16.059733 8.072533 16.059733 10.734933 16.059733h56.32a9.728 9.728 0 0 0 9.984-4.8128c2.4064-6.2976 4.1472-12.834133 5.154133-19.5072l0.477867-2.4576 2.048 1.4336c5.563733 3.959467 11.946667 6.587733 18.705067 7.68l1.757866 0.290134-0.477866 1.7408c-3.618133 13.312-7.4752 22.0672-11.810134 26.743466a26.965333 26.965333 0 0 1-20.5312 7.150934z m-88.200533-104.618667v79.138133c0.5632 14.933333 6.656 22.254933 18.653867 22.254934h69.546666c6.656 0.580267 13.243733-1.655467 18.193067-6.144 5.1712-7.0656 8.789333-15.138133 10.581333-23.722667a48.093867 48.093867 0 0 1-16.213333-6.5024c-1.006933 6.109867-2.645333 12.117333-4.949333 17.8688a12.765867 12.765867 0 0 1-12.9024 6.656h-56.32c-6.3488 0-13.9264-3.345067-13.9264-19.285333v-74.496l1.058133-0.375467 28.5696-10.530133v56.234666c0 6.690133-0.256 14.848-0.785067 24.917334h15.035734c-0.512-6.741333-0.733867-14.933333-0.733867-24.917334v-60.416l1.092267-0.3584c8.96-2.986667 18.466133-5.973333 28.228266-8.8576l2.048-0.6144v40.174934c0.631467 11.946667-0.546133 18.705067-3.703466 21.162666-5.632 2.986667-11.8784 4.676267-18.261334 4.9152 2.577067 4.898133 4.744533 10.018133 6.485334 15.291734a71.168 71.168 0 0 0 21.333333-9.130667c5.632-3.754667 8.192-13.1072 7.68-27.767467v-34.525866c0-12.288 0.221867-21.7088 0.699733-28.586667-20.4288 7.168-35.072 11.963733-43.588266 14.2336l-2.013867 0.512v-31.266133c0-12.731733 0.256-22.357333 0.750933-29.320534h-15.086933c0.512 9.5232 0.785067 19.0976 0.785067 28.433067v36.488533l-1.058134 0.392534-28.552533 10.513066V787.456c0-10.8544 0.256-22.186667 0.802133-33.757867h-14.250666c0.512 12.970667 0.802133 24.6272 0.802133 34.645334v21.435733l-1.024 0.4096a158.976 158.976 0 0 1-21.8624 6.724267c1.8944 3.584 3.976533 7.9872 6.212267 13.243733a79.018667 79.018667 0 0 1 14.574933-6.229333l2.0992-0.682667z m150.869333 115.9168c19.114667-31.232 29.149867-72.7552 30.3104-124.9792v-17.732267h69.717334c-1.160533 5.597867-2.321067 11.195733-3.720534 17.032534H370.858667v81.6128h21.213866v-61.098667h86.9888v60.859733h21.213867v-81.373866h-58.999467c1.399467-5.597867 2.56-11.195733 3.976534-17.032534h74.8544v-20.514133h-71.355734c0.682667-5.12 1.399467-10.257067 1.860267-15.616l-22.152533-2.798933c-0.699733 6.058667-1.399467 12.117333-2.338134 18.414933h-73.216v-17.2544c57.838933-0.938667 110.301867-5.597867 156.945067-13.533867L498.858667 725.333333c-48.964267 9.096533-104.704 13.994667-167.185067 14.677334v74.171733c-1.399467 46.165333-9.557333 82.551467-24.490667 108.663467l15.394134 16.315733z m35.908267 1.6384c30.088533-8.3968 52.462933-20.053333 66.9184-34.747733 14.455467-14.455467 22.869333-35.669333 25.6512-63.197867l-21.4528-1.399467c-2.56 22.152533-10.24 39.185067-23.074133 51.3024-12.834133 11.895467-32.887467 20.992-59.938134 27.528534l11.895467 20.514133z m149.7088-0.4608l12.117333-19.114667a357.137067 357.137067 0 0 0-69.717333-33.365333l-11.195733 16.554667c23.552 8.874667 46.421333 20.770133 68.778666 35.925333zM90.794667 914.432l-0.5632-1.8944a75.178667 75.178667 0 0 0-8.618667-18.141867l-1.1776-1.877333 2.116267-0.5632a678.741333 678.741333 0 0 0 28.740266-8.465067v-74.939733c-10.274133 0-18.858667 0.3072-25.565866 0.853333l-1.723734 0.1536v-20.309333l1.7408 0.1536c6.6048 0.5632 14.967467 0.853333 25.5488 0.853333v-26.641066c0-9.847467-0.290133-19.9168-0.8704-29.952l-0.119466-1.706667h22.8352l-0.1536 1.723733a402.551467 402.551467 0 0 0-0.8704 29.934934v26.658133c9.949867 0 17.749333-0.3072 23.773866-0.8704l1.757867-0.170667v20.343467l-1.757867-0.170667a281.770667 281.770667 0 0 0-23.773866-0.853333v69.563733a224.136533 224.136533 0 0 0 25.9072-9.915733l2.5088-1.1264-0.238934 2.730667c-0.5632 5.8368-0.853333 11.690667-0.887466 17.544533v1.143467l-1.0752 0.392533c-10.069333 3.584-21.504 7.441067-33.911467 11.502933-10.990933 3.464533-21.6576 7.850667-31.8976 13.141334l-1.706667 0.904533z m-5.307734-19.9168c2.952533 4.8128 5.376 9.915733 7.236267 15.240533 9.8816-4.949333 20.138667-9.1136 30.685867-12.458666 11.9808-3.925333 22.9888-7.68 32.785066-11.1104 0.034133-4.334933 0.256-9.0112 0.648534-13.960534-8.413867 3.754667-17.066667 6.9632-25.890134 9.5744l-2.048 0.597334v-77.090134h1.604267c9.5744 0 17.6128 0.238933 23.927467 0.750934v-13.277867a316.074667 316.074667 0 0 1-23.927467 0.7168h-1.604267v-29.883733c0-11.7248 0.238933-21.0432 0.750934-28.450134h-15.940267c0.512 9.540267 0.802133 19.114667 0.802133 28.450134v29.883733h-1.621333c-10.496 0-18.944-0.238933-25.685333-0.733867v13.312c6.877867-0.494933 15.496533-0.750933 25.685333-0.750933h1.621333v80.571733l-1.109333 0.375467c-9.250133 2.935467-18.568533 5.6832-27.921067 8.260267v-0.017067z m587.776 12.7488a120.098133 120.098133 0 0 1-36.5568-49.066667 138.837333 138.837333 0 0 1-13.2096 26.5216 98.0992 98.0992 0 0 1-18.039466 21.213867c-6.843733 5.973333-14.216533 11.281067-22.016 15.906133-9.216 5.358933-18.773333 10.069333-28.603734 14.148267a43.690667 43.690667 0 0 0-15.854933-15.018667 138.683733 138.683733 0 0 0 41.813333-18.1248 89.531733 89.531733 0 0 0 27.733334-27.8528 109.6192 109.6192 0 0 0 13.653333-35.7888 157.866667 157.866667 0 0 0 2.2016-42.871466c7.048533 0.597333 14.677333 1.194667 22.869333 1.774933a70.8608 70.8608 0 0 0-2.184533 30.037333c2.218667 11.537067 6.4 22.596267 12.322133 32.7168 7.236267 12.970667 16.964267 24.3712 28.6208 33.5872 14.592 11.093333 31.402667 18.944 49.288534 22.971734a47.274667 47.274667 0 0 0-13.2096 18.568533 146.346667 146.346667 0 0 1-48.8448-28.7232z m54.1184-116.224c0 3.5328 0.290133 10.018133 0.887467 19.456h-19.370667v-28.279467h-145.2544v30.037334h-19.370666c0.580267-10.001067 0.887467-17.373867 0.887466-22.084267 0-4.727467-0.290133-12.680533-0.887466-23.876267h183.978666a646.7072 646.7072 0 0 0-0.8704 24.712534v0.034133z m-155.818666 82.193067c-5.290667-2.730667-10.922667-4.795733-16.725334-6.178134 3.515733-7.662933 6.894933-15.172267 10.120534-22.528 3.925333-9.591467 7.031467-19.490133 9.250133-29.610666 5.905067 2.7648 12.117333 4.846933 18.4832 6.178133-3.515733 8.823467-10.564267 26.197333-21.128533 52.1216v0.034133z m44.032-138.752a82.432 82.432 0 0 0 17.578666-7.9872c6.144 9.847467 11.434667 20.189867 15.837867 30.9248-7.031467 2.372267-13.192533 4.727467-18.4832 7.0656a103.168 103.168 0 0 0-14.9504-30.037334l0.017067 0.034134z m74.837333 138.752a52.565333 52.565333 0 0 0-14.984533-7.953067 156.7744 156.7744 0 0 0 21.128533-47.735467c5.239467 3.874133 11.246933 6.570667 17.6128 7.970134-6.724267 16.469333-14.677333 32.426667-23.773867 47.701333v0.034133z m-136.277333 64.8192l-0.699734-1.262934a42.564267 42.564267 0 0 0-15.291733-14.4384l-3.208533-1.9968 3.652266-0.938666a137.7792 137.7792 0 0 0 41.335467-17.92 88.456533 88.456533 0 0 0 27.2384-27.323734c6.5024-10.888533 11.0592-22.8352 13.448533-35.2768 2.628267-13.994667 3.362133-28.2624 2.167467-42.427733l-0.136533-1.8944 1.877333 0.1536c7.031467 0.597333 14.6432 1.194667 22.869333 1.774933l1.962667 0.136534-0.512 1.877333a69.461333 69.461333 0 0 0-2.167467 29.3888c2.218667 11.332267 6.314667 22.2208 12.151467 32.187733 7.150933 12.765867 16.725333 24.0128 28.194133 33.092267a127.0784 127.0784 0 0 0 48.708267 22.698667l2.901333 0.733866-2.218666 2.013867a45.909333 45.909333 0 0 0-12.8 17.92l-0.512 1.450667-1.467734-0.4608a148.650667 148.650667 0 0 1-49.408-29.013334 123.8528 123.8528 0 0 1-35.498666-45.960533c-3.242667 8.021333-7.2192 15.752533-11.8784 23.04-5.051733 8.021333-11.229867 15.291733-18.346667 21.572267-6.894933 6.024533-14.336 11.400533-22.237867 16.0768a240.64 240.64 0 0 1-28.808533 14.2336l-1.3312 0.5632z m82.5344-84.3776l1.536 3.959466a118.784 118.784 0 0 0 36.0448 48.384 148.002133 148.002133 0 0 0 46.882133 27.972267c2.56-5.922133 6.280533-11.264 10.9568-15.735467a127.7952 127.7952 0 0 1-47.104-22.528 115.421867 115.421867 0 0 1-29.013333-34.065066 105.642667 105.642667 0 0 1-12.509867-33.2288 71.953067 71.953067 0 0 1 1.7408-28.842667 1380.471467 1380.471467 0 0 1-19.0976-1.467733c1.024 13.858133 0.238933 27.784533-2.372267 41.4208a111.2576 111.2576 0 0 1-13.824 36.317866 91.272533 91.272533 0 0 1-28.2112 28.330667A138.752 138.752 0 0 1 542.890667 921.6c5.0176 3.242667 9.301333 7.441067 12.629333 12.3904 9.3184-3.908267 18.3808-8.413867 27.136-13.482667a150.084267 150.084267 0 0 0 21.76-15.752533 97.757867 97.757867 0 0 0 17.749333-20.855467c5.2736-8.260267 9.642667-17.0496 13.056-26.2144l1.450667-4.010666z m54.2208 21.947733l-1.4336-1.092267a51.165867 51.165867 0 0 0-14.506667-7.714133l-1.9968-0.6656 1.1264-1.7408a155.886933 155.886933 0 0 0 20.9408-47.240533l0.5632-2.286934 1.911467 1.348267c5.0688 3.720533 10.8544 6.3488 16.9984 7.68l1.8432 0.3584-0.648534 1.774933c-6.7584 16.571733-14.728533 32.597333-23.893333 47.9744l-0.904533 1.604267z m-13.0048-11.178667c4.266667 1.6384 8.2944 3.7888 12.014933 6.434134 8.362667-14.216533 15.752533-28.9792 22.101333-44.202667a47.8208 47.8208 0 0 1-14.4384-6.485333 159.146667 159.146667 0 0 1-19.694933 44.2368l0.017067 0.017066z m-105.489067 11.025067l-1.536-0.768a71.68 71.68 0 0 0-16.349867-6.058667l-1.962666-0.443733 0.836266-1.826133c3.515733-7.6288 6.894933-15.138133 10.120534-22.528 3.874133-9.506133 6.929067-19.319467 9.147733-29.354667l0.4608-1.962667 1.826133 0.9216c5.802667 2.7136 11.861333 4.727467 18.1248 6.0416l1.826134 0.426667-0.682667 1.757867c-3.5328 8.840533-10.581333 26.2144-21.128533 52.155733l-0.682667 1.6384z m-15.291733-9.5232c4.693333 1.262933 9.250133 2.9696 13.6192 5.085867 9.557333-23.432533 16.145067-39.697067 19.780266-48.810667a86.340267 86.340267 0 0 1-15.189333-5.000533 176.128 176.128 0 0 1-8.874667 27.938133c-3.003733 6.792533-6.109867 13.704533-9.335466 20.753067v0.034133z m8.1408-52.087467H542.549333l0.119467-1.706666a434.858667 434.858667 0 0 0 0.853333-22.016c0-4.642133-0.290133-12.373333-0.853333-23.773867l-0.1024-1.6896h86.340267a101.632 101.632 0 0 0-14.6432-29.269333l-1.297067-1.774934 2.0992-0.699733a81.493333 81.493333 0 0 0 17.2544-7.799467l1.3312-0.836266 0.853333 1.314133c6.178133 9.949867 11.537067 20.3776 16.008534 31.197867l0.682666 1.621333-1.655466 0.546133c-5.154133 1.706667-10.24 3.618133-15.274667 5.700267h95.675733l-0.085333 1.6896a664.029867 664.029867 0 0 0-0.8704 24.661333c0 3.584 0.324267 10.2912 0.887467 19.336534l0.1024 1.723733h-22.698667v-28.279467H565.248v30.0544z m-19.285334-3.208533h16.0768v-30.0544h148.48v28.279467h16.042667c-0.512-8.2432-0.750933-14.3872-0.750933-17.834667 0-4.096 0.256-12.049067 0.785066-23.1424H545.962667c0.512 10.530133 0.802133 17.8176 0.802133 22.254933s-0.256 11.127467-0.802133 20.462934l0.017066 0.034133z m72.192-75.349333c5.7344 8.311467 10.24 17.425067 13.397334 27.0336 5.034667-2.1504 10.1376-4.096 15.3088-5.8368a210.432 210.432 0 0 0-14.165334-27.784534 83.541333 83.541333 0 0 1-14.574933 6.5536l0.034133 0.034134z m234.257067 47.786666c0-2.3552-0.290133-7.355733-0.8704-15.018666h20.206933c-0.597333 6.485333-0.887467 11.485867-0.887466 15.018666h22.903466c14.677333 0 26.999467-0.290133 36.983467-0.887466v15.906133c-9.403733-0.580267-22.016-0.8704-37.870933-0.8704h-22.016v14.1312h32.597333c5.853867 0 13.7728-0.290133 23.7568-0.887467v15.889067a455.543467 455.543467 0 0 0-24.644267-0.887467h-31.709866v13.2608h51.950933c10.564267 0 21.128533-0.290133 31.6928-0.887466v15.9232a581.000533 581.000533 0 0 0-31.6928-0.887467h-51.950933v15.906133h59.869866a534.357333 534.357333 0 0 0 0 61.866667h-19.370666v-7.953067h-96.836267v10.615467h-19.370667c0.580267-11.2128 0.8704-22.1184 0.887467-32.699733a566.613333 566.613333 0 0 0-0.887467-31.829334h57.224534v-15.906133H799.573333c-8.226133 0-18.500267 0.290133-30.805333 0.887467v-15.9232c9.966933 0.597333 20.241067 0.887467 30.805333 0.887466h52.821334v-13.2608h-29.047467c-8.8064 0-18.500267 0.3072-29.064533 0.887467v-15.906133c11.741867 0.597333 21.418667 0.887467 29.064533 0.887466h29.047467v-14.165333h-22.8864c-14.677333 0-26.999467 0.290133-36.983467 0.887467v-15.9232c11.144533 0.6144 23.176533 0.904533 36.096 0.887466h23.773867l0.034133 0.0512z m15.854933-57.463466c1.757867 5.905067 3.805867 13.277867 6.144 22.101333h81.8688c-0.597333 8.840533-0.887467 16.503467-0.887466 22.9888-0.034133 5.307733 0.256 10.632533 0.887466 15.906133h-19.370666v-23.893333h-147.9168v22.101333h-19.370667c0.750933-4.386133 1.041067-8.823467 0.887467-13.2608 0-7.0656-0.290133-15.018667-0.887467-23.876266h82.773333a160.136533 160.136533 0 0 0-4.420266-19.456c5.870933-0.5632 12.629333-1.450667 20.258133-2.628267l0.034133 0.034133z m43.127467 182.101333v-24.746667h-96.8704v24.746667h96.8704z m-95.232 27.221333h-22.664533l0.1024-1.672533a587.6224 587.6224 0 0 0 0-64.375467l-0.1024-1.706666h57.258666v-12.680534h-51.2c-8.157867 0-18.210133 0.290133-30.72 0.887467l-1.6896 0.068267v-19.319467l1.706667 0.119467c9.728 0.580267 20.053333 0.8704 30.72 0.8704h51.2v-10.0352h-27.4432c-8.635733 0-18.3808 0.3072-28.962133 0.887466l-1.706667 0.1024v-19.319466l1.6896 0.085333c11.434667 0.597333 21.1968 0.887467 28.9792 0.887467h27.426133v-10.922667h-21.282133c-14.506667 0-26.897067 0.3072-36.864 0.887467l-1.706667 0.1024v-19.336534l1.6896 0.1024c10.871467 0.580267 22.9888 0.887467 36.010667 0.887467h22.152533a381.781333 381.781333 0 0 0-0.853333-13.312l-0.119467-1.7408h23.739734l-0.170667 1.757867c-0.426667 4.4032-0.7168 8.840533-0.836267 13.277866h21.248c14.9504 0 27.016533-0.3072 36.864-0.887466l1.706667-0.119467v19.3536l-1.706667-0.119467a647.338667 647.338667 0 0 0-37.751466-0.8704h-20.411734v10.922667h30.976c5.973333 0 13.943467-0.3072 23.671467-0.887467l1.706667-0.119466v19.3536l-1.706667-0.1024a441.4976 441.4976 0 0 0-24.576-0.887467H872.448v10.0352h50.346667c10.666667 0 21.282133-0.3072 31.573333-0.887467l1.706667-0.085333v19.319467l-1.706667-0.1024a571.101867 571.101867 0 0 0-31.573333-0.887467h-50.346667v12.6976h59.9552l-0.1024 1.706667a555.008 555.008 0 0 0-0.8704 30.839466c0 10.120533 0.290133 20.48 0.8704 30.839467l0.1024 1.706667h-22.664533v-7.953067H816.128v10.5984l0.034133 0.034133z m-19.268267-3.208533h16.059734v-10.6496h100.0448v7.953067h16.0768a545.792 545.792 0 0 1 0-58.658134h-59.818667v-19.114666h53.5552c9.898667 0 19.985067 0.256 30.088533 0.785066v-12.509866c-9.847467 0.512-19.968 0.785067-30.088533 0.785066h-53.5552v-16.469333h33.28c6.0928 0 13.653333 0.256 23.04 0.785067v-12.475734c-9.0112 0.512-16.469333 0.768-22.1696 0.768h-34.167467v-17.3568h23.6032c14.779733 0 26.965333 0.238933 36.266667 0.768v-12.475733c-9.6256 0.512-21.213867 0.785067-35.3792 0.785067h-24.490667v-1.604267c0-3.328 0.238933-7.850667 0.7168-13.4144h-16.759466c0.512 6.8608 0.750933 11.264 0.750933 13.4144v1.621333h-25.361067c-12.407467 0-23.995733-0.273067-34.491733-0.802133v12.509867c9.728-0.512 21.623467-0.802133 35.362133-0.802134h24.507734v17.373867H823.296c-7.441067 0-16.674133-0.273067-27.4432-0.802133v12.509866c10.001067-0.512 19.217067-0.785067 27.4432-0.785066h30.6688v16.469333H799.573333c-10.103467 0-19.9168-0.256-29.184-0.768v12.4928a635.118933 635.118933 0 0 1 29.184-0.802133h54.4256V870.4h-57.122133a600.695467 600.695467 0 0 1 0 61.303467l0.034133 0.034133z m116.0704-22.4256h-100.0448v-27.972267h100.0448v27.972267z m-96.836266-3.2256h93.627733V884.565333h-93.627733v21.521067z m141.960533-117.8624h-22.801067v-23.876267h-144.6912v22.084267h-23.04l0.512-1.9968c0.699733-4.266667 0.989867-8.567467 0.836267-12.868267 0-6.929067-0.3072-14.916267-0.887467-23.7568l-0.1024-1.723733h82.551467a155.818667 155.818667 0 0 0-4.027733-17.373867l-0.5632-1.877333 1.9456-0.187733c6.741333-0.699733 13.4656-1.5872 20.138666-2.645334l1.416534-0.2048 0.392533 1.348267c1.6384 5.461333 3.549867 12.322133 5.853867 20.9408h82.363733l-0.119467 1.706667c-0.546133 7.6288-0.853333 15.2576-0.887466 22.8864-0.034133 5.256533 0.256 10.496 0.887466 15.701333l0.221867 1.8432z m-19.592533-3.2256h15.957333a135.509333 135.509333 0 0 1-0.682667-14.301867c0-6.1952 0.256-13.380267 0.785067-21.367466h-81.408l-0.324267-1.194667c-1.826133-6.929067-3.754667-13.824-5.751466-20.701867-5.649067 0.8704-11.332267 1.621333-17.015467 2.2528 1.621333 5.8368 2.9184 11.776 3.908267 17.749334l0.3072 1.877333h-82.944c0.512 8.260267 0.768 15.735467 0.768 22.272 0.085333 3.8912-0.1024 7.7824-0.546134 11.639467h15.837867v-22.084267h151.0912v23.8592zM514.542933 103.3216L136.533333 653.7216h525.0048c4.010667-30.071467 2.730667-60.586667-3.754666-90.231467a267.025067 267.025067 0 0 0-38.263467-79.069866s-104.977067-21.1456-104.977067-126.9248c0-105.796267-17.578667-105.949867 41.966934-169.3696 59.562667-63.4368-3.396267-137.6256-41.984-84.804267z m276.241067 551.611733a73.045333 73.045333 0 0 1-72.618667-73.5232v-20.992a72.618667 72.618667 0 1 1 145.237334 0v20.992a73.130667 73.130667 0 0 1-72.618667 73.5232zM697.514667 444.945067a41.847467 41.847467 0 0 1-41.591467-41.915734v-21.060266a41.591467 41.591467 0 0 1 83.182933 0v20.992a41.966933 41.966933 0 0 1-41.5744 41.949866l-0.017066 0.034134z m-82.944-126.037334a41.591467 41.591467 0 0 1-40.277334-31.8976 20.48 20.48 0 0 1-0.580266-3.191466 41.216 41.216 0 0 1-0.221867-12.765867v-32.221867a27.357867 27.357867 0 0 1 29.2352-24.917333h2.884267a27.306667 27.306667 0 0 1 29.218133 24.917333v1.501867a42.274133 42.274133 0 0 1 21.060267 36.573867 41.642667 41.642667 0 0 1-41.3696 41.966933l0.034133 0.034133z m0 20.923734a20.992 20.992 0 1 1 0 41.966933h-41.591467a20.992 20.992 0 0 1 0-41.984h41.5744z m72.686933 105.1136a31.470933 31.470933 0 1 1-31.0272 31.470933 30.839467 30.839467 0 0 1 31.0272-31.470933z" fill="#FF0000" /></svg>