<?xml version="1.0" standalone="no"?><!DOCTYPE svg PUBLIC "-//W3C//DTD SVG 1.1//EN" "http://www.w3.org/Graphics/SVG/1.1/DTD/svg11.dtd"><svg class="icon" width="1000px" height="983.67px" viewBox="0 0 1041 1024" version="1.1" xmlns="http://www.w3.org/2000/svg"><path d="M875.383467 1024h-704a160 160 0 0 1-160-160V160A160 160 0 0 1 171.383467 0h704a160 160 0 0 1 160 160v704A160 160 0 0 1 875.383467 1024z m128-832a160 160 0 0 0-160-160h-640a160 160 0 0 0-160 160v640a160 160 0 0 0 160 160h640a160 160 0 0 0 160-160v-640z" fill="#FF0000" /><path d="M133.358933 880.2816a218.043733 218.043733 0 0 0 28.16-10.5984c-0.597333 6.485333-0.904533 12.373333-0.887466 17.664-9.984 3.549867-21.282133 7.3728-33.8944 11.485867-11.076267 3.498667-21.828267 7.936-32.136534 13.277866a75.810133 75.810133 0 0 0-8.8064-18.568533c8.8064-2.3552 18.773333-5.290667 29.934934-8.840533V806.912c-11.1616 0-20.258133 0.290133-27.2896 0.887467v-16.7936c7.048533 0.597333 16.145067 0.887467 27.306666 0.887466v-28.296533c0-10.001067-0.3072-20.0192-0.887466-30.037333h19.4048c-0.597333 7.662933-0.904533 17.681067-0.887467 30.037333V791.893333c10.581333 0 19.0976-0.3072 25.531733-0.887466v16.7936a297.4208 297.4208 0 0 0-25.531733-0.887467v73.3696h-0.017067z m15.837867-64.512a142.148267 142.148267 0 0 0 23.773867-7.082667v-20.309333c0-10.615467-0.290133-22.698667-0.887467-36.2496h17.6128a729.7536 729.7536 0 0 0-0.887467 35.362133v15.906134l26.4192-9.728v-35.362134c0-10.001067-0.3072-20.0192-0.887466-30.037333h18.4832a393.4208 393.4208 0 0 0-0.8704 30.9248v29.184c8.8064-2.3552 24.064-7.355733 45.7728-15.018667a396.9536 396.9536 0 0 0-0.887467 30.9248v34.474667c0.580267 15.325867-2.2016 25.053867-8.362667 29.184a73.898667 73.898667 0 0 1-23.330133 9.728 98.082133 98.082133 0 0 0-7.918933-18.551467c6.877867-0.170667 13.653333-1.826133 19.797333-4.864 2.645333-2.048 3.669333-8.686933 3.072-19.899733V796.330667c-9.966933 2.952533-19.3536 5.888-28.16 8.840533v59.221333c0 10.5984 0.3072 19.456 0.887467 26.5216H214.357333c0.580267-10.615467 0.8704-19.456 0.887467-26.5216v-53.930666l-26.4192 9.728v73.3696c0 11.776 4.113067 17.681067 12.3392 17.681066h56.32a11.264 11.264 0 0 0 11.434667-5.751466c2.491733-6.417067 4.266667-13.090133 5.290666-19.899734 5.768533 4.096 12.3904 6.826667 19.370667 7.970134a66.133333 66.133333 0 0 1-11.434667 26.077866 25.309867 25.309867 0 0 1-19.387733 6.656h-69.5296c-12.919467 0-19.6608-7.970133-20.241067-23.876266v-76.919467a69.597867 69.597867 0 0 0-15.854933 7.0656 158.549333 158.549333 0 0 0-7.918933-16.7936v0.017067z m113.578667 112.093867H193.194667c-13.8752 0-21.230933-8.567467-21.845334-25.429334V827.733333c-4.676267 1.536-9.147733 3.584-13.346133 6.144l-1.621333 1.092267-0.750934-1.809067a161.399467 161.399467 0 0 0-7.850666-16.605866l-1.109334-1.9968 2.218667-0.392534a138.973867 138.973867 0 0 0 22.459733-6.6048v-19.217066c0-10.410667-0.290133-22.562133-0.8704-36.181334l-0.085333-1.672533h20.992l-0.085333 1.706667a734.429867 734.429867 0 0 0-0.8704 35.2768v13.585066l23.176533-8.533333v-34.218667c0-9.847467-0.3072-19.9168-0.887467-29.952l-0.1024-1.706666h21.947734l-0.1536 1.7408c-0.580267 6.9632-0.8704 17.032533-0.8704 30.805333v27.050667c8.994133-2.56 23.6544-7.389867 43.6224-14.4384l2.3552-0.8192-0.2048 2.491733c-0.580267 6.946133-0.887467 17.032533-0.887467 30.788267v34.474666c0.6144 16.008533-2.3552 26.026667-9.0624 30.498134-7.3216 4.6592-15.377067 8.021333-23.842133 9.949866l-1.4848 0.375467-0.443734-1.4848a97.723733 97.723733 0 0 0-7.799466-18.244267l-1.143467-2.0992 2.389333-0.273066c12.6976-1.416533 17.339733-3.242667 18.9952-4.539734 1.2288-0.938667 3.191467-4.608 2.4576-18.517333v-35.925333c-8.6016 2.56-16.981333 5.205333-24.951466 7.850666v58.026667c0 10.752 0.290133 19.421867 0.8704 26.385067l0.1536 1.757866H212.650667l0.085333-1.706666c0.580267-10.615467 0.887467-19.5072 0.887467-26.4192v-51.592534l-23.210667 8.533334v72.226133c0 16.059733 8.072533 16.059733 10.734933 16.059733h56.32a9.728 9.728 0 0 0 9.984-4.8128c2.4064-6.2976 4.130133-12.834133 5.154134-19.5072l0.4608-2.4576 2.048 1.4336c5.5808 3.959467 11.9808 6.587733 18.705066 7.68l1.774934 0.290134-0.477867 1.7408c-3.618133 13.312-7.492267 22.0672-11.8272 26.743466a26.965333 26.965333 0 0 1-20.514133 7.150934z m-88.200534-104.618667v79.138133c0.546133 14.933333 6.656 22.254933 18.6368 22.254934h69.563734c6.656 0.580267 13.243733-1.655467 18.176-6.144 5.188267-7.0656 8.789333-15.138133 10.5984-23.722667a48.093867 48.093867 0 0 1-16.213334-6.5024c-1.006933 6.109867-2.6624 12.117333-4.949333 17.8688a12.765867 12.765867 0 0 1-12.9024 6.656h-56.32c-6.3488 0-13.9264-3.345067-13.9264-19.285333v-74.496l1.058133-0.375467 28.552534-10.530133v56.234666c0 6.690133-0.238933 14.848-0.785067 24.917334h15.0528c-0.512-6.741333-0.733867-14.933333-0.733867-24.917334v-60.416l1.092267-0.3584c8.96-2.986667 18.466133-5.973333 28.228267-8.8576l2.048-0.6144v40.174934c0.631467 11.946667-0.5632 18.705067-3.703467 21.162666-5.632 2.986667-11.8784 4.676267-18.261333 4.9152 2.577067 4.898133 4.744533 10.018133 6.485333 15.291734a71.168 71.168 0 0 0 21.333333-9.130667c5.632-3.754667 8.192-13.1072 7.68-27.767467v-34.525866c0-12.288 0.221867-21.7088 0.682667-28.586667-20.411733 7.168-35.054933 11.963733-43.5712 14.2336l-2.013867 0.512v-31.266133c0-12.731733 0.238933-22.357333 0.750934-29.320534h-15.086934c0.512 9.5232 0.785067 19.0976 0.785067 28.433067v36.488533l-1.058133 0.392534-28.5696 10.513066V787.456c0-10.8544 0.273067-22.186667 0.802133-33.757867h-14.2336c0.512 12.970667 0.802133 24.6272 0.802133 34.645334v21.435733l-1.024 0.4096a158.976 158.976 0 0 1-21.8624 6.724267c1.8944 3.584 3.976533 7.9872 6.1952 13.243733a79.018667 79.018667 0 0 1 14.592-6.229333l2.0992-0.682667zM93.6448 914.432l-0.5632-1.8944a75.178667 75.178667 0 0 0-8.618667-18.141867l-1.194666-1.877333 2.133333-0.5632a678.741333 678.741333 0 0 0 28.740267-8.465067v-74.939733c-10.274133 0-18.875733 0.3072-25.565867 0.853333l-1.723733 0.1536v-20.309333l1.7408 0.1536c6.6048 0.5632 14.967467 0.853333 25.5488 0.853333v-26.641066c0-9.847467-0.290133-19.9168-0.887467-29.952l-0.1024-1.706667h22.818133l-0.136533 1.723733a402.551467 402.551467 0 0 0-0.887467 29.934934v26.658133c9.949867 0 17.749333-0.3072 23.790934-0.8704l1.7408-0.170667v20.343467l-1.7408-0.170667a281.770667 281.770667 0 0 0-23.790934-0.853333v69.563733a224.136533 224.136533 0 0 0 25.9072-9.915733l2.525867-1.1264-0.256 2.730667c-0.546133 5.8368-0.853333 11.690667-0.8704 17.544533v1.143467l-1.0752 0.392533c-10.069333 3.584-21.504 7.441067-33.928533 11.502933-10.973867 3.464533-21.640533 7.850667-31.880534 13.141334l-1.723733 0.904533z m-5.307733-19.9168c2.952533 4.8128 5.376 9.915733 7.2192 15.240533 9.898667-4.949333 20.138667-9.1136 30.685866-12.458666 11.9808-3.925333 23.005867-7.68 32.802134-11.1104 0.017067-4.334933 0.238933-9.0112 0.631466-13.960534-8.3968 3.754667-17.066667 6.9632-25.890133 9.5744l-2.048 0.597334v-77.090134h1.604267c9.591467 0 17.629867 0.238933 23.927466 0.750934v-13.277867a316.074667 316.074667 0 0 1-23.927466 0.7168H131.754667v-29.883733c0-11.7248 0.238933-21.0432 0.750933-28.450134H116.565333c0.512 9.540267 0.785067 19.114667 0.785067 28.450134v29.883733h-1.604267c-10.496 0-18.944-0.238933-25.685333-0.733867v13.312c6.877867-0.494933 15.496533-0.750933 25.685333-0.750933h1.621334v80.571733l-1.1264 0.375467c-9.250133 2.935467-18.551467 5.6832-27.904 8.260267v-0.017067z m285.354666 13.141333V876.714667h-20.258133c0 9.437867-1.3312 18.807467-3.959467 27.8528-3.925333 11.605333-9.728 22.510933-17.169066 32.256a85.2992 85.2992 0 0 0-14.967467-10.615467 55.466667 55.466667 0 0 0 13.2096-17.237333c3.0208-6.536533 4.8128-13.568 5.290667-20.770134 0.580267-7.645867 0.8704-19.131733 0.8704-34.474666 0-15.889067-0.290133-27.682133-0.8704-35.345067h137.335466c8.192 0 16.981333-0.290133 26.402134-0.887467v14.148267a433.237333 433.237333 0 0 0-26.402134-0.887467h-119.739733v33.5872h125.013333c8.8064 0 17.92-0.290133 27.306667-0.887466v14.148266a391.748267 391.748267 0 0 0-27.306667-0.887466h-51.0464c2.082133 4.113067 4.437333 8.106667 7.031467 11.946666 3.464533 4.898133 7.970133 8.977067 13.2096 11.9296a38.058667 38.058667 0 0 0 8.789333-10.171733 111.274667 111.274667 0 0 1 7.048534-11.0592c5.341867 3.703467 10.3424 7.850667 14.967466 12.3904a72.874667 72.874667 0 0 0-11.008 7.0656c-2.048 1.774933-5.12 4.130133-9.233066 7.0656 5.546667 2.269867 11.298133 4.0448 17.169066 5.290667 11.52 1.706667 23.1424 2.577067 34.7648 2.6624-3.242667 6.144-5.597867 12.680533-7.031466 19.456a237.294933 237.294933 0 0 1-40.4992-8.840534 94.122667 94.122667 0 0 1-25.531734-12.373333 57.634133 57.634133 0 0 1-15.4112-16.349867 102.331733 102.331733 0 0 1-9.233066-19.012266h-23.773867v36.2496c11.7248-4.7104 20.821333-8.533333 27.306667-11.485867 0.0512 5.341867 0.631467 10.666667 1.7408 15.906133-3.515733 1.160533-9.233067 3.5328-17.169067 7.0656-7.918933 3.549867-16.571733 7.68-25.975467 12.373334a112.810667 112.810667 0 0 1-7.031466-15.018667c3.8912-3.669333 6.126933-8.772267 6.144-14.1312z m93.320534-173.226666c8.192 0 17.578667-0.290133 28.16-0.8704v14.1312a524.526933 524.526933 0 0 0-28.16-0.8704h-44.9024v10.5984h87.159466a175.957333 175.957333 0 0 0 0 35.362133h-15.854933v-22.9888h-71.304533v38.007467h-16.725334v-38.007467h-70.417066v22.9888h-16.7424V757.418667h87.159466v-10.5984h-43.144533c-7.031467 0-15.530667 0.290133-25.514667 0.8704v-14.1312c8.789333 0.597333 17.3056 0.887467 25.514667 0.887466h104.772267z m-73.949867 55.688533h-45.789867v-10.5984h45.789867v10.5984z m0 17.681067h-45.789867v-10.615467h45.789867v10.615467z m61.610667 32.699733c8.823467 0 18.210133-0.290133 28.16-0.8704v14.1312a490.2912 490.2912 0 0 0-28.16-0.887467h-56.32c-8.789333 0-18.4832 0.3072-29.047467 0.887467v-14.1312c10.581333 0.597333 20.258133 0.887467 29.064533 0.8704h56.32z m24.661333-50.3808h-43.144533v-10.5984h43.1616v10.5984h-0.017067z m0 19.456h-43.144533v-10.5984h43.1616v10.5984h-0.017067z m-146.7392 129.672533l-1.3312-1.194666a84.4288 84.4288 0 0 0-14.711467-10.3936l-1.962666-1.109334 1.672533-1.501866c5.341867-4.676267 9.693867-10.359467 12.834133-16.725334 2.9184-6.382933 4.6592-13.226667 5.12-20.206933a493.909333 493.909333 0 0 0 0.887467-34.3552c0-15.7184-0.290133-27.562667-0.887467-35.2256l-0.119466-1.7408h139.076266c8.2944 0 17.152-0.290133 26.3168-0.8704l1.706667-0.119467v17.578667l-1.706667-0.1024a425.472 425.472 0 0 0-26.3168-0.887467h-118.1184v30.378667h123.392c8.874667 0 18.0224-0.3072 27.1872-0.887467l1.706667-0.119466v17.595733l-1.706667-0.119467a387.362133 387.362133 0 0 0-27.1872-0.887466h-13.6192c5.239467 3.6864 10.171733 7.799467 14.7456 12.288l1.536 1.536-1.860266 1.024a72.072533 72.072533 0 0 0-10.752 6.894933c-1.706667 1.467733-4.0448 3.293867-6.946134 5.410133 4.608 1.7408 9.335467 3.1232 14.148267 4.164267 11.434667 1.655467 22.9376 2.525867 34.474667 2.6112l2.645333 0.085333-1.28 2.321067c-3.157333 5.973333-5.461333 12.3904-6.877867 19.012267l-0.324266 1.450666-1.4848-0.221866c-13.824-1.774933-27.460267-4.744533-40.7552-8.891734a96.085333 96.085333 0 0 1-25.975467-12.5952 59.255467 59.255467 0 0 1-15.837867-16.810666 104.157867 104.157867 0 0 1-8.994133-18.261334h-21.026133v32.256c10.564267-4.266667 18.961067-7.799467 25.019733-10.581333l2.269867-1.024v2.525867c0.068267 5.239467 0.648533 10.461867 1.723733 15.598933l0.290133 1.399467-1.365333 0.443733c-3.413333 1.1264-8.96 3.413333-16.9984 7.031467-8.021333 3.584-16.725333 7.714133-25.9072 12.3392l-1.365333 0.682666-0.750934-1.365333a116.087467 116.087467 0 0 1-7.168-15.223467l-0.3584-0.989866 0.7168-0.7168c3.618133-3.362133 5.6832-8.072533 5.717334-13.021867V878.421333h-17.032534a102.058667 102.058667 0 0 1-4.027733 26.692267 114.858667 114.858667 0 0 1-17.408 32.768l-1.024 1.3824z m36.795733-17.0496c1.706667 4.283733 3.6352 8.465067 5.8368 12.509867 8.704-4.369067 17.032533-8.311467 24.661334-11.707733 7.168-3.191467 12.424533-5.393067 15.9744-6.656a85.589333 85.589333 0 0 1-1.467734-12.373334c-6.314667 2.833067-14.762667 6.3488-25.1392 10.513067l-2.2016 0.887467v-40.226134h26.504534l0.375466 1.058134c2.389333 6.519467 5.461333 12.8 9.1136 18.688 3.908267 6.2464 8.994133 11.639467 14.984534 15.906133 7.697067 5.290667 16.162133 9.386667 25.088 12.151467a233.472 233.472 0 0 0 38.7584 8.567466c1.297067-5.563733 3.208533-10.9568 5.666133-16.110933a234.752 234.752 0 0 1-32.494933-2.6112 102.792533 102.792533 0 0 1-17.442134-5.376l-2.730666-1.092267 2.4064-1.706666c3.959467-2.850133 7.048533-5.205333 9.130666-6.997334 2.935467-2.338133 6.075733-4.4032 9.386667-6.1952a114.5344 114.5344 0 0 0-11.9296-9.762133c-2.167467 3.072-4.164267 6.263467-6.007467 9.557333-2.389333 4.061867-5.495467 7.662933-9.1648 10.632534l-0.8704 0.750933-1.024-0.597333a42.1376 42.1376 0 0 1-13.704533-12.424534 116.462933 116.462933 0 0 1-7.168-12.117333l-1.160533-2.321067h53.674666c9.216 0 17.851733 0.238933 25.685334 0.750934v-10.683734c-8.6528 0.512-17.288533 0.768-25.685334 0.768h-126.583466v-36.795733h121.344c7.6288 0 15.940267 0.238933 24.797866 0.768v-10.7008c-8.618667 0.512-16.964267 0.768-24.797866 0.768h-135.645867c0.512 7.748267 0.750933 19.080533 0.750933 33.757867 0 15.223467-0.290133 26.862933-0.8704 34.594133-0.512 7.3728-2.338133 14.609067-5.4272 21.333333a56.285867 56.285867 0 0 1-11.946666 16.213334c4.1984 2.525867 8.192 5.376 11.946666 8.5504 6.877867-9.216 12.253867-19.456 15.9232-30.327467a98.679467 98.679467 0 0 0 3.8912-27.392v-1.604267h23.466667v32.546134a20.992 20.992 0 0 1-5.905067 14.506666z m60.654934-43.844266c1.536 2.901333 3.4816 6.0416 5.717333 9.4208 3.089067 4.4032 7.082667 8.0896 11.707733 10.837333a34.816 34.816 0 0 0 7.560534-8.942933 114.688 114.688 0 0 1 7.168-11.2128l0.068266-0.1024h-32.221866z m54.4256-22.869334l-1.706667-0.1024a480.938667 480.938667 0 0 0-28.074667-0.887466h-56.32c-8.635733 0-18.397867 0.290133-28.962133 0.887466l-1.6896 0.085334v-17.544534l1.706667 0.085334c10.2912 0.580267 20.036267 0.887467 28.945066 0.887466h56.32c8.9088 0 18.346667-0.3072 28.074667-0.887466l1.706667-0.1024v17.578666z m-113.5616-14.165333v10.752c9.966933-0.512 19.2-0.785067 27.4432-0.785067h56.32c8.192 0 17.134933 0.256 26.5728 0.802134v-10.717867c-9.216 0.512-18.1248 0.768-26.5728 0.768h-56.32a523.093333 523.093333 0 0 1-27.460267-0.802133z m110.0288-30.139733h-46.353067v-13.824h46.353067v13.824z m-43.127467-3.208534h39.936v-7.389866h-39.936v7.389866z m-14.097067 1.4336H403.797333V771.413333H336.554667v22.9888h-19.933867v-38.570666h87.159467v-7.389867h-41.540267c-6.894933 0-15.4624 0.3072-25.429333 0.887467l-1.706667 0.1024v-17.578667l1.706667 0.1024c8.584533 0.597333 17.134933 0.887467 25.429333 0.887467h104.772267c8.328533 0 17.783467-0.290133 28.074666-0.887467l1.706667-0.085333v17.544533l-1.706667-0.085333a523.8784 523.8784 0 0 0-28.074666-0.887467h-43.298134v7.389867h87.330134l-0.170667 1.757866a174.6944 174.6944 0 0 0 0 35.072l0.1536 1.7408h-19.217067V771.413333h-68.096v37.9904z m-16.725333-3.208533h13.5168v-38.007467h74.513067v22.971734h12.4928a181.248 181.248 0 0 1-0.017067-32.136534h-86.9888v-13.824h46.506667c7.68 0 16.605867 0.273067 26.555733 0.802134v-10.752c-9.728 0.529067-18.6368 0.785067-26.555733 0.785066h-104.772267c-7.799467 0-15.872-0.256-23.927467-0.785066v10.734933c9.3184-0.512 17.3568-0.785067 23.927467-0.785067h44.7488v13.824H319.829333v32.136534h13.5168V768.170667h73.642667V806.1952z m-12.322133 3.208533h-48.981334v-13.824h48.981334v13.824z m-45.7728-3.208533h42.564266v-7.389867h-42.581333v7.389867h0.017067z m132.0448-14.455467h-46.353067v-13.824h46.353067v13.824z m-43.127467-3.2256h39.936v-7.389866h-39.936v7.389866z m-43.144533 3.2256h-48.981334v-13.824h48.981334v13.824z m-45.7728-3.2256h42.564266v-7.389866h-42.581333v7.389866h0.017067z m327.202133 118.749867a120.098133 120.098133 0 0 1-36.539733-49.066667 138.837333 138.837333 0 0 1-13.2096 26.5216 98.0992 98.0992 0 0 1-18.039467 21.213867c-6.843733 5.973333-14.216533 11.281067-22.016 15.906133-9.216 5.358933-18.773333 10.069333-28.6208 14.148267a43.690667 43.690667 0 0 0-15.837867-15.018667 138.683733 138.683733 0 0 0 41.813334-18.1248 89.531733 89.531733 0 0 0 27.733333-27.8528 109.6192 109.6192 0 0 0 13.653333-35.7888 157.866667 157.866667 0 0 0 2.2016-42.871466c7.031467 0.597333 14.677333 1.194667 22.869334 1.774933a70.8608 70.8608 0 0 0-2.184534 30.037333c2.218667 11.537067 6.382933 22.596267 12.322134 32.7168 7.236267 12.970667 16.964267 24.3712 28.603733 33.5872 14.609067 11.093333 31.402667 18.944 49.3056 22.971734a47.274667 47.274667 0 0 0-13.2096 18.568533 146.346667 146.346667 0 0 1-48.8448-28.7232z m54.135467-116.224c0 3.5328 0.273067 10.018133 0.887466 19.456h-19.370666v-28.279467h-145.2544v30.037334h-19.370667c0.580267-10.001067 0.8704-17.373867 0.8704-22.084267 0-4.727467-0.290133-12.680533-0.8704-23.876267h183.978667a646.7072 646.7072 0 0 0-0.8704 24.712534v0.034133z m-155.818667 82.193067c-5.307733-2.730667-10.922667-4.795733-16.725333-6.178134 3.515733-7.662933 6.894933-15.172267 10.120533-22.528 3.925333-9.591467 7.0144-19.490133 9.250133-29.610666 5.888 2.7648 12.100267 4.846933 18.4832 6.178133-3.5328 8.823467-10.581333 26.197333-21.128533 52.1216v0.034133z m44.032-138.752a82.432 82.432 0 0 0 17.578667-7.9872c6.126933 9.847467 11.434667 20.189867 15.837866 30.9248-7.031467 2.372267-13.192533 4.727467-18.4832 7.0656a103.168 103.168 0 0 0-14.9504-30.037334v0.034134z m74.820267 138.752a52.565333 52.565333 0 0 0-14.984534-7.953067 156.7744 156.7744 0 0 0 21.1456-47.735467c5.239467 3.874133 11.229867 6.570667 17.595734 7.970134-6.7072 16.469333-14.6432 32.426667-23.773867 47.701333l0.017067 0.034133z m-136.277334 64.8192l-0.682666-1.262934a42.564267 42.564267 0 0 0-15.3088-14.4384l-3.208534-1.9968 3.652267-0.938666a137.7792 137.7792 0 0 0 41.352533-17.92 88.456533 88.456533 0 0 0 27.2384-27.323734c6.485333-10.888533 11.042133-22.8352 13.448534-35.2768 2.628267-13.994667 3.362133-28.2624 2.167466-42.427733l-0.1536-1.8944 1.877334 0.1536c7.031467 0.597333 14.660267 1.194667 22.869333 1.774933l1.979733 0.136534-0.512 1.877333a69.461333 69.461333 0 0 0-2.184533 29.3888c2.218667 11.332267 6.314667 22.2208 12.168533 32.187733 7.133867 12.765867 16.725333 24.0128 28.194134 33.092267a127.0784 127.0784 0 0 0 48.708266 22.698667l2.901334 0.733866-2.218667 2.013867a45.909333 45.909333 0 0 0-12.8 17.92l-0.512 1.450667-1.4848-0.4608a148.650667 148.650667 0 0 1-49.408-29.013334 123.8528 123.8528 0 0 1-35.4816-45.960533c-3.242667 8.021333-7.2192 15.752533-11.8784 23.04-5.0688 8.021333-11.246933 15.291733-18.346667 21.572267-6.912 6.024533-14.353067 11.400533-22.237866 16.0768a240.64 240.64 0 0 1-28.808534 14.2336l-1.3312 0.5632z m82.551467-84.3776l1.536 3.959466a118.784 118.784 0 0 0 36.0448 48.384 148.002133 148.002133 0 0 0 46.882133 27.972267c2.56-5.922133 6.280533-11.264 10.9568-15.735467a127.7952 127.7952 0 0 1-47.104-22.528 115.421867 115.421867 0 0 1-29.013333-34.065066 105.642667 105.642667 0 0 1-12.509867-33.2288 71.953067 71.953067 0 0 1 1.723734-28.842667 1380.471467 1380.471467 0 0 1-19.080534-1.467733c1.024 13.858133 0.221867 27.784533-2.372266 41.4208a111.2576 111.2576 0 0 1-13.824 36.317866 91.272533 91.272533 0 0 1-28.228267 28.330667A138.752 138.752 0 0 1 545.757867 921.6c5.000533 3.242667 9.301333 7.441067 12.612266 12.3904 9.3184-3.908267 18.3808-8.413867 27.136-13.482667a150.084267 150.084267 0 0 0 21.777067-15.752533 97.757867 97.757867 0 0 0 17.749333-20.855467c5.256533-8.260267 9.6256-17.0496 13.038934-26.2144l1.467733-4.010666z m54.2208 21.947733l-1.450667-1.092267a51.165867 51.165867 0 0 0-14.506666-7.714133l-1.979734-0.6656 1.1264-1.7408a155.886933 155.886933 0 0 0 20.923734-47.240533l0.5632-2.286934 1.928533 1.348267c5.051733 3.720533 10.8544 6.3488 16.981333 7.68l1.877334 0.3584-0.682667 1.774933c-6.741333 16.571733-14.728533 32.597333-23.876267 47.9744l-0.904533 1.604267z m-13.0048-11.178667c4.266667 1.6384 8.2944 3.7888 12.014933 6.434134 8.362667-14.216533 15.752533-28.9792 22.101334-44.202667a47.8208 47.8208 0 0 1-14.455467-6.485333 159.146667 159.146667 0 0 1-19.677867 44.2368l0.017067 0.017066z m-105.506133 11.025067l-1.536-0.768a71.68 71.68 0 0 0-16.349867-6.058667l-1.9456-0.443733 0.836267-1.826133c3.515733-7.6288 6.894933-15.138133 10.103466-22.528 3.8912-9.506133 6.946133-19.319467 9.147734-29.354667l0.477866-1.962667 1.826134 0.9216c5.7856 2.7136 11.861333 4.727467 18.1248 6.0416l1.826133 0.426667-0.699733 1.757867c-3.515733 8.840533-10.564267 26.2144-21.128534 52.155733l-0.682666 1.6384z m-15.274667-9.5232c4.693333 1.262933 9.250133 2.9696 13.6192 5.085867 9.557333-23.432533 16.145067-39.697067 19.780267-48.810667a86.340267 86.340267 0 0 1-15.2064-5.000533 176.128 176.128 0 0 1-8.874667 27.938133c-2.986667 6.792533-6.0928 13.704533-9.335467 20.753067l0.017067 0.034133z m8.123733-52.087467h-22.698666l0.1024-1.706666a434.858667 434.858667 0 0 0 0.887466-22.016c0-4.642133-0.3072-12.373333-0.887466-23.773867l-0.085334-1.6896h86.3232a101.632 101.632 0 0 0-14.626133-29.269333l-1.314133-1.774934 2.116266-0.699733a81.493333 81.493333 0 0 0 17.2544-7.799467l1.3312-0.836266 0.853334 1.314133c6.178133 9.949867 11.52 20.3776 15.991466 31.197867l0.7168 1.621333-1.672533 0.546133c-5.1712 1.706667-10.257067 3.618133-15.274667 5.700267h95.675734l-0.085334 1.6896a664.029867 664.029867 0 0 0-0.8704 24.661333c0 3.584 0.3072 10.2912 0.8704 19.336534l0.119467 1.723733h-22.698667v-28.279467h-142.0288v30.0544z m-19.268266-3.208533h16.0768v-30.0544h148.48v28.279467h16.042666c-0.512-8.2432-0.768-14.3872-0.768-17.834667 0-4.096 0.273067-12.049067 0.802134-23.1424H548.8128c0.512 10.530133 0.785067 17.8176 0.785067 22.254933s-0.256 11.127467-0.785067 20.462934l0.017067 0.034133z m72.192-75.349333c5.7344 8.311467 10.24 17.425067 13.397333 27.0336 5.034667-2.1504 10.1376-4.096 15.3088-5.8368a210.432 210.432 0 0 0-14.165333-27.784534 83.541333 83.541333 0 0 1-14.574934 6.5536l0.034134 0.034134z m234.257066 47.786666c0-2.3552-0.290133-7.355733-0.887466-15.018666h20.224c-0.597333 6.485333-0.904533 11.485867-0.887467 15.018666h22.903467c14.677333 0 26.999467-0.290133 36.9664-0.887466v15.906133c-9.386667-0.580267-22.016-0.8704-37.853867-0.8704h-22.016v14.1312h32.580267c5.870933 0 13.789867-0.290133 23.773866-0.887467v15.889067a455.543467 455.543467 0 0 0-24.661333-0.887467h-31.6928v13.2608h51.950933c10.5472 0 21.111467-0.290133 31.6928-0.887466v15.9232a581.000533 581.000533 0 0 0-31.6928-0.887467h-51.950933v15.906133h59.869867a534.357333 534.357333 0 0 0 0 61.866667h-19.370667v-7.953067h-96.836267v10.615467h-19.370666c0.580267-11.2128 0.853333-22.1184 0.8704-32.699733a566.613333 566.613333 0 0 0-0.8704-31.829334h57.224533v-15.906133h-52.821333c-8.226133 0-18.500267 0.290133-30.8224 0.887467v-15.9232c9.966933 0.597333 20.241067 0.887467 30.8224 0.887466h52.821333v-13.2608H826.197333c-8.8064 0-18.500267 0.3072-29.064533 0.887467v-15.906133c11.7248 0.597333 21.418667 0.887467 29.064533 0.887466h29.047467v-14.165333H832.341333c-14.677333 0-26.999467 0.290133-36.9664 0.887467v-15.9232c11.144533 0.6144 23.176533 0.904533 36.096 0.887466h23.773867l0.034133 0.0512z m15.837867-57.463466c1.774933 5.905067 3.822933 13.277867 6.144 22.101333H959.146667c-0.597333 8.840533-0.904533 16.503467-0.887467 22.9888-0.034133 5.307733 0.256 10.632533 0.887467 15.906133h-19.370667v-23.893333h-147.9168v22.101333h-19.370667c0.733867-4.386133 1.024-8.823467 0.8704-13.2608 0-7.0656-0.290133-15.018667-0.8704-23.876266h82.756267a160.136533 160.136533 0 0 0-4.4032-19.456c5.853867-0.5632 12.612267-1.450667 20.241067-2.628267l0.034133 0.034133z m43.144533 182.101333v-24.746667h-96.8704v24.746667h96.8704z m-95.232 27.221333h-22.664533l0.085333-1.672533a587.6224 587.6224 0 0 0 0-64.375467l-0.085333-1.706666h57.258667v-12.680534h-51.2c-8.157867 0-18.210133 0.290133-30.72 0.887467l-1.6896 0.068267v-19.319467l1.706666 0.119467c9.728 0.580267 20.053333 0.8704 30.72 0.8704h51.2v-10.0352h-27.460266c-8.635733 0-18.363733 0.3072-28.962134 0.887466l-1.706666 0.1024v-19.319466l1.706666 0.085333c11.434667 0.597333 21.179733 0.887467 28.962134 0.887467h27.4432v-10.922667h-21.2992c-14.4896 0-26.897067 0.3072-36.864 0.887467l-1.706667 0.1024v-19.336534l1.706667 0.1024c10.871467 0.580267 22.9888 0.887467 36.010666 0.887467h22.152534a381.781333 381.781333 0 0 0-0.853334-13.312l-0.119466-1.7408h23.722666l-0.1536 1.757867c-0.443733 4.4032-0.7168 8.840533-0.853333 13.277866h21.265067c14.9504 0 26.999467-0.3072 36.864-0.887466l1.706666-0.119467v19.3536l-1.706666-0.119467a647.338667 647.338667 0 0 0-37.768534-0.8704H875.349333v10.922667h30.958934c5.973333 0 13.943467-0.3072 23.688533-0.887467l1.6896-0.119466v19.3536l-1.706667-0.1024a441.4976 441.4976 0 0 0-24.576-0.887467h-30.088533v10.0352h50.346667c10.666667 0 21.2992-0.3072 31.5904-0.887467l1.706666-0.085333v19.319467l-1.706666-0.1024a571.101867 571.101867 0 0 0-31.5904-0.887467h-50.346667v12.6976h59.972267l-0.1024 1.706667a555.008 555.008 0 0 0-0.887467 30.839466c0 10.120533 0.3072 20.48 0.887467 30.839467l0.1024 1.706667h-22.6816v-7.953067h-93.610667v10.5984l0.0512 0.034133z m-19.285333-3.208533h16.0768v-10.6496h100.0448v7.953067h16.059733a545.792 545.792 0 0 1 0-58.658134h-59.8016v-19.114666h53.538134c9.898667 0 20.002133 0.256 30.088533 0.785066v-12.509866c-9.8304 0.512-19.968 0.785067-30.088533 0.785066h-53.538134v-16.469333h33.28c6.075733 0 13.653333 0.256 23.04 0.785067v-12.475734c-9.028267 0.512-16.4864 0.768-22.1696 0.768H872.106667v-17.3568h23.620266c14.779733 0 26.965333 0.238933 36.2496 0.768v-12.475733c-9.608533 0.512-21.213867 0.785067-35.362133 0.785067h-24.507733v-1.604267c0-3.328 0.238933-7.850667 0.733866-13.4144h-16.759466c0.512 6.8608 0.750933 11.264 0.750933 13.4144v1.621333h-25.378133c-12.3904 0-23.978667-0.273067-34.474667-0.802133v12.509867c9.728-0.512 21.623467-0.802133 35.362133-0.802134h24.490667v17.373867h-30.651733c-7.458133 0-16.674133-0.273067-27.4432-0.802133v12.509866c10.001067-0.512 19.2-0.785067 27.4432-0.785066h30.651733v16.469333h-54.391467c-10.120533 0-19.9168-0.256-29.184-0.768v12.4928a635.118933 635.118933 0 0 1 29.184-0.802133h54.4256V870.4h-57.1392a600.695467 600.695467 0 0 1 0 61.303467l0.0512 0.034133z m116.087467-22.4256H815.786667v-27.972267h100.0448v27.972267z m-96.853334-3.2256h93.6448V884.565333h-93.6448v21.521067z m141.960534-117.8624H938.154667v-23.876267h-144.6912v22.084267h-23.04l0.512-1.9968c0.699733-4.266667 0.989867-8.567467 0.836266-12.868267 0-6.929067-0.3072-14.916267-0.887466-23.7568l-0.1024-1.723733H853.333333a155.818667 155.818667 0 0 0-4.027733-17.373867l-0.580267-1.877333 1.9456-0.187733c6.741333-0.699733 13.482667-1.5872 20.1728-2.645334l1.3824-0.2048 0.4096 1.348267c1.621333 5.461333 3.549867 12.322133 5.853867 20.9408H960.853333l-0.136533 1.706667c-0.546133 7.6288-0.836267 15.2576-0.8704 22.8864-0.034133 5.256533 0.256 10.496 0.8704 15.701333l0.221867 1.8432z m-19.592534-3.2256h15.9744a135.509333 135.509333 0 0 1-0.682666-14.301867c0-6.1952 0.256-13.380267 0.768-21.367466h-81.408l-0.3072-1.194667c-1.826133-6.929067-3.754667-13.824-5.751467-20.701867-5.666133 0.8704-11.332267 1.621333-17.015467 2.2528 1.621333 5.8368 2.901333 11.776 3.8912 17.749334l0.324267 1.877333h-82.944c0.512 8.260267 0.768 15.735467 0.768 22.272 0.068267 3.8912-0.119467 7.7824-0.546133 11.639467h15.8208v-22.084267h151.108266v23.8592zM525.943467 331.076267a57.736533 57.736533 0 1 1-0.0512 115.473066 57.736533 57.736533 0 0 1 0.0512-115.473066z m102.877866-2.525867a119.296 119.296 0 1 0-139.178666 173.943467l-11.1616 13.943466a138.530133 138.530133 0 1 1 162.2528-202.8032l-11.912534 14.916267z m36.0448-69.870933a190.429867 190.429867 0 1 0-216.746666 303.957333l-12.458667 17.493333a211.6096 211.6096 0 1 1 241.749333-339.063466l-12.544 17.6128zM491.4176 576.085333a190.344533 190.344533 0 0 0 200.328533-280.951466l13.3632-18.7392a211.268267 211.268267 0 0 1-227.106133 318.498133l13.4144-18.807467z m200.072533-383.488a256.375467 256.375467 0 1 0-258.491733 432.810667l-14.813867 24.797867A284.842667 284.842667 0 1 1 706.321067 167.765333l-14.848 24.814934zM448.2048 630.493867A256.392533 256.392533 0 0 0 720.298667 222.378667l16.384-24.593067a284.8256 284.8256 0 0 1-304.930134 457.386667l16.452267-24.661334z" fill="#FF0000" /></svg>