<?xml version="1.0" standalone="no"?><!DOCTYPE svg PUBLIC "-//W3C//DTD SVG 1.1//EN" "http://www.w3.org/Graphics/SVG/1.1/DTD/svg11.dtd"><svg class="icon" width="1000px" height="1000.00px" viewBox="0 0 1024 1024" version="1.1" xmlns="http://www.w3.org/2000/svg"><path d="M864 1024H160A160 160 0 0 1 0 864V160A160 160 0 0 1 160 0h704A160 160 0 0 1 1024 160v704A160 160 0 0 1 864 1024z m128-832a160 160 0 0 0-160-160h-640a160 160 0 0 0-160 160v640a160 160 0 0 0 160 160h640a160 160 0 0 0 160-160v-640z" fill="#FF0000" /><path d="M70.912 806.229333a471.04 471.04 0 0 0 31.658667 0.853334h33.416533c10.564267 0 22.5792-0.273067 36.061867-0.853334v15.872a841.301333 841.301333 0 0 0-35.1744-0.904533h-9.6768a892.586667 892.586667 0 0 1-11.8784 30.037333c-4.522667 10.871467-9.659733 21.504-15.394134 31.7952 22.869333-2.338133 40.174933-4.693333 51.882667-7.0656a206.506667 206.506667 0 0 0-14.062933-26.504533c4.932267-2.56 9.6256-5.512533 14.08-8.823467 5.853867 10.581333 10.837333 19.5584 14.9504 26.9312 4.113067 7.389867 8.516267 16.366933 13.192533 26.948267-4.693333 2.952533-9.966933 5.888-15.837867 8.840533-2.3552-5.307733-4.4032-9.728-6.144-13.2608-18.773333 2.952533-33.860267 5.307733-45.294933 7.0656a161.006933 161.006933 0 0 0-29.457067 7.0656A92.194133 92.194133 0 0 0 74.410667 887.466667c7.6288-4.693333 14.506667-14.1312 20.667733-28.2624 5.512533-12.288 10.069333-25.002667 13.653333-37.9904h-6.144c-12.322133 0-22.869333 0.3072-31.675733 0.887466v-15.872h-0.017067z m60.672-49.493333c9.966933 0 21.0944-0.290133 33.416533-0.887467v16.7936a716.919467 716.919467 0 0 0-33.416533-0.887466H110.4896c-9.386667 0-18.4832 0.290133-27.272533 0.887466v-16.776533c8.192 0.597333 16.981333 0.904533 26.385066 0.887467H131.584v-0.017067z m94.993067-22.971733a127.095467 127.095467 0 0 0-2.218667 19.882666c-0.290133 7.3728-0.426667 16.349867-0.426667 26.9312h49.271467c-0.597333 7.68-1.194667 16.213333-1.757867 25.6l-4.4032 100.727467c-1.757867 11.776-6.587733 18.978133-14.506666 21.640533a134.997333 134.997333 0 0 1-26.8288 5.7344 58.368 58.368 0 0 0-8.789334-19.456 67.771733 67.771733 0 0 0 26.385067-2.218666 11.776 11.776 0 0 0 7.031467-11.912534l5.290666-105.096533h-31.675733a435.712 435.712 0 0 1-5.717333 59.170133 152.797867 152.797867 0 0 1-12.322134 37.546667c-5.563733 11.485867-16.861867 26.368-33.877333 44.6464a47.9232 47.9232 0 0 0-15.837867-11.485867 143.035733 143.035733 0 0 0 27.272534-27.818666c6.7072-9.045333 11.776-19.217067 14.9504-30.037334 2.9696-10.5472 5.034667-21.333333 6.144-32.256 1.160533-11.178667 2.048-24.405333 2.645333-39.748266h-14.916267c-6.4512 0-14.08 0.3072-22.869333 0.887466v-16.776533c8.789333 0.597333 16.9984 0.887467 24.6272 0.887467h13.192533v-24.746667c0-8.226133-0.290133-16.469333-0.887466-24.7296 6.621867 1.706667 13.4144 2.594133 20.241066 2.645333h-0.017066z m-54.493867 205.482666l-1.160533-1.1776a46.813867 46.813867 0 0 0-15.2576-11.093333l-2.679467-1.024 2.2528-1.774933a142.3872 142.3872 0 0 0 26.965333-27.4944 94.958933 94.958933 0 0 0 14.6944-29.525334c2.952533-10.478933 4.983467-21.162667 6.0928-31.982933 1.1264-10.683733 1.9968-23.4496 2.56-37.956267h-13.2608c-7.594667 0.0512-15.189333 0.341333-22.766933 0.8704l-1.706667 0.119467v-20.224l1.706667 0.119467c8.567467 0.580267 16.827733 0.887467 24.5248 0.887466h11.588267v-23.125333c0-8.0896-0.3072-16.384-0.887467-24.610133l-0.1536-2.218667 2.1504 0.546133c6.485333 1.655467 13.141333 2.542933 19.831467 2.594134h1.962666l-0.392533 1.928533c-1.2288 6.468267-1.9456 13.021867-2.167467 19.626667a657.92 657.92 0 0 0-0.426666 25.258666h49.390933l-0.136533 1.7408c-0.597333 7.645867-1.194667 16.1792-1.757867 25.6l-4.4032 100.6592c-1.860267 12.544-7.1168 20.258133-15.616 23.108267a136.942933 136.942933 0 0 1-27.136 5.802667l-1.399467 0.170666-0.341333-1.365333a57.053867 57.053867 0 0 0-8.567467-18.909867l-1.877333-2.696533 3.2768 0.170667a66.679467 66.679467 0 0 0 25.668267-2.0992 10.205867 10.205867 0 0 0 6.075733-10.427734l5.188267-103.509333h-28.433067a434.688 434.688 0 0 1-5.666133 57.890133 155.016533 155.016533 0 0 1-12.458667 37.9392 207.36 207.36 0 0 1-34.133333 44.987734l-1.143467 1.194666z m-12.8-14.199466c4.693333 2.56 8.977067 5.768533 12.714667 9.557333a199.9872 199.9872 0 0 0 32.4608-43.008 151.3984 151.3984 0 0 0 12.1856-37.137067c3.2256-19.490133 5.12-39.185067 5.6832-58.9312l0.068266-1.536h34.901334l-0.1024 1.6896-5.290667 105.1136a13.277867 13.277867 0 0 1-7.970133 13.312c-7.748267 2.389333-15.906133 3.208533-23.978667 2.4576 3.072 4.949333 5.410133 10.308267 6.929067 15.9232 8.533333-1.024 16.9472-2.8672 25.1392-5.495466 7.338667-2.474667 11.741867-9.130667 13.431466-20.360534l4.369067-100.488533c0.512-8.7552 1.0752-16.725333 1.621333-23.927467h-49.1008v-1.621333c0-10.837333 0.136533-19.6608 0.443734-26.999467 0.2048-6.109867 0.8192-12.1856 1.877333-18.210133a84.667733 84.667733 0 0 1-16.554667-2.167467c0.494933 7.5776 0.733867 15.189333 0.733867 22.647467v26.350933h-14.7968c-7.253333 0-15.0016-0.256-23.04-0.785066v13.346133c8.157867-0.512 15.291733-0.768 21.265067-0.768h16.622933l-0.068267 1.672533c-0.597333 15.2576-1.467733 28.672-2.628266 39.850667a192.733867 192.733867 0 0 1-6.229334 32.512 97.792 97.792 0 0 1-15.189333 30.549333 142.165333 142.165333 0 0 1-25.480533 26.453334z m-76.970667-18.756267l-0.580266-1.4336a90.692267 90.692267 0 0 0-8.635734-16.4864l-0.938666-1.399467 1.416533-0.8704c7.304533-4.5056 14.045867-13.7728 20.036267-27.5456 5.1712-11.588267 9.5232-23.517867 13.0048-35.720533H102.570667c-12.1344 0-22.749867 0.3072-31.556267 0.887467l-1.706667 0.119466v-19.3536l1.706667 0.119467c8.704 0.580267 19.012267 0.887467 31.573333 0.887467h33.399467c10.717867 0 22.818133-0.3072 35.9936-0.887467l1.672533-0.085333v19.285333l-1.655466-0.085333a835.6864 835.6864 0 0 0-35.1232-0.8704h-8.5504c-3.669333 9.728-7.509333 19.421867-11.502934 29.0304a316.740267 316.740267 0 0 1-13.994666 29.252266c20.036267-2.0992 35.754667-4.232533 46.7456-6.331733a220.586667 220.586667 0 0 0-13.175467-24.456533l-0.887467-1.4336 1.4848-0.836267c4.829867-2.5088 9.454933-5.410133 13.824-8.669867l1.4848-1.194666 0.9216 1.672533c5.853867 10.581333 10.820267 19.5584 14.9504 26.9312 4.096 7.406933 8.567467 16.503467 13.2608 27.067733l0.5632 1.297067-1.194666 0.750933c-5.1712 3.208533-10.496 6.178133-15.957334 8.891734l-1.501866 0.750933-0.682667-1.536a347.989333 347.989333 0 0 0-5.597867-12.117333l-44.1344 6.8608a162.013867 162.013867 0 0 0-29.184 6.997333l-1.4336 0.512z m-5.632-18.346667c2.901333 4.539733 5.393067 9.3184 7.4752 14.2848a167.68 167.68 0 0 1 28.3136-6.638933c11.434667-1.757867 26.5216-4.113067 45.294934-7.0656l1.160533-0.170667 0.512 1.041067c1.536 3.072 3.328 6.929067 5.495467 11.776 4.437333-2.235733 8.772267-4.6592 13.0048-7.253333a329.181867 329.181867 0 0 0-12.544-25.514667c-3.908267-6.997333-8.6016-15.4112-14.062934-25.309867-3.6352 2.56-7.406933 4.898133-11.332266 6.997334 5.051733 8.106667 9.489067 16.554667 13.312 25.2928l0.768 1.809066-1.928534 0.392534c-11.656533 2.3552-29.184 4.744533-52.053333 7.082666l-3.072 0.324267 1.501867-2.7136c5.6832-10.24 10.8032-20.804267 15.3088-31.624533 4.130133-9.915733 8.0896-19.9168 11.861333-29.986134l0.392533-1.024h10.8032c9.386667 0 20.6848 0.273067 33.570134 0.802134v-12.509867a861.184 861.184 0 0 1-34.474667 0.802133H102.570667c-11.810133 0-21.674667-0.256-30.0544-0.768v12.458667c8.533333-0.512 18.619733-0.785067 30.0544-0.785067h8.2432l-0.512 2.030934a268.8 268.8 0 0 1-13.704534 38.212266 65.621333 65.621333 0 0 1-19.933866 28.0576h0.017066z m4.949334-113.578666v-20.224l1.723733 0.119466c8.738133 0.6144 17.5104 0.904533 26.282667 0.8704H131.584c10.120533 0 21.333333-0.290133 33.348267-0.8704l1.672533-0.085333v20.155733l-1.672533-0.068266a722.926933 722.926933 0 0 0-33.348267-0.887467H110.4896c-9.216 0-18.363733 0.3072-27.136 0.887467l-1.706667 0.1024z m28.8768-4.215467H131.584c9.386667 0 20.087467 0.273067 31.829333 0.8192v-13.4144c-11.434667 0.512-22.135467 0.802133-31.829333 0.802133H109.602133c-8.8576 0-17.169067-0.256-24.7808-0.750933v13.312c8.533333-0.512 17.1008-0.768 25.668267-0.768h0.017067z m211.968 12.219733h20.241066v-29.149866a147.797333 147.797333 0 0 0-1.774933-23.8592h19.3536c-0.597333 7.082667-0.887467 15.018667-0.887467 23.8592v29.149866c5.870933 0 12.612267-0.290133 20.241067-0.887466v15.906133a301.653333 301.653333 0 0 0-20.241067-0.887467v45.9264a135.168 135.168 0 0 0 24.593067-7.953066c0 5.290667 0.290133 10.5984 0.8704 15.872l-25.4976 7.953066v41.5232c0 10.001067 0.290133 21.504 0.8704 34.440534h-19.319467c1.160533-11.776 1.7408-23.261867 1.757867-34.440534V862.72c-6.4512 1.774933-12.7488 3.6864-18.909867 5.751467a151.552 151.552 0 0 0-19.797333 8.379733 129.467733 129.467733 0 0 0-8.772267-19.456 393.301333 393.301333 0 0 0 47.496534-9.728V796.501333h-22.869334a549.2736 549.2736 0 0 1-7.918933 32.682667 39.082667 39.082667 0 0 0-17.595733-4.437333c5.000533-11.451733 8.686933-23.4496 10.990933-35.754667 1.9456-10.666667 3.259733-21.435733 3.959467-32.256a112.128 112.128 0 0 0 21.111466 3.5328c-4.266667 6.673067-6.9632 14.2336-7.918933 22.101333h0.017067z m159.197866-2.6624h-11.451733a433.032533 433.032533 0 0 1-5.717333 51.677867 134.314667 134.314667 0 0 1-12.7488 38.4 161.1776 161.1776 0 0 1-21.5552 31.351467 163.771733 163.771733 0 0 1-34.747734 28.706133 46.984533 46.984533 0 0 0-15.8208-14.1312 100.795733 100.795733 0 0 0 35.601067-22.9376 112.9472 112.9472 0 0 0 21.5552-31.351467c5.461333-12.117333 9.301333-24.8832 11.434667-37.9904 2.338133-13.824 4.096-28.398933 5.2736-43.7248h-14.9504a170.496 170.496 0 0 1-14.506667 53.009067 147.0976 147.0976 0 0 1-29.474133 44.151467 29.696 29.696 0 0 0-16.725334-11.4688 115.387733 115.387733 0 0 0 30.344534-37.102934c7.304533-15.36 12.1856-31.744 14.506666-48.5888h-13.1584a300.032 300.032 0 0 1-19.3536 34.4576 42.325333 42.325333 0 0 0-15.8208-8.840533 208.8448 208.8448 0 0 0 27.255467-46.813867c4.437333-10.274133 7.953067-20.906667 10.564267-31.7952 7.133867 3.157333 14.4896 5.802667 21.998933 7.953067a34.030933 34.030933 0 0 0-8.362667 11.485867c-2.628267 5.290667-5.410133 11.485867-8.362666 18.551466h82.670933a1365.845333 1365.845333 0 0 0-4.846933 83.029334c-0.853333 29.422933-1.7408 48.571733-2.628267 57.412266-0.3072 8.021333-5.290667 15.104-12.7488 18.090667-10.752 3.976533-22.016 6.5024-33.416533 7.509333a40.721067 40.721067 0 0 0-8.8064-20.309333c16.9984 1.194667 27.409067 0.887467 31.232-0.887467 3.84-1.774933 6.024533-6.775467 6.6048-15.018666l6.161066-114.824534z m-119.688533 156.16h-22.8352l0.170667-1.757866c1.160533-11.776 1.757867-23.313067 1.757866-34.304v-34.986667c-5.632 1.5872-11.229867 3.310933-16.7936 5.154133a152.098133 152.098133 0 0 0-19.575466 8.311467l-1.655467 0.8192-0.597333-1.757867a131.498667 131.498667 0 0 0-8.704-19.182933l-1.1264-2.0992 2.389333-0.273067c15.530667-2.184533 30.907733-5.290667 46.08-9.3696v-48.315733h-19.968c-2.2528 10.581333-4.8128 21.077333-7.68 31.505067l-0.512 1.877333-1.774933-0.853333a37.563733 37.563733 0 0 0-16.861867-4.266667h-2.423467l0.955734-2.235733a164.864 164.864 0 0 0 10.888533-35.4304c1.928533-10.581333 3.242667-21.2992 3.9424-32.0512l0.119467-1.979734 1.911466 0.512c6.8096 1.809067 13.7728 2.986667 20.821334 3.4816l2.901333 0.221867-1.757867 2.3552a48.981333 48.981333 0 0 0-7.2704 19.5072h16.6912v-27.5456a147.524267 147.524267 0 0 0-1.7408-23.586133l-0.3072-1.877334h22.9888l-0.136533 1.757867c-0.597333 6.8608-0.887467 14.848-0.887467 23.722667v27.511466c6.178133-0.068267 12.356267-0.3584 18.500267-0.853333l1.723733-0.170667v13.124267c7.509333-10.9568 13.824-22.664533 18.8928-34.9184 4.4032-10.171733 7.901867-20.718933 10.461867-31.488l0.375467-1.9968 1.8432 0.802133c7.082667 3.1232 14.336 5.751467 21.777066 7.850667l3.072 0.853333-2.4576 1.979734c-3.3792 3.072-6.075733 6.792533-7.918933 10.9568-2.389333 4.778667-4.864 10.24-7.389867 16.213333h82.005334l-0.170667 1.7408a1380.727467 1380.727467 0 0 0-4.829867 82.944c-0.853333 29.354667-1.7408 48.6912-2.628266 57.514667-0.375467 8.618667-5.7344 16.213333-13.7216 19.456a131.549867 131.549867 0 0 1-33.877334 7.6288l-1.621333 0.170666-0.170667-1.6384a39.424 39.424 0 0 0-8.465066-19.5072l-2.116267-2.816 3.498667 0.256c5.700267 0.426667 11.4176 0.6656 17.117866 0.699734 4.488533 0.341333 9.0112-0.136533 13.312-1.450667 3.242667-1.501867 5.12-6.075733 5.6832-13.653333l6.058667-113.117867h-8.226133c-0.887467 16.896-2.7648 33.706667-5.632 50.363733a137.147733 137.147733 0 0 1-12.9024 38.877867 164.352 164.352 0 0 1-21.777067 31.675733 166.536533 166.536533 0 0 1-35.089067 28.9792l-1.314133 0.853334-0.887467-1.297067a45.7216 45.7216 0 0 0-15.3088-13.653333l-2.833066-1.655467 3.072-1.2288a99.498667 99.498667 0 0 0 35.037866-22.5792 111.616 111.616 0 0 0 21.265067-30.9248 150.135467 150.135467 0 0 0 11.298133-37.563733c2.321067-13.8752 4.027733-27.818667 5.12-41.847467h-11.776a173.192533 173.192533 0 0 1-14.506666 52.053333 148.992 148.992 0 0 1-29.781334 44.6464l-1.365333 1.399467-1.109333-1.655467a28.245333 28.245333 0 0 0-15.872-10.820266l-2.833067-0.887467 2.286933-1.911467a114.1248 114.1248 0 0 0 29.934934-36.573866c6.9632-14.6432 11.7248-30.208 14.114133-46.250667h-10.3424c-5.597867 11.656533-11.946667 22.9376-19.012267 33.757867l-1.024 1.4848-1.365333-1.194667a41.1136 41.1136 0 0 0-15.240533-8.482133l-2.218667-0.6656 1.399467-1.8432c1.365333-1.860267 2.730667-3.703467 4.027733-5.5296a300.612267 300.612267 0 0 0-16.093867-0.7168v42.257066c7.662933-1.774933 15.1552-4.232533 22.357334-7.3728l2.269866-1.024v2.5088c0 5.256533 0.290133 10.496 0.8704 15.701334l0.136534 1.365333-1.262934 0.392533c-7.3216 2.269867-15.445333 4.778667-24.3712 7.5776v40.328534c0 10.154667 0.290133 21.725867 0.8704 34.372266l0.119467 1.6384z m-19.268267-3.208533h15.872a786.551467 786.551467 0 0 1-0.785066-32.836267v-42.7008l1.1264-0.3584 24.234666-7.560533a142.1824 142.1824 0 0 1-0.733866-12.288 148.343467 148.343467 0 0 1-22.664534 7.0656l-1.962666 0.4608v-49.578667h1.5872c4.932267 0 11.042133 0.256 18.6368 0.750934v-12.424534a251.904 251.904 0 0 1-18.619734 0.750934h-1.604266v-30.754134c0-8.192 0.238933-15.6672 0.733866-22.237866h-15.7184c1.024 7.3728 1.518933 14.7968 1.467734 22.237866v30.7712h-23.739734l0.341334-1.8944a61.952 61.952 0 0 1 6.656-20.4288 113.800533 113.800533 0 0 1-16.7936-2.850133 288.034133 288.034133 0 0 1-3.857067 30.464 167.543467 167.543467 0 0 1-10.1888 33.962667c4.898133 0.341333 9.710933 1.5872 14.165333 3.652266a556.373333 556.373333 0 0 0 7.389867-30.72l0.256-1.28h25.770667v54.101334l-1.194667 0.3072a419.669333 419.669333 0 0 1-45.3632 9.472c2.730667 5.12 5.12 10.427733 7.168 15.872a149.504 149.504 0 0 1 18.363733-7.68c6.280533-2.082133 12.5952-4.010667 18.978134-5.768534l2.048-0.546133v39.202133c0 10.5472-0.529067 21.572267-1.5872 32.853334l0.017066-0.017067z m98.2528-20.411733c3.498667 4.983467 5.870933 10.683733 6.929067 16.6912a125.2352 125.2352 0 0 0 31.402667-7.202134c6.894933-2.747733 11.52-9.335467 11.776-16.776533 0.853333-8.7552 1.7408-28.040533 2.628266-57.2928 0.853333-28.842667 2.440533-56.200533 4.676267-81.373867h-83.336533l0.904533-2.218666c2.594133-6.314667 5.393067-12.544 8.413867-18.670934 1.706667-3.6352 3.925333-6.997333 6.6048-10.001066a174.421333 174.421333 0 0 1-17.6128-6.4512 219.528533 219.528533 0 0 1-10.24 30.139733 198.997333 198.997333 0 0 1-21.879467 39.424v0.580267l-0.375467-0.034134c-1.262933 1.792-2.56 3.584-3.8912 5.410134 4.676267 1.6896 9.045333 4.1472 12.885334 7.287466 6.724267-10.581333 12.8-21.504 18.244266-32.802133l0.443734-0.8704h16.0768l-0.3072 1.860267a169.0624 169.0624 0 0 1-14.6432 49.0496 116.0704 116.0704 0 0 1-28.586667 35.771733c5.358933 1.877333 10.0864 5.188267 13.687467 9.591467a147.490133 147.490133 0 0 0 27.818666-42.325334 169.506133 169.506133 0 0 0 14.370134-52.497066l0.1536-1.450667h18.141866l-0.136533 1.723733c-1.109333 14.6944-2.8672 29.3376-5.290667 43.861334a154.146133 154.146133 0 0 1-11.554133 38.4 115.1488 115.1488 0 0 1-21.845333 31.812266 101.102933 101.102933 0 0 1-33.262934 22.1184c4.9152 3.072 9.216 7.031467 12.731734 11.639467a147.643733 147.643733 0 0 0 54.442666-58.606933c6.075733-11.946667 10.325333-24.746667 12.5952-37.956267 2.901333-17.032533 4.8128-34.218667 5.6832-51.473067l0.085334-1.536h14.626133l-6.2464 116.5312c-0.648533 8.977067-3.1232 14.336-7.5264 16.384-3.874133 1.826133-13.175467 2.218667-28.603733 1.28v-0.017066z m116.343467-112.2304c-4.744533 3.413333-9.1648 7.253333-13.192533 11.4688a303.069867 303.069867 0 0 0-23.7568-29.1328c4.096-3.5328 7.936-7.3728 11.434666-11.485867 8.192 8.840533 16.6912 18.568533 25.4976 29.166933l0.017067-0.017066z m95.863467-48.5888h39.594666c9.949867 0 21.384533-0.290133 34.304-0.887467v15.018667a737.911467 737.911467 0 0 0-34.304-0.887467h-116.1216a487.918933 487.918933 0 0 0-0.443733 37.102933c0.290133 14.1312-0.136533 29.013333-1.314133 44.612267a261.9392 261.9392 0 0 1-7.918934 46.813867 127.8976 127.8976 0 0 1-19.3536 41.984 147.3024 147.3024 0 0 0-19.3536-9.728c5.290667-6.485333 10.120533-12.970667 14.506667-19.456 4.983467-7.765333 8.686933-16.264533 11.008-25.173334 3.208533-11.997867 5.256533-24.2688 6.144-36.6592a201.728 201.728 0 0 0-31.658667 20.309334 120.046933 120.046933 0 0 0-7.048533-20.309334c7.048533-2.935467 13.636267-5.7344 19.797333-8.3968 6.144-2.645333 12.7488-5.461333 19.797334-8.379733v-36.215467c0-18.8416-0.3072-32.085333-0.887467-39.765333h72.994133a100.4544 100.4544 0 0 0-6.144-20.309333 215.893333 215.893333 0 0 0 19.3536-5.290667c2.798933 8.413867 5.154133 16.964267 7.031467 25.634133h0.017067z m-60.689067 97.160533c10.564267 0.597333 21.7088 0.904533 33.4336 0.887467h80.896c-4.7104 7.662933-9.984 16.349867-15.837867 26.0608a151.552 151.552 0 0 1-25.4976 30.464c8.6016 3.874133 17.578667 6.826667 26.811734 8.840533 11.776 2.030933 23.688533 2.901333 35.6352 2.645333a26.999467 26.999467 0 0 0-8.8064 19.456 213.333333 213.333333 0 0 1-37.819734-7.953066 133.5296 133.5296 0 0 1-30.7712-14.1312 201.591467 201.591467 0 0 1-65.092266 21.1968c-2.56-6.826667-6.8096-12.885333-12.322134-17.664a230.331733 230.331733 0 0 0 34.304-3.5328 158.276267 158.276267 0 0 0 29.9008-9.728 159.351467 159.351467 0 0 1-27.255466-42.3936c-0.597333 0-6.468267 0.290133-17.578667 0.8704v-15.018667z m94.1056-52.087467v15.872c0 5.888 2.645333 8.704 7.918933 8.3968 5.290667-0.290133 12.5952-1.024 21.981867-2.218666-2.218667 5.000533-2.833067 10.5472-1.757867 15.906133-18.773333 0.597333-30.788267-0.136533-36.061866-2.218667a12.3392 12.3392 0 0 1-7.918934-12.8v-28.2624h-40.448c0 17.066667-2.491733 28.842667-7.4752 35.328-5.614933 6.997333-12.663467 12.714667-20.650666 16.776534a37.307733 37.307733 0 0 0-14.967467-12.356267c15.240533-4.7104 23.296-11.912533 24.200533-21.640533 0.887467-9.728 1.314133-20.189867 1.314134-31.368534h74.752a141.226667 141.226667 0 0 0-0.887467 18.5856z m-6.144 66.218667h-53.674667c10.5472 18.261333 18.466133 29.457067 23.7568 33.570133a136.2432 136.2432 0 0 0 29.917867-33.570133z m40.2944 76.032l-1.809067-0.221867a218.299733 218.299733 0 0 1-38.0928-8.021333 136.448 136.448 0 0 1-30.3616-13.824 204.322133 204.322133 0 0 1-64.785066 20.9408l-1.450667 0.221867-0.341333-1.4336a42.820267 42.820267 0 0 0-11.895467-16.913067l-2.577067-2.56 3.652267-0.170667c11.434667-0.324267 22.801067-1.4848 34.048-3.4816 9.386667-2.048 18.568533-4.949333 27.426133-8.704a168.226133 168.226133 0 0 1-25.463466-40.157866c-2.6112 0.1024-9.762133 0.477867-16.520534 0.836266l-1.6896 0.085334v-18.432l1.706667 0.1024c10.2912 0.580267 21.504 0.8704 33.3312 0.8704h83.797333l-1.518933 2.474666c-4.693333 7.645867-9.966933 16.315733-15.8208 26.026667a150.306133 150.306133 0 0 1-24.029867 29.115733c7.8336 3.3792 15.9744 5.973333 24.302934 7.7824 11.656533 1.9968 23.466667 2.884267 35.293866 2.6112h3.8912l-2.7648 2.7648a25.6 25.6 0 0 0-8.3456 18.295467v1.826133l0.017067-0.034133z m-70.144-25.770667l0.785067 0.512a132.010667 132.010667 0 0 0 30.429866 13.943467c11.690667 3.601067 23.671467 6.178133 35.7888 7.68 0.477867-5.905067 2.833067-11.52 6.7072-16.008533a174.6944 174.6944 0 0 1-32.324266-2.6624 137.5232 137.5232 0 0 1-27.136-8.925867l-2.218667-0.9728 1.774933-1.672533a150.408533 150.408533 0 0 0 25.224534-30.139734c5.239467-8.704 10.018133-16.554667 14.336-23.620266h-78.08c-11.264 0-21.9136-0.256-31.812267-0.785067v11.605333c11.349333-0.597333 15.445333-0.785067 15.991467-0.785066h1.024l0.426666 0.904533a158.651733 158.651733 0 0 0 26.965334 41.984l1.6896 1.6896-2.2016 0.9216c-9.728 4.266667-19.831467 7.560533-30.208 9.813333-10.24 1.877333-20.5824 3.003733-30.976 3.413334 4.1984 4.096 7.543467 8.977067 9.8304 14.3872a200.157867 200.157867 0 0 0 63.1808-20.821334l0.802133-0.4608z m-102.519467 24.32l-1.28-0.768a144.384 144.384 0 0 0-19.114666-9.591466l-1.9968-0.853334 1.365333-1.672533c5.085867-6.229333 9.898667-12.680533 14.421333-19.336533a86.357333 86.357333 0 0 0 10.786134-24.695467c2.935467-10.922667 4.881067-22.0672 5.819733-33.314133a190.122667 190.122667 0 0 0-28.757333 18.688l-1.979734 1.6384-0.6144-2.491734a118.9888 118.9888 0 0 0-6.929066-20.053333l-0.682667-1.536 1.536-0.631467c6.997333-2.9184 13.602133-5.7344 19.7632-8.379733 5.870933-2.525867 12.151467-5.188267 18.807467-7.9872v-25.6512l-1.024 0.682667a95.0272 95.0272 0 0 0-12.970667 11.264l-1.314133 1.348266-1.109334-1.536a302.421333 302.421333 0 0 0-23.620266-29.013333l-1.1264-1.194667 1.245866-1.109333a104.448 104.448 0 0 0 11.264-11.298133l1.194667-1.416534 1.2288 1.348267c8.277333 8.925867 16.896 18.756267 25.565867 29.184l0.682666 0.8192v-8.618667c0-18.619733-0.3072-31.965867-0.887466-39.611733l-0.119467-1.7408h72.772267a100.795733 100.795733 0 0 0-5.700267-18.090667l-0.7168-1.757866 1.860267-0.426667c7.543467-1.757867 13.994667-3.515733 19.2-5.256533l1.536-0.512 0.512 1.536c2.696533 8.055467 4.949333 16.213333 6.8096 24.507733h38.229333c10.120533 0 21.623467-0.290133 34.218667-0.887467l1.6896-0.068266v18.3808l-1.6896-0.068267a732.194133 732.194133 0 0 0-34.218667-0.887467h-114.568533c-0.512 10.120533-0.648533 22.016-0.3584 35.464534 0.273067 14.114133-0.170667 29.184-1.3312 44.7488a264.533333 264.533333 0 0 1-7.953067 47.104 130.167467 130.167467 0 0 1-19.6096 42.496l-0.853333 1.2288z m-17.2032-12.509866c5.597867 2.389333 11.042133 5.12 16.298667 8.192a127.3344 127.3344 0 0 0 18.261333-40.226134c4.010667-15.240533 6.656-30.805333 7.850667-46.523733 1.160533-15.479467 1.604267-30.429867 1.3312-44.458667-0.290133-14.165333-0.1536-26.692267 0.443733-37.205333l0.085334-1.536h117.589333c9.949867 0 20.9408 0.256 32.699733 0.785067v-11.6224c-11.997867 0.512-22.9888 0.802133-32.699733 0.802133h-40.874667l-0.273066-1.28c-1.757867-8.072533-3.925333-16.042667-6.485334-23.9104-4.573867 1.467733-9.966933 2.935467-16.128 4.4032 2.4576 6.0928 4.317867 12.424533 5.546667 18.8928l0.341333 1.877333H561.664c0.512 7.970133 0.750933 20.770133 0.750933 38.144v37.290667l-0.989866 0.4096c-7.0144 2.952533-13.6192 5.751467-19.780267 8.3968-5.700267 2.4576-11.793067 5.0688-18.261333 7.765333 2.338133 5.393067 4.266667 10.9568 5.802666 16.622934a221.269333 221.269333 0 0 1 29.986134-18.909867l2.6112-1.416533-0.238934 2.986666a196.829867 196.829867 0 0 1-6.229333 36.949334 89.480533 89.480533 0 0 1-11.195733 25.6512 264.533333 264.533333 0 0 1-13.2608 17.937066l0.017066-0.017066z m-8.192-142.336a308.224 308.224 0 0 1 21.674667 26.555733 103.594667 103.594667 0 0 1 10.615467-9.3184 696.234667 696.234667 0 0 0-23.0912-26.402133c-2.901333 3.242667-5.973333 6.314667-9.233067 9.181866l0.034133-0.017066z m127.8976 115.882666l-1.024-0.768c-5.495467-4.3008-13.397333-15.428267-24.1664-34.048l-1.3824-2.4064h59.392l-1.5872 2.474667a138.3936 138.3936 0 0 1-30.2592 33.962667l-0.9728 0.785066z m-20.992-33.9968a142.216533 142.216533 0 0 0 20.992 29.866667 135.441067 135.441067 0 0 0 26.914134-29.866667H629.589333z m-28.040533-18.8928l-0.785067-1.365333a35.976533 35.976533 0 0 0-14.336-11.776l-3.3792-1.826133 3.6864-1.1264c14.472533-4.471467 22.237867-11.264 23.04-20.241067 0.853333-9.608533 1.314133-20.1216 1.314134-31.232v-1.604267h78.216533l-0.273067 1.8432c-0.682667 6.075733-0.9728 12.202667-0.853333 18.312534v15.872c0 6.024533 2.9696 6.8096 5.546667 6.8096h0.6656c5.188267-0.290133 12.356267-1.024 21.879466-2.218667l2.6112-0.3072-0.904533 2.474667a25.224533 25.224533 0 0 0-1.723733 14.8992l0.580266 1.9968-2.048 0.0512c-19.114667 0.682667-31.146667-0.119467-36.693333-2.321067a13.824 13.824 0 0 1-8.942933-14.301867V792.746667h-37.256534c-0.1536 16.725333-2.7136 28.091733-7.799466 34.730666-5.768533 7.168-12.970667 13.038933-21.179734 17.2032l-1.365333 0.785067z m-10.410667-14.1312c4.5056 2.440533 8.448 5.802667 11.5712 9.8304a60.603733 60.603733 0 0 0 18.8416-15.633066c4.7616-6.144 7.168-17.698133 7.168-34.338134v-1.604266h43.6736v29.866666a10.752 10.752 0 0 0 6.894934 11.298134c4.864 1.8944 16.213333 2.645333 33.501866 2.167466-0.4608-4.1984 0-8.430933 1.3824-12.424533-8.3456 1.024-14.7456 1.6384-19.5584 1.8944l-0.836266 0.034133c-3.259733 0-8.7552-1.314133-8.7552-10.0352v-15.872a162.065067 162.065067 0 0 1 0.648533-16.9472h-71.3728c0 9.984-0.443733 19.968-1.314133 29.9008-0.853333 9.608533-8.209067 16.964267-21.845334 21.879467z m171.1104 1.365334a77.277867 77.277867 0 0 0-16.725333-3.515734c4.096-8.840533 7.901867-27.682133 11.434667-56.541866 5.512533 1.2288 11.093333 2.116267 16.725333 2.6624-1.194667 5.307733-5.0176 24.456533-11.451733 57.429333v-0.034133z m32.529067-75.076267v140.458667c0 12.356267 0.290133 24.4224 0.887467 36.1984h-18.4832c1.160533-11.776 1.757867-23.8592 1.757866-36.215467v-137.762133a262.792533 262.792533 0 0 0-1.7408-31.7952h18.449067a484.266667 484.266667 0 0 0-0.887467 29.1328h0.017067z m4.4032 15.018667a105.130667 105.130667 0 0 0 14.9504-3.5328c3.515733 12.373333 6.4512 21.794133 8.789333 28.279466-6.4512 1.757867-12.014933 3.515733-16.708266 5.290667-1.194667-7.0656-3.549867-17.066667-7.048534-30.020267z m21.111467 25.6c14.062933 0.597333 26.965333 0.887467 38.690133 0.887466h17.5616v-14.1312h-16.725333c-9.949867 0-20.224 0.290133-30.7712 0.887467v-15.018667c10.564267 0.597333 20.821333 0.887467 30.788266 0.887467h16.708267v-12.373333h-18.432c-9.386667 0-20.821333 0.290133-34.304 0.887466v-14.984533c14.08 0.597333 25.514667 0.887467 34.304 0.887467h18.432c0-5.888-0.290133-11.776-0.887467-17.664h18.4832c-0.597333 5.870933-0.887467 11.776-0.887466 17.664h23.7568c9.949867 0 19.336533-0.290133 28.16-0.887467v15.018667a428.612267 428.612267 0 0 0-28.16-0.887467h-23.7568v12.373333h16.725333c9.3696 0 19.0464-0.290133 29.013333-0.887466v15.035733a536.661333 536.661333 0 0 0-29.013333-0.887467h-16.725333v14.1312h25.514666c14.062933 0 25.4976-0.290133 34.304-0.8704v15.018667a570.282667 570.282667 0 0 0-35.191466-0.904533h-58.026667c-15.2576 0-28.450133 0.3072-39.594667 0.887466v-15.018666l0.034134-0.0512z m14.062933 62.72c0-13.533867-0.290133-25.9072-0.8704-37.102934h100.266667a464.008533 464.008533 0 0 0-0.887467 28.2624v66.2528a11.690667 11.690667 0 0 1-7.031467 12.356267c-5.717333 2.030933-11.605333 3.515733-17.595733 4.437333a42.154667 42.154667 0 0 0-6.144-16.7936c8.192 0 12.885333-0.887467 14.062933-2.6624 1.194667-1.757867 1.774933-8.2432 1.774934-19.421866h-67.754667v38.8608h-16.725333c0.597333-13.550933 0.887467-25.326933 0.887466-35.328v-38.8608h0.017067z m82.670933-7.953067v-15.872h-66.850133v15.906133h66.833067l0.017066-0.034133z m0 30.037333v-16.725333h-66.850133v16.776533h66.833067l0.017066-0.068266z m-10.205866 53.981867l-0.170667-1.6896a40.516267 40.516267 0 0 0-5.956267-16.128l-1.450666-2.4576h2.833066c10.922667 0 12.526933-1.621333 12.7488-1.928533 0.426667-0.648533 1.416533-3.618133 1.467734-16.930134h-64.512v38.8608h-19.968l0.085333-1.672533c0.580267-13.602133 0.8704-25.4464 0.8704-35.259733v-38.8608c0-13.346133-0.290133-25.787733-0.8704-37.034667l-0.1024-1.672533h103.6288l-0.1024 1.706666c-0.580267 9.3696-0.8704 18.773333-0.887467 28.16v66.235734a13.175467 13.175467 0 0 1-8.072533 13.8752c-5.802667 2.048-11.810133 3.584-17.92 4.5056l-1.621333 0.290133z m-71.68-3.4816h13.431466v-38.8608h70.929067v1.604267c0 15.274667-1.092267 18.8928-2.048 20.309333-0.955733 1.4336-3.293867 3.072-12.663467 3.345067 2.304 4.1472 3.925333 8.6528 4.778667 13.312 5.3248-0.887467 10.581333-2.235733 15.650133-4.0448a10.103467 10.103467 0 0 0 6.007467-10.8544V852.138667c0-8.465067 0.256-17.408 0.768-26.658134h-96.836267c0.512 10.837333 0.785067 22.766933 0.785067 35.498667v38.8608c0 9.472-0.256 20.7872-0.802133 33.723733v-0.034133z m-37.802667 2.338133h-21.930667l0.170667-1.774933c1.160533-11.776 1.757867-23.9104 1.757867-36.061867v-137.745066a260.1472 260.1472 0 0 0-1.757867-31.5904l-0.221867-1.826134h22.016l-0.119466 1.706667a493.602133 493.602133 0 0 0-0.8704 29.064533v140.424534c0 12.4928 0.290133 24.644267 0.8704 36.1472l0.085333 1.655466z m-18.397867-3.242666h15.018667a750.813867 750.813867 0 0 1-0.802133-34.594134V757.589333c0-9.0112 0.256-18.261333 0.785066-27.528533h-14.967466c1.092267 10.0352 1.604267 20.1216 1.536 30.208v137.796267c0.034133 11.554133-0.512 23.108267-1.570134 34.6112v-0.034134z m139.6736-47.991467h-70.0416v-19.968h70.0416v20.002133-0.034133z m-66.833066-3.2256h63.6416v-13.550933h-63.658667v13.550933z m66.833066-26.794667h-70.0416v-19.131733h70.0416v19.114667z m-66.833066-3.242666h63.6416v-12.663467h-63.658667v12.663467z m-88.337067-16.571734l-1.723733-0.597333a75.7248 75.7248 0 0 0-16.384-3.447467l-2.269867-0.238933 0.955733-2.048c4.027733-8.6528 7.8336-27.511467 11.298134-56.029867l0.221866-1.792 1.723734 0.392534c5.461333 1.211733 10.973867 2.082133 16.520533 2.628266l1.809067 0.170667-0.392534 1.774933c-1.194667 5.393067-5.034667 24.712533-11.434666 57.3952l-0.324267 1.792z m-15.598933-6.997333c4.437333 0.546133 8.8576 1.4848 13.141333 2.798933 5.632-28.791467 9.216-46.882133 10.717867-53.930666a145.339733 145.339733 0 0 1-13.380267-2.0992c-3.208533 25.924267-6.741333 43.793067-10.478933 53.248v-0.034134z m206.848-12.8l-1.706667-0.136533a556.202667 556.202667 0 0 0-35.089067-0.8704h-58.043733a771.413333 771.413333 0 0 0-39.509333 0.8704l-1.672534 0.1024v-14.711467c-4.471467 1.314133-8.465067 2.628267-11.912533 3.925333l-1.826133 0.682667-0.324267-1.928533c-1.160533-6.997333-3.515733-17.0496-6.997333-29.866667l-0.477867-1.774933 1.809067-0.238934c4.983467-0.8192 9.898667-1.979733 14.711466-3.498666l1.536-0.4608 0.443734 1.570133c3.584 12.629333 6.468267 21.845333 8.772266 28.16 12.2368 0.477867 23.842133 0.7168 34.56 0.7168h15.9744v-10.9056h-15.104c-9.796267 0-20.1216 0.290133-30.685866 0.887467l-1.706667 0.085333v-18.432l1.706667 0.1024c10.274133 0.580267 20.599467 0.8704 30.685866 0.8704h15.104v-9.130667h-16.827733c-9.216 0-20.718933 0.290133-34.235733 0.8704l-1.672534 0.085334v-18.397867l1.672534 0.085333c13.738667 0.580267 25.258667 0.8704 34.235733 0.8704h16.8448a179.882667 179.882667 0 0 0-0.853333-15.889066l-0.170667-1.774934h22.016l-0.170667 1.774934c-0.512 5.205333-0.8192 10.530133-0.853333 15.889066h22.1184c10.0352 0 19.456-0.290133 28.040533-0.8704l1.706667-0.119466v18.449066l-1.706667-0.1024a426.257067 426.257067 0 0 0-28.040533-0.887466h-22.1696v9.147733h15.104c9.659733 0 19.285333-0.290133 28.928-0.8704l1.706667-0.119467v18.432l-1.706667-0.085333c-9.6256-0.5632-19.285333-0.853333-28.928-0.887467h-15.104v10.922667h23.893333c14.336 0 25.514667-0.3072 34.2016-0.887467l1.706667-0.136533v18.4832z m-132.8128-15.069867v11.6224a818.858667 818.858667 0 0 1 37.973333-0.785066h58.043733c13.636267 0 24.917333 0.256 33.5872 0.768v-11.5712c-8.516267 0.512-19.217067 0.785067-32.699733 0.785066h-27.136v-17.3568h18.312533c8.2432 0 17.442133 0.256 27.426134 0.785067v-11.5712c-9.216 0.512-18.432 0.768-27.426134 0.768h-18.312533v-15.581867h25.344c9.250133 0 18.158933 0.256 26.555733 0.768v-11.554133c-8.192 0.512-17.117867 0.768-26.555733 0.768h-25.344v-1.604267c0-5.393067 0.238933-10.786133 0.7168-16.042666h-14.9504c0.494933 5.376 0.733867 10.769067 0.733867 16.042666v1.604267H858.112c-8.6528 0-19.643733-0.273067-32.699733-0.802133v11.639466c12.8512-0.512 23.842133-0.802133 32.699733-0.802133h20.0704v15.581867h-18.312533c-9.5744 0-19.387733-0.256-29.184-0.785067v11.605333c10.052267-0.512 19.848533-0.785067 29.184-0.785066h18.312533v17.339733h-19.182933c-11.485867 0-23.927467-0.273067-37.12-0.8192z m-20.6848-25.992533c2.952533 11.008 5.051733 19.933867 6.263466 26.555733 3.310933-1.194667 7.0656-2.389333 11.2128-3.618133v-0.3072l0.955734 0.034133 1.194666-0.341333a460.629333 460.629333 0 0 1-7.799466-25.156267c-3.8912 1.1776-7.850667 2.133333-11.8272 2.850134zM834.56 307.2v174.08c-13.653333-0.904533-27.306667-0.904533-40.96 0-29.44 1.28-35.84-15.36-35.84-15.36-3.84-30.72-25.6-25.6-25.6-25.6 0-42.24-20.48-35.84-20.48-35.84 3.84-38.4-30.72-30.72-30.72-30.72-21.76-46.08-46.08-10.24-46.08-10.24-38.4-37.12-46.08 5.12-46.08 5.12-53.76-10.24-40.96 25.6-40.96 25.6s-6.4 12.8-15.36 10.24c-8.96-2.56-14.08 14.08-10.24 15.36 3.84 1.28 5.12 20.48 5.12 20.48s-7.68-2.56-40.96 30.72 20.48 51.2 20.48 51.2 44.8 5.12 66.56 5.12 38.4 15.36 35.84 61.44c-2.56 46.08 15.36 97.28 15.36 97.28h-143.36l-5.12-40.96c-21.76-34.56-10.24-81.92-10.24-81.92-24.32-92.16-71.68-87.04-71.68-87.04l-153.6-5.12c3.84-11.52-28.16-35.84-46.08-56.32-17.92-20.48 0-30.72 0-30.72l199.68-199.68s8.96 110.08 76.8 87.04c67.84-23.04 28.16-98.56 10.24-117.76-17.92-19.2 0-20.48 0-20.48l174.08 158.72h143.36c47.36 0 35.84 15.36 35.84 15.36z m-458.24-10.24h-25.6a12.8 12.8 0 1 0 0 25.6h25.6a12.8 12.8 0 1 0 0-25.6z m89.6-35.84c-40.96 21.76-56.32-35.84-56.32-35.84 35.84-84.48-97.28-81.92-97.28-81.92 19.2-34.56 129.28-34.56 158.72 10.24 29.44 44.8 35.84 85.76-5.12 107.52z m102.4 174.08a10.24 10.24 0 1 1 0 20.48 10.24 10.24 0 0 1 0-20.48z" fill="#FF0000" /></svg>