<?xml version="1.0" standalone="no"?><!DOCTYPE svg PUBLIC "-//W3C//DTD SVG 1.1//EN" "http://www.w3.org/Graphics/SVG/1.1/DTD/svg11.dtd"><svg class="icon" width="1000px" height="1000.00px" viewBox="0 0 1024 1024" version="1.1" xmlns="http://www.w3.org/2000/svg"><path d="M864 1024H160A160 160 0 0 1 0 864V160A160 160 0 0 1 160 0h704A160 160 0 0 1 1024 160v704A160 160 0 0 1 864 1024z m128-832a160 160 0 0 0-160-160h-640a160 160 0 0 0-160 160v640a160 160 0 0 0 160 160h640a160 160 0 0 0 160-160v-640z" fill="#FF0000" /><path d="M231.543467 757.077333c5.8368 5.290667 12.288 10.9056 19.3024 16.7936a77.141333 77.141333 0 0 0-20.189867 16.7936c-7.611733 8.277333-14.933333 16.2304-21.947733 23.893334 11.1104 7.662933 19.3024 13.1072 24.576 16.349866 5.256533 3.242667 12.578133 8.106667 21.947733 14.592-5.5808 5.12-10.325333 11.093333-14.045867 17.681067-6.912-6.792533-14.2336-13.141333-21.947733-19.012267a640.6144 640.6144 0 0 0-24.576-18.1248 156.842667 156.842667 0 0 0 5.256533 34.474667c2.747733 10.257067 7.202133 19.968 13.175467 28.740267 4.5568 7.355733 10.9056 13.431467 18.432 17.698133 6.434133 3.242667 10.666667 2.5088 12.731733-2.218667 2.594133-7.1168 4.215467-14.5408 4.829867-22.101333 6.024533 4.488533 12.4928 8.328533 19.319467 11.502933a102.656 102.656 0 0 1-12.288 30.498134c-4.096 5.597867-10.837333 7.509333-20.206934 5.751466a56.200533 56.200533 0 0 1-28.091733-16.384 87.944533 87.944533 0 0 1-21.504-36.693333 197.358933 197.358933 0 0 1-8.772267-52.1728c-0.887467-19.456-1.024-40.977067-0.443733-64.5632H99.84c-7.6288 0-16.401067 0.3072-26.333867 0.904533V743.765333c9.9328 0.597333 18.432 0.904533 25.463467 0.887467h96.5632c-1.1776 11.793067-1.757867 22.698667-1.757867 32.7168v29.184a227.84 227.84 0 0 0 37.768534-49.493333z m10.632533 175.5648a35.7888 35.7888 0 0 1-6.570667-0.6656 57.9584 57.9584 0 0 1-28.910933-16.776533 89.9584 89.9584 0 0 1-21.9136-37.376c-5.290667-17.066667-8.277333-34.747733-8.874667-52.599467-0.853333-19.0976-1.024-40.277333-0.477866-63.0272H99.84c-7.458133 0-16.298667 0.3072-26.248533 0.887467l-1.706667 0.119467V742.058667l1.706667 0.1024c8.448 0.546133 16.896 0.853333 25.378133 0.887466h98.3552l-0.170667 1.774934c-1.1264 10.820267-1.706667 21.674667-1.757866 32.546133v25.344c13.482667-13.994667 25.173333-29.610667 34.7648-46.4896l0.989866-1.706667 1.467734 1.314134c5.819733 5.290667 12.288 10.922667 19.285333 16.759466l1.877333 1.604267-2.2016 1.092267a75.7248 75.7248 0 0 0-19.729066 16.452266c-7.168 7.748267-14.062933 15.2576-20.6848 22.493867 10.154667 6.997333 17.885867 12.151467 22.971733 15.274667 5.256533 3.242667 12.458667 8.021333 22.016 14.626133l1.6896 1.1776-1.536 1.365333c-5.461333 5.000533-10.0864 10.837333-13.738667 17.288534l-1.024 1.809066-1.467733-1.467733a228.215467 228.215467 0 0 0-21.794133-18.8928c-7.168-5.5296-14.455467-10.922667-21.828267-16.1792 0.631467 10.410667 2.304 20.753067 5.034667 30.839467 2.7136 10.069333 7.082667 19.626667 12.936533 28.245333 4.437333 7.1168 10.564267 13.0048 17.851733 17.152 5.4272 2.7648 8.823467 2.474667 10.530134-1.416533 2.525867-6.9632 4.113067-14.250667 4.7104-21.640534l0.341333-2.747733 2.184533 1.621333c5.956267 4.437333 12.322133 8.226133 19.0464 11.332267l1.245867 0.580267-0.3584 1.3312a103.202133 103.202133 0 0 1-12.561067 31.0272 17.749333 17.749333 0 0 1-15.240533 7.0656zM99.84 759.005867h78.8992l-0.0512 1.655466a930.2528 930.2528 0 0 0 0.443733 64.426667c0.580267 17.5616 3.498667 34.952533 8.704 51.746133a86.869333 86.869333 0 0 0 21.0944 36.010667c7.338667 7.8848 16.827733 13.431467 27.306667 15.940267 8.738133 1.655467 14.848 0 18.602667-5.12 5.358933-8.874667 9.301333-18.551467 11.656533-28.672a110.5408 110.5408 0 0 1-16.145067-9.489067c-0.682667 6.792533-2.218667 13.482667-4.608 19.8656-2.4064 5.563733-7.594667 6.7584-14.916266 3.003733a53.128533 53.128533 0 0 1-19.0464-18.210133 96.7168 96.7168 0 0 1-13.4144-29.218133 159.1808 159.1808 0 0 1-5.290667-34.816l-0.170667-3.2768 2.6624 1.877333c7.5776 5.256533 15.872 11.383467 24.644267 18.158933 7.2192 5.495467 14.114133 11.4176 20.650667 17.698134 3.2768-5.461333 7.236267-10.461867 11.810133-14.8992-8.704-5.973333-15.36-10.3936-20.224-13.397334a634.948267 634.948267 0 0 1-24.644267-16.384l-1.536-1.024 1.262934-1.365333c7.031467-7.68 14.336-15.650133 21.947733-23.9104a87.005867 87.005867 0 0 1 18.5344-15.9744 669.678933 669.678933 0 0 1-16.093867-13.994667 227.959467 227.959467 0 0 1-37.034666 48.162134l-2.696534 2.628266v-32.9728c0-9.557333 0.512-20.036267 1.5872-31.112533H98.952533c-6.792533 0-14.7968-0.256-23.876266-0.768v14.2336c8.2432-0.512 16.503467-0.785067 24.763733-0.802133z m249.821867 45.824a281.258667 281.258667 0 0 1-10.990934 17.681066v79.581867c0 7.68 0.290133 19.456 0.887467 35.362133h-18.432c0.580267-17.681067 0.853333-30.941867 0.8704-39.7824v-56.593066a139.264 139.264 0 0 1-21.077333 26.5216 194.730667 194.730667 0 0 0-11.4176-15.018667 214.647467 214.647467 0 0 0 31.624533-37.154133c7.594667-11.776 14.336-22.971733 20.189867-33.5872 5.853867 3.5328 12.578133 7.355733 20.189866 11.485866-4.949333 2.645333-9.0624 6.621867-11.861333 11.502934z m-14.506667-46.421334a293.717333 293.717333 0 0 1-31.607467 40.226134 125.371733 125.371733 0 0 0-11.400533-13.2608 230.5024 230.5024 0 0 0 25.463467-30.5152 164.864 164.864 0 0 0 16.674133-28.740267c6.656 4.096 13.1072 8.533333 19.319467 13.277867-4.693333 0.597333-10.8544 6.929067-18.449067 19.012266z m131.720533 45.533867c11.1104 0 21.367467-0.3072 30.72-0.887467v17.681067a484.078933 484.078933 0 0 0-29.866666-0.887467h-12.288v96.392534a13.653333 13.653333 0 0 1-6.570667 14.592c-9.386667 3.7376-19.319467 5.973333-29.405867 6.656a49.220267 49.220267 0 0 0-9.6768-21.230934c6.997333 1.024 14.0288 1.450667 21.077334 1.3312 4.096-0.3072 6.434133-3.396267 7.031466-9.284266V819.882667H402.773333c-11.144533 0-21.674667 0.290133-31.607466 0.887466v-17.698133c10.530133 0.6144 21.060267 0.904533 31.607466 0.887467h64.085334l0.017066-0.017067z m-14.933333-60.125867c9.949867 0 20.189867-0.3072 30.72-0.887466v16.7936a594.3296 594.3296 0 0 0-32.477867-0.887467h-32.494933c-12.885333 0-24.0128 0.3072-33.365333 0.887467v-16.810667c9.352533 0.597333 20.48 0.887467 33.365333 0.887467H451.9424zM418.133333 939.2128l-0.238933-1.536a47.9744 47.9744 0 0 0-9.3696-20.514133l-2.235733-3.003734 3.720533 0.426667c6.877867 0.989867 13.824 1.4336 20.770133 1.3312 2.048-0.170667 4.864-1.1264 5.546667-7.8336v-86.6304h-33.553067c-10.9568 0-21.5552 0.290133-31.522133 0.8704l-1.6896 0.119467v-21.111467l1.706667 0.1024a557.909333 557.909333 0 0 0 31.505066 0.8704h64.1024c11.195733 0 21.504-0.290133 30.6176-0.8704l1.706667-0.119467v21.128534l-1.6896-0.119467a482.577067 482.577067 0 0 0-29.7472-0.8704h-10.7008v94.7712a15.0528 15.0528 0 0 1-7.441067 16.008533 96.938667 96.938667 0 0 1-29.969066 6.826667l-1.501867 0.170667z m-4.932266-20.992c3.618133 5.290667 6.178133 11.2128 7.5776 17.442133 9.386667-0.682667 18.602667-2.798933 27.357866-6.280533a12.049067 12.049067 0 0 0 5.7344-13.021867v-98.133333h13.892267c9.796267 0 19.285333 0.256 28.2624 0.768v-14.2336c-8.789333 0.512-18.568533 0.768-29.1328 0.768h-64.119467c-10.120533 0-20.189867-0.256-30.0032-0.785067v14.267734c9.5232-0.512 19.626667-0.785067 30.0032-0.785067h36.727467v90.043733c-0.853333 8.584533-5.102933 10.6496-8.533333 10.888534a109.909333 109.909333 0 0 1-17.7664-0.938667z m-71.970134 20.8384h-21.777066l0.068266-1.655467c0.580267-17.988267 0.8704-30.993067 0.8704-39.748266v-51.029334a149.9648 149.9648 0 0 1-18.346666 22.101334l-1.348267 1.365333-1.092267-1.570133c-4.096-5.853867-7.8848-10.871467-11.3152-14.8992l-0.989866-1.1776 1.092266-1.058134a213.333333 213.333333 0 0 0 31.3856-36.864c7.082667-10.922667 13.806933-22.101333 20.138667-33.501866l0.802133-1.450667 1.4336 0.853333c5.922133 3.584 12.6976 7.441067 20.104534 11.451734l2.56 1.399466-2.56 1.4336a28.535467 28.535467 0 0 0-11.264 10.871467c-2.56 4.590933-6.058667 10.24-10.752 17.408v79.104c0 7.901867 0.3072 19.780267 0.887466 35.328l0.1024 1.6384z m-18.432-3.208533h15.121067a985.480533 985.480533 0 0 1-0.8192-33.774934v-80.0768l0.256-0.4096c4.778667-7.236267 8.362667-12.970667 10.922667-17.578666 2.440533-4.283733 5.870933-7.936 10.018133-10.615467a505.070933 505.070933 0 0 1-16.384-9.335467 594.773333 594.773333 0 0 1-19.456 32.256 214.903467 214.903467 0 0 1-30.7712 36.352c2.9184 3.515733 6.075733 7.68 9.4208 12.407467 7.441067-7.509333 13.994667-15.837867 19.5072-24.849067l2.9696-5.0176v62.446934c0.017067 8.4992-0.256 21.009067-0.802133 38.178133z m-19.370666-134.7072l-1.160534-1.536a124.296533 124.296533 0 0 0-11.264-13.1072l-1.1264-1.1264 1.143467-1.143467a229.410133 229.410133 0 0 0 25.275733-30.3104 164.864 164.864 0 0 0 16.520534-28.433067l0.7168-1.706666 1.5872 0.955733c6.7072 4.113067 13.2096 8.567467 19.456 13.346133l3.191466 2.4064-3.925333 0.512c-2.884267 0.3584-8.192 3.822933-17.3056 18.261334a296.260267 296.260267 0 0 1-31.778133 40.448l-1.3312 1.4336z m-9.0112-15.786667c3.2768 3.413333 6.382933 6.997333 9.2672 10.752a290.116267 290.116267 0 0 0 30.1568-38.6048c6.382933-10.1376 11.776-16.298667 16.384-18.670933a226.645333 226.645333 0 0 0-15.172267-10.3936 175.684267 175.684267 0 0 1-16.093867 27.3408c-7.355733 10.513067-15.5648 20.411733-24.541866 29.576533z m88.337066-23.927467V741.205333l1.706667 0.1024c9.216 0.597333 20.138667 0.887467 33.28 0.887467h34.2528c10.069333 0 20.360533-0.290133 30.634667-0.887467l1.706666-0.085333v20.206933l-1.706666-0.085333a584.072533 584.072533 0 0 0-32.392534-0.887467h-32.529066c-12.6976 0-23.893333 0.290133-33.28 0.887467l-1.672534 0.1024z m34.9696-4.215466h32.494934c10.410667 0 20.7872 0.273067 30.890666 0.785066v-13.380266a559.786667 559.786667 0 0 1-29.149866 0.785066h-34.2528c-12.407467 0-22.818133-0.256-31.744-0.768v13.346134a564.394667 564.394667 0 0 1 31.744-0.750934v-0.017066z m300.305067 98.884266v15.906134c-5.870933-0.580267-15.530667-0.8704-28.9792-0.8704 0 15.325867 0.290133 27.409067 0.8704 36.232533h-17.5616v-8.823467h-47.4112v16.7936a16.247467 16.247467 0 0 1-7.458133 14.165334 88.797867 88.797867 0 0 1-25.9072 6.178133 56.32 56.32 0 0 0-8.772267-19.456c7.031467 0.170667 14.062933-0.119467 21.060267-0.887467a5.256533 5.256533 0 0 0 5.290666-5.290666v-11.502934H559.957333c-6.4512 0-14.045867 0.290133-22.8352 0.887467v-15.9232c8.789333 0.597333 16.384 0.887467 22.8352 0.887467h49.169067v-13.2608H543.232c-7.611733 0-14.933333 0.290133-21.947733 0.8704v-15.906134c7.0144 0.597333 14.336 0.887467 21.947733 0.887467h65.860267v-12.3904h-50.926934c-6.4512 0-13.482667 0.3072-21.077333 0.887467v-15.9232c7.611733 0.6144 14.626133 0.887467 21.077333 0.887466h50.926934v-11.485866h-61.44c0.580267-8.840533 0.853333-16.810667 0.8704-23.893334 0-7.645867-0.290133-15.018667-0.8704-22.101333h61.44v-12.373333h-62.327467c-9.386667 0-18.158933 0.290133-26.333867 0.887466v-15.906133c8.192 0.597333 16.674133 0.8704 25.4464 0.8704h63.232c0-4.113067-0.290133-9.4208-0.8704-15.906133h17.544534c-0.6144 5.2736-0.904533 10.581333-0.853334 15.906133h59.6992c9.9328 0 20.1728-0.290133 30.72-0.8704v15.906133a559.394133 559.394133 0 0 0-30.72-0.887466h-59.716266v12.373333h63.214933c-0.597333 7.082667-0.887467 14.455467-0.8704 22.1184 0 7.662933 0.290133 15.616 0.8704 23.876267h-63.214933v11.485866h64.9728c-0.597333 5.905067-0.887467 14.7456-0.8704 26.5216 8.772267 0 18.432-0.290133 28.9792-0.8704z m-108.885333-51.285333V787.114667h-44.8v17.698133h44.8z m61.44 0V787.114667h-45.653334v17.698133h45.653334z m1.757866 52.155733v-12.373333h-47.4112v12.373333h47.4112z m0 27.426134v-13.2608h-47.4112v13.2608h47.4112z m-82.056533 53.060266l-0.290133-1.4848a54.784 54.784 0 0 0-8.533334-18.875733l-1.672533-2.5088h3.003733c6.946133 0.170667 13.892267-0.119467 20.7872-0.853333a3.618133 3.618133 0 0 0 3.9424-3.720534v-9.898666H559.957333c-6.314667 0-13.943467 0.3072-22.715733 0.904533l-1.706667 0.1024v-19.370667l1.706667 0.119467c8.533333 0.580267 16.196267 0.887467 22.698667 0.887467h47.581866v-10.052267H543.232c-7.458133 0-14.7968 0.3072-21.828267 0.887467l-1.723733 0.136533V854.357333l1.7408 0.136534c6.826667 0.580267 14.165333 0.887467 21.8112 0.887466h64.256v-9.1648h-49.322667c-6.314667 0-13.3632 0.3072-20.957866 0.887467l-1.706667 0.136533v-19.421866l1.706667 0.1536c7.406933 0.580267 14.455467 0.887467 20.957866 0.887466h49.322667v-8.260266h-61.559467l0.119467-1.706667c0.546133-7.918933 0.836267-15.854933 0.8704-23.773867 0-7.509333-0.290133-14.916267-0.8704-21.981866l-0.136533-1.7408h61.610666v-9.1648h-60.757333c-9.216 0-18.039467 0.3072-26.231467 0.887466l-1.706666 0.136534v-19.387734l1.706666 0.119467c7.970133 0.580267 16.4864 0.887467 25.344 0.887467h61.610667a217.429333 217.429333 0 0 0-0.853333-14.165334l-0.170667-1.757866h21.1456l-0.221867 1.826133a119.808 119.808 0 0 0-0.853333 14.097067h58.094933c10.0352 0 20.360533-0.3072 30.634667-0.887467l1.6896-0.1024v19.336533l-1.706667-0.1024a557.8752 557.8752 0 0 0-30.6176-0.887466H626.517333v9.1648h63.351467l-0.136533 1.757866c-0.580267 6.8608-0.8704 14.250667-0.8704 21.9648 0 7.697067 0.290133 15.735467 0.8704 23.7568l0.119466 1.723734H626.517333v8.277333h65.143467l-0.170667 1.757867c-0.5632 5.546667-0.853333 13.653333-0.853333 24.746666a518.075733 518.075733 0 0 0 27.255467-0.853333l1.706666-0.119467V873.813333l-1.757866-0.170666c-5.597867-0.5632-14.762667-0.853333-27.221334-0.887467 0 14.7968 0.3072 26.112 0.8704 34.525867l0.119467 1.723733H670.72v-8.840533h-44.202667v15.189333c0.1536 6.2976-3.003733 12.202667-8.328533 15.5648a88.183467 88.183467 0 0 1-26.436267 6.365867l-1.4848 0.187733z m-4.573867-19.643733c3.1744 4.949333 5.5808 10.359467 7.099734 16.042667a83.6096 83.6096 0 0 0 23.893333-5.802667 14.677333 14.677333 0 0 0 6.621867-12.885333v-18.261334h50.619733v8.840534h14.250667c-0.512-8.618667-0.768-19.968-0.768-34.645334v-1.5872h1.604266c12.117333 0 21.333333 0.238933 27.374934 0.733867v-12.458667c-9.728 0.512-18.909867 0.802133-27.374934 0.802134h-1.604266v-1.621334c0-10.888533 0.238933-19.063467 0.7168-24.917333h-64.8192v-14.711467h63.095466a328.704 328.704 0 0 1-0.750933-22.254933c0-7.168 0.256-14.0288 0.733867-20.48h-63.0784v-15.598933h61.320533c9.301333 0 19.114667 0.256 29.1328 0.785066v-12.509866a559.786667 559.786667 0 0 1-29.149867 0.785066h-61.303466v-1.604266c-0.017067-4.778667 0.2048-9.557333 0.682666-14.301867h-13.994666c0.477867 5.8368 0.7168 10.530133 0.7168 14.301867v1.604266h-64.836267c-8.2944 0-16.298667-0.256-23.8592-0.750933v12.4416c7.7824-0.512 16.093867-0.750933 24.746667-0.750933h63.9488v15.598933H549.376c0.494933 6.6048 0.750933 13.482667 0.750933 20.48 0 6.536533-0.273067 14.011733-0.785066 22.254933h61.354666v14.711467h-52.5312c-6.075733 0-12.629333-0.238933-19.456-0.750933v12.458666c6.485333-0.512 12.970667-0.750933 19.456-0.768h52.5312v15.616H543.232c-7.099733 0-13.9264-0.256-20.343467-0.750933v12.424533c6.5536-0.512 13.397333-0.750933 20.343467-0.750933h67.464533v16.4864h-50.7904c-6.144 0-13.312-0.256-21.213866-0.768v12.458667c8.123733-0.512 15.274667-0.768 21.213866-0.768h50.773334v13.1072a6.724267 6.724267 0 0 1-6.587734 6.894933 139.776 139.776 0 0 1-18.397866 0.887467v-0.017067z m88.234667-31.829333h-50.619733v-16.4864h50.619733v16.4864z m-47.4112-3.2256h44.202667v-10.052267h-44.202667v10.069333z m47.4112-24.183467h-50.619733v-15.598933h50.619733v15.633066-0.034133z m-47.4112-3.242667h44.202667v-9.147733h-44.202667v9.1648z m45.653333-48.930133h-48.861866v-20.906667h48.861866v20.906667z m-45.653333-3.242667h42.461867v-14.455466H626.517333v14.472533z m-15.803733 3.242667h-47.991467v-20.906667h47.991467v20.906667z m-44.782934-3.242667h41.5744v-14.455466H565.930667v14.472533z m215.278934-41.693866c0-7.662933-0.290133-15.325867-0.8704-23.005867h18.432c-1.194667 7.918933-1.774933 15.889067-1.757867 23.893333v19.456c18.722133 0 32.477867-0.3072 41.2672-0.904533v15.9232c-8.772267-0.580267-22.528-0.8704-41.2672-0.887467v38.024534h29.866667a676.949333 676.949333 0 0 0-0.8704 38.912c0 15.9232 0.290133 29.474133 0.8704 40.669866h-16.6912v-11.485866h-43.008v18.568533h-16.674134c0.5632-11.195733 0.853333-25.634133 0.8704-43.332267 0-18.261333-0.290133-32.699733-0.8704-43.332266h30.72V795.989333c-18.7392 0-32.2048 0.290133-40.3968 0.8704v-15.906133c8.192 0.597333 21.6576 0.887467 40.3968 0.887467v-20.3264l-0.017066-0.017067z m28.9792 126.464v-39.7824h-43.008v39.765333h43.008z m72.874666-137.506134c-2.9184 6.1952-6.144 13.704533-9.659733 22.528h41.2672c12.885333 0 23.722667-0.290133 32.494933-0.8704v15.906134a320.8704 320.8704 0 0 0-24.576-0.887467 393.898667 393.898667 0 0 1-7.0144 47.752533 172.1344 172.1344 0 0 1-19.319466 50.397867c6.826667 7.936 14.813867 14.7968 23.7056 20.343467a146.312533 146.312533 0 0 0 26.333866 14.148266 52.565333 52.565333 0 0 0-13.1584 15.9232 163.037867 163.037867 0 0 1-46.5408-38.024533c-15.803733 15.36-33.860267 28.16-53.572266 38.024533a35.9424 35.9424 0 0 0-12.288-14.165333 164.693333 164.693333 0 0 0 55.296-36.232533 165.546667 165.546667 0 0 1-15.36-36.266667 469.265067 469.265067 0 0 1-9.216-36.2496c-4.096 5.905067-7.611733 10.922667-10.530134 15.018667a47.752533 47.752533 0 0 0-13.175466-10.5984 155.989333 155.989333 0 0 0 23.722666-35.362134c8.704-16.384 14.933333-33.962667 18.432-52.1728 6.1952 3.669333 13.056 6.058667 20.189867 7.0656-1.757867 2.9696-4.096 7.543467-7.031467 13.7216z m-15.803733 54.391467c1.0752 13.021867 3.413333 25.9072 7.031467 38.4512 2.6624 10.001067 6.485333 19.643733 11.4176 28.740267 6.656-11.639467 11.264-24.354133 13.602133-37.5808 3.208533-15.581867 5.12-31.402667 5.717333-47.3088h-38.638933c-4.096 7.082667-8.192 13.858133-12.288 20.343466l13.1584-2.645333z m66.4576 133.034667l-1.365333-0.750934a165.597867 165.597867 0 0 1-45.858134-37.0688 217.941333 217.941333 0 0 1-52.804266 37.12l-1.399467 0.648534-0.7168-1.399467a34.304 34.304 0 0 0-11.741867-13.533867l-2.474666-1.655466 2.730666-1.160534a165.102933 165.102933 0 0 0 53.9648-35.0208 168.277333 168.277333 0 0 1-14.916266-35.549866 480.017067 480.017067 0 0 1-8.482134-32.768c-3.208533 4.608-6.024533 8.618667-8.430933 11.997866l-1.194667 1.706667-1.3312-1.536a46.4896 46.4896 0 0 0-12.731733-10.274133l-1.8432-1.024 1.501867-1.536a156.279467 156.279467 0 0 0 23.415466-34.986667c8.6528-16.2304 14.813867-33.672533 18.261334-51.712l0.443733-2.286933 1.979733 1.194666c6.024533 3.549867 12.680533 5.870933 19.6096 6.8608l2.3552 0.3584-1.211733 2.048a166.314667 166.314667 0 0 0-6.946133 13.568c-3.1232 6.656-6.024533 13.4144-8.704 20.241067h38.877866c13.141333 0 23.722667-0.290133 32.375467-0.887467l1.706667-0.119466v19.387733l-1.706667-0.119467a319.488 319.488 0 0 0-23.005867-0.8704 398.506667 398.506667 0 0 1-6.929066 46.455467 173.687467 173.687467 0 0 1-18.944 49.8688c6.6048 7.441067 14.2336 13.892267 22.647466 19.182933 8.192 5.5296 16.896 10.222933 26.043734 13.994667l2.7136 1.041067-2.338134 1.757866a51.541333 51.541333 0 0 0-12.7488 15.445334l-0.802133 1.3824z m-109.755733-15.957334c4.010667 3.1744 7.338667 7.168 9.762133 11.6736a197.512533 197.512533 0 0 0 25.173333-15.138133c9.489067-6.485333 18.3808-13.824 26.555734-21.9136l1.211733-1.245867 1.143467 1.348267a161.553067 161.553067 0 0 0 44.714666 36.864c2.8672-4.949333 6.4512-9.403733 10.6496-13.2608a157.149867 157.149867 0 0 1-24.098133-13.277867 106.325333 106.325333 0 0 1-24.064-20.650666l-0.7168-0.853334 0.546133-0.989866a171.349333 171.349333 0 0 0 19.1488-49.902934c3.293867-15.701333 5.632-31.573333 6.997334-47.547733l0.1024-1.4848h1.501866c8.055467 0 15.7696 0.256 22.971734 0.768v-12.458667c-8.413867 0.512-18.5344 0.768-30.890667 0.768h-43.6224l0.8704-2.218666c2.986667-7.645867 6.229333-15.189333 9.728-22.6304 2.286933-4.881067 4.266667-8.840533 5.922133-11.810134a56.32 56.32 0 0 1-16.520533-5.7856 187.221333 187.221333 0 0 1-18.176 50.414934c-6.0928 12.288-13.653333 23.790933-22.528 34.2528 3.857067 2.304 7.3728 5.137067 10.461867 8.3968 2.6624-3.7888 5.7856-8.2432 9.352533-13.380267l1.570133-2.2528-0.989866 0.187733 2.048-3.191466c4.1984-6.673067 8.2944-13.448533 12.253866-20.2752l0.4608-0.802134h41.233067l-0.068267 1.672534a289.792 289.792 0 0 1-5.751466 47.581866 118.340267 118.340267 0 0 1-13.824 38.109867l-1.399467 2.269867-1.3312-2.321067a133.461333 133.461333 0 0 1-11.5712-29.0816 200.379733 200.379733 0 0 1-6.946133-36.983467l-13.397334 2.696534 0.6144 2.986666c2.577067 12.151467 5.649067 24.200533 9.181867 36.130134a164.352 164.352 0 0 0 15.223467 35.908266l0.597333 1.024-0.8192 0.887467a164.625067 164.625067 0 0 1-53.282133 35.498667z m44.7488-119.022933l0.1536 1.792c1.058133 12.919467 3.396267 25.7024 6.9632 38.161067 2.440533 8.942933 5.768533 17.646933 9.915733 25.941333a121.019733 121.019733 0 0 0 11.997867-34.6624c3.072-14.9504 4.949333-30.122667 5.597866-45.3632h-36.010666c-3.362133 5.768533-6.656 11.264-9.864534 16.401067l11.246934-2.269867z m-99.9424 119.381333h-19.968l0.085333-1.6896c0.580267-11.2128 0.887467-25.770667 0.887467-43.246933 0-18.0736-0.3072-32.6144-0.887467-43.229867l-0.085333-1.706666h30.8224v-34.816c-17.749333 0-30.72 0.324267-38.690134 0.887466l-1.706666 0.136534v-19.4048l1.706666 0.136533c7.850667 0.5632 20.48 0.853333 38.690134 0.8704V761.514667c0-7.509333-0.290133-15.2064-0.8704-22.869334l-0.136534-1.7408h22.016l-0.290133 1.877334c-1.160533 7.816533-1.7408 15.701333-1.7408 23.620266v17.834667c18.193067 0 31.146667-0.324267 39.5776-0.887467l1.706667-0.119466v19.370666l-1.706667-0.1024c-8.533333-0.580267-21.845333-0.853333-39.5776-0.887466v34.816h29.969067l-0.1024 1.706666c-0.580267 9.898667-0.887467 22.596267-0.887467 38.8096 0 16.196267 0.3072 29.508267 0.887467 40.584534l0.085333 1.706666h-19.968v-11.537066h-39.816533v18.5856z m-16.605867-3.2256h13.397333v-18.568533h46.2336v11.502933h13.380267a833.399467 833.399467 0 0 1-0.785067-39.0656c0-15.36 0.256-27.579733 0.785067-37.290666h-29.764267v-41.250134h1.604267c17.4592 0 30.7712 0.256 39.68 0.768v-12.458666a738.645333 738.645333 0 0 1-39.68 0.768h-1.604267V762.368c0-7.441067 0.494933-14.882133 1.501867-22.272h-14.848c0.512 7.168 0.750933 14.336 0.750933 21.384533v21.947734h-1.604266c-17.800533 0-30.549333-0.256-38.792534-0.750934v12.458667c8.362667-0.512 21.418667-0.768 38.792534-0.768h1.604266v41.233067h-30.651733c0.512 10.530133 0.802133 24.541867 0.802133 41.728 0 16.674133-0.273067 30.702933-0.802133 41.710933z m59.630933-29.4912h-46.2336v-43.008h46.2336v43.008z m-43.008-3.2256h39.816534v-36.5568h-39.816534v36.5568zM368.64 440.32s-35.84-5.12-46.08 30.72c-10.24 35.84-20.48 46.08-20.48 46.08s-20.48 20.48-46.08 20.48l15.36-97.28-56.32-71.68s30.72-30.72 71.68 0l30.72 35.84a93.1328 93.1328 0 0 0 35.84-20.48c11.349333-9.898667 25.9072-15.36 40.96-15.36l5.12 20.48v10.24l15.36-10.24v25.6h25.6s7.68-29.44-5.12-40.96l66.56-15.36-102.4-225.28s-8.96-44.8 35.84-20.48l56.32 71.68h51.2s32 21.76 0 30.72h-20.48c1.109333 11.793067 6.587733 22.749867 15.36 30.72l15.36 20.48h46.08s29.44 19.2 5.12 30.72l-25.6 5.12 56.32 66.56 117.76 5.12s56.32 1.28 56.32 30.72c0 0-17.92 25.6-87.04 25.6s-92.16-5.12-92.16-5.12l-46.08 61.44s-5.12 11.52 10.24 10.24c0 0 39.68 11.52 5.12 25.6l-46.08 5.12-30.72 40.96s-1.28 8.96 10.24 10.24c11.52 1.28 42.24 17.92 10.24 30.72l-46.08 5.12-61.44 66.56s-39.68 34.56-35.84-15.36l102.4-220.16s-7.68-14.08-35.84-15.36c-28.16-1.28-97.28 10.24-97.28 10.24z" fill="#FF0000" /></svg>