<?xml version="1.0" standalone="no"?><!DOCTYPE svg PUBLIC "-//W3C//DTD SVG 1.1//EN" "http://www.w3.org/Graphics/SVG/1.1/DTD/svg11.dtd"><svg class="icon" width="1000px" height="1000.00px" viewBox="0 0 1024 1024" version="1.1" xmlns="http://www.w3.org/2000/svg"><path d="M791.842133 688.401067h-8.686933l34.321067-34.304v8.669866l-25.634134 25.634134z m-25.8048 0h-8.704l60.142934-60.125867v8.686933l-51.438934 51.438934z m-27.050666 0h-8.704l87.210666-87.176534v8.704l-78.506666 78.472534z m-26.043734 0h-8.704l113.237334-113.220267v8.704l-104.533334 104.516267z m-26.077866 0h-8.704l139.3152-139.298134v8.704l-130.6112 130.594134z m-24.337067 0h-8.704l163.669333-163.6352v8.686933l-154.965333 154.965333z m-26.077867 0h-8.704L817.493333 498.688v8.704L636.450133 688.384z m-26.077866 0h-8.704L817.493333 472.610133v8.704L610.372267 688.384z m-26.077867 0h-8.704L817.493333 446.532267v8.704L584.2944 688.384z m-24.337067 0h-8.704l266.24-266.205867v8.686933l-257.536 257.536z m-26.077866 0h-8.704L817.493333 396.117333v8.704L533.879467 688.384z m-26.077867 0h-8.704L817.493333 370.039467v8.704L507.8016 688.384z m-26.077867 0h-8.704L817.493333 343.9616v8.686933L481.723733 688.401067z m-24.337066 0h-8.704L817.493333 319.607467v8.704l-360.106666 360.106666z m-26.077867 0h-8.704L817.493333 293.546667v8.704L431.3088 688.384z m-26.077867 0h-8.704L817.493333 267.4688v8.704L405.230933 688.384z m-26.077866 0h-8.704L817.493333 241.390933v8.704L379.153067 688.384z m-26.077867 0h-8.704L817.493333 215.313067v8.704l-464.384 464.384z m-24.337067 0h-8.704L817.493333 190.976v8.704L328.738133 688.384z m-26.077866 0h-8.704L817.493333 164.898133v8.704L302.660267 688.384z m-26.077867 0h-8.686933L817.493333 138.820267v8.704L276.5824 688.384z m-26.077867 0h-8.686933L817.493333 112.7424v8.704l-566.954666 566.954667z m-42.752-7.662934v-8.686933L791.296 88.507733h8.704L207.735467 680.738133z m0-26.0608v-8.704L765.218133 88.507733h8.704L207.735467 654.677333z m0-26.077866v-8.704L739.140267 88.507733h8.704L207.735467 628.599467z m0-24.354134v-8.686933l507.050667-507.050667h8.704l-515.754667 515.754667z m0-26.077866v-8.686934L688.725333 88.507733h8.704L207.735467 578.167467z m0-26.077867v-8.686933L662.647467 88.507733h8.704L207.735467 552.106667z m0-26.077867v-8.686933L636.5696 88.507733h8.704L207.735467 526.011733z m0-24.337066v-8.686934l404.48-404.48h8.704l-413.184 413.184z m0-26.077867v-8.686933L586.154667 88.507733h8.704L207.735467 475.5968z m0-26.077867v-8.686933L560.0768 88.507733h8.704L207.735467 449.536z m0-26.077866v-8.669867L533.998933 88.507733h8.704L207.752533 423.441067z m0-26.077867v-8.686933L507.904 88.507733h8.704L207.735467 397.3632z m0-24.337067v-8.686933L483.584 88.507733h8.704L207.735467 373.026133z m0-26.077866v-8.686934L457.506133 88.507733h8.704L207.735467 346.965333z m0-26.077867v-8.686933L431.428267 88.507733h8.704L207.735467 320.8704z m0-26.077867v-8.686933L405.333333 88.507733h8.704L207.735467 294.792533z m0-24.337066v-8.686934L381.013333 88.507733h8.704L207.735467 270.455467z m0-26.077867v-8.704l147.182934-147.165867h8.704l-155.886934 155.869867z m0-26.077867v-8.686933l121.105067-121.105067h8.704l-129.809067 129.792z m0-26.077866v-8.686934l95.0272-95.0272h8.704l-103.7312 103.714134z m0-24.337067v-8.704l70.690134-70.656h8.704l-79.394134 79.36z m18.5344-79.36h8.704l-27.2384 27.221333v-8.704l18.5344-18.5344zM207.752533 141.824V133.12l44.612267-44.612267h8.704L207.735467 141.824z m18.432 546.577067h-8.704l599.893334-599.893334h0.1024v8.584534L226.167467 688.401067z" fill="#EE2928" /><path d="M864.187733 1024h-703.146666a159.914667 159.914667 0 0 1-159.812267-160V160A159.914667 159.914667 0 0 1 161.041067 0h703.146666A159.914667 159.914667 0 0 1 1024 160v704A159.914667 159.914667 0 0 1 864.187733 1024z m127.8464-832a159.914667 159.914667 0 0 0-159.7952-159.982933H193.006933a159.914667 159.914667 0 0 0-159.812266 159.982933v640a159.914667 159.914667 0 0 0 159.812266 160h639.232a159.914667 159.914667 0 0 0 159.7952-160v-640zM119.7056 938.461867l0.136533-2.6624c0.546133-11.776 0.853333-26.658133 0.8704-44.288-19.1488 4.283733-30.72 7.2704-34.440533 8.8576l-2.696533 1.160533-0.785067-2.833067a67.037867 67.037867 0 0 0-5.9392-15.274666l-1.877333-3.259734 3.7376-0.529066a1015.808 1015.808 0 0 0 42.001066-7.509334v-27.9552c-5.802667 0.034133-10.820267 0.170667-14.9504 0.443734a164.846933 164.846933 0 0 0-20.002133 3.037866l-2.048 0.4096-7.953067-19.234133 2.286934-1.006933c4.625067-2.048 8.789333-7.509333 12.356266-16.247467a271.872 271.872 0 0 0 9.147734-26.4192c-5.12 0.085333-11.229867 0.375467-18.5344 0.853333l-2.730667 0.170667v-21.2992l2.7136 0.170667c8.925867 0.512 16.810667 0.8192 23.483733 0.853333 2.696533-10.990933 4.898133-21.828267 6.536534-32.2048l0.512-3.293867 3.072 1.365334c5.853867 2.5088 11.9296 4.522667 18.141866 6.024533l3.652267 0.904533-2.2016 3.054934c-2.56 3.549867-5.666133 11.6736-9.301333 24.149333 14.301867-0.034133 25.890133-0.341333 34.474666-0.8704l2.730667-0.170667v21.265067l-2.696533-0.119467a916.138667 916.138667 0 0 0-38.673067-0.887466c-4.4032 13.568-9.5744 26.88-15.530667 39.8336h15.496534c-0.068267-5.922133-0.341333-13.448533-0.853334-22.869334l-0.1536-2.679466h22.2208l-0.170666 2.696533c-0.512 9.096533-0.785067 16.759467-0.853334 22.869333 6.997333 0.1024 13.9776-0.170667 20.923734-0.853333l2.935466-0.426667v21.76l-2.9184-0.4096c-6.9632-0.682667-13.960533-0.9728-20.957866-0.853333v24.32c5.922133-1.143467 13.175467-2.7136 21.6064-4.693333l3.601066-0.853334-0.4608 3.652267c-0.580267 4.573867-0.853333 9.1648-0.853333 13.7728v2.0992l-2.065067 0.4096c-7.9872 1.5872-15.3088 3.208533-21.8112 4.778667 0.017067 17.9712 0.324267 34.167467 0.887467 48.128l0.1024 2.6624H119.7056z m46.848-1.757867l0.136533-2.679467c0.597333-11.861333 0.887467-27.5456 0.887467-46.592a1204.906667 1204.906667 0 0 0-0.887467-50.107733l-0.119466-2.6624h114.107733l-0.119467 2.645333a1095.594667 1095.594667 0 0 0-0.8704 45.738667c0 16.4352 0.290133 32.7168 0.8704 48.366933l0.1024 2.645334h-22.016v-9.693867h-70.024533v12.3392H166.5536z m92.091733-30.6688v-17.800533h-24.9344v17.800533h24.917334z m-45.090133 0v-17.800533h-24.9344v17.800533h24.917333z m45.090133-36.130133v-16.913067h-24.9344v16.913067h24.917334z m-45.090133 0v-16.913067h-24.9344v16.913067h24.917333z m-35.549867-45.124267l0.187734-2.730667c0.580267-8.2432 0.887467-15.889067 0.887466-22.7328 0-7.406933-0.3072-15.36-0.887466-23.620266l-0.187734-2.730667h90.368l-0.187733 2.730667c-0.580267 8.635733-0.887467 16.5888-0.887467 23.620266 0 6.997333 0.3072 14.660267 0.887467 22.715734l0.187733 2.730666H178.005333v0.017067z m69.154134-18.3296v-14.2848h-47.940267v14.2848h47.9232zM163.157333 741.051733l2.747734 0.187734c8.072533 0.580267 17.237333 0.887467 27.221333 0.887466h60.125867c8.209067 0 16.469333-0.3072 24.576-0.887466l2.730666-0.187734v21.333334l-2.730666-0.170667c-8.192-0.580267-16.384-0.887467-24.576-0.887467h-59.2384c-10.359467 0-19.831467 0.290133-28.1088 0.887467l-2.747734 0.170667v-21.333334z m274.602667 197.512534c0-6.434133-2.781867-13.312-8.2944-20.48l-3.754667-4.846934 6.0928 0.768c3.9936 0.512 8.021333 0.802133 12.066134 0.853334a35.157333 35.157333 0 0 0 8.226133-0.802134c3.5328-0.887467 5.12-3.106133 5.12-7.2192v-99.669333a1189.205333 1189.205333 0 0 0-50.346667 0.853333l-2.696533 0.136534v-21.1968l2.6624 0.1024c13.892267 0.5632 30.839467 0.853333 50.3808 0.887466v-30.941866a186.282667 186.282667 0 0 0-1.7408-24.337067l-0.392533-2.901333h24.234666l-0.170666 2.730666c-0.597333 8.6528-0.887467 16.896-0.887467 24.507734v30.941866c9.096533-0.0512 17.988267-0.341333 26.453333-0.887466l2.730667-0.170667v21.2992l-2.730667-0.170667a475.067733 475.067733 0 0 0-26.453333-0.853333v105.8304c-0.6656 9.9328-4.864 16.725333-12.509867 20.3776a102.673067 102.673067 0 0 1-24.951466 7.68l-3.037867 0.580267v-3.072z m-73.3696 0.238933a54.698667 54.698667 0 0 0-5.922133-19.370667l-2.133334-4.266666 4.744534 0.597333c3.805867 0.512 7.645867 0.802133 11.502933 0.853333 2.133333 0.1024 4.266667-0.136533 6.314667-0.7168 2.0992-0.768 3.1744-3.5328 3.1744-8.192v-34.4576h-5.393067c-5.000533 12.663467-13.943467 24.610133-26.624 35.498667a194.679467 194.679467 0 0 1-39.424 26.794667l-1.877333 0.955733-1.297067-1.655467a110.318933 110.318933 0 0 0-13.824-14.6432l-3.5328-3.140266 4.5568-1.245867a104.635733 104.635733 0 0 0 58.0608-42.564267h-36.164267c-3.959467 0-10.257067 0.290133-19.285333 0.8704l-2.730667 0.187734v-22.2208l2.747734 0.2048c6.519467 0.4608 11.8272 0.750933 15.8208 0.853333V786.090667c0-9.147733-0.290133-18.8928-0.8704-28.928l-0.170667-2.696534h22.818133c1.962667-8.192 3.259733-16.5376 3.874134-24.951466l0.2048-3.003734 29.4912 7.0656-3.242667 3.208534c-2.901333 2.901333-6.126933 8.840533-9.591467 17.681066h48.520534l-0.170667 2.696534a506.248533 506.248533 0 0 0-0.853333 29.815466v130.440534c0 8.021333-3.003733 13.6704-8.874667 16.7936-5.341867 2.798933-14.148267 5.051733-26.9312 6.877866l-2.679467 0.375467-0.238933-2.6624z m17.681067-85.640533v-13.397334h-47.9232v13.397334h47.9232z m0-32.597334v-13.4144h-47.9232v13.397334h47.9232z m0-32.597333v-14.301867h-47.9232v14.2848h47.9232z m39.816533 80.469333c-1.723733-11.434667-5.819733-24.251733-12.1856-38.0928l-1.0752-2.3552 2.389333-1.041066c5.546667-2.440533 11.3664-4.266667 17.322667-5.461334l2.218667-0.443733 0.7168 2.1504c6.570667 19.643733 10.632533 32.068267 12.407466 37.956267l0.802134 2.696533-2.747734 0.546133c-5.632 1.1264-11.042133 3.1232-16.0768 5.905067l-3.2256 1.774933-0.546133-3.6352z m170.308267 69.751467c-1.1264-5.5296-3.976533-11.741867-8.465067-18.4832l-2.6624-3.959467h4.778667c12.919467 0 18.449067-0.477867 20.821333-0.853333 3.157333-0.529067 3.157333-1.877333 3.157333-2.7648v-8.9088H562.858667c-6.331733 0-13.806933 0.290133-22.818134 0.887467l-2.730666 0.170666v-21.333333l2.730666 0.187733c8.669867 0.580267 16.349867 0.887467 22.818134 0.887467h46.933333v-8.123733h-63.726933c-7.441067 0-14.813867 0.290133-21.896534 0.8704l-2.781866 0.238933v-21.418667l2.781866 0.221867c6.912 0.580267 14.267733 0.8704 21.896534 0.8704h63.744v-7.2192h-48.725334c-6.263467 0-13.329067 0.290133-21.026133 0.8704l-2.747733 0.2048v-21.384533l2.7648 0.221866c7.492267 0.580267 14.557867 0.8704 21.009066 0.8704h48.725334v-6.3488h-62.071467l0.170667-2.730666c0.597333-8.8064 0.887467-16.759467 0.887466-23.620267 0-7.441067-0.290133-14.7968-0.8704-21.8112l-0.221866-2.7648h62.1056v-7.236267h-60.2112c-9.181867 0-18.056533 0.290133-26.333867 0.8704l-2.747733 0.2048v-21.3504l2.730666 0.187734c8.0896 0.597333 16.657067 0.887467 25.463467 0.887466h61.064533c-0.1024-3.5328-0.375467-7.850667-0.853333-13.073066l-0.238933-2.798934h23.381333l-0.341333 2.884267c-0.529067 4.3008-0.8192 8.635733-0.853334 12.970667h57.531734c10.018133 0 20.3776-0.273067 30.805333-0.853334l2.696533-0.170666v21.265066l-2.696533-0.136533a568.507733 568.507733 0 0 0-30.805333-0.887467h-57.5488v7.236267h63.880533l-0.238933 2.7648c-0.580267 6.877867-0.8704 14.2336-0.8704 21.8112 0 7.6288 0.290133 15.5648 0.8704 23.620267l0.2048 2.730666h-63.8464v6.3488h65.6896l-0.290134 2.816c-0.512 5.290667-0.8192 13.243733-0.853333 23.620267 8.1408-0.0512 17.032533-0.341333 26.453333-0.8704l2.7136-0.170667v21.4016l-2.816-0.273066a310.357333 310.357333 0 0 0-26.350933-0.853334c0.017067 13.994667 0.324267 25.224533 0.853333 33.399467l0.187734 2.730667h-22.971734v-8.823467h-42.632533v14.1824c-0.682667 8.157867-3.652267 13.585067-8.874667 16.366933-4.7616 2.5088-13.568 4.608-26.9312 6.434134l-2.389333 0.341333-0.4608-2.3552z m81.288533-54.1696v-8.123733h-42.615467v8.123733h42.615467z m0-27.323733v-7.236267h-42.615467v7.236267h42.615467z m-1.774933-52.002134v-12.526933h-40.840534v12.526933h40.840534z m-61.883734 0v-12.526933H569.856v12.526933h39.970133z m321.911467 135.2192a167.662933 167.662933 0 0 1-45.789867-36.4032c-7.867733 7.509333-16.349867 14.318933-25.361066 20.411734a194.901333 194.901333 0 0 1-27.3408 16.0768l-2.2528 1.041066-1.109334-2.218666a33.6384 33.6384 0 0 0-11.502933-13.1072l-3.959467-2.628267 4.386134-1.8432c2.321067-0.989867 4.608-1.9968 6.826666-3.037867h-19.012266v-11.451733h-38.1952v18.500267h-22.050134l0.136534-2.679467c0.580267-11.195733 0.8704-25.668267 0.8704-43.0592 0-17.954133-0.290133-32.426667-0.853334-43.042133l-0.170666-2.696534h31.095466v-32.785066a625.834667 625.834667 0 0 0-37.922133 0.8704l-2.747733 0.187733v-21.333333l2.747733 0.170666c7.697067 0.580267 20.445867 0.853333 37.922133 0.887467V764.074667c0-7.406933-0.290133-15.035733-0.887466-22.698667l-0.2048-2.7648h24.32l-0.443734 2.935467a153.207467 153.207467 0 0 0-1.7408 23.415466v16.827734a663.825067 663.825067 0 0 0 38.8096-0.8704l2.730667-0.170667v17.1008c2.730667-4.4032 5.546667-9.301333 8.448-14.711467 8.6528-16.059733 14.830933-33.348267 18.312533-51.268266l0.682667-3.584 3.157333 1.877333c5.973333 3.4816 12.561067 5.751467 19.387734 6.724267l3.771733 0.5632-1.9456 3.259733a172.885333 172.885333 0 0 0-6.9632 13.448533c-2.5088 5.239467-5.2224 11.434667-8.2432 18.824534h37.768533c12.9024 0 23.842133-0.290133 32.529067-0.8704l2.730667-0.170667v21.333333l-2.730667-0.2048c-6.997333-0.529067-14.472533-0.8192-22.2208-0.8704a397.841067 397.841067 0 0 1-6.912 45.550934 173.277867 173.277867 0 0 1-18.858667 49.408c6.5024 7.133867 13.960533 13.312 22.152534 18.432 8.192 5.461333 16.930133 10.120533 26.0608 13.858133l4.3008 1.655467-3.703467 2.7648c-4.420267 3.310933-8.6528 8.3968-12.578133 15.104l-1.245867 2.1504-2.2016-1.194667z m-103.031467-106.154666l-0.170666 2.730666a686.0288 686.0288 0 0 0-0.853334 38.621867c0 15.803733 0.290133 29.405867 0.853334 40.3968l0.085333 1.297067c17.8688-8.567467 32.529067-18.551467 43.690667-29.764267a168.209067 168.209067 0 0 1-14.7456-35.003733 481.024 481.024 0 0 1-8.0896-30.6176l-7.253334 10.24-1.911466 2.645333-2.116267-2.474667a45.755733 45.755733 0 0 0-12.578133-10.018133l-2.952534-1.6384 2.389334-2.389333a100.352 100.352 0 0 0 12.407466-15.906134h-0.1536a675.805867 675.805867 0 0 0-38.826666-0.887466v32.768h30.225066z m-22.084266 53.76V852.992h-38.1952v34.542933h38.1952z m62.583466-80.4864c1.0752 12.8 3.413333 25.480533 6.997334 37.8368 2.304 8.2944 5.358933 16.384 9.096533 24.132266 4.6592-8.618667 8.379733-19.6096 11.127467-32.750933 3.003733-14.506667 4.881067-29.252267 5.5808-44.066133h-34.7648c-2.7648 4.7104-5.597867 9.386667-8.4992 14.045866l10.24-2.048 0.221866 2.850134zM785.408 205.994667a316.074667 316.074667 0 0 0-109.329067-112.7936l-7.7824-4.608-104.413866 180.5312a108.032 108.032 0 0 1 57.344 95.163733l206.933333 2.048a320.341333 320.341333 0 0 0-42.769067-160.341333zM513.058133 472.439467a107.7248 107.7248 0 0 1-56.832-16.0768l-102.894933 180.053333a319.368533 319.368533 0 0 0 159.726933 42.615467 312.285867 312.285867 0 0 0 150.920534-38.570667l7.7824-4.437333-103.4752-178.688c-16.725333 9.898667-35.805867 15.121067-55.227734 15.104z m-50.2784-203.5712L357.7856 87.483733a315.904 315.904 0 0 0-117.026133 117.418667 320.512 320.512 0 0 0-42.752 160.290133l206.916266-1.211733a108.032 108.032 0 0 1 57.856-95.095467v-0.017066z m0 0l-14.0288 95.095466a64.3072 64.3072 0 1 0 128.6144 0 64.3072 64.3072 0 0 0-128.6144 0l14.0288-95.095466z" fill="#FF0000" /></svg>