<?xml version="1.0" standalone="no"?><!DOCTYPE svg PUBLIC "-//W3C//DTD SVG 1.1//EN" "http://www.w3.org/Graphics/SVG/1.1/DTD/svg11.dtd"><svg class="icon" width="1000px" height="1000.00px" viewBox="0 0 1024 1024" version="1.1" xmlns="http://www.w3.org/2000/svg"><path d="M864 1024H160A160 160 0 0 1 0 864V160A160 160 0 0 1 160 0h704A160 160 0 0 1 1024 160v704A160 160 0 0 1 864 1024z m128-832a160 160 0 0 0-160-160h-640a160 160 0 0 0-160 160v640a160 160 0 0 0 160 160h640a160 160 0 0 0 160-160v-640z" fill="#FF0000" /><path d="M263.953067 869.5808c-5.614933 2.013867-11.776 1.706667-17.169067-0.853333a98.218667 98.218667 0 0 1-28.603733-19.524267c-7.406933 7.850667-15.684267 14.830933-24.644267 20.821333a44.0832 44.0832 0 0 0-13.192533-10.410666 108.765867 108.765867 0 0 0 29.0304-22.545067 122.965333 122.965333 0 0 1-14.506667-34.269867c-3.072-11.52-5.290667-23.261867-6.621867-35.1232H109.056c0 26.026667-0.443733 43.656533-1.314133 52.906667a105.5744 105.5744 0 0 1-5.717334 26.026667 135.799467 135.799467 0 0 1-13.2096 26.0096 67.328 67.328 0 0 0-16.725333-8.669867c6.434133-7.68 11.639467-16.315733 15.394133-25.6 3.413333-9.3184 5.341867-19.114667 5.717334-29.047467 0.597333-10.973867 0.597333-29.474133 0-55.5008h93.2864c0-4.608-0.290133-13.0048-0.8704-25.156266 6.0928 1.28 12.270933 2.1504 18.4832 2.6112-1.194667 7.441067-1.501867 15.018667-0.887467 22.528h38.741333c8.192 0 17.851733-0.290133 29.0304-0.8704v15.616a573.986133 573.986133 0 0 0-28.16-0.8704h-38.741333c2.3552 24.285867 7.338667 42.496 14.984533 54.6304 3.959467-6.724267 7.202133-13.841067 9.6768-21.248 2.7648-7.816533 5.12-15.786667 7.048534-23.842134a170.496 170.496 0 0 0 18.4832 6.058667c-4.1472 5.802667-7.253333 12.253867-9.216 19.080533-4.539733 11.963733-9.984 23.552-16.2816 34.696534 5.256533 4.898133 11.008 9.2672 17.152 13.0048 4.983467 2.901333 8.192 3.464533 9.6768 1.7408a62.293333 62.293333 0 0 0 5.7344-18.210134c4.829867 4.130133 10.5472 7.099733 16.725333 8.669867-5.307733 16.213333-10.018133 25.326933-14.114133 27.3408z m-167.2192 6.519467c5.4272 2.628267 11.008 4.949333 16.725333 6.929066a871.253333 871.253333 0 0 1-17.6128 38.161067 159.522133 159.522133 0 0 0-16.725333-6.946133c5.290667-6.3488 11.144533-19.063467 17.595733-38.144z m82.722133-23.432534h-61.610667V808.448h61.610667v44.219733z m-0.887467-58.094933H118.7328v-13.021867h59.835733v13.021867z m44.885334 127.914667c-3.413333 2.1504-7.406933 3.208533-11.434667 3.037866h-66.901333a13.312 13.312 0 0 1-13.6192-10.410666 80.503467 80.503467 0 0 1-2.218667-18.210134c0-5.768533-0.290133-12.714667-0.8704-20.821333h18.4832c-0.597333 9.847467-0.887467 16.776533-0.887467 20.821333 0 3.498667 0.290133 6.980267 0.887467 10.410667 0.580267 3.464533 4.4032 4.9152 11.434667 4.334933h40.4992c4.1984 0.477867 8.413867-0.597333 11.8784-3.037866 3.003733-4.829867 4.676267-10.359467 4.829866-16.042667 5.700267 4.010667 11.912533 7.2192 18.4832 9.557333-4.113067 11.537067-7.645867 18.3296-10.564266 20.360534zM165.376 840.533333v-19.968H131.925333v19.968h33.450667z m6.144 21.674667c6.997333 8.567467 13.482667 17.544533 19.370667 26.897067-4.778667 2.952533-9.216 6.4512-13.2096 10.410666-5.802667-9.693867-12.288-18.961067-19.3536-27.767466 4.232533-3.413333 8.635733-6.587733 13.192533-9.540267z m44.032-124.0064c3.157333-3.584 6.0928-7.338667 8.8064-11.264 7.304533 4.522667 14.336 9.437867 21.111467 14.728533a90.112 90.112 0 0 0-10.564267 10.410667c-3.515733-2.884267-9.966933-7.509333-19.3536-13.8752z m60.7232 171.707733c-5.461333 3.208533-10.752 6.673067-15.837867 10.410667a166.263467 166.263467 0 0 0-23.7568-32.938667c4.096-2.901333 8.789333-6.365867 14.08-10.410666 12.885333 15.598933 21.384533 26.589867 25.4976 32.938666h0.017067z m-64.256 17.2032h-66.901333a14.882133 14.882133 0 0 1-15.189334-11.639466 83.0464 83.0464 0 0 1-2.235733-18.568534c0-5.632-0.3072-12.5952-0.887467-20.701866l-0.119466-1.706667h21.9136l-0.119467 1.6896a404.650667 404.650667 0 0 0-0.887467 20.718933c0 3.413333 0.3072 6.792533 0.887467 10.154667 0.119467 0.768 0.512 3.140267 7.048533 3.140267a34.133333 34.133333 0 0 0 2.679467-0.136534h40.618667a16.213333 16.213333 0 0 0 10.752-2.56c1.211733-1.194667 2.9696-4.778667 4.369066-15.121066l0.3584-2.679467 2.218667 1.621333c5.563733 3.925333 11.656533 7.048533 18.090667 9.3184l1.450666 0.5632-0.512 1.450667c-4.334933 12.168533-7.901867 18.8928-11.1616 21.162667-3.703467 2.321067-8.021333 3.464533-12.373333 3.293866z m-81.885867-49.442133c0.512 7.458133 0.750933 13.9264 0.750934 19.234133 0.0512 6.024533 0.785067 12.014933 2.167466 17.8688a11.776 11.776 0 0 0 12.202667 9.181867h66.7648c3.703467 0.170667 7.3728-0.802133 10.530133-2.7648 1.7408-1.194667 4.778667-5.358933 9.437867-18.158933a82.2784 82.2784 0 0 1-15.240533-7.68 27.767467 27.767467 0 0 1-4.9152 14.370133c-3.754667 2.7648-8.3968 4.010667-13.021867 3.498667H158.327467a28.672 28.672 0 0 1-2.798934 0.119466c-6.144 0-9.5744-1.928533-10.24-5.768533a63.163733 63.163733 0 0 1-0.904533-10.683733c0-3.976533 0.256-10.427733 0.768-19.234134h-15.018667v0.017067z m-33.570133 45.653333l-1.450667-0.699733a157.149867 157.149867 0 0 0-16.554666-6.894933l-2.116267-0.750934 1.450667-1.723733c5.12-6.144 10.922667-18.824533 17.3056-37.666133l0.580266-1.7408 1.672534 0.836266c5.393067 2.594133 10.922667 4.881067 16.554666 6.8608l1.604267 0.5632-0.682667 1.536a888.354133 888.354133 0 0 1-17.629866 38.229334l-0.733867 1.450666z m-14.848-9.813333c5.034667 1.860267 9.506133 3.720533 13.380267 5.563733 3.8912-7.799467 9.335467-19.592533 16.1792-35.1232a159.232 159.232 0 0 1-13.6192-5.632 143.3088 143.3088 0 0 1-15.9232 35.191467h-0.017067z m178.141867 9.216l-0.8704-1.6384a165.614933 165.614933 0 0 0-23.534934-32.648533l-1.194666-1.314134 1.467733-1.024c4.096-2.901333 8.823467-6.4 14.011733-10.376533l1.245867-0.938667 0.989867 1.194667c12.834133 15.496533 21.4528 26.658133 25.634133 33.109333l0.904533 1.365334-1.4336 0.853333c-5.393067 3.140267-10.632533 6.587733-15.684266 10.2912l-1.536 1.1264z m-20.821334-35.072a169.3184 169.3184 0 0 1 21.9136 30.3104c4.232533-3.0208 8.584533-5.870933 13.038934-8.533333-4.266667-6.314667-12.168533-16.4864-23.5008-30.2592-3.771733 2.884267-7.5776 5.700267-11.434667 8.465066z m-61.713066 14.4896l-1.024-1.860267a246.818133 246.818133 0 0 0-19.234134-27.5456l-0.938666-1.211733 1.194666-0.9728c4.266667-3.447467 8.704-6.656 13.312-9.642667l1.262934-0.8192 0.904533 1.160534a262.997333 262.997333 0 0 1 19.490133 27.0848l0.768 1.314133-1.314133 0.8192c-4.676267 2.901333-9.0112 6.314667-12.919467 10.171733l-1.501866 1.501867z m-16.776534-30.1056c6.314667 7.953067 12.168533 16.2816 17.527467 24.917333 3.293867-3.106133 6.8608-5.888 10.6496-8.362666-5.4272-8.362667-11.281067-16.4352-17.544533-24.2176-3.652267 2.389333-7.202133 4.949333-10.632534 7.645866v0.017067z m-71.253333 2.833067l-1.3824-0.9216a66.594133 66.594133 0 0 0-16.264533-8.465067l-2.338134-0.648533 1.518934-1.860267c6.314667-7.543467 11.434667-16.042667 15.138133-25.156267a94.464 94.464 0 0 0 5.632-28.5696c0.580267-10.9056 0.580267-29.525333 0-55.3984l-0.034133-1.604266h93.320533c-0.068267-4.7616-0.341333-12.475733-0.8704-23.5008l-0.1024-2.065067 2.048 0.443733c6.024533 1.245867 12.117333 2.0992 18.261333 2.56l1.7408 0.136534-0.290133 1.706666c-1.109333 6.826667-1.4336 13.789867-0.955733 20.701867h27.818666c-3.703467-2.901333-9.710933-7.168-17.92-12.731733l-1.4848-0.989867 1.160534-1.348267c3.1232-3.515733 6.024533-7.236267 8.704-11.1104l0.8192-1.2288 1.314133 0.733867c7.355733 4.5568 14.472533 9.506133 21.2992 14.848l1.604267 1.194667-1.536 1.28c-3.447467 2.850133-6.656 5.973333-9.608534 9.335466h5.051734c8.328533 0 18.0736-0.290133 28.962133-0.853333l1.672533-0.1024v18.944l-1.672533-0.1024a570.026667 570.026667 0 0 0-28.091733-0.853333h-36.932267a131.242667 131.242667 0 0 0 13.175467 49.885866c3.242667-5.9392 5.9904-12.168533 8.192-18.602666 2.730667-7.765333 5.0688-15.6672 6.997333-23.688534l0.4096-1.809066 1.757867 0.682666c5.973333 2.3552 12.0832 4.369067 18.295466 6.024534l2.679467 0.7168-1.962667 1.928533a58.624 58.624 0 0 0-8.874666 18.500267 250.5216 250.5216 0 0 1-15.7696 33.792c4.9152 4.522667 10.274133 8.533333 15.9744 11.997866 6.4512 3.754667 7.389867 2.321067 7.6288 2.065067 0.7168-0.853333 2.389333-4.266667 5.393066-17.527467l0.580267-2.6112 2.048 1.757867c4.6592 3.976533 10.154667 6.826667 16.0768 8.328533l1.621333 0.443734-0.512 1.570133c-5.5296 17.032533-10.24 25.992533-14.882133 28.279467-6.007467 2.218667-12.629333 1.911467-18.432-0.8192a96.853333 96.853333 0 0 1-27.9552-18.773334 147.217067 147.217067 0 0 1-23.825067 19.899734l-1.194666 0.802133-0.9216-1.058133a42.666667 42.666667 0 0 0-12.714667-10.052267l-2.679467-1.314133 2.594134-1.467734a109.226667 109.226667 0 0 0 27.869866-21.333333 125.149867 125.149867 0 0 1-14.097066-33.706667c-2.9696-11.144533-5.137067-22.4768-6.485334-33.928533H110.626133c0 25.088-0.443733 42.410667-1.314133 51.473067a107.127467 107.127467 0 0 1-5.802667 26.385066 136.994133 136.994133 0 0 1-13.3632 26.333867l-0.8704 1.450667z m-14.5408-11.707734c4.744533 1.9456 9.284267 4.369067 13.550933 7.236267 4.881067-7.68 8.96-15.8208 12.1856-24.337067a104.96 104.96 0 0 0 5.632-25.634133c0.8704-9.1648 1.3312-26.914133 1.3312-52.736v-1.5872h82.261334l0.1536 1.399467c1.314133 11.776 3.498667 23.466667 6.5536 34.9184 3.037867 11.9296 7.8848 23.330133 14.336 33.826133l0.597333 0.9728-0.750933 0.887467a108.3392 108.3392 0 0 1-27.016534 21.504c3.771733 2.286933 7.202133 5.085867 10.205867 8.328533 8.413867-5.751467 16.213333-12.373333 23.210667-19.797333l1.0752-1.143467 1.194666 1.058133c8.1408 7.9872 17.646933 14.506667 28.0576 19.2 4.9664 2.372267 10.666667 2.696533 15.872 0.9216 2.4576-1.194667 6.656-6.536533 12.765867-24.814933a43.8784 43.8784 0 0 1-13.704533-6.894933c-2.8672 12.2368-4.488533 15.189333-5.461334 16.384a4.608 4.608 0 0 1-3.6352 1.536 17.322667 17.322667 0 0 1-8.106666-2.935467 107.383467 107.383467 0 0 1-17.408-13.192533l-0.9216-0.836267 0.597333-1.092267a251.392 251.392 0 0 0 16.1792-34.474666c2.013867-6.161067 4.693333-12.0832 7.9872-17.664a165.717333 165.717333 0 0 1-14.574933-4.795734c-1.877333 7.509333-4.096 14.916267-6.656 22.203734-2.5088 7.509333-5.802667 14.728533-9.813334 21.5552l-1.365333 2.235733-1.3824-2.218667c-7.7312-12.288-12.834133-30.890667-15.189333-55.313066l-0.170667-1.7408h40.4992c7.236267 0 15.9232 0.256 26.555733 0.768v-12.288c-10.24 0.512-19.490133 0.785067-27.4432 0.785066H201.728l-0.1024-1.467733a97.1264 97.1264 0 0 1 0.6144-21.248 154.333867 154.333867 0 0 1-14.933333-2.048c0.512 11.264 0.785067 18.8416 0.785066 23.159467v1.5872H94.856533c0.512 25.088 0.512 43.264-0.0512 53.998933a97.194667 97.194667 0 0 1-5.802666 29.525333 95.3344 95.3344 0 0 1-14.250667 24.2688z m143.1552-125.269333c7.645867 5.205333 13.277867 9.216 16.810667 11.9808 2.56-2.884267 5.290667-5.597867 8.192-8.1408-8.0896-6.0416-14.165333-10.308267-18.090667-12.680533a124.091733 124.091733 0 0 1-6.912 8.840533z m-36.864 116.360533H116.224v-47.394133h64.836267v47.394133zM119.466667 851.114667h58.402133v-41.079467H119.4496v41.079467z m47.530666-8.977067H130.321067v-23.108267h36.6592v23.108267z m-33.450666-3.1744h30.242133v-16.776533H133.5296v16.776533z m46.6432-42.8032H117.128533v-16.162133h63.044267v16.1792z m-59.8528-3.157333h56.661333v-9.847467H120.32v9.847467z m316.996266 106.530133a117.725867 117.725867 0 0 1-28.16-31.232c0 33.536 0.290133 53.777067 0.887467 60.706133h-18.500267c0.597333-7.5264 0.887467-26.897067 0.887467-58.112a132.215467 132.215467 0 0 1-33.877333 32.085334c-15.36 10.069333-31.744 18.4832-48.8448 25.156266a32.426667 32.426667 0 0 0-14.967467-16.469333 157.354667 157.354667 0 0 0 51.490133-20.394667 96.682667 96.682667 0 0 0 28.603734-25.6h-43.997867c-8.226133 0-17.902933 0.290133-29.047467 0.8704v-15.581866c11.144533 0.597333 20.821333 0.887467 29.047467 0.8704h61.610667c0-4.608-0.3072-10.683733-0.887467-18.210134h18.4832a210.773333 210.773333 0 0 0-0.887467 18.210134h65.143467c7.611733 0 15.8208-0.290133 24.6272-0.8704v15.616c-8.789333-0.580267-17.015467-0.853333-24.644267-0.8704h-47.5136a85.879467 85.879467 0 0 0 36.9664 28.6208 143.701333 143.701333 0 0 0 41.3696 11.264c-7.645867 7.509333-11.758933 13.585067-12.322133 18.210133-25.258667-6.912-43.741867-15.018667-55.466667-24.2688z m-88.0128-116.224a88.968533 88.968533 0 0 0-9.6768 14.7456 158.4128 158.4128 0 0 0-36.078933-19.968c3.515733-4.061867 6.212267-8.772267 7.918933-13.892267 16.418133 7.543467 29.047467 13.9264 37.853867 19.114667z m-31.675733 59.835733a62.020267 62.020267 0 0 0-12.322133-14.7456 278.869333 278.869333 0 0 0 52.804266-37.290666c1.467733 5.4272 3.5328 10.6496 6.144 15.616a10875.2896 10875.2896 0 0 0-46.626133 36.437333z m1.757867-100.608c2.9184-3.464533 6.144-7.509333 9.6768-12.1344 13.482667 7.509333 25.224533 14.165333 35.208533 19.968a70.0928 70.0928 0 0 0-11.434667 13.8752 174.592 174.592 0 0 0-33.450666-21.691733z m71.2704 61.149867a71.1168 71.1168 0 0 0 16.725333-34.2528c-8.8064 0-18.4832 0.290133-29.047467 0.853333v-15.581866c11.144533 0.580267 21.128533 0.8704 29.934934 0.853333a245.589333 245.589333 0 0 0 0-29.474133c6.6048 1.672533 13.4144 2.56 20.241066 2.594133-1.757867 3.464533-2.935467 12.4416-3.5328 26.897067h43.127467a967.509333 967.509333 0 0 0-1.757867 19.080533l-2.645333 34.679467c0.580267 5.802667 2.645333 8.669867 6.144 8.669866h9.6768a5.461333 5.461333 0 0 0 5.7344-3.464533c1.365333-5.6832 2.082133-11.502933 2.184533-17.339733 5.239467 4.266667 11.741867 6.7072 18.500267 6.946133-2.372267 15.598933-5.7344 24.132267-10.1376 25.6-6.007467 1.6896-12.219733 2.56-18.4832 2.594133a79.5648 79.5648 0 0 1-21.111467-1.7408c-6.144-1.4336-8.942933-6.792533-8.362666-16.042666l2.628266-45.090134h-26.350933a84.872533 84.872533 0 0 1-14.08 36.864c-7.645867 11.264-21.725867 22.971733-42.24 35.1232a42.308267 42.308267 0 0 0-15.837867-13.0048 93.474133 93.474133 0 0 0 38.690134-24.746666z m21.111466 126.907733h-21.930666l0.119466-1.706666c0.546133-7.1168 0.853333-25.002667 0.853334-53.1968a136.789333 136.789333 0 0 1-31.3344 28.6208 268.3392 268.3392 0 0 1-49.152 25.309866l-1.655467 0.648534-0.512-1.672534a31.232 31.232 0 0 0-14.2848-15.598933l-3.2256-2.048 3.720533-0.853333a156.672 156.672 0 0 0 50.978134-20.138667 104.413867 104.413867 0 0 0 26.4192-22.6816h-40.96a578.56 578.56 0 0 0-28.962134 0.853333l-1.6896 0.1024v-18.944l1.6896 0.1024c10.871467 0.5632 20.616533 0.853333 28.962134 0.853334H390.826667c-0.068267-4.317867-0.341333-9.728-0.8704-16.503467l-0.136534-1.706667h21.9648l-0.1536 1.723734c-0.512 6.075733-0.8192 11.605333-0.853333 16.503466h63.488c7.714133 0 15.957333-0.3072 24.5248-0.8704l1.706667-0.136533v19.012267l-1.706667-0.119467c-8.157867-0.546133-16.349867-0.836267-24.5248-0.853333h-44.288a84.992 84.992 0 0 0 34.3552 25.6c13.0048 5.717333 26.794667 9.472 40.891733 11.144533l3.413334 0.324267-2.440534 2.372266c-7.338667 7.2192-11.3152 13.038933-11.844266 17.288534l-0.238934 1.8432-1.809066-0.512c-25.326933-6.980267-44.168533-15.240533-56.0128-24.576a121.736533 121.736533 0 0 1-25.5488-27.016534c0 30.600533 0.341333 48.64 0.8704 55.125334l0.1536 1.706666z m-18.517333-3.157333h15.035733c-0.512-8.192-0.750933-27.5968-0.750933-59.136v-5.7344l2.986667 4.9152c7.338667 11.844267 16.759467 22.272 27.784533 30.805333 11.264 8.874667 29.1328 16.7936 53.1968 23.517867 2.1504-5.717333 5.632-10.8544 10.120533-15.0016a150.698667 150.698667 0 0 1-38.5536-11.025067 87.722667 87.722667 0 0 1-37.632-29.149866l-1.860266-2.5088h50.688c7.048533 0 14.7968 0.256 23.04 0.768v-12.2368c-7.68 0.494933-15.36 0.750933-23.04 0.750933H407.552v-1.570133c0-4.898133 0.238933-10.496 0.750933-16.64h-15.018666c0.512 6.894933 0.768 12.3392 0.768 16.64v1.570133h-63.214934c-7.970133 0-17.2032-0.256-27.4432-0.768v12.288c10.513067-0.512 19.746133-0.768 27.4432-0.768h46.933334l-1.5872 2.423467a98.6624 98.6624 0 0 1-29.064534 26.0608 156.501333 156.501333 0 0 1-48.469333 19.7632c5.205333 3.345067 9.386667 8.072533 12.014933 13.653333 16.452267-6.5024 32.187733-14.677333 46.984534-24.354133a131.362133 131.362133 0 0 0 33.4848-31.709867l2.901333-4.010667v4.949334c0 28.928-0.238933 47.906133-0.768 56.490666z m-76.066133-81.92l-0.955734-1.536a59.9552 59.9552 0 0 0-12.014933-14.370133l-1.792-1.570134 2.1504-1.058133a277.845333 277.845333 0 0 0 52.48-37.0688l1.979733-1.672533 0.631467 2.491733c1.450667 5.290667 3.464533 10.427733 6.0416 15.291733l0.580267 1.160534-1.024 0.785066a11283.182933 11283.182933 0 0 0-46.626134 36.420267l-1.450666 1.1264z m-9.096534-16.7424c3.7888 3.584 7.1168 7.611733 9.9328 12.014933 8.874667-6.997333 23.6032-18.500267 44.202667-34.525866a82.944 82.944 0 0 1-5.000533-12.322134c-15.104 13.312-31.573333 24.9856-49.117867 34.833067h-0.017067z m59.101867 14.848l-0.8192-1.416533a41.028267 41.028267 0 0 0-15.240533-12.424534l-2.952534-1.672533 3.191467-1.194667a92.194133 92.194133 0 0 0 38.058667-24.2688 69.905067 69.905067 0 0 0 15.991466-31.607466c-8.123733 0.034133-17.2032 0.324267-26.9824 0.853333l-1.706666 0.085333v-18.944l1.6896 0.085334c10.24 0.512 19.7632 0.8192 28.296533 0.853333 0.512-9.250133 0.512-18.517333-0.0512-27.767467l-0.136533-2.218666 2.167466 0.546133c6.485333 1.6384 13.1584 2.491733 19.848534 2.56h2.6112l-1.160534 2.286933c-1.092267 2.167467-2.56 8.192-3.2768 24.576h43.2128l-0.170666 1.7408a1015.466667 1015.466667 0 0 0-1.757867 19.0464l-2.645333 34.696534c0.733867 6.9632 3.618133 6.9632 4.5568 6.9632h9.6768a3.7888 3.7888 0 0 0 4.215466-2.440534c1.297067-5.546667 2.013867-11.2128 2.0992-16.896l0.2048-3.242666 2.474667 2.133333c4.983467 4.0448 11.144533 6.3488 17.544533 6.5536l1.706667 0.136533-0.256 1.672534c-2.5088 16.657067-6.058667 25.1904-11.195733 26.862933a70.536533 70.536533 0 0 1-18.944 2.679467 78.626133 78.626133 0 0 1-21.572267-1.757867c-6.997333-1.655467-10.24-7.611733-9.5744-17.698133l2.56-43.434667h-23.330133a86.7328 86.7328 0 0 1-14.148267 36.181333c-7.7312 11.400533-22.101333 23.381333-42.734933 35.601067l-1.450667 0.853333z m-11.605333-14.916267c4.881067 2.6624 9.198933 6.2464 12.6976 10.564267 19.524267-11.690667 33.109333-23.074133 40.413866-33.860267 7.3728-10.8032 12.100267-23.210667 13.824-36.181333l0.170667-1.365333h29.525333l-2.730666 46.7456c-0.512 8.465067 1.792 13.1584 7.133866 14.404266 6.792533 1.4848 13.755733 2.048 20.6848 1.706667a68.215467 68.215467 0 0 0 18.0224-2.525867c2.048-0.682667 5.870933-4.539733 8.789334-22.664533a33.570133 33.570133 0 0 1-15.223467-5.2736 65.536 65.536 0 0 1-2.0992 14.813867 6.997333 6.997333 0 0 1-7.2192 4.5056h-9.6768c-3.072 0-6.929067-1.757867-7.765333-10.103467l2.645333-34.986667c0.512-6.2464 1.024-12.032 1.5872-17.3568h-43.008l0.068267-1.655466c0-8.4992 0.955733-16.964267 2.816-25.258667a86.391467 86.391467 0 0 1-16.196267-2.116267 261.461333 261.461333 0 0 1-0.136533 27.528534l-0.068267 1.501866h-1.536c-8.533333 0-18.039467-0.273067-28.330667-0.785066v12.288c10.001067-0.512 19.217067-0.768 27.4432-0.768h1.928534l-0.341334 1.860266a73.181867 73.181867 0 0 1-17.066666 35.0208 92.928 92.928 0 0 1-36.317867 23.9616h-0.017067z m-15.479467-28.074666l-1.536-1.399467a158.685867 158.685867 0 0 0-35.669333-19.677867l-1.979734-0.8704 1.399467-1.621333c3.396267-3.8912 5.973333-8.413867 7.6288-13.312l0.5632-1.6896 1.6384 0.750933c16.725333 7.68 29.149867 13.943467 37.9904 19.165867l1.536 0.9216-1.109333 1.416533a86.869333 86.869333 0 0 0-9.506134 14.472534l-0.955733 1.8432z m-34.013867-23.108267a168.021333 168.021333 0 0 1 33.024 18.039467c2.286933-4.130133 4.898133-8.072533 7.7824-11.793067-8.2432-4.778667-19.848533-10.5984-34.5088-17.373867-1.536 4.010667-3.6352 7.748267-6.280533 11.127467z m47.189334-10.820267l-1.467734-1.28a173.943467 173.943467 0 0 0-33.143466-21.469866l-1.774934-0.904534 1.28-1.501866c3.0208-3.618133 6.280533-7.68 9.6256-12.0832l0.853334-1.1264 1.2288 0.682666c14.0288 7.8336 25.5488 14.336 35.242666 19.968l1.792 1.024-1.467733 1.450667a69.12 69.12 0 0 0-11.178667 13.550933l-0.989866 1.6896z m-31.368534-24.644266c10.837333 5.512533 21.060267 12.1344 30.549334 19.7632 2.696533-4.010667 5.7856-7.7312 9.216-11.127467-10.683733-6.144-21.4016-12.219733-32.170667-18.2272-2.474667 3.242667-5.0176 6.4512-7.611733 9.591467zM726.016 851.797333v15.598934c-5.888-0.5632-15.5648-0.853333-29.047467-0.853334 0 15.018667 0.290133 26.88 0.8704 35.549867H680.277333v-8.669867h-47.530666v16.469334a15.872 15.872 0 0 1-7.4752 13.8752 90.453333 90.453333 0 0 1-25.975467 6.075733 54.613333 54.613333 0 0 0-8.789333-19.080533 162.474667 162.474667 0 0 0 21.128533-0.853334 5.205333 5.205333 0 0 0 5.290667-5.205333v-11.264h-49.3056c-6.468267 0-14.097067 0.290133-22.869334 0.853333v-15.616c8.789333 0.597333 16.418133 0.887467 22.869334 0.8704h49.288533v-13.0048h-66.030933c-7.645867 0-14.984533 0.290133-22.016 0.853334v-15.598934c7.048533 0.580267 14.3872 0.8704 22.016 0.853334h66.013866v-12.117334h-51.0464c-6.468267 0-13.5168 0.273067-21.128533 0.853334v-15.616c7.6288 0.580267 14.677333 0.8704 21.128533 0.8704h51.029334v-11.264h-61.5936c0.580267-8.669867 0.853333-16.469333 0.8704-23.415467 0-7.509333-0.290133-14.728533-0.8704-21.674667h61.610666v-12.151466h-62.464c-9.386667 0-18.210133 0.290133-26.402133 0.8704v-15.598934c8.192 0.597333 16.6912 0.8704 25.514667 0.853334h63.368533a175.786667 175.786667 0 0 0-0.887467-15.598934h17.6128a122.88 122.88 0 0 0-0.8704 15.616h59.835734c9.966933 0 20.241067-0.290133 30.805333-0.8704v15.616c-10.564267-0.580267-20.821333-0.853333-30.805333-0.8704h-59.869867v12.1344h63.368533c-0.597333 6.946133-0.887467 14.165333-0.887466 21.674667 0 7.5264 0.3072 15.325867 0.887466 23.432533h-63.368533v11.264h65.143467c-0.597333 5.802667-0.887467 14.472533-0.887467 26.0096 8.789333 0 18.466133-0.3072 29.047467-0.8704z m-109.141333-50.312533v-17.339733h-44.885334v17.339733h44.885334z m61.610666 0v-17.339733h-45.7728v17.339733h45.7728z m1.757867 51.165867v-12.117334h-47.530667v12.117334h47.530667z m0 26.897066v-13.0048h-47.530667v13.0048h47.530667z m-82.244267 52.053334l-0.290133-1.450667a53.418667 53.418667 0 0 0-8.567467-18.500267l-1.672533-2.4576h3.003733a162.304 162.304 0 0 0 20.855467-0.853333 3.584 3.584 0 0 0 3.9424-3.6352v-9.710933h-47.684267c-7.594667 0.0512-15.189333 0.341333-22.766933 0.8704l-1.706667 0.119466v-19.012266l1.706667 0.119466c8.567467 0.580267 16.2304 0.8704 22.766933 0.8704h47.684267v-9.847466h-64.426667c-7.4752 0-14.848 0.3072-21.879466 0.853333l-1.723734 0.1536V850.090667l1.7408 0.136533c6.826667 0.580267 14.199467 0.8704 21.8624 0.8704h64.4096v-8.977067h-49.442133c-6.314667 0-13.397333 0.290133-20.992 0.853334l-1.723733 0.1536v-19.063467l1.706666 0.136533c6.997333 0.5632 13.994667 0.853333 20.992 0.8704h49.4592v-8.106666h-61.730133l0.119467-1.706667c0.580267-8.6528 0.8704-16.4864 0.8704-23.296 0-7.3728-0.290133-14.609067-0.8704-21.5552l-0.136534-1.706667h61.7472v-8.977066h-60.893866c-9.233067 0-18.090667 0.290133-26.282667 0.853333l-1.706667 0.136533V741.717333l1.706667 0.119467c8.448 0.597333 16.930133 0.887467 25.412267 0.853333h61.7472a205.9264 205.9264 0 0 0-0.853334-13.8752l-0.170666-1.706666h21.162666l-0.221866 1.757866c-0.5632 4.608-0.853333 9.216-0.853334 13.824h58.2144c10.069333 0 20.4288-0.290133 30.72-0.853333l1.706667-0.1024v18.944l-1.706667-0.085333a570.487467 570.487467 0 0 0-30.72-0.8704h-58.2144v8.977066h63.488l-0.136533 1.723734c-0.597333 6.741333-0.887467 13.994667-0.887467 21.538133 0 7.560533 0.290133 15.445333 0.887467 23.313067l0.119467 1.6896h-63.488v8.106666h65.297066l-0.170666 1.7408c-0.5632 5.444267-0.853333 13.380267-0.853334 24.2688a530.978133 530.978133 0 0 0 27.306667-0.853333l1.706667-0.085333v19.029333l-1.757867-0.170667c-5.632-0.512-14.7968-0.836267-27.2896-0.853333 0.034133 14.506667 0.324267 25.6 0.887467 33.860267l0.119466 1.6896h-20.923733v-8.686934h-44.305067v14.8992c0.136533 6.212267-3.037867 12.032-8.328533 15.274667-8.465067 3.413333-17.408 5.512533-26.504533 6.2464l-1.467734 0.221867z m-4.608-19.234134c3.1744 4.846933 5.5808 10.154667 7.099734 15.735467a85.504 85.504 0 0 0 23.9616-5.700267 14.336 14.336 0 0 0 6.656-12.629333v-17.92h50.7392v8.686933h14.2848a585.949867 585.949867 0 0 1-0.768-33.979733v-1.604267h1.604266c12.168533 0 21.367467 0.238933 27.4432 0.7168v-12.1856c-9.728 0.512-18.944 0.768-27.4432 0.768h-1.604266v-1.570133c0-10.7008 0.238933-18.705067 0.7168-24.439467H631.125333v-14.4384h63.249067a316.416 316.416 0 0 1-0.750933-21.845333c0-6.997333 0.256-13.738667 0.733866-20.087467H631.125333v-15.3088h61.44c9.335467 0 19.165867 0.273067 29.184 0.768v-12.288c-9.813333 0.512-19.626667 0.785067-29.184 0.785067h-61.44v-1.5872a130.952533 130.952533 0 0 1 0.682667-14.0288h-14.045867c0.494933 5.7344 0.733867 10.325333 0.733867 14.0288v1.5872h-64.9728c-8.311467 0-16.349867-0.256-23.927467-0.750933v12.202666c7.799467-0.512 16.128-0.733867 24.797867-0.733866h64.119467v15.291733h-61.4912c0.494933 6.485333 0.733867 13.243733 0.733866 20.104533 0 6.417067-0.238933 13.755733-0.768 21.845334h61.525334v14.421333h-52.667734c-6.109867 0-12.6464-0.238933-19.524266-0.733867v12.1856c7.048533-0.512 13.602133-0.750933 19.524266-0.750933h52.667734v15.3088h-67.6352c-7.1168 0-13.960533-0.238933-20.394667-0.7168v12.168533c6.792533-0.494933 13.585067-0.733867 20.394667-0.733866h67.6352v16.196266h-50.8928c-6.178133 0-13.312-0.256-21.282134-0.750933v12.219733c8.157867-0.512 15.3088-0.750933 21.282134-0.750933h50.8928v12.834133a6.656 6.656 0 0 1-6.621867 6.775467c-6.144 0.682667-12.288 0.989867-18.466133 0.904533z m88.439467-31.232h-50.7392v-16.1792h50.7392v16.1792z m-47.530667-3.157333h44.322134v-9.847467h-44.322134v9.847467z m47.530667-23.722667h-50.7392v-15.3088h50.7392v15.3088z m-47.530667-3.157333h44.322134v-8.994133h-44.322134v8.994133z m45.755734-48.008533h-48.981334v-20.48h48.981334v20.48z m-45.755734-3.1744h42.5472v-14.165334h-42.5472v14.165334z m-15.837866 3.157333H570.368v-20.48h48.128v20.48h-0.017067z m-44.885334-3.157333h41.6768v-14.165334h-41.693866v14.165334z m205.2096-2.747734a500.036267 500.036267 0 0 1-21.111466 28.6208 29.764267 29.764267 0 0 0-12.322134-13.0048 183.0912 183.0912 0 0 0 29.047467-38.161066c8.96-15.4112 16.3328-31.675733 22.016-48.571734 5.717333 3.959467 11.946667 7.168 18.4832 9.540267-4.130133 3.464533-10.581333 14.455467-19.370667 32.955733v117.930667c0 18.517333 0.290133 32.392533 0.887467 41.642667h-18.500267c0.580267-8.106667 0.853333-21.674667 0.8704-40.7552V797.184z m62.498134-19.968h34.304v-17.3568c0-14.4384-0.290133-24.2688-0.887467-29.4912h18.4832a283.6992 283.6992 0 0 0-0.8704 28.6208v18.2272h26.402133c7.611733 0 14.660267-0.290133 21.111467-0.8704v16.4864a239.616 239.616 0 0 0-21.111467-0.8704h-26.402133v46.830934h29.047467c8.789333 0 19.3536-0.290133 31.675733-0.853334v16.469334c-9.984-0.580267-20.821333-0.8704-32.5632-0.887467h-28.16v45.1072c0 8.669867 0.290133 18.210133 0.887467 28.6208h-18.500267c0.580267-10.410667 0.8704-19.950933 0.887467-28.6208v-45.1072h-34.304c-9.984 0-21.7088 0.290133-35.208534 0.8704v-16.469333c12.9024 0.597333 23.466667 0.887467 31.6928 0.853333h37.8368v-46.813867h-39.594666c-1.757867 4.608-6.7584 15.325867-14.967467 32.085334a60.962133 60.962133 0 0 0-15.837867-7.799467c6.1952-9.3184 11.502933-19.182933 15.837867-29.4912 5.4272-13.448533 9.557333-27.392 12.322133-41.642667 6.3488 3.566933 13.141333 6.1952 20.241067 7.816534-2.952533 2.338133-7.048533 10.410667-12.322133 24.285866z m-43.178667 152.4736H776.192l0.136533-1.6896c0.5632-8.0896 0.853333-21.777067 0.853334-40.6528v-85.026133c-5.8368 8.328533-11.912533 16.469333-18.2272 24.439467l-1.570134 1.9968-1.160533-2.2528a28.228267 28.228267 0 0 0-11.656533-12.3392l-1.860267-1.024 1.536-1.501867a181.623467 181.623467 0 0 0 28.7744-37.8368c8.9088-15.3088 16.247467-31.470933 21.879467-48.264533l0.6656-1.979734 1.757866 1.160534c5.614933 3.874133 11.690667 7.0144 18.090667 9.352533l2.696533 0.887467-2.1504 1.826133c-3.874133 3.259733-10.205867 14.062933-18.807466 32.085333v117.6064c0 18.807467 0.3072 32.392533 0.887466 41.540267l0.085334 1.672533z m-18.4832-3.157333h15.069867a769.416533 769.416533 0 0 1-0.785067-40.055467l0.1536-118.613333a159.778133 159.778133 0 0 1 17.92-31.624533 86.528 86.528 0 0 1-14.728533-7.748267c-5.614933 16.298667-12.8 32.017067-21.469867 46.8992-7.714133 13.4656-17.066667 25.9072-27.869867 37.051733 4.096 2.645333 7.509333 6.229333 9.984 10.427734 6.826667-8.635733 13.346133-17.527467 19.541334-26.624l2.952533-4.352v95.4368c0 17.7152-0.238933 30.890667-0.768 39.2192z m115.285333 2.304h-21.879466l0.085333-1.6896c0.580267-10.410667 0.887467-20.002133 0.887467-28.5184v-43.52h-32.7168c-9.796267 0-21.623467 0.290133-35.157334 0.853333l-1.655466 0.085334V836.266667l1.6896 0.085333a721.578667 721.578667 0 0 0 31.5904 0.8704h36.2496v-43.690667H837.12c-2.048 5.102933-6.826667 15.325867-14.609067 31.232l-0.9728 1.9968-1.604266-1.5872a57.344 57.344 0 0 0-15.3088-7.441066l-1.8432-0.733867 1.092266-1.6384c6.144-9.216 11.400533-19.012267 15.701334-29.218133 5.393067-13.3632 9.489067-27.204267 12.2368-41.335467l0.477866-2.218667 1.9456 1.194667c6.1952 3.464533 12.868267 6.0416 19.797334 7.6288l3.072 0.802133-2.491734 1.962667c-1.774933 1.399467-5.085867 6.2976-10.990933 21.469867h30.378667v-15.7696c0-14.267733-0.290133-24.149333-0.853334-29.320534l-0.2048-1.7408h22.101334l-0.221867 1.774934a276.650667 276.650667 0 0 0-0.887467 28.416v16.64h24.814934c6.997333 0.017067 13.994667-0.273067 20.992-0.8704l1.7408-0.1536v19.950933l-1.7408-0.170667a238.592 238.592 0 0 0-20.992-0.853333H893.952v43.690667h27.4432c8.942933 0 19.575467-0.3072 31.607467-0.887467l1.672533-0.068267v19.8144l-1.706667-0.1024a571.136 571.136 0 0 0-32.4608-0.8704H893.952v43.52c0 8.772267 0.290133 18.3808 0.887467 28.5184l0.085333 1.6896z m-18.4832-3.157333h15.086934a486.4 486.4 0 0 1-0.785067-27.050667V851.968h29.764267c10.973867 0 21.367467 0.256 30.958933 0.785067v-13.1584c-11.400533 0.512-21.504 0.785067-30.071467 0.785066h-30.651733v-50.005333h27.989333c6.912 0 13.4656 0.256 19.541334 0.733867v-13.0048c-6.5024 0.494933-13.0048 0.733867-19.524267 0.699733h-28.0064v-19.797333c0-13.038933 0.221867-21.9136 0.682667-27.0336h-14.882134c0.477867 5.614933 0.699733 14.984533 0.699734 27.921066v18.944h-38.229334l0.802134-2.1504c2.6112-8.055467 6.263467-15.752533 10.8544-22.869333a80.349867 80.349867 0 0 1-16.145067-6.144c-2.747733 13.585067-6.7584 26.897067-11.963733 39.765333a181.128533 181.128533 0 0 1-14.8992 28.1088c4.437333 1.6384 8.7552 3.669333 12.834133 6.0928 7.7824-15.906133 12.373333-25.787733 14.0288-30.208l0.4096-1.024h42.325333v50.005334H837.802667c-8.055467 0-18.176-0.273067-30.088534-0.802134v13.1584c12.885333-0.512 24.183467-0.785067 33.621334-0.785066H877.226667v46.677333a548.471467 548.471467 0 0 1-0.802134 27.0336v-0.034133zM786.602667 567.552a121.770667 121.770667 0 0 0-83.712-171.2128c-2.0992 4.522667-4.352 8.96-6.7584 13.312A181.8112 181.8112 0 0 1 578.048 587.605333a121.9072 121.9072 0 0 0 184.832 13.9264 201.659733 201.659733 0 0 1-252.8256 43.008c-1.774933 0.9216-3.515733 1.8944-5.3248 2.7648A201.762133 201.762133 0 0 1 307.712 296.106667c7.2192-109.9776 99.2256-195.072 209.425067-193.706667 110.199467 1.365333 200.072533 88.712533 204.578133 198.826667a201.6768 201.6768 0 0 1 64.887467 266.3424z m-149.572267-284.3648l-2.389333-2.082133 2.389333 2.082133z m-7.611733-6.4512l-2.8672-2.184533 2.8672 2.184533z m41.352533 46.557867l-2.6624-4.181334c0.8192 1.3824 1.706667 2.781867 2.594133 4.164267h0.068267z m-5.973333-9.045334c-0.733867-1.006933-1.416533-1.979733-2.2016-2.9696 0.733867 0.9728 1.399467 1.962667 2.133333 2.952534h0.0512z m29.2864 66.730667l-1.143467-4.266667c0.256 1.4336 0.682667 2.833067 1.041067 4.1984l0.1024 0.068267z m-2.389334-10.205867c-0.529067-1.416533-1.024-2.833067-1.570133-4.266666l1.536 4.266666h0.034133z m-3.5328-10.717866c-0.290133-0.836267-0.546133-1.706667-0.853333-2.525867 0.341333 0.853333 0.546133 1.706667 0.8192 2.525867h0.034133z m-12.8-28.928l-1.262933-2.184534 1.262933 2.184534zM650.24 417.28a135.509333 135.509333 0 0 0-4.471467-33.979733c-23.261867 14.506667-53.0432 28.125867-73.9328 54.818133a56.081067 56.081067 0 0 0-42.939733-68.215467c25.7024-1.570133 53.316267-13.124267 80.384-42.222933 0 0 2.935467 0.1536 7.509333 0.580267a135.4752 135.4752 0 0 0-198.2464-6.826667c15.4624 14.711467 49.629867 42.615467 91.0336 47.786667A56.285867 56.285867 0 0 0 460.8 424.96c0 1.024 0.1024 2.048 0.1536 3.072-16.264533-21.162667-40.6528-38.980267-76.8-47.786667a135.202133 135.202133 0 0 0 108.117333 170.752 213.0432 213.0432 0 0 0-9.506133-81.493333c22.016 17.066667 53.248 15.394133 73.3184-3.959467-8.2944 20.718933-12.0832 47.189333-8.2432 82.2784l0.085333 0.8192A135.611733 135.611733 0 0 0 650.24 417.28zM471.330133 595.080533l1.1264 0.256-1.1264-0.256z m7.338667 1.7408c1.450667 0.290133 2.901333 0.494933 4.266667 0.785067-1.365333-0.290133-2.816-0.494933-4.266667-0.785067z m8.704 1.416534c1.416533 0.477867 2.8672 0.768 4.266667 1.194666-1.365333-0.426667-2.798933-0.733867-4.181334-1.314133l-0.068266 0.119467z m76.868267-4.027734l1.826133-0.512-1.826133 0.512z m-49.681067 6.843734z m-18.261333-1.809067c1.399467 0.580267 2.833067 0.887467 4.266666 1.348267-1.4336-0.4608-2.850133-0.768-4.266666-1.365334zM309.418667 399.1552a122.077867 122.077867 0 1 0 141.397333 193.9456c-1.928533-2.491733-3.652267-5.154133-5.461333-7.748267a181.794133 181.794133 0 0 1-112.366934-175.616c-3.003733-5.393067-5.768533-10.922667-8.260266-16.554666a122.453333 122.453333 0 0 0-15.325867 5.973333zM519.68 107.52a125.44 125.44 0 0 0-125.44 125.44c0.0512 10.581333 0.682667 21.162667 1.962667 31.658667 7.0656-0.682667 14.165333-1.024 21.282133-0.9728a181.6064 181.6064 0 0 1 200.4992 4.1984c8.0896 0.290133 16.162133 1.0752 24.1664 2.3552a238.250667 238.250667 0 0 0 2.9696-37.239467 125.44 125.44 0 0 0-125.44-125.44zM762.88 601.531733c9.045333-10.478933 16.9984-21.8624 23.722667-33.962666a122.299733 122.299733 0 0 1-23.722667 33.962666z" fill="#FF0000" /></svg>