<?xml version="1.0" standalone="no"?><!DOCTYPE svg PUBLIC "-//W3C//DTD SVG 1.1//EN" "http://www.w3.org/Graphics/SVG/1.1/DTD/svg11.dtd"><svg class="icon" width="1000px" height="1000.00px" viewBox="0 0 1024 1024" version="1.1" xmlns="http://www.w3.org/2000/svg"><path d="M0 1024V0h1024v1024H0zM992 32H32v960h960V32z" fill="#0000FF" /><path d="M138.24 860.16l25.6-56.32h696.32l25.6 56.32H138.24zM768 563.2c-11.946667 1.706667-27.306667-11.946667-51.2-25.6s-20.48 8.533333-15.36 30.72c5.12 22.186667 29.013333 68.266667 20.48 81.92a91.972267 91.972267 0 0 0-15.36 56.32c1.706667 23.893333 35.84 61.44 35.84 61.44-10.120533 2.372267-20.3776 4.096-30.72 5.12-17.066667 1.706667-25.6-6.826667-30.72-28.962133-5.12-22.135467-3.413333-18.824533-5.12-47.837867-1.706667-29.013333 1.706667-11.946667-10.24-35.84-11.946667-23.893333-22.186667-17.066667-25.6-10.24-3.413333 6.826667 6.826667 20.48-10.24 30.72-17.066667 10.24-29.013333 34.133333-30.72 63.197867-1.706667 29.064533 1.706667 20.4288-10.24 18.722133-11.946667-1.706667-10.24-18.722133-10.24-18.722133s-1.706667 0-10.24-22.237867 10.24-32.426667 20.48-46.08c6.024533-7.0656 7.953067-16.759467 5.12-25.6l-10.24-10.24-10.24-35.84a405.0432 405.0432 0 0 0-15.36-51.2c-10.24-27.306667 5.12-56.32 5.12-56.32l-15.36-10.24-15.36-10.24a95.453867 95.453867 0 0 1-40.96-20.48c-20.48-17.066667-32.426667 1.706667-30.72 15.36 1.706667 13.653333 10.24 61.44 30.72 87.04 20.48 25.6 10.24 148.48 10.24 148.48l25.6 37.597867s10.24 18.722133-15.36 18.722133a40.96 40.96 0 0 1-35.84-18.722133A125.371733 125.371733 0 0 0 460.8 696.32c-13.653333-23.893333-6.826667-34.133333-10.24-51.2a402.875733 402.875733 0 0 1-5.12-40.96c-18.773333-35.84-46.08-15.36-46.08-15.36l-71.68 112.64 10.24 42.717867-10.24 18.722133-51.2-66.56s32.938667-59.733333 56.32-87.04c23.381333-27.306667-5.12-24.746667-5.12-40.96a56.661333 56.661333 0 0 1 15.36-35.84c5.461333-5.973333-9.728-15.36-25.6-20.48-15.872-5.12-40.448-12.8-46.08-46.08-1.365333-26.453333 9.045333-50.346667 25.6-51.2 16.554667-0.853333 27.818667-9.386667 30.72-35.84 2.901333-26.453333 61.44-71.68 61.44-71.68l15.36-10.24v-15.36s-2.048-6.826667-5.12-15.36-12.288-15.36-20.48-25.6-2.901333-66.56 61.44-71.68c64.341333-5.12 61.44 46.08 61.44 46.08a6.536533 6.536533 0 0 1 10.24 0c4.608 5.973333 6.485333 11.093333-5.12 15.36-11.605333 4.266667-9.728 14.506667-10.24 25.6-0.512 11.093333 4.778667 17.92-10.24 25.6-8.874667 4.522667-17.442133 9.642667-25.6 15.36l-5.12 15.36c9.216 3.874133 17.851733 9.045333 25.6 15.36a46.728533 46.728533 0 0 1 20.48 35.84c2.048 13.653333 2.218667 17.066667 0 25.6S512 409.6 512 409.6v15.36l30.72 20.48 10.24 10.24 10.24 10.24 10.24-10.24s36.352-23.04 46.08-30.72c9.728-7.68 6.485333-10.24-5.12-10.24-11.605333 0-16.554667-11.946667-25.6-40.96s25.6-40.96 25.6-40.96v-10.24a43.946667 43.946667 0 0 0-10.24-10.24c-3.072-0.853333-7.168 3.413333-15.36-10.24-8.192-13.653333 15.36-15.36 15.36-15.36l10.24 10.24 15.36 10.24s3.925333-6.826667 0-10.24c-3.925333-3.413333-8.021333-21.333333 10.24-20.48 18.261333 0.853333 15.36 15.36 15.36 15.36l-3.925333 11.776a2.901333 2.901333 0 0 0-1.194667 3.584l1.194667-3.584c2.833067-1.109333 11.127467 1.314133 34.645333 18.944 40.96 30.72 11.946667 69.973333-5.12 81.92-17.066667 11.946667-20.48 20.48-20.48 20.48l5.12 15.36 20.48 15.36c7.2704 8.157867 14.114133 16.725333 20.48 25.6 6.826667 10.24 27.306667 40.96 61.44 56.32 34.133333 15.36 11.946667 23.893333 0 25.6z" fill="#0000FF" /></svg>