<?xml version="1.0" standalone="no"?><!DOCTYPE svg PUBLIC "-//W3C//DTD SVG 1.1//EN" "http://www.w3.org/Graphics/SVG/1.1/DTD/svg11.dtd"><svg class="icon" width="1000px" height="983.67px" viewBox="0 0 1041 1024" version="1.1" xmlns="http://www.w3.org/2000/svg"><path d="M869.6832 1024H165.6832a160 160 0 0 1-160-160V160A160 160 0 0 1 165.6832 0h704a160 160 0 0 1 160 160v704A160 160 0 0 1 869.6832 1024z m128-832a160 160 0 0 0-160-160h-640a160 160 0 0 0-160 160v640a160 160 0 0 0 160 160h640a160 160 0 0 0 160-160v-640z" fill="#FF0000" /><path d="M80.213333 805.12c4.061867-4.078933 7.338667-8.874667 9.6768-14.1312 10.5472 6.485333 24.610133 15.906133 42.205867 28.2624a112.861867 112.861867 0 0 0-11.434667 15.018667 326.980267 326.980267 0 0 0-40.448-29.149867z m39.5776 81.288533a411.613867 411.613867 0 0 1-21.111466 43.281067 32.597333 32.597333 0 0 0-16.725334-9.728c7.68-11.076267 14.4384-22.7328 20.241067-34.884267 6.434133-13.2608 11.997867-25.770667 16.708267-37.546666 3.976533 4.608 8.738133 8.4992 14.062933 11.485866a171.400533 171.400533 0 0 0-13.175467 27.392z m22.852267-125.44c-4.113067 5.290667-7.918933 10.2912-11.434667 15.018667a282.555733 282.555733 0 0 0-40.448-28.279467c3.652267-4.096 6.894933-8.533333 9.6768-13.243733a929.109333 929.109333 0 0 1 42.205867 26.4704v0.034133z m132.778667 129.877334v15.889066a146.2784 146.2784 0 0 0-17.578667-0.8704c-1.1776 13.533867-3.959467 21.777067-8.362667 24.746667-6.621867 3.618133-13.994667 5.717333-21.538133 6.161067-2.048-5.9904-4.386133-11.895467-7.031467-17.664 5.7344 0.9216 11.605333 0.4608 17.152-1.3312 2.645333-1.467733 4.232533-5.4272 4.829867-11.9296H158.481067c1.757867-18.244267 3.2256-36.1984 4.386133-53.879467-6.4512 0-13.192533 0.290133-20.224 0.887467v-15.9232c7.0144 0.648533 14.062933 0.955733 21.111467 0.887466 1.160533-21.777067 2.048-37.6832 2.628266-47.701333a941.738667 941.738667 0 0 1-15.8208 21.213867 75.776 75.776 0 0 0-13.192533-10.615467 134.826667 134.826667 0 0 0 25.070933-35.328c6.178133-12.117333 11.042133-24.849067 14.506667-37.9904 5.717333 3.584 11.946667 6.263467 18.466133 7.953067a99.003733 99.003733 0 0 0-9.6768 17.664h63.317334c11.127467 0 21.0944-0.290133 29.9008-0.887467V768a475.784533 475.784533 0 0 0-30.7712-0.887467h-68.608c-4.113067 7.0656-8.209067 13.841067-12.288 20.309334h95.829333c-0.580267 14.165333-1.1776 30.941867-1.757867 50.3808 6.4512 0 13.482667-0.290133 21.111467-0.887467v15.906133a292.352 292.352 0 0 0-21.981867-0.887466 993.792 993.792 0 0 0-1.757866 39.765333c4.096 0 9.659733-0.290133 16.708266-0.887467v0.034134z m-29.013334-38.877867h-69.461333c-1.194667 15.906133-2.065067 29.166933-2.645333 39.765333h70.3488l1.757866-39.765333z m-66.816-50.346667c0 7.662933-0.597333 19.729067-1.774933 36.215467h69.4784c0-12.970667 0.290133-25.0368 0.887467-36.232533h-68.608z m43.963734 79.5136a64.187733 64.187733 0 0 0-12.288 7.936c-4.386133-8.874667-9.386667-17.408-14.9504-25.6 4.096-2.9184 7.901867-5.5808 11.434666-7.936 5.700267 8.2432 10.973867 16.776533 15.803734 25.565867v0.034133z m0.887466-53.026133a64.290133 64.290133 0 0 0-12.288 7.953067c-3.959467-8.465067-8.362667-16.725333-13.2096-24.746667l10.513067-7.9872c5.546667 7.918933 10.5472 16.1792 14.967467 24.746667v0.034133z m2.389334 110.3872l-0.4096-1.245867a188.7744 188.7744 0 0 0-6.980267-17.5104l-1.109333-2.440533 2.696533 0.170667c2.4576 0.170667 4.676267 0.238933 6.656 0.238933 3.259733 0.290133 6.5536-0.187733 9.608533-1.365333a11.844267 11.844267 0 0 0 3.805867-8.9088H156.706133l0.170667-1.774934c1.672533-17.408 3.106133-34.884267 4.266667-52.104533-6.144 0.0512-12.253867 0.341333-18.363734 0.853333l-1.7408 0.170667v-19.456l1.757867 0.1536c5.410133 0.546133 11.776 0.853333 19.438933 0.8704 0.9216-17.408 1.655467-30.976 2.218667-40.686933-3.072 4.1472-7.287467 9.7792-12.629333 16.776533l-1.109334 1.467733-1.28-1.28A74.717867 74.717867 0 0 0 136.533333 802.013867l-1.706666-1.0752 1.416533-1.4336a133.802667 133.802667 0 0 0 24.746667-34.935467 187.733333 187.733333 0 0 0 14.404266-37.649067l0.512-2.082133 1.8432 1.0752c5.5808 3.498667 11.639467 6.109867 18.005334 7.7824l2.525866 0.546133-1.621333 2.048a87.7568 87.7568 0 0 0-8.3968 15.0528h60.791467c11.2128 0 21.230933-0.3072 29.781333-0.887466l1.706667-0.119467V769.706667l-1.706667-0.1024a471.296 471.296 0 0 0-30.6688-0.887467h-67.652267c-3.5328 6.0416-6.997333 11.776-10.325333 17.1008h94.6176l-0.085333 1.672533c-0.5632 13.431467-1.109333 29.371733-1.706667 48.674134 6.4512-0.068267 12.9024-0.341333 19.336533-0.8704l1.706667-0.136534v19.387734l-1.706667-0.136534a285.166933 285.166933 0 0 0-20.3776-0.853333c-0.512 7.509333-1.041067 19.473067-1.5872 36.5056 3.9424-0.068267 8.96-0.375467 14.8992-0.8704l1.7408-0.136533v19.473066l-1.792-0.221866a138.496 138.496 0 0 0-15.9232-0.853334c-1.314133 13.312-4.232533 21.2992-8.925866 24.439467-6.843733 3.771733-14.4384 5.973333-22.254934 6.468267l-1.297066 0.136533z m-3.3792-17.646933c2.2528 5.12 4.096 9.8304 5.597866 14.1312 6.843733-0.512 13.5168-2.4576 19.541334-5.751467 2.730667-1.826133 6.229333-7.389867 7.645866-23.552l0.119467-1.467733h1.4848c6.144 0 11.537067 0.221867 15.991467 0.682666v-12.356266c-6.144 0.512-11.2128 0.750933-15.104 0.750933h-1.655467l0.068267-1.655467c0.580267-19.165867 1.160533-32.187733 1.757866-39.8336l0.1024-1.4848h1.501867c6.434133 0 13.277867 0.238933 20.3776 0.750934v-12.407467c-6.485333 0.494933-12.987733 0.750933-19.5072 0.768h-1.672533l0.0512-1.672533c0.580267-19.2512 1.143467-35.208533 1.6896-48.6912H168.072533l-0.085333 1.1264c-0.597333 10.018133-1.467733 25.924267-2.628267 47.701333l-0.085333 1.536h-1.536c-7.611733 0-14.0288-0.238933-19.5072-0.7168v12.373333c6.5024-0.512 12.7488-0.750933 18.619733-0.750933h1.706667l-0.1024 1.723733c-1.143467 17.220267-2.56 34.7648-4.215467 52.1728h84.411734l-0.170667 1.757867c-0.648533 7.1168-2.474667 11.434667-5.632 13.192533a32.631467 32.631467 0 0 1-15.394133 1.6896v-0.017066z m-83.5584-120.456534c3.7376 2.525867 7.236267 5.358933 10.496 8.465067 4.983467-6.5024 9.8816-13.073067 14.677333-19.712l0.085333-0.1024h-0.8192l1.5872-2.474667c4.215467-6.690133 8.311467-13.448533 12.288-20.2752l0.443734-0.785066h69.512533c10.888533 0 20.6848 0.238933 29.184 0.768v-12.458667c-8.2432 0.512-17.749333 0.768-28.296533 0.768h-65.8432l1.0752-2.286933c2.423467-5.5296 5.256533-10.888533 8.448-16.008534a70.434133 70.434133 0 0 1-14.7456-6.485333c-3.4816 12.526933-8.209067 24.6784-14.114134 36.266667a137.693867 137.693867 0 0 1-23.978666 34.338133z m-41.096534 132.386134l-1.450666-2.2016a31.4368 31.4368 0 0 0-15.872-9.096534l-2.048-0.682666 1.2288-1.774934c7.611733-11.008 14.336-22.596267 20.104533-34.6624 6.007467-12.288 11.5712-24.763733 16.657067-37.444266l0.9728-2.4576 1.723733 1.9968c3.874133 4.471467 8.482133 8.2432 13.653333 11.1104l1.536 0.853333-0.9728 1.4848a169.796267 169.796267 0 0 0-13.038933 27.101867 417.109333 417.109333 0 0 1-21.179733 43.4688l-1.314134 2.304z m-14.267733-13.653334c5.12 1.536 9.8816 4.164267 13.909333 7.68 7.389867-13.277867 14.0288-26.999467 19.882667-41.045333 3.464533-9.045333 7.6288-17.800533 12.424533-26.2144a53.1456 53.1456 0 0 1-11.264-9.045333c-4.881067 11.912533-10.154667 23.688533-15.803733 35.259733a262.314667 262.314667 0 0 1-19.1488 33.3824z m161.6896-25.8048h-73.6256l0.1024-1.706666c0.580267-10.581333 1.450667-23.9616 2.628267-39.799467l0.119466-1.4848h72.6528l-1.877333 42.990933z m-33.6896-3.242666h30.6176l1.621333-36.522667h-36.352l0.682667 1.024c5.7344 8.311467 11.042133 16.896 15.906133 25.770667l0.785067 1.450666-1.467733 0.768c-4.215467 2.048-8.174933 4.573867-11.810134 7.509334h0.017067z m-36.5056 0h33.962667l-0.170667-0.290134a209.681067 209.681067 0 0 0-14.848-25.429333l-0.904533-1.3312 1.297066-0.904533c4.096-2.952533 7.936-5.632 11.4688-7.9872l0.853334-0.580267h-29.252267c-1.041067 14.336-1.877333 26.606933-2.423467 36.522667h0.017067z m22.528-26.248534c4.881067 7.287467 9.3184 14.882133 13.277867 22.698667 3.003733-2.304 6.212267-4.352 9.557333-6.144-4.317867-7.765333-9.0112-15.342933-14.045867-22.698667-2.798933 1.877333-5.7344 3.925333-8.840533 6.144h0.0512z m50.397867-24.405333h-72.874667l0.136533-1.723733c1.194667-16.759467 1.757867-28.5696 1.757867-36.113067v-1.621333h71.901867l-0.1024 1.706666a685.243733 685.243733 0 0 0-0.8704 36.130134v1.621333h0.0512z m-34.389334-3.2256h31.1808c0-11.8272 0.273067-22.920533 0.785067-33.006933h-35.208533c5.358933 7.7312 10.222933 15.803733 14.523733 24.1664l0.7168 1.450666-1.4336 0.733867c-3.754667 1.860267-7.304533 4.096-10.615467 6.656h0.0512z m-34.9696 0h30.890667c-3.8912-8.2432-8.192-16.264533-12.885333-24.064l-0.750934-1.262933 10.205867-7.68h-25.873067a622.08 622.08 0 0 1-1.6384 33.006933h0.0512z m21.504-24.4736c4.232533 7.082667 8.123733 14.336 11.6736 21.777067a64 64 0 0 1 9.489067-6.109867 222.549333 222.549333 0 0 0-13.175467-21.742933l-7.9872 6.075733z m-79.991466 24.968533l-1.416534-1.1776a326.536533 326.536533 0 0 0-40.226133-29.013333l-1.809067-1.024 1.4848-1.501867c3.925333-3.925333 7.082667-8.567467 9.3184-13.653333l0.768-1.672533 1.536 0.955733c10.581333 6.5024 24.832 16.042667 42.308267 28.330667l1.467733 1.024-1.194666 1.348266c-4.164267 4.608-7.936 9.557333-11.264 14.7968l-0.9728 1.5872z m-38.280534-31.9488c13.1072 8.192 25.634133 17.237333 37.512534 27.136a115.370667 115.370667 0 0 1 9.4208-12.3392 922.555733 922.555733 0 0 0-39.133867-26.231466c-2.048 4.164267-4.693333 8.021333-7.850667 11.434666h0.0512z m48.708267-26.453333l-1.297067-1.092267a283.016533 283.016533 0 0 0-40.209066-28.1088l-1.723734-0.9728 1.297067-1.4848c3.584-4.010667 6.7584-8.362667 9.489067-13.0048l0.802133-1.399466 1.399467 0.802133c11.1104 6.468267 25.344 15.4112 42.274133 26.555733l1.467733 0.955734-1.109333 1.3824c-4.096 5.290667-7.901867 10.308267-11.4176 15.018666l-0.9728 1.3312z m-38.2976-31.0272a287.402667 287.402667 0 0 1 37.6832 26.385067 885.76 885.76 0 0 1 9.3696-12.288 934.109867 934.109867 0 0 0-39.304533-24.695467 85.777067 85.777067 0 0 1-7.748267 10.581333z m261.3248 69.341867a32.887467 32.887467 0 0 0-13.192533 15.018666 364.407467 364.407467 0 0 0-36.932267-22.084266c4.027733-4.625067 7.5776-9.659733 10.5472-15.018667 12.9024 7.0656 26.112 14.421333 39.594667 22.084267h-0.017067z m-14.506667 77.312a1898.496 1898.496 0 0 0-13.636266 39.304533 76.2368 76.2368 0 0 0-21.111467-12.356267 126.634667 126.634667 0 0 0 17.578667-29.610666c6.007467-12.5952 10.734933-25.770667 14.08-39.304534 5.819733 4.334933 11.997867 8.174933 18.466133 11.4688-4.676267 4.727467-9.796267 14.882133-15.36 30.498134h-0.017067z m19.797334-135.645867a61.44 61.44 0 0 0-13.192534 14.1312 153.8048 153.8048 0 0 0-32.529066-26.504533c4.334933-4.488533 8.448-9.216 12.288-14.1312a674.2528 674.2528 0 0 1 33.450666 26.504533z m90.589866 11.485867a253.44 253.44 0 0 0 12.288-42.410667c7.441067 2.901333 15.069867 5.256533 22.852267 7.082667-4.693333 3.515733-11.144533 15.291733-19.3536 35.328 15.240533 0 29.013333-0.3072 41.335467-0.887467v17.664a1117.508267 1117.508267 0 0 0-36.932267-0.887467h-23.722667v34.474667h24.6272c9.386667 0 19.0464-0.3072 29.013334-0.887467v16.776534a672.3072 672.3072 0 0 0-29.883734-0.887467h-23.7568v34.474667h29.9008c8.8064 0 20.241067-0.3072 34.304-0.887467v16.776533c-14.677333-0.580267-26.112-0.853333-34.304-0.8704h-29.9008v21.1968c0 10.5984 0.3072 21.213867 0.887467 31.812267h-19.3536c0.580267-10.615467 0.8704-20.923733 0.887467-30.9248v-22.0672h-24.6272c-11.7248 0-24.337067 0.290133-37.819734 0.887467v-16.7936c13.482667 0.597333 26.385067 0.904533 38.7072 0.887466h23.722667v-34.474666h-18.449067c-9.984 0-20.821333 0.3072-32.546133 0.904533v-16.7936c12.322133 0.597333 23.159467 0.887467 32.546133 0.887467h18.466134v-34.474667h-24.6272c-11.7248 0-22.272 0.3072-31.658667 0.904533V768c10.513067 1.245867 21.077333 1.8432 31.658667 1.757867h45.738666z m-27.272533-12.373334c-6.4512 2.952533-12.322133 5.905067-17.578667 8.840534a133.888 133.888 0 0 0-15.837866-31.7952c5.290667-3.2256 10.888533-5.888 16.725333-7.970134 3.498667 7.68 9.0624 18.005333 16.6912 30.941867z m26.3168 181.845334h-22.7328l0.1024-1.706667c0.580267-10.5984 0.8704-20.992 0.8704-30.8224v-20.48h-23.04c-11.537067 0-24.234667 0.3072-37.751467 0.887467l-1.655466 0.085333v-20.1728l1.672533 0.085333c13.141333 0.580267 26.146133 0.887467 38.621867 0.887467h22.135466v-31.232h-16.8448c-9.796267 0-20.718933 0.290133-32.4608 0.8704l-1.6896 0.1024v-20.1728l1.706667 0.1024c12.014933 0.580267 22.9376 0.887467 32.4608 0.887467h16.878933v-31.232h-23.04c-11.5712 0-22.186667 0.3072-31.573333 0.887466l-1.706667 0.1024v-22.101333l1.826134 0.221867c10.376533 1.2288 20.821333 1.826133 31.266133 1.757866l-0.4608-1.416533a132.7616 132.7616 0 0 0-15.650133-31.402667l-0.887467-1.348266 1.3312-0.887467a93.525333 93.525333 0 0 1 17.032533-8.1408l1.399467-0.512 0.631467 1.365333c3.498667 7.645867 9.096533 18.0224 16.64 30.788267l0.904533 1.536-1.6384 0.750933c-5.922133 2.696533-11.758933 5.632-17.4592 8.789334l-0.904533 0.512h43.844266c5.12-13.329067 9.079467-27.067733 11.844267-41.079467l0.341333-1.9456 1.826134 0.699733c7.3728 2.884267 14.9504 5.2224 22.647466 6.997334l3.3792 0.802133-2.781866 2.082133c-4.266667 3.2256-10.2912 14.1312-17.92 32.426667 14.404267 0 27.477333-0.324267 38.843733-0.8704l1.6896-0.085333v21.0432l-1.672533-0.068267a1091.345067 1091.345067 0 0 0-36.864-0.887467H448.512v31.232h23.04c9.659733 0 19.3024-0.3072 28.928-0.887466l1.706667-0.1024v20.189866l-1.6896-0.085333a668.330667 668.330667 0 0 0-29.815467-0.8704H448.512v31.232h28.296533c8.977067 0 20.48-0.3072 34.235734-0.887467l1.672533-0.085333v20.1728l-1.672533-0.085333a937.4208 937.4208 0 0 0-34.235734-0.887467H448.512v19.592533c0 10.717867 0.3072 21.384533 0.887467 31.726934l0.085333 1.6384z m-19.336533-3.208534h15.940266a585.352533 585.352533 0 0 1-0.768-30.208v-22.818133h31.488c7.850667 0 18.568533 0.273067 32.699734 0.8192V870.4a822.954667 822.954667 0 0 1-32.699734 0.802133h-31.488V833.536h25.344c7.253333 0 16.520533 0.256 28.279467 0.802133v-13.380266c-9.216 0.512-18.432 0.768-27.409067 0.768h-26.2144v-37.666134h25.344c8.448 0 20.0192 0.273067 35.328 0.8192v-14.336c-11.690667 0.546133-25.0368 0.802133-39.7312 0.802134h-2.389333l0.904533-2.218667c7.168-17.476267 12.936533-28.6208 17.578667-33.8432a175.9744 175.9744 0 0 1-18.3808-5.6832 268.288 268.288 0 0 1-12.032 40.7552l-0.375467 1.058133h-46.865066a262.775467 262.775467 0 0 1-30.0544-1.570133v15.018667c9.045333-0.512 19.114667-0.768 30.0544-0.768h26.231466v37.666133h-20.0704c-9.130667 0-19.524267-0.273067-30.941866-0.802133v13.4144c11.1616-0.512 21.572267-0.802133 30.941866-0.802134h20.0704v37.666134h-25.378133c-11.997867 0-24.456533-0.256-37.085867-0.802134v13.4144c12.9536-0.512 25.088-0.802133 36.215467-0.802133h26.231467v23.688533c0 9.7792-0.273067 19.541333-0.785067 29.303467v-0.017067zM392.004267 734.890667c5.956267 9.045333 10.820267 18.773333 14.472533 28.9792 4.727467-2.56 9.5232-4.949333 14.404267-7.2192a366.779733 366.779733 0 0 1-15.240534-28.16c-4.7104 1.774933-9.2672 3.925333-13.653333 6.417066zM327.2192 935.936l-1.792-1.4848a75.093333 75.093333 0 0 0-20.667733-12.100267l-2.184534-0.853333 1.570134-1.723733a126.805333 126.805333 0 0 0 17.322666-29.184 206.506667 206.506667 0 0 0 13.960534-39.0144l0.5632-2.3552 1.9456 1.416533c5.768533 4.266667 11.861333 8.072533 18.261333 11.349333l1.979733 1.024-1.5872 1.570134c-4.5056 4.539733-9.557333 14.592-15.018666 29.9008-5.512533 15.4624-10.0864 28.672-13.602134 39.253333l-0.750933 2.2016z m-19.2-15.752533c6.314667 2.645333 12.219733 6.126933 17.629867 10.325333 3.413333-10.24 7.748267-22.715733 12.919466-37.1712a103.5264 103.5264 0 0 1 14.2848-29.457067 128.8192 128.8192 0 0 1-14.848-9.2672 212.5312 212.5312 0 0 1-13.602133 37.307734 141.192533 141.192533 0 0 1-16.384 28.279466v-0.017066z m34.048-86.135467l-1.5872-1.0752a363.8272 363.8272 0 0 0-36.7616-21.981867l-1.809067-0.9728 1.348267-1.536a86.698667 86.698667 0 0 0 10.359467-14.762666l0.768-1.399467 1.399466 0.768c12.561067 6.894933 25.890133 14.336 39.594667 22.1184l2.4064 1.365333-2.372267 1.416534a31.4368 31.4368 0 0 0-12.561066 14.301866l-0.785067 1.757867z m-35.072-25.002667c11.605333 6.144 22.869333 12.868267 33.757867 20.206934 2.5088-5.000533 6.212267-9.301333 10.752-12.544-11.912533-6.741333-23.876267-13.4144-35.874134-20.002134a88.1664 88.1664 0 0 1-8.6528 12.3392z m39.867733-34.048l-1.365333-1.450666a152.849067 152.849067 0 0 0-32.187733-26.231467l-1.774934-1.0752 1.467734-1.450667c4.3008-4.437333 8.362667-9.130667 12.1856-13.994666l0.9728-1.2288 1.245866 0.938666c11.0592 8.192 22.3232 17.134933 33.4848 26.555734l1.536 1.314133-1.6384 1.211733c-4.9664 3.8912-9.301333 8.533333-12.817066 13.789867l-1.109334 1.621333z m-30.1568-29.3888c10.888533 6.843733 20.906667 15.018667 29.7984 24.302934 3.106133-4.317867 6.724267-8.2432 10.8032-11.656534-10.1888-8.5504-20.48-16.725333-30.5664-24.234666-3.191467 3.9936-6.5536 7.850667-10.069333 11.588266h0.034133zM670.72 907.178667a120.046933 120.046933 0 0 1-36.5056-49.032534 138.837333 138.837333 0 0 1-13.192533 26.504534c-4.9664 7.8848-11.042133 15.018667-18.0224 21.1968-6.826667 5.956267-14.1824 11.264-21.981867 15.906133-9.216 5.341867-18.756267 10.069333-28.586667 14.1312a43.605333 43.605333 0 0 0-15.8208-15.018667 138.5472 138.5472 0 0 0 41.762134-18.107733 89.3952 89.3952 0 0 0 27.6992-27.818667 109.533867 109.533867 0 0 0 13.636266-35.7888c2.679467-14.1312 3.413333-28.535467 2.2016-42.8544 7.031467 0.597333 14.660267 1.194667 22.869334 1.757867a70.690133 70.690133 0 0 0-2.218667 30.037333c2.218667 11.52 6.382933 22.5792 12.288 32.699734 7.253333 12.970667 16.964267 24.3712 28.586667 33.570133 14.592 11.093333 31.402667 18.944 49.271466 22.954667a47.223467 47.223467 0 0 0-13.175466 18.568533 146.210133 146.210133 0 0 1-48.827734-28.7232z m54.084267-116.189867c0 3.5328 0.273067 10.018133 0.8704 19.456h-19.3536v-28.2624h-145.1008v30.037333h-19.336534a426.837333 426.837333 0 0 0 0.8704-22.084266c0-4.727467-0.290133-12.680533-0.8704-23.8592h183.808a595.1488 595.1488 0 0 0-0.904533 24.712533z m-155.648 82.176a73.898667 73.898667 0 0 0-16.725334-6.1952c3.515733-7.645867 6.894933-15.1552 10.120534-22.528 3.925333-9.5744 6.997333-19.490133 9.216-29.5936 5.888 2.781867 12.100267 4.846933 18.466133 6.178133a8937.130667 8937.130667 0 0 1-21.0944 52.1216z m43.963733-138.717867c6.144-1.9456 12.049067-4.608 17.578667-7.953066 6.126933 9.847467 11.434667 20.189867 15.837866 30.9248-7.031467 2.372267-13.192533 4.7104-18.466133 7.0656a103.150933 103.150933 0 0 0-14.967467-30.037334z m74.752 138.717867a52.599467 52.599467 0 0 0-14.9504-7.953067 156.672 156.672 0 0 0 21.111467-47.7184c5.239467 3.857067 11.229867 6.570667 17.578666 7.953067-6.7072 16.4864-14.6432 32.426667-23.7568 47.701333z m-136.157867 64.768l-0.682666-1.262933a42.530133 42.530133 0 0 0-15.291734-14.4384l-3.191466-1.9968 3.6352-0.938667a137.591467 137.591467 0 0 0 41.301333-17.92 88.405333 88.405333 0 0 0 27.221333-27.306667c6.485333-10.871467 11.042133-22.801067 13.431467-35.259733a157.627733 157.627733 0 0 0 2.167467-42.410667l-0.136534-1.877333 1.877334 0.1536c7.0144 0.597333 14.626133 1.194667 22.8352 1.757867l1.962666 0.1536-0.512 1.877333a69.410133 69.410133 0 0 0-2.167466 29.371733c2.218667 11.332267 6.314667 22.203733 12.1344 32.170667a112.093867 112.093867 0 0 0 28.16 33.092267 126.976 126.976 0 0 0 48.64 22.664533l2.901333 0.750933-2.218667 2.013867c-5.649067 4.846933-10.0352 10.990933-12.765866 17.92l-0.512 1.450667-1.467734-0.4608a148.565333 148.565333 0 0 1-49.3568-29.013334 123.835733 123.835733 0 0 1-35.447466-45.909333c-3.242667 8.021333-7.202133 15.735467-11.861334 23.04a100.010667 100.010667 0 0 1-18.3296 21.538133c-6.894933 6.024533-14.336 11.400533-22.2208 16.0768-9.2672 5.376-18.875733 10.120533-28.7744 14.2336l-1.3312 0.512z m82.432-84.343467l1.536 3.959467a118.7328 118.7328 0 0 0 36.010667 48.366933 147.797333 147.797333 0 0 0 46.830933 27.9552c2.56-5.922133 6.280533-11.264 10.939734-15.735466a127.556267 127.556267 0 0 1-47.035734-22.528 115.4048 115.4048 0 0 1-28.996266-34.048 105.506133 105.506133 0 0 1-12.475734-33.2288 71.901867 71.901867 0 0 1 1.706667-28.808534 1247.453867 1247.453867 0 0 1-19.0464-1.467733c1.024 13.824 0.221867 27.7504-2.372267 41.386667a111.394133 111.394133 0 0 1-13.824 36.3008 91.204267 91.204267 0 0 1-28.194133 28.330666c-11.946667 7.765333-25.019733 13.653333-38.741333 17.408 4.983467 3.242667 9.284267 7.441067 12.578133 12.373334a233.847467 233.847467 0 0 0 27.101867-13.482667 150.442667 150.442667 0 0 0 21.76-15.7184 97.655467 97.655467 0 0 0 17.732266-20.872533c5.256533-8.2432 9.6256-17.032533 13.021867-26.197334l1.467733-3.9936z m54.186667 21.930667l-1.4336-1.092267a51.012267 51.012267 0 0 0-14.506667-7.714133l-1.962666-0.6656 1.1264-1.7408a155.767467 155.767467 0 0 0 20.8896-47.223467l0.5632-2.269866 1.928533 1.3312c5.051733 3.7376 10.837333 6.3488 16.964267 7.68l1.860266 0.375466-0.6656 1.757867a357.376 357.376 0 0 1-23.842133 47.957333l-0.9216 1.604267z m-12.970667-11.1616c4.232533 1.621333 8.260267 3.7888 11.9808 6.417067 8.362667-14.216533 15.735467-28.962133 22.084267-44.1856a47.7184 47.7184 0 0 1-14.4384-6.485334 159.1296 159.1296 0 0 1-19.626667 44.253867z m-105.403733 11.008l-1.536-0.768a71.492267 71.492267 0 0 0-16.3328-6.058667l-1.9456-0.443733 0.836267-1.826133c3.515733-7.6288 6.877867-15.121067 10.0864-22.493867a179.370667 179.370667 0 0 0 9.147733-29.3376l0.477867-1.979733 1.809066 0.938666c5.802667 2.696533 11.861333 4.727467 18.107734 6.0416l1.826133 0.426667-0.682667 1.7408c-3.5328 8.840533-10.564267 26.2144-21.111466 52.155733l-0.682667 1.604267z m-15.2576-9.5232c4.676267 1.262933 9.233067 2.9696 13.602133 5.085867 9.5232-23.432533 16.110933-39.697067 19.746134-48.776534a86.203733 86.203733 0 0 1-15.189334-5.0176c-2.167467 9.557333-5.12 18.8928-8.840533 27.938134-2.986667 6.8096-6.0928 13.738667-9.3184 20.7872z m8.123733-52.053333H540.16l0.119467-1.706667a434.346667 434.346667 0 0 0 0.853333-21.998933c0-4.642133-0.290133-12.373333-0.853333-23.773867l-0.1024-1.6896h86.237866a101.7856 101.7856 0 0 0-14.609066-29.252267l-1.314134-1.774933 2.0992-0.699733a81.339733 81.339733 0 0 0 17.237334-7.799467l1.3312-0.836267 0.853333 1.314134c6.178133 9.9328 11.52 20.360533 15.991467 31.1808l0.682666 1.621333-1.655466 0.546133c-5.154133 1.706667-10.24 3.618133-15.2576 5.700267h95.573333l-0.085333 1.6896a663.125333 663.125333 0 0 0-0.8704 24.661333c0 3.584 0.3072 10.2912 0.8704 19.319467l0.119466 1.723733h-22.664533v-28.279466h-141.892267v30.037333z m-19.268266-3.2256h16.042666v-30.037334h148.309334v28.2624h16.042666c-0.512-8.2432-0.768-14.3872-0.768-17.8176 0-4.096 0.273067-12.049067 0.802134-23.125333H543.573333c0.546133 10.513067 0.802133 17.800533 0.802134 22.237867s-0.256 11.1616-0.802134 20.48z m72.106666-75.332267c5.7344 8.328533 10.24 17.408 13.380267 27.016533 5.0176-2.133333 10.120533-4.078933 15.291733-5.8368a210.397867 210.397867 0 0 0-14.148266-27.767466c-4.608 2.6624-9.489067 4.864-14.523734 6.587733z m233.984 47.7696c0-2.3552-0.290133-7.355733-0.887466-15.018667h20.224c-0.597333 6.485333-0.887467 11.485867-0.8704 15.018667h22.869333c14.6432 0 26.965333-0.290133 36.932267-0.887467v15.906134a645.341867 645.341867 0 0 0-37.819734-0.887467h-21.981866v14.148267h32.529066c5.870933 0 13.7728-0.290133 23.739734-0.887467v15.906133a440.712533 440.712533 0 0 0-24.610134-0.887466h-31.658666v13.2608h51.882666c10.5472 0 21.111467-0.3072 31.658667-0.887467v15.906133a566.4768 566.4768 0 0 0-31.658667-0.887466h-51.882666v15.906133h59.8016a542.071467 542.071467 0 0 0 0 61.8496h-19.336534v-7.936H811.861333v10.5984h-19.3536c0.580267-11.195733 0.8704-22.101333 0.887467-32.682667 0-10.581333-0.290133-21.1968-0.887467-31.812266h57.173334v-15.906134h-52.770134a662.186667 662.186667 0 0 0-30.7712 0.887467v-15.906133c9.949867 0.597333 20.206933 0.904533 30.7712 0.887466h52.770134v-13.243733h-29.013334c-8.8064 0-18.4832 0.290133-29.0304 0.8704v-15.889067c11.707733 0.597333 21.384533 0.887467 29.013334 0.8704h29.013333v-14.114133h-22.869333c-14.677333 0-26.965333 0.290133-36.9152 0.887467v-15.906134c11.127467 0.597333 23.1424 0.887467 36.0448 0.887467h23.7568l-0.017067-0.0512z m15.8208-57.429333c1.757867 5.905067 3.805867 13.2608 6.144 22.084266h81.783467c-0.597333 8.840533-0.887467 16.503467-0.887467 22.971734-0.034133 5.307733 0.256 10.615467 0.887467 15.872H934.058667v-23.842134h-147.694934v22.084267h-19.336533c0.750933-4.369067 1.041067-8.8064 0.887467-13.243733 0-7.082667-0.290133-15.018667-0.887467-23.8592h82.670933a159.744 159.744 0 0 0-4.4032-19.456 331.434667 331.434667 0 0 0 20.206934-2.594134l-0.017067-0.017066z m43.093334 181.998933V882.858667H811.861333v24.746666h96.733867z m-95.1296 27.2384h-22.647467l0.1024-1.6896a586.103467 586.103467 0 0 0 0-64.341333l-0.1024-1.6896h57.258667v-12.680534h-51.165867c-8.1408 0-18.176 0.3072-30.72 0.887467l-1.672533 0.085333v-19.285333l1.706666 0.1024c9.693867 0.597333 20.0192 0.887467 30.6688 0.887467h51.165867v-10.0352h-27.426133c-8.618667 0-18.346667 0.3072-28.910934 0.887466l-1.706666 0.085334v-19.3024l1.6896 0.085333c11.434667 0.597333 21.162667 0.887467 28.928 0.887467h27.426133v-10.922667h-21.265067c-14.472533 0-26.862933 0.3072-36.829866 0.887467l-1.706667 0.119466v-19.336533l1.6896 0.085333a677.376 677.376 0 0 0 35.959467 0.887467h22.1184c-0.2048-4.437333-0.494933-8.8576-0.853334-13.277867l-0.119466-1.7408h23.722666l-0.170666 1.757867c-0.443733 4.4032-0.7168 8.840533-0.853334 13.2608h21.248c14.933333 0 26.965333-0.290133 36.864-0.887467l1.6896-0.1024v19.336534l-1.706666-0.1024a641.570133 641.570133 0 0 0-37.717334-0.887467h-20.3776v10.922667h30.9248c5.973333 0 13.9264-0.290133 23.6544-0.887467l1.706667-0.1024v19.336533l-1.706667-0.119466a439.808 439.808 0 0 0-24.5248-0.8704h-30.037333v10.0352h50.2784c10.666667 0 21.265067-0.3072 31.573333-0.887467l1.672534-0.1024v19.319467l-1.6896-0.085334a574.856533 574.856533 0 0 0-31.573334-0.887466h-50.2784v12.680533h59.904l-0.085333 1.706667a554.5984 554.5984 0 0 0-0.887467 30.8224c0 10.103467 0.3072 20.48 0.887467 30.8224l0.085333 1.706666h-22.647466v-7.936h-93.525334v10.581334l-0.017066-0.017067z m-19.2512-3.208533h16.042666v-10.615467h99.9424v7.953067h16.0768a544.802133 544.802133 0 0 1 0-58.624h-59.733333v-19.114667h53.504c9.8816 0 19.968 0.256 30.037333 0.785067v-12.4928c-9.813333 0.512-19.9168 0.785067-30.037333 0.785066h-53.486933v-16.469333h33.28c6.075733 0 13.6192 0.256 23.04 0.785067v-12.458667c-9.0112 0.512-16.452267 0.785067-22.135467 0.785067h-34.133333v-17.3568h23.569066c14.762667 0 26.9312 0.238933 36.215467 0.768v-12.458667a672.768 672.768 0 0 1-35.328 0.785067h-24.4736v-1.604267c0-3.328 0.238933-7.850667 0.733867-13.4144h-16.7424c0.512 6.8608 0.750933 11.264 0.750933 13.4144v1.604267h-25.412267a705.024 705.024 0 0 1-34.440533-0.785067v12.4928a687.616 687.616 0 0 1 35.328-0.785067h24.4736v17.3568h-30.634667c-7.441067 0-16.657067-0.273067-27.409066-0.785066v12.4928c9.984-0.512 19.182933-0.802133 27.409066-0.802134h30.634667v16.469334h-54.357333c-10.103467 0-19.899733-0.238933-29.184-0.768v12.4928c11.776-0.546133 21.3504-0.802133 29.184-0.802134h54.3744v19.114667h-57.070934a600.234667 600.234667 0 0 1 0 61.269333l-0.017066-0.017066z m115.985066-22.408534h-99.9424v-27.9552h99.9424v27.9552z m-96.733866-3.2256h93.525333v-21.504h-93.525333v21.504z m141.824-117.828266h-22.784v-23.842134H787.968v22.135467h-22.9888l0.512-2.013867c0.682667-4.232533 0.9728-8.533333 0.8192-12.8512 0-6.929067-0.290133-14.8992-0.8704-23.739733l-0.1024-1.723733h82.449067a155.374933 155.374933 0 0 0-4.010667-17.373867l-0.580267-1.877333 1.9456-0.170667c6.741333-0.7168 13.448533-1.5872 20.138667-2.645333l1.399467-0.221867 0.392533 1.365333c1.6384 5.461333 3.549867 12.305067 5.853867 20.923734h82.261333l-0.119467 1.706666c-0.546133 7.6288-0.836267 15.240533-0.8704 22.869334-0.0512 5.256533 0.256 10.496 0.8704 15.701333l0.221867 1.774933z m-19.575467-3.208534h15.940267a136.789333 136.789333 0 0 1-0.682667-14.2848c0-6.212267 0.256-13.397333 0.785067-21.367466H870.4l-0.3072-1.194667c-1.826133-6.929067-3.754667-13.824-5.751467-20.701867-5.632 0.8704-11.3152 1.621333-16.9984 2.2528 1.621333 5.8368 2.901333 11.776 3.8912 17.749334l0.324267 1.877333h-82.858667c0.512 8.2432 0.785067 15.7184 0.785067 22.254933 0.068267 3.8912-0.119467 7.7824-0.5632 11.639467h15.8208v-22.084267h150.9376v23.8592zM927.2832 604.16c-129.706667-83.626667-250.88-25.6-250.88-25.6-93.866667 61.44-153.6 66.56-266.24 66.56-177.493333-1.706667-291.84-97.28-291.84-97.28s105.813333 61.44 209.92 61.44c213.333333 0 296.96-100.693333 296.96-153.6 0-52.906667-30.72-163.84-143.36-163.84-112.64 0-143.36 81.92-143.36 81.92-40.96 47.786667 30.72 107.52 30.72 107.52-172.373333-20.48-102.4-138.24-102.4-138.24 52.906667-112.64 209.92-92.16 209.92-92.16 211.626667 49.493333 199.68 204.8 199.68 204.8 105.813333-20.48 122.88 20.48 122.88 20.48-69.973333-29.013333-117.76 0-117.76 0 141.653333-37.546667 245.76 128 245.76 128z m-768-184.32s27.306667 35.84 61.44 40.96c0 0 23.893333 27.306667-15.36 25.6a78.882133 78.882133 0 0 1-46.08-66.56z m312.32-76.8s87.04-3.413333 87.04 81.92a176.298667 176.298667 0 0 1-102.4 122.88c-59.733333 23.893333-221.866667 46.08-307.2-5.12 0 0 256 27.306667 291.84-66.56 0 0 3.413333-13.653333-20.48-35.84s-25.6-97.28 51.2-97.28z m-107.52-148.48c-124.586667 0-184.32 112.64-184.32 112.64-39.253333 116.053333 76.8 138.24 76.8 138.24-122.88 5.12-190.976-220.16-30.72-291.84 249.0368-98.184533 368.64 122.88 368.64 122.88-22.186667-22.186667-105.813333-81.92-230.4-81.92z m-256 174.08l15.36-25.6 5.12 20.48 5.12 15.36c-10.24 20.48-25.6-10.24-25.6-10.24z m773.12 256c-79.189333-42.666667-245.76-5.12-245.76-5.12 39.7312-27.306667 85.333333-44.8512 133.12-51.2 109.226667 13.653333 112.64 56.32 112.64 56.32z" fill="#FF0000" /></svg>