<?xml version="1.0" standalone="no"?><!DOCTYPE svg PUBLIC "-//W3C//DTD SVG 1.1//EN" "http://www.w3.org/Graphics/SVG/1.1/DTD/svg11.dtd"><svg class="icon" width="1000px" height="1000.00px" viewBox="0 0 1024 1024" version="1.1" xmlns="http://www.w3.org/2000/svg"><path d="M0 1024V0h1024v1024H0zM992 32H32v960h960V32z" fill="#FFFF00" /><path d="M128.8192 741.649067c5.819733 0 12.526933-0.290133 20.1216-0.887467v15.9232a270.114133 270.114133 0 0 0-20.1216-0.887467h-6.144v42.496c8.157867 0 17.2032-0.290133 27.136-0.8704v15.9232a496.708267 496.708267 0 0 0-27.136-0.887466v50.449066a144.128 144.128 0 0 0 26.248533-10.632533c0 4.727467 0.290133 10.3424 0.8704 16.810667-17.493333 6.485333-30.754133 11.2128-39.799466 14.165333-9.966933 3.310933-19.746133 7.168-29.303467 11.502933-2.56-6.3488-5.4784-12.561067-8.7552-18.5856a211.2512 211.2512 0 0 0 34.986667-7.953066v-55.773867a211.712 211.712 0 0 0-27.989334 1.774933v-16.810666c8.7552 0.580267 18.090667 0.887467 27.989334 0.8704v-42.496h-7.850667c-7.5776 0-15.172267 0.290133-22.7328 0.887466v-15.906133c7.5776 0.597333 14.848 0.887467 21.8624 0.887467h30.6176z m115.490133 0c8.738133 0 18.653867-0.290133 29.730134-0.887467v16.810667a500.3776 500.3776 0 0 0-29.730134-0.887467h-16.64a1736.6016 1736.6016 0 0 0-10.496 38.912v107.963733c0 11.776 0.3072 22.408533 0.887467 31.8464H199.68c0.580267-8.840533 0.8704-19.456 0.8704-31.8464v-70.7584a218.794667 218.794667 0 0 1-44.612267 61.047467 79.2576 79.2576 0 0 0-15.752533-11.502933c8.704-6.434133 16.520533-14.0288 23.1936-22.562134 7.970133-10.1888 15.138133-20.992 21.418667-32.3072 6.3488-10.922667 11.485867-22.4768 15.325866-34.5088 3.191467-10.615467 6.2464-22.698667 9.181867-36.283733H184.832c-9.335467 0-18.961067 0.3072-28.8768 0.887467v-16.810667c9.898667 0.597333 19.524267 0.887467 28.8768 0.887467h59.477333z m34.986667 121.224533c-5.853867 3.549867-11.383467 7.082667-16.622933 10.632533-8.7552-15.940267-15.616-27.733333-20.565334-35.396266-4.949333-7.68-10.922667-15.940267-17.92-24.7808 5.137067-2.8672 9.847467-6.4512 13.994667-10.632534 18.0736 24.7808 31.778133 44.8512 41.1136 60.177067z m-59.528533 74.171733H197.973333l0.119467-1.706666a498.005333 498.005333 0 0 0 0.8704-31.744v-64.273067a218.589867 218.589867 0 0 1-41.9328 55.722667l-1.1264 1.058133-1.092267-1.109333a79.547733 79.547733 0 0 0-15.428266-11.264l-2.133334-1.262934 1.9968-1.450666a118.562133 118.562133 0 0 0 22.869334-22.254934c7.936-10.120533 15.0528-20.855467 21.2992-32.085333 6.280533-10.820267 11.3664-22.272 15.172266-34.184533 3.0208-10.052267 5.956267-21.504 8.738134-34.2016H184.832c-9.181867 0-18.858667 0.290133-28.7744 0.887466l-1.6896 0.1024v-20.258133l1.6896 0.119467c9.659733 0.580267 19.336533 0.887467 28.7744 0.887466h59.477333c8.8576 0 18.824533-0.3072 29.661867-0.887466l1.672533-0.1024v20.258133l-1.706666-0.1024a502.8864 502.8864 0 0 0-29.627734-0.887467h-15.4112a1674.0352 1674.0352 0 0 0-10.171733 37.717334l0.034133 107.554133c0 11.8784 0.3072 22.562133 0.887467 31.744l0.119467 1.723733z m-18.3808-3.208533h14.967466c-0.512-8.874667-0.768-19.0464-0.768-30.2592V795.648c1.792-7.509333 5.239467-20.258133 10.5472-39.3728l0.341334-1.1776h17.834666c9.250133 0 18.705067 0.256 28.16 0.802133v-13.4144c-10.24 0.512-19.694933 0.785067-28.16 0.785067H184.832a481.109333 481.109333 0 0 1-27.272533-0.768v13.397333c9.386667-0.512 18.551467-0.802133 27.272533-0.802133h26.487467l-0.426667 1.962667a470.016 470.016 0 0 1-9.216 36.4032c-3.874133 12.1344-9.045333 23.825067-15.445333 34.850133-6.331733 11.383467-13.550933 22.254933-21.589334 32.494933-6.263467 8.004267-13.499733 15.189333-21.538133 21.418667 4.608 2.696533 8.9088 5.853867 12.885333 9.4208a219.101867 219.101867 0 0 0 43.178667-59.562667l3.003733-5.973333v77.482667a534.391467 534.391467 0 0 1-0.785066 30.242133z m-121.5488-36.932267l-0.6144-1.570133a177.220267 177.220267 0 0 0-8.669867-18.397867l-1.28-2.389333h2.679467a205.448533 205.448533 0 0 0 33.399466-7.594667V814.08c-8.7552 0.034133-17.5104 0.631467-26.197333 1.757867l-1.792 0.238933V795.648l1.706667 0.136533c8.055467 0.546133 16.896 0.853333 26.282666 0.853334V757.418667h-6.280533c-7.424 0-15.0528 0.3072-22.613333 0.887466l-1.706667 0.1536V738.986667l1.706667 0.136533c7.3728 0.580267 14.677333 0.887467 21.742933 0.887467h30.6176c5.888 0 12.612267-0.3072 20.002133-0.887467l1.706667-0.136533v19.421866l-1.706667-0.136533c-6.656-0.546133-13.312-0.853333-20.002133-0.887467h-4.539733v39.287467c7.850667-0.034133 16.384-0.341333 25.429333-0.853333l1.706667-0.119467v19.3536l-1.706667-0.1024a556.4928 556.4928 0 0 0-25.429333-0.853333v46.711466a168.618667 168.618667 0 0 0 23.978666-9.984l2.269867-1.109333v2.56c0 4.778667 0.3072 10.3936 0.887467 16.674133l0.1024 1.2288-1.160534 0.426667c-17.476267 6.5024-30.890667 11.264-39.867733 14.1824-9.898667 3.310933-19.626667 7.133867-29.1328 11.451733l-1.518933 0.6656z m-5.290667-19.336533c2.679467 5.12 5.034667 10.171733 7.0144 15.018667a294.912 294.912 0 0 1 27.972267-10.888534 1108.992 1108.992 0 0 0 38.570666-13.7216c-0.4096-4.8128-0.6656-9.216-0.733866-13.175466a132.608 132.608 0 0 1-24.337067 9.642666l-1.928533 0.443734V810.837333h1.5872c7.082667 0 15.650133 0.256 25.531733 0.785067v-12.509867c-9.1136 0.512-17.698133 0.785067-25.531733 0.785067h-1.5872V754.176h7.714133c5.3248 0 11.554133 0.256 18.5344 0.750933v-12.424533c-6.792533 0.512-13.038933 0.750933-18.5344 0.750933H98.2016c-6.587733 0-13.397333-0.256-20.2752-0.750933v12.458667c7.082667-0.512 14.165333-0.768 21.1456-0.768h9.472v45.704533h-1.5872c-9.386667 0-18.261333-0.256-26.402133-0.785067v13.2608c8.7552-1.041067 17.578667-1.553067 26.402133-1.536h1.5872v58.589867l-1.1776 0.341333c-10.786133 3.2256-21.742933 5.819733-32.836267 7.799467z m187.562667-1.757867l-0.853334-1.536a638.0032 638.0032 0 0 0-20.48-35.293866 316.3136 316.3136 0 0 0-17.834666-24.644267l-1.194667-1.501867 1.672533-0.938666a61.098667 61.098667 0 0 0 13.653334-10.325334l1.297066-1.365333 1.109334 1.536c17.937067 24.610133 31.7952 44.919467 41.181866 60.296533l0.853334 1.416534-1.365334 0.836266c-5.700267 3.4304-11.264 6.997333-16.571733 10.564267l-1.467733 0.955733z m-35.5328-62.020266c5.973333 7.560533 11.605333 15.36 16.896 23.415466 4.864 7.543467 11.52 18.944 19.797333 33.962667 4.539733-3.0208 9.147733-5.973333 13.824-8.823467-9.147733-14.848-22.272-34.065067-39.1168-57.1904a63.709867 63.709867 0 0 1-11.400533 8.6528z m102.570666 75.178666a157.474133 157.474133 0 0 0-26.231466 12.834134 454.382933 454.382933 0 0 1-6.997334-19.456 73.216 73.216 0 0 0 13.568-2.645334c3.652267-1.143467 7.304533-2.321067 10.922667-3.549866v-74.325334c-7.031467 0.1024-14.045867 0.682667-20.992 1.757867v-15.9232c8.157867 0.597333 15.1552 0.887467 20.992 0.887467v-31.863467c0-5.888-0.290133-12.970667-0.8704-21.230933h16.622933a323.754667 323.754667 0 0 0-0.8704 21.230933v31.863467c4.6592 0 11.0592-0.290133 19.234134-0.887467v15.9232a144.452267 144.452267 0 0 0-19.234134-1.757867v69.0176c8.738133-2.935467 16.622933-5.888 23.620267-8.8576 0.580267 4.1472 1.450667 9.1648 2.628267 15.0528-10.513067 3.5328-21.2992 7.509333-32.375467 11.946667z m143.496534 29.661867c3.925333 0.119467 7.338667-2.747733 7.867733-6.656 1.160533-4.437333 2.321067-9.0112 3.498667-13.7216 5.12 4.676267 11.52 7.748267 18.3808 8.8576-4.676267 15.940267-9.489067 24.354133-14.455467 25.2416a74.513067 74.513067 0 0 1-12.680533 1.3312H449.877333c-13.431467 0-19.831467-6.485333-19.2512-19.456v-35.396267h-17.493333c-1.706667 14.165333-8.738133 27.136-19.677867 36.283734a132.0448 132.0448 0 0 1-45.056 22.1184 53.213867 53.213867 0 0 0-9.6256-17.698134c20.992-2.952533 35.566933-8.123733 43.741867-15.479466 7.645867-6.5024 12.868267-15.394133 14.848-25.224534h-27.136c0.580267-12.3904 0.853333-23.6032 0.8704-33.621333 0-10.632533-0.290133-21.248-0.8704-31.863467h109.397333a452.027733 452.027733 0 0 0-0.887466 30.088534c0 11.195733 0.3072 23.005867 0.887466 35.396266h-32.375466v28.330667c-0.597333 8.226133 2.321067 12.066133 8.738133 11.485867h16.64v-0.017067z m-59.4944-137.1648l-13.994667 7.082667h36.727467c2.986667-8.977067 5.3248-18.141867 6.997333-27.4432h-46.353067c-12.8512 0-23.3472 0.3072-31.505066 0.887466v-15.035733c7.5776 0.597333 18.090667 0.887467 31.505066 0.887467h22.7328a67.140267 67.140267 0 0 0-4.369066-18.602667c4.6592-0.5632 11.076267-1.7408 19.2512-3.515733 1.7408 8.260267 3.208533 15.633067 4.369066 22.1184h19.2512c10.496 0 20.411733-0.3072 29.7472-0.887467v15.035733a468.258133 468.258133 0 0 0-28.8768-0.887466h-13.994666l17.5104 7.970133c-4.437333 5.9392-7.9872 12.4928-10.513067 19.456h18.3808c9.3184 0 18.363733-0.290133 27.136-0.887467v15.940267a204.0832 204.0832 0 0 0-27.136-1.774933h-79.616c-9.659733-0.0512-19.285333 0.546133-28.8768 1.774933v-15.9232c8.7552 0.597333 18.090667 0.887467 27.989333 0.887467h7.8848a49.92 49.92 0 0 0-8.7552-17.698134c4.6592-2.3552 9.335467-5.0176 13.994667-7.970133 2.901333 4.727467 6.417067 10.922667 10.513067 18.5856z m50.7392 58.402133v-14.165333h-76.117334v14.165333h76.100267z m0 26.555734v-14.165334h-76.117334v14.165334h76.100267z m-116.565334 72.8064l-0.443733-1.570134a51.712 51.712 0 0 0-9.352533-17.134933l-1.7408-2.218667 2.7648-0.392533c20.599467-2.901333 35.0208-7.970133 42.9056-15.086933 6.826667-5.853867 11.707733-13.687467 13.943466-22.408534h-26.794666l0.085333-1.6896c0.580267-12.424533 0.8704-23.7056 0.8704-33.553066 0-10.4448-0.290133-21.128533-0.8704-31.744l-0.1024-1.706667h112.759467l-0.119467 1.723733a458.410667 458.410667 0 0 0-0.8704 29.969067c0 11.281067 0.290133 23.227733 0.8704 35.328l0.085333 1.706667H448.853333v26.692266a11.383467 11.383467 0 0 0 1.706667 8.3968c1.450667 1.28 3.413333 1.826133 5.3248 1.467734h16.759467a6.144 6.144 0 0 0 6.331733-5.444267c1.160533-4.4032 2.321067-8.96 3.498667-13.687467l0.648533-2.594133 1.962667 1.792c4.9152 4.4544 11.025067 7.389867 17.578666 8.448l1.774934 0.3072-0.512 1.757867c-4.9664 16.9472-9.949867 25.326933-15.684267 26.350933a75.776 75.776 0 0 1-12.970667 1.348267h-25.378133a21.504 21.504 0 0 1-16.247467-5.5808 20.514133 20.514133 0 0 1-4.608-15.581867v-33.706667h-14.5408a57.412267 57.412267 0 0 1-20.0192 35.925334 134.2976 134.2976 0 0 1-45.602133 22.408533l-1.536 0.477867z m-5.632-18.517334c3.293867 4.420267 5.888 9.301333 7.7312 14.472534a128.955733 128.955733 0 0 0 43.008-21.367467 54.562133 54.562133 0 0 0 19.114667-35.259733l0.2048-1.365334h20.48v37.000534c-0.631467 4.744533 0.7168 9.557333 3.720533 13.2608 3.805867 3.413333 8.840533 5.0688 13.9264 4.608h25.361067c4.164267-0.068267 8.328533-0.512 12.407467-1.297067 2.8672-0.512 7.338667-4.864 12.680533-22.357333a37.546667 37.546667 0 0 1-15.4112-7.236267c-0.938667 3.84-1.928533 7.594667-2.8672 11.264a9.250133 9.250133 0 0 1-9.4208 7.850667h-16.622933a10.7008 10.7008 0 0 1-1.2288 0.0512 8.533333 8.533333 0 0 1-6.570667-2.56 13.858133 13.858133 0 0 1-2.542933-10.7008V877.226667h32.3072a768.290133 768.290133 0 0 1-0.802134-33.792c0-10.581333 0.256-20.138667 0.750934-28.4672h-105.949867a602.368 602.368 0 0 1-0.017067 62.2592h27.374934l-0.341334 1.911466a46.3872 46.3872 0 0 1-15.394133 26.112c-8.106667 7.304533-21.828267 12.356267-41.864533 15.445334h-0.034134z m-39.594666-16.469333l-0.699734-1.8432c-2.474667-6.468267-4.829867-12.970667-7.0144-19.541333l-0.631466-1.8944 1.962666-0.221867c4.5056-0.443733 8.942933-1.314133 13.2608-2.594133 3.3792-1.024 6.656-2.0992 9.8304-3.157334v-71.543466a164.625067 164.625067 0 0 0-19.2 1.7408l-1.809066 0.256V785.92l1.706666 0.119467c7.2192 0.512 13.704533 0.8192 19.285334 0.8704v-30.208c0-5.751467-0.290133-12.8512-0.8704-21.128534l-0.119467-1.706666h20.053333l-0.119466 1.706666a330.581333 330.581333 0 0 0-0.8704 21.128534v30.208c5.853867-0.119467 11.707733-0.4096 17.544533-0.853334l1.706667-0.136533v19.524267l-1.826134-0.256a159.266133 159.266133 0 0 0-17.425066-1.723734v65.1264c7.2192-2.4576 14.370133-5.154133 21.418666-8.0896l1.8944-0.8192 0.290134 2.082134c0.580267 4.061867 1.450667 9.096533 2.6112 14.9504l0.273066 1.399466-1.3312 0.443734c-10.871467 3.6864-21.623467 7.662933-32.256 11.9296-9.045333 3.413333-17.749333 7.662933-25.992533 12.680533l-1.672533 1.0752z m-4.0448-20.5312c1.536 4.5568 3.447467 9.813333 5.632 15.701333a168.106667 168.106667 0 0 1 24.849066-11.946666c10.274133-4.096 20.650667-7.953067 31.1296-11.52-0.853333-4.386133-1.536-8.311467-2.048-11.6736-7.185067 2.935467-14.472533 5.632-21.845333 8.0896l-2.0992 0.7168v-72.874667h1.604267c5.905067 0.136533 11.810133 0.648533 17.646933 1.536v-12.3392c-7.253333 0.512-13.175467 0.750933-17.646933 0.750933h-1.5872v-33.450666c0-5.12 0.256-11.707733 0.768-19.626667h-13.2096c0.512 7.594667 0.768 14.199467 0.768 19.626667v33.450666h-1.604267c-5.563733 0-12.066133-0.256-19.4048-0.750933v12.322133a148.292267 148.292267 0 0 1 19.4048-1.536h1.604267v77.1072l-1.092267 0.375467c-3.515733 1.1776-7.168 2.389333-10.973867 3.549867a72.021333 72.021333 0 0 1-11.895466 2.491733z m167.424-15.701333h-79.291734v-17.408h79.291734v17.408z m-76.117334-3.208534h72.942934v-10.939733h-72.942934v10.922667z m76.117334-23.330133h-79.291734v-17.408h79.291734v17.408z m-76.117334-3.2256h72.942934v-10.922667h-72.942934v10.922667z m109.3632-32.8192l-1.792-0.238933c-8.925867-1.194667-17.92-1.774933-26.914133-1.774934h-79.616a216.814933 216.814933 0 0 0-28.672 1.774934l-1.792 0.238933V785.92l1.706667 0.119467c8.4992 0.597333 17.92 0.887467 27.869866 0.887466h5.6832a45.448533 45.448533 0 0 0-7.765333-15.018666l-1.3312-1.5872 1.826133-0.938667c4.061867-2.048 8.021333-4.266667 11.912534-6.656h-3.310934c-12.680533 0-23.227733 0.3072-31.402666 0.887467l-1.706667 0.119466v-18.5344l1.7408 0.1536c7.458133 0.580267 17.732267 0.887467 31.368533 0.887467h20.957867a65.314133 65.314133 0 0 0-4.096-16.384l-0.768-1.9456 2.048-0.273067c4.5568-0.5632 10.990933-1.757867 19.114667-3.515733l1.536-0.341333 0.341333 1.5872c1.5872 7.509333 2.986667 14.506667 4.1472 20.855466h17.92c10.581333 0 20.548267-0.3072 29.6448-0.887466l1.6896-0.1024v18.4832l-1.6896-0.119467a464.059733 464.059733 0 0 0-28.7744-0.887467h-6.485333c3.362133 1.536 6.929067 3.157333 10.683733 4.898134l1.860267 0.836266-1.245867 1.621334a72.328533 72.328533 0 0 0-9.403733 16.861866h16.008533c9.403733 0 18.500267-0.3072 27.016533-0.887466l1.706667-0.119467v19.5072z m-135.594666-16.042667v12.356267c9.045333-1.058133 18.158933-1.570133 27.272533-1.536h79.616c8.533333 0 17.066667 0.512 25.531733 1.536v-12.373333a406.186667 406.186667 0 0 1-25.531733 0.785066h-20.701867l0.8192-2.2016c2.389333-6.468267 5.5808-12.5952 9.5232-18.244266-5.614933-2.56-10.752-4.9152-15.4624-7.0144a197.290667 197.290667 0 0 1-6.8096 26.402133l-0.3584 1.058133h-47.496533a408.7808 408.7808 0 0 1-26.402133-0.768z m27.989333-18.005333c3.310933 4.778667 5.853867 10.052267 7.492267 15.633067l12.3392-6.2464c-2.816-5.290667-5.751467-10.513067-8.8064-15.6672-3.669333 2.269867-7.338667 4.369067-11.025067 6.280533z m14.813867 15.530667h28.842666c2.56-7.918933 4.608-16.008533 6.161067-24.200534h-36.5056c3.5328 5.905067 6.912 11.895467 10.120533 17.9712l0.785067 1.467734-9.403733 4.778666z m31.197866-27.426134h21.504c9.216 0 18.3808 0.256 27.272534 0.785067v-11.605333c-8.704 0.512-18.176 0.785067-28.16 0.785066h-20.548267l-0.256-1.3312a690.773333 690.773333 0 0 0-4.027733-20.48c-6.485333 1.3824-11.6736 2.3552-15.803734 2.952534 1.979733 5.5296 3.242667 11.264 3.754667 17.117866l0.170667 1.7408h-24.507734c-12.714667 0-22.528-0.221867-29.9008-0.750933v11.588267a481.962667 481.962667 0 0 1 29.9008-0.785067h40.6016z m130.8672 58.248534a48.913067 48.913067 0 0 0-13.994666 15.0528 124.586667 124.586667 0 0 0-29.7472-27.4432c4.1984-4.693333 8.004267-9.728 11.3664-15.018667 11.656533 9.437867 22.459733 18.602667 32.375466 27.426133z m-6.997333 80.5376c-4.096 13.568-7.304533 24.7808-9.6256 33.621333a155.921067 155.921067 0 0 0-21.879467-11.502933c5.956267-11.042133 10.922667-22.596267 14.848-34.5088 4.6592-13.550933 8.738133-26.5216 12.253867-38.912 5.410133 3.959467 11.281067 7.2192 17.493333 9.728a1684.821333 1684.821333 0 0 0-13.090133 41.5744z m20.1216-134.5024a46.4896 46.4896 0 0 0-12.253867 14.165333 214.528 214.528 0 0 0-31.488-29.184 59.904 59.904 0 0 0 11.3664-13.294933 163.003733 163.003733 0 0 1 32.375467 28.330666v-0.017066z m111.104 35.3792c11.076267 0 22.152533-0.290133 33.245867-0.8704v16.827733c-11.093333-0.580267-22.186667-0.8704-33.245867-0.887467h-55.125333l-6.144 32.750934h79.616c-1.7408 12.3904-3.208533 26.112-4.369067 41.130666a164.1984 164.1984 0 0 1-4.369067 30.976c-1.8944 5.751467-6.485333 10.205867-12.253866 11.946667a164.027733 164.027733 0 0 1-34.133334 6.1952 55.04 55.04 0 0 0-8.738133-21.230933c17.493333 0.580267 28.142933 0.136533 31.931733-1.3312a14.1824 14.1824 0 0 0 7.441067-11.946667l3.498667-40.721067h-82.2272a312.832 312.832 0 0 0 10.513066-47.786666 805.546667 805.546667 0 0 0-40.2432 0.887466v-16.810666c11.656533 0.6144 21.845333 0.904533 30.6176 0.887466h83.968z m-15.752533-52.224c10.496 0 21.589333-0.290133 33.245866-0.8704v16.827733a714.5472 714.5472 0 0 0-33.245866-0.887467h-48.128c-11.6736 0-22.459733 0.290133-32.375467 0.887467v-16.810667c10.496 0.597333 20.992 0.887467 31.488 0.887467h48.9984v-0.034133z m-22.3232 192.034133l-0.256-1.501867a53.640533 53.640533 0 0 0-8.4992-20.599466l-1.706667-2.628267 3.072 0.1024c4.949333 0.170667 9.386667 0.238933 13.226667 0.238933 6.058667 0.426667 12.151467-0.085333 18.090666-1.467733a12.8 12.8 0 0 0 6.417067-10.717867l3.328-38.8096h-82.773333l0.8192-2.184533a299.52 299.52 0 0 0 10.0864-45.568c-14.216533 0-27.067733 0.3072-38.263467 0.853333l-1.655467 0.1024v-20.224l1.655467 0.085334a600.234667 600.234667 0 0 0 30.549333 0.887466h83.968c11.195733 0 22.340267-0.290133 33.1776-0.8704l1.655467-0.1024v20.224l-1.672533-0.1024a641.024 641.024 0 0 0-33.160534-0.8704h-53.76l-5.5296 29.525334h79.530667l-0.273067 1.826133c-1.877333 13.636267-3.328 27.323733-4.352 41.045333a164.266667 164.266667 0 0 1-4.437333 31.3344c-2.048 6.212267-6.997333 11.0592-13.243733 12.970667a165.376 165.376 0 0 1-34.474667 6.2976l-1.536 0.1536z m-4.437334-21.2992c3.345067 5.461333 5.7344 11.4688 7.048534 17.749333a157.815467 157.815467 0 0 0 32.256-5.9392 16.8448 16.8448 0 0 0 11.264-10.922666c2.4064-10.0352 3.857067-20.2752 4.317866-30.600534 1.0752-14.1312 2.474667-27.357867 4.130134-39.424h-79.684267l6.741333-35.959466h56.439467c10.410667 0 21.0432 0.273067 31.658667 0.785066v-13.397333a643.413333 643.413333 0 0 1-31.658667 0.785067h-83.968c-8.4992 0-18.261333-0.256-29.0304-0.785067v13.4144a865.109333 865.109333 0 0 1 38.656-0.802133h1.877333l-0.3072 1.877333a362.871467 362.871467 0 0 1-9.813333 45.909333h81.732267l-3.669334 42.461867c-1.297067 7.202133-4.113067 11.6224-8.448 13.312-3.857067 1.501867-13.533867 2.013867-29.525333 1.553067l-0.034133-0.017067z m-97.348266 16.725333l-1.8432-1.1264a155.323733 155.323733 0 0 0-21.640534-11.383466l-1.655466-0.699734 0.887466-1.5872c5.888-10.973867 10.820267-22.442667 14.7456-34.269866 4.437333-12.834133 8.4992-25.770667 12.2368-38.843734l0.6144-2.2528 1.877334 1.416534c5.290667 3.874133 11.042133 7.082667 17.134933 9.5232l1.365333 0.580266-0.4608 1.4336c-4.608 13.994667-9.0112 27.938133-13.1072 41.557334-3.396267 11.127467-6.6048 22.306133-9.608533 33.553066l-0.546133 2.0992z m-20.599467-14.7968c6.417067 2.850133 12.629333 6.109867 18.602667 9.796267 2.8672-10.581333 5.905067-21.111467 9.096533-31.607467 4.0448-13.448533 8.277333-26.862933 12.663467-40.209066a84.360533 84.360533 0 0 1-14.609067-7.9872 752.9984 752.9984 0 0 1-11.639467 36.8128c-3.805867 11.434667-8.533333 22.528-14.114133 33.211733v-0.017067z m22.357333-83.9168l-1.416533-1.9456a123.733333 123.733333 0 0 0-29.354667-27.050666l-1.501866-1.024 1.194666-1.365334c4.1472-4.625067 7.901867-9.591467 11.2128-14.830933l0.955734-1.536 1.416533 1.143467c11.008 8.9088 21.828267 18.0736 32.426667 27.477333l1.536 1.365333-1.655467 1.194667a47.325867 47.325867 0 0 0-13.550933 14.5408l-1.245867 2.030933z m-27.477333-30.634666c10.222933 6.946133 19.387733 15.36 27.221333 24.917333 3.140267-4.744533 7.048533-8.9088 11.554134-12.356267a898.525867 898.525867 0 0 0-29.405867-24.917333c-2.850133 4.334933-5.973333 8.465067-9.3696 12.373333v-0.017066z m42.530133-24.354134l-1.4848-1.706666a214.357333 214.357333 0 0 0-31.266133-28.9792l-1.5872-1.194667 1.4848-1.314133c4.3008-3.754667 8.021333-8.106667 11.0592-12.919467l0.853333-1.399467 1.3824 0.904534a165.9392 165.9392 0 0 1 32.682667 28.603733l1.143467 1.28-1.348267 1.0752c-4.829867 3.703467-8.840533 8.362667-11.8272 13.653333l-1.092267 1.9968z m-29.2864-32.085333c10.3424 7.9872 19.968 16.896 28.706134 26.589867 2.7648-4.4032 6.1952-8.328533 10.1888-11.639467a162.9184 162.9184 0 0 0-29.576534-25.873067c-2.6624 3.9936-5.802667 7.68-9.3184 10.939734v-0.017067z m54.510934 15.991467v-20.241067l1.6896 0.085333c10.24 0.580267 20.7872 0.887467 31.402666 0.887467h48.981334c10.615467 0 21.777067-0.3072 33.160533-0.887467l1.672533-0.085333v20.206933l-1.672533-0.085333a702.8736 702.8736 0 0 0-33.160533-0.887467h-48.128c-11.502933 0-22.3744 0.3072-32.256 0.887467l-1.706667 0.119467z m33.962666-4.232534h48.128c9.335467 0 19.968 0.273067 31.6416 0.802134v-13.397334c-10.8544 0.512-21.504 0.785067-31.6416 0.785067h-48.981333c-10.0864 0-20.138667-0.256-29.917867-0.802133v13.4144c9.506133-0.512 19.848533-0.768 30.7712-0.768v-0.034134z m255.453867 144.093867a119.0912 119.0912 0 0 1-27.989333-31.863467c0 34.235733 0.273067 54.8864 0.853333 61.952H838.314667c0.580267-7.68 0.8704-27.4432 0.887466-59.2896a133.085867 133.085867 0 0 1-33.6896 32.733867c-15.240533 10.24-31.505067 18.8416-48.554666 25.668267a32.836267 32.836267 0 0 0-14.848-16.810667 154.112 154.112 0 0 0 51.2-20.804267 97.041067 97.041067 0 0 0 28.433066-26.112h-43.741866c-8.174933 0-17.800533 0.3072-28.8768 0.887467v-15.9232c11.093333 0.597333 20.701867 0.904533 28.8768 0.887467h61.2352c0-4.7104-0.290133-10.922667-0.8704-18.602667h18.363733c-0.597333 7.099733-0.887467 13.294933-0.8704 18.602667h64.7168c7.5776 0 15.735467-0.290133 24.490667-0.887467v15.9232c-8.738133-0.580267-16.896-0.8704-24.490667-0.887467h-47.2576a85.6576 85.6576 0 0 0 36.744533 29.184 139.861333 139.861333 0 0 0 41.130667 11.502934c-7.611733 7.68-11.690667 13.8752-12.253867 18.602666-25.088-7.0656-43.4688-15.3088-55.125333-24.746666v-0.017067z m-87.483733-118.5792c-3.6864 4.676267-6.912 9.728-9.6256 15.035733a156.740267 156.740267 0 0 0-35.874134-20.343466c3.515733-4.164267 6.1952-8.977067 7.8848-14.165334 16.315733 7.697067 28.859733 14.199467 37.614934 19.490134v-0.017067z m-31.505067 61.064533a62.976 62.976 0 0 0-12.2368-15.0528 276.957867 276.957867 0 0 0 52.48-38.058666c1.467733 5.5296 3.5328 10.871467 6.144 15.940266a10841.344 10841.344 0 0 0-46.370133 37.188267v-0.034133z m1.757867-102.656c2.901333-3.549867 6.109867-7.68 9.6256-12.3904 13.397333 7.68 25.053867 14.455467 34.986666 20.360534-4.386133 4.1984-8.192 8.96-11.3664 14.165333-10.1888-8.635733-21.333333-16.042667-33.245866-22.1184v-0.017067z m70.8608 62.378667c8.567467-9.949867 14.318933-22.016 16.622933-34.952533-8.7552 0-18.3808 0.290133-28.8768 0.887466v-15.9232c11.093333 0.597333 20.992 0.887467 29.7472 0.887467 0.597333-10.018133 0.597333-20.0704 0-30.088533 6.570667 1.706667 13.329067 2.594133 20.138667 2.645333-1.757867 3.5328-2.935467 12.680533-3.515734 27.4432h42.871467a1019.050667 1019.050667 0 0 0-1.757867 19.456l-2.6112 35.396267c0.5632 5.905067 2.6112 8.840533 6.144 8.840533h9.6256a5.4272 5.4272 0 0 0 5.6832-3.5328 84.992 84.992 0 0 0 2.184534-17.698133c5.1712 4.334933 11.6224 6.826667 18.363733 7.082666-2.338133 15.9232-5.700267 24.6272-10.069333 26.112-5.973333 1.723733-12.1344 2.628267-18.363734 2.645334a76.9024 76.9024 0 0 1-20.992-1.757867c-6.109867-1.467733-8.874667-6.929067-8.2944-16.384l2.6112-46.0288h-26.248533c-1.706667 13.448533-6.485333 26.3168-13.994667 37.614933-7.594667 11.502933-21.589333 23.4496-41.984 35.84a42.3936 42.3936 0 0 0-15.752533-13.277866 92.672 92.672 0 0 0 38.468267-25.173334v-0.034133z m20.992 129.4848H836.608l0.119467-1.7408c0.546133-7.2704 0.853333-25.514667 0.853333-54.272a137.284267 137.284267 0 0 1-31.163733 29.184 264.567467 264.567467 0 0 1-48.8448 25.821867l-1.6384 0.682666-0.512-1.723733a31.573333 31.573333 0 0 0-14.199467-15.906133l-3.208533-2.082134 3.703466-0.853333a153.4464 153.4464 0 0 0 50.688-20.565333 104.669867 104.669867 0 0 0 26.2656-23.1424h-40.704c-8.021333 0-17.698133 0.290133-28.791466 0.8704l-1.655467 0.136533v-19.336533l1.672533 0.085333c10.8032 0.597333 20.48 0.887467 28.791467 0.887467h59.630933c-0.119467-5.632-0.4096-11.246933-0.853333-16.8448l-0.1536-1.757867h21.828267l-0.136534 1.757867c-0.512 6.1952-0.8192 11.844267-0.8704 16.827733h63.146667c7.68 0 15.872-0.3072 24.388267-0.887467l1.706666-0.119466v19.387733l-1.706666-0.119467c-8.123733-0.5632-16.247467-0.853333-24.388267-0.8704h-44.032a84.770133 84.770133 0 0 0 34.1504 26.112 139.451733 139.451733 0 0 0 40.6528 11.3664l3.3792 0.341334-2.4064 2.4064c-7.287467 7.3728-11.264 13.312-11.776 17.664l-0.238933 1.860266-1.792-0.512c-25.173333-7.1168-43.895467-15.547733-55.688534-25.088a122.9312 122.9312 0 0 1-25.378133-27.562666c0 31.232 0.3072 49.664 0.853333 56.234666l0.136534 1.757867z m-18.397867-3.2256h14.9504c-0.512-8.362667-0.750933-28.16-0.750933-60.330667v-5.819733l2.9696 5.0176c7.2704 12.032 16.622933 22.6816 27.648 31.419733 11.178667 9.045333 28.962133 17.134933 52.872533 24.0128 2.133333-5.819733 5.563733-11.0592 10.069333-15.325866a146.944 146.944 0 0 1-38.331733-11.264 87.5008 87.5008 0 0 1-37.410133-29.730134l-1.8432-2.56h50.3808c6.997333 0 14.711467 0.256 22.903466 0.768v-12.475733c-7.9872 0.512-15.701333 0.768-22.903466 0.768h-66.372267v-1.604267c0-5.000533 0.238933-10.7008 0.750933-16.981333h-14.933333c0.512 7.048533 0.750933 12.5952 0.750933 16.981333v1.604267h-62.8224c-7.936 0-17.1008-0.256-27.2896-0.785067v12.509867c10.461867-0.512 19.626667-0.785067 27.2896-0.785067h46.660267l-1.5872 2.474667a99.1744 99.1744 0 0 1-28.893867 26.606933 153.3952 153.3952 0 0 1-48.162133 20.155734c5.188267 3.447467 9.3184 8.277333 11.9296 13.943466 16.384-6.656 32.034133-15.0016 46.6944-24.866133a132.130133 132.130133 0 0 0 33.28-32.341333l2.901333-4.096v5.051733c0 29.525333-0.256 48.896-0.768 57.685333v-0.034133z m-75.6224-83.541333l-0.955733-1.5872a60.8256 60.8256 0 0 0-11.946667-14.660267l-1.774933-1.604267 2.133333-1.0752a276.189867 276.189867 0 0 0 52.155733-37.819733l1.979734-1.706667 0.6144 2.56c1.4336 5.393067 3.464533 10.632533 6.024533 15.598934l0.580267 1.1776-1.024 0.802133a11028.753067 11028.753067 0 0 0-46.353067 37.1712l-1.4336 1.143467z m-9.045333-17.083734c3.771733 3.669333 7.099733 7.7824 9.864533 12.253867a9979.050667 9979.050667 0 0 1 43.946667-35.2256 86.016 86.016 0 0 1-4.983467-12.561067 284.910933 284.910933 0 0 1-48.827733 35.5328z m58.760533 15.138134l-0.8192-1.4336a41.045333 41.045333 0 0 0-15.1552-12.680534l-2.935467-1.706666 3.1744-1.211734a91.477333 91.477333 0 0 0 37.8368-24.763733 72.072533 72.072533 0 0 0 15.872-32.256c-8.072533 0.034133-17.1008 0.341333-26.8288 0.853333l-1.6896 0.1024v-19.336533l1.672534 0.1024c10.205867 0.546133 19.6608 0.836267 28.142933 0.853333 0.512-9.4208 0.494933-18.8928-0.068267-28.330666l-0.170666-2.218667 2.167466 0.546133c6.434133 1.672533 13.073067 2.542933 19.729067 2.594134h2.577067l-1.143467 2.338133c-1.109333 2.218667-2.525867 8.379733-3.259733 25.088h42.9568l-0.170667 1.774933c-0.648533 6.485333-1.2288 12.970667-1.757867 19.456l-2.628266 35.396267c0.733867 7.1168 3.584 7.1168 4.539733 7.1168h9.6256a3.771733 3.771733 0 0 0 4.181333-2.5088c1.297067-5.649067 1.9968-11.434667 2.0992-17.220267l0.2048-3.293866 2.440534 2.167466c4.9152 4.096 11.042133 6.468267 17.442133 6.690134l1.706667 0.136533-0.256 1.706667c-2.491733 16.9984-6.024533 25.7024-11.144534 27.409066a68.386133 68.386133 0 0 1-18.807466 2.730667 76.6464 76.6464 0 0 1-21.435734-1.792c-6.9632-1.6896-10.171733-7.765333-9.5232-18.056533l2.525867-44.305067h-23.176533a89.821867 89.821867 0 0 1-14.045867 36.898133c-7.68 11.639467-21.981867 23.876267-42.496 36.352l-1.3824 0.802134z m-11.537067-15.223467c4.864 2.730667 9.147733 6.382933 12.612267 10.752 19.4048-11.9296 32.904533-23.552 40.157867-34.542933 7.338667-11.093333 12.049067-23.722667 13.738666-36.9152l0.170667-1.399467h29.354667l-2.730667 47.7184c-0.512 8.635733 1.792 13.431467 7.099733 14.6944 6.741333 1.518933 13.653333 2.0992 20.565334 1.7408a66.4576 66.4576 0 0 0 17.92-2.56c2.048-0.682667 5.819733-4.608 8.721066-23.125333a32.802133 32.802133 0 0 1-15.138133-5.376 68.5568 68.5568 0 0 1-2.082133 15.121066 6.946133 6.946133 0 0 1-7.168 4.608h-9.608534c-3.072 0-6.894933-1.792-7.7312-10.308266l2.628267-35.669334c0.512-6.382933 1.041067-12.288 1.5872-17.749333H869.888l0.085333-1.672533c0-8.669867 0.938667-17.3056 2.781867-25.770667a83.933867 83.933867 0 0 1-16.093867-2.167467 274.261333 274.261333 0 0 1-0.136533 28.091734l-0.068267 1.536h-1.536c-8.465067 0-17.92-0.273067-28.16-0.802134v12.526934c9.949867-0.512 19.114667-0.802133 27.2896-0.802134h1.911467l-0.341333 1.8944a75.4688 75.4688 0 0 1-16.981334 35.7376 92.228267 92.228267 0 0 1-36.0448 24.439467z m-15.4112-28.672l-1.536-1.416533a156.757333 156.757333 0 0 0-35.447466-20.087467l-1.962667-0.887467 1.399467-1.6384a40.618667 40.618667 0 0 0 7.5776-13.602133l0.5632-1.723733 1.621333 0.750933c16.64 7.8336 28.9792 14.2336 37.768533 19.5584l1.536 0.938667-1.109333 1.4336c-3.6352 4.608-6.792533 9.557333-9.454933 14.779733l-0.955734 1.8944z m-33.792-23.552c11.605333 4.881067 22.613333 11.076267 32.8192 18.432 2.286933-4.1984 4.881067-8.226133 7.748267-12.032-8.192-4.864-19.729067-10.820267-34.304-17.7152-1.518933 4.061867-3.6352 7.867733-6.263467 11.3152z m46.865067-11.042133l-1.467733-1.297067c-10.103467-8.533333-21.1456-15.872-32.938667-21.896533l-1.757867-0.938667 1.28-1.536c3.003733-3.6864 6.2464-7.8336 9.557334-12.322133l0.853333-1.160534 1.211733 0.7168c11.741867 6.690133 23.415467 13.482667 35.037867 20.3776l1.774933 1.058134-1.467733 1.467733c-4.266667 4.113067-8.004267 8.7552-11.1104 13.824l-0.9728 1.706667z m-31.1808-25.1392c10.8032 5.649067 20.974933 12.407467 30.378667 20.1728 2.6624-4.078933 5.751467-7.867733 9.1648-11.332267a2621.098667 2621.098667 0 0 0-31.965867-18.602667c-2.6112 3.4816-5.154133 6.7584-7.5776 9.762134zM747.52 378.88c-2.56 26.88-40.96 35.84-40.96 35.84v153.6s49.92 29.44 40.96 51.2c-8.96 21.76-58.88 72.96-204.8 71.68-145.92-1.28-266.24-23.04-271.36-71.68-5.12-48.64 40.96-46.08 40.96-46.08v-153.6s-89.6-39.68-5.12-87.04v-112.64s-35.84-26.88-35.84-46.08c0-19.2 53.76-76.8 235.52-76.8s240.64 55.04 240.64 71.68c0 16.64-7.68 33.28-46.08 51.2l5.12 112.64s43.52 19.2 40.96 46.08z m-317.44 71.68l5.12 5.12 15.36 56.32c0 37.12 38.4 40.96 61.44 40.96a33.348267 33.348267 0 0 0 30.72-20.48l15.36-10.24 15.36-40.96c7.68-48.64 20.48-61.44 20.48-61.44v-56.32c0-29.44-33.28-76.8-97.28-76.8S409.6 349.44 409.6 384c0 34.56 20.48 66.56 20.48 66.56zM514.56 153.6c-100.386133 0-181.76 10.308267-181.76 23.04 0 12.714667 81.373867 23.04 181.76 23.04 100.386133 0 181.76-10.308267 181.76-23.04C696.32 163.925333 614.946133 153.6 514.56 153.6zM460.8 332.8c16.964267 0 30.72 16.042667 30.72 35.84 0 19.797333-13.755733 35.84-30.72 35.84s-30.72-16.042667-30.72-35.84c0-19.797333 13.755733-35.84 30.72-35.84z m5.12 117.76c13.482667 14.933333 6.997333 21.76 10.24 30.72 3.242667 8.96 18.090667 13.226667 30.72 10.24 12.629333-2.986667 21.504-8.106667 20.48-20.48-1.024-12.373333 3.584-30.293333 15.36-25.6 11.776 4.693333 5.290667 5.546667 5.12 20.48-0.170667 14.933333-2.389333 27.733333-15.36 35.84-12.970667 8.106667-19.456 9.813333-25.6 10.24a136.3456 136.3456 0 0 1-25.6-5.12 68.608 68.608 0 0 1-20.48-15.36c-12.117333-12.117333 5.973333-21.333333-10.24-30.72 0 0 1.877333-25.173333 15.36-10.24z m51.2-81.92c0-19.797333 13.755733-35.84 30.72-35.84s30.72 16.042667 30.72 35.84c0 19.797333-13.755733 35.84-30.72 35.84s-30.72-16.042667-30.72-35.84z m5.12 102.4h-35.84s-1.877333 2.133333-5.12-5.12 10.922667-14.08 15.36-25.6c1.877333-5.9904 5.4272-11.332267 10.24-15.36 5.137067 9.5744 8.6016 19.968 10.24 30.72 1.877333 15.786667 5.12 15.36 5.12 15.36z" fill="#FFFF00" /></svg>