<?xml version="1.0" standalone="no"?><!DOCTYPE svg PUBLIC "-//W3C//DTD SVG 1.1//EN" "http://www.w3.org/Graphics/SVG/1.1/DTD/svg11.dtd"><svg class="icon" width="1000px" height="1000.00px" viewBox="0 0 1024 1024" version="1.1" xmlns="http://www.w3.org/2000/svg"><path d="M864 1024H160A160 160 0 0 1 0 864V160A160 160 0 0 1 160 0h704A160 160 0 0 1 1024 160v704A160 160 0 0 1 864 1024z m128-832a160 160 0 0 0-160-160h-640a160 160 0 0 0-160 160v640a160 160 0 0 0 160 160h640a160 160 0 0 0 160-160v-640z" fill="#FF0000" /><path d="M182.8864 756.701867a668.842667 668.842667 0 0 0 0 34.696533 129.024 129.024 0 0 0 8.328533 42.257067c4.522667 12.970667 11.349333 25.0368 20.138667 35.584a125.832533 125.832533 0 0 0 28.4672 24.4736c12.629333 7.5776 26.368 13.141333 40.738133 16.452266a66.2016 66.2016 0 0 0-15.7696 20.48c-11.093333-4.949333-21.777067-10.752-31.965866-17.339733a159.0272 159.0272 0 0 1-23.210667-18.688 139.4176 139.4176 0 0 1-19.712-24.456533 131.549867 131.549867 0 0 1-15.325867-36.471467 119.415467 119.415467 0 0 1-12.288 34.235733c-5.034667 8.874667-10.752 17.3568-17.083733 25.361067a118.784 118.784 0 0 1-23.210667 21.794133c-9.352533 6.826667-19.575467 14.097067-30.651733 21.794134a51.746133 51.746133 0 0 0-18.397867-16.896 167.594667 167.594667 0 0 0 49.493334-29.7984 103.936 103.936 0 0 0 29.3376-41.813334c6.229333-17.5104 10.205867-35.754667 11.8272-54.272 2.0992-22.3232 2.833067-44.765867 2.184533-67.1744 6.9632 1.262933 13.9776 2.1504 21.026133 2.6624a120.576 120.576 0 0 0-3.925333 27.136z m-62.6176 40.925866a392.021333 392.021333 0 0 1-10.513067 36.027734 156.2112 156.2112 0 0 0-19.268266-4.437334c3.925333-7.850667 7.168-16.042667 9.642666-24.4736 3.703467-11.810133 6.621867-23.842133 8.7552-36.027733 6.570667 2.082133 13.312 3.584 20.138667 4.437333-4.232533 7.6288-7.185067 15.889067-8.7552 24.4736z m121.736533 0.887467c-4.6592 12.765867-9.045333 23.586133-13.141333 32.4608a58.129067 58.129067 0 0 0-18.397867-8.021333c5.8368-9.454933 10.820267-19.438933 14.8992-29.781334 4.096-10.376533 7.304533-19.712 9.6256-28.023466A72.533333 72.533333 0 0 0 256 772.266667c-6.331733 7.7312-11.093333 16.657067-13.994667 26.231466z m-151.0912 140.629333l-0.887466-1.416533c-4.539733-6.826667-10.6496-12.458667-17.851734-16.384l-2.901333-1.6896 3.072-1.2288a167.253333 167.253333 0 0 0 49.032533-29.525333 102.912 102.912 0 0 0 28.893867-41.1648c6.178133-17.373867 10.120533-35.464533 11.741867-53.845334 2.065067-22.272 2.798933-44.629333 2.184533-66.986666l-0.0512-1.979734 1.928533 0.341334c6.894933 1.262933 13.858133 2.1504 20.855467 2.6624l1.928533 0.136533-0.512 1.911467a119.808 119.808 0 0 0-3.908266 26.760533 701.952 701.952 0 0 0 0 34.6112c0.4096 14.267733 3.191467 28.3648 8.2432 41.710933 4.471467 12.8 11.178667 24.6784 19.831466 35.106134a124.757333 124.757333 0 0 0 28.125867 24.1664c12.4928 7.492267 26.077867 12.970667 40.277333 16.264533l2.8672 0.733867-2.184533 2.030933a65.262933 65.262933 0 0 0-15.36 19.933867l-0.648533 1.501866-1.467734-0.682666a245.879467 245.879467 0 0 1-32.187733-17.4592 161.0752 161.0752 0 0 1-23.432533-18.875734 141.4144 141.4144 0 0 1-19.950934-24.746666 126.5152 126.5152 0 0 1-13.824-31.044267 114.039467 114.039467 0 0 1-11.025066 28.740267 203.144533 203.144533 0 0 1-17.237334 25.565866c-6.8096 8.362667-14.711467 15.803733-23.517866 22.084267-10.1376 7.389867-20.3776 14.660267-30.6688 21.828267l-1.365334 0.938666z m-14.336-18.909866c5.973333 3.720533 11.178667 8.6016 15.240534 14.336 9.8304-6.826667 19.592533-13.789867 29.2864-20.821334a117.930667 117.930667 0 0 0 22.8864-21.504c6.280533-7.953067 11.946667-16.366933 16.9472-25.156266 5.717333-10.581333 9.796267-21.981867 12.0832-33.792l1.365333-6.4 1.7408 6.314666c3.208533 12.6976 8.311467 24.832 15.121067 36.010667 5.563733 8.772267 12.0832 16.896 19.456 24.183467 7.0656 6.8608 14.762667 13.056 22.9888 18.500266 9.6768 6.2464 19.8144 11.776 30.3104 16.554667 3.464533-6.5024 7.953067-12.407467 13.312-17.476267a139.400533 139.400533 0 0 1-38.365867-15.906133 127.351467 127.351467 0 0 1-28.8256-24.7808 116.565333 116.565333 0 0 1-20.4288-36.078933 131.396267 131.396267 0 0 1-8.413867-42.8032c-0.3072-13.909333-0.3072-25.6 0-34.781867a123.204267 123.204267 0 0 1 3.498667-25.6c-5.802667-0.477867-11.605333-1.194667-17.339733-2.167467a550.229333 550.229333 0 0 1-2.235734 65.365334 221.184 221.184 0 0 1-11.9296 54.6816 105.9328 105.9328 0 0 1-29.7984 42.461866 168.106667 168.106667 0 0 1-46.933333 28.859734h0.034133z m34.2016-84.565334l-1.450666-0.443733a154.6752 154.6752 0 0 0-19.080534-4.4032l-2.235733-0.392533 1.0752-2.013867c3.874133-7.765333 7.0656-15.854933 9.5232-24.183467 3.6864-11.7248 6.587733-23.688533 8.704-35.805866l0.341333-1.8432 1.7408 0.597333c6.485333 2.048 13.124267 3.515733 19.848534 4.386133l2.628266 0.3584-1.536 2.184534c-4.096 7.458133-6.980267 15.530667-8.516266 23.893333a390.161067 390.161067 0 0 1-10.530134 36.1984l-0.512 1.467733z m-17.834666-7.68c5.341867 0.955733 10.615467 2.167467 15.8208 3.669334 3.857067-11.3152 7.168-22.801067 9.984-34.4064 1.5872-7.901867 4.1472-15.581867 7.645866-22.852267a116.957867 116.957867 0 0 1-16.2304-3.584c-2.116267 11.639467-4.949333 23.1424-8.4992 34.423467a164.113067 164.113067 0 0 1-8.738133 22.749866h0.017067z m136.6016 5.393067l-1.536-1.024a56.7296 56.7296 0 0 0-17.885867-7.7824l-2.133333-0.546133 1.160533-1.877334c5.7856-9.386667 10.717867-19.285333 14.762667-29.559466 4.027733-10.24 7.253333-19.592533 9.591466-27.8528l0.546134-1.979734 1.774933 1.024c6.4512 3.345067 13.380267 5.6832 20.548267 6.946134l2.935466 0.597333-2.116266 2.133333a75.332267 75.332267 0 0 0-13.653334 25.685334 461.687467 461.687467 0 0 1-13.175466 32.580266l-0.8192 1.655467z m-16.554667-11.4176c5.358933 1.501867 10.478933 3.754667 15.2064 6.656 3.857067-8.516267 8.004267-18.824533 12.322133-30.6688a90.453333 90.453333 0 0 1 12.458667-24.661333 74.837333 74.837333 0 0 1-16.981333-5.751467c-2.286933 7.8848-5.358933 16.725333-9.130667 26.2656a190.071467 190.071467 0 0 1-13.892267 28.16zM436.036267 907.946667a120.7808 120.7808 0 0 1-36.352-49.373867 140.629333 140.629333 0 0 1-13.141334 26.692267c-4.949333 7.918933-10.990933 15.121067-17.954133 21.333333a148.957867 148.957867 0 0 1-21.896533 16.0256c-9.1648 5.376-18.670933 10.1376-28.4672 14.2336a43.6736 43.6736 0 0 0-15.7696-15.121067 137.284267 137.284267 0 0 0 41.608533-18.261333 89.5488 89.5488 0 0 0 27.579733-28.0064 110.967467 110.967467 0 0 0 13.585067-36.027733c2.6624-14.216533 3.413333-28.740267 2.184533-43.144534 6.997333 0.597333 14.592 1.194667 22.766934 1.774934a72.055467 72.055467 0 0 0-2.184534 30.242133c2.218667 11.588267 6.3488 22.715733 12.270934 32.9216a113.527467 113.527467 0 0 0 28.4672 33.792 126.737067 126.737067 0 0 0 49.032533 23.125333 47.5648 47.5648 0 0 0-13.141333 18.688 145.066667 145.066667 0 0 1-48.622934-28.893866h0.034134z m53.8624-116.992c0 3.549867 0.290133 10.069333 0.853333 19.575466h-19.285333v-28.4672h-144.503467v30.242134H307.712c0.580267-10.069333 0.8704-17.476267 0.8704-22.237867 0-4.778667-0.290133-12.765867-0.8704-24.0128h183.04a609.109333 609.109333 0 0 0-0.887467 24.917333l0.034134-0.017066z m-155.050667 82.7392a73.1648 73.1648 0 0 0-16.64-6.229334c3.498667-7.697067 6.8608-15.2576 10.069333-22.6816 3.925333-9.659733 6.997333-19.626667 9.216-29.815466 5.870933 2.798933 12.032 4.898133 18.397867 6.2464a10338.133333 10338.133333 0 0 1-21.0432 52.48z m43.793067-139.6736c6.144-1.962667 12.014933-4.6592 17.5104-8.004267 6.109867 9.9328 11.383467 20.343467 15.7696 31.1296-6.997333 2.389333-13.141333 4.778667-18.397867 7.133867a104.362667 104.362667 0 0 0-14.882133-30.2592z m74.4448 139.6736a52.0192 52.0192 0 0 0-14.882134-8.004267 158.788267 158.788267 0 0 0 21.009067-48.042667c5.205333 3.874133 11.178667 6.6048 17.527467 8.021334a357.717333 357.717333 0 0 1-23.6544 48.0256z m-135.5776 65.2288l-0.682667-1.262934a42.496 42.496 0 0 0-15.223467-14.5408l-3.191466-1.9968 3.618133-0.955733a136.3456 136.3456 0 0 0 41.130667-18.039467 88.5248 88.5248 0 0 0 27.101866-27.477333 110.421333 110.421333 0 0 0 13.380267-35.515733 160.529067 160.529067 0 0 0 2.167467-42.717867l-0.1536-1.8944 1.877333 0.1536c6.997333 0.597333 14.574933 1.194667 22.749867 1.774933l1.9456 0.1536-0.512 1.8944a70.6048 70.6048 0 0 0-2.1504 29.576534 104.106667 104.106667 0 0 0 12.0832 32.392533 112.571733 112.571733 0 0 0 28.0576 33.314133 125.781333 125.781333 0 0 0 48.452266 22.8352l2.8672 0.733867-2.2016 2.048a46.250667 46.250667 0 0 0-12.714666 18.039467l-0.512 1.450666-1.450667-0.4608a147.490133 147.490133 0 0 1-49.152-29.218133 124.4672 124.4672 0 0 1-35.293867-46.2336c-3.242667 8.072533-7.185067 15.837867-11.8272 23.176533-5.034667 8.055467-11.178667 15.36-18.261333 21.691734a149.469867 149.469867 0 0 1-22.1184 16.213333 239.786667 239.786667 0 0 1-28.672 14.336l-1.314133 0.529067z m82.1248-84.906667l1.536 3.9936a119.5008 119.5008 0 0 0 35.84 48.708267 146.7392 146.7392 0 0 0 46.626133 28.16c2.56-5.973333 6.2464-11.349333 10.9056-15.837867a126.464 126.464 0 0 1-46.865067-22.698667 115.780267 115.780267 0 0 1-28.859733-34.304 107.042133 107.042133 0 0 1-12.4416-33.4336 73.216 73.216 0 0 1 1.723733-29.013333 1278.037333 1278.037333 0 0 1-18.9952-1.4848c1.024 13.9264 0.238933 27.9552-2.3552 41.6768a112.827733 112.827733 0 0 1-13.7728 36.5568 91.4432 91.4432 0 0 1-28.074666 28.535467 137.472 137.472 0 0 1-38.6048 17.5104c5.000533 3.242667 9.2672 7.4752 12.544 12.458666 9.284267-3.9424 18.312533-8.482133 26.999466-13.585066 7.68-4.608 14.933333-9.915733 21.674667-15.837867 6.826667-6.144 12.782933-13.2096 17.646933-20.992a140.0832 140.0832 0 0 0 12.970667-26.402133l1.501867-4.010667z m53.930666 22.101333l-1.4336-1.092266a50.773333 50.773333 0 0 0-14.4384-7.7824l-1.962666-0.648534 1.109333-1.774933a157.696 157.696 0 0 0 20.821333-47.547733l0.5632-2.286934 1.911467 1.365334c5.0176 3.7376 10.786133 6.365867 16.896 7.7312l1.8432 0.375466-0.648533 1.774934a361.130667 361.130667 0 0 1-23.7568 48.298666l-0.904534 1.5872z m-12.919466-11.264c4.232533 1.6384 8.2432 3.822933 11.946666 6.468267 8.328533-14.318933 15.701333-29.184 22.016-44.4928-5.12-1.365333-9.984-3.566933-14.3872-6.536533a161.1264 161.1264 0 0 1-19.575466 44.544v0.017066z m-104.96 11.093334l-1.536-0.785067a70.519467 70.519467 0 0 0-16.2816-6.0928l-1.928534-0.443733 0.8192-1.8432c3.515733-7.68 6.8608-15.240533 10.069334-22.647467 3.857067-9.557333 6.894933-19.456 9.096533-29.525333l0.4608-2.013867 1.826133 0.938667c5.751467 2.730667 11.793067 4.778667 18.0224 6.0928l1.826134 0.426666-0.682667 1.757867c-3.515733 8.9088-10.530133 26.402133-21.0432 52.514133l-0.648533 1.621334z m-15.2064-9.591467c4.676267 1.262933 9.216 2.986667 13.550933 5.12 9.489067-23.586133 16.042667-39.970133 19.6608-49.117867-5.188267-1.194667-10.24-2.901333-15.121067-5.034666-2.1504 9.591467-5.12 18.9952-8.823466 28.125866-2.9696 6.826667-6.058667 13.806933-9.2672 20.906667z m8.0896-52.411733h-22.5792l0.119466-1.706667c0.5632-10.24 0.853333-17.493333 0.853334-22.1696s-0.290133-12.458667-0.853334-23.927467l-0.1024-1.706666h85.896534a102.9632 102.9632 0 0 0-14.557867-29.457067l-1.297067-1.792 2.0992-0.699733a80.896 80.896 0 0 0 17.169067-7.850667l1.314133-0.853333 0.853334 1.3312c6.144 10.018133 11.4688 20.514133 15.9232 31.402666l0.699733 1.621334-1.655467 0.5632c-5.632 1.911467-10.752 3.84-15.189333 5.7344h95.163733l-0.085333 1.706666a669.013333 669.013333 0 0 0-0.8704 24.814934c0 3.6352 0.3072 10.359467 0.8704 19.456l0.119467 1.7408h-22.5792v-28.4672h-141.312v30.242133z m-19.182934-3.242667h15.991467v-30.2592h147.712v28.4672h15.9744c-0.512-8.311467-0.768-14.4896-0.768-17.954133 0-4.096 0.256-12.1344 0.785067-23.278934h-179.712c0.512 10.581333 0.785067 17.92 0.785066 22.391467 0 4.488533-0.238933 11.2128-0.768 20.616533z m71.799467-75.861333c5.700267 8.3968 10.1888 17.578667 13.312 27.221333 5.000533-2.1504 10.069333-4.113067 15.240533-5.870933a212.548267 212.548267 0 0 0-14.097066-27.972267 82.432 82.432 0 0 1-14.455467 6.638933z m342.528 121.070933v16.0256c-5.853867-0.580267-15.479467-0.887467-28.910933-0.887467 0 15.428267 0.3072 27.579733 0.887466 36.471467h-17.5104v-8.891733h-47.3088v16.896a16.384 16.384 0 0 1-7.441066 14.2336c-8.2432 3.362133-16.964267 5.461333-25.838934 6.229333-1.655467-7.031467-4.608-13.653333-8.7552-19.575467 7.0144 0.170667 14.045867-0.119467 21.026134-0.887466a5.2736 5.2736 0 0 0 5.256533-5.341867v-11.5712h-49.0496c-6.434133 0-14.0288 0.3072-22.784 0.904533v-16.0256a329.386667 329.386667 0 0 0 22.784 0.887467h49.0496v-13.346133h-65.6896c-7.594667 0-14.8992 0.3072-21.896533 0.887466v-16.008533c6.997333 0.597333 14.301867 0.904533 21.896533 0.887467h65.6896v-12.458667h-50.807467c-6.417067 0-13.431467 0.290133-21.009066 0.887467v-16.008534c7.5776 0.597333 14.592 0.904533 21.009066 0.887467h50.807467v-11.5712h-61.320533c0.580267-8.891733 0.8704-16.896 0.887466-24.0128 0-7.714133-0.290133-15.121067-0.8704-22.237867h61.303467v-12.475733h-62.190933c-9.352533 0-18.107733 0.290133-26.282667 0.887467v-16.008534c8.174933 0.597333 16.64 0.887467 25.412267 0.887467h63.061333c0-4.1472-0.290133-9.489067-0.887467-16.008533h17.527467a129.262933 129.262933 0 0 0-0.8704 16.008533h59.5456c9.915733 0 20.138667-0.290133 30.651733-0.887467v16.008534a556.8 556.8 0 0 0-30.651733-0.887467h-59.562667v12.458667h63.061334c-0.597333 7.1168-0.853333 14.5408-0.853334 22.237866 0 7.714133 0.256 15.735467 0.853334 24.029867h-63.044267v11.554133h64.802133c-0.597333 5.9392-0.887467 14.848-0.8704 26.692267 8.7552 0 18.397867-0.290133 28.893867-0.8704z m-108.5952-51.6096v-17.800533h-44.663467v17.800533h44.663467z m61.303467 0v-17.800533h-45.533867v17.800533h45.533867z m1.757866 52.497067v-12.458667h-47.291733v12.458667h47.274667z m0 27.579733v-13.346133h-47.291733v13.346133h47.274667z m-81.851733 53.418667l-0.290133-1.501867a55.586133 55.586133 0 0 0-8.533334-18.9952l-1.655466-2.525867h2.986666c6.929067 0.170667 13.8752-0.119467 20.753067-0.853333a3.6352 3.6352 0 0 0 3.925333-3.754667v-9.9328h-47.445333c-6.280533 0-13.909333 0.290133-22.664533 0.887467l-1.706667 0.1024v-19.490133l1.706667 0.136533c8.533333 0.580267 16.162133 0.887467 22.664533 0.887467h47.445333v-10.103467h-64.085333c-7.441067 0-14.762667 0.290133-21.777067 0.887467l-1.706666 0.136533v-19.541333l1.723733 0.1536c6.8096 0.580267 14.1312 0.887467 21.76 0.887466h64.085333v-9.216h-49.2032c-6.280533 0-13.312 0.3072-20.8896 0.887467l-1.706666 0.136533v-19.541333l1.706666 0.1536c7.389867 0.580267 14.404267 0.887467 20.8896 0.887467h49.2032v-8.328534h-61.44l0.119467-1.723733c0.580267-8.891733 0.8704-16.9472 0.8704-23.9104 0-7.389867-0.290133-14.762667-0.8704-22.1184l-0.136533-1.757867h61.44v-9.216h-60.5696c-9.216 0-18.005333 0.3072-26.1632 0.904534l-1.706667 0.119466v-19.5072l1.706667 0.119467c7.953067 0.597333 16.452267 0.904533 25.2928 0.904533h61.44a223.7952 223.7952 0 0 0-0.853334-14.267733l-0.170666-1.757867h21.0944l-0.221867 1.826134a121.344 121.344 0 0 0-0.853333 14.199466h57.941333c10.0352 0 20.309333-0.3072 30.549333-0.904533l1.706667-0.085333v19.456l-1.706667-0.085334a550.109867 550.109867 0 0 0-30.549333-0.904533h-57.9584v9.216h63.197867l-0.136534 1.774933c-0.580267 6.912-0.8704 14.336-0.8704 22.101334 0 7.748267 0.290133 15.837867 0.853334 23.893333l0.136533 1.7408H632.490667v8.328533h64.989866l-0.170666 1.774934c-0.580267 5.5808-0.853333 13.7216-0.8704 24.900266 8.430933-0.034133 17.578667-0.341333 27.204266-0.8704l1.6896-0.1024v19.524267l-1.757866-0.170667c-5.5808-0.5632-14.711467-0.853333-27.136-0.887466 0.034133 14.882133 0.3072 26.248533 0.887466 34.730666l0.119467 1.7408h-20.821333v-8.891733h-44.1344v15.274667c0.170667 6.314667-2.9696 12.253867-8.2944 15.6672a87.620267 87.620267 0 0 1-26.368 6.4l-1.4848 0.187733z m-4.5568-19.780267c3.157333 4.983467 5.546667 10.427733 7.0656 16.145067 8.192-0.750933 16.2304-2.730667 23.842133-5.853867a14.7968 14.7968 0 0 0 6.6048-12.936533v-18.3808h50.4832v8.891733h14.216534a616.686933 616.686933 0 0 1-0.768-34.850133v-1.621334h1.604266c12.100267 0 21.265067 0.238933 27.306667 0.733867v-12.544c-9.096533 0.512-18.210133 0.785067-27.306667 0.802133h-1.604266V856.746667c0-10.9568 0.238933-19.182933 0.7168-25.088h-64.648534v-14.7968h62.941867c-0.512-7.458133-0.750933-14.933333-0.750933-22.408534 0-7.202133 0.256-14.097067 0.733866-20.616533h-62.9248v-15.701333h61.149867c9.284267 0 19.063467 0.273067 29.064533 0.802133v-12.578133c-9.762133 0.529067-19.524267 0.785067-29.064533 0.785066h-61.149867v-1.621333a139.298133 139.298133 0 0 1 0.682667-14.3872h-13.9776c0.477867 5.870933 0.7168 10.581333 0.7168 14.3872v1.621333h-64.648533c-8.277333 0-16.264533-0.256-23.808-0.750933v12.509867c7.765333-0.512 16.042667-0.768 24.6784-0.768h63.778133v15.701333H555.52c0.494933 6.656 0.733867 13.585067 0.733867 20.616533 0 6.587733-0.256 14.114133-0.768 22.408534h61.201066v14.7968h-52.3776c-6.058667 0-12.578133-0.238933-19.421866-0.750934v12.509867c6.997333-0.512 13.533867-0.750933 19.421866-0.750933h52.394667v15.701333h-67.2768c-6.775467 0-13.550933-0.256-20.309333-0.750933v12.475733c6.5536-0.512 13.380267-0.750933 20.309333-0.750933h67.2768v16.5888h-50.6368c-6.144 0-13.2608-0.256-21.162667-0.785067v12.561067c8.106667-0.512 15.223467-0.768 21.162667-0.768h50.6368v13.175466a6.741333 6.741333 0 0 1-6.587733 6.946134 138.069333 138.069333 0 0 1-18.346667 0.938666z m87.995733-32.017067h-50.4832v-16.5888h50.4832v16.5888z m-47.291733-3.242666h44.100267v-10.103467H632.490667v10.103467z m47.291733-24.337067h-50.4832v-15.701333h50.4832v15.701333z m-47.291733-3.242667h44.100267v-9.216H632.490667v9.216z m45.568-49.2544h-48.725333V784.896h48.725333v21.026133z m-45.568-3.242666h42.3424v-14.5408h-42.3424v14.5408z m-15.7696 3.242666H568.832V784.896h47.854933v21.026133h0.017067z m-44.663467-3.242666h41.472v-14.5408h-41.472v14.5408z m214.7328-41.984c0-7.697067-0.290133-15.4112-0.8704-23.125334h18.3808c-1.194667 7.953067-1.757867 15.9744-1.7408 24.0128v19.575467c18.670933 0 32.392533-0.290133 41.1648-0.887467v16.008534c-8.772267-0.580267-22.493867-0.8704-41.1648-0.887467v38.263467h29.781334a688.9984 688.9984 0 0 0-0.8704 39.133866c0 16.008533 0.290133 29.661867 0.853333 40.925867h-16.622933v-11.5712h-42.922667v18.688h-16.64c0.580267-11.264 0.8704-25.8048 0.887467-43.588267a838.656 838.656 0 0 0-0.887467-43.605333H786.773333v-38.2464c-18.688 0-32.119467 0.290133-40.277333 0.887467v-15.991467c8.157867 0.597333 21.589333 0.904533 40.277333 0.887467v-20.48z m28.910934 127.232V847.872h-42.922667v40.0384h42.922667z m72.704-138.3424c-2.935467 6.229333-6.144 13.789867-9.642667 22.6816h41.1648c12.8512 0 23.6544-0.290133 32.4096-0.887467v16.008533a322.730667 322.730667 0 0 0-24.5248-0.887466 398.336 398.336 0 0 1-7.0144 48.059733 173.841067 173.841067 0 0 1-19.285333 50.705067c6.826667 7.9872 14.7968 14.8992 23.6544 20.48 8.260267 5.632 17.066667 10.410667 26.282666 14.250666a52.7872 52.7872 0 0 0-13.141333 16.008534 162.884267 162.884267 0 0 1-46.421333-38.263467 214.016 214.016 0 0 1-53.418667 38.263467 36.027733 36.027733 0 0 0-12.253867-14.2336 164.113067 164.113067 0 0 0 55.176534-36.471467 167.2192 167.2192 0 0 1-15.342934-36.488533 482.423467 482.423467 0 0 1-9.216-36.471467c-4.096 5.9392-7.594667 10.990933-10.496 15.121067a47.581867 47.581867 0 0 0-13.141333-10.666667 157.064533 157.064533 0 0 0 23.637333-35.584c8.721067-16.4864 14.916267-34.184533 18.397867-52.497067 6.178133 3.6864 13.021867 6.109867 20.138667 7.1168-1.706667 2.952533-4.078933 7.5264-6.980267 13.738667z m-15.7696 54.698666c1.058133 13.1072 3.413333 26.0608 6.997333 38.7072a132.778667 132.778667 0 0 0 11.400533 28.910934c6.656-11.7248 11.264-24.5248 13.568-37.802667 3.208533-15.701333 5.12-31.624533 5.700267-47.616h-38.5536c-4.096 7.1168-8.192 13.943467-12.253867 20.48l13.141334-2.679467z m66.286933 133.870934l-1.365333-0.768a165.376 165.376 0 0 1-45.738667-37.290667c-7.953067 7.7824-16.554667 14.882133-25.719467 21.179733-8.533333 6.126933-17.544533 11.52-26.965333 16.162134l-1.3824 0.682666-0.7168-1.4336a34.423467 34.423467 0 0 0-11.707733-13.602133l-2.474667-1.672533 2.730667-1.194667a164.5568 164.5568 0 0 0 53.828266-35.2256 170.2912 170.2912 0 0 1-14.882133-35.754667 489.984 489.984 0 0 1-8.465067-32.938666c-3.191467 4.625067-6.007467 8.6528-8.3968 12.066133l-1.194666 1.706667-1.3312-1.5872a46.4896 46.4896 0 0 0-12.6976-10.325334l-1.8432-1.024 1.501866-1.536a157.269333 157.269333 0 0 0 23.364267-35.208533c8.618667-16.3328 14.762667-33.877333 18.210133-52.0192l0.443734-2.286933 1.962666 1.194666c6.007467 3.566933 12.6464 5.905067 19.5584 6.894934l2.3552 0.375466-1.211733 2.082134c-1.774933 3.003733-4.096 7.611733-6.929067 13.653333-3.106133 6.690133-6.007467 13.482667-8.704 20.343467h38.792534c13.073067 0 23.637333-0.290133 32.290133-0.8704l1.706667-0.136534v19.5072l-1.723734-0.119466c-7.6288-0.580267-15.274667-0.853333-22.9376-0.8704-1.365333 15.701333-3.6864 31.300267-6.912 46.728533a175.6672 175.6672 0 0 1-18.8928 50.176c6.570667 7.4752 14.165333 13.9776 22.596267 19.285333a143.189333 143.189333 0 0 0 25.975467 14.08l2.696533 1.0752-2.321067 1.757867a51.712 51.712 0 0 0-12.714666 15.530667l-0.785067 1.365333z m-109.499733-16.042667c4.010667 3.208533 7.3216 7.202133 9.728 11.741867 8.738133-4.437333 17.117867-9.5232 25.088-15.223467a189.303467 189.303467 0 0 0 26.487466-22.050133l1.2288-1.245867 1.1264 1.348267a161.5872 161.5872 0 0 0 44.629334 37.102933c2.833067-4.949333 6.417067-9.454933 10.581333-13.346133a156.706133 156.706133 0 0 1-24.029867-13.346134 106.410667 106.410667 0 0 1-23.995733-20.770133l-0.7168-0.8704 0.546133-0.989867c8.942933-15.650133 15.394133-32.597333 19.114667-50.244266a402.432 402.432 0 0 0 6.9632-47.8208l0.119467-1.501867h1.4848c8.021333 0 15.735467 0.256 22.920533 0.768V773.12a513.877333 513.877333 0 0 1-30.805333 0.785067h-43.52l0.8704-2.218667c2.986667-7.697067 6.212267-15.291733 9.693866-22.784 2.269867-4.9152 4.266667-8.9088 5.905067-11.895467a55.842133 55.842133 0 0 1-16.469333-5.802666 189.44 189.44 0 0 1-18.1248 50.7392 169.301333 169.301333 0 0 1-22.493867 34.4576c3.857067 2.321067 7.355733 5.1712 10.427733 8.448 2.6624-3.805867 5.7856-8.311467 9.335467-13.482667l1.570133-2.235733-0.989866 0.170666 2.030933-3.191466c4.1984-6.741333 8.260267-13.550933 12.219733-20.4288l0.4608-0.785067h41.130667l-0.085333 1.6896c-0.580267 16.0768-2.5088 32.085333-5.717334 47.854933a119.688533 119.688533 0 0 1-13.789866 38.331734l-1.399467 2.286933-1.3312-2.321067a135.236267 135.236267 0 0 1-11.537067-29.269333 203.605333 203.605333 0 0 1-6.912-37.205333l-13.380266 2.730666 0.6144 2.986667c2.577067 12.2368 5.632 24.354133 9.1648 36.352 3.618133 12.5952 8.704 24.7296 15.189333 36.130133l0.597333 1.041067-0.836266 0.904533a164.113067 164.113067 0 0 1-53.077334 35.703467z m44.6464-119.7568l0.1536 1.809067c1.058133 13.0048 3.3792 25.856 6.946133 38.4 2.423467 9.0112 5.751467 17.749333 9.898667 26.112a122.487467 122.487467 0 0 0 11.946666-34.884267c3.072-15.035733 4.949333-30.3104 5.597867-45.636267h-35.9424c-3.362133 5.802667-6.656 11.332267-9.8304 16.503467l11.229867-2.304z m-99.6864 120.132267h-19.933867l0.1024-1.706667c0.580267-11.264 0.853333-25.941333 0.853333-43.52 0-18.176-0.273067-32.836267-0.853333-43.52l-0.1024-1.706667h30.754133V797.013333c-17.698133 0-30.651733 0.324267-38.587733 0.887467l-1.706667 0.119467v-19.5072l1.706667 0.136533c7.8336 0.5632 20.48 0.853333 38.570667 0.887467v-18.8416c0-7.543467-0.290133-15.291733-0.853334-23.005867l-0.136533-1.7408h21.981867l-0.290134 1.877333c-1.160533 7.850667-1.7408 15.803733-1.7408 23.7568v17.954134c18.141867 0 31.061333-0.324267 39.4752-0.887467l1.706667-0.136533v19.5072l-1.706667-0.119467a677.410133 677.410133 0 0 0-39.4752-0.887467v35.003734h29.917867l-0.1024 1.706666a695.978667 695.978667 0 0 0-0.887467 39.0656c0 16.298667 0.3072 29.696 0.887467 40.840534l0.085333 1.706666H814.08v-11.5712h-39.7312v18.688z m-16.554667-3.242667h13.3632v-18.688h46.08v11.554133h13.346133c-0.512-10.837333-0.768-23.722667-0.768-39.287466 0-15.445333 0.238933-27.7504 0.768-37.546667h-29.696v-41.472h1.604267c17.408 0 30.685867 0.273067 39.560533 0.785067v-12.544a733.525333 733.525333 0 0 1-39.560533 0.768h-1.604267v-21.213867c0-7.492267 0.494933-14.967467 1.4848-22.408533h-14.7968c0.512 7.236267 0.750933 14.455467 0.750934 21.504v22.084266h-1.604267c-17.7664 0-30.464-0.238933-38.690133-0.750933v12.526933a700.586667 700.586667 0 0 1 38.690133-0.768h1.604267v41.472h-30.532267c0.512 10.581333 0.785067 24.6784 0.785067 41.984 0 16.776533-0.273067 30.890667-0.785067 41.984z m59.460267-29.696h-46.08v-43.281067h46.08v43.264z m-42.9056-3.242667H814.08v-36.795733h-39.7312v36.778667zM778.24 409.6s-40.96 28.16-56.32 128c0 0-43.52 107.52-184.32 107.52 0 0 75.52-48.64 81.92-92.16l-46.08-5.12s43.52-44.8 40.96-92.16l-40.96 30.72-10.24-81.92-35.84 30.72s-6.4-52.48-25.6-61.44l-15.36 56.32-35.84-40.96s-7.68 88.32 0 107.52a356.522667 356.522667 0 0 1-46.08-25.6v71.68l-15.36 10.24s6.4 56.32 97.28 92.16c0 0-176.64 21.76-184.32-153.6 0 0-11.52-90.88-56.32-112.64 0 0 70.4 2.56 92.16 40.96 0 0 2.56-99.84-25.6-117.76 0 0 26.88-24.32 66.56 35.84 0 0 12.8-6.4 10.24-51.2-2.56-44.8-1.28-67.84-20.48-87.04 0 0 39.68-5.12 87.04 46.08 0 0-3.84-47.36 10.24-87.04a480.426667 480.426667 0 0 1 40.96-81.92c1.194667 36.215467 11.776 71.509333 30.72 102.4 0 0 24.32 29.44 20.48 117.76 0 0 35.84-7.68 46.08-71.68 0 0 26.88 80.64 30.72 138.24 0 0 33.28-15.36 51.2-71.68 0 0 38.4 44.8 5.12 128l87.04-10.24z m-107.52 281.6H343.04V665.6h327.68v25.6z" fill="#FF0000" /></svg>