<?xml version="1.0" standalone="no"?><!DOCTYPE svg PUBLIC "-//W3C//DTD SVG 1.1//EN" "http://www.w3.org/Graphics/SVG/1.1/DTD/svg11.dtd"><svg class="icon" width="1000px" height="1000.00px" viewBox="0 0 1024 1024" version="1.1" xmlns="http://www.w3.org/2000/svg"><path d="M864 1024H160A160 160 0 0 1 0 864V160A160 160 0 0 1 160 0h704A160 160 0 0 1 1024 160v704A160 160 0 0 1 864 1024z m128-832a160 160 0 0 0-160-160h-640a160 160 0 0 0-160 160v640a160 160 0 0 0 160 160h640a160 160 0 0 0 160-160v-640z" fill="#FF0000" /><path d="M125.815467 753.271467c0-8.192-0.290133-15.803733-0.8704-22.8352h18.466133a288.768 288.768 0 0 0-0.8704 22.8352h63.3344c0-8.192-0.290133-15.803733-0.8704-22.8352h18.466133c-0.597333 7.6288-0.887467 15.240533-0.8704 22.8352h13.192534c6.434133 0 14.6432-0.290133 24.6272-0.8704v14.062933a441.2928 441.2928 0 0 0-24.6272-0.887467h-13.192534v69.393067h19.3536c11.7248 0 22.562133-0.290133 32.546134-0.887467v15.803734a259.703467 259.703467 0 0 0-31.675734-1.7408h-22.016c7.509333 8.277333 16.093867 15.5136 25.514667 21.504 9.864533 5.614933 20.548267 9.608533 31.675733 11.844266a42.939733 42.939733 0 0 0-9.6768 19.319467 174.011733 174.011733 0 0 1-39.150933-24.149333 128.802133 128.802133 0 0 1-25.941333-28.535467H150.442667a115.541333 115.541333 0 0 1-27.716267 29.866667 174.677333 174.677333 0 0 1-40.9088 22.818133 55.808 55.808 0 0 0-9.6768-16.674133 129.143467 129.143467 0 0 0 32.989867-13.6192 71.424 71.424 0 0 0 25.9584-22.391467h-22.869334c-10.581333 0-21.162667 0.580267-31.675733 1.757867v-15.8208c10.5472 0.597333 21.111467 0.887467 31.658667 0.887466h17.595733v-69.393066c-14.062933 0-26.094933 0.3072-36.061867 0.887466v-14.045866c9.949867 0.580267 19.933867 0.887467 29.917867 0.853333h6.144z m40.448 126.464c0-5.853867-0.290133-13.1584-0.8704-21.947734h19.3536a123.016533 123.016533 0 0 0-1.757867 21.947734h16.725333c8.192 0 16.093867-0.290133 23.739734-0.8704v16.674133a163.754667 163.754667 0 0 0-24.6272-1.757867h-15.8208v22.8352h37.8368c13.482667 0 25.787733-0.290133 36.949333-0.8704v15.803734a685.687467 685.687467 0 0 0-36.949333-0.8704H125.832533c-11.741867 0-22.8864 0.290133-33.450666 0.8704v-15.803734c9.966933 0.580267 21.111467 0.853333 33.450666 0.8704h40.448V893.781333h-14.062933c-9.984 0-19.063467 0.3072-27.272533 0.887467v-15.803733c8.192 0.580267 16.6912 0.8704 25.514666 0.853333h15.837867-0.034133z m39.594666-99.242667v-14.933333h-63.317333v14.933333h63.3344z m0 26.350933v-12.288h-63.317333v12.288h63.3344z m0 28.091734v-14.916267h-63.317333v14.933333h63.3344z m-115.0976 98.304v-19.2l1.706667 0.1024c9.966933 0.580267 21.179733 0.887467 33.3312 0.887466H164.693333v-19.626666h-12.458666c-9.813333 0-18.944 0.290133-27.170134 0.853333l-1.706666 0.136533v-16.8448c-12.561067 9.352533-26.3168 17.015467-40.891734 22.766934l-1.604266 0.631466-0.512-1.621333a54.493867 54.493867 0 0 0-9.403734-16.196267l-1.5872-1.979733 2.474667-0.597333a128.597333 128.597333 0 0 0 32.5632-13.431467 74.461867 74.461867 0 0 0 23.688533-19.387733H108.202667c-10.513067 0-21.026133 0.597333-31.488 1.7408l-1.774934 0.187733v-19.285333l1.6896 0.1024c10.2912 0.580267 20.906667 0.8704 31.573334 0.8704h16.008533v-66.184534a647.168 647.168 0 0 0-34.389333 0.887467l-1.6896 0.1024v-17.476267l1.706666 0.119467c9.728 0.580267 19.746133 0.8704 29.815467 0.8704h4.539733a276.155733 276.155733 0 0 0-0.8704-21.111467l-0.136533-1.706666h21.9648l-0.1536 1.706666c-0.512 7.031467-0.8192 14.08-0.853333 21.111467h60.1088a276.258133 276.258133 0 0 0-0.853334-21.111467l-0.170666-1.706666h21.981866l-0.1536 1.706666c-0.529067 7.031467-0.8192 14.08-0.853333 21.111467h11.5712c6.570667 0 14.813867-0.290133 24.541867-0.8704l1.706666-0.119467v17.476267l-1.706666-0.1024a444.996267 444.996267 0 0 0-24.541867-0.887467h-11.605333v66.184534h17.749333c11.8272 0 22.749867-0.290133 32.4608-0.8704l1.706667-0.119467v19.336533l-1.809067-0.221866a259.2768 259.2768 0 0 0-31.470933-1.7408h-18.210134c6.7072 7.082667 14.301867 13.312 22.562134 18.5344 9.728 5.512533 20.258133 9.454933 31.214933 11.656533l2.525867 0.597333-1.655467 1.9968a41.301333 41.301333 0 0 0-9.335467 18.602667l-0.375466 2.048-1.877334-0.853333a175.786667 175.786667 0 0 1-39.509333-24.405334 130.7136 130.7136 0 0 1-25.770667-28.16H151.313067a116.497067 116.497067 0 0 1-25.173334 27.630934c7.645867 0.529067 15.8208 0.802133 24.285867 0.802133h14.2336a372.258133 372.258133 0 0 0-0.8704-20.258133l-0.1024-1.706667h22.9888l-0.341333 1.877333a118.784 118.784 0 0 0-1.723734 20.087467h15.086934c8.260267 0 16.213333-0.3072 23.637333-0.887467l1.723733-0.136533v20.292267l-1.8432-0.290134a164.864 164.864 0 0 0-24.405333-1.7408h-14.216533v19.626667h36.232533c13.312 0 25.685333-0.290133 36.864-0.853333l1.672533-0.1024v19.2l-1.672533-0.1024c-12.288-0.6144-24.576-0.904533-36.864-0.8704H125.832533c-11.844267 0-23.04 0.290133-33.348266 0.8704l-1.706667 0.0512z m35.037867-4.164267h95.044267c12.936533 0 24.814933 0.273067 35.328 0.785067v-12.424534c-10.8032 0.512-22.6816 0.785067-35.328 0.785067h-39.424v-26.026667h17.425066c7.714133-0.034133 15.4112 0.477867 23.04 1.501867v-13.1072c-6.997333 0.512-14.4384 0.750933-22.152533 0.750933H181.418667v-1.604266c-0.0512-6.8096 0.443733-13.6192 1.467733-20.360534h-15.752533c0.512 8.123733 0.785067 14.9504 0.785066 20.360534v1.604266H150.459733c-8.311467 0-16.349867-0.256-23.9104-0.750933v12.3392c7.816533-0.512 16.4352-0.750933 25.668267-0.750933h15.684267V918.186667H125.832533c-11.537067 0-22.2208-0.256-31.8464-0.785067v12.424533c9.898667-0.512 20.5824-0.768 31.829334-0.768zM74.922667 885.0944c3.2256 4.1472 5.853867 8.738133 7.850666 13.602133a173.090133 173.090133 0 0 0 38.980267-21.981866 114.414933 114.414933 0 0 0 27.306667-29.457067l0.512-0.733867h54.545066l0.477867 0.7168a127.402667 127.402667 0 0 0 25.634133 28.16c11.298133 9.233067 23.722667 16.9984 36.9664 23.0912 1.553067-5.8368 4.266667-11.281067 8.004267-16.042666a104.8064 104.8064 0 0 1-29.696-11.4688 125.576533 125.576533 0 0 1-25.856-21.794134l-2.525867-2.679466h25.685334a267.264 267.264 0 0 1 30.071466 1.536v-12.288c-9.352533 0.512-19.7632 0.785067-30.941866 0.785066h-20.9408v-72.567466h14.7968c6.075733 0 13.6192 0.256 23.04 0.785066v-10.6496c-9.045333 0.512-16.7936 0.768-23.04 0.768h-14.7968v-1.604266c0-7.168 0.256-14.267733 0.750933-21.230934h-15.0016c0.477867 6.621867 0.733867 13.755733 0.733867 21.230934v1.604266h-66.56v-1.604266c0-7.168 0.256-14.267733 0.750933-21.230934h-15.0016c0.512 6.621867 0.733867 13.755733 0.733867 21.230934v1.604266h-7.7312c-9.454933 0-18.8928-0.256-28.330667-0.768v10.6496c9.728-0.512 21.2992-0.785067 34.474667-0.785066h1.604266v72.584533H108.219733a553.130667 553.130667 0 0 1-30.0544-0.802133v12.3392A291.498667 291.498667 0 0 1 108.202667 846.506667h25.821866l-1.5872 2.4576a73.079467 73.079467 0 0 1-26.5216 22.954666 136.328533 136.328533 0 0 1-30.993066 13.141334H74.922667z m132.539733-48.5376h-66.56v-18.141867h66.56v18.141867z m-63.351467-3.208533h60.177067v-11.7248H144.145067v11.7248h-0.034134z m63.368534-24.900267h-66.56v-15.496533h66.56v15.496533z m-63.3344-3.191467h60.142933v-9.096533H144.145067v9.096533z m63.3344-23.1424h-66.56v-18.141866h66.56v18.141866z m-63.3344-3.208533h60.142933v-11.741867H144.145067v11.741867z m218.350933-25.634133c7.048533 0 14.08-0.290133 21.111467-0.8704v15.803733a159.556267 159.556267 0 0 0-21.111467-0.887467h-7.936a401.408 401.408 0 0 1-12.322133 44.8h35.191466c-0.597333 10.530133-0.887467 19.626667-0.8704 27.221334v41.301333c0 9.386667 0.290133 20.804267 0.8704 34.2528h-15.8208v-12.288h-23.7568v23.722667h-16.725333c1.160533-14.6432 1.757867-26.641067 1.774933-36.010667v-44.8c-4.3008 6.656-9.3184 12.8512-14.967466 18.432a58.231467 58.231467 0 0 0-12.322134-16.6912c6.144-4.949333 11.741867-10.564267 16.708267-16.6912 5.290667-7.3728 9.728-15.342933 13.192533-23.722667 5.3248-12.680533 9.1648-25.941333 11.434667-39.5264-9.966933 0-19.643733 0.3072-29.013333 0.887467v-15.803733c7.031467 0.580267 13.7728 0.887467 20.224 0.853333H362.496z m-0.887467 135.253333V827.050667h-23.7568v61.474133h23.7568z m50.141867-106.274133v28.9792h26.385067v-55.330134c-0.597333-9.9328-1.194667-19.012267-1.757867-27.221333h19.3536a185.122133 185.122133 0 0 0-1.757867 26.350933v56.200534h26.385067v-33.365334c0-9.3696-0.290133-16.981333-0.8704-22.8352h17.578667a233.813333 233.813333 0 0 0-0.853334 22.8352v24.576c0 9.949867 0.273067 17.851733 0.853334 23.722667H453.973333v84.309333l29.013334-0.887466v-36.010667c0-8.772267-0.273067-17.271467-0.853334-25.463467h17.578667c-0.597333 7.611733-0.887467 15.530667-0.887467 23.722667v31.607467c0 11.690667 0.3072 23.108267 0.887467 34.2528h-16.708267v-14.933334l-87.9616 3.515734c0.580267-8.192 0.853333-17.271467 0.8704-27.2384v-26.333867c0-11.127467-0.290133-19.319467-0.887466-24.576h17.6128c-0.597333 7.0144-0.887467 15.2064-0.887467 24.576v39.509333l26.385067-0.853333v-85.1968h-43.1104c0.597333-9.9328 0.887467-18.722133 0.887466-26.350933v-14.045867c0-12.288-0.290133-22.237867-0.887466-29.866667h17.6128a317.098667 317.098667 0 0 0-0.887467 26.350934z m89.668267 157.047466h-20.002134v-14.848l-88.1152 3.515734 0.136534-1.774934c0.580267-8.192 0.8704-17.339733 0.8704-27.136v-26.350933c0-10.973867-0.290133-19.182933-0.8704-24.4224l-0.2048-1.774933h21.1456l-0.1536 1.7408c-0.580267 6.826667-0.8704 15.0528-0.8704 24.456533v37.853867l23.176533-0.768v-82.0224h-43.2128l0.1024-1.706667c0.546133-8.738133 0.853333-17.476267 0.887467-26.248533v-14.045867c0-12.117333-0.3072-22.135467-0.887467-29.730133l-0.119467-1.723734h21.060267l-0.136533 1.7408c-0.580267 6.912-0.887467 15.496533-0.887467 26.197334v27.392h23.1936V755.882667c-0.597333-9.8304-1.1776-18.909867-1.757867-27.136l-0.136533-1.706667h22.9376l-0.256 1.8432c-1.194667 8.6528-1.792 17.373867-1.757867 26.112v54.613333h23.210667v-31.778133c0-9.216-0.290133-16.8448-0.887467-22.698667l-0.170666-1.7408h21.162666l-0.187733 1.792c-0.580267 5.768533-0.887467 13.192533-0.887467 22.6816v24.576c0 10.103467 0.3072 17.800533 0.887467 23.552l0.170667 1.757867h-43.281067v81.032533l25.838933-0.768v-34.4576c0-8.618667-0.3072-17.152-0.887466-25.361066l-0.119467-1.706667h21.060267l-0.136534 1.723733c-0.597333 7.850667-0.904533 15.7184-0.887466 23.586134v31.624533c0 11.810133 0.3072 23.296 0.887466 34.167467l0.085334 1.706666z m-16.810667-3.191466h13.4144a668.5696 668.5696 0 0 1-0.785067-32.648534v-31.624533c0-7.68 0.256-15.121067 0.750934-22.101333h-14.148267c0.512 7.7312 0.750933 15.752533 0.750933 23.8592v37.563733l-32.256 0.989867v-87.552h42.9568c-0.494933-5.632-0.733867-12.9024-0.733866-22.1184v-24.576c0-8.686933 0.238933-15.650133 0.733866-21.230934h-14.045866c0.512 5.6832 0.733867 12.8 0.733866 21.230934v34.9696h-29.610666v-57.8048c-0.017067-8.277333 0.494933-16.554667 1.536-24.746667h-15.803734c0.546133 7.748267 1.0752 16.264533 1.6384 25.531733v57.002667h-29.5936v-30.5664c0-9.9328 0.238933-18.056533 0.733867-24.746667h-14.114133c0.512 7.4752 0.750933 16.9472 0.750933 28.2624v14.045867a440.832 440.832 0 0 1-0.785067 24.746667h43.008v88.302933l-29.5936 0.989867v-41.181867c0-8.704 0.256-16.4352 0.733867-22.9888h-14.08c0.477867 5.341867 0.699733 13.056 0.699733 22.9888v26.368c0 9.1648-0.238933 17.749333-0.750933 25.5488l87.8592-3.515733v15.018666-0.017066z m-145.169067-8.192h-20.053333l0.1536-1.723734c1.1776-14.848 1.757867-26.606933 1.757867-35.8912V850.773333c-3.669333 5.12-7.765333 9.898667-12.219734 14.336l-1.655466 1.655467-0.955734-2.116267a56.6272 56.6272 0 0 0-11.963733-16.213333l-1.262933-1.262933 1.365333-1.1264c6.0416-4.881067 11.5712-10.3936 16.469333-16.4352a116.906667 116.906667 0 0 0 12.987734-23.381334 174.08 174.08 0 0 0 10.973866-37.239466c-8.994133 0.034133-18.005333 0.3072-26.999466 0.853333l-1.6896 0.119467v-19.268267l1.7408 0.1536c6.843733 0.580267 13.602133 0.8704 20.104533 0.8704h34.304c7.082667 0 14.1312-0.290133 20.992-0.8704l1.7408-0.1536v19.456l-1.877333-0.3072a160.256 160.256 0 0 0-20.8384-0.8704h-6.656c-3.037867 14.062933-6.843733 27.938133-11.383467 41.591467h34.6624l-0.085333 1.706666c-0.546133 9.028267-0.853333 18.090667-0.887467 27.136V880.64c0 9.557333 0.290133 21.0432 0.887467 34.167467l0.068266 1.672533h-19.114666v-12.288H339.456v23.722667z m-16.554666-3.208534h13.3632v-23.7056h26.965333v12.288h12.544a821.333333 821.333333 0 0 1-0.802133-32.648533v-41.284267c0-7.338667 0.256-15.957333 0.785066-25.6h-35.720533l0.699733-2.0992c4.949333-14.626133 9.045333-29.525333 12.288-44.612266l0.273067-1.314134h9.216c8.977067 0 15.530667 0.221867 19.5072 0.631467v-12.219733c-6.485333 0.477867-12.987733 0.733867-19.5072 0.733866h-34.304c-6.024533 0-12.288-0.256-18.6368-0.733866v12.356266c9.147733-0.512 18.295467-0.768 27.4432-0.768h1.928533l-0.341333 1.877334a182.4768 182.4768 0 0 1-11.554133 39.901866c-3.5328 8.4992-8.021333 16.554667-13.397334 24.029867-4.676267 5.802667-9.898667 11.093333-15.650133 15.8208 4.096 4.096 7.611733 8.7552 10.410667 13.824 4.9152-5.085867 9.3184-10.632533 13.141333-16.554667l2.9696-4.6592v50.312534c0 8.994133-0.546133 20.2752-1.621333 34.389333v0.034133z m40.311466-34.56h-26.965333v-64.699733h26.965333v64.699733z m-23.7568-3.191466h20.565334v-58.299734H339.456v58.299734z m231.543467-87.108267a610.218667 610.218667 0 0 0-0.887467 35.1232v53.5552a158.037333 158.037333 0 0 0 19.3536-21.077333c2.082133 6.519467 5.034667 12.714667 8.8064 18.432-7.645867 7.031467-14.677333 13.755733-21.111466 20.189866-6.485333 6.485333-12.3904 13.550933-17.595734 21.077334a56.149333 56.149333 0 0 0-13.192533-14.916267c4.983467-5.512533 7.509333-12.8 7.031467-20.206933v-77.277867c-12.322133 0-22.5792 0.290133-30.788267 0.887467v-16.6912c7.611733 0.597333 15.530667 0.887467 23.7568 0.8704h24.6272v0.034133z m12.322133-32.494933c-5.12 3.259733-9.8304 7.099733-14.08 11.4176a273.783467 273.783467 0 0 0-31.675733-36.010667 52.053333 52.053333 0 0 0 11.434667-11.4176 264.3456 264.3456 0 0 1 34.321066 35.976533v0.034134z m9.6768 57.088c9.386667 0.597333 19.933867 0.887467 31.675734 0.8704h79.172266a285.2864 285.2864 0 0 1-14.506666 34.696533c-6.7584 13.448533-15.189333 25.992533-25.088 37.3248a121.685333 121.685333 0 0 0 65.092266 19.319467 52.1216 52.1216 0 0 0-10.564266 18.432 198.365867 198.365867 0 0 1-67.7376-27.221334c-7.6288 4.693333-16.725333 9.813333-27.272534 15.36-10.922667 5.700267-22.4256 10.274133-34.304 13.602134a35.328 35.328 0 0 0-13.192533-13.1584 152.2688 152.2688 0 0 0 36.522667-11.434667 105.6768 105.6768 0 0 0 25.941333-15.786667 150.016 150.016 0 0 1-31.675733-57.105066h-14.08v-14.916267z m89.736534-8.789334c-9.984 0-15.2576-4.096-15.837867-12.288V754.176h-38.7072a105.472 105.472 0 0 1-5.717333 38.656 77.192533 77.192533 0 0 1-24.200534 28.9792 27.869867 27.869867 0 0 0-14.062933-10.5472c14.6432-9.9328 23.005867-21.367467 25.088-34.2528 1.9968-12.168533 2.730667-24.5248 2.2016-36.864h73.898667a313.685333 313.685333 0 0 0-0.887467 26.350933v23.722667c-0.682667 3.584 1.3824 7.133867 4.846933 8.328533 4.471467 0.989867 9.079467 1.28 13.636267 0.887467 5.853867-0.290133 12.5952-0.7168 20.241067-1.314133-1.194667 5.802667-1.194667 11.776 0 17.5616h-40.448l-0.0512-0.034134z m-3.515734 23.722667H624.64a83.677867 83.677867 0 0 0 27.272533 45.653333 117.248 117.248 0 0 0 27.2896-45.687466v0.034133z m-90.5728 99.396267l-0.6144-1.194667a33.911467 33.911467 0 0 0-12.629333-12.544l-3.447467-2.2016 4.0448-0.733867a150.647467 150.647467 0 0 0 36.113067-11.298133c8.704-3.754667 16.861867-8.618667 24.302933-14.455467a153.2928 153.2928 0 0 1-30.5152-55.381333h-14.523733v-18.2272l1.706667 0.1024 4.0448 0.238933-0.273067-0.477866a26.5728 26.5728 0 0 0-13.312-9.864534l-2.730667-1.1264 2.440534-1.672533c14.216533-9.6256 22.408533-20.804267 24.405333-33.1776 1.962667-12.066133 2.696533-24.32 2.167467-36.5568l-0.085334-1.672533h77.380267l-0.136533 1.7408c-0.597333 6.894933-0.887467 15.445333-0.887467 26.197333v23.722667c0 5.188267 2.082133 6.365867 3.652267 6.775466 4.317867 0.938667 8.7552 1.211733 13.141333 0.836267 6.741333-0.341333 13.4656-0.785067 20.189867-1.314133l2.116266-0.170667-0.4096 2.082133a42.496 42.496 0 0 0 0 16.930134l0.375467 1.911466h-42.427733c-13.602133 0-16.9984-7.509333-17.442134-13.7728v-47.701333H629.76a105.301333 105.301333 0 0 1-5.819733 37.649067 79.1552 79.1552 0 0 1-24.695467 29.627733l-0.136533 0.119467c7.68 0.341333 16.247467 0.546133 25.531733 0.546133h81.408l-0.699733 2.0992c-4.096 11.946667-8.977067 23.6032-14.592 34.901333a178.466133 178.466133 0 0 1-24.1152 36.2496 120.9856 120.9856 0 0 0 62.72 18.090667l3.4816 0.068267-2.321067 2.594133c-4.590933 5.205333-8.072533 11.281067-10.24 17.885867l-0.4096 1.365333-1.399467-0.290133a201.250133 201.250133 0 0 1-67.413333-26.897067c-8.704 5.2224-17.527467 10.1888-26.5216 14.8992a181.248 181.248 0 0 1-34.628267 13.7216l-1.28 0.375467z m-8.277333-14.250667c3.9936 2.747733 7.355733 6.314667 9.898667 10.427733a178.176 178.176 0 0 0 32.768-13.141333c9.216-4.795733 18.295467-9.898667 27.1872-15.291733l0.853333-0.512 0.8704 0.546133c20.138667 12.8 42.4448 21.8624 65.809067 26.709333 1.928533-5.444267 4.727467-10.530133 8.277333-15.086933a122.794667 122.794667 0 0 1-62.634667-19.456l-1.536-1.024 1.194667-1.399467a175.872 175.872 0 0 0 24.849067-36.983466c5.2224-10.496 9.796267-21.316267 13.704533-32.375467H624.64c-11.1616 0-21.265067-0.256-30.071467-0.768v11.605333h13.636267l0.3584 1.109334a148.923733 148.923733 0 0 0 31.317333 56.490666l1.143467 1.143467-1.245867 1.092267a107.434667 107.434667 0 0 1-26.333866 16.0768c-10.581333 4.846933-21.674667 8.482133-33.092267 10.820266v0.017067z m7.0656-113.5616c4.352 1.877333 8.192 4.778667 11.195733 8.482133a74.001067 74.001067 0 0 0 22.357334-27.2384 104.209067 104.209067 0 0 0 5.597866-38.024533v-1.604267h41.915734v50.756267c0.512 7.253333 5.034667 10.7008 14.2336 10.7008h38.5536a45.909333 45.909333 0 0 1-0.034134-14.216533c-6.058667 0.477867-12.1344 0.853333-18.210133 1.160533a47.991467 47.991467 0 0 1-14.148267-0.9216 8.789333 8.789333 0 0 1-6.007466-9.898667V766.464c0-9.9328 0.238933-18.056533 0.733866-24.746667h-70.468266c0.392533 11.895467-0.375467 23.790933-2.286934 35.5328-2.013867 12.561067-9.898667 23.893333-23.432533 33.672534v0.034133z m-27.921067 119.125333l-1.297066-2.048a54.784 54.784 0 0 0-12.8-14.506666l-1.4848-1.109334 1.314133-1.297066c4.676267-5.2224 7.048533-12.0832 6.570667-19.080534v-75.6736c-11.4688 0-21.248 0.3072-29.0816 0.853334l-1.706667 0.136533V797.184l1.723733 0.136533c7.406933 0.580267 15.36 0.887467 23.637334 0.887467h26.3168l-0.085334 1.6896a626.824533 626.824533 0 0 0-0.887466 35.037867v49.851733c5.973333-5.649067 11.485867-11.776 16.469333-18.312533l1.911467-2.56 0.9216 3.072c2.013867 6.382933 4.9152 12.458667 8.6016 18.039466l0.7168 1.1264-0.989867 0.904534c-7.150933 6.587733-14.165333 13.312-21.060267 20.155733a152.064 152.064 0 0 0-17.408 20.855467l-1.365333 2.013866z m-10.786133-18.005333c4.181333 3.549867 7.850667 7.68 10.871467 12.288 4.949333-6.894933 10.427733-13.3632 16.4352-19.3536 6.587733-6.587733 13.312-13.021867 20.1728-19.336533a79.189333 79.189333 0 0 1-7.304534-14.7968 163.242667 163.242667 0 0 1-17.698133 18.875733l-2.696533 2.491733v-57.2416c0-12.3392 0.273067-23.6032 0.802133-33.536h-22.9376c-7.389867 0.017067-14.779733-0.238933-22.152533-0.750933v13.243733c7.970133-0.512 17.783467-0.750933 29.184-0.750933h1.621333v78.865067c0.375467 7.202133-1.877333 14.2848-6.2976 19.968v0.034133z m103.287467-24.849067l-1.1264-0.989866A85.674667 85.674667 0 0 1 623.104 839.68l-0.443733-1.962667h58.811733l-0.733867 2.116267a119.296 119.296 0 0 1-27.648 46.2848l-1.092266 1.109333z m-25.309867-46.250666a82.2784 82.2784 0 0 0 25.156267 41.847466 115.643733 115.643733 0 0 0 25.088-41.864533H626.688z m-57.6512-59.767467l-1.092267-1.4848a275.968 275.968 0 0 0-31.488-35.805867l-1.4848-1.365333 1.6896-1.1264c4.232533-3.106133 7.953067-6.826667 11.0592-11.076267l1.024-1.28 1.262934 1.024c12.629333 10.9568 24.183467 23.0912 34.542933 36.215467l1.160533 1.416533-1.536 0.9728a79.735467 79.735467 0 0 0-13.789866 11.178667l-1.365334 1.3312z m-28.962133-38.280533c10.6496 10.3424 20.462933 21.504 29.3376 33.399466a84.138667 84.138667 0 0 1 11.502933-9.352533 267.741867 267.741867 0 0 0-31.6928-33.348267 54.869333 54.869333 0 0 1-9.147733 9.284267v0.017067z m288.682666 40.226133a308.872533 308.872533 0 0 0-22.869333-0.8704h-16.725333v32.494933h36.078933c-0.597333 7.0144-1.194667 18.7392-1.757867 35.1232l-2.645333 54.442667a15.36 15.36 0 0 1-7.031467 14.062933c-6.144 3.584-12.629333 6.519467-19.3536 8.789334a150.5792 150.5792 0 0 0-9.6768-17.578667c14.062933-1.160533 21.0944-4.6592 21.111467-10.530133l3.515733-71.133867H788.309333a238.165333 238.165333 0 0 1-27.2896 103.6288 54.442667 54.442667 0 0 0-15.8208-9.659733c20.514133-30.446933 30.190933-76.987733 29.013334-139.639467-9.386667 0-17.885867 0.290133-25.4976 0.8704v-14.9504c9.386667 0.597333 22.5792 0.887467 39.594666 0.8704 17.578667 0 31.061333-0.290133 40.448-0.8704v14.9504z m-19.3536-27.221333c-5.290667 2.935467-10.8544 5.853867-16.725333 8.789333a127.402667 127.402667 0 0 0-13.192533-28.1088c4.693333-2.338133 9.079467-4.676267 13.192533-7.031467 6.1952 8.362667 11.776 17.169067 16.725333 26.3168v0.034134z m58.0608 2.628266h49.271467c10.5472 0 21.4016-0.290133 32.546133-0.853333v14.8992c-11.144533-0.580267-21.998933-0.853333-32.546133-0.8704h-55.432533c-6.280533 13.073067-13.943467 25.429333-22.869334 36.864a35.191467 35.191467 0 0 0-16.725333-8.789333 114.500267 114.500267 0 0 0 25.975467-36.881067c6.144-11.741867 10.990933-24.098133 14.506666-36.864 6.5536 3.106133 13.312 5.7344 20.241067 7.901867-3.515733 2.9184-8.4992 11.1104-14.967467 24.576v0.017066z m-22.869333 51.8144h16.725333c-0.6144 7.6288-0.887467 13.175467-0.887466 16.6912l22.869333-7.0144c0-11.127467-0.290133-22.528-0.887467-34.2528h16.725334a511.095467 511.095467 0 0 0-0.887467 28.9792l40.448-14.933333c-0.597333 8.789333-0.887467 16.384-0.8704 22.8352l-0.8704 38.621867a22.135467 22.135467 0 0 1-7.918933 13.602133c-5.5808 3.925333-11.844267 6.741333-18.4832 8.3456a26.7776 26.7776 0 0 0-6.144-16.6912c12.322133-1.160533 18.193067-4.949333 17.6128-11.4176l0.853333-34.235733-24.610133 7.8848c0 31.624533 0.290133 52.992 0.8704 64.119466h-16.725334c0.597333-14.045867 0.887467-33.655467 0.887467-58.845866l-22.869333 7.031466v59.733334c0 7.611733 4.983467 11.434667 14.9504 11.400533h40.448c4.4032 0.187733 8.789333-0.7168 12.765866-2.628267 3.208533-1.757867 5.410133-8.192 6.6048-19.319466 4.608 4.949333 10.888533 8.072533 17.629867 8.789333-2.935467 17.578667-11.434667 26.350933-25.514667 26.350933H863.061333c-11.741867 0-17.6128-6.4512-17.595733-19.319466v-57.975467c-4.5568 1.348267-8.977067 3.106133-13.192533 5.256533l-5.290667-15.803733 18.4832-5.256533c0-6.434133-0.3072-13.755733-0.887467-21.9648v0.017066z m-83.114667 123.733334l-1.518933-1.314134a53.6064 53.6064 0 0 0-15.36-9.386666l-1.860267-0.733867 1.1264-1.655467c20.053333-29.764267 29.730133-75.895467 28.7744-137.130666-7.936 0-15.872 0.290133-23.808 0.853333l-1.706666 0.170667v-18.397867l1.706666 0.119467c9.250133 0.5632 22.152533 0.8704 39.4752 0.8704 17.8688 0 31.095467-0.290133 40.379734-0.8704l1.6896-0.119467v18.363733l-1.723734-0.119466a302.08 302.08 0 0 0-22.749866-0.8704h-15.121067v29.2864h36.215467l-0.136534 1.7408c-0.4096 4.846933-0.8192 11.912533-1.2288 21.418666l18.244267-5.205333c-0.068267-6.877867-0.341333-13.7728-0.8704-20.6336l-0.119467-1.706667h20.189867l-0.1536 1.706667c-0.392533 4.795733-0.682667 9.591467-0.853333 14.3872l19.643733-6.024533c-0.034133-10.581333-0.324267-21.674667-0.8704-32.989867l-0.1024-1.672533h20.104533l-0.085333 1.706666c-0.512 9.386667-0.8192 18.295467-0.853333 26.5728l40.618666-15.0016-0.170666 2.474667c-0.546133 7.5776-0.853333 15.1552-0.887467 22.7328l-0.8704 38.673067a23.8592 23.8592 0 0 1-8.533333 14.848 56.558933 56.558933 0 0 1-19.029334 8.6016l-2.048 0.597333v-2.1504a25.2928 25.2928 0 0 0-5.8368-15.701333l-1.774933-2.304 2.901333-0.273067c11.195733-1.024 16.64-4.317867 16.145067-9.6768l0.8192-32.170667-21.367467 6.8608c0 31.402667 0.3072 51.985067 0.887467 62.856534l0.085333 1.672533h-20.087466l0.068266-1.655467c0.580267-13.687467 0.853333-32.7168 0.887467-56.610133l-19.677867 6.0416v58.538667c0 4.1984 1.399467 9.796267 13.3632 9.796266h40.448c4.130133 0.170667 8.2432-0.648533 11.9808-2.440533 1.536-0.836267 4.317867-4.266667 5.768534-18.090667l0.3584-3.328 2.389333 2.389334c4.352 4.6592 10.24 7.594667 16.5888 8.311466l1.7408 0.1536-0.290133 1.706667c-3.072 18.363733-12.1856 27.682133-27.101867 27.682133h-64.2048c-12.578133 0-19.2-7.236267-19.2-20.923733v-55.808a79.786667 79.786667 0 0 0-10.871467 4.539733l-1.672533 0.802134-5.802667-17.373867c-0.1536 3.584-0.290133 7.458133-0.443733 11.6736l-2.645333 54.459733a16.861867 16.861867 0 0 1-7.7824 15.36 106.1888 106.1888 0 0 1-19.6608 8.925867l-1.4336 0.512-0.597334-1.399467a147.080533 147.080533 0 0 0-9.557333-17.339733l-1.365333-2.218667 2.594133-0.221866c8.96-0.750933 19.643733-2.901333 19.643733-8.942934l3.413334-69.546666H789.845333a240.554667 240.554667 0 0 1-27.392 102.8096l-0.9728 1.809066z m-13.892266-12.919467c4.6592 2.048 8.994133 4.693333 12.936533 7.8848a238.557867 238.557867 0 0 0 26.1632-101.205333l0.068267-1.536h24.337066l-0.085333 1.672533-3.515733 71.150933c0 6.434133-6.5536 10.325333-20.002134 11.810134 2.850133 4.590933 5.461333 9.3184 7.816534 14.1824 6.144-2.116267 12.049067-4.846933 17.646933-8.123734a13.7216 13.7216 0 0 0 6.280533-12.680533l2.645334-54.528c0.512-15.36 1.058133-26.333867 1.604266-33.450667h-35.925333v-35.703466h18.3296c6.997333 0 14.114133 0.256 21.265067 0.750933v-11.485867c-9.216 0.512-21.9648 0.768-38.8608 0.768-16.3328 0-28.791467-0.256-37.9904-0.768v11.485867c7.970133-0.512 15.940267-0.768 23.9104-0.750933h1.5872v1.570133c1.160533 61.5936-8.311467 108.305067-28.194134 138.922667v0.034133z m99.498666-75.178667v60.074667c0 11.912533 5.2224 17.7152 15.9744 17.7152h64.221867c12.8512 0 20.5824-7.645867 23.637333-23.364267a29.184 29.184 0 0 1-14.4896-6.843733c-1.3312 9.966933-3.584 15.530667-7.048533 17.408a28.330667 28.330667 0 0 1-13.533867 2.816h-40.448c-13.6704 0-16.554667-7.0656-16.554666-13.021867v-60.928l26.077866-8.021333v2.2016c0 23.978667-0.256 43.2128-0.802133 57.2416h13.346133c-0.512-11.451733-0.785067-31.9488-0.785066-62.5152v-1.1776l1.109333-0.341333 26.794667-8.618667-0.955734 36.522667c0.631467 6.775467-4.846933 11.093333-16.2816 12.663466 2.696533 3.9424 4.334933 8.533333 4.778667 13.277867 5.717333-1.536 11.1104-4.061867 15.957333-7.492267 3.925333-3.1744 6.536533-7.68 7.338667-12.663466l0.853333-38.3488c0-5.9392 0.221867-12.8 0.7168-20.445867l-40.311466 14.848v-2.304c0-8.465067 0.238933-17.646933 0.785066-27.374933h-13.346133c0.546133 11.2128 0.802133 22.186667 0.802133 32.648533v1.194667l-26.077866 8.021333v-2.184533c0-3.3792 0.256-8.448 0.733866-15.086934h-13.243733c0.512 7.5776 0.750933 14.421333 0.750933 20.360534v1.262933l-18.0224 5.12 4.164267 12.475733c3.805867-1.8432 7.765333-3.362133 11.8272-4.5568l2.013867-0.5632z m-8.533333-34.986666l-1.262933-1.245867a33.6896 33.6896 0 0 0-15.9744-8.379733l-2.9696-0.733867 2.321066-2.030933a113.664 113.664 0 0 0 25.565867-36.352c6.058667-11.639467 10.888533-23.876267 14.3872-36.522667l0.426667-1.979733 1.809066 0.853333c6.485333 3.072 13.175467 5.666133 20.0192 7.816533l2.884267 0.8192-2.286933 1.928534c-5.649067 6.4512-10.1888 13.806933-13.448534 21.742933h46.711467c10.666667 0 21.589333-0.290133 32.477867-0.8704l1.672533-0.1024v18.312533l-1.672533-0.085333a625.92 625.92 0 0 0-32.477867-0.8704h-54.442667a202.922667 202.922667 0 0 1-22.613333 36.3008l-1.1264 1.399467z m-13.6192-11.946667c4.898133 1.4336 9.437867 3.8912 13.312 7.202133 8.362667-11.008 15.598933-22.818133 21.6064-35.259733l0.4608-0.887467h56.405333c9.898667 0 20.309333 0.273067 30.958934 0.802134v-11.554134c-10.3936 0.512-20.7872 0.785067-30.958934 0.785067h-51.8144l1.109334-2.286933c3.549867-8.226133 8.0384-15.991467 13.397333-23.159467a161.9968 161.9968 0 0 1-16.110933-6.365867 204.629333 204.629333 0 0 1-14.199467 35.328 121.4976 121.4976 0 0 1-24.149333 35.362134v0.034133z m-33.160533-32.119467l-0.6144-1.706666a126.856533 126.856533 0 0 0-13.0048-27.7504l-1.024-1.536 1.621333-0.802134c4.7104-2.3552 9.130667-4.693333 13.1072-6.997333l1.262933-0.682667 0.853334 1.143467a221.866667 221.866667 0 0 1 16.810666 26.538667l0.750934 1.399466-1.365334 0.750934c-5.5296 3.072-11.127467 6.007467-16.776533 8.823466l-1.621333 0.8192z m-9.966934-29.696c4.8128 7.970133 8.7552 16.4352 11.776 25.2416 4.608-2.321067 9.147733-4.7104 13.653334-7.168-4.5056-8.192-9.5232-16.059733-15.018667-23.6032-3.2256 1.757867-6.724267 3.618133-10.3936 5.4784v0.0512zM532.48 337.92l-117.76-128s11.52-69.12 138.24-66.56c0 0-2.56-12.8-25.6-20.48H563.2s-38.4-65.28-168.96-10.24l-92.16 71.68s7.68 33.28-10.24 46.08c-17.92 12.8-15.36 20.48-15.36 20.48h-35.84l-20.48 25.6 61.44 66.56 25.6-25.6 5.12-35.84 35.84-20.48s17.92-11.52 35.84 15.36c17.92 26.88 97.28 117.76 97.28 117.76l-46.08 56.32s-75.52-7.68-112.64 40.96-33.28 88.32-25.6 112.64l51.2-51.2 10.24-15.36h46.08l20.48 56.32-61.44 76.8s53.76 28.16 112.64-40.96a110.1824 110.1824 0 0 0 20.48-117.76l30.72-46.08s11.52-19.2 30.72 10.24L716.8 655.36l81.92-81.92s-104.072533-98.6624-194.56-184.32l51.2-61.44s84.48 19.2 122.88-46.08 20.48-112.64 20.48-112.64l-61.44 71.68-56.32-10.24-10.24-51.2 61.44-71.68S669.44 80.64 614.4 143.36c-55.04 62.72-15.36 122.88-15.36 122.88l-66.56 71.68z" fill="#FF0000" /></svg>