<?xml version="1.0" standalone="no"?><!DOCTYPE svg PUBLIC "-//W3C//DTD SVG 1.1//EN" "http://www.w3.org/Graphics/SVG/1.1/DTD/svg11.dtd"><svg class="icon" width="1000px" height="1000.00px" viewBox="0 0 1024 1024" version="1.1" xmlns="http://www.w3.org/2000/svg"><path d="M862.958933 1024h-703.146666A159.914667 159.914667 0 0 1 0 864V160A159.914667 159.914667 0 0 1 159.812267 0h703.146666a159.914667 159.914667 0 0 1 159.812267 160v704A159.914667 159.914667 0 0 1 862.958933 1024z m127.8464-832a159.914667 159.914667 0 0 0-159.812266-159.982933H191.761067a159.914667 159.914667 0 0 0-159.7952 159.982933v640a159.914667 159.914667 0 0 0 159.7952 160h639.232a159.914667 159.914667 0 0 0 159.812266-160v-640zM169.7792 940.3392l0.187733-2.730667a469.845333 469.845333 0 0 0 0.8704-31.624533v-17.288533c-3.925333 5.393067-8.413867 10.3424-13.397333 14.779733-5.461333 4.846933-11.349333 9.216-17.578667 13.073067-6.263467 3.874133-13.0048 7.6288-20.0704 11.1616-8.379733 4.027733-17.083733 7.338667-26.043733 9.8816l-2.218667 0.6656-0.887466-2.167467a67.9936 67.9936 0 0 0-10.205867-17.032533l-2.542933-3.157334 3.9424-0.9216c12.8-3.089067 25.378133-7.048533 37.649066-11.8272 10.1888-3.925333 18.346667-8.942933 24.3712-14.933333H83.4048v-19.473067l2.7648 0.238934c6.929067 0.5632 17.544533 0.853333 31.573333 0.853333h53.026134a446.122667 446.122667 0 0 0-0.802134-12.253867l-0.017066-0.290133h-40.789334v7.082667H106.052267l0.3072-2.850134c1.109333-9.591467 1.706667-19.234133 1.757866-28.8768v-32.529066a83.3024 83.3024 0 0 1-4.8128 5.973333c-2.645333 2.935467-5.717333 6.4512-9.233066 10.5472l-1.809067 2.0992-1.9456-1.9456a73.6768 73.6768 0 0 0-12.8-10.24l-2.56-1.621333 1.9968-2.2528c4.164267-4.778667 10.973867-13.073067 20.241067-24.661334 9.3184-11.656533 16.213333-21.3504 20.5312-28.842666 3.754667-6.212267 6.792533-12.8512 9.045333-19.7632l0.9216-3.054934 2.781867 1.553067c5.290667 2.952533 11.741867 6.485333 19.387733 10.581333l3.345067 1.792-2.901334 2.440534c-3.157333 2.577067-5.973333 5.546667-8.413866 8.8064a51.029333 51.029333 0 0 0-4.232534 6.997333h52.445867c-2.4576-3.242667-4.573867-5.9904-6.3488-8.226133a60.928 60.928 0 0 0-8.482133-8.465067l-2.7136-2.269867 3.003733-1.877333c4.642133-2.901333 8.925867-6.3488 12.8-10.24l1.621333-1.621333 1.792 1.450666c3.413333 2.781867 6.6048 5.819733 9.557334 9.096534 3.310933 3.618133 6.775467 7.850667 10.308266 12.561066l1.467734 1.928534-1.877334 1.570133c-2.730667 2.218667-5.597867 4.266667-8.618666 6.075733h39.662933c8.840533 0 18.602667-0.290133 29.013333-0.887466l2.7136-0.1536v19.4048h-74.205866v9.028266h31.880533c7.1168 0 15.36-0.3072 24.576-0.887466l2.730667-0.170667v20.48l-2.730667-0.170667a406.6304 406.6304 0 0 0-24.576-0.887466h-31.880533v9.045333h33.655466c7.611733 0 16.469333-0.3072 26.350934-0.887467l2.696533-0.170666v20.462933l-2.696533-0.170667c-10.24-0.580267-18.858667-0.8704-26.368-0.8704h-33.6384v7.253334h40.721066c9.386667 0 18.8416-0.290133 28.1088-0.887467l2.7136-0.170667v20.48l-2.730666-0.170666a416.187733 416.187733 0 0 0-27.204267-0.887467h-47.786667l-0.017066 0.290133c-0.443733 6.2976-0.682667 10.052267-0.785067 12.270934h53.879467c10.5472 0 20.906667-0.290133 30.7712-0.8704l2.7136-0.170667v19.421867h-57.924267c6.434133 4.7104 13.482667 8.533333 20.9408 11.383466 9.847467 3.771733 23.7056 7.748267 41.181867 11.8272l4.215466 0.9728-2.901333 3.242667c-4.625067 4.932267-8.362667 10.6496-11.008 16.896l-0.904533 2.269867-2.321067-0.8192c-11.707733-4.096-21.435733-7.850667-28.8768-11.1104a165.512533 165.512533 0 0 1-20.650667-10.769067 101.802667 101.802667 0 0 1-15.837866-11.793067c-4.266667-3.959467-8.465067-8.004267-12.578134-12.117333h-0.785066v17.749333a242.005333 242.005333 0 0 0 1.7408 31.470934l0.392533 2.901333H169.7792z m7.253333-101.4272v-7.253333H129.143467v7.253333h47.889066z m0-25.617067v-9.0112H129.143467v9.0112h47.889066z m0-27.392v-9.0112H129.143467v9.0112h47.889066z m288.0512 153.344c-4.778667-6.912-8.823467-11.861333-12.049066-14.762666-13.312 0.580267-34.5088 1.706667-64.750934 3.4816-30.037333 1.757867-49.6128 3.805867-58.231466 6.109866l-2.218667 0.597334-0.8192-2.1504c-3.054933-7.901867-5.341867-13.653333-7.031467-17.578667l-1.1264-2.6112 2.7136-0.853333c9.0112-2.816 19.968-10.205867 32.5632-21.947734 10.581333-9.864533 18.653867-18.312533 24.064-25.173333h-20.548266c-15.633067 0-30.446933 0.3072-44.032 0.887467l-2.679467 0.1024v-20.360534l2.6624 0.119467c13.909333 0.580267 28.433067 0.887467 43.178667 0.887467h88.32c14.7456 0 29.252267-0.3072 43.178666-0.887467l2.6624-0.119467v20.360534l-2.6624-0.1024a1145.429333 1145.429333 0 0 0-46.711466-0.887467h-46.506667c2.491733 2.2016 5.1712 4.1472 8.021333 5.802667l3.4816 1.9968-3.242666 2.321066c-3.805867 2.730667-18.2272 14.762667-42.871467 35.7888 32.6656-1.024 58.077867-2.013867 77.2608-3.0208a383.744 383.744 0 0 0-19.9168-18.773333l-2.2016-1.962667 2.218667-1.911466c4.232533-3.6352 8.2944-7.424 12.2368-11.349334l1.7408-1.7408 1.809066 1.672534c8.260267 7.68 16.213333 15.189333 23.893334 22.562133 7.7312 7.458133 16.674133 16.554667 26.5728 27.0336l1.8432 1.9456-2.048 1.757867c-4.096 3.5328-9.096533 7.936-14.9504 13.2096l-2.167467 1.9456-1.655467-2.389334z m-156.330666-105.984c-6.9632-9.762133-11.434667-13.090133-13.943467-14.165333l-6.024533-2.594133 6.1952-2.184534c21.333333-7.492267 42.001067-20.104533 61.405866-37.4784 19.387733-17.373867 32.7168-33.450667 39.594667-47.786666l1.28-2.6624 2.4576 1.6384c5.717333 3.720533 11.776 6.912 18.107733 9.472l3.5328 1.4848-6.485333 6.468266c20.241067 28.023467 50.875733 49.390933 91.153067 63.573334l4.096 1.4336-3.242667 2.901333c-4.864 4.232533-8.8576 9.386667-11.776 15.121067l-1.109333 2.218666-2.2528-1.024a281.634133 281.634133 0 0 1-39.662934-21.896533v17.8688l-2.730666-0.170667a497.425067 497.425067 0 0 0-31.624534-0.8704H379.733333c-10.922667 0-20.360533 0.290133-28.0576 0.853334l-2.7648 0.221866v-16.145066a335.957333 335.957333 0 0 1-36.795733 24.439466l-2.013867 1.160534-1.348266-1.877334z m46.370133-28.552533c6.792533 0.426667 14.762667 0.631467 23.722667 0.631467h38.877866c11.912533 0 21.879467-0.238933 29.696-0.750934a198.314667 198.314667 0 0 1-45.789866-43.861333 388.881067 388.881067 0 0 1-46.506667 43.9808z m238.165333 132.693333c-1.1264-5.546667-3.959467-11.776-8.465066-18.517333l-2.645334-3.976533h4.778667c12.9024 0 18.432-0.477867 20.7872-0.853334 3.157333-0.529067 3.157333-1.877333 3.157333-2.781866v-8.925867h-46.8992c-6.331733 0-13.789867 0.290133-22.801066 0.887467l-2.730667 0.170666v-21.384533l2.730667 0.187733c8.6528 0.597333 16.3328 0.887467 22.801066 0.887467h46.8992v-8.1408h-63.6928c-7.424 0-14.779733 0.3072-21.8624 0.887467l-2.7648 0.221866v-21.469866l2.7648 0.238933c6.912 0.580267 14.267733 0.8704 21.8624 0.8704h63.6928v-7.253333h-48.674133c-6.263467 0-13.329067 0.3072-20.992 0.887466l-2.7648 0.2048v-21.435733l2.747733 0.221867c7.492267 0.580267 14.557867 0.8704 20.992 0.8704h48.6912v-6.365867h-62.0032l0.170667-2.730667c0.580267-8.840533 0.887467-16.810667 0.887467-23.688533 0-7.4752-0.290133-14.830933-0.8704-21.879467l-0.238934-2.7648h62.0544v-7.253333H550.741333c-9.1648 0-18.0224 0.290133-26.3168 0.8704l-2.730666 0.187733v-21.384533l2.730666 0.187733c8.072533 0.597333 16.64 0.887467 25.429334 0.887467h61.013333a211.6608 211.6608 0 0 0-0.853333-13.1072l-0.238934-2.798933h23.381334l-0.3584 2.884266c-0.512 4.317867-0.802133 8.669867-0.853334 13.021867h57.480534c10.001067 0 20.360533-0.290133 30.7712-0.887467l2.7136-0.1536v21.333334l-2.7136-0.170667a565.077333 565.077333 0 0 0-30.7712-0.853333h-57.514667v7.236266h63.829333l-0.238933 2.781867c-0.580267 6.894933-0.853333 14.267733-0.853333 21.8624 0 7.645867 0.273067 15.598933 0.853333 23.688533l0.2048 2.730667h-63.778133v6.365867h65.621333l-0.273067 2.816c-0.546133 5.3248-0.836267 13.277867-0.853333 23.688533 8.123733-0.0512 17.015467-0.341333 26.436267-0.8704l2.696533-0.170667v21.4528l-2.816-0.273066a308.5312 308.5312 0 0 0-26.333867-0.8704c0.034133 14.0288 0.341333 25.2928 0.8704 33.4848l0.187734 2.730666h-22.971734v-8.840533h-42.564266v14.2336c-0.682667 8.174933-3.669333 13.6192-8.874667 16.384-4.7616 2.542933-13.550933 4.6592-26.914133 6.485333l-2.389334 0.3072-0.4608-2.3552z m81.2032-54.306133v-8.1408h-42.564266v8.1408h42.564266z m0-27.392v-7.253333h-42.564266v7.253333h42.564266z m-1.757866-52.1216v-12.561067h-40.823467v12.561067h40.823467z m-61.832534 0v-12.561067h-39.936v12.561067h39.936z m155.818667 134.109867l0.170667-2.730667c0.580267-8.260267 0.887467-22.186667 0.887466-41.352533V809.984c-4.898133 7.0144-10.461867 14.5408-16.622933 22.442667l-2.491733 3.191466-1.809067-3.618133c-2.423467-5.12-6.382933-9.386667-11.332267-12.151467l-2.952533-1.655466 2.389333-2.389334a184.1152 184.1152 0 0 0 28.740267-38.365866c8.925867-15.5648 16.247467-31.965867 21.879467-48.9984l1.058133-3.1744 2.781867 1.860266c5.546667 3.908267 11.5712 7.0656 17.937066 9.4208l4.3008 1.4336-3.447466 2.935467c-2.594133 2.218667-7.936 9.6256-18.5344 32.2048v119.586133c0 18.773333 0.290133 32.9728 0.8704 42.257067l0.170666 2.730667h-24.0128z m97.194667-0.887467l0.136533-2.696533c0.597333-10.7008 0.887467-20.462933 0.887467-29.013334V861.696h-31.8976c-9.898667 0-21.435733 0.290133-35.2256 0.887467l-2.6624 0.1024v-22.135467l2.679466 0.119467c12.731733 0.580267 23.381333 0.887467 31.675734 0.887466h35.4304v-42.5984h-35.447467c-2.184533 5.393067-6.946133 15.6672-14.455467 31.249067l-1.570133 3.242667-2.56-2.56c-0.836267-0.836267-3.925333-2.935467-15.018667-7.3728l-2.935466-1.1776 1.7408-2.628267a179.2 179.2 0 0 0 15.684266-29.610667c4.625067-11.008 8.738133-25.122133 12.219734-41.9328l0.733866-3.601066 3.1232 1.962666c4.471467 2.798933 11.0592 5.358933 19.626667 7.6288l4.9152 1.314134-3.976533 3.1744c-1.348267 1.0752-4.4032 5.137067-10.24 20.1728h28.16v-15.104c0-14.472533-0.290133-24.490667-0.853334-29.764267l-0.324266-2.833067h24.302933l-0.3584 2.8672c-0.580267 4.5568-0.853333 14.267733-0.853333 28.842667v15.991467h23.927466c7.5776 0 14.626133-0.290133 20.974934-0.8704l2.781866-0.256v22.391466l-2.781866-0.238933c-6.485333-0.580267-13.550933-0.887467-20.974934-0.887467h-23.944533v42.5984h26.589867c8.8576 0 19.5072-0.290133 31.675733-0.887466l2.679467-0.119467v22.186667l-2.696534-0.170667a568.490667 568.490667 0 0 0-32.546133-0.853333h-25.7024v43.3664c0 8.840533 0.3072 18.602667 0.887467 29.013333l0.1536 2.696533h-23.978667zM563.029333 165.956267l-1.245866 3.6864s-0.221867 8.192 0 12.288c0.238933 4.113067 1.314133 9.557333-1.2288 9.8304-2.525867 0.273067 0 6.144 0 6.144h-4.9152l-1.2288 6.144-3.6864 1.245866 1.2288 4.9152 1.2288 4.9152-6.144 6.144-9.8304-1.2288-3.6864-1.2288a13.175467 13.175467 0 0 0-4.932267-2.4576c-2.525867-0.512-2.4576-6.144-2.4576-6.144h-12.288v4.9152s-2.696533 1.723733-3.6864 1.2288c-1.006933-0.512-3.6864 2.4576-3.6864 2.4576s2.525867 10.1888 1.2288 12.288c-1.314133 2.116267-2.4576 1.2288-2.4576 1.2288l-1.2288 12.288s-2.082133 0.3584-2.4576 4.932267c-0.392533 4.573867 1.911467 7.099733 2.4576 8.6016 0.529067 1.501867 0.221867 7.5776-2.4576 9.8304-2.696533 2.269867 1.2288 7.3728 1.2288 7.3728l-2.4576 1.2288-1.2288 4.932267a13.294933 13.294933 0 0 1-2.4576 3.6864 5.8368 5.8368 0 0 1-2.4576 1.2288c-0.546133 0.1024 2.4576 11.0592 2.4576 11.0592l1.2288 8.6016h-3.6864l1.2288 4.9152v8.6016c-1.877333 6.365867-4.437333 4.334933-4.932267 7.389866-0.853333 5.632-0.802133 11.588267-2.4576 17.2032-1.365333 4.693333-4.266667 14.4384-3.6864 17.2032 0.682667 3.242667-7.645867 2.474667-11.0592 2.474667-4.727467 0-2.304-5.239467-9.8304-4.932267-3.9936 0.170667-6.144 0.6144-6.144 7.68v105.4208c0 2.730667-2.218667 4.9152-4.9152 4.9152h-3.6864c-2.167467 0-1.245867 3.6864-1.245866 3.6864l-2.4576 1.2288v141.380267l-1.2288 4.9152-3.6864 1.2288-3.6864 2.4576h-8.6016l-3.6864-1.2288-2.4576-7.3728v-142.609067c0-4.488533-2.4576-3.6864-2.4576-3.6864a32.802133 32.802133 0 0 1-4.9152 0c-1.757867-0.221867-3.6864 2.4576-3.6864 2.4576l-1.2288 137.6768v7.389867s-1.297067 3.464533-2.4576 3.6864c-1.194667 0.2048-4.932267 3.6864-4.932267 3.6864l-4.9152 1.2288-13.5168-11.0592c0-6.109867-0.477867-145.066667-0.477867-145.066667h-15.496533a4.9152 4.9152 0 0 1-4.9152-4.9152v-112.9472c-2.798933 0.580267-6.144 2.5088-6.144 8.465067v74.973867a7.3728 7.3728 0 0 1-7.389867 7.389866h-7.3728a7.3728 7.3728 0 0 1-7.3728-7.389866v-97.109334c0-4.078933 3.293867-7.3728 7.3728-7.3728h124.16v-14.7456l1.2288-3.703466 2.4576-2.4576 1.2288-8.6016-1.2288-17.2032 4.9152-3.6864 1.2288-4.9152 1.2288-3.6864v-19.677867l2.4576-4.9152 3.6864-4.9152v-4.9152l3.6864-2.4576s7.458133-9.045333 8.618667-9.847467c1.143467-0.802133-1.006933-4.864-1.2288-6.144a40.9088 40.9088 0 0 1 0-6.144c0-0.955733 0.443733-1.877333 1.2288-2.4576l1.2288-4.9152-1.2288-1.2288-3.6864-4.9152a28.381867 28.381867 0 0 1-3.703467-3.6864c-0.989867-1.4336-4.9152-2.4576-4.9152-2.4576a29.3376 29.3376 0 0 0-4.9152 0c-1.143467 0.256-4.9152 1.2288-4.9152 1.2288h-3.6864l-2.4576-3.6864-4.9152-2.4576 1.2288-4.932266h2.4576v-2.4576l2.4576-3.6864 1.2288-4.9152-3.6864-8.6016v-9.8304l3.6864-1.2288-1.2288-4.9152 3.6864-2.4576 3.6864-3.703467-1.2288-7.3728c-0.068267-0.512 4.9152-4.9152 4.9152-4.9152l12.288 1.2288 9.847467-1.2288 1.2288 3.6864h12.288c2.218667-0.187733 12.288 0 12.288 0l2.4576 2.4576s7.458133 5.4272 8.618667 6.144c1.3312 1.1264 2.56 2.3552 3.6864 3.703467h9.8304c4.130133-0.0512 8.2432 0.3584 12.288 1.2288 5.290667 1.3312-1.2288 12.288-1.2288 12.288z m17.2032 454.826666l-3.6864 7.389867-2.474666 1.2288-8.6016-1.2288-2.4576-3.6864-2.4576-7.389867 1.2288-138.9056s-5.5296-5.768533-8.6016-4.9152c-3.072 0.853333-12.288 1.2288-12.288 1.2288l-1.2288-4.9152 1.2288-23.364266 2.4576-2.4576v-78.677334s-7.168-12.305067-12.288-2.4576v74.990934l1.211733 3.6864-1.2288 2.4576-3.6864 1.2288-3.6864 2.4576h-8.6016l-4.9152-2.4576-2.4576-1.2288 2.4576-4.9152V351.573333l-1.2288-2.4576-1.2288-3.6864 3.6864-2.4576 2.4576-2.4576h119.2448l6.144-8.6016 6.144-27.050666-1.2288-7.3728 3.6864-11.0592 3.6864-6.144 1.2288-15.991467 6.144-12.288 4.932267-8.6016 3.6864-13.533867 4.9152-6.144-2.4576-15.9744-6.144-13.5168-6.144-3.703466-13.533867 1.2288-4.9152-4.9152-2.4576-4.9152 6.144-3.6864v-30.72l4.9152-2.474667v-4.9152l4.9152-2.4576-1.2288-6.144 1.2288-4.9152 2.4576-1.2288s3.498667-1.672533 4.9152-1.2288c1.4336 0.443733 8.618667 2.4576 8.618667 2.4576h4.9152l4.9152 3.6864h2.4576l4.9152 6.144 8.6016 1.2288 18.432 1.2288 3.703466 2.4576 19.6608-1.2288 3.6864 11.076267 2.4576 3.6864-2.4576 4.9152v9.8304l-1.2288 13.5168-3.6864 7.3728-2.4576 6.144-1.2288 3.703466-2.4576-1.2288v6.144l2.4576 6.144-4.9152-1.2288-4.9152 2.4576h-6.144l-2.4576-2.4576h-8.6016l-4.932266-6.144h-7.3728l-2.4576 7.3728-4.9152-1.2288s-5.12 1.604267-4.9152 3.6864c0.2048 2.082133 1.2288 11.0592 1.2288 11.0592l-1.2288 4.9152-6.144 6.144-2.4576 8.618667 1.2288 11.0592 2.4576 6.144-3.6864 2.4576v9.8304l1.2288 6.144-3.6864 8.618667v3.6864l-3.6864 13.5168-3.6864 7.3728s-1.024 6.946133 0 9.847466c1.024 2.901333 0 15.9744 0 15.9744v6.144l-4.932267 11.0592s-6.331733 6.536533-9.8304 3.6864c-3.4816-2.833067-8.6016-2.4576-8.6016-2.4576s-5.9392-0.017067-6.144 11.076267c-0.221867 11.093333 0 98.338133 0 98.338133s2.6624 6.109867-2.4576 6.144c-5.12 0.034133-7.3728 1.2288-7.3728 1.2288l-3.703467 2.4576-3.6864 1.2288v138.922667s-3.874133 6.929067-3.6864 11.0592c0.2048 4.113067-3.464533 4.471467-6.144 1.2288-2.6624-3.242667-9.8304-6.144-9.8304-6.144l-1.2288-143.837867a11.690667 11.690667 0 0 0-6.144-2.4576c-3.072 0-8.6016 2.4576-8.6016 2.4576v7.3728l1.2288 134.007467z m-15.991466-302.404266l9.8304 2.474666 13.533866-1.245866 8.6016 2.474666 4.9152-6.144 6.144-7.389866 4.9152-4.9152 3.6864-7.3728v-20.906667l-4.9152-2.4576-3.6864-6.144-2.4576-4.9152h-3.6864l-3.6864-2.4576-3.6864-1.2288h-17.2032l-4.932266 2.4576-4.9152 2.4576-6.144 3.6864-3.6864 2.4576-1.2288 4.9152-4.9152 6.144-1.2288 11.076267 3.6864 9.8304 11.0592 17.2032z m-84.821334-130.304l9.8304 2.4576 2.474667 6.144h6.144l14.7456 1.245866h7.3728l8.6016 6.144 4.932267 6.144 4.9152-3.6864 4.9152-7.3728 2.4576-4.9152 2.4576-4.932266v-17.2032l3.6864-4.9152-3.6864-1.2288-6.144 1.2288-3.6864-3.6864-4.9152-4.9152-3.703467-4.9152-12.288-1.2288-13.5168 2.4576-4.9152-3.6864-2.4576-3.703467-7.389867 1.2288-4.9152 2.474667-1.2288 4.9152-2.4576 2.4576-2.4576 1.2288s2.286933 6.877867 2.4576 9.8304c0.170667 2.952533-1.2288 18.432-1.2288 18.432z m173.329067-11.0592h8.618667l1.2288 6.144 7.3728 3.6864 4.9152 2.4576s10.069333 1.979733 13.5168 2.4576c4.096 0.256 8.192 0.256 12.288 0l2.4576 4.932266s3.925333-0.085333 6.144 0c2.218667 0.068267 7.389867 0 7.389866 0s2.286933-1.723733 2.4576-3.6864c0.170667-1.979733 2.4576-11.076267 2.4576-11.076266l1.2288-3.6864V169.642667l2.4576-4.9152v-4.9152l-3.6864-4.9152h-2.4576l-4.9152-2.4576-2.4576-2.4576-6.144-3.703467-9.847466 1.2288-9.8304-1.2288h-4.9152l-6.144-3.6864-4.9152-4.9152-3.6864 1.2288-4.9152 3.6864-4.932267 3.6864 1.2288 4.932267-3.6864 13.5168-1.2288 12.288z m-255.6928 145.066666l24.576-2.474666 17.237333-13.5168 2.440534-29.508267-11.0592-13.5168-8.6016-3.6864-4.9152-1.2288h-9.8304l-7.389867 1.2288-4.9152 2.4576-3.6864 1.2288-4.9152 3.6864-3.6864 3.6864-1.2288 8.618667-2.4576 8.6016-1.2288 3.6864 2.4576 4.9152 3.6864 11.0592 2.4576 2.4576 4.9152 6.144 6.144 6.144z" fill="#EE2928" /></svg>