<?xml version="1.0" standalone="no"?><!DOCTYPE svg PUBLIC "-//W3C//DTD SVG 1.1//EN" "http://www.w3.org/Graphics/SVG/1.1/DTD/svg11.dtd"><svg class="icon" width="1000px" height="1000.00px" viewBox="0 0 1024 1024" version="1.1" xmlns="http://www.w3.org/2000/svg"><path d="M0 1024V0h1024v1024H0zM992 32H32v960h960V32z" fill="#00FF00" /><path d="M201.659733 754.141867h41.949867c9.3184 0 19.217067-0.3072 29.696-0.887467v15.906133a529.5104 529.5104 0 0 0-29.696-0.887466h-116.224a901.973333 901.973333 0 0 0-0.8704 41.540266c0 14.609067-0.853333 29.218133-2.628267 43.7248-1.706667 14.267733-4.778667 28.330667-9.1648 41.984a159.351467 159.351467 0 0 1-18.7904 38.894934c-3.413333-6.2464-9.557333-10.513067-16.605866-11.502934 6.365867-7.304533 11.656533-15.496533 15.735466-24.285866 4.778667-10.0352 8.430933-20.548267 10.922667-31.3856 2.628267-11.178667 4.215467-19.114667 4.8128-23.8592-10.24 5.290667-20.1728 11.195733-29.696 17.681066a51.643733 51.643733 0 0 0-8.738133-15.906133c5.922133-1.501867 11.656533-3.720533 17.032533-6.621867 7.850667-3.822933 15.274667-7.799467 22.289067-11.946666v-40.635734c0-13.533867-0.290133-24.149333-0.8704-31.812266h72.482133c-1.877333-8.0896-4.215467-16.042667-6.997333-23.8592a119.637333 119.637333 0 0 0 18.363733-4.420267c2.321067 8.2432 4.6592 17.664 6.997333 28.279467z m-92.637866 45.056c-4.7104 3.413333-9.096533 7.253333-13.1072 11.485866a303.0016 303.0016 0 0 0-23.6032-29.184c4.096-3.5328 7.8848-7.3728 11.3664-11.485866 8.1408 8.840533 16.5888 18.5856 25.344 29.184z m136.3456 50.363733c9.3184 0 17.749333-0.290133 25.344-0.887467v15.906134a444.125867 444.125867 0 0 0-25.344-0.8704h-37.5808a160.256 160.256 0 0 0 30.583466 31.368533 123.0848 123.0848 0 0 0 39.3216 22.528 43.861333 43.861333 0 0 0-12.2368 17.664 255.8976 255.8976 0 0 1-39.3216-28.279467 157.2352 157.2352 0 0 1-25.344-28.279466 142.097067 142.097067 0 0 1-25.344 30.498133 183.1936 183.1936 0 0 1-41.949866 27.818667 54.1696 54.1696 0 0 0-11.349334-15.889067 111.530667 111.530667 0 0 0 38.912-20.770133 84.138667 84.138667 0 0 0 27.528534-35.7888H159.709867c-6.997333 0-15.7184 0.290133-26.2144 0.887466v-15.906133c9.3184 0.597333 18.056533 0.887467 26.2144 0.8704h31.470933c1.143467-12.356267 1.723733-23.8592 1.7408-34.4576H160.580267c-3.4816 5.905067-9.028267 14.455467-16.605867 25.634133-4.096-2.935467-8.7552-6.178133-13.9776-9.728a135.918933 135.918933 0 0 0 19.6608-27.835733c5.1712-9.437867 9.403733-19.3536 12.680533-29.610667 5.597867 3.1232 11.434667 5.7856 17.476267 7.953067l-12.2368 19.456h64.682667c9.301333 0 19.2-0.290133 29.696-0.887467v15.9232c-9.898667-0.597333-19.797333-0.887467-29.696-0.887466h-23.6032c-0.597333 10.5984-1.1776 21.794133-1.7408 33.570133h38.4512z m-112.64 89.685333l-0.682667-1.536a52.8896 52.8896 0 0 0-11.025067-15.428266l-1.962666-1.962667 2.6624-0.733867a110.4384 110.4384 0 0 0 38.331733-20.48 83.712 83.712 0 0 0 26.112-32.9216h-26.453333c-6.929067 0-15.479467 0.3072-26.112 0.887467l-1.6896 0.1024V847.872l1.706666 0.119467a412.842667 412.842667 0 0 0 26.112 0.8704h30.020267c0.989867-11.178667 1.536-21.674667 1.5872-31.232H161.4848c-3.498667 5.853867-8.789333 14.011733-16.1792 24.9344l-0.9216 1.365333-1.3312-0.9728c-4.096-2.901333-8.704-6.144-13.943467-9.6768l-1.536-1.058133 1.28-1.399467a134.314667 134.314667 0 0 0 19.421867-27.4944c5.12-9.352533 9.3184-19.182933 12.561067-29.320533l0.580266-1.8944 1.706667 0.9728c5.546667 3.072 11.3152 5.700267 17.2544 7.850666l1.877333 0.682667-11.758933 18.6368h61.7472c9.437867 0 19.4048-0.290133 29.627733-0.887467l1.6896-0.085333v19.336533l-1.706666-0.119466a506.5728 506.5728 0 0 0-29.610667-0.887467h-22.084267c-0.512 9.642667-1.058133 19.7632-1.570133 30.378667h36.7616c8.413867 0.017067 16.827733-0.273067 25.224533-0.904534l1.706667-0.136533v19.3536l-1.672533-0.119467c-9.898667-0.580267-18.432-0.8704-25.258667-0.8704H210.944a165.6832 165.6832 0 0 0 28.433067 28.501334 121.8048 121.8048 0 0 0 38.8096 22.237866l2.6624 0.8704-2.082134 1.877334c-5.2736 4.625067-9.3184 10.478933-11.776 17.032533l-0.6656 1.826133-1.655466-0.989866c-14.045867-8.226133-27.306667-17.749333-39.560534-28.450134a163.771733 163.771733 0 0 1-24.2176-26.5728 145.578667 145.578667 0 0 1-24.337066 28.740267 185.770667 185.770667 0 0 1-42.308267 28.1088l-1.536 0.750933z m-7.594667-17.3056c3.6352 3.857067 6.7072 8.192 9.1136 12.9024 14.506667-7.099733 28.023467-16.110933 40.123733-26.811733a141.636267 141.636267 0 0 0 25.088-30.139733l1.28-2.133334 1.399467 2.048a156.194133 156.194133 0 0 0 25.088 27.972267 250.999467 250.999467 0 0 0 37.461333 27.136c2.338133-5.4784 5.7344-10.461867 9.984-14.626133a128.392533 128.392533 0 0 1-37.2736-21.947734 162.986667 162.986667 0 0 1-30.890666-31.709866l-1.792-2.56h40.669866c6.6048 0 14.3872 0.256 23.7568 0.785066v-12.424533c-7.901867 0.529067-15.837867 0.785067-23.7568 0.750933h-40.157866l0.085333-1.6896c0.580267-11.776 1.160533-22.9888 1.7408-33.5872l0.085333-1.536h25.088c9.216 0 18.688 0.238933 28.1088 0.785067v-12.4928a509.952 509.952 0 0 1-28.1088 0.785067H164.6592l12.7488-20.224a119.296 119.296 0 0 1-14.1312-6.434134c-3.242667 9.6768-7.338667 19.063467-12.219733 28.023467-5.12 9.6256-11.383467 18.602667-18.619734 26.760533 4.096 2.781867 7.7824 5.376 11.144534 7.765334 7.202133-10.683733 12.322133-18.602667 15.633066-24.200534l0.4608-0.768h34.816v1.604267c0 10.496-0.580267 22.135467-1.757866 34.628267l-0.136534 1.450666H159.709867c-7.799467 0-16.0768-0.256-24.6272-0.768v12.458667c9.949867-0.512 18.0224-0.768 24.6272-0.768h31.1808l-0.853334 2.184533a86.050133 86.050133 0 0 1-28.023466 36.488534 116.036267 116.036267 0 0 1-36.881067 20.309333z m-29.405867 15.6672l-1.2288-2.491733a20.701867 20.701867 0 0 0-15.5136-10.632533l-2.7136-0.580267 1.877334-2.082133c6.2464-7.202133 11.4688-15.2576 15.479466-23.927467a151.671467 151.671467 0 0 0 10.786134-31.044267c2.082133-8.823467 3.5328-15.735467 4.317866-20.548266a276.992 276.992 0 0 0-26.760533 16.0768l-1.706667 1.194666-0.682666-1.979733a50.244267 50.244267 0 0 0-8.465067-15.394133l-1.8432-2.184534 2.798933-0.4608c5.7856-1.4848 11.3664-3.652267 16.622934-6.485333 7.2704-3.5328 14.404267-7.338667 21.384533-11.4176v-25.207467l-0.1536 0.085334c-4.608 3.362133-8.925867 7.133867-12.868267 11.264l-1.3312 1.348266-1.092266-1.536a301.090133 301.090133 0 0 0-23.466667-29.013333l-1.109333-1.211733 1.2288-1.109334a105.130667 105.130667 0 0 0 11.144533-11.246933l1.1776-1.399467 1.2288 1.3312c8.6528 9.437867 17.066667 19.114667 25.207467 28.996267v-11.9808c0-13.3632-0.3072-24.029867-0.8704-31.6928l-0.136534-1.723733h72.2432c-1.792-7.338667-3.9424-14.592-6.468266-21.725867l-0.648534-1.809067 1.877334-0.324266c6.144-0.9728 12.219733-2.423467 18.1248-4.352l1.5872-0.512 0.443733 1.621333c2.491733 8.994133 4.744533 18.039467 6.741333 27.136h40.669867c9.4208 0 19.4048-0.290133 29.627733-0.887467l1.672534-0.085333v19.319467l-1.6896-0.1024c-10.496-0.580267-20.48-0.8704-29.610667-0.8704h-114.688c-0.512 12.2368-0.8192 25.668267-0.8192 39.936 0 14.677333-0.853333 29.354667-2.6112 43.9296a226.9696 226.9696 0 0 1-9.250133 42.2912 161.757867 161.757867 0 0 1-18.978134 39.2704l-1.536 2.218666z m-13.482666-15.633066c5.563733 1.365333 10.4448 4.693333 13.755733 9.3696a158.1568 158.1568 0 0 0 17.2032-36.352A223.232 223.232 0 0 0 122.299733 853.333333c1.7408-14.455467 2.628267-29.013333 2.628267-43.554133 0-14.8992 0.273067-28.893867 0.853333-41.6256l0.068267-1.536h117.76c8.704 0 18.176 0.273067 28.125867 0.802133v-12.509866a537.6 537.6 0 0 1-28.125867 0.785066h-43.229867l-0.273066-1.262933a516.573867 516.573867 0 0 0-6.536534-26.5728c-4.949333 1.536-10.001067 2.747733-15.121066 3.6352 2.542933 7.287467 4.676267 14.711467 6.417066 22.237867l0.4608 1.962666H112.469333c0.512 7.594667 0.750933 17.749333 0.750934 30.208v41.591467l-0.785067 0.4608c-6.997333 4.1472-14.5408 8.192-22.408533 11.9808a95.061333 95.061333 0 0 1-14.8992 6.178133c2.730667 3.84 4.983467 8.021333 6.656 12.424534a309.179733 309.179733 0 0 1 28.194133-16.622934l2.730667-1.4336-0.375467 3.072c-0.6144 4.846933-2.2528 12.936533-4.846933 24.029867a155.818667 155.818667 0 0 1-11.042134 31.709867 107.844267 107.844267 0 0 1-14.216533 22.698666z m-7.645867-140.356267c7.662933 8.465067 14.848 17.339733 21.504 26.589867 3.310933-3.362133 6.826667-6.485333 10.581333-9.335467a688.878933 688.878933 0 0 0-22.971733-26.4192c-2.850133 3.242667-5.888 6.314667-9.1136 9.181867z m222.327467 64.4096c11.639467-2.935467 21.845333-5.888 30.583466-8.840533v-43.298134h-6.126933c-6.997333-0.085333-13.994667 0.221867-20.992 0.887467v-15.906133c6.997333 0.682667 13.994667 0.955733 20.992 0.8704h6.126933v-20.309334c0-9.762133-0.580267-19.5072-1.757866-29.184h20.104533c-1.262933 8.482133-1.8432 17.0496-1.7408 25.617067v23.8592c6.4 0 12.8-0.290133 19.217067-0.887467v15.9232a214.545067 214.545067 0 0 0-19.217067-0.887466v37.12a296.277333 296.277333 0 0 1 19.217067-9.728c0 2.3552 0.290133 7.936 0.8704 16.776533-6.997333 2.952533-13.687467 5.905067-20.087467 8.840533v60.9792c-0.597333 12.373333-3.652267 19.456-9.181867 21.213867-7.048533 2.133333-14.1824 3.908267-21.418666 5.290667a63.726933 63.726933 0 0 0-6.997334-21.1968c5.922133 1.160533 11.9808 1.314133 17.92 0.426666 2.628267-0.8704 3.652267-4.5568 3.072-11.042133V854.016c-8.379733 3.6352-16.554667 7.765333-24.456533 12.373333a60.0576 60.0576 0 0 0-6.144-20.360533h0.017067z m161.6896-5.290667c10.478933 0 20.087467-0.3072 28.842666-0.904533v15.906133a422.826667 422.826667 0 0 0-27.989333-0.8704h-16.5888v54.784h28.8256c10.513067 0 21.009067-0.597333 31.470933-1.774933v16.7936a510.685867 510.685867 0 0 0-29.696-0.887467H400.896c-13.994667 0-24.4736 0.290133-31.453867 0.887467v-16.7936c9.557333 1.365333 19.182933 1.9456 28.842667 1.774933h27.9552v-54.784h-20.0704a163.771733 163.771733 0 0 0-26.231467 1.757867v-16.7936c6.4 0.6144 14.848 0.904533 25.344 0.887467h53.316267z m-33.211734-86.613333a139.264 139.264 0 0 0-7.867733-21.213867c5.239467-1.160533 11.946667-2.645333 20.104533-4.420266 2.321067 7.082667 4.6592 15.616 6.997334 25.634133h55.9104c-0.597333 6.485333-0.887467 13.2608-0.8704 20.309333-0.0512 6.212267 0.238933 12.407467 0.853333 18.568534h-17.4592V770.048h-93.525333v22.971733h-17.4592c0.5632-5.888 0.853333-11.776 0.853333-17.664 0-6.485333-0.273067-13.568-0.853333-21.213866h53.2992v-0.017067z m-11.3664 54.784c-5.8368 7.0656-14.574933 16.776533-26.2144 29.166933l-13.994666-12.373333a190.464 190.464 0 0 0 37.597866-43.298133c5.188267 4.283733 10.752 8.123733 16.605867 11.4688-5.085867 4.625067-9.762133 9.659733-13.994667 15.0528v-0.017067z m81.271467 15.9232c-2.9184 2.372267-7.867733 5.905067-14.848 10.5984-15.1552-21.1968-26.794667-35.037867-34.9696-41.5232 3.498667-2.3552 8.157867-5.888 13.994667-10.615467 12.8 13.073067 24.7808 26.948267 35.822933 41.540267z m-183.057067 111.479467l-0.3072-1.604267a62.293333 62.293333 0 0 0-6.775466-20.650667l-1.774934-2.884266 3.328 0.4096c4.164267 0.580267 8.328533 0.9216 12.526934 1.006933a15.616 15.616 0 0 0 4.693333-0.477867c1.757867-0.597333 2.4576-3.925333 1.962667-9.386666V856.405333c-4.778667 2.048-12.168533 5.870933-22.101334 11.400534l-2.013866 1.109333-0.341334-2.304a58.487467 58.487467 0 0 0-5.9392-19.780267l-0.989866-1.8432 1.9968-0.512a421.376 421.376 0 0 0 29.3888-8.430933V795.477333h-4.522667c-6.946133-0.068267-13.892267 0.221867-20.804267 0.887467l-1.757866 0.187733v-19.5072l1.774933 0.2048c6.912 0.682667 13.858133 0.955733 20.7872 0.887467h4.522667v-18.722133c0-9.6768-0.5632-19.3536-1.7408-28.962134l-0.2048-1.809066h23.790933l-0.3072 1.877333a159.4368 159.4368 0 0 0-1.7408 25.361067v22.237866c5.905067-0.0512 11.776-0.341333 17.493333-0.8704l1.7408-0.170666v19.456l-1.7408-0.1536a222.037333 222.037333 0 0 0-17.493333-0.853334v32.802134c7.765333-4.1472 13.3632-6.946133 17.015467-8.533334l2.218666-0.955733v2.4576c0 1.672533 0.170667 5.973333 0.8704 16.674133l0.085334 1.143467-1.0752 0.443733c-6.4 2.7136-12.782933 5.512533-19.114667 8.3968v59.938134c-0.6144 13.312-3.9936 20.736-10.274133 22.749866-7.099733 2.1504-14.301867 3.925333-21.589334 5.341867l-1.5872 0.3072z m-2.816-21.1456c2.491733 5.5296 4.3008 11.349333 5.358934 17.322666 6.621867-1.297067 13.192533-2.952533 19.6608-4.932266 4.778667-1.536 7.509333-8.192 8.055466-19.746134v-61.952l0.938667-0.426666c6.0928-2.781867 12.509867-5.632 19.080533-8.3968-0.3072-4.437333-0.546133-8.874667-0.733866-13.312-3.925333 1.826133-9.506133 4.676267-16.9472 8.704l-2.338134 1.262933v-41.4208h1.604267c5.7856 0 11.7248 0.238933 17.629867 0.733867v-12.356267c-5.853867 0.494933-11.741867 0.733867-17.629867 0.7168h-1.5872v-25.463467a169.472 169.472 0 0 1 1.467733-24.0128h-16.4352c1.024 9.147733 1.536 18.346667 1.536 27.5456v21.930667h-7.714133c-7.9872 0-14.336-0.221867-19.370667-0.682667v12.322134c5.12-0.477867 11.605333-0.7168 19.370667-0.7168h7.714133v46.08l-1.092266 0.3584c-8.277333 2.798933-17.92 5.614933-28.7232 8.379733 2.423467 5.3248 4.113067 10.9568 4.983466 16.725333 7.338667-4.232533 14.8992-8.021333 22.6816-11.349333l2.1504-0.8192v50.926933c0.256 2.56 0.989867 10.871467-4.1472 12.578134-5.12 0.938667-10.376533 0.938667-15.5136 0z m58.4192 11.264v-20.48l1.877334 0.324266a182.272 182.272 0 0 0 28.5696 1.7408h26.368v-51.541333h-18.500267a162.7648 162.7648 0 0 0-25.9584 1.757867l-1.860267 0.324266v-20.48l1.723734 0.170667c1.8432 0.170667 3.822933 0.3072 5.973333 0.426667l-14.677333-13.0048 1.4336-1.194667a189.576533 189.576533 0 0 0 37.256533-42.939733l0.955733-1.536 1.399467 1.1264c5.12 4.232533 10.5984 8.021333 16.384 11.3152l2.048 1.160533-1.774933 1.536a119.330133 119.330133 0 0 0-13.789867 14.813867c-5.7856 6.997333-14.506667 16.725333-25.941333 28.8768 4.608 0.187733 9.898667 0.290133 15.9744 0.290133h53.282133c10.5472 0 20.224-0.3072 28.7232-0.887467l1.706667-0.119466v19.3536l-1.706667-0.1024a417.3312 417.3312 0 0 0-27.8528-0.887467h-15.018667v51.575467h27.255467c10.461867 0 20.906667-0.597333 31.2832-1.774934l1.774933-0.187733v20.292267l-1.706666-0.085334a523.264 523.264 0 0 0-29.610667-0.887466H400.896c-14.1824 0-24.439467 0.290133-31.317333 0.887466l-1.706667 0.136534z m33.058134-4.232534h72.533333c8.977067 0 18.432 0.238933 28.142933 0.785067v-13.312a279.552 279.552 0 0 1-29.866666 1.570133h-30.446934v-58.0096h18.193067c9.181867 0 18.039467 0.256 26.368 0.785067v-12.458667c-9.0624 0.512-18.158933 0.785067-27.2384 0.768h-53.316267c-9.796267 0-17.595733-0.238933-23.739733-0.733866v13.141333c8.157867-1.0752 16.384-1.5872 24.6272-1.501867h21.674667v58.026667h-29.5424a198.621867 198.621867 0 0 1-27.255467-1.501867v13.141334c6.929067-0.4608 16.725333-0.699733 29.8496-0.699734h0.017067z m-24.644267-96.477866l11.434667 10.120533a626.005333 626.005333 0 0 0 25.088-27.972267c3.857067-4.8128 8.021333-9.386667 12.475733-13.687466a122.9312 122.9312 0 0 1-13.482667-9.403734 192.512 192.512 0 0 1-35.498666 40.96z m103.7824 11.912533l-0.904533-1.262933c-14.984533-20.992-26.624-34.816-34.645334-41.216l-1.723733-1.365334 1.826133-1.245866c3.413333-2.304 7.953067-5.7344 13.8752-10.513067l1.143467-0.938667 1.024 1.092267c12.868267 13.141333 24.900267 27.067733 35.9936 41.745067l0.8192 1.2288-1.143467 0.938666c-2.9696 2.389333-8.021333 5.9904-14.967466 10.683734l-1.297067 0.853333z m-31.914667-43.605333a245.674667 245.674667 0 0 1 32.699734 39.185066c5.393067-3.652267 9.540267-6.570667 12.288-8.721066a465.237333 465.237333 0 0 0-33.826134-38.997334c-3.6352 2.952533-7.338667 5.802667-11.1616 8.533334z m54.203734 0.597333H481.450667v-22.971733H391.168v22.971733h-20.855467l0.170667-1.774933c0.580267-5.8368 0.8704-11.776 0.8704-17.5104a285.8496 285.8496 0 0 0-0.853333-21.077334l-0.136534-1.7408h52.906667a143.069867 143.069867 0 0 0-7.202133-18.909866l-0.8192-1.8432 1.928533-0.426667 20.1216-4.420267 1.3824-0.290133 0.4608 1.365333c2.218667 6.7072 4.471467 14.9504 6.741333 24.5248h56.388267l-0.170667 1.757867c-0.580267 6.7072-0.8704 13.448533-0.853333 20.1728-0.0512 6.144 0.238933 12.288 0.853333 18.3808l0.238934 1.792z m-17.681067-3.2256h14.097067a232.448 232.448 0 0 1 0.034133-35.669333h-55.432533l-0.3072-1.211734a315.648 315.648 0 0 0-6.5024-24.132266l-16.7424 3.6864c2.8672 6.365867 5.239467 12.919467 7.133866 19.626666l0.546134 2.048h-53.691734c0.512 7.099733 0.750933 13.6704 0.750934 19.6096 0 5.290667-0.238933 10.683733-0.699734 16.042667h14.114134v-22.954667h96.699733v22.971734z m149.6064-62.890667a1280.989867 1280.989867 0 0 0-0.887467 46.830934h76.032a1010.005333 1010.005333 0 0 0-0.853333 48.605866c0 20.036267 0.273067 35.054933 0.853333 45.056H690.176v-13.243733h-56.797867v38.007467c0 7.0656 0.290133 20.309333 0.887467 39.765333h-20.992a346.453333 346.453333 0 0 0 1.7408-37.12v-40.6528H558.250667v13.2608h-19.234134c0.580267-8.840533 0.853333-23.8592 0.8704-45.056 0-21.8112-0.290133-38.007467-0.8704-48.605867h76.032c0-15.906133-0.290133-31.522133-0.8704-46.848h20.104534z m-19.234133 113.117867V789.504H558.250667v52.138667h56.832l-0.034134-0.017067z m75.1616 0V789.504h-56.814934v52.138667h56.832l-0.017066-0.017067z m-54.272 93.508267h-24.405334l0.170667-1.792c1.245867-12.270933 1.8432-24.593067 1.757867-36.932267v-39.048533h-53.623467v13.2608h-22.528l0.119467-1.706667c0.580267-8.840533 0.853333-23.978667 0.853333-44.970667 0-21.572267-0.290133-37.888-0.853333-48.503466l-0.1024-1.706667h76.117333a1289.250133 1289.250133 0 0 0-0.853333-45.175467l-0.068267-1.655466h23.3984l-0.068267 1.655466c-0.546133 15.547733-0.853333 30.72-0.853333 45.175467h76.117333l-0.1024 1.6896a1029.888 1029.888 0 0 0-0.8704 48.520533c0 20.3776 0.290133 35.072 0.8704 44.970667l0.119467 1.706667h-22.528v-13.243734h-53.6064v36.386134c0 7.253333 0.3072 20.992 0.8704 39.714133l0.068267 1.655467z m-20.855467-3.2256h17.544533a1652.855467 1652.855467 0 0 1-0.8192-38.144v-39.611734h60.0064v13.243734h15.940267c-0.512-9.898667-0.785067-24.149333-0.785067-43.451734 0-20.036267 0.256-35.447467 0.785067-47.0016H631.808v-1.604266c0-14.4384 0.273067-29.627733 0.8192-45.226667h-16.7936c0.546133 14.882133 0.802133 30.088533 0.802133 45.226667v1.604266H540.672c0.512 10.7008 0.785067 26.487467 0.785067 47.0016a870.229333 870.229333 0 0 1-0.768 43.451734h15.940266v-13.243734h59.989334v42.257067c0 13.2608-0.512 25.1904-1.553067 35.498667z m76.714667-88.6784H631.808v-55.364267h59.989333v55.364267z m-56.797867-3.2256h53.623467v-48.913067h-53.623467v48.913067z m-18.363733 3.2256h-59.989334v-55.364267h59.989334v55.364267z m-56.797867-3.2256h53.623467v-48.913067h-53.623467v48.913067z m221.269333-8.5504a1137.152 1137.152 0 0 1-12.2368 54.357333 137.4208 137.4208 0 0 0-20.992-5.307733 419.328 419.328 0 0 0 18.346667-81.3056c5.239467 1.194667 12.526933 2.6624 21.845333 4.437333a149.0944 149.0944 0 0 0-6.9632 27.818667z m48.930134-8.3968v76.014933a9.3184 9.3184 0 0 0 10.496 10.615467h41.079466c6.382933 0.597333 10.615467-1.024 12.663467-4.864 2.9696-8.379733 4.608-17.186133 4.8128-26.077867 5.853867 4.744533 12.731733 8.072533 20.104533 9.728-4.096 18.858667-8.192 30.208-12.2368 34.030933a18.090667 18.090667 0 0 1-14.848 4.846934h-63.829333c-10.478933 0-16.298667-6.485333-17.476267-19.456v-83.968c0-11.776-0.290133-22.664533-0.853333-32.699734h20.992a408.558933 408.558933 0 0 0-0.904533 31.829334z m43.690666-49.493334a152.405333 152.405333 0 0 0-19.217066 11.502934 335.394133 335.394133 0 0 0-27.0848-47.7184 120.832 120.832 0 0 0 15.735466-10.615467c6.382933 11.2128 16.571733 26.811733 30.5664 46.830933z m78.660267 78.660267c-6.724267 3.157333-12.9024 7.338667-18.346667 12.373333a408.746667 408.746667 0 0 0-35.84-58.333866 120.32 120.32 0 0 0 15.735467-10.615467 1671.509333 1671.509333 0 0 1 38.4512 56.576z m-58.026667 76.8512a26.112 26.112 0 0 1-2.423466-0.136533h-63.658667c-11.4176 0-17.834667-6.997333-19.063467-20.906667v-84.087467c0-11.605333-0.290133-22.562133-0.853333-32.597333l-0.119467-1.706667h24.405334l-0.136534 1.7408a418.1504 418.1504 0 0 0-0.887466 31.675734v76.014933a7.7312 7.7312 0 0 0 8.9088 8.994133h41.079466c0.938667 0.085333 1.706667 0.119467 2.4576 0.119467a8.942933 8.942933 0 0 0 8.8064-4.1472c2.850133-8.192 4.4032-16.759467 4.608-25.429333l0.256-3.0208 2.321067 1.8944c5.6832 4.590933 12.3392 7.799467 19.456 9.403733l1.536 0.375467-0.341333 1.553066c-4.1984 19.370667-8.362667 30.754133-12.6976 34.8672a19.524267 19.524267 0 0 1-13.653334 5.393067z m-82.7392-136.192c0.512 9.642667 0.785067 20.087467 0.785067 31.0784v83.968c1.0752 11.946667 6.263467 17.834667 15.872 17.834667h63.7952c0.8704 0.085333 1.570133 0.119467 2.269867 0.119466a16.1792 16.1792 0 0 0 11.502933-4.5568c3.6864-3.4816 7.543467-14.114133 11.4176-31.6416a51.268267 51.268267 0 0 1-16.878933-7.8848c-0.273067 8.1408-1.877333 16.1792-4.727467 23.790934-2.3552 4.437333-7.168 6.314667-14.216533 5.717333h-40.96a10.8544 10.8544 0 0 1-12.049067-12.2368v-76.014933c0-13.277867 0.238933-23.210667 0.733867-30.208h-17.5616l0.017066 0.034133z m-41.6256 95.0272l-1.6384-0.5632a139.264 139.264 0 0 0-20.736-5.239467l-1.877333-0.3072 0.631467-1.809066a418.986667 418.986667 0 0 0 18.295466-80.981334l0.2048-1.7408 1.706667 0.375467c5.188267 1.160533 12.322133 2.6112 21.8112 4.4032l2.048 0.392533-0.938667 1.928534a137.472 137.472 0 0 0-6.877866 27.426133 1114.350933 1114.350933 0 0 1-12.2368 54.4256l-0.392534 1.6896z m-19.985066-8.6528a139.264 139.264 0 0 1 17.7152 4.5056c4.983467-20.309333 8.977067-37.9904 11.810133-52.599467 1.4848-8.9088 3.584-17.698133 6.314667-26.3168a669.320533 669.320533 0 0 1-18.261334-3.669333 422.6048 422.6048 0 0 1-17.578666 78.062933v0.017067z m183.569066-12.049067l-0.955733-1.8432a409.275733 409.275733 0 0 0-35.6864-58.094933l-1.143467-1.4848 1.6384-0.9216c5.444267-3.072 10.632533-6.5536 15.530667-10.461867l1.297067-1.024 0.9728 1.365334a1669.700267 1669.700267 0 0 1 38.5024 56.6272l1.024 1.570133-1.706667 0.768a70.485333 70.485333 0 0 0-17.92 12.117333l-1.536 1.365334z m-32.989866-60.416a413.7472 413.7472 0 0 1 33.911466 55.261867 73.728 73.728 0 0 1 15.530667-10.461867 1663.1808 1663.1808 0 0 0-36.420267-53.589333 125.917867 125.917867 0 0 1-13.021866 8.7552v0.034133z m-46.711467-19.285333l-0.802133-1.706667c-7.68-16.5376-16.6912-32.426667-26.965334-47.479466l-1.024-1.4848 1.570134-0.887467c5.444267-3.072 10.632533-6.570667 15.530666-10.461867l1.450667-1.1264 0.9216 1.604267c6.263467 10.990933 16.5376 26.709333 30.498133 46.711467l1.0752 1.536-1.655466 0.853333c-6.621867 3.310933-12.970667 7.099733-19.029334 11.349333l-1.570133 1.092267z m-24.132267-49.6128a342.3744 342.3744 0 0 1 25.3952 44.8 155.648 155.648 0 0 1 16.213334-9.693867c-12.987733-18.670933-22.408533-33.041067-28.672-43.844266a120.149333 120.149333 0 0 1-12.936534 8.704v0.034133zM811.52 291.84c-49.493333 0-89.6 60.757333-89.6 135.68 0 74.922667 40.106667 135.68 89.6 135.68 36.4032 0 67.669333-32.938667 81.698133-80.128l60.3648 10.922667C932.352 570.146133 875.605333 624.64 808.96 624.64c-84.821333 0-153.6-88.251733-153.6-197.12 0-108.868267 68.778667-197.12 153.6-197.12 61.9008 0 115.2 47.018667 139.537067 114.705067l-59.323734 14.933333c-15.4624-40.721067-44.407467-68.1984-77.653333-68.1984zM368.64 614.4V235.52h153.7024a212.206933 212.206933 0 0 1 21.162667 378.88H368.64z m141.3632-317.44H435.2v261.12h74.8032c43.6736-23.944533 73.6768-73.386667 73.6768-130.56 0-57.173333-30.0032-106.615467-73.6768-130.56zM222.72 563.2c36.4032 0 67.669333-32.938667 81.698133-80.128l60.3648 10.922667C343.552 570.146133 286.805333 624.64 220.16 624.64c-84.821333 0-153.6-88.251733-153.6-197.12 0-108.868267 68.778667-197.12 153.6-197.12 61.9008 0 115.2 47.018667 139.537067 114.705067l-59.323734 14.933333c-15.4624-40.721067-44.407467-68.1984-77.653333-68.1984-49.493333 0-89.6 60.757333-89.6 135.68 0 74.922667 40.106667 135.68 89.6 135.68z" fill="#00FF00" /></svg>