<?xml version="1.0" standalone="no"?><!DOCTYPE svg PUBLIC "-//W3C//DTD SVG 1.1//EN" "http://www.w3.org/Graphics/SVG/1.1/DTD/svg11.dtd"><svg class="icon" width="1000px" height="1000.00px" viewBox="0 0 1024 1024" version="1.1" xmlns="http://www.w3.org/2000/svg"><path d="M864 1024H160A160 160 0 0 1 0 864V160A160 160 0 0 1 160 0h704A160 160 0 0 1 1024 160v704A160 160 0 0 1 864 1024z m128-832a160 160 0 0 0-160-160h-640a160 160 0 0 0-160 160v640a160 160 0 0 0 160 160h640a160 160 0 0 0 160-160v-640z" fill="#FF0000" /><path d="M158.071467 904.6528a59.050667 59.050667 0 0 0-12.288 9.728h27.170133v-51.3024H143.189333c-8.192 0-19.592533 0.290133-34.184533 0.8704v-16.810667c14.609067 0.597333 25.7024 0.904533 33.314133 0.887467h30.6688v-27.426133c-19.285333 0-34.474667 0.290133-45.568 0.887466v-14.165333c-10.922667 8.106667-22.357333 15.479467-34.218666 22.1184a78.336 78.336 0 0 0-13.141334-15.035733 150.698667 150.698667 0 0 0 34.184534-18.5856 216.064 216.064 0 0 0 34.184533-30.5152 177.322667 177.322667 0 0 0 27.170133-38.485334c5.853867 3.754667 12.032 6.997333 18.432 9.728l-5.256533 5.341867c6.417067 7.082667 14.301867 15.035733 23.671467 23.893333a149.128533 149.128533 0 0 0 33.3312 23.415467c12.8512 6.792533 26.368 12.288 40.328533 16.384a56.490667 56.490667 0 0 0-11.400533 16.810667 267.844267 267.844267 0 0 1-35.9424-15.9232v15.035733a602.6752 602.6752 0 0 0-28.0576-0.887467h-21.060267v27.426134h30.685867c9.9328 0 22.186667-0.290133 36.8128-0.887467v16.810667a906.410667 906.410667 0 0 0-36.8128-0.8704h-30.685867v51.3024h16.657067c13.431467-23.586133 20.736-39.509333 21.9136-47.786667 6.144 4.0448 12.5952 7.594667 19.285333 10.632533-4.096 5.290667-11.9808 17.698133-23.6544 37.154134 18.090667 0 35.6352-0.290133 52.5824-0.887467v16.7936a1199.2064 1199.2064 0 0 0-41.198933-0.887467H130.901333c-12.288 0-24.2688 0.290133-35.9424 0.887467v-16.810667c12.288 0.580267 24.2688 0.887467 35.9424 0.887467h10.513067a191.488 191.488 0 0 0-21.9136-35.396267c4.881067-3.242667 9.557333-6.792533 14.0288-10.615466 9.335467 13.0048 17.527467 25.088 24.541867 36.283733z m-3.498667-99.089067h52.599467a422.9632 422.9632 0 0 1 28.040533-0.887466 278.340267 278.340267 0 0 1-30.225067-25.207467 248.558933 248.558933 0 0 1-24.9856-26.9824c-7.0656 9.557333-14.830933 18.5856-23.2448 26.965333A514.747733 514.747733 0 0 1 130.048 804.693333c8.7552 0.597333 16.930133 0.904533 24.541867 0.887467z m-61.218133 126.464v-20.206933l1.6896 0.085333c12.288 0.580267 24.354133 0.887467 35.84 0.887467h8.021333a203.776 203.776 0 0 0-20.701867-32.8192l-1.024-1.365333 1.416534-0.938667c4.829867-3.2256 9.454933-6.724267 13.858133-10.513067l1.3312-1.1264 1.024 1.416534a700.586667 700.586667 0 0 1 24.610133 36.352l0.887467 1.4336-1.450667 0.853333c-3.242667 1.8944-6.280533 4.1472-9.045333 6.690133h21.5552v-48.0768H143.172267c-8.106667 0-19.268267 0.290133-34.133334 0.8704l-1.655466 0.085334v-20.189867l1.655466 0.085333c14.267733 0.580267 25.463467 0.8704 33.262934 0.8704h29.0816v-24.200533c-18.346667 0-33.109333 0.324267-43.912534 0.887467l-1.672533 0.1024v-12.663467c-10.222933 7.355733-20.8384 14.148267-31.812267 20.309333l-1.28 0.750934-0.836266-1.245867a77.653333 77.653333 0 0 0-12.885334-14.7456l-1.9968-1.774933 2.525867-0.938667a150.0672 150.0672 0 0 0 33.792-18.3808c12.3392-8.874667 23.722667-19.029333 33.928533-30.3104a176.0768 176.0768 0 0 0 26.914134-38.109867l1.024-1.979733 1.536 1.570133c5.700267 3.669333 11.707733 6.8096 17.9712 9.386667l2.048 1.024-5.751467 5.7856c6.178133 6.741333 13.755733 14.370133 22.528 22.664533a148.599467 148.599467 0 0 0 32.938667 23.176534c12.8 6.741333 26.197333 12.1856 40.055466 16.264533l2.594134 0.750933-1.911467 1.9456a55.415467 55.415467 0 0 0-11.076267 16.315734l-0.580266 1.365333-1.399467-0.477867a267.776 267.776 0 0 1-33.792-14.813866v14.097066l-1.672533-0.1024a593.3056 593.3056 0 0 0-27.989334-0.8704h-19.456v24.200534h29.098667c10.103467 0 22.4768-0.3072 36.7616-0.887467l1.655467-0.085333v20.189866l-1.655467-0.068266a1005.789867 1005.789867 0 0 0-28.757333-0.836267l0.785066 0.512c6.075733 3.9936 12.4416 7.509333 19.063467 10.496l1.826133 0.853333-1.2288 1.621334c-3.874133 5.000533-11.3152 16.605867-22.101333 34.525866 16.896 0 33.604267-0.3072 49.664-0.853333l1.672533-0.085333v20.1728l-1.672533-0.068267a1217.877333 1217.877333 0 0 0-41.130667-0.887467H130.901333c-12.3904 0-24.4736 0.3072-35.84 0.887467l-1.706666 0.136533z m37.546666-4.1984h104.311467c10.410667 0 23.722667 0.273067 39.594667 0.8192v-13.4656c-16.520533 0.5632-33.672533 0.836267-50.9952 0.836267h-2.850134l1.4848-2.4576c10.5984-17.681067 18.176-29.678933 22.562134-35.703467a148.309333 148.309333 0 0 1-15.684267-8.567466c-2.082133 8.96-9.181867 24.029867-21.640533 45.909333l-0.477867 0.8192h-19.165867v-54.562133h32.256c9.949867 0 21.794133 0.273067 35.208534 0.802133v-13.431467c-13.6192 0.512-25.463467 0.8192-35.208534 0.8192h-32.256v-30.651733h22.6304c6.656 0 15.325867 0.256 26.453334 0.785067v-13.482667h-1.911467c-9.762133 0-19.165867 0.290133-27.938133 0.8704H154.5728a370.346667 370.346667 0 0 1-24.661333-0.8704l-0.9216-0.068267v13.550934a991.402667 991.402667 0 0 1 43.9808-0.785067h1.621333v30.651733H142.336c-7.5264 0-18.193067-0.273067-31.709867-0.8192v13.448534c14.062933-0.546133 24.746667-0.8192 32.597334-0.8192h31.368533v54.545066H130.9184c-11.042133 0-22.5792-0.273067-34.338133-0.8192v13.4144c11.434667-0.529067 22.869333-0.802133 34.304-0.785066h0.017066z m-9.1136-48.418133c8.2432 10.666667 15.3088 22.186667 21.111467 34.338133l0.392533 0.904534 1.3824-1.399467c3.362133-3.447467 7.099733-6.519467 11.1616-9.130667-6.468267-10.24-14.062933-21.4528-22.596266-33.3824-3.669333 3.072-7.509333 5.956267-11.451734 8.6528z m69.461334 33.3824h14.114133c12.970667-22.869333 20.138667-38.485333 21.265067-46.421333l0.221866-1.6384a483.157333 483.157333 0 0 0-6.536533-0.034134h-29.0816v48.093867z m-108.1856-97.792c3.959467 3.720533 7.509333 7.850667 10.632533 12.288a316.330667 316.330667 0 0 0 32.7168-21.265067l-0.375467-0.017066 2.952534-2.56a517.239467 517.239467 0 0 0 26.641066-25.1392c8.362667-8.3456 16.042667-17.3056 23.04-26.794667l1.262934-1.723733 1.314133 1.672533c7.594667 9.540267 15.889067 18.4832 24.814933 26.794667 9.4208 9.045333 19.456 17.442133 30.071467 25.088l0.989867 0.682666v-0.256l2.338133 1.2288c11.093333 5.922133 22.562133 11.0592 34.3552 15.36 2.389333-5.085867 5.5296-9.813333 9.2672-13.994666a220.040533 220.040533 0 0 1-38.109867-15.735467 152.064 152.064 0 0 1-33.655466-23.688533 443.904 443.904 0 0 1-23.7568-23.995734l-1.024-1.1264 4.727466-4.778666c-8.96-4.334933-13.1072-6.5536-15.104-7.816534-7.236267 13.482667-16.162133 25.9584-26.555733 37.188267a219.050667 219.050667 0 0 1-34.440533 30.72 157.5936 157.5936 0 0 1-32.1024 17.8688z m50.961066-11.690667c7.133867 0.426667 14.0288 0.648533 20.548267 0.648534h52.599467c7.253333-0.512 15.035733-0.802133 23.108266-0.8704a287.112533 287.112533 0 0 1-26.402133-22.459734 259.6864 259.6864 0 0 1-23.842133-25.4976c-6.775467 8.994133-14.165333 17.5104-22.152534 25.463467-7.714133 7.8336-15.6672 15.4112-23.8592 22.7328v-0.034133z m353.655467-42.871466c0 6.485333 0.290133 12.970667 0.887467 19.456h-142.0288c0 16.5376-0.136533 31.419733-0.426667 44.680533a290.2016 290.2016 0 0 1-3.072 37.154133c-1.672533 11.093333-4.1472 22.033067-7.458133 32.750934a213.230933 213.230933 0 0 1-14.455467 34.048 120.644267 120.644267 0 0 0-17.5104-7.953067 163.4816 163.4816 0 0 0 20.599467-46.882133 219.818667 219.818667 0 0 0 6.144-49.1008c0.290133-17.408 0.426667-31.419733 0.443733-42.0352 0-10.5984-0.290133-26.231467-0.8704-46.882134h158.6688a375.313067 375.313067 0 0 0-0.9216 24.763734z m-15.7696 7.082666v-17.698133h-125.371733v17.698133h125.354666z m-42.9568 38.058667v12.373333h54.340267c-0.597333 6.485333-0.887467 12.970667-0.8704 19.456 0 6.485333 0.3072 12.970667 0.8704 19.456h-54.340267v11.502934h71.8848a398.813867 398.813867 0 0 0-0.887467 25.6512v23.893333a14.1312 14.1312 0 0 1-5.700266 11.0592 85.845333 85.845333 0 0 1-24.098134 6.656 47.4112 47.4112 0 0 0-7.8848-17.698133c7.594667 0 13.312-0.170667 17.1008-0.443734 3.771733-0.273067 5.393067-3.413333 4.8128-9.284266v-27.4432h-55.227733v15.940266c8.7552-0.597333 15.7696-1.194667 21.026133-1.774933-1.399467-2.389333-2.8672-4.744533-4.369066-7.082667 4.420267-1.3312 8.584533-3.413333 12.288-6.1952 6.417067 9.454933 11.963733 18.312533 16.657066 26.555734-4.096 1.757867-8.772267 4.130133-14.0288 7.0656a125.559467 125.559467 0 0 0-4.386133-7.953067c-5.256533 0-14.609067 0.733867-28.040533 2.218667a837.12 837.12 0 0 0-42.0864 5.7344 51.490133 51.490133 0 0 0-5.256534-15.9232c11.127467 0.1024 22.254933-0.494933 33.314134-1.757867v-16.827733h-42.103467v51.319466h-15.786667c0.580267-8.260267 0.8704-18.5856 0.887467-30.958933 0-12.373333-0.290133-23.296-0.887467-32.733867h57.856v-11.502933h-49.083733a216.951467 216.951467 0 0 0 0-38.912h49.083733v-11.52c-21.623467 1.194667-38.570667 2.065067-50.8416 2.645333a48.4352 48.4352 0 0 0-6.144-15.035733c21.623467 0 43.093333-0.597333 64.426667-1.774933a495.3088 495.3088 0 0 0 57.412267-6.1952c2.952533 5.956267 6.485333 11.588267 10.530133 16.810666-25.7024 1.194667-45.8752 2.082133-60.4672 2.6624z m-14.8992 38.912V829.44h-34.2016v15.035733h34.2016z m54.340267 0V829.44h-39.424v15.035733h39.424z m0.494933 92.996267l-0.290133-1.536a45.806933 45.806933 0 0 0-7.645867-17.083734l-0.989867-1.450666-0.136533 0.085333-0.648533-1.194667h0.0512l-0.170667-0.3072a104.413867 104.413867 0 0 0-3.84-7.0656c-5.290667 0.085333-14.353067 0.802133-26.965333 2.218667a844.629333 844.629333 0 0 0-41.984 5.717333l-1.621334 0.273067-0.221866-1.655467a49.834667 49.834667 0 0 0-5.12-15.4112l-1.160534-2.338133h2.56c10.5984 0.085333 21.1968-0.4608 31.726934-1.5872v-13.7728h-38.8608v51.319467h-19.114667l0.136533-1.706667c0.580267-8.277333 0.8704-18.653867 0.8704-30.8736 0-12.202667-0.290133-23.176533-0.8704-32.631467l-0.119466-1.706666h57.975466v-8.277334h-49.237333l0.1536-1.7408c0.580267-7.0656 0.8704-13.568 0.8704-19.336533 0-6.3488-0.290133-12.8512-0.8704-19.336533l-0.170667-1.7408h49.2544v-8.192c-20.821333 1.1264-37.205333 1.979733-49.152 2.56l-1.365333 0.068266-0.290133-1.3312a46.967467 46.967467 0 0 0-5.922134-14.5408l-1.536-2.474666h2.8672a1170.261333 1170.261333 0 0 0 64.341334-1.757867 496.861867 496.861867 0 0 0 57.258666-6.178133l1.160534-0.2048 0.512 1.0752c2.901333 5.853867 6.3488 11.383467 10.359466 16.554666l1.8944 2.4576-3.072 0.136534a9172.138667 9172.138667 0 0 1-58.965333 2.594133v9.216h54.510933l-0.170666 1.7408a212.224 212.224 0 0 0 0 38.656l0.170666 1.757867h-54.510933v8.260266h72.004267l-0.119467 1.706667c-0.546133 8.533333-0.853333 17.0496-0.8704 25.565867v23.893333a15.8208 15.8208 0 0 1-6.434133 12.424533 85.504 85.504 0 0 1-24.695467 6.8608l-1.536 0.290134z m-3.6352-17.937067c2.781867 4.369067 4.864 9.1648 6.144 14.199467 7.594667-0.9728 15.018667-3.054933 22.016-6.144a12.475733 12.475733 0 0 0 4.949333-9.8816v-23.688534c0-7.338667 0.256-15.428267 0.768-24.064H427.349333v-14.728533h54.203734a218.2144 218.2144 0 0 1 0-35.703467H427.349333v-15.547733l1.536-0.068267a11457.877333 11457.877333 0 0 0 57.4464-2.5088 100.061867 100.061867 0 0 1-8.2944-13.533866c-18.688 3.054933-37.546667 5.051733-56.439466 6.007466-20.2752 1.109333-41.0112 1.706667-61.7472 1.757867 2.048 3.720533 3.584 7.68 4.608 11.776 12.151467-0.580267 28.654933-1.450667 49.493333-2.594133l1.706667-0.085334v14.813867h-48.9472a221.3888 221.3888 0 0 1-0.017067 35.703467h48.9472v14.728533H357.888c0.512 9.130667 0.768 19.592533 0.768 31.1296 0 11.434667-0.256 21.2992-0.750933 29.354667h12.458666v-51.319467h45.277867v19.848533l-1.399467 0.170667a269.994667 269.994667 0 0 1-30.976 1.774933c1.877333 3.976533 3.242667 8.157867 4.078934 12.458667a819.8144 819.8144 0 0 1 40.567466-5.495467c13.653333-1.4848 22.8864-2.218667 28.2112-2.218666h0.904534l0.477866 0.785066c1.4336 2.423467 2.645333 4.608 3.6864 6.587734a160.256 160.256 0 0 1 11.0592-5.632c-4.642133-8.004267-9.557333-15.8208-14.7456-23.483734a41.642667 41.642667 0 0 1-9.437866 4.744534c0.955733 1.4848 2.048 3.293867 3.293866 5.376l1.297067 2.167466-2.474667 0.290134c-7.031467 0.733867-14.062933 1.3312-21.111466 1.757866l-1.706667 0.119467v-19.2512h58.4192v29.0304a11.588267 11.588267 0 0 1-1.723733 8.686933 6.365867 6.365867 0 0 1-4.573867 2.218667c-4.744533 0.3072-9.489067 0.4608-14.2336 0.4608z m-3.293867-3.2256h0.290134c7.3728 0 13.090133-0.1536 16.981333-0.443733a3.293867 3.293867 0 0 0 2.3552-1.0752 9.3184 9.3184 0 0 0 0.989867-6.434134v-25.975466h-22.254934c5.512533 8.123733 10.717867 16.469333 15.598934 25.002666l0.904533 1.5872-1.672533 0.699734a147.285333 147.285333 0 0 0-13.192534 6.621866v0.017067z m-31.402666-33.928533v12.5952c6.775467-0.477867 12.288-0.938667 16.7424-1.399467-0.9728-1.6384-1.9968-3.242667-3.0208-4.846933l-1.160534-1.757867 1.979734-0.6656c3.089067-1.006933 6.058667-2.321067 8.874666-3.925333h-23.432533z m-108.782934 48.366933l-1.4336-0.8192a120.149333 120.149333 0 0 0-17.3056-7.850667l-1.860266-0.682666 1.058133-1.706667a162.6624 162.6624 0 0 0 20.411733-46.421333c3.84-15.957333 5.888-32.3072 6.0928-48.725334 0.273067-18.193067 0.426667-31.931733 0.426667-41.984 0-10.530133-0.290133-25.838933-0.8704-46.848l-0.0512-1.655466h162.030933l-0.119466 1.706666c-0.546133 8.192-0.836267 16.4352-0.8704 24.661334 0 6.5536 0.290133 13.038933 0.8704 19.319466l0.170666 1.757867H348.16c0 15.36-0.170667 29.866667-0.443733 43.1104a292.642133 292.642133 0 0 1-3.072 37.376c-1.672533 11.1616-4.181333 22.186667-7.509334 32.9728a216.644267 216.644267 0 0 1-14.574933 34.304l-0.785067 1.4848z m-15.786666-11.008c4.949333 1.877333 9.796267 4.061867 14.455466 6.570667 5.444267-10.376533 9.984-21.1968 13.602134-32.341334 3.2768-10.632533 5.751467-21.504 7.406933-32.494933 1.809067-12.2368 2.833067-24.576 3.072-36.949333 0.290133-13.653333 0.443733-28.689067 0.443733-44.6464v-1.604267h141.824a205.141333 205.141333 0 0 1-0.7168-17.851733c0-6.792533 0.256-14.557867 0.768-23.159467h-155.306666c0.5632 20.189867 0.836267 35.003733 0.836266 45.277867 0 10.069333-0.1536 23.842133-0.443733 42.052266a222.72 222.72 0 0 1-6.178133 49.476267 164.420267 164.420267 0 0 1-19.7632 45.6704z m164.027733-73.659733h-42.666667v-18.261334h42.666667v18.261334z m-39.424-3.208534h36.2496v-11.8272h-36.3008v11.8272h0.0512z m-14.8992 3.208534h-37.376v-18.261334h37.376v18.261334z m-34.184533-3.208534h30.993066v-11.8272h-31.061333v11.8272h0.068267z m92.040533-73.728h-128.597333v-20.923733h128.546133v20.923733h0.0512z m-125.3888-3.242666h122.1632v-14.4896H348.16v14.472533z m246.4768-13.431467c7.0144 0 15.786667-0.3072 26.299733-0.887467v15.9232a458.5472 458.5472 0 0 0-26.282666-0.887466h-10.530134a334.336 334.336 0 0 1-13.141333 44.2368h40.311467a457.728 457.728 0 0 0-0.8704 27.426133v40.704c0 8.840533 0.290133 19.165867 0.8704 30.958933h-16.657067v-15.035733h-24.541867v24.763733h-17.544533c1.160533-12.3904 1.7408-22.698667 1.757867-30.958933v-52.224c-4.573867 6.485333-9.557333 12.6976-14.8992 18.5856a54.1696 54.1696 0 0 0-13.141334-15.0528 95.744 95.744 0 0 0 29.781334-38.0416c4.983467-11.383467 8.789333-23.2448 11.400533-35.3792-12.288 0-23.0912 0.290133-32.426667 0.8704v-15.872c9.335467 0.597333 17.8176 0.904533 25.429334 0.887467h34.167466l0.017067-0.017067z m0 127.402667V825.002667h-24.541867v54.869333h24.541867z m28.928 11.485866c4.266667-14.062933 6.621867-28.637867 7.0144-43.349333 0.580267-15.9232 0.733867-29.4912 0.443733-40.686933a1413.5296 1413.5296 0 0 0-2.184533-46.011734h72.7552c6.417067 0 16.64-0.290133 30.685867-0.887466v16.810666a498.2272 498.2272 0 0 0-30.685867-0.887466h-54.3744v68.130133c-0.597333 9.437867-1.314133 18.432-2.184533 26.9824a145.834667 145.834667 0 0 1-7.0144 30.071467 178.005333 178.005333 0 0 1-16.213334 34.952533 57.002667 57.002667 0 0 0-15.786666-12.373333 92.2112 92.2112 0 0 0 17.527466-32.733867h0.017067z m65.757867-138.888533a78.5408 78.5408 0 0 0-17.544534 7.0656 384.136533 384.136533 0 0 0-9.642666-27.426133c5.4272-1.5872 10.717867-3.669333 15.786666-6.1952 4.522667 8.533333 8.328533 17.408 11.383467 26.555733z m-67.242667 186.743467l-1.467733-1.672534a55.893333 55.893333 0 0 0-15.36-12.014933l-1.7408-0.9728 1.314133-1.536a80.213333 80.213333 0 0 0 8.157867-11.485867h-19.950934v-15.035733h-21.333333v24.7808h-20.906667l0.170667-1.774933c1.1776-12.561067 1.7408-22.647467 1.7408-30.8224v-47.2064c-3.805867 5.0688-7.850667 9.984-12.117333 14.677333l-1.450667 1.621333-1.109333-1.877333a52.565333 52.565333 0 0 0-12.7488-14.574933l-1.621334-1.28 1.604267-1.28a94.805333 94.805333 0 0 0 29.320533-37.376c4.625067-10.7008 8.277333-21.794133 10.922667-33.143467-11.3152 0-21.538133 0.324267-30.378667 0.8704l-1.706666 0.119467v-19.370667l1.706666 0.1024c9.096533 0.580267 17.6128 0.887467 25.326934 0.887467h34.184533c7.133867 0 15.940267-0.3072 26.197333-0.887467l1.706667-0.085333v19.3536l-1.706667-0.119467a457.130667 457.130667 0 0 0-26.197333-0.887467h-9.216a336.298667 336.298667 0 0 1-12.1344 41.028267h39.7312l-0.119467 1.706667c-0.546133 9.096533-0.853333 18.210133-0.853333 27.323733v40.704c0 8.994133 0.290133 19.387733 0.853333 30.890667l0.1024 1.6896c3.7888-6.536533 6.826667-13.482667 9.045334-20.6848a163.771733 163.771733 0 0 0 6.946133-42.922667 685.568 685.568 0 0 0 0.443733-40.584533 1452.407467 1452.407467 0 0 0-2.184533-45.960534l-0.119467-1.706666h43.042134a386.9184 386.9184 0 0 0-9.506134-26.999467l-0.6656-1.6384 1.706667-0.512a96.768 96.768 0 0 0 15.496533-6.0928l1.399467-0.682667 0.733867 1.365334c4.573867 8.6016 8.430933 17.578667 11.502933 26.794666l0.512 1.621334-1.621333 0.4608c-5.12 1.365333-10.069333 3.2768-14.813867 5.666133h26.658133c6.621867 0 16.896-0.290133 30.6176-0.887467l1.655467-0.068266v20.224l-1.6896-0.119467a492.1344 492.1344 0 0 0-30.583467-0.887467h-52.736v66.525867c-0.546133 9.045333-1.28 18.090667-2.184533 27.136a148.565333 148.565333 0 0 1-7.099733 30.4128 180.360533 180.360533 0 0 1-16.349867 35.2768l-1.1264 1.911467z m-13.550933-15.5648c4.778667 2.747733 9.181867 6.161067 13.021866 10.1376 6.0928-10.376533 11.1104-21.367467 14.984534-32.768 3.345067-9.642667 5.666133-19.626667 6.929066-29.7472 0.853333-8.362667 1.570133-17.152 2.184534-26.914134v-69.632h55.944533c10.3424 0 20.1216 0.256 29.098667 0.768v-13.397333c-12.919467 0.512-22.698667 0.802133-29.098667 0.802133h-71.0656c1.109333 18.9952 1.792 33.518933 2.065067 44.356267 0.290133 11.264 0.1536 25.002667-0.426667 40.8064a166.912 166.912 0 0 1-7.082667 43.776 95.931733 95.931733 0 0 1-16.5888 31.812267h0.034134z m-54.203734-5.5808h14.1824v-24.7808h27.7504v15.0528h13.3632a634.9312 634.9312 0 0 1-0.785066-29.354667v-40.704c0-7.936 0.256-16.605867 0.768-25.821867H568.661333l0.802134-2.167466c5.376-14.370133 9.728-29.0816 13.090133-44.032l0.273067-1.262934h11.810133c7.0656 0 15.36 0.238933 24.695467 0.785067v-12.509867c-9.591467 0.529067-17.92 0.785067-24.695467 0.785067H560.469333c-7.287467 0-15.291733-0.256-23.825066-0.768v12.475733c9.028267-0.512 19.387733-0.768 30.839466-0.768h1.928534l-0.341334 1.911467c-2.6624 12.253867-6.5024 24.200533-11.502933 35.703467a96.8704 96.8704 0 0 1-28.740267 37.4272c4.1984 3.566933 7.850667 7.7312 10.837334 12.373333 4.778667-5.358933 9.233067-10.973867 13.346133-16.8448l2.901333-4.215467v57.344a343.517867 343.517867 0 0 1-1.604266 29.354667h0.017066z m109.9264-184.900267c3.089067 7.918933 5.905067 15.940267 8.448 24.064 4.6592-2.389333 9.5232-4.352 14.5408-5.802667a172.936533 172.936533 0 0 0-10.018133-23.313066c-4.1984 1.979733-8.533333 3.669333-12.970667 5.051733z m-68.027733 148.309333H568.490667v-58.077866h27.733333v58.077866z m-24.541867-3.2256h21.3504v-51.626666h-21.3504v51.626666z m214.050134-62.088533v81.408h61.354666v-132.7104c0-10.615467-0.290133-21.230933-0.8704-31.8464h19.285334a456.055467 456.055467 0 0 0-0.8704 31.8464v132.7104h61.354666v-83.182933c0-12.970667-0.290133-23.893333-0.8704-32.733867h20.155734c-0.597333 7.082667-0.887467 18.005333-0.8704 32.733867v71.68c0 14.165333 0.290133 29.184 0.8704 45.124266h-19.285334v-18.5856H766.464c0.580267-12.970667 0.853333-25.6512 0.8704-38.0416v-57.514666c0-13.550933-0.290133-25.6512-0.8704-36.283734h20.155733c-0.597333 14.165333-0.904533 25.9584-0.887466 35.396267z m161.194666 116.616533h-22.528v-18.568533h-159.624533l0.068267-1.6896c0.580267-13.0048 0.887467-25.770667 0.887466-37.956267v-57.514666c0-13.380267-0.3072-25.5488-0.887466-36.181334l-0.085334-1.706666h23.517867l-0.068267 1.672533c-0.580267 13.824-0.8704 25.7024-0.8704 35.328v79.786667h58.1632v-131.072c0-10.4448-0.3072-21.1456-0.8704-31.744l-0.1024-1.706667h22.698667l-0.136533 1.706667a462.336 462.336 0 0 0-0.853334 31.744v131.072h58.146134V814.421333c0-12.8-0.290133-23.773867-0.853334-32.6144l-0.119466-1.723733h23.6032l-0.136534 1.757867c-0.580267 6.9632-0.887467 17.629867-0.887466 32.597333v71.68c0 14.336 0.3072 29.4912 0.887466 45.056l0.0512 1.6384z m-19.336533-3.208533h16.0256c-0.529067-14.506667-0.802133-29.013333-0.8192-43.52v-71.68c0-13.858133 0.238933-24.064 0.750933-31.1296h-16.725333a537.6 537.6 0 0 1 0.768 31.1296v84.770133h-64.5632v-134.2976c0-12.356267 0.256-22.272 0.750933-30.225066h-15.872c0.512 10.120533 0.785067 20.2752 0.785067 30.225066v134.314667h-64.5632v-82.9952c0-9.2672 0.273067-20.616533 0.802133-33.792h-16.7936c0.512 10.2912 0.785067 21.947733 0.785067 34.6624v57.514667c0 11.690667-0.273067 23.944533-0.802133 36.420266h159.470933v18.5856zM414.72 645.12c102.4-99.037867 208.213333-204.8 225.28-384 104.106667-35.84 148.48-81.92 148.48-81.92H819.2l10.24 10.24v455.68H414.72z m117.76-261.12l5.12 71.68s-5.12 13.653333-15.36 5.12c-10.24-8.533333-35.84-51.2-35.84-51.2s-6.826667-32.426667 46.08-25.6z m-51.2 117.76l-92.16 35.84 5.12-76.8 61.44-20.48s39.253333 27.306667 25.6 61.44z m97.28-117.76l-87.04-112.64-235.52 256c-68.266667 10.24-56.32-51.2-56.32-51.2l250.88-256L307.2 102.4c116.053333 1.706667 189.44 81.92 189.44 81.92 68.266667-34.133333 51.2 56.32 51.2 56.32a420.3008 420.3008 0 0 0 51.2 51.2c27.306667 22.186667-10.24 61.44-10.24 61.44l-10.24 30.72z" fill="#FF0000" /></svg>