<?xml version="1.0" standalone="no"?><!DOCTYPE svg PUBLIC "-//W3C//DTD SVG 1.1//EN" "http://www.w3.org/Graphics/SVG/1.1/DTD/svg11.dtd"><svg class="icon" width="1000px" height="1000.00px" viewBox="0 0 1024 1024" version="1.1" xmlns="http://www.w3.org/2000/svg"><path d="M0 1024V0h1024v1024H0zM992 32H32v960h960V32z" fill="#00FF00" /><path d="M177.8176 888.797867a1531.221333 1531.221333 0 0 1-36.078933-43.554134v57.770667c0 12.4416-2.645333 20.445867-7.918934 23.995733-5.290667 3.566933-14.370133 5.632-27.2896 6.229334a57.070933 57.070933 0 0 0-7.918933-22.2208c18.773333 1.774933 27.869867-1.194667 27.2896-8.891734v-39.9872c-5.290667 4.1472-11.8784 9.028267-19.797333 14.6432a157.7472 157.7472 0 0 0-20.6848 17.339734 79.3088 79.3088 0 0 0-13.2096-16.896c9.386667-3.549867 27.2896-15.104 53.691733-34.6624v-54.203734c-17.015467 0-30.805333 0.290133-41.3696 0.887467v-16.896c10.564267 0.597333 24.354133 0.904533 41.3696 0.887467 0-20.718933-0.3072-35.5328-0.887467-44.4416h18.4832c-1.536 14.762667-2.133333 29.610667-1.757866 44.4416 18.773333 0 33.143467-0.290133 43.1104-0.887467v16.896a759.125333 759.125333 0 0 0-43.1104-0.887467v33.792l8.789333 8.874667a211.626667 211.626667 0 0 0 14.967467-28.433067c5.000533 2.781867 9.728 6.058667 14.08 9.7792-6.775467 9.386667-12.936533 19.165867-18.4832 29.320534a350.293333 350.293333 0 0 1 29.917866 33.792 142.421333 142.421333 0 0 0-13.192533 13.312zM116.224 833.6896c-4.693333 2.9696-9.386667 6.229333-14.08 9.7792a288.256 288.256 0 0 0-19.3536-31.112533c4.846933-2.696533 9.557333-5.666133 14.08-8.874667 5.853867 8.2944 12.305067 18.363733 19.3536 30.208z m66.884267-73.7792c-5.307733 2.389333-10.325333 5.376-14.967467 8.891733a134.7584 134.7584 0 0 0-14.08-24.8832 124.416 124.416 0 0 1 14.08-9.7792c3.515733 5.9392 8.4992 14.523733 14.9504 25.770667z m-9.6768 63.112533a110.592 110.592 0 0 0 24.183466-39.9872c6.536533-17.954133 11.690667-36.386133 15.4112-55.125333 5.2736 1.792 12.014933 4.1472 20.241067 7.1168-3.3792 3.4816-5.802667 7.765333-7.048533 12.458667l-8.789334 27.5456h39.594667c5.870933 0 12.9024-0.3072 21.111467-0.904534v17.783467a287.453867 287.453867 0 0 0-18.466134-0.887467c-1.757867 16.008533-4.266667 32.3072-7.4752 48.896a207.8208 207.8208 0 0 1-14.523733 46.199467c4.8128 6.058667 10.257067 11.588267 16.2816 16.452267a103.936 103.936 0 0 0 27.716267 15.547733c-5.9392 4.608-10.496 10.752-13.2096 17.783467a258.56 258.56 0 0 1-25.088-19.114667c-5.563733-5.034667-11.588267-10.820267-18.0224-17.339733a134.946133 134.946133 0 0 1-45.755734 37.341866 46.165333 46.165333 0 0 0-10.581333-18.670933 102.843733 102.843733 0 0 0 46.660267-32 199.338667 199.338667 0 0 1-19.370667-60.416l-6.144 10.666667a99.669333 99.669333 0 0 0-16.725333-13.346134z m42.24 21.333334c2.594133 9.506133 6.144 18.7392 10.5472 27.5456 9.386667-20.138667 15.2576-47.104 17.6128-80.896H212.138667l-5.290667 16.0256c2.235733 12.5952 5.188267 25.053867 8.8064 37.3248z m-37.12 94.805333l-0.512-1.9456a44.544 44.544 0 0 0-10.1888-18.005333l-1.5872-1.792 2.218666-0.8192a102.536533 102.536533 0 0 0 45.312-30.685867 207.616 207.616 0 0 1-18.397866-55.3984l-4.932267 8.465067-1.467733-1.467734a98.389333 98.389333 0 0 0-15.940267-12.8c-3.515733 5.444267-6.826667 11.008-9.984 16.674134 10.410667 10.410667 20.1728 21.4528 29.184 33.0752l0.938667 1.211733-1.160534 1.006933a142.165333 142.165333 0 0 0-13.038933 13.1584l-1.194667 1.416534-1.2288-1.416534a1533.781333 1533.781333 0 0 1-33.28-40.021333v53.1968c0 13.141333-2.798933 21.435733-8.618666 25.344-5.563733 3.754667-14.762667 5.870933-28.091734 6.485333l-1.536 0.085334-0.136533-1.536a55.7056 55.7056 0 0 0-7.714133-21.5552l-1.536-2.730667 3.072 0.3072c3.447467 0.341333 6.6048 0.512 9.386666 0.512 9.540267 0 13.346133-1.979733 14.848-3.618133a5.051733 5.051733 0 0 0 1.262934-4.027734v-36.8128c-4.829867 3.720533-10.615467 7.970133-17.271467 12.6976-7.304533 5.12-14.165333 10.8544-20.48 17.134934l-1.518933 1.536-1.024-1.877334a77.892267 77.892267 0 0 0-12.936534-16.5376l-1.774933-1.774933 2.4576-0.938667c9.130667-3.447467 26.845867-14.882133 52.6336-33.962666v-51.7632c-16.093867 0.017067-29.422933 0.3072-39.662933 0.887466l-1.6896 0.085334v-20.309334l1.706666 0.085334c10.103467 0.580267 23.0912 0.853333 39.645867 0.904533 0-19.694933-0.3072-34.065067-0.8704-42.717867l-0.119467-1.723733H145.408l-0.324267 1.877333c-1.4848 14.1312-2.048 28.347733-1.723733 42.564267 18.2784 0 31.829333-0.324267 41.4208-0.904533l1.706667-0.1024v20.343466l-1.706667-0.1024a735.982933 735.982933 0 0 0-41.4208-0.887466v31.488l6.912 6.9632c5.205333-8.516267 9.796267-17.373867 13.7728-26.5216l0.7168-1.621334 1.536 0.8704c5.085867 2.850133 9.898667 6.178133 14.336 9.949867l0.4096 0.375467a122.845867 122.845867 0 0 0 15.069867-29.0304c6.5024-17.8688 11.639467-36.215467 15.36-54.869334l0.3584-1.792 1.706666 0.580267c5.290667 1.774933 12.066133 4.1472 20.2752 7.133867l2.850134 1.024-2.423467 1.809066a25.992533 25.992533 0 0 0-6.485333 11.690667l-8.106667 25.378133h37.376c6.997333-0.0512 13.994667-0.341333 20.992-0.887466l1.706667-0.136534v21.265067l-1.706667-0.119467c-7.406933-0.512-12.970667-0.8192-16.9472-0.8704a594.141867 594.141867 0 0 1-7.338667 47.5648c-2.986667 15.701333-7.765333 31.044267-14.216533 45.6704 4.608 5.649067 9.7792 10.820267 15.428267 15.4112a102.724267 102.724267 0 0 0 27.306666 15.3088l2.525867 1.024-2.116267 1.7408c-5.700267 4.437333-10.0864 10.3424-12.714666 17.066667l-0.682667 1.979733-1.723733-1.1776a262.485333 262.485333 0 0 1-25.2416-19.2512c-5.751467-5.205333-11.349333-10.581333-16.810667-16.0768a138.461867 138.461867 0 0 1-45.1584 36.3008l-1.774933 0.938667z m-6.826667-20.343467c3.925333 4.608 6.912 9.898667 8.840533 15.598934a132.7104 132.7104 0 0 0 43.485867-35.925334l1.109333-1.518933 1.3312 1.348267c5.802667 5.922133 11.810133 11.6736 17.954134 17.2544 7.406933 6.4 15.172267 12.356267 23.261866 17.834666a43.178667 43.178667 0 0 1 10.922667-14.7968 101.922133 101.922133 0 0 1-25.7024-14.7968 107.912533 107.912533 0 0 1-16.5376-16.6912l-0.597333-0.768 0.4096-0.9216c6.5536-14.677333 11.400533-30.0544 14.404266-45.841066 3.157333-16.145067 5.632-32.4096 7.458134-48.7424l0.1536-1.450667h1.450666c3.805867 0 9.352533 0.256 16.896 0.768v-14.2848c-7.3728 0.512-13.943467 0.750933-19.524266 0.750933H215.210667l0.682666-2.0992 8.8064-27.5456a39.936 39.936 0 0 1 5.632-11.264c-6.2976-2.269867-11.656533-4.130133-16.093866-5.632a374.2208 374.2208 0 0 1-15.086934 53.538134 114.346667 114.346667 0 0 1-23.210666 39.133866c4.932267 3.2768 9.557333 6.946133 13.824 11.008l7.509333-13.0048 0.6144 4.7616a198.4512 198.4512 0 0 0 19.217067 59.904l0.426666 0.904534-0.597333 0.802133a103.5264 103.5264 0 0 1-45.175467 31.675733z m-70.2464-5.922133c3.208533 5.802667 5.410133 12.117333 6.485333 18.653867a52.804267 52.804267 0 0 0 24.968534-5.870934c4.778667-3.242667 7.202133-10.8544 7.202133-22.647466v-62.395734l2.8672 3.584a1594.299733 1594.299733 0 0 0 34.816 42.103467 143.018667 143.018667 0 0 1 10.973867-11.076267 357.614933 357.614933 0 0 0-28.842667-32.426666l-0.853333-0.853334 0.580266-1.092266a283.989333 283.989333 0 0 1 17.698134-28.2624 82.8928 82.8928 0 0 0-11.1616-7.7312 210.944 210.944 0 0 1-14.336 26.999466l-1.0752 1.706667-10.666667-10.8032v-36.0448h1.604267c18.090667 0 32.034133 0.256 41.506133 0.785067v-13.448534c-9.813333 0.546133-23.432533 0.785067-41.506133 0.785067H140.117333v-1.621333c-0.273067-14.2848 0.221867-28.586667 1.501867-42.820267h-14.8992c0.512 9.1136 0.768 23.5008 0.768 42.837333v1.604267h-1.604267c-16.469333 0-29.4912-0.238933-39.765333-0.785067v13.448534c10.427733-0.512 23.773867-0.785067 39.765333-0.785067h1.5872v56.661333l-0.648533 0.512C102.4 862.0032 84.992 873.403733 75.025067 877.841067c4.061867 4.164267 7.662933 8.7552 10.752 13.687466a163.5328 163.5328 0 0 1 19.4048-16.042666c6.690133-4.7104 13.277867-9.591467 19.729066-14.626134l2.594134-2.048v43.332267a8.192 8.192 0 0 1-2.0992 6.3488c-3.549867 3.8912-11.349333 5.307733-23.927467 4.4032z m124.842667-37.376l-1.536-2.798933a151.995733 151.995733 0 0 1-10.666667-27.921067 350.1568 350.1568 0 0 1-8.8576-37.495467l-0.0512-0.392533 5.768533-17.493333h34.56l-0.119466 1.7408c-2.3552 33.826133-8.328533 61.252267-17.749334 81.4592l-1.348266 2.901333z m-17.8176-68.352c2.235733 12.3904 5.137067 24.661333 8.704 36.744533 2.3552 8.311467 5.341867 16.4352 8.925866 24.285867 9.403733-24.132267 14.7968-49.646933 15.9744-75.52h-28.808533l-4.778667 14.4896z m-106.888534 38.741333l-0.887466-1.6384a284.7232 284.7232 0 0 0-19.2512-30.9248l-1.0752-1.4848 1.5872-0.904533a143.872 143.872 0 0 0 13.943466-8.772267l1.314134-0.955733 0.9216 1.3312c5.870933 8.2944 12.407467 18.500267 19.456 30.3104l0.8192 1.3824-1.365334 0.853333c-4.778667 3.0208-9.437867 6.263467-13.943466 9.693867l-1.518934 1.1264z m-16.469333-33.006933c6.365867 9.045333 12.202667 18.449067 17.5104 28.16 3.703467-2.747733 7.509333-5.393067 11.383467-7.8848a475.818667 475.818667 0 0 0-17.578667-27.4432 148.872533 148.872533 0 0 1-11.332267 7.150933v0.017067z m82.312533-41.5232l-0.802133-1.911467a134.4512 134.4512 0 0 0-13.909333-24.576l-0.887467-1.28 1.194667-0.938666c4.539733-3.6352 9.301333-6.946133 14.2848-9.898667l1.365333-0.802133 0.8192 1.365333c3.515733 5.956267 8.4992 14.557867 14.967467 25.8048l0.904533 1.536-1.6384 0.750933a74.820267 74.820267 0 0 0-14.6432 8.704l-1.655467 1.245867z m-11.195733-27.101867c4.864 6.946133 9.045333 14.336 12.544 22.050134 3.7888-2.730667 7.816533-5.102933 12.014933-7.099734-5.546667-9.6768-9.966933-17.288533-13.243733-22.8352a130.56 130.56 0 0 0-11.3152 7.850667v0.034133z m189.627733 104.516267v60.433067c0 9.489067-1.467733 15.547733-4.4032 18.2272-2.935467 2.6624-12.322133 5.188267-28.16 7.560533a39.1168 39.1168 0 0 0-7.918933-18.670933 127.829333 127.829333 0 0 0 19.3536-0.887467c2.935467-0.597333 4.4032-4.1472 4.4032-10.666667V855.04c-8.448 3.652267-16.674133 7.816533-24.644267 12.458667a84.770133 84.770133 0 0 0-7.048533-16.042667 450.0992 450.0992 0 0 0 31.675733-12.4416v-46.216533h-5.256533c-7.6288 0-15.2576 0.290133-22.869333 0.887466v-15.104c7.031467 0.597333 14.677333 0.887467 22.869333 0.887467h5.290667v-24.8832c0-8.891733-0.3072-17.2032-0.887467-24.900267h18.4832c-0.597333 7.1168-0.887467 15.4112-0.887467 24.900267v24.8832c6.4512 0 14.370133-0.3072 23.7568-0.887467v15.104a392.465067 392.465067 0 0 0-23.7568-0.887466v39.9872c9.966933-4.130133 16.725333-7.099733 20.241067-8.874667a204.8 204.8 0 0 0 0.887467 15.104c-3.5328 1.774933-10.581333 5.034667-21.128534 9.7792z m130.218667-25.770667c9.984 0 19.6608-0.290133 29.064533-0.887466v16.008533c-9.403733-0.597333-18.7904-0.887467-28.16-0.887467h-51.029333c-2.935467 7.1168-4.983467 12.151467-6.144 15.104h67.720533c-4.778667 10.5472-10.24 20.7872-16.2816 30.6688a226.304 226.304 0 0 1-14.506666 20.002134c6.6048 4.522667 13.8752 7.970133 21.5552 10.24a112.059733 112.059733 0 0 0 25.9584 4.881066 42.222933 42.222933 0 0 0-11.434667 16.008534 143.445333 143.445333 0 0 1-28.603733-8.874667 165.188267 165.188267 0 0 1-21.5552-11.5712c-7.099733 4.437333-14.455467 8.430933-22.016 11.997867-7.048533 3.242667-15.837867 6.946133-26.402134 11.093333a33.450667 33.450667 0 0 0-12.322133-14.199467 172.7488 172.7488 0 0 0 28.603733-8.891733c6.997333-2.730667 13.653333-6.314667 19.797334-10.666667a158.788267 158.788267 0 0 1-19.3536-33.792c-5.12 10.2912-11.1616 20.1216-18.039467 29.3376-5.5808 7.099733-13.653333 16.2816-24.200533 27.5456a36.864 36.864 0 0 0-15.837867-11.554133 153.8048 153.8048 0 0 0 27.272533-26.658133 164.932267 164.932267 0 0 0 28.16-50.688h-6.144c-9.386667 0-19.080533 0.290133-29.0304 0.887466v-15.991466c8.789333 0.597333 18.773333 0.887467 29.917867 0.887466h8.789333c1.9456-4.898133 3.413333-9.949867 4.4032-15.121066h-5.290666c-9.386667 0-19.643733 0.290133-30.788267 0.887466v-15.104c10.564267 0.597333 20.821333 0.887467 30.805333 0.887467h46.6432c5.973333-12.526933 10.7008-25.634133 14.08-39.099733 6.263467 2.833067 12.731733 5.205333 19.3536 7.099733-2.3552 4.164267-7.645867 14.830933-15.837866 32 7.611733 0 14.9504-0.290133 22.016-0.887467v15.104a445.815467 445.815467 0 0 0-29.047467-0.887466h-35.208533c-0.597333 2.389333-2.065067 7.424-4.4032 15.121066h47.5136z m-52.343467-85.333333c19.063467-1.160533 33.143467-2.3552 42.24-3.549867a117.76 117.76 0 0 0 21.572267-4.437333c1.911467 6.229333 5.563733 11.776 10.5472 15.991467a1634.304 1634.304 0 0 0-49.7152 4.010666c-22.5792 2.048-44.731733 3.976533-66.4576 5.768534a51.0976 51.0976 0 0 0-7.918933-16.008534c14.097067 0 30.6688-0.580267 49.732266-1.774933z m-13.653333 49.7664a119.159467 119.159467 0 0 0-15.837867 5.3248 133.888 133.888 0 0 0-8.8064-26.658133c2.9184-0.580267 8.192-2.065067 15.837867-4.437334 4.130133 10.666667 7.048533 19.2512 8.8064 25.770667z m36.078933-4.437333c-5.888 1.774933-11.1616 3.549867-15.837866 5.3248-0.597333-2.952533-3.5328-11.537067-8.8064-25.770667 5.154133-1.297067 10.171733-3.072 14.984533-5.3248 2.9184 7.1168 6.144 15.701333 9.6768 25.770667h-0.017067z m7.953067 96.887466c3.072-4.5056 5.717333-9.250133 7.918933-14.2336h-35.208533c2.1504 5.563733 4.795733 10.922667 7.918933 16.008534 2.389333 4.010667 5.051733 7.850667 7.918934 11.554133 4.4032-3.908267 8.260267-8.379733 11.451733-13.329067z m-60.7744 58.999467l-0.580267-1.536a32.034133 32.034133 0 0 0-11.776-13.482667l-2.901333-2.133333 3.4816-0.768a171.093333 171.093333 0 0 0 28.330667-8.8064 96.512 96.512 0 0 0 18.090666-9.489067 160.529067 160.529067 0 0 1-17.117866-29.815466 183.808 183.808 0 0 1-16.657067 26.709333c-5.546667 7.099733-13.738667 16.384-24.302933 27.648l-1.297067 1.416533-1.143467-1.536a35.413333 35.413333 0 0 0-15.172266-11.008l-2.781867-1.194666 2.491733-1.672534a153.941333 153.941333 0 0 0 26.965334-26.368 162.133333 162.133333 0 0 0 27.050666-47.991466h-3.84c-9.233067 0-18.978133 0.3072-28.945066 0.887466l-1.706667 0.119467v-19.456l1.706667 0.119467c8.704 0.580267 18.432 0.887467 29.815466 0.887466h7.765334c1.416533-3.874133 2.56-7.850667 3.413333-11.8784h-3.242667c-9.216 0-19.5584 0.3072-30.72 0.904534l-1.6896 0.085333v-18.5344l1.706667 0.085333c4.096 0.238933 8.192 0.426667 12.288 0.5632a131.106133 131.106133 0 0 0-8.482133-25.685333l-1.143467-1.9968 2.184533-0.426667c2.901333-0.597333 8.192-2.082133 15.684267-4.420266l1.4336-0.443734 0.512 1.416534c4.096 10.683733 7.099733 19.421867 8.8576 25.941333l0.4608 1.672533-1.706667 0.341334a94.549333 94.549333 0 0 0-11.605333 3.754666c4.096 0.1024 8.157867 0.136533 12.168533 0.136534h45.6192c5.751467-12.117333 10.2912-24.7808 13.533867-37.802667l0.392533-1.928533 1.792 0.733866c6.178133 2.816 12.544 5.1712 19.063467 7.048534l2.2016 0.4096-1.109333 1.979733c-2.218667 3.908267-7.168 13.858133-14.677334 29.559467 6.4512-0.0512 12.885333-0.341333 19.285334-0.887467l1.757866-0.136533v18.602666l-1.706666-0.1024a437.265067 437.265067 0 0 0-28.945067-0.904533h-33.911467c-1.109333 3.976533-2.269867 7.936-3.4816 11.8784h45.346134c10.0352 0 19.797333-0.3072 28.945066-0.887467l1.706667-0.1024v19.456l-1.706667-0.119466a451.208533 451.208533 0 0 0-28.0576-0.887467h-49.9712c-2.0992 5.085867-3.703467 9.045333-4.846933 11.8784h67.925333l-1.109333 2.304a287.044267 287.044267 0 0 1-16.384 30.856533c-4.181333 6.485333-8.686933 12.7488-13.499733 18.773334 6.0928 3.8912 12.714667 6.929067 19.6608 9.0112 8.311467 2.594133 16.896 4.215467 25.6 4.8128l3.84 0.256-2.884267 2.56a40.738133 40.738133 0 0 0-11.008 15.36l-0.512 1.28-1.3312-0.290134a146.8416 146.8416 0 0 1-28.910933-8.942933 171.9296 171.9296 0 0 1-20.906667-11.127467c-6.877867 4.266667-13.994667 8.106667-21.316267 11.554134-6.9632 3.2256-15.872 6.9632-26.487466 11.144533l-1.501867 0.6144z m-7.714133-15.530667c3.959467 3.0208 7.202133 6.894933 9.506133 11.3152 9.9328-3.925333 18.261333-7.441067 24.849067-10.496 7.509333-3.5328 14.7968-7.509333 21.845333-11.895466l0.853333-0.546134 0.853334 0.5632c6.826667 4.334933 13.960533 8.157867 21.333333 11.434667 8.704 3.7376 17.732267 6.587733 26.9824 8.4992a43.349333 43.349333 0 0 1 8.704-12.8A114.466133 114.466133 0 0 1 477.866667 914.807467a78.660267 78.660267 0 0 1-22.016-10.4448l-1.4336-1.024 1.109333-1.365334c5.1712-6.331733 9.966933-12.970667 14.404267-19.848533 5.5808-9.079467 10.615467-18.4832 15.069866-28.16h-67.584l0.887467-2.218667c1.160533-2.952533 3.2256-8.021333 6.178133-15.121066l0.4096-1.024h52.1216c8.704 0 17.646933 0.256 26.555734 0.785066v-12.544c-8.704 0.512-17.92 0.768-27.4432 0.768h-49.698134l0.648534-2.082133c2.304-7.5776 3.754667-12.629333 4.369066-15.018667l0.3072-1.2288h36.4544c9.7792 0 19.012267 0.238933 27.426134 0.768v-11.605333c-6.434133 0.512-13.2608 0.733867-20.394667 0.733867h-2.56l1.1264-2.321067c7.168-15.0016 12.1344-25.1392 14.848-30.225067a182.203733 182.203733 0 0 1-15.786667-5.9392 223.607467 223.607467 0 0 1-13.789866 37.546667l-0.4096 0.938667h-47.650134c-9.591467 0-19.387733-0.256-29.184-0.802134v11.690667c10.581333-0.512 20.394667-0.802133 29.184-0.802133h7.287467l-0.4608 1.9968c-1.024 5.290667-2.542933 10.461867-4.522667 15.479466l-0.4608 0.8704h-9.762133c-10.7008 0-19.968-0.238933-28.330667-0.768v12.544c9.454933-0.512 18.670933-0.785067 27.4432-0.785066h8.465067l-0.802133 2.184533a167.082667 167.082667 0 0 1-28.450134 51.165867c-7.509333 9.2672-15.991467 17.749333-25.258666 25.275733 4.846933 2.218667 9.1648 5.410133 12.6976 9.386667a420.864 420.864 0 0 0 22.869333-26.112c6.792533-9.1136 12.782933-18.8416 17.8688-29.013334l1.536-2.935466 1.365333 3.003733c5.000533 11.8784 11.434667 23.0912 19.131734 33.399467l1.092266 1.3312-1.365333 1.024c-6.2464 4.420267-13.021867 8.072533-20.138667 10.8544-8.2944 3.413333-16.8448 6.144-25.565866 8.192z m2.218666-156.1088c3.1232 7.5776 5.632 15.394133 7.509334 23.381334 5.632-2.167467 9.864533-3.584 12.7488-4.369067-1.706667-5.922133-4.3008-13.482667-7.765334-22.5792-4.130133 1.297067-8.2944 2.491733-12.4928 3.566933z m-75.963733 169.608534l-0.170667-1.706667a37.717333 37.717333 0 0 0-7.6288-17.8688l-1.8432-2.56h3.157334c6.3488 0.170667 12.714667-0.1024 19.0464-0.853333 2.56-0.546133 3.106133-5.239467 3.106133-9.079467v-47.2576c-7.611733 3.328-15.018667 7.099733-22.186667 11.298133l-1.809066 1.143467-0.580267-2.065067a83.080533 83.080533 0 0 0-6.912-15.6672l-0.904533-1.706666 1.774933-0.631467a461.056 461.056 0 0 0 30.6176-11.963733v-43.52h-3.6864c-7.4752 0-15.138133 0.290133-22.749867 0.887466l-1.723733 0.136534v-18.6368l1.7408 0.1536c6.826667 0.580267 14.506667 0.887467 22.749867 0.887466h3.669333v-23.278933c0-8.738133-0.290133-17.066667-0.887467-24.746667l-0.119466-1.757866h21.947733l-0.136533 1.757866c-0.597333 6.894933-0.887467 15.223467-0.887467 24.746667v23.2448a405.333333 405.333333 0 0 0 22.0672-0.8704l1.6896-0.119467v18.568534l-1.706667-0.1024c-7.338667-0.477867-14.677333-0.768-22.050133-0.8704v35.925333c8.704-3.618133 14.711467-6.280533 17.92-7.918933l2.321067-1.1776v2.645333c0 2.986667 0.3072 8.157867 0.887466 14.967467l0.085334 1.109333-0.9728 0.512c-3.549867 1.774933-10.530133 5.0176-20.241067 9.386667v59.392c0 10.0352-1.604267 16.384-4.9152 19.421866-2.048 1.860267-7.2704 4.676267-29.013333 7.953067l-1.655467 0.221867z m-3.447467-18.909867c3.106133 4.573867 5.239467 9.745067 6.2464 15.189333 18.005333-2.798933 23.927467-5.290667 25.719467-6.912 1.792-1.604267 3.857067-5.870933 3.857067-16.9984v-61.508266l0.938666-0.426667c9.3184-4.164267 16.213333-7.338667 20.087467-9.2672a257.024 257.024 0 0 1-0.750933-11.5712c-3.874133 1.809067-9.9328 4.4544-18.056534 7.8336l-2.218666 0.9216v-44.032h1.604266c6.058667 0 13.312 0.256 22.152534 0.785067v-11.656534c-8.516267 0.512-15.957333 0.768-22.152534 0.768h-1.604266v-26.504533c0-8.96 0.238933-16.5888 0.733866-23.278933h-15.0016c0.512 7.304533 0.750933 15.121067 0.750934 23.278933v26.504533h-6.877867c-7.645867 0-14.779733-0.256-21.282133-0.750933v11.605333c7.150933-0.512 14.2848-0.768 21.282133-0.768h6.8608v48.896l-0.955733 0.443734c-8.874667 3.925333-18.944 7.901867-30.020267 11.844266 2.2016 4.061867 4.096 8.2944 5.632 12.629334 4.949333-2.901333 12.6976-6.741333 23.074133-11.434667l2.2528-1.024v52.258133c0 7.338667-1.877333 11.485867-5.6832 12.253867-5.495467 0.733867-11.042133 1.024-16.5888 0.9216z m134.024534-22.408533l-1.058134-1.314134a118.4768 118.4768 0 0 1-8.021333-11.707733 100.352 100.352 0 0 1-8.055467-16.247467l-0.8704-2.218666h40.004267l-0.955733 2.2528c-2.2528 5.0688-4.949333 9.898667-8.072534 14.4896a67.1744 67.1744 0 0 1-11.707733 13.653333l-1.262933 1.092267z m-13.226667-28.228267c1.928533 4.676267 4.232533 9.216 6.877867 13.5168 2.440533 4.010667 4.727467 7.3728 6.7584 10.052267 3.754667-3.549867 7.082667-7.543467 9.898666-11.8784 2.5088-3.7376 4.778667-7.645867 6.7584-11.690667h-30.293333z m-0.085333-76.8l-0.375467-1.877333a257.536 257.536 0 0 0-8.738133-25.514667l-0.6144-1.672533 1.706666-0.477867c5.034667-1.28 9.9328-3.0208 14.6432-5.2224l1.536-0.768 0.682667 1.621333c3.447467 8.533333 6.690133 17.152 9.728 25.838934l0.546133 1.604266-1.621333 0.512c-5.290667 1.5872-10.5472 3.362133-15.7184 5.307734l-1.774933 0.648533z m-5.4784-26.862933c4.096 11.076267 6.7072 18.619733 7.7824 22.528 4.181333-1.536 8.3968-2.935467 12.6464-4.232534-2.645333-7.5776-5.461333-15.086933-8.448-22.528-3.8912 1.6896-7.901867 3.106133-11.9808 4.2496v-0.017066z m-42.888534-6.485334l-0.375466-1.262933a49.629867 49.629867 0 0 0-7.68-15.496533l-1.928534-2.56h3.208534c14.08 0 30.754133-0.597333 49.629866-1.774934 18.875733-1.194667 33.024-2.372267 42.120534-3.549866 7.2192-0.802133 14.336-2.2528 21.265066-4.369067l1.467734-0.512 0.546133 1.4336c1.809067 5.9392 5.2736 11.229867 9.984 15.274667l3.754667 2.679466-4.608 0.256c-10.513067 0.597333-27.2384 1.9456-49.664 3.9936-22.016 2.048-44.373333 3.976533-66.4576 5.7856l-1.262934 0.1024z m-3.6864-16.110933c2.56 3.925333 4.5568 8.192 5.9904 12.6464 21.6576-1.774933 43.5712-3.669333 65.143467-5.649067a1925.973333 1925.973333 0 0 1 45.8752-3.771733 40.618667 40.618667 0 0 1-7.509333-12.5952c-6.690133 1.877333-13.5168 3.242667-20.411734 4.0448-9.1648 1.194667-23.415467 2.389333-42.359466 3.549867a823.637333 823.637333 0 0 1-46.711467 1.792v-0.017067z m170.274134 82.824533a59.8016 59.8016 0 0 0 23.330133-19.114666 238.762667 238.762667 0 0 0 19.797333-27.989334 1258.325333 1258.325333 0 0 0-52.804266 0.887467v-17.783467c12.322133 0.597333 32.853333 0.904533 61.610666 0.887467 5.768533-11.093333 10.478933-22.698667 14.08-34.645333 6.5536 3.345067 13.312 6.314667 20.224 8.874666-5.8368 8.226133-11.127467 16.8448-15.837866 25.770667h59.8528c7.031467 0 17.885867-0.290133 32.546133-0.887467v17.783467a651.264 651.264 0 0 0-32.546133-0.887467h-67.754667c-6.468267 10.069333-17.6128 25.480533-33.450667 46.216534h49.288534c0-11.264-0.3072-22.818133-0.887467-34.6624h19.3536c-0.597333 10.069333-0.887467 21.623467-0.8704 34.645333h29.917867c11.7248 0 23.159467-0.290133 34.304-0.8704v17.7664a660.138667 660.138667 0 0 0-34.304-0.887467h-29.917867v33.792h49.271467c11.144533 0 23.466667-0.290133 36.9664-0.887466v18.670933a873.642667 873.642667 0 0 0-36.9664-0.887467h-49.271467c0 18.961067 0.290133 34.065067 0.8704 45.329067h-19.3536c0.580267-11.861333 0.8704-26.965333 0.887467-45.329067h-60.7232c-12.919467 0-25.2416 0.290133-36.9664 0.887467v-18.670933a704.853333 704.853333 0 0 0 36.9664 0.887466h60.7232v-33.792c-21.128533 0-35.7888 0.3072-44.014934 0.887467a154.299733 154.299733 0 0 0-26.385066 4.437333 321.6384 321.6384 0 0 0-7.918934-20.411733v-0.017067z m98.491733 112.708267h-22.749867l0.1024-1.706667c0.5632-11.502933 0.853333-26.180267 0.8704-43.6224h-59.101866c-12.731733 0-25.1392 0.3072-36.864 0.904534l-1.6896 0.085333v-22.084267l1.6896 0.085334c11.434667 0.580267 23.8592 0.887467 36.864 0.887466h59.118933v-30.549333c-20.087467 0-34.304 0.341333-42.2912 0.904533a154.402133 154.402133 0 0 0-26.112 4.4032l-1.399467 0.3584-0.494933-1.365333a313.1904 313.1904 0 0 0-7.8848-20.343467l-0.682667-1.570133 1.570134-0.631467c9.0112-4.164267 16.810667-10.581333 22.664533-18.602666 6.587733-8.055467 12.6464-16.520533 18.158933-25.326934a1196.544 1196.544 0 0 0-49.851733 0.853334l-1.672533 0.085333v-21.162667l1.6896 0.068267c12.049067 0.597333 31.8464 0.8704 60.5184 0.904533 5.546667-10.717867 10.069333-21.9136 13.5168-33.467733l0.512-1.928533 1.757866 0.887466c6.519467 3.310933 13.226667 6.263467 20.0704 8.823467l1.9968 0.733867-1.2288 1.7408c-5.290667 7.441067-10.103467 15.189333-14.455466 23.210666h57.1392c7.2192 0 18.158933-0.3072 32.494933-0.904533l1.672533-0.085333v21.1968l-1.6896-0.1024c-11.776-0.580267-22.698667-0.8704-32.477866-0.8704h-66.884267c-6.280533 9.728-16.725333 24.149333-31.061333 42.973866h44.407466a685.056 685.056 0 0 0-0.853333-32.9728l-0.1024-1.706666h22.766933l-0.119466 1.723733a602.112 602.112 0 0 0-0.8704 32.938667h28.3136c11.8272 0 23.3472-0.290133 34.235733-0.8704l1.6896-0.1024v21.1968l-1.6896-0.085334a653.4144 653.4144 0 0 0-34.235733-0.887466h-28.330667v30.549333h47.684267c11.298133 0 23.722667-0.324267 36.864-0.904533l1.6896-0.085334v22.0672l-1.672534-0.068266c-12.288-0.5632-24.576-0.853333-36.898133-0.904534h-47.6672c0 18.517333 0.3072 32.768 0.8704 43.639467l0.1024 1.706667z m-19.370667-3.242667h15.991467a971.605333 971.605333 0 0 1-0.802133-43.690666v-1.6384h50.8928c10.530133 0 22.4256 0.273067 35.345066 0.8192v-15.2576c-12.5952 0.512-24.4736 0.802133-35.345066 0.802133H641.706667v-37.0176h31.5392c11.008 0 22.016 0.273067 32.7168 0.802133v-14.336c-10.461867 0.512-21.4528 0.785067-32.7168 0.785067H641.706667v-1.621333c0-12.5952 0.256-23.432533 0.802133-33.041067h-15.991467c0.512 11.349333 0.802133 22.459733 0.802134 33.041067v1.621333h-54.135467l1.9968-2.6112c15.684267-20.5312 26.914133-36.027733 33.348267-46.08l0.477866-0.733867h68.642134c9.3696 0 19.780267 0.273067 30.958933 0.802134v-14.370134c-13.568 0.529067-23.978667 0.802133-30.958933 0.802134h-62.532267l1.28-2.389334c4.4032-8.362667 9.3184-16.4352 14.711467-24.2176-5.290667-2.048-10.9056-4.5056-16.674134-7.338666-3.618133 11.383467-8.192 22.442667-13.653333 33.058133l-0.4608 0.887467h-0.989867c-27.9552 0-47.616-0.256-60.0064-0.802134v14.370134c13.346133-0.529067 30.549333-0.802133 51.2-0.802134h2.850134l-1.467734 2.4576c-5.973333 9.864533-12.629333 19.285333-19.933866 28.194134a64.4096 64.4096 0 0 1-22.4256 18.944c2.048 4.7616 4.317867 10.683733 6.8096 17.646933a154.624 154.624 0 0 1 25.258666-4.1472c8.277333-0.580267 23.125333-0.887467 44.117334-0.887467h1.604266v37.0176h-62.327466c-12.458667 0-24.32-0.273067-35.362134-0.802133v15.2576c11.3152-0.512 23.210667-0.8192 35.362134-0.8192h62.3104v1.621333c0 17.339733-0.256 32.017067-0.785067 43.690667z m177.834667 1.6384h-15.837867c0.580267-15.4112 0.8704-30.8224 0.887467-46.2336a136.260267 136.260267 0 0 0-30.805333 9.7792c-1.706667-6.314667-3.754667-12.561067-6.144-18.653866 5.853867-0.597333 18.176-2.6624 36.9664-6.229334v-34.645333c-6.178133-0.034133-12.3392 0.273067-18.4832 0.8704-5.341867 0.512-10.632533 1.399467-15.837867 2.6624l-6.144-15.991467c6.144-5.546667 10.427733-12.834133 12.305067-20.8896 2.935467-9.762133 5.870933-19.114667 8.8064-27.989333-4.113067 0-10.274133 0.290133-18.4832 0.887467v-16.008534c7.6288 0.6144 14.967467 0.887467 22.016 0.887467 2.7136-12.322133 4.778667-24.7808 6.144-37.3248 6.3488 2.167467 12.8 3.9424 19.3536 5.341867-2.3552 7.697067-5.5808 18.363733-9.6768 31.982933 12.9024 0 24.337067-0.290133 34.304-0.887467v16.896a333.994667 333.994667 0 0 0-37.8368-1.774933c-2.3552 8.874667-7.338667 24.576-14.9504 47.104h18.4832c0-14.216533-0.3072-25.480533-0.887467-33.792h15.8208c-0.597333 7.1168-0.887467 18.3808-0.887467 33.792 8.8064 0 16.145067-0.290133 22.016-0.887467v16.008534a247.842133 247.842133 0 0 0-22.016-0.887467v31.982933a778.018133 778.018133 0 0 1 23.7568-5.3248 20.872533 20.872533 0 0 0-1.757866 14.216534c-7.4752 1.160533-14.848 2.935467-22.016 5.341866 0.017067 21.930667 0.324267 38.536533 0.904533 49.783467v-0.034133z m53.248-80.896c3.515733-16.0768 5.444267-32.443733 5.7344-48.896h-18.4832v127.146667h-15.837867a665.941333 665.941333 0 0 0 0.8704-31.112533v-79.104c0-11.264-0.290133-21.640533-0.8704-31.112534h34.304v-34.645333c-12.919467 0-24.354133 0.273067-34.304 0.8704v-15.991467c9.386667 0.597333 19.626667 0.904533 30.788267 0.887467h72.174933l21.111467-1.774933v16.896c-7.6288-0.597333-20.821333-0.887467-39.594667-0.887467v34.645333h37.8368c-0.597333 8.311467-0.887467 21.0432-0.887466 38.229334v84.4288a14.199467 14.199467 0 0 1-9.6768 14.2336c-7.5264 2.167467-15.172267 3.9424-22.869334 5.3248a162.56 162.56 0 0 0-7.048533-20.445867c6.826667 1.211733 13.806933 1.365333 20.6848 0.443733a11.776 11.776 0 0 0 4.829867-8.430933v-99.566933h-22.869334c-0.597333 10.666667-1.194667 19.5584-1.757866 26.6752 11.127467 22.528 18.466133 37.632 22.016 45.329066-5.0176 2.7648-9.728 6.0416-14.08 9.762134-1.774933-7.099733-5.5808-19.2512-11.434667-36.437334-6.485333 24.302933-11.758933 42.0864-15.872 53.333334a124.672 124.672 0 0 0-15.8208-10.666667 109.226667 109.226667 0 0 0 14.506667-31.556267 232.277333 232.277333 0 0 0 8.362666-56.4224h-22.016l-1.7408 21.316267c6.314667 8.0896 11.895467 16.725333 16.708267 25.770667-3.9424 2.781867-7.509333 6.058667-10.564267 9.796266a416.9216 416.9216 0 0 1-7.918933-18.670933 343.278933 343.278933 0 0 1-13.192533 52.4288 63.931733 63.931733 0 0 0-14.08-10.666667 119.808 119.808 0 0 0 10.990933-31.095466v-0.034134z m40.925867-63.112533v-34.6624h-20.241067v34.6624h20.241067z m-92.4672 145.595733h-19.182934l0.0512-1.672533c0.546133-14.779733 0.853333-29.5936 0.853334-44.117333a130.1504 130.1504 0 0 0-28.450134 9.216l-1.757866 0.853333-0.512-1.8944c-1.672533-6.280533-3.720533-12.458667-6.0928-18.4832l-0.785067-1.9968 2.116267-0.221867c5.597867-0.5632 17.544533-2.56 35.515733-5.973333v-31.6416c-5.768533 0.0512-11.383467 0.341333-16.725333 0.8704a111.786667 111.786667 0 0 0-15.598934 2.628267l-1.3824 0.341333-7.099733-18.432 0.938667-0.750933a39.253333 39.253333 0 0 0 11.776-20.0704c2.645333-8.8064 5.358933-17.5104 8.106666-25.873067-5.376 0.170667-10.752 0.443733-16.145066 0.853333l-1.706667 0.136534V760.832l1.723733 0.136533c6.9632 0.5632 13.8752 0.853333 20.5824 0.8704 2.56-11.844267 4.522667-23.808 5.853867-35.857066l0.221867-2.1504 1.979733 0.8192a167.936 167.936 0 0 0 19.114667 5.239466l1.706666 0.4096-0.512 1.655467c-2.2528 7.338667-5.256533 17.288533-9.0624 29.883733 12.100267-0.017067 22.869333-0.3072 32.0512-0.853333l1.706667-0.119467v20.445867l-1.792-0.2048a327.0144 327.0144 0 0 0-36.437333-1.774933c-2.4064 8.874667-7.099733 23.620267-13.9264 43.861333h14.626133c-0.034133-13.312-0.341333-24.064-0.887467-32.034133l-0.119466-1.7408h19.319466l-0.1536 1.774933c-0.5632 6.7584-0.853333 17.237333-0.8704 31.982933 8.192-0.017067 14.813867-0.3072 20.241067-0.853333l1.757867-0.187733v19.575466l-1.7408-0.170666c-6.741333-0.5632-13.499733-0.853333-20.258134-0.853334v28.296534c9.045333-2.116267 16.384-3.754667 21.845334-4.864l1.348266-0.290134v-41.6768c0-11.093333-0.3072-21.504-0.887466-31.010133l-0.1024-1.706667h34.389333v-31.419733c-12.100267 0-23.074133 0.324267-32.631467 0.8704l-1.6896 0.119467v-19.456l1.706667 0.1024c9.130667 0.580267 19.456 0.887467 30.685867 0.887466h72.174933l22.698667-1.911466v20.3776l-1.706667-0.119467c-7.406933-0.5632-20.138667-0.853333-37.888-0.887467v31.419734h37.956267l-0.119467 1.7408c-0.597333 8.192-0.887467 20.650667-0.887467 38.109866v84.4288c-0.648533 8.533333-4.283733 13.789867-10.820266 15.7696-7.594667 2.2016-15.274667 3.9936-23.04 5.393067l-1.450667 0.273067-0.392533-1.4336c-1.877333-6.894933-4.215467-13.653333-6.980267-20.224l-1.109333-2.56 2.730666 0.273066c6.656 0.6656 11.776 0.989867 15.2576 0.989867a14.1824 14.1824 0 0 0 4.6592-0.426667 10.103467 10.103467 0 0 0 3.908267-7.338666v-25.9072l-0.290133 0.170666a82.944 82.944 0 0 0-13.824 9.591467l-1.979734 1.706667-0.631466-2.56c-1.570133-6.331733-4.744533-16.605867-9.693867-31.2832-5.819733 21.6576-10.717867 37.888-14.506667 48.3328l-0.768 2.0992-1.7408-1.365334a123.221333 123.221333 0 0 0-15.633066-10.5472l-1.604267-0.904533 1.109333-1.467733a107.810133 107.810133 0 0 0 14.267734-31.061334c0.6144-1.911467 1.1776-3.925333 1.723733-6.024533-3.003733 2.389333-5.751467 5.0688-8.192 8.021333l-1.655467 1.911467-1.024-2.321067c-2.116267-4.676267-4.096-9.2672-5.922133-13.704533a317.5936 317.5936 0 0 1-12.2368 47.394133l-0.887467 2.321067-1.7408-1.7408a62.549333 62.549333 0 0 0-13.1072-10.052267v46.933334h-19.1488l0.1024-1.672534a654.677333 654.677333 0 0 0 0.887467-31.044266v-33.860267c-1.757867 3.771733-2.2016 8.021333-1.262933 12.0832l0.512 1.757867-1.809067 0.290133c-6.997333 1.092267-13.909333 2.730667-20.650667 4.898133 0 21.674667 0.3072 37.563733 0.887467 48.520534l0.136533 1.655466z m-15.872-3.242666h12.4928a1114.624 1114.624 0 0 1-0.785067-48.128V884.053333l1.092267-0.375466a134.775467 134.775467 0 0 1 20.548266-5.12 22.084267 22.084267 0 0 1 1.1264-10.7008c-5.461333 1.160533-12.458667 2.747733-20.821333 4.727466l-1.9456 0.4608v-35.669333h1.604267c7.424 0 14.2848 0.256 20.394666 0.768v-12.4416c-5.563733 0.477867-12.270933 0.7168-20.394666 0.7168h-1.604267v-1.621333c0-14.472533 0.221867-25.0368 0.733867-32.1536h-12.3904c0.512 8.192 0.785067 18.9952 0.785066 32.1536v1.621333H768.682667l0.733866-2.1504c7.5264-22.237867 12.544-38.058667 14.916267-46.984533l0.324267-1.194667h1.2288a345.429333 345.429333 0 0 1 36.2496 1.570133v-13.3632c-9.506133 0.546133-20.241067 0.802133-32.7168 0.802134h-2.184534l0.631467-2.0992 9.181867-30.344534a205.038933 205.038933 0 0 1-15.940267-4.3008c-1.194667 10.717867-3.208533 22.6304-5.973333 35.464534l-0.256 1.28h-1.314134c-6.656 0-13.482667-0.256-20.394666-0.768v12.509866c7.509333-0.512 13.056-0.768 16.896-0.768h2.235733l-0.699733 2.133334c-3.072 9.2672-5.973333 18.602667-8.789334 27.9552-1.9456 7.953067-6.0928 15.189333-11.946666 20.923733l5.239466 13.585067c4.846933-1.092267 9.745067-1.8944 14.677334-2.389334 6.212267-0.597333 12.424533-0.887467 18.653866-0.887466h1.604267v37.614933l-1.314133 0.256c-17.032533 3.2256-28.501333 5.188267-34.986667 6.007467 1.826133 4.8128 3.4816 9.847467 4.932267 14.967466a148.1728 148.1728 0 0 1 29.405866-9.045333l1.962667-0.443733v2.013866a1282.440533 1282.440533 0 0 1-0.853333 44.612267v-0.034133z m123.221333-18.722134c2.1504 5.461333 4.027733 11.042133 5.632 16.708267 8.618667-1.672533 15.752533-3.362133 21.282133-5.0176a12.663467 12.663467 0 0 0 8.533334-12.8v-84.2752c0-16.315733 0.238933-28.330667 0.750933-36.590933H911.872v-37.888h1.604267c17.3056 0 30.088533 0.256 37.9904 0.750933v-13.380267l-19.370667 1.6384h-72.2944c-10.615467 0-20.411733-0.256-29.184-0.768v12.544a591.2576 591.2576 0 0 1 32.7168-0.785066h1.604267v37.888h-34.218667a529.066667 529.066667 0 0 1 0.768 29.4912v79.104c0 8.328533-0.256 18.261333-0.785067 29.4912h12.544v-127.112534h21.742934l-0.0512 1.672534c-0.3072 16.554667-2.218667 33.041067-5.751467 49.220266a129.860267 129.860267 0 0 1-10.3936 30.122667c4.0448 2.389333 7.799467 5.188267 11.229867 8.379733 5.239467-16.315733 9.352533-32.9728 12.288-49.8688l1.024-5.410133 2.048 5.12c2.048 5.188267 4.352 10.666667 6.8608 16.315733 2.423467-2.696533 5.12-5.137067 8.021333-7.304533a168.277333 168.277333 0 0 0-15.8208-24.234667l-0.4608-0.512 1.9456-23.5008H901.12l-0.085333 1.706667a234.9056 234.9056 0 0 1-8.430934 56.832 116.736 116.736 0 0 1-13.704533 30.532267c4.4032 2.594133 8.6528 5.461333 12.714667 8.5504 3.959467-11.264 9.028267-28.416 15.0528-51.114667l1.365333-5.12 1.706667 5.0176c5.3248 15.581867 8.874667 26.794667 10.837333 34.0992 3.498667-2.798933 7.202133-5.341867 11.076267-7.594667-3.669333-7.936-10.666667-22.357333-21.3504-43.912533l-0.187734-0.4096 0.034134-0.443733c0.5632-6.946133 1.143467-15.6672 1.757866-26.624l0.068267-1.536h26.0096v101.1712a13.277867 13.277867 0 0 1-5.802667 9.9328 15.1552 15.1552 0 0 1-5.922133 0.699733 137.813333 137.813333 0 0 1-12.8512-0.750933v-0.034134z m-66.952533-107.793066v75.264c4.283733-9.045333 7.509333-18.5856 9.5744-28.381867 3.396267-15.4112 5.290667-31.112533 5.632-46.882133h-15.2064z m66.901333 24.7296a2146.116267 2146.116267 0 0 1 21.435733 44.100266l-0.034133-68.829866h-19.746133c-0.580267 10.069333-1.1264 18.193067-1.655467 24.763733v-0.034133z m-36.0448-5.563734c5.717333 7.389867 10.820267 15.223467 15.2576 23.432534a275.626667 275.626667 0 0 0 5.12-42.5984h-18.824533l-1.536 19.165866z m22.818133-33.3824h-23.4496v-37.888h23.415467v37.888h0.034133z m-20.241066-3.242666h17.032533v-31.419734h-17.032533v31.419734zM757.76 524.8a23.04 23.04 0 0 1-23.04 23.04 21.6576 21.6576 0 0 1-2.321067-0.238933v0.238933h-12.253866a92.330667 92.330667 0 0 0 1.757866-17.92c0-19.541333-11.093333-37.000533-20.48-48.7424V465.92h56.32v56.576h-0.238933c0.119467 0.768 0.2048 1.536 0.256 2.304z m-25.088-69.1712a0.170667 0.170667 0 0 0 0 0.0512H558.08V256h118.6816v0.0512a61.3888 61.3888 0 0 1 59.579733 51.114667h0.034134L757.76 405.504v19.456l-0.512 0.0512a25.531733 25.531733 0 0 1-24.576 30.6176zM640 296.96h-51.2v71.68h51.2v-71.68z m35.84-5.12c-5.290667 0-10.513067 1.092267-15.36 3.1744V378.88a15.36 15.36 0 0 0 15.36 15.36h55.125333s1.536-100.010667-55.125333-102.4z m-404.48-11.1616c0.426667-0.1024 0.853333-0.290133 1.262933-0.392533a33.28 33.28 0 0 1 23.005867-23.022934c0.119467-0.426667 0.290133-0.8192 0.392533-1.262933H542.72v199.68H271.36V280.6784z m103.6288-34.9184H363.52v-71.68l92.16-7.0144v23.6032a68.881067 68.881067 0 0 0-80.6912 55.0912zM312.32 498.961067a83.524267 83.524267 0 0 0-10.24 41.198933c0 2.6112 0.136533 5.154133 0.341333 7.68H271.36v-81.92h40.96v33.041067z m48.64-27.921067c24.029867 0 43.52 28.672 43.52 64 0 35.328-19.490133 64-43.52 64s-43.52-28.672-43.52-64c0-35.328 19.490133-64 43.52-64z m43.52 15.2576V465.92h215.04v20.3776a78.848 78.848 0 0 0-15.36 48.7424c0 4.266667 0.290133 8.5504 0.8704 12.8H418.986667c0.580267-4.2496 0.8704-8.533333 0.8704-12.8a78.848 78.848 0 0 0-15.36-48.7424z m258.56-15.2576c24.029867 0 43.52 28.672 43.52 64 0 35.328-19.490133 64-43.52 64s-43.52-28.672-43.52-64c0-35.328 19.490133-64 43.52-64z" fill="#00FF00" /></svg>