<?xml version="1.0" standalone="no"?><!DOCTYPE svg PUBLIC "-//W3C//DTD SVG 1.1//EN" "http://www.w3.org/Graphics/SVG/1.1/DTD/svg11.dtd"><svg class="icon" width="1000px" height="1000.00px" viewBox="0 0 1024 1024" version="1.1" xmlns="http://www.w3.org/2000/svg"><path d="M0 1024V0h1024v1024H0zM992 32H32v960h960V32z" fill="#00FF00" /><path d="M289.9968 882.517333a1472.733867 1472.733867 0 0 1-35.84-42.478933v56.32c0 12.1344-2.628267 19.933867-7.867733 23.3984-5.239467 3.464533-14.2848 5.495467-27.101867 6.058667a54.9888 54.9888 0 0 0-7.867733-21.674667c18.6368 1.757867 27.682133-1.143467 27.101866-8.6528v-38.997333c-5.239467 4.0448-11.793067 8.823467-19.6608 14.301866a155.528533 155.528533 0 0 0-20.548266 16.896c-3.601067-6.058667-8.021333-11.605333-13.124267-16.469333 9.3184-3.464533 27.101867-14.728533 53.333333-33.792v-52.855467c-16.896 0-30.600533 0.290133-41.079466 0.853334v-16.452267c10.478933 0.597333 24.183467 0.8704 41.079466 0.853333 0-20.206933-0.290133-34.645333-0.853333-43.3152h18.3296c-1.536 14.3872-2.116267 28.859733-1.757867 43.332267 18.653867 0 32.938667-0.290133 42.837334-0.8704v16.469333a773.973333 773.973333 0 0 0-42.837334-0.8704v32.938667l8.738134 8.6528a204.8 204.8 0 0 0 14.848-27.733333c4.983467 2.7136 9.659733 5.905067 13.994666 9.557333a267.264 267.264 0 0 0-18.363733 28.586667c10.615467 10.325333 20.548267 21.333333 29.730133 32.938666a140.219733 140.219733 0 0 0-13.090133 12.987734z m-61.218133-53.742933c-4.6592 2.901333-9.3184 6.058667-13.994667 9.5232a280.576 280.576 0 0 0-19.217067-30.327467c4.8128-2.628267 9.489067-5.512533 13.994667-8.669866 5.802667 8.106667 12.219733 17.92 19.234133 29.474133z m66.4576-71.936c-5.256533 2.321067-10.24 5.239467-14.848 8.669867a130.594133 130.594133 0 0 0-13.994667-24.2688c4.437333-3.498667 9.130667-6.673067 13.994667-9.540267 3.498667 5.802667 8.448 14.165333 14.848 25.1392z m-9.6256 61.525333a107.4688 107.4688 0 0 0 24.064-38.997333c6.485333-17.493333 11.605333-35.464533 15.3088-53.76 5.239467 1.7408 11.946667 4.0448 20.1216 6.946133a27.426133 27.426133 0 0 0-6.997334 12.117334l-8.772266 26.914133h39.338666c5.8368 0 12.834133-0.290133 20.992-0.8704v17.339733a290.474667 290.474667 0 0 0-18.346666-0.853333 573.576533 573.576533 0 0 1-7.441067 47.650133c-3.003733 15.530667-7.850667 30.6688-14.421333 45.056a97.911467 97.911467 0 0 0 43.7248 31.197867c-5.888 4.471467-10.410667 10.478933-13.124267 17.339733a255.607467 255.607467 0 0 1-24.917333-18.6368 435.541333 435.541333 0 0 1-17.92-16.896 133.632 133.632 0 0 1-45.4656 36.4032 44.834133 44.834133 0 0 0-10.496-18.210133 102.178133 102.178133 0 0 0 46.336-31.197867 191.829333 191.829333 0 0 1-19.234134-58.9312l-6.144 10.410667a98.816 98.816 0 0 0-16.5888-13.021867z m41.984 20.821334c2.594133 9.2672 6.109867 18.261333 10.496 26.845866 9.3184-19.626667 15.1552-45.909333 17.493333-78.848H324.096l-5.239467 15.598934c2.218667 12.288 5.137067 24.439467 8.738134 36.386133z m-36.864 92.450133l-0.512-1.911467a43.178667 43.178667 0 0 0-10.120534-17.544533l-1.5872-1.757867 2.218667-0.802133a101.888 101.888 0 0 0 45.021867-29.917867 199.7824 199.7824 0 0 1-18.2784-54.033066l-4.881067 8.277333-1.467733-1.450667a97.3312 97.3312 0 0 0-15.837867-12.458666c-3.4816 5.290667-6.792533 10.734933-9.898667 16.264533a342.254933 342.254933 0 0 1 28.996267 32.256l0.9216 1.1776-1.143467 0.9728c-4.590933 3.9936-8.9088 8.277333-12.9536 12.834133l-1.194666 1.3824-1.194667-1.365333a1475.7888 1475.7888 0 0 1-33.0752-39.048533v51.882666c0 12.8-2.781867 20.8896-8.567467 24.695467-5.5296 3.652267-14.677333 5.7344-27.921066 6.331733l-1.536 0.085334-0.136534-1.536a53.7088 53.7088 0 0 0-7.68-20.992l-1.536-2.645334 3.072 0.273067c3.447467 0.324267 6.587733 0.477867 9.352534 0.477867 9.472 0 13.243733-1.911467 14.762666-3.5328a4.864 4.864 0 0 0 1.245867-3.925334v-35.8912c-5.632 4.232533-11.349333 8.362667-17.152 12.373334a154.794667 154.794667 0 0 0-20.343467 16.725333l-1.501866 1.4848-1.024-1.826133a76.288 76.288 0 0 0-12.8512-16.128l-1.757867-1.7408 2.321067-0.853334c9.079467-3.3792 26.6752-14.523733 52.309333-33.109333v-50.500267c-15.991467 0.034133-29.2352 0.3072-39.424 0.853334l-1.6896 0.1024v-19.797334l1.6896 0.085334c10.052267 0.5632 22.954667 0.853333 39.424 0.853333 0-19.2-0.3072-33.194667-0.8704-41.642667l-0.1024-1.672533h21.947733l-0.3072 1.8432a318.805333 318.805333 0 0 0-1.7408 41.472c18.158933 0 31.6416-0.324267 41.147734-0.8704l1.706666-0.119467v19.848534l-1.706666-0.1024a747.52 747.52 0 0 0-41.130667-0.8704v30.72l6.8608 6.792533c5.154133-8.2944 9.728-16.930133 13.6704-25.856l0.7168-1.5872 1.536 0.853333c5.0688 2.781867 9.8304 6.024533 14.250667 9.728l0.4096 0.3584c6.2464-8.704 11.281067-18.244267 14.984533-28.3136 6.4512-17.408 11.537067-35.293867 15.240533-53.486933l0.341334-1.757867 1.706666 0.580267c5.2736 1.723733 11.9808 4.0448 20.138667 6.946133l2.833067 0.989867-2.4064 1.757867a25.207467 25.207467 0 0 0-6.4512 11.4176l-8.0384 24.746666h37.137066c5.905067 0 12.936533-0.3072 20.8896-0.8704l1.706667-0.119466v20.736l-1.706667-0.136534a332.322133 332.322133 0 0 0-16.8448-0.853333 567.688533 567.688533 0 0 1-7.287466 46.3872 203.434667 203.434667 0 0 1-14.1312 44.544c4.590933 5.5296 9.728 10.564267 15.342933 15.018667a102.570667 102.570667 0 0 0 27.136 14.933333l2.5088 0.989867-2.082133 1.706666c-5.649067 4.3008-10.018133 10.069333-12.629334 16.657067l-0.7168 1.911467-1.706666-1.143467a261.256533 261.256533 0 0 1-25.088-18.773333 421.2224 421.2224 0 0 1-16.6912-15.684267 137.079467 137.079467 0 0 1-44.885334 35.396267l-1.757866 0.904533z m-6.7584-19.848533c3.857067 4.471467 6.826667 9.6256 8.7552 15.223466a131.345067 131.345067 0 0 0 43.2128-35.054933l1.109333-1.467733 1.314133 1.297066c5.7856 5.802667 11.7248 11.4176 17.851734 16.8448 7.338667 6.2464 15.069867 12.049067 23.108266 17.373867a42.154667 42.154667 0 0 1 10.820267-14.421333 101.7344 101.7344 0 0 1-25.514667-14.421334 105.984 105.984 0 0 1-16.469333-16.2816l-0.580267-0.750933 0.392534-0.887467a200.192 200.192 0 0 0 14.336-44.714666c3.1232-15.735467 5.597867-31.573333 7.406933-47.530667l0.1536-1.399467h1.4336c3.805867 0 9.284267 0.238933 16.776533 0.733867v-13.9264c-7.338667 0.512-13.824 0.750933-19.4048 0.750933h-41.540266l0.682666-2.048 8.7552-26.862933a38.741333 38.741333 0 0 1 5.5808-11.008c-6.263467-2.218667-11.588267-4.0448-15.991466-5.512533a359.68 359.68 0 0 1-15.0016 52.224 111.172267 111.172267 0 0 1-23.04 38.161066c4.881067 3.1744 9.489067 6.7584 13.755733 10.717867l7.4752-12.663467 0.597333 4.608a190.976 190.976 0 0 0 19.080534 58.436267l0.443733 0.904533-0.597333 0.768a102.843733 102.843733 0 0 1-44.919467 30.890667z m-69.802667-5.802667c3.1744 5.649067 5.358933 11.810133 6.434133 18.193067a53.2992 53.2992 0 0 0 24.797867-5.717334c4.744533-3.140267 7.168-10.581333 7.168-22.084266v-60.8256l2.850133 3.498666a1517.4656 1517.4656 0 0 0 34.6112 41.0624c3.4304-3.805867 7.082667-7.406933 10.922667-10.8032a350.7712 350.7712 0 0 0-28.672-31.624533l-0.853333-0.836267 0.5632-1.041066c5.307733-9.540267 11.195733-18.7392 17.595733-27.579734a82.5344 82.5344 0 0 0-11.093333-7.543466c-4.096 9.1136-8.8576 17.92-14.250667 26.333866l-1.0752 1.655467-10.5984-10.513067v-35.157333h1.5872c17.9712 0 31.8464 0.238933 41.250133 0.750933v-13.1072c-9.745067 0.512-23.278933 0.768-41.250133 0.768h-1.604267v-1.570133c-0.273067-13.943467 0.221867-27.886933 1.4848-41.762133h-14.7968c0.512 8.874667 0.750933 22.903467 0.750934 41.762133v1.570133h-1.5872c-16.384 0-29.303467-0.238933-39.492267-0.768v13.124267a829.952 829.952 0 0 1 39.492267-0.785067h1.604266v55.261867l-0.648533 0.477867c-24.285867 17.646933-41.5744 28.757333-51.490133 33.092266 4.010667 4.0448 7.594667 8.4992 10.666666 13.312 6.007467-5.700267 12.458667-10.922667 19.285334-15.650133 7.799467-5.4272 14.404267-10.24 19.6096-14.250667l2.56-1.9968v42.257067a7.850667 7.850667 0 0 1-2.0992 6.1952c-3.515733 3.805867-11.246933 5.2224-23.7568 4.317867h0.017066z m124.040533-36.4544l-1.536-2.730667a146.397867 146.397867 0 0 1-10.615466-27.1872 336.042667 336.042667 0 0 1-8.789334-36.5568l-0.068266-0.4096 5.7344-17.066666h34.338133l-0.119467 1.706666c-2.338133 32.989867-8.277333 59.716267-17.629866 79.428267l-1.314134 2.816z m-17.698133-66.645333c2.218667 12.100267 5.102933 24.064 8.635733 35.84 2.338133 8.106667 5.290667 16.042667 8.874667 23.671466 9.3184-23.5008 14.677333-48.384 15.872-73.642666h-28.637867l-4.744533 14.1312z m-106.205867 37.7856l-0.887466-1.604267a277.230933 277.230933 0 0 0-19.114667-30.1568l-1.0752-1.450667 1.5872-0.8704c4.7616-2.594133 9.386667-5.461333 13.824-8.567466l1.28-0.9216 0.9216 1.297066c5.8368 8.0896 12.3392 18.039467 19.319467 29.559467l0.802133 1.348267-1.3312 0.8192c-4.7616 2.952533-9.386667 6.109867-13.8752 9.454933l-1.450667 1.092267z m-16.384-32.187734c6.314667 8.823467 12.1344 17.988267 17.408 27.477334 3.6864-2.696533 7.458133-5.256533 11.3152-7.68a465.186133 465.186133 0 0 0-17.4592-26.760534 149.845333 149.845333 0 0 1-11.264 6.9632zM279.722667 768l-0.785067-1.860267a130.56 130.56 0 0 0-13.824-23.9616l-0.904533-1.262933 1.194666-0.938667c4.5056-3.5328 9.250133-6.7584 14.1824-9.642666l1.365334-0.785067 0.802133 1.3312c3.498667 5.802667 8.465067 14.199467 14.882133 25.173333l0.887467 1.536-1.621333 0.7168a74.581333 74.581333 0 0 0-14.5408 8.482134l-1.6384 1.211733z m-11.127467-26.4192c4.8128 6.7584 8.994133 13.960533 12.458667 21.504 3.754667-2.645333 7.765333-4.9664 11.946666-6.929067-5.512533-9.4208-9.898667-16.8448-13.175466-22.254933a128.273067 128.273067 0 0 0-11.229867 7.68z m188.416 101.9392v58.948267c0 9.216-1.467733 15.1552-4.369067 17.749333-2.9184 2.6112-12.253867 5.0688-27.989333 7.3728a37.768533 37.768533 0 0 0-7.867733-18.193067c6.417067 0.170667 12.8512-0.1024 19.234133-0.853333 2.901333-0.6144 4.369067-4.061867 4.369067-10.410667V849.578667c-8.379733 3.549867-16.554667 7.611733-24.4736 12.117333a81.800533 81.800533 0 0 0-6.997334-15.581867 448.4608 448.4608 0 0 0 31.470934-12.1344v-45.056h-5.239467c-7.5776 0-15.1552 0.290133-22.7328 0.853334v-14.728534c6.997333 0.597333 14.574933 0.887467 22.7328 0.8704h5.239467V751.616c0-8.669867-0.290133-16.759467-0.8704-24.2688h18.363733c-0.597333 6.946133-0.887467 15.018667-0.8704 24.2688v24.2688c6.4 0 14.267733-0.290133 23.6032-0.8704v14.728533a398.9504 398.9504 0 0 0-23.6032-0.853333v39.0144c9.898667-4.0448 16.605867-6.929067 20.104533-8.669867 0 2.901333 0.290133 7.799467 0.8704 14.728534-3.498667 1.7408-10.478933 4.9152-20.974933 9.557333z m129.399467-25.122133c9.898667 0 19.5072-0.290133 28.842666-0.8704v15.598933a461.960533 461.960533 0 0 0-27.972266-0.8704h-50.688c-2.9184 6.946133-4.9664 11.844267-6.144 14.728533h67.328a274.602667 274.602667 0 0 1-16.1792 29.9008c-4.437333 6.7584-9.2672 13.277867-14.421334 19.5072 6.587733 4.4032 13.806933 7.765333 21.418667 9.966934 8.379733 2.577067 17.0496 4.181333 25.787733 4.778666-4.949333 4.215467-8.8576 9.557333-11.349333 15.581867a144.622933 144.622933 0 0 1-28.433067-8.6528 164.573867 164.573867 0 0 1-21.418666-11.264c-7.048533 4.317867-14.336 8.226133-21.845334 11.690667-6.997333 3.1744-15.752533 6.792533-26.231466 10.837333a32.802133 32.802133 0 0 0-12.253867-13.8752 174.250667 174.250667 0 0 0 28.416-8.6528c6.9632-2.6624 13.568-6.161067 19.677867-10.410667a154.333867 154.333867 0 0 1-19.234134-32.938666c-5.102933 10.069333-11.093333 19.626667-17.92 28.6208-5.546667 6.929067-13.568 15.872-24.064 26.862933a36.608 36.608 0 0 0-15.735466-11.264 151.637333 151.637333 0 0 0 27.101866-26.0096 160.119467 160.119467 0 0 0 27.989334-49.390933h-6.144c-9.3184 0-18.944 0.290133-28.842667 0.853333v-15.581867c8.738133 0.580267 18.653867 0.853333 29.730133 0.853334h8.738134c1.928533-4.7616 3.396267-9.693867 4.386133-14.728534h-5.256533c-9.335467 0-19.541333 0.290133-30.600534 0.853334v-14.728534c10.496 0.597333 20.6848 0.887467 30.600534 0.8704h46.336c5.973333-12.202667 10.6496-24.968533 13.994666-38.126933 6.229333 2.7648 12.663467 5.085867 19.234134 6.929067-2.338133 4.061867-7.594667 14.455467-15.735467 31.197866 7.560533 0 14.848-0.290133 21.845333-0.853333v14.728533a445.7472 445.7472 0 0 0-28.842666-0.853333h-34.9696c-0.597333 2.304-2.048 7.2192-4.369067 14.711467h47.2064z m-52.036267-83.2c18.944-1.160533 32.938667-2.304 41.984-3.4816a118.442667 118.442667 0 0 0 21.435733-4.334934c1.911467 6.109867 5.546667 11.537067 10.478934 15.616a1690.624 1690.624 0 0 0-49.390934 3.8912c-22.442667 2.013867-44.4416 3.8912-66.013866 5.632a49.373867 49.373867 0 0 0-7.867734-15.598933c13.994667 0 30.446933-0.597333 49.390934-1.757867v0.034134z m-13.533867 48.520533c-5.358933 1.365333-10.615467 3.1232-15.752533 5.205333a128.785067 128.785067 0 0 0-8.738133-25.992533c2.901333-0.580267 8.157867-2.030933 15.735466-4.334933 4.096 10.359467 6.997333 18.7392 8.7552 25.105066v0.017067z m35.84-4.334933c-5.853867 1.7408-11.093333 3.4816-15.752533 5.205333-0.580267-2.884267-3.498667-11.264-8.738133-25.122133 5.102933-1.28 10.069333-3.0208 14.848-5.205334 2.935467 6.912 6.144 15.291733 9.642666 25.105067v0.034133z m7.850667 94.464a88.234667 88.234667 0 0 0 7.8848-13.858134h-34.986667c2.1504 5.4272 4.778667 10.6496 7.8848 15.598934 2.389333 3.925333 5.0176 7.68 7.850667 11.264 4.386133-3.7888 8.209067-8.192 11.383467-13.021867v0.034133z m-60.347733 57.514666l-0.580267-1.501866a31.402667 31.402667 0 0 0-11.6736-13.141334l-2.884267-2.065066 3.464534-0.768a172.032 172.032 0 0 0 28.16-8.584534 96.494933 96.494933 0 0 0 17.9712-9.233066 155.784533 155.784533 0 0 1-17.015467-29.0816c-4.778667 9.130667-10.308267 17.851733-16.5888 26.026666-5.512533 6.912-13.653333 15.991467-24.132267 26.965334l-1.297066 1.3824-1.143467-1.536a35.191467 35.191467 0 0 0-15.069867-10.752l-2.7648-1.143467 2.491734-1.6384a151.722667 151.722667 0 0 0 26.794666-25.719467 157.371733 157.371733 0 0 0 26.862934-46.779733h-3.805867c-9.181867 0-18.858667 0.290133-28.757333 0.853333l-1.6896 0.119467v-18.9952l1.706666 0.136533c8.635733 0.5632 18.312533 0.853333 29.610667 0.853334h7.714133a85.162667 85.162667 0 0 0 3.396267-11.5712h-3.242667c-9.1648 0-19.421867 0.290133-30.5152 0.853333l-1.672533 0.1024v-18.0736l1.6896 0.085333c4.0448 0.221867 8.123733 0.4096 12.1856 0.546134A126.208 126.208 0 0 0 494.933333 763.665067l-1.092266-1.928534 2.167466-0.4096c2.901333-0.580267 8.123733-2.048 15.581867-4.3008l1.416533-0.426666 0.512 1.365333c3.362133 8.277333 6.2976 16.725333 8.8064 25.2928l0.4608 1.6384-1.706666 0.341333a94.72 94.72 0 0 0-11.52 3.652267c4.061867 0.085333 8.106667 0.136533 12.100266 0.136533h45.312c5.700267-11.810133 10.205867-24.149333 13.448534-36.864l0.375466-1.877333 1.792 0.7168c6.144 2.730667 12.475733 5.034667 18.944 6.8608l2.184534 0.4096-1.109334 1.928533c-2.184533 3.805867-7.099733 13.499733-14.557866 28.808534 6.4-0.034133 12.8-0.324267 19.1488-0.853334l1.7408-0.136533v18.141867l-1.706667-0.1024a446.856533 446.856533 0 0 0-28.740267-0.8704H544.768c-1.092267 3.874133-2.2528 7.7312-3.447467 11.5712h45.056c9.591467 0 19.182933-0.273067 28.757334-0.853334l1.6896-0.119466v18.944l-1.706667-0.1024a457.250133 457.250133 0 0 0-27.869867-0.853334H537.6c-2.082133 4.949333-3.669333 8.8064-4.795733 11.5712h67.4816l-1.109334 2.2528a277.845333 277.845333 0 0 1-16.264533 30.088534c-4.164267 6.314667-8.635733 12.424533-13.431467 18.295466 6.0928 3.805867 12.663467 6.7584 19.541334 8.789334 8.277333 2.525867 16.810667 4.113067 25.429333 4.693333l3.822933 0.256-2.850133 2.525867c-4.778667 4.061867-8.533333 9.198933-10.9568 14.984533l-0.512 1.245867-1.297067-0.290134a147.968 147.968 0 0 1-28.757333-8.7552c-7.168-3.140267-14.097067-6.7584-20.770133-10.837333-6.843733 4.1472-13.909333 7.901867-21.162667 11.264-6.929067 3.140267-15.786667 6.792533-26.350933 10.8544l-1.450667 0.648533z m-7.68-15.138133c3.925333 2.935467 7.150933 6.7072 9.437866 11.042133a475.682133 475.682133 0 0 0 24.712534-10.24c7.441067-3.447467 14.677333-7.3216 21.674666-11.605333l0.853334-0.512 0.853333 0.546133c6.792533 4.215467 13.8752 7.953067 21.213867 11.144534a140.629333 140.629333 0 0 0 26.794666 8.2944c2.0992-4.6592 5.034667-8.891733 8.6528-12.4928a115.5072 115.5072 0 0 1-22.5792-4.539734 78.848 78.848 0 0 1-21.8624-10.1888l-1.416533-0.989866 1.092267-1.314134c5.12-6.178133 9.915733-12.629333 14.336-19.3536a263.850667 263.850667 0 0 0 14.967466-27.460266h-67.140266l0.8704-2.167467c1.160533-2.884267 3.208533-7.816533 6.144-14.7456l0.4096-0.9728h51.7632c8.669867 0 17.527467 0.238933 26.385066 0.750933V819.2c-8.669867 0.512-17.834667 0.750933-27.255466 0.750933h-49.390934l0.648534-2.048c2.286933-7.3728 3.754667-12.288 4.352-14.6432l0.290133-1.194666h36.232533c9.728 0 18.8928 0.238933 27.255467 0.750933v-11.332267a274.261333 274.261333 0 0 1-20.2752 0.733867h-2.56l1.1264-2.269867c7.099733-14.609067 12.066133-24.507733 14.762667-29.474133a180.394667 180.394667 0 0 1-15.684267-5.7856c-3.447467 12.5952-8.021333 24.832-13.687467 36.590933l-0.426666 0.938667h-47.36a543.573333 543.573333 0 0 1-29.013334-0.768v11.3664a602.624 602.624 0 0 1 29.013334-0.768h7.253333l-0.443733 1.928533c-1.024 5.154133-2.542933 10.205867-4.5056 15.086934l-0.443734 0.853333h-9.728c-10.632533 0-19.8656-0.238933-28.142933-0.750933v12.253866a503.125333 503.125333 0 0 1 27.272533-0.785066h8.3968l-0.785066 2.1504a161.962667 161.962667 0 0 1-28.279467 49.8688 169.847467 169.847467 0 0 1-25.088 24.661333c4.8128 2.1504 9.1136 5.256533 12.629333 9.1648a420.881067 420.881067 0 0 0 22.698667-25.429333c6.775467-8.9088 12.714667-18.397867 17.749333-28.3648l1.536-2.850134 1.365334 2.9184c4.983467 11.605333 11.3664 22.545067 19.029333 32.597334l1.0752 1.28-1.365333 1.024a94.72 94.72 0 0 1-20.002134 10.581333c-8.260267 3.310933-16.7424 5.973333-25.412266 7.9872z m2.2016-152.234667c3.089067 7.406933 5.5808 15.018667 7.458133 22.818134a137.557333 137.557333 0 0 1 12.663467-4.266667c-1.672533-5.768533-4.266667-13.141333-7.697067-22.016-4.113067 1.28-8.260267 2.440533-12.424533 3.4816z m-75.4688 165.393067l-0.170667-1.655467a36.386133 36.386133 0 0 0-7.5776-17.408l-1.8432-2.5088h3.140267c6.314667 0.170667 12.663467-0.1024 18.944-0.853333 2.56-0.512 3.072-5.12 3.072-8.840533v-46.08c-7.560533 3.242667-14.916267 6.929067-22.033067 11.025066l-1.809067 1.1264-0.580266-2.048a80.384 80.384 0 0 0-6.8608-15.291733l-0.904534-1.6384 1.774934-0.6144a459.605333 459.605333 0 0 0 30.4128-11.6736v-42.4448h-3.652267a300.373333 300.373333 0 0 0-22.613333 0.853333l-1.706667 0.1536V773.290667l1.723733 0.136533c7.509333 0.597333 15.0528 0.887467 22.596267 0.853333h3.652267V751.616c0-8.516267-0.290133-16.64-0.8704-24.132267l-0.136534-1.706666h21.828267l-0.1536 1.706666c-0.580267 6.741333-0.8704 14.848-0.8704 24.132267v22.6816c7.304533-0.085333 14.626133-0.375467 21.9136-0.853333l1.6896-0.119467v18.107733l-1.6896-0.1024c-8.567467-0.512-15.9232-0.802133-21.9136-0.853333v35.037867c8.635733-3.5328 14.609067-6.144 17.800533-7.714134l2.304-1.143466V819.2c0 2.901333 0.3072 7.953067 0.8704 14.592l0.1024 1.0752-0.9728 0.477867c-3.5328 1.7408-10.461867 4.898133-20.104533 9.147733v57.9072c0 9.796267-1.604267 15.9744-4.898133 18.944-2.048 1.809067-7.2192 4.5568-28.8256 7.748267l-1.6384 0.273066z m-3.413334-18.432c3.072 4.437333 5.188267 9.489067 6.212267 14.813867 17.8688-2.730667 23.7568-5.154133 25.531733-6.741334 1.774933-1.570133 3.857067-5.717333 3.857067-16.5888v-59.972266l0.9216-0.4096c9.2672-4.061867 16.128-7.168 19.968-9.028267-0.341333-3.754667-0.580267-7.509333-0.733867-11.298133-3.857067 1.774933-9.898667 4.352-17.954133 7.645866l-2.218667 0.904534v-42.9568h1.604267c6.024533 0 13.243733 0.256 22.016 0.768v-11.383467c-8.465067 0.512-15.872 0.750933-22.016 0.750933h-1.5872V751.616c0-8.704 0.238933-16.1792 0.733867-22.698667h-14.916267c0.512 7.133867 0.750933 14.7456 0.750933 22.698667v25.838933h-6.826666c-7.611733 0-14.711467-0.238933-21.162667-0.7168v11.3152c7.099733-0.512 14.199467-0.750933 21.162667-0.750933h6.826666v47.684267l-0.955733 0.426666a442.88 442.88 0 0 1-29.815467 11.554134c2.184533 3.959467 4.0448 8.072533 5.597867 12.322133 4.9152-2.833067 12.629333-6.570667 22.920533-11.178667l2.2528-1.024v50.978134c0 7.168-1.877333 11.195733-5.632 11.946666a109.277867 109.277867 0 0 1-16.554666 0.938667z m133.154134-21.845333l-1.024-1.28a115.677867 115.677867 0 0 1-7.970134-11.434667 97.211733 97.211733 0 0 1-8.004266-15.837867l-0.8704-2.167466h39.748266l-0.955733 2.218666a88.405333 88.405333 0 0 1-8.021333 14.114134c-3.242667 4.949333-7.168 9.4208-11.639467 13.312l-1.262933 1.0752z m-13.141334-27.562667c1.911467 4.573867 4.1984 8.994133 6.826667 13.192533 2.440533 3.908267 4.7104 7.168 6.724267 9.796267 3.720533-3.447467 7.031467-7.338667 9.8304-11.5712 2.491733-3.652267 4.744533-7.458133 6.724266-11.400533H539.818667z m-0.085333-74.837333l-0.375467-1.826134a247.534933 247.534933 0 0 0-8.704-24.8832l-0.597333-1.621333 1.6896-0.477867c5.000533-1.2288 9.864533-2.935467 14.557867-5.085866l1.536-0.750934 0.682666 1.570134c3.413333 8.328533 6.638933 16.725333 9.642667 25.207466l0.546133 1.570134-1.621333 0.477866c-5.256533 1.536-10.478933 3.2768-15.616 5.1712l-1.7408 0.648534z m-5.461333-26.197334c4.096 10.8032 6.656 18.176 7.748266 21.947734 4.164267-1.467733 8.362667-2.850133 12.578134-4.113067a505.309867 505.309867 0 0 0-8.3968-21.947733 94.378667 94.378667 0 0 1-11.912534 4.113066z m-42.581334-6.331733l-0.375466-1.245867a48.008533 48.008533 0 0 0-7.6288-15.104l-1.911467-2.525866h3.191467c13.9776 0 30.549333-0.580267 49.322666-1.706667 18.7392-1.160533 32.802133-2.321067 41.847467-3.4816 7.168-0.768 14.2336-2.184533 21.128533-4.266667l1.450667-0.477866 0.546133 1.416533c1.809067 5.802667 5.256533 10.973867 9.898667 14.882133l3.754667 2.6112-4.573867 0.256c-10.4448 0.597333-27.050667 1.911467-49.3568 3.908267-21.8624 1.979733-44.066133 3.857067-66.048 5.632l-1.245867 0.1024z m-3.652266-15.701333c2.525867 3.822933 4.522667 7.970133 5.9392 12.322133 21.504-1.723733 43.298133-3.584 64.733866-5.512533 19.746133-1.774933 35.054933-3.003733 45.568-3.669334a39.424 39.424 0 0 1-7.4752-12.288c-6.638933 1.8432-13.4144 3.157333-20.2752 3.925334-9.096533 1.1776-23.261867 2.3552-42.069333 3.4816a859.374933 859.374933 0 0 1-46.421333 1.7408z m174.421333 14.882133V928.426667h-17.476267c0.5632-13.312 0.853333-25.4464 0.853334-36.4032v-112.64c0-11.554133-0.273067-25.1392-0.853334-40.7552H721.92a1079.569067 1079.569067 0 0 1-12.2368 38.570666 1481.045333 1481.045333 0 0 1-10.496 29.0304 138.666667 138.666667 0 0 1 17.493333 29.9008c2.798933 7.168 3.9936 14.848 3.498667 22.528-0.5632 7.168-3.310933 13.960533-7.867733 19.5072-4.676267 5.802667-15.752533 10.1376-33.2288 13.0048a68.215467 68.215467 0 0 0-7.867734-19.933866c7.68 0.3584 15.342933-0.512 22.7328-2.594134a13.277867 13.277867 0 0 0 8.2944-11.707733 38.4512 38.4512 0 0 0-5.239466-22.101333 290.781867 290.781867 0 0 0-16.1792-27.733334c7.5264-17.408 13.653333-35.3792 18.363733-53.76h-36.727467v0.017067z m111.479467 1.723733c-0.2048 11.281067 0.238933 22.562133 1.314133 33.792 1.365333 14.7456 4.898133 29.201067 10.478933 42.9056 5.102933 13.2608 11.383467 26.026667 18.807467 38.126934a157.508267 157.508267 0 0 0 19.234133 25.565866c5.461333 5.7856 11.451733 11.008 17.92 15.598934a65.7408 65.7408 0 0 0-13.994666 14.7456 192.512 192.512 0 0 1-31.0272-36.829867 253.832533 253.832533 0 0 1-29.303467-65.4336 218.811733 218.811733 0 0 1-12.680533 43.776c-5.12 10.820267-11.264 21.111467-18.363734 30.7712A164.625067 164.625067 0 0 1 707.925333 928.426667a38.144 38.144 0 0 0-14.848-13.8752 118.954667 118.954667 0 0 0 34.542934-32.0512 134.417067 134.417067 0 0 0 18.7904-39.0144c3.976533-13.277867 6.6048-26.914133 7.867733-40.721067 1.160533-13.277867 1.7408-25.412267 1.757867-36.4032 0-11.537067-0.580267-23.9616-1.757867-37.2736 7.253333 0.9728 14.557867 1.536 21.8624 1.7408a199.850667 199.850667 0 0 0-2.184533 24.2688z m-66.423467 175.752534l-0.955733-1.553067c-3.464533-5.632-8.3968-10.24-14.250667-13.312l-2.389333-1.28 2.286933-1.450667a118.016 118.016 0 0 0 34.0992-31.624533c8.209067-11.776 14.4896-24.797867 18.568533-38.5536 3.925333-13.192533 6.5536-26.7264 7.816534-40.430933 1.143467-13.312 1.7408-25.480533 1.7408-36.2496 0-11.332267-0.597333-23.825067-1.7408-37.137067l-0.170667-1.928533 1.9456 0.221866c7.185067 0.955733 14.421333 1.536 21.674667 1.723734h1.860266l-0.290133 1.826133c-1.194667 7.970133-1.928533 16.008533-2.167467 24.064-0.187733 11.229867 0.256 22.442667 1.314134 33.621333 1.365333 14.592 4.864 28.893867 10.376533 42.461867 5.0688 13.175467 11.3152 25.856 18.670933 37.888 5.461333 9.0624 11.844267 17.544533 19.0464 25.309867 5.358933 5.700267 11.298133 10.8544 17.681067 15.394133l1.7408 1.2288-1.655467 1.314133a64.512 64.512 0 0 0-13.687466 14.353067l-1.024 1.501867-1.365334-1.194667a195.293867 195.293867 0 0 1-31.300266-37.137067 246.1184 246.1184 0 0 1-27.648-60.16 201.216 201.216 0 0 1-11.537067 38.263467 191.1808 191.1808 0 0 1-18.5344 31.0272 166.775467 166.775467 0 0 1-28.672 30.634667l-1.4336 1.194666z m-11.400533-16.349867c4.829867 2.935467 8.994133 6.877867 12.168533 11.554133a163.925333 163.925333 0 0 0 26.760533-28.859733c7.0144-9.5744 13.1072-19.797333 18.210134-30.498133 5.666133-14.011733 9.8816-28.5696 12.561066-43.451734l1.245867-5.973333 1.8432 5.819733c6.587733 22.9376 16.384 44.834133 29.098667 65.024 8.379733 12.885333 18.261333 24.746667 29.422933 35.328 3.345067-4.573867 7.2704-8.704 11.656533-12.288a126.805333 126.805333 0 0 1-16.469333-14.574933 160.836267 160.836267 0 0 1-19.456-25.838933 233.130667 233.130667 0 0 1-18.944-38.4 152.1664 152.1664 0 0 1-10.581333-43.349334 300.987733 300.987733 0 0 1-1.3312-33.962666c0.221867-7.594667 0.8704-15.1552 1.928533-22.664534a228.7104 228.7104 0 0 1-18.244267-1.501866c1.024 12.680533 1.5872 24.610133 1.5872 35.4816 0 10.8544-0.580267 23.1424-1.757866 36.522666-1.28 13.909333-3.925333 27.665067-7.918934 41.045334a136.738133 136.738133 0 0 1-19.029333 39.424 119.773867 119.773867 0 0 1-32.768 31.1808v-0.017067z m-32.068267 15.530667h-20.736l0.068267-1.655467c0.546133-12.117333 0.853333-24.234667 0.8704-36.352v-112.64c0-11.332267-0.290133-25.019733-0.853334-40.669867l-0.085333-1.6384h80.759467l-0.631467 2.048a1120.7168 1120.7168 0 0 1-12.253867 38.621867 1354.154667 1354.154667 0 0 1-10.24 28.296533 138.154667 138.154667 0 0 1 17.2032 29.576534c2.884267 7.3728 4.096 15.3088 3.584 23.210666a36.6592 36.6592 0 0 1-8.192 20.3776c-4.9664 6.144-16.162133 10.581333-34.218666 13.568l-1.4848 0.238934-0.341334-1.450667a66.56 66.56 0 0 0-7.68-19.456l-1.450666-2.389333h2.8672c7.4752 0.341333 14.967467-0.512 22.1696-2.5088a11.707733 11.707733 0 0 0 7.287466-10.427734 37.188267 37.188267 0 0 0-5.12-21.179733 292.1472 292.1472 0 0 0-16.0768-27.579733l-0.512-0.768 0.4096-0.802134c7.236267-16.657067 13.141333-33.860267 17.664-51.456H664.064v175.069867-0.0512z m-17.408-3.1744h14.2336V751.786667h40.448l-0.5632 2.013866A378.453333 378.453333 0 0 1 682.666667 806.997333c5.751467 8.7552 11.008 17.8176 15.786666 27.136 4.078933 6.9632 5.956267 14.984533 5.393067 23.04a14.7968 14.7968 0 0 1-9.3184 12.970667c-6.656 1.979733-13.6192 2.884267-20.565333 2.679467 2.798933 5.2224 4.932267 10.786133 6.3488 16.554666 16.145067-2.798933 26.504533-6.894933 30.7712-12.1856 4.352-5.290667 6.980267-11.793067 7.509333-18.6368a51.029333 51.029333 0 0 0-3.396267-21.845333 138.052267 138.052267 0 0 0-17.288533-29.525333l-0.512-0.699734 0.3072-0.785066c4.096-10.990933 7.611733-20.736 10.478933-28.996267 2.8672-8.2432 6.741333-20.445867 11.605334-36.471467H646.656c0.546133 15.018667 0.802133 28.16 0.802133 39.150934v112.674133a934.877867 934.877867 0 0 1-0.802133 34.816v-0.034133zM747.52 494.967467V619.52h-158.72v76.8h-153.6v-76.8h-158.72v-124.552533a76.663467 76.663467 0 0 1-35.84-64.887467v-40.96a76.8 76.8 0 0 1 76.8-76.8h81.92c1.604267 0 3.140267 0.2048 4.727467 0.3072A51.712 51.712 0 0 1 409.6 312.32h209.92c0.9728 0 1.928533 0.085333 2.901333 0.1536 0.733867 0 1.467733-0.1536 2.218667-0.1536h81.92a76.8 76.8 0 0 1 76.8 76.8v40.96c0 26.350933-13.533867 50.858667-35.84 64.887467z m-377.344 13.858133A50.978133 50.978133 0 0 1 358.4 476.16v-112.64c0-5.205333 0.785067-10.3936 2.3552-15.36H332.8a56.32 56.32 0 0 0-56.32 56.32v20.48h40.96v158.72h81.92v-53.998933a58.948267 58.948267 0 0 1-29.184-20.855467zM629.76 389.12a40.96 40.96 0 0 0-40.96-40.96h-153.6a40.96 40.96 0 0 0-40.96 40.96V460.8a40.96 40.96 0 0 0 40.96 40.96v-76.8h40.96v235.52h76.8V424.96h35.84v76.8a40.96 40.96 0 0 0 40.96-40.96v-71.68z m122.88 15.36a56.32 56.32 0 0 0-56.32-56.32h-27.9552c1.570133 4.9664 2.3552 10.154667 2.3552 15.36v112.64a50.978133 50.978133 0 0 1-11.776 32.6656 58.811733 58.811733 0 0 1-34.304 22.2208V583.68h81.92v-158.72h46.08v-20.48z m-155.016533-133.290667a114.944 114.944 0 0 1-173.226667 3.447467 76.834133 76.834133 0 1 1-26.709333-105.028267 115.0976 115.0976 0 0 1 224.221866 2.781867 76.8 76.8 0 1 1-24.285866 98.798933z m-201.898667-56.558933a22.818133 22.818133 0 0 1-4.0448 0.4096h-66.56c-1.518933 0-3.0208-0.170667-4.5056-0.4608a40.96 40.96 0 1 0 78.711467 16.452267 114.807467 114.807467 0 0 1-3.618134-16.384zM547.84 158.72c-17.646933 0-32.631467 8.379733-38.4 20.104533-5.768533-11.7248-20.753067-20.104533-38.4-20.104533-22.613333 0-40.96 13.755733-40.96 30.72 0 45.243733 34.116267 81.92 79.36 81.92 45.243733 0 79.36-36.676267 79.36-81.92 0-16.964267-18.346667-30.72-40.96-30.72z m117.76 112.64a40.96 40.96 0 0 0 37.7856-56.7808 23.108267 23.108267 0 0 1-4.5056 0.4608h-66.56c-1.518933 0-3.0208-0.170667-4.5056-0.4608A40.96 40.96 0 0 0 665.6 271.36z" fill="#00FF00" /></svg>