<?xml version="1.0" standalone="no"?><!DOCTYPE svg PUBLIC "-//W3C//DTD SVG 1.1//EN" "http://www.w3.org/Graphics/SVG/1.1/DTD/svg11.dtd"><svg class="icon" width="1000px" height="1000.00px" viewBox="0 0 1024 1024" version="1.1" xmlns="http://www.w3.org/2000/svg"><path d="M757.418667 742.485333h-8.686934l18.346667-18.3296v8.704l-9.642667 9.6256z m-34.730667 0l44.3904-44.373333v8.686933l-35.6864 35.6864h-8.704z m-26.077867 0l70.468267-70.4512v8.686934l-61.781333 61.781333h-8.686934z m-24.337066 0l94.805333-94.788266v8.686933l-86.101333 86.101333h-8.704z m-26.077867 0l120.8832-120.866133v8.686933l-112.1792 112.1792h-8.704z m-26.077867 0l146.961067-146.944v8.686934l-138.257067 138.257066h-8.704z m-26.077866 0l173.038933-173.021866v8.686933l-164.352 164.352h-8.686933z m-24.337067 0l197.376-197.358933v8.686933L578.389333 742.485333h-8.686933z m84.872533-110.933333l112.503467-112.503467v8.686934l-126.498133 126.498133c5.0176-7.338667 9.693867-14.916267 13.994666-22.698667z m21.674667-47.752533l90.8288-90.8288v8.686933l-96.648533 96.648533c2.048-4.8128 3.976533-9.642667 5.802666-14.506666z m12.7488-38.826667l78.08-78.08v8.686933l-81.698133 81.698134c1.262933-4.096 2.474667-8.192 3.618133-12.305067z m7.850667-32.2048l70.229333-70.229333v8.704l-72.669867 72.686933c0.853333-3.720533 1.672533-7.424 2.440534-11.1616z m5.666133-31.744l64.5632-64.546133v8.686933l-66.184533 66.184533c0.580267-3.447467 1.1264-6.877867 1.621333-10.325333z m3.652267-29.730133l60.910933-60.893867v8.686933l-61.952 61.952c0.392533-3.259733 0.733867-6.5024 1.058133-9.728z m2.133333-28.2112l58.7776-58.760534v8.704l-59.3408 59.323734c0.221867-3.106133 0.4096-6.1952 0.5632-9.2672z m0.9728-27.0336l57.8048-57.8048v8.704l-58.026667 57.992533c0.1024-2.9696 0.170667-5.9392 0.221867-8.891733z m0-24.354134l57.8048-57.787733v8.686933l-57.7024 57.7024-0.085333-8.6016z m-30.805333 4.744534l88.610133-88.610134v8.704l-86.698667 86.664534a133.751467 133.751467 0 0 0-1.911466-6.7584z m-8.123734-17.9712l96.733867-96.7168v8.704l-93.576533 93.559466a56.610133 56.610133 0 0 0-3.140267-5.546666z m-13.431466-12.629334l110.165333-110.165333v8.704L662.186667 349.2352a31.4368 31.4368 0 0 0-5.290667-3.413333z m-20.292267-4.061866l130.4576-130.440534v8.686934l-122.2144 122.197333a58.743467 58.743467 0 0 0-8.2432-0.443733z m-20.992 2.184533a273.066667 273.066667 0 0 0-8.874667 1.604267l160.324267-160.3072v8.704l-149.76 149.742933-1.6896 0.273067z m-45.738667 12.3904L767.095467 159.1808v8.704L583.560533 351.368533c-4.898133 1.536-9.454933 3.191467-13.653333 4.9664zM351.8976 548.3008l137.864533-137.864533 0.119467 0.170666c0.426667-0.477867 0.8192-0.9728 1.194667-1.4848L767.0784 133.12v8.704l-412.842667 412.842667c-0.785067-2.048-1.570133-4.164267-2.3552-6.3488z m141.141333-165.4784L752.913067 122.9312h8.704L495.0528 389.461333a26.094933 26.094933 0 0 0-2.048-6.656z m-11.810133-14.2848L726.8352 122.9312h8.704L485.7856 372.650667a52.5312 52.5312 0 0 0-4.590933-4.096z m-16.2304-9.8304L700.757333 122.9312h8.704L470.715733 361.642667a102.741333 102.741333 0 0 0-5.751466-2.935467z m-18.875733-7.2192L674.679467 122.9312h8.704l-230.741334 230.724267a173.687467 173.687467 0 0 0-6.536533-2.167467z m-19.370667-4.949333L650.3424 122.914133h8.704L433.834667 348.125867a250.146133 250.146133 0 0 0-7.082667-1.604267z m-22.357333-3.754667L624.2816 122.948267h8.704L412.023467 343.842133a208.162133 208.162133 0 0 0-7.645867-1.041066z m-27.648 1.5872L598.186667 122.9312h8.704L387.601067 342.186667a41.8816 41.8816 0 0 0-10.888534 2.184533zM317.44 377.617067L572.1088 122.9312h8.704l-262.843733 262.826667a660.138667 660.138667 0 0 1-0.546134-8.1408z m-0.938667-21.981867l-0.119466 5.649067-61.9008 61.9008v-8.704L546.030933 122.948267h8.704l-238.08 238.08a640.341333 640.341333 0 0 1-0.170666-5.376zM254.464 390.144L521.693867 122.9312h8.704L254.464 398.848v-8.704z m0-26.077867l241.152-241.152h8.704l-249.856 249.856v-8.704z m0-26.077866L469.538133 122.9312h8.704L254.464 346.692267v-8.704z m0-26.077867L443.460267 122.9312h8.704L254.464 320.6144v-8.686933z m0-24.337067l164.6592-164.6592h8.704L254.464 296.277333v-8.704z m0-26.077866l138.581333-138.581334h8.686934l-147.268267 147.268267v-8.704z m0-26.077867l112.503467-112.503467h8.704l-121.207467 121.1904v-8.704z m0-26.077867l86.4256-86.4256h8.704l-95.1296 95.112534v-8.704z m0-24.337066l62.088533-62.088534h8.704L254.464 193.706667v-8.704z m0-26.077867l36.010667-36.010667h8.704l-44.714667 44.714667v-8.704z m0-26.077867l9.9328-9.9328h8.704L254.464 141.550933v-8.704z m61.986133 254.4128l-61.986133 61.986134v-8.686934l61.832533-61.832533c0.034133 2.8672 0.068267 5.717333 0.1536 8.533333z m1.058134 25.019734l-63.044267 63.044266v-8.704l62.583467-62.583466c0.136533 2.7648 0.290133 5.512533 0.4608 8.2432z m1.962666 24.1152l-65.006933 65.024v-8.704l64.256-64.256 0.750933 7.936z m2.781867 23.296l-67.7888 67.7888v-8.704l66.781867-66.7648c0.324267 2.577067 0.648533 5.154133 1.006933 7.68z m3.2768 21.077333l-71.0656 71.048533v-8.704l69.802667-69.802666 1.245866 7.458133z m4.164267 21.896533l-75.229867 75.229867v-8.686933l73.762133-73.762134c0.477867 2.440533 0.9728 4.846933 1.467734 7.2192z m4.829866 21.248L254.464 603.989333v-8.704l78.3872-78.370133c0.546133 2.372267 1.109333 4.7104 1.672533 6.997333z m5.461334 20.599467l-85.521067 85.538133v-8.704l83.626667-83.626666c0.648533 2.304 1.262933 4.573867 1.911466 6.792533z m5.666133 18.688l-91.1872 91.1872v-8.704l89.088-89.088c0.682667 2.218667 1.399467 4.4032 2.0992 6.6048z m2.184533-26.5216a551.492267 551.492267 0 0 1-2.1504-6.5536l131.413334-131.413333c1.792 1.194667 3.447467 2.4576 4.983466 3.720533l-134.2464 134.2464z m-6.2464-19.831467a590.1312 590.1312 0 0 1-1.9456-6.7584l120.4224-120.405333c2.082133 0.8704 4.061867 1.774933 5.973334 2.696533l-124.450134 124.4672z m-5.632-20.445866a615.714133 615.714133 0 0 1-1.7408-6.946134l106.410667-106.410666c2.286933 0.648533 4.522667 1.314133 6.690133 1.9968l-111.36 111.36z m-5.000533-21.077334a593.749333 593.749333 0 0 1-1.536-7.168l89.924267-89.9072c2.474667 0.443733 4.898133 0.9216 7.2704 1.416534l-95.658667 95.658666z m-4.096-20.241066a654.336 654.336 0 0 1-1.314133-7.3728l72.3456-72.3456c2.56 0.170667 5.188267 0.426667 7.918933 0.768l-78.9504 78.9504z m27.374933-53.4528c6.229333-14.677333 14.455467-21.879467 24.797867-24.797867l-24.797867 24.797867z m-31.095466 31.095466a659.012267 659.012267 0 0 1-1.0752-7.611733l26.077866-26.094933c0.631467 2.082133 1.621333 4.0448 2.901334 5.802666l-27.904 27.904z m-3.805867-30.958933l36.164267-36.181333a93.969067 93.969067 0 0 0-5.137067 13.841066l-30.208 30.208a749.448533 749.448533 0 0 1-0.8192-7.867733z m32.955733 180.872533l-97.826133 97.826134v-8.704l95.556267-95.5392 2.269866 6.417066z m7.287467 18.807467L254.464 706.56v-8.704l102.621867-102.6048c0.853333 2.184533 1.672533 4.2496 2.474666 6.1952z m7.9872 18.090667l-113.1008 113.083733v-8.704l110.336-110.318933 2.7648 5.9392z m8.430933 15.906133l-107.042133 107.025067h-8.704l112.605867-112.5888c1.024 1.877333 2.082133 3.7376 3.1232 5.563733z m9.984 16.093867l-90.965333 90.9312h-8.669867l96.187734-96.187734 3.4304 5.256534z m10.9568 15.121066l-75.8272 75.810134h-8.704l80.759467-80.7424c1.245867 1.672533 2.5088 3.310933 3.754667 4.932266z m11.9808 14.08l-61.730133 61.730134h-8.704l66.321067-66.304c1.365333 1.553067 2.730667 3.072 4.113066 4.573866z m12.219734 12.117334l-49.6128 49.6128h-8.704l53.828266-53.8112c1.501867 1.450667 2.986667 2.850133 4.488534 4.215466z m14.267733 11.810133l-37.802667 37.802667h-8.704l41.591467-41.591467c1.655467 1.314133 3.2768 2.577067 4.9152 3.7888z m15.6672 10.410667l-27.392 27.392h-8.704l30.702933-30.685867c1.809067 1.160533 3.601067 2.2528 5.393067 3.293867z m17.2544 8.823466l-18.568533 18.568534h-8.704l21.333333-21.316267c2.013867 0.989867 3.9936 1.8944 5.9392 2.747733z m19.234133 6.843734l-11.7248 11.7248h-8.704l13.7728-13.755734c2.286933 0.768 4.5056 1.450667 6.656 2.048z m20.394667 3.9424l-7.7824 7.7824h-8.704l8.840533-8.823467c2.901333 0.494933 5.461333 0.8192 7.645867 1.041067z m-14.728533-35.669334a136.004267 136.004267 0 0 1-6.912-1.809066l208.554666-208.554667c-0.8704 3.84-1.792 7.645867-2.7648 11.4688L493.226667 699.016533z m83.797333-109.909333c2.304-4.010667 3.7888-8.430933 4.352-13.038933l119.825067-119.808c-0.5632 3.498667-1.194667 6.997333-1.826134 10.513066L577.024 589.141333z m1.4336-27.4944a23.808 23.808 0 0 0-3.805867-4.898133l130.696534-130.679467c-0.3584 3.2768-0.768 6.570667-1.194667 9.864533l-125.696 125.713067z m-14.045867-12.014933a74.6496 74.6496 0 0 0-5.973333-2.730667l149.418667-149.418667c-0.2048 3.106133-0.426667 6.229333-0.682667 9.3696l-142.762667 142.779734z m-38.741333-11.707734c-2.338133-0.4608-4.778667-0.9216-7.3216-1.365333l148.992-148.992c1.3312 1.621333 2.542933 3.310933 3.618133 5.0688l-145.271466 145.288533z m-23.483733-2.577066a66.423467 66.423467 0 0 0-10.0352 1.3312l159.709866-159.6928c2.0992 0.6656 4.1472 1.536 6.075734 2.628266l-155.7504 155.733334z m-105.949867 97.262933l50.8416-50.824533c0.853333 1.979733 1.826133 3.925333 2.901333 5.802666l-49.885866 49.8688a279.722667 279.722667 0 0 1-3.857067-4.846933z m11.9296 14.165333l74.0352-74.052266c3.874133-1.399467 7.867733-2.491733 11.946667-3.242667l-81.7664 81.749333a218.077867 218.077867 0 0 1-4.215467-4.471466z m13.038933 13.021867l90.9824-90.9824c0.9728 0.1024 1.928533 0.2048 2.901334 0.3584l4.608 0.8192-93.866667 93.866667c-1.536-1.314133-3.072-2.6624-4.608-4.078934z m13.294934 11.042133l98.2528-98.2528c2.4576 0.546133 4.8128 1.092267 7.031466 1.655467l-100.2496 100.266667c-1.706667-1.194667-3.3792-2.423467-5.034666-3.669334z m38.8608 21.998934a152.814933 152.814933 0 0 1-6.144-2.56l103.594666-103.594667c1.655467 1.194667 3.208533 2.56 4.608 4.078933l-102.058666 102.058667z m-23.296-11.485867l103.185066-103.185067c2.2528 0.785067 4.352 1.5872 6.2976 2.389334l-103.936 103.936c-1.826133-0.989867-3.669333-2.048-5.546666-3.157334z m10.205866-130.1504a91.8016 91.8016 0 0 0-14.045866 12.458667 7.560533 7.560533 0 0 0-1.6896 3.242666l-55.688534 55.7056c-1.1776-1.706667-2.3552-3.413333-3.515733-5.1712l241.851733-241.851733c3.2256-0.341333 6.314667-0.5632 9.284267-0.597333L460.288 551.185067z m-80.9984 56.661333a270.506667 270.506667 0 0 1-3.242666-5.461333l221.661866-221.661867c3.5328-0.853333 7.2192-1.621333 11.025067-2.338133L379.272533 607.8464z m-20.155733-40.686933l175.7696-175.786667a36.7104 36.7104 0 0 0 0.443733 8.260267L361.659733 573.269333a482.781867 482.781867 0 0 1-2.56-6.144v0.034134z m10.769067 23.978667a249.309867 249.309867 0 0 1-2.833067-5.8368l188.2112-188.245334c5.495467-3.396267 11.298133-6.280533 17.322667-8.618666L369.885867 591.138133zM708.744533 380.928l-161.962666 161.962667a185.856 185.856 0 0 0-6.8608-1.826134l136.704-136.704c0.238933 0.648533 0.494933 1.28 0.7168 1.9456 1.706667-1.911467 3.037867-4.1472 3.8912-6.570666l27.818666-27.818667c-0.085333 2.986667-0.170667 5.9904-0.3072 9.0112z m-27.648 156.3136l-164.693333 164.693333h-0.1024a64.392533 64.392533 0 0 1-8.192-0.4096l177.2032-177.2032c-1.348267 4.317867-2.747733 8.618667-4.232533 12.919467z m-145.578666 195.9936l-9.2672 9.250133h-8.704l7.850666-7.850666c3.396267-0.3072 6.7584-0.785067 10.103467-1.399467z m-1.9456-32.836267l137.984-138.001066a411.989333 411.989333 0 0 1-6.792534 15.496533l-120.064 120.064a113.92 113.92 0 0 1-11.127466 2.440533z m41.130666-15.0528l69.0688-69.085866c-14.250667 21.8112-37.614933 51.029333-69.0688 69.085866z m3.925334 30.856534l-26.299734 26.282666h-8.704l16.861867-16.8448a137.5232 137.5232 0 0 0 18.1248-9.437866z" fill="#EE2928" /><path d="M862.958933 1024h-703.146666A159.914667 159.914667 0 0 1 0 864V160A159.914667 159.914667 0 0 1 159.812267 0h703.146666a159.914667 159.914667 0 0 1 159.812267 160v704A159.914667 159.914667 0 0 1 862.958933 1024z m127.8464-832a159.914667 159.914667 0 0 0-159.812266-159.982933H191.761067a159.914667 159.914667 0 0 0-159.7952 159.982933v640a159.914667 159.914667 0 0 0 159.7952 160h639.232a159.914667 159.914667 0 0 0 159.812266-160v-640z m-136.823466 648.362667v65.3824h44.3392v-33.570134c0-3.3792-0.290133-8.482133-0.8704-15.6672l-0.238934-2.7648h24.9856l-0.221866 2.7648c-0.580267 7.4752-0.8704 12.7488-0.8704 15.6672v37.0176c0 8.772267 0.290133 17.6128 0.8704 26.2656l0.187733 2.730667h-23.842133v-13.226667H764.757333l0.238934-2.7648c0.580267-7.2704 0.887467-14.5408 0.8704-21.845333v-27.306667c0-2.184533-0.273067-7.168-0.8704-15.684266l-0.2048-2.730667h24.9344l-0.2048 2.730667c-0.7168 10.052267-0.8704 14.08-0.8704 15.684266v32.699734h43.451733v-65.399467H771.072c-12.731733 0-23.381333 0.290133-31.607467 0.8704l-2.730666 0.187733v-21.333333l2.730666 0.187733c8.0896 0.580267 18.432 0.8704 30.72 0.8704h61.917867v-31.8976h-42.478933c-10.990933 0-20.445867 0.290133-28.074667 0.8704l-2.747733 0.2048V767.146667l2.781866 0.238933c7.168 0.597333 16.64 1.194667 28.16 1.757867h42.359467v-15.069867a166.331733 166.331733 0 0 1-0.887467-18.517333v-2.56h23.893334l-0.221867 2.781866c-0.580267 6.912-0.8704 13.056-0.8704 18.295467v15.069867h43.349333c10.5472 0 20.002133-0.290133 28.074667-0.887467l2.747733-0.170667v22.203734l-2.730666-0.170667a406.4256 406.4256 0 0 0-28.091734-0.887467h-43.349333v31.914667h64.546133c11.690667 0 21.435733-0.3072 28.945067-0.8704l2.747733-0.221867v21.367467l-2.730666-0.2048a397.175467 397.175467 0 0 0-28.962134-0.853333h-64.5632z m-126.72 70.656l-4.369067 4.369066c-4.846933 4.7616-8.277333 10.752-9.9328 17.322667l-0.597333 2.372267-2.389334-0.477867a210.602667 210.602667 0 0 1-42.018133-12.936533c-13.1584-5.6832-23.9616-12.356267-32.085333-19.8656a155.562667 155.562667 0 0 1-21.0944-23.739734l-0.9728-1.3824c-5.973333 5.3248-12.356267 10.171733-19.0976 14.506667v18.3296c8.072533-4.181333 15.872-8.823467 23.381333-13.9264l3.9936-2.645333v4.778666c0.136533 5.461333 1.570133 10.786133 4.1472 15.598934l1.143467 2.286933-2.286934 1.143467c-3.652267 1.826133-9.728 5.154133-17.527466 9.6256-8.106667 4.608-16.008533 9.557333-23.671467 14.865066l-2.338133 1.621334-1.365334-2.491734a50.5856 50.5856 0 0 0-10.9056-14.2848l-2.56-2.184533 2.798934-1.877333c2.7648-1.8432 4.164267-5.853867 4.164266-11.963734v-5.973333c-12.970667 7.7312-26.5728 14.370133-40.6528 19.797333l-2.184533 0.853334-1.041067-2.082134a50.773333 50.773333 0 0 0-11.776-15.104l-3.9936-3.5328 5.290667-0.887466c6.843733-1.1264 16.0256-4.061867 27.255467-8.6528 11.264-4.608 22.0672-10.2912 32.256-16.964267 5.973333-3.84 11.741867-8.021333 17.271466-12.4928h-33.109333c-10.3424 0-22.801067 0.290133-36.983467 0.8704l-2.6624 0.1024v-20.309333l2.6624 0.119466c13.909333 0.597333 26.350933 0.887467 36.983467 0.887467h47.104a307.882667 307.882667 0 0 0-3.618133-12.561067l-0.9216-2.986666 3.106133-0.3072c5.5296-0.512 10.922667-1.9456 15.991467-4.1984l2.645333-1.1776 0.853333 2.7648 5.632 18.466133h52.855467c8.874667 0 20.411733-0.290133 34.321067-0.887467l2.679466-0.1024v20.309334l-2.6624-0.1024a863.232 863.232 0 0 0-34.338133-0.887467h-57.361067l0.221867 0.324267c7.509333 10.24 16.896 18.961067 27.665067 25.685333 11.264-10.24 18.3296-17.92 21.0432-22.749867l1.399466-2.5088 2.338134 1.672534c5.922133 4.437333 11.605333 9.216 17.015466 14.2848l3.703467 3.413333-4.932267 0.9728c-1.757867 0.3584-5.0688 1.706667-10.871466 6.144-3.908267 2.9696-7.901867 6.0416-11.963734 9.198933 15.837867 6.3488 31.368533 9.557333 46.165334 9.557334h6.1952z m-100.9664-45.994667c-1.092267 1.4336-2.218667 2.850133-3.396267 4.266667l4.266667-4.266667h-0.853334z m82.773333-35.822933a57.685333 57.685333 0 0 1-18.0224 2.338133h-48.571733c-5.888-0.3584-10.0352-2.082133-12.509867-5.12a11.776 11.776 0 0 1-2.542933-6.519467c-7.68 3.618133-17.152 7.4752-28.228267 11.485867l-2.542933 0.9216-0.785067-2.594133c-1.706667-5.4784-5.12-10.274133-9.728-13.704534l-4.317867-3.362133 5.376-1.143467c15.496533-3.328 28.757333-7.4752 39.4752-12.356266v-27.528534h-17.7664c-5.905067 14.779733-13.585067 27.118933-22.869333 36.676267-9.557333 9.8304-24.6272 20.224-44.8 30.890667l-2.594133 1.365333-1.024-2.7648c-2.0992-5.802667-7.031467-10.6496-14.626134-14.4384l-5.751466-2.884267 6.144-1.860266c18.978133-5.717333 33.3824-12.8 42.769066-21.060267 8.260267-7.168 14.882133-16.008533 19.456-25.941333h-23.5008c-12.731733 0-23.978667 0.3072-33.399466 0.887466l-2.7136 0.170667v-21.435733l2.833066 0.3072c11.0592 1.160533 22.1696 1.7408 33.28 1.7408h28.791467c1.9968-10.990933 2.730667-19.234133 2.218667-24.507734l-0.341334-3.4816 3.4304 0.733867c8.192 1.757867 15.872 3.242667 22.852267 4.4032l4.471467 0.733867-2.952534 3.447466c-2.901333 3.3792-5.205333 9.659733-6.8608 18.688h46.5408a278.698667 278.698667 0 0 0-14.574933-8.413866l-2.389333-1.28 1.4336-2.338134c2.901333-4.6592 5.546667-9.045333 7.901866-13.141333l1.2288-2.1504 2.184534 1.1776c8.789333 4.676267 17.408 9.728 25.787733 15.086933l2.474667 1.5872-8.0896 9.454934h8.6528c10.786133 0.170667 21.589333-0.426667 32.3072-1.723734l2.9184-0.426666v21.504l-2.679467-0.1536a715.3152 715.3152 0 0 0-32.546133-0.853334h-2.594134l0.256 0.341334c4.181333 5.8368 8.8064 11.332267 13.858134 16.4352l3.771733 3.754666-5.290667 0.597334c-5.034667 0.5632-11.9296 2.730667-20.48 6.417066-8.328533 3.601067-17.442133 7.611733-27.374933 11.9808 0.477867 0.546133 2.048 1.655467 7.150933 2.082134l35.106134-0.017067c3.566933 0 6.178133-0.580267 7.799466-1.7408 0.221867-0.1536 2.218667-1.877333 3.805867-14.5408l0.546133-4.437333 3.566934 2.730666c4.573867 3.6864 9.949867 6.2464 15.701333 7.458134l2.679467 0.529066-0.7168 2.645334c-3.857067 14.1312-8.157867 21.5552-13.568 23.3472z m-61.371733-39.253334c4.096-1.757867 9.045333-4.1984 14.762666-7.287466 7.389867-3.959467 12.834133-7.68 16.1792-11.008l0.0512-0.0512h-30.993066v18.346666z m-131.396267-88.029866s-85.333333 3.652267-145.066667-108.168534c0 0-92.330667-169.745067-37.6832-403.4048 5.7344-4.727467 33.826133-96.9216 180.292267-96.9216 7.7312 0 171.7248 3.413333 185.617067 119.2448 9.284267 77.346133 28.962133 237.329067-39.338667 374.9376 0 0-51.8656 113.3568-143.8208 114.312534z m-102.024533-357.717334c-33.723733-5.4784-55.466667-4.096-66.389334 44.885334-4.778667 21.521067 22.9888 34.065067 66.389334 35.0208 66.2528 1.467733 81.186133-8.789333 81.134933-30.72-0.068267-22.084267-29.354667-40.772267-81.134933-49.186134z m31.9488 219.426134c-10.922667 11.997867 23.108267 65.297067 66.389333 62.088533 40.840533-3.037867 70.621867-32.221867 68.846933-54.101333-1.297067-15.906133-14.677333-26.897067-66.389333-35.6352-25.122133-4.266667-52.1728 9.386667-68.846933 27.648z m235.554133-174.728534c-10.871467-49.032533-32.529067-50.414933-66.133333-44.919466-51.592533 8.413867-80.776533 27.136-80.8448 49.237333-0.068267 21.9648 14.830933 32.256 80.8448 30.7712 43.229867-0.955733 70.912-13.5168 66.133333-35.089067zM506.4704 612.181333c-14.916267 0.119467-29.952 1.160533-28.279467-8.6016 0.494933-2.833067 13.397333 3.959467 15.991467-2.4576 0.5632-1.399467 11.1616-2.321067 18.432-2.4576 9.181867-0.170667 14.011733 0.512 14.7456 1.2288 3.208533 3.3792 5.393067 3.84 6.144 3.6864 11.264-2.235733 13.4144 2.491733 12.509867 3.652267-7.406933 9.5232-15.069867 4.778667-39.543467 4.949333z m-175.291733 153.344c0-9.745067-0.3072-20.0704-0.887467-30.72l-0.1536-2.679466h23.0912l-0.170667 2.696533c-0.580267 9.847467-0.8704 19.285333-0.8704 28.0576v20.548267l0.238934-0.085334c5.085867-1.4336 9.898667-3.6864 14.250666-6.673066l2.321067-1.655467 1.024 1.809067V758.442667l2.696533 0.136533c10.990933 0.597333 20.753067 0.887467 29.013334 0.887467h11.383466a152.234667 152.234667 0 0 0 6.382934-28.603734l0.375466-3.191466 3.037867 1.092266c6.587733 2.389333 13.277867 4.420267 20.0704 6.0928l5.205333 1.314134-4.3008 3.2256c-0.631467 0.4608-3.054933 3.310933-8.6016 20.0704h41.5232c8.2432 0 17.698133-0.290133 28.1088-0.887467l2.7136-0.1536v21.282133l-2.7136-0.170666c-10.24-0.580267-19.131733-0.853333-27.221333-0.853334h-48.657067a507.665067 507.665067 0 0 1-19.456 38.946134h23.1424c-0.0512-7.918933-0.341333-15.8208-0.853333-23.722667l-0.187733-2.730667h23.108266l-0.170666 2.730667c-0.512 9.1648-0.802133 17.134933-0.853334 23.722667h46.08l-0.170666 2.730666c-0.580267 8.448-0.8704 16.913067-0.887467 25.378134v33.501866c0 8.925867-1.4848 15.069867-4.539733 18.807467-1.928533 2.3552-6.792533 6.058667-26.538667 10.990933l-2.594133 0.648534-0.529067-2.628267a53.162667 53.162667 0 0 0-7.611733-17.646933l-2.491734-3.925334h4.6592c14.301867 0 16.725333-1.467733 17.066667-1.757866 0.324267-0.4096 1.570133-2.525867 1.570133-10.666667v-36.215467h-24.029866v61.781334c0 11.178667 0.290133 23.296 0.887466 36.010666l0.119467 2.679467h-23.04l0.136533-2.679467c0.580267-12.407467 0.8704-24.5248 0.8704-36.010666v-61.781334h-22.237866v71.3728h-22.084267l0.170667-2.730666c0.597333-8.823467 0.887467-17.9712 0.887466-27.136v-31.163734c-5.290667 6.8096-10.888533 13.3632-16.759466 19.677867l-1.928534 2.082133-1.877333-2.133333a81.578667 81.578667 0 0 0-14.557867-12.8l-2.1504-1.518933v42.5984c0 12.919467 0.3072 25.941333 0.887467 38.673066l0.119467 2.6624h-23.005867l0.119467-2.6624c0.580267-13.6192 0.8704-26.624 0.8704-38.673066V795.136a716.987733 716.987733 0 0 1-14.455467 45.294933l-0.9216 2.594134-2.525867-1.109334a83.456 83.456 0 0 0-15.4112-5.12l-3.0208-0.682666 1.2288-2.833067c7.2192-17.083733 12.4928-34.935467 15.735467-53.213867l0.6144-3.345066 3.054933 1.536c4.9664 2.372267 10.257067 4.0448 15.701334 4.983466v-17.698133z m21.009066 85.879467l2.0992-1.553067a134.365867 134.365867 0 0 0 30.327467-32c8.3456-12.3392 15.4624-25.463467 21.230933-39.202133h-4.096c-8.106667 0-17.578667 0.290133-29.013333 0.887467l-1.143467 0.0512c5.12 9.216 10.069333 18.551467 14.779734 27.989333l1.143466 2.269867-2.286933 1.143466a110.523733 110.523733 0 0 0-14.677333 8.618667l-2.696534 1.911467-1.194666-3.072a162.338133 162.338133 0 0 0-14.472534-29.457067v62.4128z m-78.472533-3.191467c-5.410133 1.194667-10.922667 1.826133-16.452267 1.826134a84.0704 84.0704 0 0 1-16.401066-1.826134c-7.168-1.416533-11.1104-7.543467-11.776-18.210133v-13.824a59.904 59.904 0 0 0-12.663467 7.765333l-2.781867 2.167467-1.194666-3.328c-2.6112-7.2704-8.891733-19.0464-18.722134-35.0208-0.375467 4.983467-0.8704 10.154667-1.4848 15.496533-2.133333 18.414933-12.014933 36.864-29.405866 54.818134l-2.218667 2.269866-1.757867-2.628266c-2.082133-3.1232-6.775467-6.365867-13.960533-9.6768l-3.8912-1.809067 3.4304-2.56c7.4752-5.546667 13.824-12.475733 18.688-20.411733-34.218667 7.338667-58.709333 13.6192-72.8064 18.688l-2.321067 0.853333-0.9216-2.304a503.005867 503.005867 0 0 0-7.031466-16.657067l-1.365334-3.106133 3.3792-0.4608A401.4592 401.4592 0 0 0 116.053333 813.738667V764.586667c-9.5744 0.034133-19.3536 0.324267-29.098666 0.853333l-2.696534 0.1536v-20.3776l2.696534 0.1536c10.410667 0.580267 22.852267 0.8704 36.949333 0.8704 14.6944 0 27.716267-0.290133 38.724267-0.8704l2.696533-0.1536v20.3776l-2.696533-0.136533a585.728 585.728 0 0 0-25.565867-0.853334v45.448534c6.4-1.28 15.701333-3.447467 27.733333-6.434134l3.584-0.887466-0.426666 3.652266c-0.341333 2.833067-0.477867 5.6832-0.4096 8.533334 3.9936-9.045333 6.144-18.824533 6.3488-28.7232 0.290133-11.9296-0.170667-26.811733-1.314134-44.270934l-0.187733-2.730666h78.7456l-0.1536 2.7136a475.426133 475.426133 0 0 0-0.8704 28.0576v50.2272c0 7.389867 1.450667 8.9088 1.8432 8.9088h8.840533c0.017067-0.1024 2.56-1.962667 5.410134-19.012267l0.7168-4.232533 3.3792 2.628266c4.829867 3.7888 10.513067 6.3488 16.554666 7.441067l2.577067 0.4608-0.512 2.56c-3.857067 18.551467-8.686933 27.8528-15.2064 29.2864z m-44.629333-89.838933H194.56c0.170667 5.8368 0.119467 12.100267-0.170667 18.722133 3.328-2.338133 6.894933-4.352 10.632534-5.9904l2.065066-0.887466 1.143467 1.928533c9.216 15.5136 16.093867 26.965333 20.855467 34.798933v-48.571733z m-119.9616 97.928533l1.024-2.850133 2.6624 1.501867c4.010667 2.304 9.028267 4.949333 14.882133 7.867733l2.116267 1.058133-0.904534 2.2016c-9.4208 22.920533-18.3808 41.710933-26.624 55.842134l-1.262933 2.1504-2.184533-1.194667c-6.519467-3.549867-11.8272-6.485333-15.957334-8.8576l-2.4064-1.365333 1.5872-2.304c10.410667-14.984533 19.524267-33.160533 27.0848-54.033067z m87.261866 43.7248l-1.467733-2.935466c-5.188267-10.325333-13.431467-23.261867-24.507733-38.4l-1.416534-1.9456 1.8432-1.536c4.061867-3.362133 8.226133-6.621867 12.458667-9.7792l2.065067-1.536 1.536 2.065066a1452.8512 1452.8512 0 0 1 27.426133 37.956267l1.536 2.2528-2.338133 1.399467c-5.154133 3.0208-10.069333 6.485333-14.660267 10.325333l-2.474667 2.133333z m-38.126933-36.573866a828.552533 828.552533 0 0 0-0.887467 32.512c0 7.389867 0.426667 12.8 1.245867 16.110933 0.5632 2.218667 3.447467 3.362133 8.567467 3.362133h39.7312c0.9728 0.068267 1.7408 0.085333 2.474666 0.085334 5.802667 0 9.437867-1.706667 11.1104-5.239467 2.321067-5.341867 3.447467-11.144533 3.293867-16.964267v-5.034666l4.061867 2.9696c6.144 4.4544 12.032 7.2704 17.527466 8.362666l2.781867 0.546134-0.8192 2.7136c-4.334933 14.1824-8.840533 22.8352-13.738667 26.436266-4.864 3.549867-12.066133 5.341867-21.4016 5.341867H158.344533c-14.353067-0.6656-22.2208-7.901867-22.869333-20.9408v-21.282133c0-8.021333-0.273067-17.5104-0.8704-28.945067l-0.136533-2.679467h23.893333l-0.1024 2.645334z m74.359467 1.860266l1.962666-1.399466c4.096-2.9184 8.482133-6.144 13.192534-9.659734l2.184533-1.621333 1.4848 2.2528c15.735467 23.8592 26.402133 39.543467 31.709867 46.592l1.655466 2.218667-2.338133 1.467733c-6.382933 4.061867-11.9808 7.867733-16.605867 11.349333l-2.542933 1.8944-1.3312-2.8672c-3.464533-7.509333-12.936533-23.722667-28.1088-48.196266l-1.262933-2.048z" fill="#EE2928" /></svg>