<?xml version="1.0" standalone="no"?><!DOCTYPE svg PUBLIC "-//W3C//DTD SVG 1.1//EN" "http://www.w3.org/Graphics/SVG/1.1/DTD/svg11.dtd"><svg class="icon" width="1000px" height="1000.00px" viewBox="0 0 1024 1024" version="1.1" xmlns="http://www.w3.org/2000/svg"><path d="M864 1024H160A160 160 0 0 1 0 864V160A160 160 0 0 1 160 0h704A160 160 0 0 1 1024 160v704A160 160 0 0 1 864 1024z m128-832a160 160 0 0 0-160-160h-640a160 160 0 0 0-160 160v640a160 160 0 0 0 160 160h640a160 160 0 0 0 160-160v-640z" fill="#FF0000" /><path d="M125.354667 819.712c-1.1776 15.342933-2.048 26.555733-2.628267 33.621333 12.834133 11.810133 23.927467 22.715733 33.262933 32.733867-4.096 4.1472-8.772267 9.454933-13.994666 15.9232a156.501333 156.501333 0 0 0-22.766934-30.958933 213.504 213.504 0 0 1-13.568 34.935466 221.098667 221.098667 0 0 1-16.196266 26.9824c-5.12-5.034667-11.025067-9.216-17.493334-12.373333a109.175467 109.175467 0 0 0 20.992-29.6448 148.548267 148.548267 0 0 0 11.810134-38.485333c2.833067-16.964267 4.283733-34.116267 4.386133-51.3024 0.273067-19.456 0.136533-42.769067-0.443733-69.905067 6.417067 1.194667 12.834133 2.082133 19.2512 2.6624a277.725867 277.725867 0 0 0-2.184534 31.8464 1556.309333 1556.309333 0 0 0-0.443733 35.396267c7.2704-5.5808 13.755733-12.117333 19.2512-19.456 3.7888 5.5296 7.8848 10.837333 12.253867 15.9232-10.871467 6.826667-21.367467 14.199467-31.488 22.101333z m-32.375467 25.668267c-6.365867-1.245867-12.8-2.133333-19.2512-2.6624 3.498667-9.437867 6.417067-28.893867 8.7552-58.368 6.161067-0.085333 12.322133 0.512 18.363733 1.757866a3290.453333 3290.453333 0 0 0-7.867733 59.272534z m140.885333-94.6688c0-8.260267-0.290133-15.325867-0.853333-21.248h19.234133a88.2688 88.2688 0 0 0-1.7408 21.248c9.3184 0 16.896-0.3072 22.749867-0.887467v15.035733a221.013333 221.013333 0 0 0-22.749867-0.887466v35.396266c-0.068267 10.3424 0.512 20.6848 1.7408 30.958934h-37.632v16.810666h28.8768c12.253867 0 22.766933-0.290133 31.505067-0.887466v15.957333a482.269867 482.269867 0 0 0-31.505067-0.887467h-14.865066a102.877867 102.877867 0 0 0 23.176533 29.6448 110.848 110.848 0 0 0 28.450133 19.012267c-5.802667 4.539733-10.581333 10.274133-14.011733 16.7936a145.493333 145.493333 0 0 1-32.375467-28.3136 132.232533 132.232533 0 0 1-19.2512-33.621333v34.5088c0 14.165333 0.290133 26.538667 0.8704 37.154133h-19.2512c1.245867-12.3392 1.826133-24.746667 1.757867-37.154133v-30.958934a104.96 104.96 0 0 1-20.565333 33.1776 172.202667 172.202667 0 0 1-31.061334 27.8528 63.726933 63.726933 0 0 0-12.270933-18.568533c10.205867-5.12 19.626667-11.6736 28.0064-19.456a93.115733 93.115733 0 0 0 22.749867-30.088533h-12.2368c-10.496 0-20.138667 0.290133-28.8768 0.887466v-15.9232c8.738133 0.597333 18.363733 0.904533 28.8768 0.887467H197.973333v-16.810667H162.986667c0.580267-9.437867 0.8704-20.053333 0.8704-31.863466v-34.491734c-6.417067 0-13.4144 0.290133-20.992 0.887467v-15.035733c6.997333 0.597333 13.994667 0.887467 20.992 0.8704 0-7.082667-0.290133-14.165333-0.8704-21.230934h18.3808c-0.597333 6.485333-0.887467 13.568-0.8704 21.230934h53.367466z m0.887467 32.733866v-19.456h-54.272v19.456h54.272z m0 32.733867v-19.456h-54.272v19.456h54.272z m-17.578667 121.941333h-22.715733l0.187733-1.792c1.245867-12.288 1.826133-24.644267 1.757867-36.983466v-23.04a113.493333 113.493333 0 0 1-17.783467 26.299733 173.397333 173.397333 0 0 1-31.351466 28.125867l-1.6384 1.143466-0.750934-1.877333a62.293333 62.293333 0 0 0-11.946666-18.090667l-1.467734-1.621333 1.962667-0.938667c2.850133-1.348267 5.614933-2.850133 8.2944-4.5056l-1.1264-2.048a153.1904 153.1904 0 0 0-20.650667-28.603733c-3.3792 11.178667-7.68 22.0672-12.8512 32.529067-4.778667 9.437867-10.24 18.517333-16.315733 27.170133l-1.092267 1.570133-1.3312-1.365333a65.706667 65.706667 0 0 0-17.1008-12.066133l-1.979733-1.024 1.570133-1.5872a108.373333 108.373333 0 0 0 20.6848-29.201067c5.597867-12.117333 9.5232-24.917333 11.6736-38.058667 2.798933-16.896 4.266667-33.962667 4.369067-51.063466 0.273067-19.490133 0.119467-43.008-0.443733-69.8368l-0.0512-1.979734 1.928533 0.341334c6.314667 1.1776 12.6976 2.048 19.114667 2.645333l1.672533 0.170667-0.238933 1.6896a279.722667 279.722667 0 0 0-2.184534 31.6416 1586.653867 1586.653867 0 0 0-0.4096 32.034133 101.034667 101.034667 0 0 0 16.401067-17.1008l1.3312-1.757867 1.245867 1.809067c3.754667 5.461333 7.799467 10.752 12.1344 15.786667l1.297066 1.4848-1.672533 0.9728c-10.615467 6.656-20.8896 13.858133-30.7712 21.572266a8885.589333 8885.589333 0 0 1-2.5088 32.1024 620.6976 620.6976 0 0 1 32.768 32.290134l1.0752 1.143466-1.109333 1.109334c-4.027733 4.096-8.584533 9.2672-13.892267 15.8208l-1.467733 1.809066c6.843733-4.317867 13.312-9.216 19.285333-14.677333 8.738133-7.662933 15.957333-16.896 21.248-27.255467h-9.728c-10.308267 0-20.002133 0.3072-28.757333 0.887467l-1.706667 0.119467v-19.387734l1.706667 0.119467c8.533333 0.597333 18.210133 0.887467 28.7744 0.887467h23.773866v-13.585067H161.28l0.1024-1.706667c0.580267-9.454933 0.887467-20.138667 0.887467-31.744V765.610667c-6.4512 0.0512-12.868267 0.341333-19.285334 0.853333l-1.723733 0.1536v-18.551467l1.723733 0.136534c6.280533 0.546133 12.765867 0.853333 19.2512 0.8704-0.034133-6.485333-0.324267-12.970667-0.853333-19.456l-0.136533-1.7408h21.845333l-0.136533 1.757866c-0.5632 6.485333-0.853333 12.970667-0.853334 19.456h50.176c0-6.485333-0.290133-12.987733-0.8704-19.456l-0.170666-1.774933h23.1424l-0.597334 2.048c-1.297067 6.314667-1.877333 12.731733-1.672533 19.165867 8.704-0.034133 15.5648-0.324267 20.992-0.853334l1.757867-0.170666v18.602666l-1.774934-0.170666c-6.980267-0.648533-13.994667-0.938667-20.992-0.8704v33.757866c-0.0512 10.274133 0.546133 20.548267 1.757867 30.754134l0.2048 1.809066h-37.853867v13.602134h27.306667c12.458667 0 22.7328-0.3072 31.368533-0.887467l1.706667-0.136533v19.387733l-1.706667-0.1024a482.816 482.816 0 0 0-31.3856-0.887467h-12.1856a101.546667 101.546667 0 0 0 21.572267 26.794667 109.397333 109.397333 0 0 0 28.0064 18.773333l2.4064 1.058134-2.048 1.672533c-5.632 4.4032-10.24 9.949867-13.568 16.2816l-0.8192 1.655467-1.536-1.024a148.6848 148.6848 0 0 1-32.733867-28.637867 129.467733 129.467733 0 0 1-16.384-26.897067v26.760534c0 14.455467 0.290133 26.5728 0.8704 37.051733l0.119467 1.706667z m-19.1488-3.242666h15.786667a709.632 709.632 0 0 1-0.785067-35.5328V856.576l3.072 7.6288c4.676267 11.946667 11.093333 23.125333 18.9952 33.211733a142.267733 142.267733 0 0 0 30.5664 26.965334 53.76 53.76 0 0 1 11.605334-14.0288 116.189867 116.189867 0 0 1-26.5216-18.2272 105.301333 105.301333 0 0 1-23.552-30.088534l-1.211734-2.372266h17.5104c11.383467 0 21.418667 0.256 29.9008 0.768v-12.475734c-8.362667 0.512-18.141867 0.785067-29.9008 0.785067h-30.464v-20.036267h37.410134a261.5808 261.5808 0 0 1-1.536-29.354666V762.368h1.5872c8.840533 0 15.940267 0.238933 21.162666 0.7168v-11.4688c-5.5808 0.512-12.509867 0.733867-21.162666 0.733867h-1.5872v-1.621334a106.496 106.496 0 0 1 1.314133-19.626666h-15.479467c0.494933 5.632 0.733867 12.219733 0.733867 19.626666v1.621334h-56.576v-1.621334c0-7.082667 0.238933-13.653333 0.7168-19.626666h-14.882133c0.512 6.587733 0.733867 13.175467 0.733866 19.626666v1.621334H163.84c-6.536533 0-13.038933-0.256-19.4048-0.750934v11.554134c6.997333-0.512 13.5168-0.768 19.4048-0.768h1.5872v36.113066c0 11.008-0.238933 21.162667-0.750933 30.242134h34.884266v20.036266h-26.965333a429.2608 429.2608 0 0 1-27.272533-0.768v12.458667a450.730667 450.730667 0 0 1 27.2896-0.750933h14.779733l-1.0752 2.304a95.266133 95.266133 0 0 1-23.1424 30.600533c-7.9872 7.338667-16.896 13.653333-26.4704 18.7392 4.164267 4.676267 7.645867 9.9328 10.3424 15.598933 10.717867-7.68 20.497067-16.571733 29.184-26.487466a104.192 104.192 0 0 0 20.258133-32.648534l3.072-8.4992v40.021334c0.017067 13.277867-0.494933 25.207467-1.536 35.566933v-0.034133z m-123.392-14.728534c5.290667 2.781867 10.222933 6.263467 14.609067 10.325334 5.546667-8.072533 10.564267-16.503467 15.0016-25.258667 5.495467-11.127467 9.984-22.7328 13.448533-34.6624l0.8192-2.6624 1.877334 2.048c8.362667 8.874667 15.701333 18.688 21.845333 29.218133 3.669333-4.522667 7.509333-8.891733 11.537067-13.1072a624.725333 624.725333 0 0 0-32.119467-31.505066l-0.580267-0.512 0.068267-0.785067c0.580267-7.082667 1.450667-18.295467 2.628267-33.621333l0.0512-0.733867 0.580266-0.443733c12.885333-9.762133 22.971733-16.896 30.0032-21.213867a186.88 186.88 0 0 1-9.847466-12.8c-5.290667 6.7584-11.434667 12.834133-18.244267 18.056533l-2.56 1.9456v-3.242666c0-10.786133 0.136533-22.698667 0.443733-35.413334a289.28 289.28 0 0 1 1.962667-30.378666c-5.290667-0.512-10.564267-1.2288-15.803733-2.1504 0.512 26.043733 0.682667 48.913067 0.392533 67.976533a327.031467 327.031467 0 0 1-4.386133 51.5584 150.749867 150.749867 0 0 1-11.946667 38.912 111.240533 111.240533 0 0 1-19.780267 28.450133z m19.746134-72.8576l-1.706667-0.341333a172.544 172.544 0 0 0-19.080533-2.628267l-2.0992-0.170666 0.733866-1.9968c3.413333-9.216 6.314667-28.706133 8.6528-57.9584l0.136534-1.4848h1.467733c6.280533-0.068267 12.561067 0.529067 18.722133 1.792l1.450667 0.341333-0.221867 1.467733a3296.170667 3296.170667 0 0 0-7.850666 59.2384l-0.2048 1.7408z m-18.432-6.007466c5.5808 0.512 10.820267 1.262933 15.6672 2.167466 1.2288-10.2912 3.7376-29.1328 7.4752-56.081066a84.48 84.48 0 0 0-15.104-1.416534c-2.235733 27.1872-4.864 45.346133-8.072534 55.3472h0.034134z m160.426666-23.5008h-57.480533v-22.698667h57.4464v22.698667h0.017067z m-54.272-3.2256h51.0464v-16.2304H182.101333v16.264533-0.034133zM236.373333 785.066667h-57.480533V762.368h57.4464V785.066667l0.017067-0.017067z m-54.272-3.2256h51.0464v-16.2304H182.101333v16.2304z m181.2992-29.354667c6.997333 0 15.735467-0.290133 26.248534-0.887467v15.940267a456.704 456.704 0 0 0-26.248534-0.887467h-10.513066c-3.362133 15.018667-7.748267 29.815467-13.141334 44.2368h40.260267a457.728 457.728 0 0 0-0.8704 27.426134v40.686933c0 8.8576 0.290133 19.182933 0.8704 30.976h-16.622933v-15.0528h-24.507734v24.7808h-17.493333c1.143467-12.3904 1.7408-22.698667 1.7408-30.976v-52.224c-4.5568 6.5024-9.5232 12.714667-14.882133 18.602667-3.396267-5.802667-7.850667-10.888533-13.1072-15.0528a95.675733 95.675733 0 0 0 29.7472-38.058667c4.949333-11.3664 8.772267-23.227733 11.3664-35.3792-12.2368 0-23.04 0.3072-32.375467 0.887467v-15.872c9.335467 0.597333 17.800533 0.904533 25.378133 0.887466h34.133334v-0.034133z m0 127.402667v-54.852267h-24.5248v54.869333h24.507734z m28.8768 11.502933c4.2496-14.08 6.6048-28.654933 6.997334-43.349333 0.580267-15.9232 0.7168-29.4912 0.426666-40.704a1396.855467 1396.855467 0 0 0-2.184533-45.9776h72.618667c6.417067 0 16.622933-0.290133 30.634666-0.887467v16.810667a496.247467 496.247467 0 0 0-30.6176-0.887467h-54.272v68.113067c-0.597333 9.437867-1.3312 18.432-2.2016 26.9824a146.176 146.176 0 0 1-6.997333 30.071466c-4.113067 12.202667-9.557333 23.927467-16.196267 34.952534a56.8832 56.8832 0 0 0-15.752533-12.373334 92.279467 92.279467 0 0 0 17.527467-32.733866z m65.621334-138.9056a78.336 78.336 0 0 0-17.493334 7.082667 384.085333 384.085333 0 0 0-9.6256-27.426134c5.410133-1.604267 10.683733-3.669333 15.752534-6.1952 4.5056 8.533333 8.311467 17.408 11.3664 26.555734z m-67.140267 186.760533l-1.450667-1.672533a55.8592 55.8592 0 0 0-15.325866-12.014933l-1.7408-0.9728 1.314133-1.536c3.037867-3.584 5.768533-7.424 8.1408-11.485867h-19.899733v-15.035733H340.48v24.7808h-20.872533l0.170666-1.774934c1.194667-12.561067 1.757867-22.647467 1.757867-30.8224v-47.2064c-3.805867 5.0688-7.850667 9.984-12.100267 14.677334l-1.450666 1.621333-1.109334-1.877333a52.5824 52.5824 0 0 0-12.731733-14.574934l-1.621333-1.28 1.604266-1.28a94.788267 94.788267 0 0 0 29.269334-37.376c4.608-10.7008 8.260267-21.794133 10.9056-33.143466-11.298133 0-21.504 0.324267-30.327467 0.8704l-1.6896 0.119466v-19.370666l1.706667 0.1024c9.079467 0.580267 17.578667 0.887467 25.258666 0.887466h34.133334c7.1168 0 15.9232-0.3072 26.1632-0.887466l1.6896-0.085334v19.3536l-1.706667-0.119466a455.509333 455.509333 0 0 0-26.146133-0.887467h-9.216a336.896 336.896 0 0 1-12.117334 41.028267h39.662934l-0.1024 1.706666c-0.5632 9.096533-0.853333 18.210133-0.8704 27.323734v40.704c0 8.994133 0.290133 19.387733 0.8704 30.890666l0.1024 1.6896c3.754667-6.536533 6.792533-13.482667 9.0112-20.701866a164.078933 164.078933 0 0 0 6.946133-42.922667 689.493333 689.493333 0 0 0 0.426667-40.584533 1466.094933 1466.094933 0 0 0-2.184534-45.960534l-0.1024-1.706666h42.973867a386.935467 386.935467 0 0 0-9.489067-26.9824l-0.648533-1.655467 1.6896-0.512c5.307733-1.570133 10.496-3.618133 15.4624-6.075733l1.3824-0.682667 0.733867 1.365333c4.573867 8.6016 8.413867 17.578667 11.485866 26.794667l0.512 1.621333-1.621333 0.4608c-5.102933 1.365333-10.069333 3.2768-14.779733 5.666134h26.624c6.6048 0 16.896-0.290133 30.5664-0.887467l1.655466-0.068267v20.224l-1.6896-0.119466a490.5472 490.5472 0 0 0-30.532266-0.887467h-52.650667v66.525867c-0.546133 9.045333-1.28 18.090667-2.2016 27.136a148.650667 148.650667 0 0 1-7.082667 30.4128 180.224 180.224 0 0 1-16.315733 35.2768l-1.1264 1.911466z m-13.533867-15.5648c4.778667 2.747733 9.1648 6.161067 13.0048 10.1376 6.0928-10.3936 11.093333-21.367467 14.9504-32.768a145.408 145.408 0 0 0 6.929067-29.7472c0.853333-8.362667 1.570133-17.152 2.184533-26.914133v-69.632h55.8592c10.308267 0 20.0704 0.256 29.013334 0.768v-13.397333c-12.885333 0.512-22.647467 0.802133-29.013334 0.802133H399.189333c1.109333 18.9952 1.809067 33.518933 2.082134 44.356267 0.290133 11.264 0.136533 25.002667-0.426667 40.8064a167.355733 167.355733 0 0 1-7.0656 43.776 95.965867 95.965867 0 0 1-16.554667 31.812266z m-54.101333-5.5808h14.165333v-24.7808h27.682134v15.0528h13.346133a634.9312 634.9312 0 0 1-0.785067-29.354666v-40.704c0-7.936 0.256-16.605867 0.768-25.821867h-40.840533l0.802133-2.167467c5.358933-14.370133 9.728-29.0816 13.056-44.032l0.273067-1.262933h11.776c7.0656 0 15.36 0.238933 24.644267 0.785067v-12.509867a450.389333 450.389333 0 0 1-24.644267 0.785067h-34.116267c-7.2704 0-15.274667-0.256-23.773866-0.768v12.475733c9.0112-0.512 19.3536-0.768 30.7712-0.768h1.928533l-0.341333 1.911467c-2.645333 12.2368-6.485333 24.200533-11.4688 35.703466a96.853333 96.853333 0 0 1-28.672 37.4272c4.1984 3.566933 7.850667 7.7312 10.8032 12.373334 4.778667-5.358933 9.216-10.973867 13.312-16.8448l2.901333-4.215467v57.344c0 7.901867-0.512 17.527467-1.5872 29.354667z m109.755733-184.900266c3.089067 7.918933 5.905067 15.957333 8.448 24.064 4.625067-2.389333 9.489067-4.352 14.506667-5.802667a173.090133 173.090133 0 0 0-10.018133-23.313067 101.205333 101.205333 0 0 1-12.936534 5.051734z m-67.908266 148.309333h-27.682134v-58.077867h27.682134v58.077867z m-24.507734-3.2256h21.333334v-51.626667H340.48v51.626667z m383.453867-23.159467v15.9232c-5.8368-0.580267-15.4624-0.8704-28.8768-0.887466 0 15.36 0.290133 27.4432 0.8704 36.283733H678.4v-8.8576h-47.2576v16.810667a16.264533 16.264533 0 0 1-7.441067 14.165333 88.354133 88.354133 0 0 1-25.8048 6.1952 56.234667 56.234667 0 0 0-8.7552-19.456c6.997333 0.170667 14.0288-0.136533 20.992-0.887467a5.239467 5.239467 0 0 0 5.256534-5.307733v-11.502933h-49.015467c-6.417067 0-13.994667 0.290133-22.749867 0.887466v-15.9232c8.7552 0.597333 16.3328 0.887467 22.749867 0.8704h49.0496v-13.2608h-65.655467c-7.594667 0-14.882133 0.290133-21.879466 0.887467v-15.9232c6.997333 0.597333 14.301867 0.887467 21.879466 0.8704h65.655467v-12.373333h-50.756267c-6.417067 0-13.4144 0.290133-20.992 0.887466v-15.940266c7.5776 0.6144 14.574933 0.887467 20.992 0.887466h50.756267v-11.502933h-61.269333c0.580267-8.840533 0.853333-16.810667 0.853333-23.893333 0-7.645867-0.273067-15.018667-0.853333-22.101334h61.269333v-12.3904h-62.139733c-9.352533 0-18.090667 0.290133-26.2656 0.887467v-15.9232c8.157867 0.597333 16.622933 0.887467 25.378133 0.8704h63.0272c0-4.113067-0.290133-9.4208-0.8704-15.9232h17.493333c-0.6144 5.290667-0.904533 10.615467-0.8704 15.9232h59.511467c9.898667 0 20.104533-0.290133 30.634667-0.8704v15.9232a559.4624 559.4624 0 0 0-30.634667-0.887467h-59.528533v12.3904h63.010133c-0.597333 7.0656-0.887467 14.4384-0.887467 22.1184 0.017067 7.662933 0.3072 15.616 0.887467 23.893334h-63.010133v11.4688h64.750933c-0.597333 5.905067-0.887467 14.762667-0.8704 26.538666 8.7552 0 18.3808-0.273067 28.8768-0.853333z m-108.4928-51.319466V786.090667h-44.6464v17.698133h44.6464z m61.269333 0V786.090667h-45.5168v17.698133h45.499734z m1.7408 52.206933v-12.3904h-47.274666v12.3904H678.4512z m0 27.426133v-13.277866h-47.274666v13.277866H678.4512z m-81.783466 53.111467l-0.290134-1.4848a55.074133 55.074133 0 0 0-8.533333-18.875733l-1.6384-2.5088h2.986667c6.912 0.170667 13.841067-0.136533 20.736-0.8704a3.618133 3.618133 0 0 0 3.925333-3.720534v-9.898666h-47.428267c-6.280533 0-13.892267 0.3072-22.6304 0.904533l-1.706666 0.1024V880.810667l1.706666 0.136533c8.516267 0.580267 16.145067 0.8704 22.6304 0.8704h47.428267v-10.0352h-64.068267c-7.441067 0-14.7456 0.290133-21.742933 0.8704l-1.706667 0.1536V853.333333l1.706667 0.136534c6.8096 0.580267 14.114133 0.887467 21.742933 0.887466h64.0512v-9.1648h-49.152c-6.280533 0-13.312 0.290133-20.872533 0.887467l-1.723733 0.136533v-19.456l1.706666 0.136534c6.9632 0.580267 13.9264 0.8704 20.8896 0.887466h49.152v-8.226133H552.448l0.1024-1.706667c0.580267-8.874667 0.887467-16.8448 0.887467-23.790933 0-7.338667-0.290133-14.677333-0.887467-22.016l-0.136533-1.7408h61.405866v-9.1648h-60.535466c-9.216 0-18.005333 0.3072-26.146134 0.887467l-1.706666 0.119466v-19.387733l1.706666 0.119467c7.936 0.580267 16.4352 0.887467 25.258667 0.887466h61.405867a213.8624 213.8624 0 0 0-0.853334-14.165333l-0.170666-1.757867h21.077333l-0.221867 1.809067c-0.5632 4.693333-0.853333 9.386667-0.853333 14.114133h57.9072c10.018133 0 20.309333-0.3072 30.549333-0.887466l1.672534-0.085334v19.336534l-1.6896-0.1024a549.085867 549.085867 0 0 0-30.532267-0.887467h-57.9072v9.1648h63.146667l-0.136534 1.757867c-0.580267 6.877867-0.8704 14.267733-0.8704 21.981866 0 7.697067 0.290133 15.752533 0.853334 23.773867l0.136533 1.706667h-63.1296v8.2944h64.9216l-0.170667 1.757866c-0.5632 5.546667-0.853333 13.653333-0.853333 24.746667a514.474667 514.474667 0 0 0 27.170133-0.853333l1.6896-0.1024v19.421866l-1.7408-0.170666c-5.5808-0.546133-14.711467-0.853333-27.136-0.887467 0.017067 14.813867 0.3072 26.112 0.853334 34.56l0.136533 1.706667h-20.821333v-8.840534h-44.049067v15.189334a17.92 17.92 0 0 1-8.2944 15.581866 87.773867 87.773867 0 0 1-26.350933 6.382934l-1.4848 0.221866z m-4.5568-19.6608c3.1744 4.949333 5.546667 10.376533 7.0656 16.042667a83.456 83.456 0 0 0 23.825066-5.802667 14.6944 14.6944 0 0 0 6.587734-12.868267v-18.2784h50.449066v8.840534h14.199467c-0.512-8.618667-0.768-19.968-0.768-34.645334v-1.621333h1.604267c12.100267 0 21.248 0.238933 27.2896 0.7168v-12.4416c-9.693867 0.512-18.858667 0.785067-27.306667 0.785067h-1.5872v-1.604267c0-10.9056 0.238933-19.080533 0.733867-24.917333h-64.631467v-14.7456h62.890667a329.216 329.216 0 0 1-0.750934-22.272c0-7.168 0.256-14.0288 0.733867-20.48h-62.8736v-15.616h61.1328c9.284267 0 19.0464 0.273067 29.0304 0.802133v-12.509867c-9.728 0.512-19.490133 0.785067-29.0304 0.785067h-61.1328v-1.621333c-0.017067-4.778667 0.2048-9.557333 0.682667-14.336h-13.960534c0.443733 4.778667 0.682667 9.557333 0.7168 14.336v1.5872h-64.597333c-8.260267 0-16.247467-0.256-23.773867-0.750934v12.458667c7.748267-0.512 16.042667-0.785067 24.661334-0.785067h63.709866v15.616h-61.098666c0.477867 6.621867 0.7168 13.5168 0.7168 20.48 0 6.5536-0.238933 14.0288-0.750934 22.289067h61.1328v14.711467h-52.343466c-6.058667 0-12.578133-0.238933-19.4048-0.750934v12.475734c6.4512-0.494933 12.919467-0.733867 19.4048-0.750934h52.343466v15.598934h-67.2256c-7.082667 0-13.8752-0.256-20.2752-0.750934v12.424534c6.5536-0.512 13.3632-0.733867 20.2752-0.733867h67.242667v16.4864h-50.602667c-6.144 0-13.2608-0.256-21.162666-0.768v12.458667c7.048533-0.4608 14.097067-0.7168 21.162666-0.750934h50.5856v13.1072a6.724267 6.724267 0 0 1-6.570666 6.894934 138.752 138.752 0 0 1-18.346667 0.904533z m87.927466-31.8464H629.589333v-16.4864h50.449067v16.4864z m-47.2576-3.2256h44.066134v-10.0352h-44.066134v10.0352z m47.274667-24.200533h-50.466133v-15.598934h50.449066v15.598934z m-47.274667-3.2256h44.066134v-9.147734h-44.066134v9.147734z m45.499734-48.981334H629.589333v-20.906666h48.6912v20.923733z m-45.499734-3.208533h42.325334v-14.472533h-42.325334v14.472533z m-15.752533 3.2256h-47.8208v-20.923733h47.8208v20.923733z m-44.629333-3.242667h41.454933v-14.455466h-41.454933v14.472533z m214.562133-41.728c0-7.662933-0.290133-15.325867-0.887467-23.005866h18.3808c-1.194667 7.918933-1.774933 15.906133-1.7408 23.893333v19.456c18.653867 0 32.3584-0.290133 41.130667-0.887467v15.9232c-8.7552-0.580267-22.4768-0.8704-41.130667-0.8704v38.0416h29.7472a677.2736 677.2736 0 0 0-0.8704 38.912c0 15.906133 0.290133 29.474133 0.8704 40.686934h-16.622933V901.12h-42.888533v18.5856h-16.622934c0.580267-11.2128 0.8704-25.668267 0.8704-43.349333 0-18.2784-0.290133-32.733867-0.853333-43.349334h30.6176v-38.058666c-18.670933 0-32.085333 0.290133-40.260267 0.887466v-15.9232c8.157867 0.597333 21.572267 0.904533 40.260267 0.887467v-20.360533z m28.8768 126.5152v-39.816533h-42.888533v39.816533h42.888533z m72.618667-137.557333a393.898667 393.898667 0 0 0-9.6256 22.545067h41.130666c12.834133 0 23.637333-0.290133 32.392534-0.887467v15.9232a324.010667 324.010667 0 0 0-24.507734-0.887467c-1.365333 16.059733-3.703467 32.017067-6.997333 47.786667a172.544 172.544 0 0 1-19.2512 50.432c6.8096 7.936 14.762667 14.7968 23.620267 20.343467 8.2432 5.597867 17.0496 10.3424 26.248533 14.165333a52.565333 52.565333 0 0 0-13.124267 15.906133 162.594133 162.594133 0 0 1-46.370133-38.024533c-15.735467 15.342933-33.7408 28.16-53.384533 38.0416a35.925333 35.925333 0 0 0-12.253867-14.165333 164.010667 164.010667 0 0 0 55.125333-36.266667 165.8368 165.8368 0 0 1-15.3088-36.283733 468.821333 468.821333 0 0 1-9.181866-36.266667c-4.096 5.905067-7.611733 10.922667-10.513067 15.035733a47.616 47.616 0 0 0-13.124267-10.615466 156.074667 156.074667 0 0 0 23.637334-35.396267c8.704-16.384 14.8992-33.962667 18.3808-52.189867 6.161067 3.669333 13.0048 6.075733 20.1216 7.082667-1.757867 2.952533-4.096 7.509333-7.0144 13.704533z m-15.735467 54.391467c1.058133 13.038933 3.413333 25.924267 6.997333 38.485333 2.645333 10.001067 6.468267 19.6608 11.3664 28.757333 6.656-11.656533 11.264-24.3712 13.568-37.597866a288.256 288.256 0 0 0 5.6832-47.342934h-38.5024c-4.096 7.082667-8.174933 13.8752-12.253866 20.360534l13.141333-2.6624z m66.218667 133.12l-1.365334-0.750934a165.085867 165.085867 0 0 1-45.704533-37.102933c-7.936 7.748267-16.5376 14.813867-25.685333 21.077333-8.533333 6.0928-17.527467 11.4688-26.9312 16.0768l-1.399467 0.6656-0.699733-1.416533a34.235733 34.235733 0 0 0-11.707734-13.533867l-2.474666-1.672533 2.730666-1.160533a164.488533 164.488533 0 0 0 53.76-35.037867 168.704 168.704 0 0 1-14.848-35.566933 484.471467 484.471467 0 0 1-8.448-32.768c-3.208533 4.608-6.007467 8.618667-8.413866 12.014933l-1.194667 1.6896-1.314133-1.570133a46.2848 46.2848 0 0 0-12.680534-10.257067l-1.8432-1.024 1.4848-1.536a156.2624 156.2624 0 0 0 23.3472-35.0208c8.618667-16.247467 14.762667-33.6896 18.210134-51.746133l0.443733-2.269867 1.962667 1.194667c5.9904 3.549867 12.629333 5.888 19.541333 6.8608l2.3552 0.375466-1.2288 2.048c-1.774933 2.986667-4.096 7.560533-6.912 13.568-3.106133 6.656-6.007467 13.4144-8.704 20.241067h38.741333c13.090133 0 23.637333-0.290133 32.256-0.8704l1.706667-0.136533v19.4048l-1.706667-0.119467c-7.6288-0.580267-15.274667-0.853333-22.920533-0.8704a400.657067 400.657067 0 0 1-6.894933 46.472533 174.1824 174.1824 0 0 1-18.8928 49.902934c6.570667 7.441067 14.165333 13.909333 22.5792 19.182933 8.1408 5.546667 16.8448 10.24 25.941333 13.994667l2.7136 1.058133-2.338133 1.757867c-5.205333 4.266667-9.506133 9.5232-12.6976 15.4624l-0.768 1.3824z m-109.397334-15.9744c4.010667 3.191467 7.338667 7.168 9.728 11.690666a197.0176 197.0176 0 0 0 25.088-15.138133c9.489067-6.485333 18.346667-13.824 26.487467-21.930667l1.211733-1.245866 1.1264 1.3312a161.314133 161.314133 0 0 0 44.578134 36.9152c2.850133-4.949333 6.417067-9.403733 10.5984-13.277867a156.8768 156.8768 0 0 1-24.0128-13.2608c-8.994133-5.666133-17.066667-12.629333-23.995734-20.667733l-0.699733-0.8704 0.546133-0.989867c8.925867-15.530667 15.36-32.392533 19.080534-49.937067 3.2768-15.701333 5.614933-31.5904 6.980266-47.581866l0.1024-1.4848h1.4848c8.021333 0 15.7184 0.256 22.903467 0.768v-12.458667c-8.379733 0.512-18.4832 0.750933-30.788267 0.750933h-43.485866l0.887466-2.218666c2.9696-7.6288 6.212267-15.189333 9.6768-22.647467 2.269867-4.864 4.266667-8.840533 5.888-11.810133a55.995733 55.995733 0 0 1-16.452266-5.768534 187.989333 187.989333 0 0 1-18.090667 50.449067 167.867733 167.867733 0 0 1-22.493867 34.269867c3.857067 2.304 7.355733 5.137067 10.427734 8.3968 2.6624-3.7888 5.768533-8.260267 9.335466-13.397334l1.553067-2.235733-0.9728 0.170667 2.013867-3.1744c4.1984-6.690133 8.260267-13.4656 12.219733-20.309334l0.443733-0.785066h41.096534l-0.068267 1.672533c-0.597333 16.008533-2.5088 31.914667-5.717333 47.616a118.562133 118.562133 0 0 1-13.7728 38.126933l-1.399467 2.269867-1.3312-2.304a133.922133 133.922133 0 0 1-11.537067-29.115733 200.977067 200.977067 0 0 1-6.912-37.000534l-13.3632 2.696534 0.6144 2.986666c2.577067 12.168533 5.632 24.234667 9.1648 36.1472 3.618133 12.526933 8.704 24.593067 15.172267 35.925334l0.597333 1.024-0.836266 0.887466a164.010667 164.010667 0 0 1-53.077334 35.515734z m44.612267-119.074134l0.1536 1.792c1.058133 12.919467 3.3792 25.7024 6.946133 38.161067a140.8 140.8 0 0 0 9.898667 25.975467 121.378133 121.378133 0 0 0 11.946667-34.679467c3.054933-14.967467 4.9152-30.139733 5.5808-45.397333h-35.925334c-3.345067 5.7856-6.656 11.264-9.8304 16.418133l11.229867-2.269867z m-99.618133 119.4496h-19.899734l0.1024-1.706666c0.580267-11.2128 0.853333-25.770667 0.853334-43.264a842.24 842.24 0 0 0-0.853334-43.246934l-0.1024-1.706666h30.72v-34.816c-17.664 0-30.6176 0.3072-38.5536 0.8704l-1.706666 0.136533v-19.4048l1.706666 0.136533c7.850667 0.5632 20.445867 0.853333 38.570667 0.887467v-18.756267c0-7.509333-0.3072-15.189333-0.887467-22.869333l-0.119466-1.7408h21.947733l-0.290133 1.877333a158.805333 158.805333 0 0 0-1.706667 23.620267v17.8688c18.107733 0 31.0272-0.341333 39.424-0.887467l1.6896-0.136533v19.387733l-1.706667-0.119466a681.8816 681.8816 0 0 0-39.424-0.8704v34.816h29.866667l-0.119467 1.706666a688.110933 688.110933 0 0 0-0.853333 38.826667c0 16.213333 0.290133 29.525333 0.853333 40.618667l0.1024 1.6896h-19.9168v-11.502934h-39.68v18.5856z m-16.520534-3.242666h13.346134v-18.568534h46.08v11.502934h13.346133a834.781867 834.781867 0 0 1-0.785067-39.082667c0-15.36 0.256-27.5968 0.785067-37.3248H801.109333v-41.2672h1.5872a742.4 742.4 0 0 1 39.543467 0.785067v-12.475734a733.354667 733.354667 0 0 1-39.543467 0.768h-1.5872V761.344c0-7.458133 0.477867-14.8992 1.4848-22.272h-14.7968c0.512 7.168 0.750933 14.353067 0.750934 21.384533v21.9648h-1.604267c-17.749333 0-30.429867-0.256-38.656-0.768v12.458667c8.3456-0.512 21.333333-0.768 38.656-0.768h1.5872v41.2672h-30.532267c0.512 10.513067 0.785067 24.576 0.785067 41.728 0 16.6912-0.290133 30.72-0.802133 41.745067z m59.392-29.4912h-46.08v-43.042134h46.08v43.042134z m-42.888533-3.242667h39.697067v-36.573867H774.485333v36.590934zM634.88 640l-1.501867-127.010133-13.858133 9.250133-15.36-15.36-5.12-20.48-20.48-25.6-10.24-5.12-10.24 10.24v25.6l10.24 25.6-5.12 30.72s-24.405333 20.48-25.6 30.72c-1.194667 10.24-15.36 15.36-15.36 15.36s-22.698667 11.946667-20.48 25.6c2.218667 13.653333-5.12 30.72-5.12 30.72l-20.48-5.12-10.24-10.24 10.24-30.72s20.821333-38.4 30.72-51.2c9.898667-12.8 5.12-20.48 5.12-20.48s2.048-10.24-10.24 0-46.08 56.32-46.08 56.32l-15.36 10.24s-25.258667 4.266667-30.72-5.12c-5.461333-9.386667 0-25.6 0-25.6l15.36-5.12 56.32-61.44h20.48v-30.72h-81.92v-35.84l56.32 5.12 30.72-20.48h30.72L512 389.12l-5.12-25.6h15.36l-4.608-4.608c7.509333 1.143467 14.7968 3.549867 21.504 7.133867 14.848 8.021333 32.785067 17.6128 44.509867 23.944533v14.4896l-15.36 20.48 30.72 5.12 34.048 58.368c-1.4336-126.293333-3.293867-287.4368-3.293867-299.008 0-19.2 10.24-20.48 10.24-20.48h81.92c17.92 0 25.6 25.6 25.6 25.6l40.96 445.44h-153.6zM660.48 153.6c-25.6 0-51.2 25.6-51.2 25.6a21.879467 21.879467 0 0 1-10.24-10.24V112.64c0-7.68 10.24-10.24 10.24-10.24h35.84c17.92 0 15.36 15.36 15.36 15.36V153.6z m-184.32 138.24H460.8V256h30.72l10.24 10.24-5.12 15.36-15.36-5.12-5.12 15.36z m31.9488-35.84H527.36a10.24 10.24 0 0 1 10.24 10.24v5.12a10.24 10.24 0 0 1-10.24 10.24h-16.776533c0.904533-2.4576 1.3824-5.051733 1.416533-7.68v-5.12c0-4.5568-1.365333-9.0112-3.8912-12.8z m96.0512-51.2s-0.392533 14.728533 0 20.48c0.392533 5.768533-2.304 5.768533-10.24 10.24-7.936 4.471467-4.215467 15.36-15.36 15.36H563.2a21.742933 21.742933 0 0 0-5.12-5.12c-44.1344-24.610133-2.1504-26.231467-5.12-30.72-3.925333-5.888-5.12-5.12-5.12-5.12h-148.48c-19.456 0-15.36 20.48-15.36 20.48v24.064l138.888533 67.857067L547.84 312.32s56.661333-20.48 66.56 46.08l-10.24 20.48-5.12 10.24-15.36-5.12v2.116267L512 348.16v5.12l-20.48-15.36s1.416533-1.143467 3.549867-2.730667L384 316.586667v11.093333h5.12a10.24 10.24 0 0 1 0 20.48h-5.12v281.6l-10.24 10.24h-138.24l40.96-522.24h256c7.048533 14.08 35.84 51.2 35.84 51.2s-3.584 31.368533 0 30.72c3.584-0.631467 5.12-10.24 5.12-10.24h15.36c3.754667 1.928533 5.8368 6.075733 5.12 10.24-0.256 8.328533 10.24 5.12 10.24 5.12z m-103.099733 126.122667c4.027733-2.850133 8.328533-5.290667 12.817066-7.338667l-129.877333-63.4368v51.2l117.060267 19.575467zM404.48 348.16h35.84a10.24 10.24 0 0 1 0 20.48h-35.84a10.24 10.24 0 0 1 0-20.48z m0 30.72h35.84a10.24 10.24 0 0 1 0 20.48h-35.84a10.24 10.24 0 0 1 0-20.48z" fill="#FF0000" /></svg>