<?xml version="1.0" standalone="no"?><!DOCTYPE svg PUBLIC "-//W3C//DTD SVG 1.1//EN" "http://www.w3.org/Graphics/SVG/1.1/DTD/svg11.dtd"><svg class="icon" width="1000px" height="1000.00px" viewBox="0 0 1024 1024" version="1.1" xmlns="http://www.w3.org/2000/svg"><path d="M0 1024V0h1024v1024H0zM992 32H32v960h960V32z" fill="#0000FF" /><path d="M286.72 542.72h184.32s35.84 2.56 25.6 25.6c-10.24 23.04-122.88 261.12-122.88 261.12l25.6 15.36 87.04-102.4s43.52 19.2 51.2 10.24c5.853867-7.441067 10.990933-15.428267 15.36-23.842133L517.12 716.8l40.96-56.32s38.4 1.28 51.2-5.12 16.64-24.32 0-25.6a42.5984 42.5984 0 0 1-25.6-10.24l61.44-76.8h153.6s39.68-3.84 40.96-30.72c1.28-26.88-48.64-32-76.8-30.72-28.16 1.28-122.88-5.12-122.88-5.12l-56.32-71.68h20.48c5.12 0 44.8-21.76 0-35.84h-51.2l-40.96-51.2a88.098133 88.098133 0 0 1 25.6-5.12c16.64-1.28 34.56-34.56-5.12-40.96h-51.2s-40.96-61.44-66.56-87.04c0 0-61.44-11.52-35.84 35.84 25.6 47.36 107.52 240.64 107.52 240.64s10.24 12.8-20.48 15.36c-30.72 2.56-168.96 20.48-168.96 20.48l-66.56-81.92h-46.08l35.84 97.28-35.84 102.4h46.08l56.32-71.68z" fill="#0000FF" /></svg>