<?xml version="1.0" standalone="no"?><!DOCTYPE svg PUBLIC "-//W3C//DTD SVG 1.1//EN" "http://www.w3.org/Graphics/SVG/1.1/DTD/svg11.dtd"><svg class="icon" width="1000px" height="1000.00px" viewBox="0 0 1024 1024" version="1.1" xmlns="http://www.w3.org/2000/svg"><path d="M864 1024H160A160 160 0 0 1 0 864V160A160 160 0 0 1 160 0h704A160 160 0 0 1 1024 160v704A160 160 0 0 1 864 1024z m128-832a160 160 0 0 0-160-160h-640a160 160 0 0 0-160 160v640a160 160 0 0 0 160 160h640a160 160 0 0 0 160-160v-640z" fill="#FF0000" /><path d="M204.509867 845.550933c12.544-10.052267 23.722667-21.674667 33.28-34.6112 4.181333 5.341867 8.874667 10.274133 14.011733 14.711467-7.611733 6.3488-20.1728 17.3056-37.6832 32.8704 13.431467 17.885867 33.877333 32.017067 61.3376 42.3936a38.485333 38.485333 0 0 0-15.7696 17.288533 187.972267 187.972267 0 0 1-56.9344-45.841066 229.12 229.12 0 0 1-35.925333-63.146667c-6.997333 9.813333-14.011733 18.7392-21.026134 26.811733v64.887467a163.5328 163.5328 0 0 0 32.426667-22.493867c2.048 6.280533 4.693333 12.373333 7.8848 18.158934C158.071467 913.885867 139.946667 924.842667 131.754667 929.450667a85.265067 85.265067 0 0 0-10.513067-14.6944c4.181333-3.072 6.7584-7.816533 6.997333-12.970667V852.48a231.560533 231.560533 0 0 1-41.181866 27.682133 30.890667 30.890667 0 0 0-14.011734-14.711466 154.043733 154.043733 0 0 0 52.138667-34.594134 159.880533 159.880533 0 0 0 38.997333-52.770133H113.373867v22.493867H94.958933c0.597333-6.0416 0.887467-12.117333 0.8704-18.176 0-6.314667-0.290133-12.663467-0.853333-19.029334h73.591467a156.023467 156.023467 0 0 0 4.386133-34.594133c7.168 1.9968 14.506667 3.447467 21.9136 4.317867a178.688 178.688 0 0 0-7.8848 30.276266h74.478933c-0.597333 6.929067-0.887467 13.550933-0.8704 19.899734-0.0512 5.495467 0.238933 10.973867 0.8704 16.4352h-17.527466v-21.623467H182.613333c-1.757867 4.608-3.515733 8.942933-5.256533 12.970667a226.645333 226.645333 0 0 0 27.170133 54.493866z m-73.352534 86.0672l-0.785066-1.399466a84.753067 84.753067 0 0 0-10.325334-14.4384l-1.160533-1.297067 1.416533-1.024a15.530667 15.530667 0 0 0 6.365867-11.8272v-45.755733a236.970667 236.970667 0 0 1-38.826667 25.668266l-1.570133 0.836267-0.682667-1.6384a29.5936 29.5936 0 0 0-13.346133-13.9264l-2.952533-1.706667 3.242666-1.143466a153.344 153.344 0 0 0 51.541334-34.2528 161.672533 161.672533 0 0 0 37.6832-50.056534H114.961067v22.493867H93.184l0.170667-1.723733c0.597333-5.9904 0.887467-11.997867 0.8704-18.0224 0-6.212267-0.290133-12.561067-0.8704-18.8928l-0.170667-1.706667h74.103467c2.56-10.837333 3.925333-21.9136 4.061866-33.024v-2.1504l2.048 0.6144c7.099733 1.979733 14.336 3.413333 21.674667 4.266667l2.218667 0.290133-1.024 1.9968a167.765333 167.765333 0 0 0-7.338667 27.989333h74.24l-0.1536 1.706667c-0.5632 6.570667-0.853333 13.175467-0.8704 19.7632-0.0512 5.4272 0.238933 10.8544 0.8704 16.2304l0.221867 1.774933H242.346667v-21.623466h-58.641067c-1.536 4.0448-3.106133 7.8848-4.642133 11.4688a225.962667 225.962667 0 0 0 25.770666 52.104533 182.562133 182.562133 0 0 0 31.658667-33.194667l1.28-1.757866 1.3312 1.723733c4.130133 5.256533 8.772267 10.103467 13.824 14.472533l1.365333 1.194667-1.399466 1.194667c-7.424 6.212267-19.387733 16.622933-36.539734 31.863466 13.175467 16.9984 33.28 30.72 59.7504 40.704l3.242667 1.2288-3.072 1.6384a37.102933 37.102933 0 0 0-15.104 16.622934l-0.750933 1.467733-1.450667-0.785067a190.498133 190.498133 0 0 1-57.4464-46.250666 230.109867 230.109867 0 0 1-35.1232-60.8256c-5.9904 8.311467-12.3392 16.349867-19.012267 24.1152v61.6448A164.676267 164.676267 0 0 0 177.152 877.226667l1.809067-1.5872 0.768 2.286933c2.030933 6.1952 4.608 12.168533 7.765333 17.885867l0.750933 1.314133-1.297066 0.802133c-27.716267 17.1008-46.011733 28.16-54.3744 32.904534l-1.416534 0.785066z m-7.611733-16.674133c3.293867 3.84 6.2464 7.970133 8.823467 12.322133 8.738133-5.0176 26.112-15.530667 51.6096-31.266133a106.632533 106.632533 0 0 1-6.5024-14.848 164.932267 164.932267 0 0 1-30.941867 21.162667l-2.338133 1.194666v-68.096l0.375466-0.426666c7.389867-8.567467 14.3872-17.476267 20.923734-26.709334l1.7408-2.423466 1.092266 2.781866a228.6592 228.6592 0 0 0 35.669334 62.72 186.453333 186.453333 0 0 0 55.04 44.663467c3.0208-5.905067 7.441067-10.990933 12.8512-14.813867-26.129067-10.325333-45.994667-24.3712-59.0336-41.745066l-0.8704-1.160534 1.0752-0.955733c16.725333-14.848 28.672-25.258667 36.352-31.744a107.52 107.52 0 0 1-11.554134-12.014933 190.139733 190.139733 0 0 1-32.324266 33.1776l-1.3312 1.109333-1.024-1.4336a229.717333 229.717333 0 0 1-27.357867-54.8864l-0.2048-0.5632 0.256-0.5632c1.7408-3.9936 3.4816-8.3456 5.2224-12.919467l0.392533-1.024h64.0512v21.640534h14.1312a140.458667 140.458667 0 0 1-0.682666-14.848c0-5.9392 0.256-12.0832 0.750933-18.3296h-74.752l0.426667-1.8944c1.792-9.693867 4.181333-19.285333 7.168-28.672a150.306133 150.306133 0 0 1-18.056534-3.515734 162.304 162.304 0 0 1-4.386133 32.8704l-0.290133 1.211734H96.7168a201.0112 201.0112 0 0 1 0 34.048h15.0528v-22.493867h54.8352l-0.938667 2.2016A162.235733 162.235733 0 0 1 126.293333 832a161.860267 161.860267 0 0 1-49.664 33.792c4.727467 2.986667 8.6016 7.168 11.195734 12.151467 14.011733-7.509333 27.204267-16.452267 39.3728-26.6752l2.645333-2.2528v52.736c-0.290133 5.051733-2.56 9.796267-6.314667 13.192533z m264.106667-181.879467a576.426667 576.426667 0 0 0-1.757867 41.5232v127.146667h28.928V764.245333c0-9.216-0.597333-19.592533-1.757867-31.146666h21.9136c-1.194667 9.762133-1.792 19.592533-1.757866 29.422933v139.264h34.184533c9.335467 0 20.736-0.580267 34.167467-1.7408v19.0464a394.24 394.24 0 0 0-33.28-1.7408h-133.2224c-8.192 0-19.882667 0.580267-35.054934 1.7408v-19.0464c15.189333 1.160533 26.5728 1.7408 34.184534 1.7408h32.426666v-128a353.1264 353.1264 0 0 0-2.628266-40.669867h23.6544v-0.034133zM353.450667 855.04a76.288 76.288 0 0 0-20.138667 6.912 781.533867 781.533867 0 0 0-28.040533-77.858133c5.8368-2.286933 12.253867-4.881067 19.285333-7.7824 6.997333 17.92 16.64 44.151467 28.893867 78.728533z m108.680533 8.6528c-5.751467-3.413333-11.946667-6.0416-18.414933-7.7824a289.757867 289.757867 0 0 0 28.040533-81.322667c6.417067 2.321067 13.7216 4.608 21.9136 6.929067-7.611733 19.626667-18.1248 47.018667-31.556267 82.193067v-0.017067z m41.028267 57.088l-1.7408-0.1536a402.397867 402.397867 0 0 0-33.160534-1.723733h-133.205333c-8.192 0-19.933867 0.580267-34.9184 1.723733l-1.723733 0.136533v-22.459733l1.706666 0.136533c15.018667 1.143467 26.4704 1.7408 34.065067 1.7408h30.8224v-126.464a353.672533 353.672533 0 0 0-2.628267-40.482133l-0.2048-1.757867h27.1872l-0.119466 1.6896a585.1648 585.1648 0 0 0-1.757867 41.403734v125.627733h25.719467v-135.970133c0-9.028267-0.597333-19.456-1.7408-30.993067l-0.170667-1.723733h25.480533l-0.221866 1.774933a232.448 232.448 0 0 0-1.7408 29.218133v137.693867h32.5632c9.3184 0 20.770133-0.597333 34.048-1.723733l1.723733-0.170667v22.510933-0.034133z m-201.557334-19.0464v15.598933c14.267733-1.024 25.514667-1.5872 33.450667-1.5872h133.205333c8.430933 0 19.080533 0.512 31.6928 1.5872v-15.581866c-12.629333 1.024-23.586133 1.570133-32.580266 1.570133H431.616v-140.8512a241.152 241.152 0 0 1 1.536-27.818667h-18.312533c1.024 10.939733 1.570133 20.8896 1.570133 29.559467v139.1104h-32.1024v-128.7168c0-11.1616 0.546133-24.593067 1.621333-39.936h-20.138666c1.536 12.970667 2.338133 26.026667 2.423466 39.082667v129.604266h-34.013866a493.909333 493.909333 0 0 1-32.597334-1.604266l0.017067-0.017067z m161.348267-35.720533l-1.655467-0.955734a72.2432 72.2432 0 0 0-18.005333-7.6288l-1.9456-0.512 0.9728-1.757866a289.501867 289.501867 0 0 0 27.869867-80.896l0.375466-1.809067 1.7408 0.6656c6.280533 2.2528 13.602133 4.573867 21.794134 6.894933l1.706666 0.4608-0.631466 1.621334a18755.242667 18755.242667 0 0 0-31.556267 82.158933l-0.682667 1.757867z m-16.896-11.093334c5.290667 1.5872 10.410667 3.754667 15.223467 6.468267 12.7488-33.399467 22.8352-59.682133 30.242133-78.848a337.4592 337.4592 0 0 1-18.568533-5.853867 293.802667 293.802667 0 0 1-26.897067 78.267734v-0.017067z m-113.7152 9.335467l-0.5632-1.792a779.776 779.776 0 0 0-27.989333-77.687467l-0.648534-1.501866 1.536-0.597334c5.8368-2.304 12.253867-4.898133 19.2512-7.7824l1.536-0.6144 0.580267 1.501867c7.031467 17.92 16.759467 44.424533 28.945067 78.762667l0.6144 1.757866-1.8432 0.341334c-6.8608 1.314133-13.482667 3.601067-19.712 6.775466l-1.706667 0.836267z m-24.951467-79.274667a790.528 790.528 0 0 1 26.88 74.752 78.609067 78.609067 0 0 1 17.066667-5.870933 2733.431467 2733.431467 0 0 0-27.6992-75.451733c-5.819733 2.389333-11.264 4.608-16.247467 6.570666z m301.943467 57.105067c-4.096 3.464533-9.045333 7.202133-14.8992 11.264a229.0688 229.0688 0 0 0-18.397867-30.276267v63.146667c0 11.537067 0.290133 24.507733 0.887467 38.912h-19.285333c0.580267-14.421333 0.8704-27.392 0.8704-38.912v-55.381333c-2.9184 8.6528-6.144 16.861867-9.642667 24.644266-4.266667 9.1648-9.250133 17.988267-14.882133 26.385067a157.986133 157.986133 0 0 0-14.0288-13.824 155.323733 155.323733 0 0 0 18.397866-30.276267 212.821333 212.821333 0 0 0 17.527467-50.176h-5.256533c-8.192 0-16.401067 0.597333-24.541867 1.7408v-16.4352c8.174933 0.580267 16.059733 0.8704 23.671467 0.853334h8.7552v-17.288534c0-9.216-0.290133-17.8688-0.8704-25.941333h20.138666a141.312 141.312 0 0 0-1.7408 25.941333v17.3056h9.642667c6.417067 0 13.7216-0.290133 21.9136-0.8704v15.5648c-12.868267-0.5632-23.381333-0.853333-31.556267-0.853333v34.594133c3.515733-2.884267 7.611733-6.0416 12.288-9.5232 9.335467 12.6976 16.3328 22.493867 21.009067 29.405867z m81.5104-58.8288v112.469333c0 7.509333 1.7408 11.52 5.256533 12.100267 2.884267 0.546133 5.8368 0.682667 8.7552 0.443733a6.5536 6.5536 0 0 0 4.829867-6.058666c1.024-5.563733 1.467733-11.229867 1.297067-16.878934 5.802667 3.089067 11.997867 5.4272 18.414933 6.929067-1.194667 8.362667-3.566933 16.503467-6.997333 24.2176a12.1856 12.1856 0 0 1-11.4176 6.058667h-18.397867a21.162667 21.162667 0 0 1-15.36-4.778667c-3.208533-3.157333-4.522667-9.642667-3.925333-19.456v-141.858133h-33.28c0 32.8704-0.4608 58.385067-1.3312 76.561066a207.684267 207.684267 0 0 1-7.8848 49.3056 124.091733 124.091733 0 0 1-25.856 44.544c-4.778667-5.12-10.069333-9.745067-15.7696-13.824 8.1408-6.314667 14.865067-14.267733 19.712-23.364266a95.402667 95.402667 0 0 0 10.069333-28.535467c1.826133-10.308267 2.986667-20.701867 3.515733-31.146667 0.580267-10.9568 0.8704-24.797867 0.887467-41.5232 0-17.3056-0.3072-32.8704-0.887467-46.711466h69.2224a1144.9856 1144.9856 0 0 0-0.853333 41.506133z m-85.879467 146.056533l-1.245866-1.4336a103.4752 103.4752 0 0 0-15.5136-13.602133l-1.6384-1.245867 1.6384-1.262933a72.004267 72.004267 0 0 0 19.285333-22.852267c4.778667-8.772267 8.123733-18.261333 9.898667-28.074666 1.809067-10.24 2.9696-20.565333 3.498666-30.941867 0.580267-10.973867 0.8704-24.917333 0.8704-41.454933 0-17.066667-0.290133-32.768-0.8704-46.6432l-0.085333-1.6384h72.567467l-0.068267 1.6384c-0.529067 13.824-0.8192 27.648-0.853333 41.472v112.469333c0 4.488533 0.682667 10.001067 3.925333 10.530133 2.730667 0.512 5.5296 0.682667 8.2944 0.426667 2.048-0.750933 3.413333-2.6624 3.447467-4.846933 1.006933-5.444267 1.4336-10.973867 1.28-16.503467v-2.696533l2.389333 1.314133c5.6832 3.0208 11.7248 5.290667 18.005333 6.775467l1.467734 0.341333-0.290134 1.467733c-1.194667 8.533333-3.6352 16.861867-7.202133 24.7296a13.755733 13.755733 0 0 1-12.8 6.826667h-18.397867a22.698667 22.698667 0 0 1-16.452266-5.205333c-3.584-3.549867-5.034667-10.308267-4.420267-20.6848v-140.202667h-30.1056c0 32-0.443733 57.2416-1.314133 75.0592a210.090667 210.090667 0 0 1-7.953067 49.664 125.986133 125.986133 0 0 1-26.1632 45.124267l-1.194667 1.450666z m-13.192533-16.3328c4.6592 3.4816 9.045333 7.3216 13.141333 11.434667a121.6512 121.6512 0 0 0 24.354134-42.564267c4.5568-15.940267 7.185067-32.3584 7.8336-48.930133 0.853333-18.056533 1.314133-43.793067 1.314133-76.475733v-1.5872h36.488533v143.4624c-0.5632 9.3696 0.6144 15.496533 3.4816 18.346666 3.9936 3.208533 9.096533 4.7616 14.199467 4.3008h18.397867a10.5984 10.5984 0 0 0 10.001066-5.290666c3.191467-7.0656 5.393067-14.557867 6.5536-22.237867a79.598933 79.598933 0 0 1-14.967466-5.461333c0.0512 4.898133-0.392533 9.796267-1.3312 14.609066a7.953067 7.953067 0 0 1-6.178134 7.2704 36.352 36.352 0 0 1-9.216-0.443733c-6.587733-1.092267-6.587733-10.581333-6.587733-13.6704v-112.4864c0-11.3664 0.273067-24.797867 0.8192-39.936h-65.8944c0.512 13.5168 0.802133 28.672 0.802133 45.141333 0 16.5888-0.290133 30.583467-0.887466 41.591467-0.529067 10.513067-1.706667 20.992-3.515734 31.351467a97.6384 97.6384 0 0 1-10.24 29.013333 74.6496 74.6496 0 0 1-18.568533 22.562133z m-13.175467 13.738667h-22.6304l0.085334-1.6384c0.5632-14.472533 0.853333-27.5456 0.853333-38.8608v-46.08c-2.013867 5.393067-4.1984 10.752-6.5536 16.008533a202.376533 202.376533 0 0 1-15.018667 26.624l-1.143466 1.7408-1.399467-1.536a154.965333 154.965333 0 0 0-13.8752-13.704533l-1.245867-1.024 1.092267-1.194667a154.743467 154.743467 0 0 0 18.158933-29.952c7.5776-15.223467 13.2608-31.300267 16.964267-47.889066h-3.242667c-8.157867 0.017067-16.2816 0.597333-24.337066 1.706666l-1.809067 0.273067v-19.968l1.706667 0.119467c7.953067 0.580267 15.872 0.853333 23.552 0.853333h7.168v-15.701333c0-9.079467-0.290133-17.7664-0.8704-25.856l-0.136534-1.6896h23.842134l-0.392534 1.877333c-1.365333 8.4992-1.928533 17.066667-1.706666 25.668267v15.701333h8.021333c6.485333 0 13.824-0.273067 21.8112-0.853333l1.706667-0.119467v18.944l-1.6896-0.085333a758.784 758.784 0 0 0-29.866667-0.853334v29.696c3.191467-2.525867 6.4512-5.000533 9.728-7.424l1.297067-0.9728 0.955733 1.314134c9.540267 12.936533 16.418133 22.5792 21.060267 29.457066l0.802133 1.1776-1.0752 0.904534c-4.1984 3.515733-9.216 7.338667-15.018667 11.332266l-1.5872 1.092267-0.802133-1.706667a205.7216 205.7216 0 0 0-15.36-25.770666v57.9584c0 11.690667 0.290133 24.7808 0.8704 38.877866l0.085333 1.553067z m-19.285333-3.140267h15.9232a1000.311467 1000.311467 0 0 1-0.785067-37.376v-100.181333h1.5872c7.816533 0 17.6128 0.238933 29.952 0.768v-12.202667c-6.7584 0.477867-13.533867 0.7168-20.309333 0.733867h-11.229867v-18.875733a158.685867 158.685867 0 0 1 1.416534-24.3712h-16.503467c0.512 7.68 0.750933 15.872 0.750933 24.3712v18.875733h-10.359466c-7.202133 0-14.609067-0.238933-22.0672-0.750933v12.936533c7.611733-0.989867 15.274667-1.4848 22.9376-1.501867h7.253333l-0.426667 1.911467a215.944533 215.944533 0 0 1-17.646933 50.551467 172.544 172.544 0 0 1-17.595733 29.405866c4.027733 3.601067 7.8848 7.406933 11.554133 11.4176 5.137067-7.816533 9.710933-15.9744 13.653333-24.456533 3.584-8.004267 6.775467-16.1792 9.591467-24.490667l3.106133-9.216v65.092267c-0.034133 12.458667-0.3072 24.900267-0.8192 37.341867z m18.500267-100.7616c6.382933 8.994133 12.151467 18.397867 17.2544 28.16 4.181333-2.884267 8.226133-5.9392 12.151466-9.1648-4.437333-6.485333-10.752-15.36-19.2512-26.897066-3.447467 2.56-6.826667 5.1712-10.154666 7.867733v0.034133z m196.266666-74.154666c0-7.4752-0.290133-14.404267-0.8704-20.753067h17.527467a123.5456 123.5456 0 0 0-1.757867 20.753067v25.088h8.772267c2.321067 0 6.997333-0.273067 14.011733-0.853334v14.6944c-6.997333-0.5632-11.690667-0.853333-14.011733-0.853333h-8.772267v34.594133c3.413333-1.672533 6.656-3.703467 9.642667-6.058666l7.441067 12.970666c2.423467 4.215467 4.608 8.5504 6.570666 12.987734a79.872 79.872 0 0 0-11.383466 7.7824 240.605867 240.605867 0 0 0-6.144-11.264 247.296 247.296 0 0 1-6.144-11.264v70.946133c0 8.6528 0.290133 18.158933 0.8704 28.535467h-16.622934c0.580267-8.6528 0.8704-18.158933 0.8704-28.535467v-71.7824a209.749333 209.749333 0 0 1-7.8848 22.493867 361.130667 361.130667 0 0 1-10.513066 25.088 76.834133 76.834133 0 0 0-11.383467-14.711467 132.096 132.096 0 0 0 10.069333-18.176c3.140267-6.7584 5.922133-13.687467 8.328534-20.753067 2.338133-6.929067 4.386133-13.2608 6.144-19.029333 1.450667-4.539733 2.6112-9.147733 3.498666-13.824h-7.0144c-2.935467 0-9.352533 0.290133-19.285333 0.853333v-14.6944c7.594667 0.580267 13.141333 0.853333 16.657067 0.853334h11.383466v-25.088z m52.5824 62.293333c0-5.7856-0.290133-11.554133-0.8704-17.3056 5.2224 0.6144 10.496 0.904533 15.7696 0.8704-0.597333 4.608-1.024 9.949867-1.314133 16.008533-0.256 4.744533-0.4096 9.506133-0.443733 14.267734h13.175466v-8.669867c0-8.6528-0.290133-16.145067-0.8704-22.493867h16.64c-1.194667 6.570667-1.774933 13.226667-1.7408 19.899734v11.264c5.2736 0 10.530133-0.290133 15.7696-0.853334v13.824a164.642133 164.642133 0 0 0-15.7696-0.887466v21.623466c0 12.714667 0.290133 25.105067 0.8704 37.205334h-15.7696c0.5632-9.796267 0.853333-21.0432 0.8704-33.7408v-25.088h-13.141333a185.344 185.344 0 0 1-1.314133 21.623466c-0.9216 7.68-2.679467 15.223467-5.256534 22.493867a140.322133 140.322133 0 0 1-14.472533 27.682133 42.461867 42.461867 0 0 0-13.141333-8.6528c6.2464-7.3728 11.281067-15.701333 14.8992-24.644266 3.7376-12.509867 5.802667-25.4464 6.144-38.5024a108.117333 108.117333 0 0 0-13.141334 0.853333v-13.824c4.352 0.6144 8.7552 0.904533 13.141334 0.887467v-13.824l-0.034134-0.017067z m55.210667-46.711467c0-7.492267-0.1536-13.9776-0.443733-19.456a377.992533 377.992533 0 0 1-0.426667-19.456c5.256533 0.580267 11.6736 1.160533 19.285333 1.723734a70.144 70.144 0 0 0-3.072 16.4352c-0.3072 5.188267-0.443733 12.117333-0.443733 20.770133h14.011733c10.513067 0 21.9136-0.290133 34.184534-0.8704v14.711467a706.9696 706.9696 0 0 0-34.184534-0.8704h-14.011733c0 4.0448 0.136533 8.8064 0.426667 14.267733 0.290133 5.461333 0.733867 11.810133 1.348266 18.9952 0.580267 7.2704 1.604267 14.4896 3.072 21.623467 1.450667 7.2192 3.345067 15.7184 5.700267 25.514666 3.498667-10.376533 6.570667-21.0432 9.216-32 2.628267-11.076267 4.2496-22.357333 4.8128-33.7408 5.8368 1.160533 12.561067 2.594133 20.155733 4.334934-2.56 4.608-4.488533 9.557333-5.700266 14.6944-1.467733 5.7856-3.2256 11.9808-5.256534 18.602666-2.048 6.621867-4.215467 13.9776-6.570666 22.0672a207.9232 207.9232 0 0 1-9.642667 25.941334c2.440533 5.6832 5.5296 11.0592 9.216 16.008533 2.013867 2.6624 4.539733 4.864 7.458133 6.485333 2.321067 1.160533 4.078933-4.608 5.256534-17.3056 5.341867 2.56 10.922667 4.590933 16.64 6.058667a108.424533 108.424533 0 0 1-6.997334 25.088 11.383467 11.383467 0 0 1-8.772266 7.338667 24.3712 24.3712 0 0 1-14.455467-6.485334 79.121067 79.121067 0 0 1-18.8416-23.3472c-4.676267 5.7856-8.925867 10.820267-12.714667 15.138134a1127.936 1127.936 0 0 1-13.568 15.138133 79.479467 79.479467 0 0 0-18.414933-10.376533 156.893867 156.893867 0 0 0 22.784-17.3056c5.632-5.802667 10.615467-12.1856 14.8992-19.029334a319.658667 319.658667 0 0 1-6.144-22.493866c-1.757867-7.509333-3.2256-15.4112-4.386133-23.790934-1.143467-8.362667-2.048-16.861867-2.628267-25.514666l-1.7408-25.941334H852.992c-9.9328 0-21.333333 0.273067-34.167467 0.853334v-14.711467a660.650667 660.650667 0 0 0 34.167467 0.8704h28.910933l-0.017066 0.034133z m47.325867-24.661333c2.594133 4.130133 5.5296 8.021333 8.7552 11.690667-4.676267 2.304-9.045333 4.608-13.141334 6.912a71.5776 71.5776 0 0 0-6.144-9.949867 188.296533 188.296533 0 0 0-8.772266-10.820267c3.908267-3.140267 8.021333-6.0416 12.288-8.635733 2.338133 3.447467 4.6592 7.048533 6.997333 10.786133v0.017067zM791.552 927.573333h-20.053333l0.119466-1.6896c0.580267-8.6528 0.8704-18.2272 0.8704-28.433066v-61.3888c-1.501867 4.266667-3.106133 8.482133-4.8128 12.663466-3.191467 8.533333-6.7072 16.913067-10.5472 25.173334l-1.262933 2.7136-1.536-2.56a74.1376 74.1376 0 0 0-11.1616-14.421334l-0.9216-0.904533 0.750933-1.092267c3.754667-5.717333 7.099733-11.707733 9.9328-17.954133 3.1232-6.724267 5.870933-13.602133 8.260267-20.616533 2.133333-6.280533 4.181333-12.612267 6.144-18.961067 1.416533-4.642133 2.4576-8.618667 3.106133-11.810133h-5.102933c-2.833067 0-9.1136 0.290133-19.182933 0.853333l-1.706667 0.119467v-18.107734l1.7408 0.136534c7.3728 0.580267 12.936533 0.853333 16.520533 0.853333h9.796267v-23.5008c0-7.338667-0.290133-14.2848-0.8704-20.616533l-0.170667-1.706667h21.179734l-0.3072 1.826133a123.716267 123.716267 0 0 0-1.7408 20.48v23.5008h7.168c1.655467 0 5.393067-0.1536 13.8752-0.853333l1.7408-0.136533v18.1248l-1.706667-0.136534c-7.1168-0.5632-11.656533-0.853333-13.909333-0.853333h-7.168v30.4128c2.474667-1.365333 4.829867-2.9184 7.031466-4.676267l1.4848-1.143466 0.9216 1.604266 7.441067 12.970667c1.6384 2.901333 3.140267 5.717333 4.471467 8.3968v-13.755733l1.826133 0.273066c3.754667 0.512 7.509333 0.785067 11.3152 0.8192v-12.2368c0-5.632-0.3072-11.4176-0.887467-17.152l-0.2048-1.979733 2.013867 0.238933c5.154133 0.6144 10.359467 0.904533 15.5648 0.8704h1.809067l-0.2048 1.774934c-0.597333 4.5568-1.024 9.898667-1.3312 15.872a333.482667 333.482667 0 0 0-0.4096 12.629333h9.9328v-7.0656c0-8.4992-0.290133-16.0256-0.8704-22.357333l-0.170667-1.706667h20.343467l-0.341334 1.8432c-1.194667 6.485333-1.757867 13.038933-1.7408 19.626667v9.642666a137.898667 137.898667 0 0 0 13.994667-0.853333l1.2288-0.136533c-0.768-6.2976-1.365333-12.612267-1.774933-18.944l-1.655467-24.490667H852.992c-9.728 0-21.213867 0.290133-34.0992 0.853333l-1.672533 0.085334V761.685333l1.672533 0.085334c11.400533 0.580267 22.869333 0.8704 34.0992 0.8704h27.306667c0-6.6048-0.170667-12.5952-0.426667-17.800534a363.844267 363.844267 0 0 1-0.426667-19.5584v-1.774933l1.774934 0.2048c5.1712 0.597333 11.451733 1.143467 19.217066 1.723733l1.9968 0.170667-0.580266 1.877333a69.461333 69.461333 0 0 0-3.0208 16.042667c-0.290133 6.382933-0.426667 12.7488-0.4096 19.114667h12.407466c10.6496 0 22.1184-0.290133 34.0992-0.853334l1.672534-0.085333v18.0224l-1.672534-0.085333a708.0448 708.0448 0 0 0-34.0992-0.8704h-12.407466c0.034133 3.7376 0.170667 7.970133 0.4096 12.629333 0.290133 5.444267 0.733867 11.8272 1.3312 18.978133 0.580267 7.202133 1.5872 14.370133 3.037866 21.435734 1.194667 5.888 2.6624 12.578133 4.369067 19.950933 2.798933-8.738133 5.256533-17.578667 7.389867-26.487467 2.6112-10.990933 4.215467-22.186667 4.778666-33.450666l0.1024-1.8432 1.826134 0.375466c5.9392 1.1776 12.7488 2.628267 20.189866 4.317867l2.0992 0.477867-1.058133 1.877333a56.1152 56.1152 0 0 0-5.546667 14.2848c-1.450667 5.751467-3.242667 12.032-5.2736 18.688-2.030933 6.638933-4.2496 13.9776-6.570666 22.016-2.577067 8.704-5.717333 17.2032-9.4208 25.4976 2.321067 5.307733 5.239467 10.3424 8.704 15.018667 1.877333 2.4576 4.215467 4.539733 6.912 6.058666 0-0.170667 1.655467-1.979733 2.9696-16.0256l0.221866-2.304 2.082134 1.041067c5.256533 2.5088 10.734933 4.5056 16.366933 5.9392l1.416533 0.392533-0.256 1.4336a110.08 110.08 0 0 1-7.168 25.4976 12.936533 12.936533 0 0 1-10.069333 8.192 25.6512 25.6512 0 0 1-15.581867-6.792533 77.533867 77.533867 0 0 1-18.056533-21.845333c-3.976533 4.864-7.765333 9.352533-11.298133 13.397333-3.805867 4.334933-8.3456 9.386667-13.602134 15.1552l-1.006933 1.092267-1.1776-0.887467a77.755733 77.755733 0 0 0-18.0224-10.171733l-2.7648-1.143467 2.474667-1.6384c8.021333-5.0176 15.5648-10.752 22.562133-17.1008 5.358933-5.546667 10.1376-11.639467 14.267733-18.141867a314.248533 314.248533 0 0 1-5.956266-21.9136c-1.826133-7.901867-3.293867-15.889067-4.386134-23.927466l-0.341333-2.304v12.919466l-1.7408-0.170666a170.427733 170.427733 0 0 0-14.011733-0.853334V858.453333c0 12.8 0.290133 25.309867 0.853333 37.12l0.085333 1.655467H850.432l0.1024-1.672533c0.597333-9.813333 0.887467-21.128533 0.887467-33.6384v-23.517867h-9.984c-0.085333 6.775467-0.512 13.5168-1.314134 20.241067-0.938667 7.7824-2.730667 15.428267-5.341866 22.8352a143.752533 143.752533 0 0 1-14.609067 27.989333l-1.024 1.5872-1.399467-1.2288a41.181867 41.181867 0 0 0-12.5952-8.362667l-2.184533-0.682666 1.450667-1.792c6.126933-7.253333 11.0592-15.428267 14.6432-24.234667a143.086933 143.086933 0 0 0 5.905066-36.352c-3.754667 0.1024-7.492267 0.375467-11.2128 0.853333h-0.170666c0.2048 0.4096 0.392533 0.836267 0.5632 1.245867l0.5632 1.297067-1.245867 0.699733c-3.925333 2.218667-7.68 4.778667-11.1616 7.6288l-1.536 1.262933-0.904533-1.774933a229.034667 229.034667 0 0 0-6.0928-11.1616 247.313067 247.313067 0 0 1-3.140267-5.563733v64.4608c0 8.772267 0.290133 18.346667 0.8704 28.450133l0.068267 1.774933z m-16.64-3.157333h13.2608a509.098667 509.098667 0 0 1-0.785067-26.965333v-112.298667h10.359467c2.133333 0 6.212267 0.221867 12.424533 0.7168v-11.264c-5.905067 0.477867-10.1888 0.733867-12.424533 0.733867h-10.359467v-26.6752c0-6.417067 0.494933-12.834133 1.467734-19.182934h-13.892267c0.477867 5.973333 0.7168 12.407467 0.7168 19.182934v26.6752h-12.970667c-3.413333 0-8.448-0.256-15.069866-0.733867v11.3152c9.147733-0.512 14.9504-0.768 17.681066-0.768h8.9088l-0.324266 1.826133a123.460267 123.460267 0 0 1-3.549867 14.0288 651.605333 651.605333 0 0 1-6.144 19.080534c-2.423467 7.1168-5.2224 14.114133-8.379733 20.9408-2.747733 5.973333-5.922133 11.758933-9.489067 17.288533 3.413333 3.584 6.4512 7.441067 9.130667 11.5712 3.310933-7.338667 6.382933-14.762667 9.216-22.306133 3.037867-7.287467 5.649067-14.7456 7.850666-22.357334l3.140267-11.383466v83.626666c0.017067 8.977067-0.221867 17.9712-0.750933 26.965334h-0.017067z m129.092267-35.84l1.160533 2.013867c4.642133 8.721067 10.888533 16.503467 18.432 22.8864 3.601067 3.2768 8.072533 5.410133 12.885333 6.1952h0.477867a9.9328 9.9328 0 0 0 7.4752-6.485334c3.089067-7.4752 5.290667-15.291733 6.587733-23.261866a93.047467 93.047467 0 0 1-13.431466-4.778667c-1.4336 13.7216-3.4816 16.622933-6.058667 16.622933a2.8672 2.8672 0 0 1-1.297067-0.324266 25.0368 25.0368 0 0 1-7.970133-6.894934 78.4384 78.4384 0 0 1-9.4208-16.3328l-0.290133-0.648533 0.273066-0.648533c3.754667-8.362667 6.9632-16.964267 9.5744-25.770667 2.338133-8.055467 4.522667-15.428267 6.587734-22.0672 2.013867-6.587733 3.771733-12.8 5.239466-18.5344a62.293333 62.293333 0 0 1 4.829867-13.226667 701.269333 701.269333 0 0 0-16.247467-3.498666 187.118933 187.118933 0 0 1-4.7616 32.2048 371.985067 371.985067 0 0 1-9.233066 32.119466l-1.792 5.290667-1.297067-5.410133c-2.048-8.4992-3.9424-17.032533-5.700267-25.6a179.626667 179.626667 0 0 1-3.072-21.8112 635.904 635.904 0 0 1-1.314133-19.080534c-0.273067-4.778667-0.426667-9.557333-0.443733-14.336v-1.570133h15.633066c10.427733 0 21.384533 0.256 32.580267 0.785067v-11.400534c-11.434667 0.512-22.391467 0.785067-32.597333 0.785067h-15.616v-1.570133c0-8.8576 0.1536-15.684267 0.443733-20.855467 0.3072-5.051733 1.1776-10.069333 2.56-14.916267-5.188267-0.392533-10.3936-0.853333-15.581867-1.399466 0 6.877867 0.170667 12.663467 0.426667 17.629866 0.290133 5.6832 0.443733 12.288 0.443733 19.541334v1.570133H852.992c-10.752 0-21.674667-0.256-32.580267-0.768v11.383467c12.253867-0.512 23.210667-0.785067 32.580267-0.785067h30.429867l1.8432 27.409067c0.5632 8.516267 1.4336 16.981333 2.6112 25.429333 1.143467 8.192 2.594133 16.110933 4.369066 23.637333 1.774933 7.509333 3.805867 15.086933 6.0928 22.391467l0.221867 0.682667-0.4096 0.631466a117.76 117.76 0 0 1-15.104 19.285334 146.363733 146.363733 0 0 1-20.599467 15.872c5.239467 2.321067 10.24 5.188267 14.882134 8.533333 4.829867-5.290667 9.0112-9.966933 12.578133-14.011733 3.925333-4.5056 8.192-9.557333 12.663467-15.086934l1.4336-1.826133z m-95.7952 10.752a47.786667 47.786667 0 0 1 10.205866 6.929067 134.656 134.656 0 0 0 13.312-25.770667c2.542933-7.185067 4.266667-14.626133 5.188267-22.186667 0.853333-7.1168 1.28-14.267733 1.314133-21.435733v-1.570133h16.3328v26.658133c0 11.8784-0.256 22.664533-0.785066 32.1536h12.407466a795.835733 795.835733 0 0 1-0.802133-35.618133v-23.210667h1.604267c4.181333 0 8.925867 0.238933 14.165333 0.699733v-10.325333c-4.7104 0.443733-9.437867 0.682667-14.165333 0.682667h-1.604267v-12.8c0-6.144 0.477867-12.270933 1.450667-18.3296h-13.0048c0.512 6.058667 0.733867 13.090133 0.733866 20.923733v10.24h-16.349866v-1.5872c0-3.584 0.1536-8.3968 0.443733-14.336 0.238933-5.290667 0.6144-10.120533 1.109333-14.336a129.160533 129.160533 0 0 1-12.1856-0.648533c0.4608 5.205333 0.682667 10.410667 0.682667 15.5136v15.394133h-1.5872c-3.857067 0-7.714133-0.2048-11.554133-0.631467v10.24a107.178667 107.178667 0 0 1 11.554133-0.6656h1.706667l-0.1024 1.6896a150.306133 150.306133 0 0 1-6.229334 38.912c-3.413333 8.465067-8.055467 16.384-13.824 23.4496v-0.034133z m-19.182934-76.288l1.399467 2.730667c1.809067 3.584 3.857067 7.3728 6.0928 11.178666 2.048 3.5328 3.754667 6.690133 5.256533 9.5744a81.066667 81.066667 0 0 1 8.840534-5.973333 136.584533 136.584533 0 0 0-5.9392-11.554133l-6.536534-11.383467a57.412267 57.412267 0 0 1-8.430933 5.12l-0.682667 0.3072z m135.133867-62.651733l-0.768-1.501867c-1.7408-3.413333-3.7376-6.656-5.9904-9.728a179.831467 179.831467 0 0 0-8.704-10.717867l-1.058133-1.194666 1.262933-1.024c3.9424-3.208533 8.106667-6.144 12.4416-8.789334l1.314133-0.8192 0.853334 1.28c2.3552 3.4816 4.676267 7.1168 7.048533 10.871467 2.56 4.0448 5.444267 7.8848 8.618667 11.4688l1.3312 1.536-1.826134 0.9216c-4.437333 2.167467-8.789333 4.4544-13.073066 6.877867l-1.450667 0.8192z m-11.946667-22.784c2.696533 3.157333 5.290667 6.382933 7.7824 9.693866 2.048 2.7648 3.874133 5.666133 5.495467 8.704 3.2768-1.809067 6.6048-3.549867 9.949867-5.239466a90.231467 90.231467 0 0 1-7.594667-10.325334c-2.048-3.2768-4.096-6.434133-6.109867-9.489066-3.293867 2.048-6.485333 4.266667-9.5232 6.656zM865.28 440.32c-21.230933-24.610133-28.2112-56.32-128-56.32-99.7888 0-124.808533 109.448533-117.76 143.36H460.8s-20.48-54.784-102.4-56.32a98.986667 98.986667 0 0 0-92.16 56.32h-15.36s-15.36 1.28-15.36-20.48v-40.96l-20.48 15.36s-7.68-11.52-5.12-20.48c2.56-8.96 10.24-40.96 10.24-40.96l-20.48 10.24-30.72 15.36s-25.6-3.84-5.12-25.6l25.6-20.48s10.24-15.36-15.36-15.36l-40.96-10.24s-14.08-15.36 30.72-15.36l15.36-10.24-15.36-20.48s-20.48-15.36 5.12-15.36c0 0 55.04 5.12 20.48-10.24l-15.36-25.6s-10.24-30.72 20.48-15.36l35.84 30.72s17.92 5.12 15.36-5.12a115.746133 115.746133 0 0 1 0-30.72s19.2 0 20.48 15.36c1.28 15.36 5.12 15.36 5.12 15.36s29.44-34.56 35.84-40.96 16.64 3.84 15.36 15.36c-1.28 11.52-5.12 40.96-5.12 40.96l35.84-5.12s25.6-3.84 5.12 15.36l-15.36 15.36c7.236267-1.143467 14.626133 0.699733 20.48 5.12 4.5056 4.266667 9.693867 7.714133 15.36 10.24v-143.36s-0.682667-5.12 10.24-5.12 19.1488 4.3008 20.48 20.48c1.3312 16.1792 0 128 0 128h133.12l40.96-158.72h215.04a8.994133 8.994133 0 0 1 10.24 10.24V358.4c-3.669333 3.072 76.7488 22.801067 81.92 81.92 0 0-13.482667 14.0288-25.6 0z m-117.76-220.16h-122.88L593.92 307.2v20.48h158.72a14.882133 14.882133 0 0 0 10.24-15.36v-81.92s3.072-10.24-15.36-10.24zM368.64 486.4a81.92 81.92 0 1 1 0 163.84 81.92 81.92 0 0 1 0-163.84z m0 128.221867a46.301867 46.301867 0 1 0 0-92.603734 46.301867 46.301867 0 0 0 0 92.603734zM757.76 409.6a117.76 117.76 0 1 1 0 235.52 117.76 117.76 0 0 1 0-235.52z m0 184.32a66.56 66.56 0 1 0 0-133.12 66.56 66.56 0 0 0 0 133.12z" fill="#FF0000" /></svg>