<?xml version="1.0" standalone="no"?><!DOCTYPE svg PUBLIC "-//W3C//DTD SVG 1.1//EN" "http://www.w3.org/Graphics/SVG/1.1/DTD/svg11.dtd"><svg class="icon" width="1000px" height="1000.00px" viewBox="0 0 1024 1024" version="1.1" xmlns="http://www.w3.org/2000/svg"><path d="M864 1024H160A160 160 0 0 1 0 864V160A160 160 0 0 1 160 0h704A160 160 0 0 1 1024 160v704A160 160 0 0 1 864 1024z m128-832a160 160 0 0 0-160-160h-640a160 160 0 0 0-160 160v640a160 160 0 0 0 160 160h640a160 160 0 0 0 160-160v-640z" fill="#FF0000" /><path d="M136.413867 752.913067h96.290133c10.496 0 20.4288-0.290133 29.764267-0.887467V768a473.1392 473.1392 0 0 0-29.764267-0.887467H129.416533c-4.0448 7.816533-8.584533 15.36-13.568 22.596267-5.4272 8.226133-11.434667 16.0768-17.954133 23.466667a36.829867 36.829867 0 0 0-17.493333-9.728 152.405333 152.405333 0 0 0 26.248533-33.2288c8.8064-13.3632 15.872-27.784533 20.992-42.9568 6.570667 3.0208 13.294933 5.6832 20.138667 7.9872-3.498667 5.290667-7.2704 11.1616-11.3664 17.664z m121.685333 182.033066c-8.192 1.467733-15.189333-2.5088-20.992-11.946666a94.8224 94.8224 0 0 1-12.270933-32.341334 234.0864 234.0864 0 0 1-1.7408-52.701866H126.788267c-9.352533 0-19.268267 0.290133-29.764267 0.887466v-15.940266c10.513067 0.597333 20.4288 0.887467 29.764267 0.8704h114.688c-1.160533 18.3296-1.604267 32.494933-1.314134 42.530133a94.72 94.72 0 0 0 4.386134 27.016533c1.877333 6.485333 4.846933 12.629333 8.7552 18.158934 3.208533 4.130133 7.424-5.3248 12.680533-28.330667 4.130133 5.9392 9.915733 10.564267 16.64 13.2608-8.192 24.200533-16.384 37.051733-24.541867 38.536533z m-40.277333-147.490133c9.335467 0 18.670933-0.290133 28.0064-0.887467v15.940267a454.621867 454.621867 0 0 0-28.0064-0.887467H153.053867c-9.352533 0-18.688 0.3072-28.023467 0.887467v-15.0528c9.335467 0.597333 18.688 0.597333 28.023467 0h64.768z m37.034666 149.4016c-7.3728 0-13.824-4.369067-19.131733-13.021867a97.041067 97.041067 0 0 1-12.475733-32.8704 233.386667 233.386667 0 0 1-1.860267-51.4048H126.788267c-9.1648 0-19.1488 0.3072-29.661867 0.887467l-1.6896 0.085333v-19.3536l1.6896 0.1024c10.24 0.580267 20.206933 0.8704 29.661867 0.8704h116.3776l-0.119467 1.7408c-1.143467 18.176-1.5872 32.426667-1.297067 42.359467 0.136533 9.0112 1.5872 17.954133 4.3008 26.555733 1.826133 6.314667 4.693333 12.288 8.482134 17.664a1.245867 1.245867 0 0 0 0.341333 0.341334c0.477867-0.170667 3.6352-2.184533 9.540267-28.0576l0.7168-3.157334 2.048 2.474667c3.925333 5.6832 9.4208 10.120533 15.803733 12.765867l1.6896 0.4096-0.5632 1.6896c-8.448 25.0368-16.896 37.9904-25.736533 39.594666a21.367467 21.367467 0 0 1-3.515734 0.341334z m-128.068266-100.522667h97.979733l-0.085333 1.706667a233.403733 233.403733 0 0 0 1.723733 52.309333c2.048 11.229867 6.109867 22.016 12.049067 31.7952 5.4784 8.9088 11.776 12.629333 19.370666 11.2128 5.051733-0.9216 13.090133-7.953067 22.7328-35.8912a38.144 38.144 0 0 1-13.738666-10.888533c-5.6832 24.064-9.130667 27.460267-12.014934 27.460267a3.515733 3.515733 0 0 1-2.781866-1.570134 62.1056 62.1056 0 0 1-9.0112-18.653866 96.733867 96.733867 0 0 1-4.437334-27.477334c-0.3072-9.728 0.1024-23.483733 1.194667-40.96h-112.981333c-9.386667 0-18.773333-0.256-28.16-0.785066v12.526933c9.966933-0.512 19.421867-0.785067 28.16-0.785067zM97.962667 815.496533l-1.194667-1.194666a35.4816 35.4816 0 0 0-16.759467-9.335467l-3.037866-0.750933 2.389333-2.048a152.1664 152.1664 0 0 0 25.941333-32.853334c8.738133-13.243733 15.735467-27.562667 20.821334-42.581333l0.5632-1.7408 1.6384 0.750933c6.5024 2.986667 13.175467 5.632 19.968 7.918934l1.9968 0.6656-1.1776 1.774933c-3.0208 4.608-6.2976 9.6768-9.7792 15.189333h93.371733c10.581333 0 20.548267-0.290133 29.661867-0.887466l1.706666-0.1024v19.387733l-1.706666-0.1024a479.232 479.232 0 0 0-29.661867-0.887467H130.4064c-3.9936 7.543467-8.3968 14.848-13.226667 21.879467-5.461333 8.2944-11.502933 16.213333-18.090666 23.6544l-1.1264 1.262933z m-14.336-12.834133c5.2736 1.655467 10.103467 4.437333 14.165333 8.157867 6.058667-6.980267 11.639467-14.336 16.725333-22.050134 4.949333-7.168 9.454933-14.677333 13.482667-22.408533l0.443733-0.887467h104.260267c9.762133 0 19.234133 0.256 28.16 0.768v-12.4928c-8.704 0.512-18.176 0.785067-28.16 0.785067H133.495467l1.5872-2.491733c3.6352-5.802667 7.048533-11.127467 10.24-15.991467a198.997333 198.997333 0 0 1-16.6912-6.6048c-5.188267 14.6432-12.117333 28.6208-20.616534 41.608533A168.96 168.96 0 0 1 83.626667 802.6624z m163.805866 1.5872l-1.672533-0.119467a446.856533 446.856533 0 0 0-27.921067-0.8704H153.053867c-9.181867 0-18.568533 0.290133-27.921067 0.8704l-1.706667 0.119467v-18.517333l1.706667 0.119466a215.381333 215.381333 0 0 0 27.818667 0h64.853333c9.4208 0 18.824533-0.3072 27.938133-0.887466l1.6896-0.1024v19.387733z m-94.378666-4.232533h64.768c8.669867 0 17.5616 0.256 26.4192 0.785066v-12.4928c-8.6528 0.512-17.527467 0.768-26.4192 0.768H153.053867c-8.8064 0.546133-17.629867 0.580267-26.4192 0.1024v11.605334c8.789333-0.512 17.595733-0.768 26.4192-0.768z m251.648 44.578133c3.208533 3.84 7.441067 9.0112 12.6976 15.496533a166.007467 166.007467 0 0 0 20.992-12.3904c7.150933-5.393067 13.6192-11.639467 19.2512-18.602666 4.539733 5.205333 9.847467 9.693867 15.752533 13.277866-9.216 5.5296-17.988267 11.741867-26.2656 18.602667 9.898667 17.732267 18.653867 28.945067 26.2656 33.655467a102.673067 102.673067 0 0 0 33.28 11.52c-6.485333 4.420267-11.144533 11.025067-13.141333 18.602666-18.670933-7.68-32.238933-16.981333-40.686934-27.904a125.2864 125.2864 0 0 1-17.92-29.696c-3.7376 1.672533-7.253333 3.754667-10.513066 6.212267 2.286933 12.714667 2.594133 25.719467 0.887466 38.536533-1.024 7.509333-5.5808 14.097067-12.253866 17.698134a96.1024 96.1024 0 0 1-28.893867 7.543466c-1.706667-6.417067-4.061867-12.6464-6.997333-18.602666 16.3328 0.580267 26.112-1.774933 29.320533-7.082667 3.208533-5.307733 4.232533-14.472533 3.072-27.477333-10.24 7.799467-21.060267 14.762667-32.392533 20.821333-8.738133 4.437333-17.493333 8.584533-26.248534 12.407467a794.282667 794.282667 0 0 1-31.522133 12.8512 104.072533 104.072533 0 0 0-12.253867-14.165334c10.205867-2.133333 20.292267-4.795733 30.208-7.9872a215.790933 215.790933 0 0 0 32.8192-14.609066 134.997333 134.997333 0 0 0 33.28-24.3712 86.237867 86.237867 0 0 1-6.997333-11.52c-7.099733 7.6288-15.36 14.062933-24.507733 19.063466-8.789333 5.085867-18.0224 9.386667-27.562667 12.834134-8.482133 2.952533-17.373867 6.1952-26.709333 9.728a31.232 31.232 0 0 0-12.2368-15.940267c13.2096-2.048 26.231467-5.154133 38.946133-9.301333 8.192-2.833067 15.991467-6.690133 23.1936-11.52 6.417067-4.437333 13.124267-9.608533 20.138667-15.496534a24.337067 24.337067 0 0 0-6.997334-6.212266c-8.192 4.1472-16.520533 8.277333-24.951466 12.407466-10.820267 4.949333-22.1184 8.8064-33.706667 11.52a36.266667 36.266667 0 0 0-12.253867-15.069866 254.122667 254.122667 0 0 0 35.0208-8.413867 110.677333 110.677333 0 0 0 29.764267-15.496533h-47.342933c0.580267-8.8576 0.8704-21.248 0.8704-37.205334a89.634133 89.634133 0 0 1-11.3664 9.728 43.8272 43.8272 0 0 0-15.7696-12.407466c13.653333-7.0144 26.282667-15.803733 37.649066-26.112a119.125333 119.125333 0 0 0 27.136-33.211734c6.1952 4.4032 13.431467 7.150933 20.992 7.970134-5.632 3.959467-10.666667 8.738133-14.882133 14.165333h82.2784c-12.253867 14.7968-20.138667 24.832-23.620267 30.139733h49.885867a249.002667 249.002667 0 0 0-0.8704 23.893334c-0.1024 7.697067 0.170667 15.394133 0.8704 23.04h-83.1488a22.186667 22.186667 0 0 0-5.256533 5.341866c5.239467 5.3248 9.472 9.898667 12.6976 13.738667z m5.700266-65.9968c3.7888-6.314667 8.192-12.2368 13.124267-17.7152h-63.0272c-6.536533 6.434133-13.550933 12.356267-20.992 17.7152h70.894933z m-23.637333 34.542933c4.283733-6.9632 7.816533-14.404267 10.496-22.135466H345.6v22.135466h41.1648z m76.151467 0v-22.135466H413.866667c-2.781867 7.560533-6.007467 14.9504-9.6256 22.135466h58.658133z m-79.940267 125.832534l-0.375467-1.3824a100.352 100.352 0 0 0-6.894933-18.295467l-1.194667-2.440533 2.696534 0.1024c15.530667 0.426667 25.0368-1.5872 27.904-6.331734 2.781867-4.608 3.7888-12.509867 3.072-23.6032-9.591467 7.168-19.712 13.6192-30.293334 19.268267-8.6528 4.386133-17.442133 8.533333-26.333866 12.424533-8.823467 3.857067-19.456 8.192-31.573334 12.885334l-1.194666 0.4608-0.7168-1.0752a103.714133 103.714133 0 0 0-12.049067-13.943467l-2.0992-2.0992 2.901333-0.6144a296.6016 296.6016 0 0 0 30.037334-7.936c11.246933-3.925333 22.135467-8.789333 32.580266-14.506667a134.468267 134.468267 0 0 0 31.914667-23.125333 90.538667 90.538667 0 0 1-5.290667-8.5504 101.376 101.376 0 0 1-23.364266 17.681067c-8.874667 5.154133-18.210133 9.506133-27.886934 12.987733-8.516267 2.9696-17.476267 6.2464-26.641066 9.728l-1.621334 0.597333-0.477866-1.655466a29.866667 29.866667 0 0 0-11.656534-15.086934l-3.072-2.269866 3.7376-0.648534c13.124267-2.013867 26.0608-5.102933 38.690134-9.216a99.566933 99.566933 0 0 0 22.818133-11.332266c6.485333-4.5056 12.7488-9.301333 18.773333-14.3872a23.3472 23.3472 0 0 0-4.829866-4.130134c-7.918933 4.027733-15.9744 8.021333-24.1664 12.014934-10.922667 5.000533-22.306133 8.891733-34.013867 11.6224l-1.501867 0.375466-0.4096-1.501866a35.191467 35.191467 0 0 0-11.776-14.250667l-2.645333-2.235733 3.3792-0.597334c11.776-1.979733 23.432533-4.778667 34.816-8.362666a106.359467 106.359467 0 0 0 25.053867-12.356267h-43.741867l0.119467-1.706667c0.512-8.1408 0.802133-19.319467 0.853333-33.28a89.1904 89.1904 0 0 1-8.840533 7.253334l-1.28 0.904533-0.9216-1.245867a42.257067 42.257067 0 0 0-15.189334-11.9296l-2.8672-1.450666 2.8672-1.450667c13.482667-6.997333 26.026667-15.701333 37.290667-25.9072a117.981867 117.981867 0 0 0 26.7776-32.768l0.938667-1.774933 1.536 1.297066c5.973333 4.215467 12.970667 6.826667 20.241066 7.611734l3.7888 0.682666-3.157333 2.2528c-4.573867 3.208533-8.7552 6.997333-12.407467 11.229867h82.3296l-2.218666 2.645333c-10.4448 12.629333-17.749333 21.828267-21.794134 27.477334h48.605867l-0.170667 1.757866c-0.580267 5.8368-0.887467 13.602133-0.887466 23.7568-0.1024 7.6288 0.187733 15.2576 0.887466 22.852267l0.2048 1.809067h-24.1152l0.733867 0.853333c4.437333 5.085867 9.608533 9.454933 15.36 12.970667l2.5088 1.536-2.6112 1.314133c-8.738133 5.2224-17.066667 11.093333-24.917333 17.578667 9.472 16.708267 17.8688 27.409067 25.0368 31.863466a101.8368 101.8368 0 0 0 32.733866 11.298134l4.061867 0.8192-3.549867 2.167466c-6.144 4.215467-10.564267 10.496-12.458666 17.7152l-0.512 1.6384-1.5872-0.648533c-18.858667-7.765333-32.768-17.322667-41.352534-28.398933a132.232533 132.232533 0 0 1-17.544533-28.535467 57.531733 57.531733 0 0 0-7.918933 4.8128c2.2016 12.5952 2.440533 25.429333 0.7168 38.109867a25.429333 25.429333 0 0 1-13.090134 18.824533 97.5872 97.5872 0 0 1-29.3888 7.68l-1.365333 0.170667z m-3.242667-18.722134c2.235733 4.898133 4.096 9.9328 5.563734 15.104 9.3184-0.989867 18.432-3.413333 27.016533-7.168 6.2464-3.362133 10.496-9.540267 11.4176-16.5888 1.655467-12.629333 1.348267-25.429333-0.887467-37.973333l-0.1536-0.9728 0.802134-0.5632c3.345067-2.56 6.997333-4.693333 10.837333-6.382933l1.4848-0.6144 0.580267 1.501866a124.330667 124.330667 0 0 0 17.749333 29.2864 94.037333 94.037333 0 0 0 38.468267 26.743467c1.9456-6.007467 5.461333-11.400533 10.154666-15.633067a98.4064 98.4064 0 0 1-30.190933-10.990933c-7.8848-4.881067-16.657067-16.093867-26.794667-34.235733l-0.699733-1.2288 1.092267-0.853334c7.697067-6.229333 15.735467-12.049067 24.064-17.408a68.676267 68.676267 0 0 1-12.578134-10.752 107.5712 107.5712 0 0 1-18.363733 17.493334c-6.7584 4.693333-13.841067 8.874667-21.213867 12.544l-1.143466 0.5632-0.802134-1.006934c-5.256533-6.485333-9.472-11.639467-12.680533-15.479466a247.825067 247.825067 0 0 0-12.5952-13.636267l-0.938667-0.938667 0.733867-1.109333c1.536-2.218667 3.447467-4.1472 5.632-5.717333l0.426667-0.324267h81.92c-0.512-5.205333-0.7168-12.2368-0.7168-21.418667 0-9.284267 0.238933-16.605867 0.733866-22.306133H427.52l1.655467-2.5088c3.310933-5.034667 10.376533-14.08 21.538133-27.5968H368.64l1.979733-2.6112c3.566933-4.608 7.68-8.721067 12.253867-12.288a45.1584 45.1584 0 0 1-16.5888-6.417067 123.904 123.904 0 0 1-26.589867 31.982934 181.691733 181.691733 0 0 1-35.2256 24.917333c4.778667 2.6112 9.045333 6.0416 12.578134 10.171733 3.5328-2.628267 6.8608-5.5296 9.966933-8.6528l2.7136-2.7648v3.908267c0 14.848-0.256 26.794667-0.768 35.584h50.619733l-4.130133 2.935467a113.117867 113.117867 0 0 1-30.208 15.701333c-10.461867 3.345067-21.128533 5.973333-31.914667 7.901867 4.0448 3.293867 7.338667 7.441067 9.6768 12.117333 10.990933-2.628267 21.691733-6.314667 31.965867-11.025067 8.465067-4.130133 16.776533-8.277333 24.9344-12.407466l0.802133-0.392534 0.750934 0.443734c2.901333 1.706667 5.4272 3.976533 7.4752 6.638933l0.904533 1.2288-1.160533 1.006933c-6.485333 5.512533-13.2608 10.717867-20.241067 15.598934a102.4 102.4 0 0 1-23.552 11.690666 233.130667 233.130667 0 0 1-35.6864 8.738134c4.181333 3.413333 7.424 7.850667 9.437867 12.885333a989.934933 989.934933 0 0 1 25.1904-9.181867c9.472-3.413333 18.602667-7.68 27.306666-12.714666a96.375467 96.375467 0 0 0 24.1152-18.7392l1.570134-1.7408 1.024 2.116266c1.9968 3.925333 4.283733 7.714133 6.8608 11.298134l0.802133 1.109333-0.9728 0.9728a136.874667 136.874667 0 0 1-33.655467 24.661333c-10.581333 5.802667-21.674667 10.734933-33.0752 14.711467-9.045333 2.901333-18.210133 5.376-27.477333 7.389867 3.464533 3.5328 6.690133 7.287467 9.642667 11.264 11.605333-4.488533 21.777067-8.635733 30.276266-12.356267a506.2656 506.2656 0 0 0 26.180267-12.373333c11.264-6.0416 22.016-12.970667 32.170667-20.701867l2.286933-1.672533 0.238933 2.833066c1.211733 13.482667 0.136533 22.784-3.293866 28.450134-3.413333 5.666133-12.544 8.3968-28.091734 7.953066z m14.3872-89.5488c4.7104 4.795733 8.669867 9.1136 11.810134 12.8512 3.072 3.652267 7.0144 8.4992 11.895466 14.506667 6.826667-3.413333 13.397333-7.338667 19.6608-11.690667a107.7248 107.7248 0 0 0 18.944-18.3296l0.750934-0.8704h-59.392c-1.365333 1.024-2.594133 2.218667-3.6864 3.5328h0.017066z m70.4-15.940266h-62.856533l1.160533-2.338134c3.584-7.150933 6.792533-14.472533 9.557334-21.981866l0.392533-1.058134h51.712v25.378134h0.034133z m-57.6512-3.242667h54.442667v-18.909867h-46.301867c-2.423467 6.434133-5.137067 12.7488-8.157866 18.909867z m-19.268266 3.242667h-43.5712v-25.378134h55.569066l-0.853333 2.218667c-2.730667 7.850667-6.314667 15.394133-10.683733 22.4768l-0.4608 0.682667z m-40.379734-3.242667h38.7072c3.584-5.9904 6.6048-12.322133 9.0112-18.909867h-47.7184v18.909867z m64.1024-31.300267h-77.1072l4.386134-2.9696c7.3728-5.307733 14.318933-11.178667 20.804266-17.544533l0.4608-0.426667h67.242667l-2.389333 2.679467c-4.864 5.410133-9.216 11.264-12.970667 17.476267l-0.443733 0.785066z m-66.833066-3.242666h65.024c3.1232-5.085867 6.656-9.915733 10.513066-14.472534h-58.88c-6.485333 6.0928-12.0832 10.9568-16.674133 14.4896h0.017067z m319.317333 131.413333a120.200533 120.200533 0 0 1-36.317867-49.152 139.502933 139.502933 0 0 1-13.141333 26.555733c-4.932267 7.901867-10.9568 15.069867-17.92 21.265067-6.792533 5.973333-14.114133 11.298133-21.879467 15.940267a237.909333 237.909333 0 0 1-28.450133 14.165333 43.588267 43.588267 0 0 0-15.752533-15.0528 137.386667 137.386667 0 0 0 41.5744-18.158933 89.378133 89.378133 0 0 0 27.579733-27.904c6.587733-11.076267 11.178667-23.210667 13.568-35.874134 2.6624-14.165333 3.413333-28.603733 2.184533-42.9568 6.997333 0.597333 14.592 1.194667 22.749867 1.774934a71.4752 71.4752 0 0 0-2.184533 30.1056c2.218667 11.537067 6.3488 22.6304 12.253866 32.768 7.185067 12.970667 16.861867 24.4224 28.450134 33.672533a126.839467 126.839467 0 0 0 49.015466 23.04c-5.819733 5.034667-10.325333 11.434667-13.141333 18.602667a145.152 145.152 0 0 1-48.605867-28.808534h0.017067zM717.653333 791.893333c0 3.5328 0.3072 10.0352 0.887467 19.490134h-19.268267V783.018667H554.837333v30.1056H535.552c0.580267-10.018133 0.853333-17.408 0.8704-22.135467 0-4.727467-0.273067-12.6976-0.8704-23.9104H718.506667a623.36 623.36 0 0 0-0.8704 24.797867z m-154.9312 82.3808a73.386667 73.386667 0 0 0-16.622933-6.1952c3.498667-7.68 6.8608-15.2064 10.069333-22.596266 3.925333-9.608533 6.997333-19.541333 9.216-29.696 5.853867 2.781867 12.032 4.864 18.3808 6.212266-3.5328 8.874667-10.5472 26.282667-21.060266 52.2752h0.034133z m43.776-139.076266c6.126933-1.962667 11.997867-4.625067 17.5104-7.970134 6.0928 9.898667 11.349333 20.258133 15.752534 31.010134-6.997333 2.3552-13.141333 4.727467-18.3808 7.082666a103.816533 103.816533 0 0 0-14.8992-30.122666z m74.410667 139.076266a52.036267 52.036267 0 0 0-14.8992-7.970133 157.815467 157.815467 0 0 0 20.992-47.837867c5.2224 3.857067 11.178667 6.587733 17.5104 7.970134a354.816 354.816 0 0 1-23.637333 47.837866h0.017066z m-135.509333 64.955734l-0.682667-1.28a42.3936 42.3936 0 0 0-15.223467-14.472534l-3.1744-1.979733 3.618134-0.955733a136.533333 136.533333 0 0 0 41.1136-17.954134 88.2688 88.2688 0 0 0 27.0848-27.392c6.468267-10.922667 10.990933-22.869333 13.3632-35.345066 2.6112-13.994667 3.345067-28.296533 2.1504-42.496l-0.136534-1.8944 1.877334 0.1536c6.997333 0.597333 14.557867 1.194667 22.715733 1.774933l1.962667 0.136533-0.512 1.8944a70.144 70.144 0 0 0-2.167467 29.44c2.218667 11.349333 6.280533 22.254933 12.0832 32.256a112.059733 112.059733 0 0 0 28.040533 33.1776 125.8496 125.8496 0 0 0 48.4352 22.715734l2.8672 0.750933-2.2016 2.030933c-5.632 4.864-9.984 11.025067-12.6976 17.954134l-0.512 1.450666-1.467733-0.4608a147.524267 147.524267 0 0 1-49.117867-29.0816 123.989333 123.989333 0 0 1-35.2768-46.045866 141.141333 141.141333 0 0 1-11.810133 23.074133c-5.034667 8.021333-11.178667 15.3088-18.261333 21.6064a149.504 149.504 0 0 1-22.101334 16.110933c-9.216 5.393067-18.773333 10.154667-28.637866 14.267734l-1.3312 0.5632z m82.0736-84.565334l1.536 3.959467a119.005867 119.005867 0 0 0 35.84 48.503467c13.653333 12.168533 29.44 21.674667 46.592 28.023466 2.542933-5.922133 6.2464-11.281067 10.888533-15.7696a126.532267 126.532267 0 0 1-46.830933-22.5792 115.370667 115.370667 0 0 1-28.842667-34.167466 106.359467 106.359467 0 0 1-12.4416-33.28 72.567467 72.567467 0 0 1 1.723733-28.893867 1219.345067 1219.345067 0 0 1-18.978133-1.467733c1.024 13.8752 0.238933 27.818667-2.3552 41.506133a112.128 112.128 0 0 1-13.7728 36.4032 91.2384 91.2384 0 0 1-28.0576 28.398933 137.591467 137.591467 0 0 1-38.570667 17.408c4.983467 3.242667 9.250133 7.458133 12.526934 12.407467 9.284267-3.925333 18.295467-8.430933 26.9824-13.5168 7.68-4.608 14.916267-9.8816 21.640533-15.7696 6.826667-6.109867 12.782933-13.141333 17.646933-20.923733 5.239467-8.277333 9.591467-17.066667 12.970667-26.282667l1.501867-3.959467z m53.9136 22.016l-1.450667-1.092266a50.602667 50.602667 0 0 0-14.421333-7.7312l-1.962667-0.682667 1.1264-1.7408a156.7232 156.7232 0 0 0 20.7872-47.342933l0.580267-2.286934 1.8944 1.348267c5.034667 3.7376 10.786133 6.365867 16.896 7.714133l1.8432 0.375467-0.648534 1.774933a359.4752 359.4752 0 0 1-23.739733 48.0768l-0.904533 1.5872z m-12.936534-11.195733c4.232533 1.621333 8.2432 3.7888 11.946667 6.434133 8.311467-14.250667 15.6672-29.047467 21.981867-44.305066-5.12-1.348267-9.984-3.549867-14.370134-6.5024a160.034133 160.034133 0 0 1-19.575466 44.356266h0.017066z m-104.891733 11.025067l-1.536-0.768a70.997333 70.997333 0 0 0-16.264533-6.075734l-1.928534-0.443733 0.8192-1.809067c3.498667-7.68 6.8608-15.189333 10.069334-22.562133 3.857067-9.5232 6.894933-19.370667 9.079466-29.405867l0.477867-1.9968 1.809067 0.938667c5.751467 2.7136 11.793067 4.744533 18.0224 6.058667l1.809066 0.426666-0.682666 1.757867c-3.498667 8.8576-10.496 26.282667-20.992 52.2752l-0.682667 1.604267z m-15.189333-9.5232c4.6592 1.262933 9.198933 2.9696 13.533866 5.12 9.489067-23.5008 16.042667-39.799467 19.6608-48.913067-5.188267-1.194667-10.24-2.884267-15.121066-5.0176-2.1504 9.557333-5.102933 18.926933-8.8064 27.989333-2.986667 6.792533-6.075733 13.7216-9.2672 20.804267z m8.072533-52.224h-22.545067l0.1024-1.706667c0.580267-10.1888 0.8704-17.408 0.8704-22.050133 0-4.6592-0.290133-12.424533-0.8704-23.842134l-0.1024-1.706666h85.845334a102.229333 102.229333 0 0 0-14.5408-29.320534l-1.297067-1.774933 2.0992-0.699733c5.9904-1.928533 11.758933-4.5568 17.152-7.816534l1.314133-0.853333 0.853334 1.3312c6.144 9.949867 11.4688 20.394667 15.906133 31.232l0.699733 1.621333-1.655466 0.5632c-5.632 1.911467-10.752 3.822933-15.189334 5.700267h95.1296l-0.085333 1.706667c-0.5632 11.912533-0.8704 20.48-0.8704 24.712533 0 3.601067 0.3072 10.308267 0.8704 19.370667l0.1024 1.723733h-22.562133v-28.330667h-141.243734v30.1056l0.017067 0.034134z m-19.165867-3.242667h15.9744v-30.1056h147.626667v28.330667H716.8c-0.512-8.260267-0.768-14.404267-0.768-17.851734 0-4.096 0.273067-12.100267 0.802133-23.210666H537.2416c0.512 10.581333 0.785067 17.8688 0.785067 22.3232 0 4.437333-0.238933 11.178667-0.785067 20.514133h0.017067z m71.765334-75.502933c5.700267 8.362667 10.1888 17.476267 13.312 27.101866 4.437333-1.9456 9.557333-3.8912 15.223466-5.853866a210.602667 210.602667 0 0 0-14.08-27.8528 82.432 82.432 0 0 1-14.472533 6.6048h0.017067z m232.9088 47.889066c0-2.3552-0.290133-7.3728-0.8704-15.0528h20.1216c-0.597333 6.5024-0.8704 11.52-0.8704 15.0528h22.749866c14.592 0 26.845867-0.290133 36.7616-0.887466v15.957333a639.0784 639.0784 0 0 0-37.632-0.887467h-21.879466v14.165334h32.392533c5.802667 0 13.687467-0.290133 23.620267-0.887467v15.957333a433.954133 433.954133 0 0 0-24.507734-0.887466H860.330667v13.277866h51.643733c10.496 0 20.992-0.290133 31.505067-0.8704v15.940267a574.464 574.464 0 0 0-31.505067-0.887467h-51.6608v15.940267h59.528533a555.537067 555.537067 0 0 0 0 62.0032h-19.2512v-7.970133h-96.290133v10.632533h-19.2512c0.5632-11.229867 0.853333-22.152533 0.853333-32.768 0.017067-10.615467-0.273067-21.248-0.853333-31.8976h56.8832v-15.940267h-52.514133c-8.192 0-18.397867 0.290133-30.634667 0.887467v-15.940267c9.898667 0.597333 20.104533 0.887467 30.634667 0.887467h52.514133v-13.294933H813.056c-8.7552 0-18.3808 0.290133-28.893867 0.887466v-15.940266c11.6736 0.597333 21.2992 0.887467 28.893867 0.887466h28.893867v-14.165333h-22.766934c-14.592 0-26.862933 0.273067-36.7616 0.8704v-15.940267c11.093333 0.597333 23.04 0.904533 35.8912 0.887467h23.637334z m15.752533-57.565866c1.757867 5.905067 3.805867 13.294933 6.144 22.135466h81.408c-0.580267 8.874667-0.8704 16.554667-0.853333 23.04-0.0512 5.341867 0.238933 10.666667 0.853333 15.957334h-19.285333v-23.927467h-147.0464v22.135467H759.637333c0.750933-4.386133 1.024-8.823467 0.887467-13.277867 0-7.082667-0.290133-15.0528-0.887467-23.9104h82.2784a161.792 161.792 0 0 0-4.369066-19.490133c5.8368-0.597333 12.544-1.4848 20.138666-2.6624zM900.608 908.8v-24.814933h-96.3072v24.797866h96.290133z m-94.72 27.306667H783.36l0.085333-1.706667a589.277867 589.277867 0 0 0 0-64.512l-0.085333-1.672533h56.9856v-12.714667h-50.944c-8.106667 0-18.090667 0.290133-30.549333 0.8704l-1.672534 0.085333V837.12l1.6896 0.119467c9.659733 0.580267 19.968 0.8704 30.532267 0.8704h50.926933v-10.052267H813.056c-8.584533 0-18.261333 0.3072-28.791467 0.887467l-1.6896 0.085333v-19.3536l1.672534 0.085333c11.383467 0.597333 21.077333 0.904533 28.808533 0.904534h27.2896v-10.9568h-21.162667a643.413333 643.413333 0 0 0-36.676266 0.887466l-1.6896 0.1024V781.312l1.6896 0.1024c10.8032 0.580267 22.869333 0.887467 35.805866 0.887467h22.016c-0.2048-4.437333-0.494933-8.874667-0.853333-13.312l-0.119467-1.7408h23.6032l-0.170666 1.757866c-0.426667 4.437333-0.7168 8.874667-0.836267 13.312h21.1456c14.848 0 26.845867-0.3072 36.6592-0.887466l1.706667-0.119467v19.4048l-1.706667-0.119467a635.528533 635.528533 0 0 0-37.546667-0.8704h-20.2752v10.922667h30.788267c5.9392 0 13.858133-0.290133 23.552-0.8704l1.6896-0.119467v19.387734l-1.6896-0.1024a436.258133 436.258133 0 0 0-24.405333-0.887467h-29.934934v10.069333h50.056534c10.615467 0 21.179733-0.3072 31.419733-0.887466l1.6896-0.1024v19.370666l-1.6896-0.1024a569.4976 569.4976 0 0 0-31.402667-0.887466h-50.0736v12.714666h59.630934l-0.1024 1.706667a557.6192 557.6192 0 0 0 0 61.832533l0.1024 1.706667h-22.528v-7.9872H805.888v10.632533h-0.017067z m-19.165867-3.242667h15.9744v-10.615467h99.464534v7.970134h15.9744a547.362133 547.362133 0 0 1 0-58.7776h-59.409067v-19.165867h53.248c9.8304 0 19.882667 0.256 29.917867 0.785067v-12.526934c-9.796267 0.512-19.848533 0.785067-29.917867 0.785067h-53.248v-16.503467h33.109333c6.0416 0 13.568 0.256 22.903467 0.785067v-12.509867c-8.96 0.512-16.384 0.768-22.016 0.768h-33.979733v-17.408h23.4496c14.6944 0 26.794667 0.256 36.0448 0.785067v-12.509867c-9.557333 0.512-21.077333 0.785067-35.157334 0.785067h-24.3712v-1.604267c0-3.345067 0.238933-7.850667 0.7168-13.448533h-16.657066c0.512 6.877867 0.750933 11.264 0.750933 13.448533v1.604267h-25.224533a693.077333 693.077333 0 0 1-34.304-0.785067v12.526934c9.693867-0.529067 21.504-0.785067 35.157333-0.785067h24.354133v17.408H813.056c-7.406933 0-16.5888-0.273067-27.2896-0.802133v12.526933c9.949867-0.512 19.0976-0.785067 27.2896-0.785067h30.481067v16.520534h-54.135467c-10.052267 0-19.797333-0.273067-29.047467-0.785067v12.526933a628.138667 628.138667 0 0 1 29.047467-0.802133h54.101333v19.165867h-56.797866a603.528533 603.528533 0 0 1 0 61.44z m115.456-22.459733h-99.464533v-28.023467h99.447467v28.023467z m-96.290133-3.2256h93.098667v-21.572267H805.888v21.572267h-0.017067z m141.141333-118.1184H924.330667v-23.927467h-143.872v22.152533H757.589333l0.512-2.013866c0.699733-4.266667 0.9728-8.584533 0.836267-12.885334 0-6.946133-0.3072-14.9504-0.887467-23.808l-0.1024-1.723733h82.090667a156.381867 156.381867 0 0 0-4.010667-17.408l-0.5632-1.877333 1.928534-0.2048c6.7072-0.682667 13.380267-1.570133 20.036266-2.645334l1.399467-0.221866 0.392533 1.365333c1.621333 5.495467 3.5328 12.356267 5.819734 20.992h81.885866l-0.119466 1.723733c-0.546133 7.6288-0.836267 15.274667-0.8704 22.920534-0.034133 5.2736 0.256 10.530133 0.8704 15.752533l0.221866 1.809067z m-19.456-3.242667h15.872c-0.477867-4.7616-0.682667-9.540267-0.682666-14.336 0-6.212267 0.256-13.397333 0.785066-21.4016H862.549333l-0.3072-1.194667c-2.235733-8.465067-4.096-15.2576-5.717333-20.753066-5.632 0.853333-11.264 1.621333-16.896 2.2528 1.604267 5.853867 2.901333 11.810133 3.874133 17.800533l0.3072 1.877333H761.344c0.512 8.260267 0.768 15.7696 0.768 22.306134 0.068267 3.908267-0.119467 7.799467-0.546133 11.6736h15.735466v-22.135467h150.237867v23.9104zM803.328 585.147733a124.1088 124.1088 0 0 1-76.987733 61.5936c-25.480533-4.232533-51.2-6.792533-76.987734-7.68a256.699733 256.699733 0 0 1-53.9136 38.485334s-51.712 17.408-92.381866 15.4112c0 0-76.0832-14.4896-107.793067-46.199467 0 0-109.994667 29.525333-153.992533-46.199467 0 0-46.1824-28.7744-46.1824-76.987733s27.477333-146.295467 138.581333-146.295467c0 0-15.394133-12.288-15.394133-61.5936 0-49.3056 43.963733-130.901333 130.8672-130.901333 86.869333 0 143.240533 61.047467 146.261333 107.793067a74.752 74.752 0 0 0 7.68 30.788266l7.68 7.68c10.9568 3.669333 21.316267 8.874667 30.805333 15.4112 16.503467 11.178667 5.512533 5.307733 15.4112 15.394134 9.898667 10.069333 10.990933 11.912533 23.0912 15.394133 12.100267 3.498667 100.078933-11.178667 146.2784 100.096 0.0512 0 23.1424 61.44-23.022933 107.810133zM495.325867 230.980267s-49.220267-19.336533-84.6848 7.68c0 0-75.895467 47.291733-38.5024 123.1872 0 0 71.509333-61.610667 130.901333-61.610667h53.879467s-13.0048-58.368-61.5936-69.256533z m200.362666 107.793066h-45.346133a22.920533 22.920533 0 0 1-22.920533-22.920533V315.733333a22.920533 22.920533 0 0 1 22.920533-22.920533h45.346133c12.663467 0 22.920533 10.257067 22.920534 22.920533v0.119467c0 12.6464-10.257067 22.903467-22.920534 22.903467z m-84.394666-136.533333a22.698667 22.698667 0 0 1-32.256 0 23.005867 23.005867 0 0 1 0-32.4096l32.256-32.426667a22.698667 22.698667 0 0 1 32.256 0 23.005867 23.005867 0 0 1 0 32.426667l-32.256 32.4096z m-151.842134-43.298133a23.0912 23.0912 0 0 1-23.108266-23.108267V89.634133a23.0912 23.0912 0 1 1 46.199466 0V135.850667a23.0912 23.0912 0 0 1-23.108266 23.108266z m-155.648 42.171733L271.121067 168.448A23.0912 23.0912 0 1 1 303.786667 135.7824l32.682666 32.6656a23.108267 23.108267 0 1 1-32.682666 32.6656z m-16.3328 122.248533c0 12.765867-10.3424 23.108267-23.108266 23.108267h-46.199467a23.0912 23.0912 0 1 1 0-46.199467h46.199467a23.0912 23.0912 0 0 1 23.0912 23.0912z" fill="#FF0000" /></svg>