<?xml version="1.0" standalone="no"?><!DOCTYPE svg PUBLIC "-//W3C//DTD SVG 1.1//EN" "http://www.w3.org/Graphics/SVG/1.1/DTD/svg11.dtd"><svg class="icon" width="1000px" height="1000.00px" viewBox="0 0 1024 1024" version="1.1" xmlns="http://www.w3.org/2000/svg"><path d="M0 1024V0h1024v1024H0zM992 32H32v960h960V32z" fill="#00FF00" /><path d="M310.1184 756.155733v-13.243733c8.704 0.597333 18.602667 0.887467 29.627733 0.887467a140.458667 140.458667 0 0 0-0.8704-15.035734h16.554667c-0.5632 4.983467-0.853333 10.001067-0.8704 15.018667h25.258667a139.554133 139.554133 0 0 0-0.8704-15.018667h15.684266a153.2928 153.2928 0 0 0-0.887466 15.018667c6.997333 0 14.830933-0.290133 23.534933-0.8704v13.2608a331.2128 331.2128 0 0 0-23.517867-0.887467v11.502934h-13.943466v-11.502934h-25.258667v9.728h-5.239467l8.704 3.549867a50.688 50.688 0 0 0-6.0928 2.645333h60.996267c-0.597333 10.615467-0.887467 18.2784-0.8704 23.005867v10.5984c0 6.485333-1.7408 10.478933-5.2224 11.946667-5.700267 2.218667-11.52 4.1472-17.408 5.751466a101.290667 101.290667 0 0 0-6.109867-15.9232c10.461867 0 15.701333-2.3552 15.701334-7.082666v-16.7936h-58.368a120.832 120.832 0 0 1-9.591467 8.840533h49.664a160.1536 160.1536 0 0 0-0.887467 15.9232c0 4.693333 0.290133 10.325333 0.887467 16.7936h-59.272533a164.488533 164.488533 0 0 0 0-23.876267c-2.338133 1.774933-5.819733 4.7104-10.461867 8.840534a33.3312 33.3312 0 0 0-10.461867-13.2608 141.346133 141.346133 0 0 0 23.534934-17.237334c5.973333-5.0176 11.246933-10.820267 15.684266-17.237333v-6.1952a432.469333 432.469333 0 0 0-29.627733 0.853333z m103.68 77.824h62.737067c9.284267 0 19.456-0.3072 30.481066-0.904533v13.2608a483.857067 483.857067 0 0 0-30.481066-0.887467h-138.530134c-9.3184 0-20.923733 0.290133-34.850133 0.887467v-13.277867c14.506667 0.6144 26.112 0.904533 34.833067 0.904534h59.255466a53.179733 53.179733 0 0 0-2.6112-8.8576c5.802667-1.160533 11.025067-2.338133 15.684267-3.5328 0.5632 2.389333 1.723733 6.519467 3.4816 12.407466z m-47.9232-21.230933v-9.728h-29.610667v9.728h29.610667z m108.032 100.8128c0 6.485333 0.290133 14.165333 0.8704 22.9888H459.093333v-7.953067h-107.1616v7.953067h-15.6672c0.5632-7.68 0.853333-15.018667 0.853334-22.101333 0-7.082667-0.290133-13.858133-0.853334-20.343467h138.513067c-0.6144 6.468267-0.904533 12.970667-0.853333 19.456h-0.017067z m-26.999467-60.142933c7.543467 0 15.6672-0.290133 24.388267-0.8704v13.2608a350.941867 350.941867 0 0 0-24.405333-0.887467H366.762667c-7.560533 0-16.554667 0.290133-26.999467 0.887467v-13.2608c10.4448 0.597333 19.456 0.887467 26.999467 0.8704h80.162133z m0.853334 21.230933c6.382933 0 14.2336-0.290133 23.534933-0.887467v13.2608a392.704 392.704 0 0 0-23.517867-0.8704h-81.032533c-8.704 0-17.7152 0.290133-26.999467 0.8704v-13.2608c9.864533 0.597333 19.1488 0.904533 27.869867 0.887467h80.162133z m11.332266 43.332267v-12.373334h-107.1616v12.373334h107.178667z m-47.9232-152.1152c6.4512-4.778667 12.049067-10.615467 16.554667-17.237334a109.568 109.568 0 0 0 13.073067-22.562133c5.239467 2.952533 10.752 5.905067 16.554666 8.8576a54.101333 54.101333 0 0 0-12.1856 13.2608h41.813334c3.4816 0 10.461867-0.290133 20.906666-0.887467v14.165334c-8.704-0.597333-15.9744-0.904533-21.777066-0.904534-1.160533 7.0656-2.901333 14.011733-5.2224 20.7872-2.730667 7.5776-6.212267 14.848-10.461867 21.674667 3.805867 2.0992 7.918933 3.584 12.202667 4.420267 7.748267 1.3824 15.633067 1.979733 23.517866 1.757866-2.952533 5.461333-4.744533 11.502933-5.2224 17.698134a242.688 242.688 0 0 1-23.9616-5.307734 79.086933 79.086933 0 0 1-16.9984-7.082666 163.447467 163.447467 0 0 1-35.720533 15.9232 40.618667 40.618667 0 0 0-8.704-15.9232 87.261867 87.261867 0 0 0 32.256-9.728c-4.061867-3.5328-11.605333-14.148267-22.647467-31.829334l-2.6112 3.5328a71.5264 71.5264 0 0 0-11.349333-10.5984z m59.255467-5.290667h-33.109333l-3.4816 3.5328a119.04 119.04 0 0 0 23.517866 30.941867 94.651733 94.651733 0 0 0 13.073067-34.474667z m6.058667 177.595733h-18.978134v-7.970133h-103.9872v7.970133h-18.978133l0.136533-1.7408c0.5632-7.68 0.853333-15.069867 0.853334-21.981866 0-6.929067-0.290133-13.7216-0.853334-20.206934l-0.170666-1.7408h142.0288l-0.170667 1.757867c-0.597333 6.417067-0.887467 12.8512-0.853333 19.3024 0 6.570667 0.273067 14.267733 0.853333 22.869333l0.119467 1.7408z m-15.803734-3.242666h12.407467a339.2 339.2 0 0 1-0.768-21.367467c0-6.570667 0.238933-12.424533 0.699733-17.851733h-135.031466c0.512 6.229333 0.733867 12.475733 0.733866 18.7392 0 6.485333-0.256 13.3632-0.750933 20.48h12.373333v-7.970134h110.336v7.970134z m0-15.36h-110.336v-15.581867h110.336v15.598933z m-107.1616-3.208534h103.9872v-9.1648h-103.9872v9.1648z m-15.36-27.613866v-16.725334l1.6896 0.119467c9.608533 0.597333 18.944 0.887467 27.784534 0.887467h80.145066c6.468267 0 14.336-0.3072 23.432534-0.887467l1.672533-0.1024v16.708267l-1.672533-0.119467a384.529067 384.529067 0 0 0-23.432534-0.887467h-81.032533c-8.5504 0-17.6128 0.3072-26.914133 0.887467l-1.672534 0.119467z m3.1744-13.277867v9.8304c8.772267-0.512 17.322667-0.785067 25.429334-0.785067h81.015466c6.007467 0 13.192533 0.256 21.930667 0.785067v-9.8304c-8.430933 0.512-15.803733 0.785067-21.930667 0.785067H367.616c-8.772267 0-17.527467-0.238933-26.282667-0.768z m131.566934-7.936l-1.706667-0.136533a340.821333 340.821333 0 0 0-24.285867-0.8704H366.762667c-7.509333 0-16.298667 0.290133-26.914134 0.8704l-1.672533 0.1024v-16.674134l1.672533 0.085334c10.205867 0.597333 19.2512 0.887467 26.914134 0.887466h80.162133c8.106667 0 16.213333-0.3072 24.285867-0.8704l1.6896-0.136533v16.725333zM341.333333 854.2208v9.847467a503.637333 503.637333 0 0 1 25.429334-0.785067h80.145066c7.509333 0 15.1552 0.256 22.801067 0.750933v-9.796266c-7.953067 0.512-15.616 0.768-22.801067 0.768h-80.162133c-8.482133 0-16.9472-0.256-25.429333-0.750934l0.017066-0.034133z m167.2704-6.178133l-1.672533-0.119467a490.154667 490.154667 0 0 0-30.395733-0.887467h-138.530134c-9.216 0-20.599467 0.3072-34.798933 0.887467l-1.6384 0.085333v-16.64l1.6384 0.068267c14.1824 0.597333 25.873067 0.887467 34.798933 0.887467h57.258667a53.9648 53.9648 0 0 0-2.0992-6.656l-0.699733-1.809067 1.877333-0.3584c5.632-1.160533 10.888533-2.338133 15.598933-3.5328l1.536-0.392533 0.375467 1.536c0.512 2.133333 1.536 5.6832 3.1232 11.1616h8.226133l-0.4608-1.399467a39.560533 39.560533 0 0 0-8.328533-15.291733l-2.2528-2.286934a8.942933 8.942933 0 0 1-4.727467 4.846934 170.837333 170.837333 0 0 1-17.595733 5.802666l-1.536 0.443734-0.4608-1.536a98.781867 98.781867 0 0 0-6.007467-15.650134l-0.443733-0.955733v1.109333c0 4.778667 0.290133 10.376533 0.8704 16.657067l0.170667 1.757867h-62.685867l0.119467-1.706667c0.477867-6.877867 0.546133-13.7728 0.187733-20.650667-2.048 1.706667-4.727467 4.010667-8.021333 6.929067l-1.621334 1.4336-0.887466-1.9968a31.709867 31.709867 0 0 0-9.949867-12.629333l-1.928533-1.4848 2.0992-1.211734c8.311467-4.864 16.110933-10.581333 23.261866-17.066666 5.717333-4.829867 10.820267-10.376533 15.1552-16.4864v-4.096c-10.24 0-19.6608 0.3072-27.938133 0.853333l-1.706667 0.119467v-16.725334l1.706667 0.119467c8.192 0.580267 17.322667 0.853333 27.904 0.8704a141.021867 141.021867 0 0 0-0.853333-13.226667l-0.170667-1.792h20.104533l-0.2048 1.809067c-0.512 4.386133-0.785067 8.8064-0.853333 13.226667h22.0672a141.431467 141.431467 0 0 0-0.853333-13.243734l-0.187734-1.792h19.217067l-0.170667 1.774934c-0.512 5.000533-0.802133 9.437867-0.853333 13.243733 7.2704-0.0512 14.5408-0.341333 21.8112-0.853333l1.6896-0.136534v15.803734c2.730667-2.935467 5.256533-6.0416 7.594667-9.284267 5.154133-6.8608 9.472-14.318933 12.885333-22.186667l0.682667-1.6896 1.536 0.887467c5.4272 3.072 10.922667 5.9904 16.4864 8.789333l2.372266 1.194667-2.167466 1.570133a48.64 48.64 0 0 0-9.984 10.3424h38.690133c3.584 0 10.752-0.3072 20.821333-0.8704l1.6896-0.1024v17.578667l-1.706666-0.119467a373.589333 373.589333 0 0 0-20.3264-0.853333 131.7888 131.7888 0 0 1-5.051734 19.694933c-2.56 7.133867-5.819733 14.011733-9.728 20.5312 3.2768 1.553067 6.741333 2.7136 10.308267 3.4304 7.645867 1.365333 15.4112 1.9456 23.176533 1.7408h2.7136l-1.3312 2.389334a43.298133 43.298133 0 0 0-5.0176 17.0496l-0.170666 1.757866-1.706667-0.3072c-8.106667-1.365333-16.162133-3.157333-24.098133-5.358933a81.152 81.152 0 0 1-16.503467-6.741333 170.496 170.496 0 0 1-35.2768 15.581866l-1.143467 0.392534h52.906667c9.403733 0 19.643733-0.3072 30.429867-0.887467l1.655466-0.085333v16.7424z m-203.861333-13.312v9.8816a853.623467 853.623467 0 0 1 33.28-0.802134h138.513067c10.257067 0 19.968 0.238933 28.893866 0.768v-9.847466c-10.24 0.512-19.9168 0.802133-28.893866 0.802133h-63.914667l-0.341333-1.160533a450.048 450.048 0 0 1-3.1232-10.871467c-3.822933 0.938667-7.970133 1.877333-12.373334 2.781867 0.853333 2.389333 1.518933 4.829867 2.013867 7.304533l0.392533 1.9456h-61.184a762.248533 762.248533 0 0 1-33.28-0.750933l0.017067-0.0512z m113.954133-19.080534c2.833067 3.857067 5.051733 8.1408 6.536534 12.6976a159.317333 159.317333 0 0 0 33.8944-15.240533l0.785066-0.512 0.853334 0.477867c5.256533 2.935467 10.837333 5.2736 16.64 6.929066 5.6832 1.6384 13.1072 3.293867 22.1184 4.949334 0.580267-4.898133 1.928533-9.693867 4.010666-14.165334a105.984 105.984 0 0 1-21.248-1.809066 42.564267 42.564267 0 0 1-12.680533-4.608l-1.365333-0.853334 0.836266-1.365333c4.164267-6.741333 7.6288-13.909333 10.2912-21.367467a126.976 126.976 0 0 0 5.154134-20.514133l0.221866-1.348267h1.365334c5.358933 0 12.1344 0.256 20.189866 0.768v-10.717866c-9.250133 0.512-15.906133 0.785067-19.336533 0.785066h-44.868267l1.757867-2.56c2.952533-4.4544 6.485333-8.4992 10.530133-12.032a352.443733 352.443733 0 0 1-12.8-6.877866c-3.413333 7.509333-7.611733 14.6432-12.544 21.248-4.266667 6.144-9.386667 11.639467-15.189333 16.366933 3.072 2.440533 5.9392 5.085867 8.6016 7.953067l2.798933-3.805867 1.245867 2.048c10.888533 17.476267 18.397867 28.0576 22.357333 31.470933l1.706667 1.501867-1.962667 1.143467a85.794133 85.794133 0 0 1-29.9008 9.489066v-0.0512z m-95.556266 6.929067h55.808c-0.477867-5.666133-0.699733-10.752-0.699734-15.189333 0-4.352 0.221867-9.147733 0.682667-14.301867H326.485333l3.549867-2.884267c3.310933-2.730667 6.468267-5.632 9.454933-8.704l0.477867-0.4608h60.603733v18.432c0 5.3248-4.949333 8.226133-14.762666 8.635734 1.809067 4.010667 3.362133 8.1408 4.6592 12.356266a158.378667 158.378667 0 0 0 15.735466-5.239466c2.833067-1.194667 4.266667-4.7104 4.266667-10.461867v-10.5984c0-4.642133 0.238933-11.8272 0.785067-21.384533h-66.0992l6.075733-3.072c0.853333-0.443733 1.706667-0.853333 2.5088-1.194667l-12.6976-5.12h11.9296v-9.728h28.433067v11.485867h10.752v-11.485867h1.5872c6.9632 0 14.336 0.256 21.930666 0.750933v-9.796266c-7.901867 0.512-15.291733 0.768-21.930666 0.768h-1.553067v-1.604267c0-3.822933 0.238933-8.328533 0.699733-13.431467h-12.168533c0.443733 4.744533 0.682667 9.216 0.682667 13.431467v1.604267h-28.433067v-1.604267c0-4.3008 0.221867-8.8064 0.682667-13.431467h-13.0048c0.443733 4.744533 0.682667 9.216 0.682666 13.431467v1.604267h-1.5872c-10.581333 0-19.797333-0.256-28.040533-0.768v9.813333c8.362667-0.512 17.800533-0.768 28.040533-0.768H341.333333v8.260267l-0.238933 0.392533c-4.5056 6.5536-9.898667 12.475733-15.9744 17.6128a144.384 144.384 0 0 1-21.777067 16.2304c3.362133 2.935467 6.144 6.485333 8.192 10.461867 3.9424-3.498667 6.894933-5.973333 8.977067-7.543467l2.304-1.7408 0.221867 2.901333c0.546133 7.458133 0.580267 14.933333 0.1024 22.391467v-0.0512z m91.409066-51.882667l-0.034133 0.512a458.496 458.496 0 0 0-0.853333 22.8864v10.615467c0.085333 2.9184-0.4096 5.819733-1.4848 8.533333l3.1744-0.4096a90.180267 90.180267 0 0 0 29.764266-8.482133 215.005867 215.005867 0 0 1-20.087466-28.637867l-2.4576 3.328-1.297067-1.621333a54.5792 54.5792 0 0 0-6.724267-6.690133v-0.034134z m-33.109333 34.2528h1.877333c6.417067 0 14.08-0.955733 14.08-5.461333v-15.189333h-56.132266c-2.048 2.048-4.010667 3.925333-5.888 5.632h47.086933l-0.170667 1.757866a155.682133 155.682133 0 0 0-0.853333 13.2608z m-21.4528-35.3792h53.1968a97.109333 97.109333 0 0 0-2.9696-2.423466l-1.7408-1.365334 1.826133-1.245866a49.152 49.152 0 0 0 7.748267-6.7072l-0.8704-0.068267c-7.2704-0.512-14.5408-0.802133-21.845333-0.8704v11.485867h-17.1008v-11.502934h-22.084267v9.147734l6.485333 2.628266-2.645333 0.9216z m7.4752 44.782934H334.677333v-12.936534h32.785067v12.936534z m-29.610667-3.208534h26.453334v-6.519466h-26.453334v6.519466z m119.876267-13.653333l-1.3824-1.194667a120.951467 120.951467 0 0 1-23.876267-31.368533l-0.6144-1.092267 4.8128-4.881066h35.669334l-0.341334 1.8944a96.887467 96.887467 0 0 1-13.312 35.089066l-0.955733 1.536z m-21.896533-33.1264a121.685333 121.685333 0 0 0 21.179733 28.228267c5.5808-9.386667 9.472-19.677867 11.502933-30.4128h-30.549333l-2.133333 2.184533z m146.9952 22.7328h45.312c-2.013867 7.850667-4.642133 15.547733-7.850667 23.005867-3.754667 8.704-8.430933 17.015467-13.943467 24.746666h49.664a148.2752 148.2752 0 0 1-11.776-23.876266 199.338667 199.338667 0 0 1-10.888533-41.557334c6.382933-0.580267 11.605333-1.1776 15.701333-1.774933l3.464534 15.9232h57.514666c-2.9184 7.850667-6.263467 15.530667-10.0352 22.9888a382.020267 382.020267 0 0 1-18.722133 32.733867c6.365867 4.829867 13.243733 8.977067 20.48 12.373333 7.7312 3.857067 15.735467 7.1168 23.9616 9.728a62.464 62.464 0 0 0-12.202667 15.018667 147.012267 147.012267 0 0 1-29.184-15.4624 102.280533 102.280533 0 0 1-23.074133-19.899734v7.082667H600.234667v-6.1952a149.9648 149.9648 0 0 1-27.869867 23.876267c10.4448 0.597333 23.227733 0.904533 38.331733 0.887466h38.331734c13.346133 0 26.129067-0.290133 38.331733-0.887466v15.035733a756.821333 756.821333 0 0 0-35.720533-0.887467h-14.813867v34.474667c0.682667 5.888-1.416533 11.776-5.649067 15.9232-3.7888 2.935467-12.066133 5.290667-24.832 7.082667a87.261867 87.261867 0 0 0-6.109866-18.5856c11.042133 0.580267 17.271467 0.290133 18.7392-0.887467a11.9808 11.9808 0 0 0 2.184533-8.840533v-29.184h-10.461867c-13.943467 0-27.306667 0.3072-40.072533 0.887466v-14.165333c-9.1648 6.058667-18.773333 11.383467-28.757333 15.940267a37.853867 37.853867 0 0 0-12.1856-13.277867 131.208533 131.208533 0 0 0 37.444266-18.568533c-4.642133-4.7104-10.154667-9.728-16.554666-15.018667a47.274667 47.274667 0 0 0 11.332266-9.728c6.382933 5.888 12.1856 10.9056 17.408 15.018667 4.266667-3.003733 8.055467-6.570667 11.332267-10.615467-3.4816-2.935467-9.591467-7.338667-18.295467-13.2608 3.4816-3.5328 6.673067-7.082667 9.5744-10.615467 8.721067 6.485333 14.523733 10.615467 17.408 12.373334 4.1472-5.973333 7.3728-12.526933 9.591467-19.456H574.976c-12.8 14.762667-22.084267 24.7808-27.886933 30.071466a75.332267 75.332267 0 0 0-13.056-10.5984 115.3536 115.3536 0 0 0 25.7024-25.207466c6.775467-8.567467 12.475733-17.92 16.981333-27.869867 4.846933 3.362133 10.120533 6.0416 15.684267 7.970133a70.536533 70.536533 0 0 0-9.591467 13.277867z m54.8864-38.024533h79.291733c-0.580267 5.000533-0.853333 10.018133-0.887467 15.035733 0 4.727467 0.290133 9.454933 0.887467 14.148267h-16.5888v-15.9232h-141.994667v21.230933H541.013333c0.597333-5.5808 0.887467-11.195733 0.8704-16.810667a164.096 164.096 0 0 0-0.853333-17.681066h78.404267a49.834667 49.834667 0 0 0-7.850667-16.810667c5.700267-1.143467 11.264-2.935467 16.554667-5.290667 3.959467 6.997333 7.168 14.404267 9.557333 22.084267l0.017067 0.017067z m-85.384534 185.719466a111.223467 111.223467 0 0 0-10.4448-14.165333c17.066667-8.021333 32.9216-18.432 47.035734-30.941867 3.4816 4.727467 7.2704 9.437867 11.332266 14.165334a950.954667 950.954667 0 0 0-47.9232 30.941866z m135.918934-138.8544h-33.109334c2.56 11.741867 7.953067 22.664533 15.684267 31.8464 6.656-10.1376 12.458667-20.770133 17.408-31.8464z m23.517866 124.706134c-4.369067 4.522667-8.192 9.557333-11.3152 15.018666a383.0272 383.0272 0 0 0-43.5712-30.941866c3.515733-4.181333 6.724267-8.6016 9.591467-13.2608a647.2192 647.2192 0 0 1 45.294933 29.184z m-106.666666 18.602666l-0.3072-1.4848a86.869333 86.869333 0 0 0-5.973334-18.2272l-1.109333-2.423466 2.628267 0.1536c3.618133 0.170667 6.724267 0.273067 9.301333 0.273066 2.816 0.341333 5.666133 0.068267 8.362667-0.8192 1.4848-2.218667 2.048-4.949333 1.570133-7.5776v-27.562666h-8.874667c-13.7216 0-27.1872 0.290133-39.9872 0.8704l-1.672533 0.085333v-12.919467a207.018667 207.018667 0 0 1-26.538667 14.4896l-1.314133 0.580267-0.682667-1.28c-2.833067-5.12-6.843733-9.472-11.707733-12.714667l-2.747733-1.877333 3.157333-1.024c12.629333-3.925333 24.576-9.728 35.464533-17.220267a237.329067 237.329067 0 0 0-15.086933-13.585066l-1.7408-1.399467 1.877333-1.194667a45.568 45.568 0 0 0 10.922667-9.403733l1.092267-1.297067 1.2288 1.143467c5.870933 5.444267 11.400533 10.24 16.452266 14.250667a58.026667 58.026667 0 0 0 8.925867-8.448c-3.584-2.8672-9.216-6.929067-16.896-12.117334l-1.621333-1.0752 1.365333-1.3824a157.184 157.184 0 0 0 9.489067-10.530133l0.9728-1.143467 1.211733 0.8704c7.458133 5.563733 12.8 9.4208 15.9744 11.4688 3.2256-4.898133 5.888-10.1376 7.953067-15.616H575.658667c-12.4928 14.404267-21.76 24.388267-27.528534 29.661867l-1.1264 1.024-1.058133-1.0752a74.018133 74.018133 0 0 0-12.8-10.410667l-2.048-1.297066 1.979733-1.3824a114.4832 114.4832 0 0 0 25.344-24.866134 133.393067 133.393067 0 0 0 16.7936-27.511466l0.546134-1.297067h-15.786667v21.230933h-20.7872l0.170667-1.792a162.133333 162.133333 0 0 0 0-34.133333l-0.170667-1.792h78.045867a47.2576 47.2576 0 0 0-6.997334-14.216533l-1.450666-1.979734 2.389333-0.5632c5.563733-1.143467 10.990933-2.8672 16.196267-5.188266l1.314133-0.6656 0.768 1.28c3.84 6.775467 6.9632 13.9264 9.352533 21.333333h79.9232l-0.187733 1.809067a133.12 133.12 0 0 0-0.887467 14.848c0 4.6592 0.290133 9.3184 0.887467 13.943466l0.2048 1.809067h-19.968v-15.9232h-121.975467l0.853334 0.6144c4.7104 3.259733 9.864533 5.870933 15.291733 7.765333l2.338133 0.853334-1.757866 1.792a62.1568 62.1568 0 0 0-7.850667 10.513066h44.475733l-0.512 2.013867a154.794667 154.794667 0 0 1-7.901866 23.227733c-3.3792 7.8848-7.509333 15.445333-12.3392 22.528h43.690666a173.090133 173.090133 0 0 1-10.3424-21.640533 202.632533 202.632533 0 0 1-10.973866-41.915733L631.466667 767.982933l1.7408-0.170666c5.205333-0.443733 10.410667-1.024 15.581866-1.7408l1.467734-0.221867 3.5328 16.128h58.487466l-0.768 2.167467c-2.935467 7.8848-6.314667 15.616-10.069333 23.1424a388.181333 388.181333 0 0 1-18.039467 31.607466c5.973333 4.352 12.356267 8.1408 19.029334 11.3152a166.912 166.912 0 0 0 23.739733 9.6256l2.730667 0.853334-2.1504 1.911466a61.269333 61.269333 0 0 0-11.861334 14.660267l-0.682666 1.143467-1.262934-0.4608a142.506667 142.506667 0 0 1-23.978666-12.0832v16.674133l-1.672534-0.085333a744.448 744.448 0 0 0-35.6352-0.8704h-13.226666v32.853333c0.682667 6.4-1.621333 12.7488-6.263467 17.2032-4.096 3.157333-12.4416 5.563733-25.6 7.389867l-1.467733 0.221866z m-2.3552-18.6368c2.048 4.846933 3.6864 9.8816 4.846933 15.018667a55.125333 55.125333 0 0 0 22.6304-6.536533c3.822933-3.857067 5.666133-9.250133 5.034667-14.6432v-36.096h16.384c10.9568 0 22.4256 0.256 34.133333 0.802133v-11.656533c-11.485867 0.512-23.842133 0.802133-36.744533 0.802133h-38.3488a680.277333 680.277333 0 0 1-38.4-0.887467h-0.0512v11.741867a889.873067 889.873067 0 0 1 38.485333-0.802133h12.049067v30.788266a12.834133 12.834133 0 0 1-2.781867 10.103467c-0.938667 0.768-2.901333 1.536-10.3424 1.536-2.304 0-4.608-0.068267-6.912-0.170667z m-69.597867-50.722133c3.754667 2.952533 6.929067 6.570667 9.386667 10.683733 9.437867-4.437333 18.5344-9.5232 27.2384-15.240533l2.440533-1.570133v0.221866a149.0432 149.0432 0 0 0 26.862933-23.159466l2.747734-2.9696v8.669866h57.821866v-10.001066l2.816 3.498666c6.5536 7.611733 14.216533 14.216533 22.715734 19.575467 8.669867 5.905067 17.937067 10.888533 27.648 14.848 2.7648-4.5056 6.0416-8.635733 9.7792-12.356267a175.035733 175.035733 0 0 1-21.5552-8.96 115.848533 115.848533 0 0 1-20.770134-12.561066l-1.1264-0.887467 0.785067-1.245867c8.0896-12.919467 14.336-23.893333 18.619733-32.580266 3.822933-7.714133 6.912-14.660267 9.1648-20.650667H651.264l-3.4304-15.7184c-3.447467 0.4608-7.5776 0.938667-12.5952 1.399467 2.0992 13.499733 5.632 26.743467 10.496 39.509333 3.1744 8.192 7.048533 16.0768 11.605333 23.586133l1.655467 2.5088h-55.7568l1.809067-2.56c5.444267-7.6288 10.069333-15.8208 13.7728-24.439466 2.901333-6.741333 5.307733-13.6704 7.236266-20.753067h-46.08l1.450667-2.440533c2.389333-4.164267 5.12-8.106667 8.192-11.776a66.747733 66.747733 0 0 1-12.202667-6.1952 142.336 142.336 0 0 1-16.418133 26.4192 119.586133 119.586133 0 0 1-24.1152 24.1664c3.652267 2.5088 7.082667 5.3248 10.24 8.430933 5.802667-5.495467 14.762667-15.2064 26.624-28.910933l0.477867-0.512h36.727466l-0.512 1.9968c-2.235733 7.099733-5.546667 13.824-9.7792 19.933866l-0.853333 1.3312-1.314133-0.8192c-2.798933-1.706667-8.277333-5.597867-16.3328-11.5712a167.082667 167.082667 0 0 1-7.355734 8.174934c7.867733 5.358933 13.533867 9.506133 16.827734 12.288l1.262933 1.058133-1.109333 1.245867a57.514667 57.514667 0 0 1-11.6736 10.939733l-0.938667 0.5632-0.8704-0.682667a294.912 294.912 0 0 1-16.315733-13.994666 48.469333 48.469333 0 0 1-8.7552 7.5776c5.188267 4.352 10.1888 8.925867 14.967466 13.7216l1.348267 1.3312-1.536 1.1264a131.208533 131.208533 0 0 1-34.8672 17.749333z m44.0832-5.461333a745.301333 745.301333 0 0 0 33.450667 0.6656h38.3488c13.141333 0 25.719467-0.290133 37.376-0.853334a411.426133 411.426133 0 0 1-2.952534-1.928533 115.592533 115.592533 0 0 1-20.6336-16.964267v4.4032h-64.170666v-3.7888c-6.5536 6.8096-13.7216 12.987733-21.418667 18.4832z m-34.4576-82.466134h14.062933v-21.230933h145.186134v15.9232h13.175466a115.1488 115.1488 0 0 1-0.682666-12.544c0-4.3008 0.256-8.789333 0.699733-13.431467h-78.677333l-0.341334-1.092266a118.357333 118.357333 0 0 0-8.704-20.5312 81.629867 81.629867 0 0 1-13.243733 4.2496c3.037867 4.727467 5.290667 9.898667 6.7072 15.36l0.546133 2.048h-78.7456a171.758933 171.758933 0 0 1 0.017067 31.232z m158.037333 156.194134l-1.416533-1.262934a384.750933 384.750933 0 0 0-43.349333-30.788266l-1.5872-1.024 1.194666-1.416534c3.4816-4.113067 6.638933-8.482133 9.454934-13.073066l0.8192-1.3312 1.3312 0.785066c15.530667 9.130667 30.6688 18.8928 45.397333 29.252267l1.570133 1.109333-1.348266 1.365334a75.093333 75.093333 0 0 0-11.076267 14.728533l-0.9728 1.655467z m-41.540266-33.792a398.882133 398.882133 0 0 1 40.789333 28.8768c2.6624-4.4032 5.768533-8.533333 9.250133-12.3392a664.576 664.576 0 0 0-42.325333-27.2384c-2.3552 3.703467-4.949333 7.2704-7.714133 10.683733v0.017067z m-107.4176 32.733866l-0.887467-1.4336a110.011733 110.011733 0 0 0-10.2912-13.9264l-1.399467-1.621333 1.928534-0.9216a197.973333 197.973333 0 0 0 46.677333-30.72l1.28-1.143467 1.024 1.399467c3.566933 4.829867 7.338667 9.5232 11.264 14.045867l1.262933 1.467733-1.6384 0.989867a928.768 928.768 0 0 0-47.837866 30.890666l-1.365334 0.9728z m-7.406934-15.872c3.003733 3.584 5.802667 7.3728 8.3456 11.3152 14.933333-10.24 30.0544-20.036267 44.987734-29.064533-3.140267-3.703467-6.1952-7.509333-9.1136-11.400533a199.560533 199.560533 0 0 1-44.219734 29.115733v0.034133z m126.549334-90.760533l-1.365334-1.621333a75.946667 75.946667 0 0 1-16.042666-32.529067l-0.477867-1.979733h37.5808l-0.9728 2.2528a230.8608 230.8608 0 0 1-17.5616 32.085333l-1.160533 1.792z m-13.824-32.904533c2.491733 10.018133 7.082667 19.387733 13.482666 27.4944 5.666133-8.8064 10.717867-18.005333 15.138134-27.4944h-28.6208zM793.6 366.813867c-9.966933 59.8528-16.2816 121.480533-102.4 219.0848-69.461333 71.031467-124.245333 105.301333-174.08 105.301333-49.834667 0-102.912-35.157333-179.2-107.52-87.995733-97.604267-90.2144-147.626667-102.4-220.16-12.1856-72.533333 0-184.32 0-184.32a143.428267 143.428267 0 0 0 92.16 0c42.615467-14.728533 58.88-48.1792 97.28-61.44 35.9424-12.424533 92.16-35.84 92.16-35.84s31.8976 14.6432 92.16 35.84c34.030933 11.9808 57.6 51.080533 87.04 61.44 36.4032 12.8 97.28 0 97.28 0s11.093333 114.4832 0 187.613867z m-241.032533-0.170667l-38.007467-117.76-38.007467 117.76-123.733333-0.256 100.2496 72.533333-38.468267 117.623467 99.959467-72.925867 99.959467 72.925867-38.468267-117.589333 100.232533-72.533334-123.733333 0.2048z" fill="#00FF00" /></svg>