<?xml version="1.0" standalone="no"?><!DOCTYPE svg PUBLIC "-//W3C//DTD SVG 1.1//EN" "http://www.w3.org/Graphics/SVG/1.1/DTD/svg11.dtd"><svg class="icon" width="1000px" height="1000.00px" viewBox="0 0 1024 1024" version="1.1" xmlns="http://www.w3.org/2000/svg"><path d="M864 1024H160A160 160 0 0 1 0 864V160A160 160 0 0 1 160 0h704A160 160 0 0 1 1024 160v704A160 160 0 0 1 864 1024z m128-832a160 160 0 0 0-160-160h-640a160 160 0 0 0-160 160v640a160 160 0 0 0 160 160h640a160 160 0 0 0 160-160v-640z" fill="#FF0000" /><path d="M122.538667 821.213867h16.622933a223.061333 223.061333 0 0 0-0.8704 18.670933c9.3184 0 18.090667-0.290133 26.2656-0.887467v15.121067a392.2432 392.2432 0 0 0-26.2656-0.887467v46.250667c0 10.103467 0.290133 21.077333 0.8704 32.938667H122.538667c0.580267-9.506133 0.8704-20.48 0.887466-32.938667v-30.242133a216.814933 216.814933 0 0 1-16.213333 27.136c-5.307733 7.2704-11.008 14.250667-17.066667 20.906666a22.203733 22.203733 0 0 0-14.865066-11.554133 117.179733 117.179733 0 0 0 21.879466-23.125333c6.5024-9.0624 11.810133-18.944 15.7696-29.354667-12.8512 0-24.234667 0.290133-34.133333 0.887467v-15.138134c9.898667 0.6144 24.763733 0.904533 44.629333 0.904534a219.221333 219.221333 0 0 0-0.887466-18.688z m44.6464-66.730667c0.085333-7.424-0.2048-14.848-0.887467-22.237867h17.5104a230.570667 230.570667 0 0 0-0.8704 22.237867h50.773333c8.7552 0 17.800533-0.290133 27.136-0.887467v16.008534a425.949867 425.949867 0 0 0-26.2656-0.887467H203.946667a54.664533 54.664533 0 0 0 26.2656 22.698667c12.3904 5.666133 25.770667 8.840533 39.389866 9.335466-4.608 4.864-8.174933 10.5984-10.513066 16.896a114.363733 114.363733 0 0 1-49.4592-20.48 68.8128 68.8128 0 0 1-23.210667-28.484266h-3.4816c0 26.692267 0.290133 45.380267 0.8704 56.046933H166.2976c0.580267-8.891733 0.8704-27.579733 0.887467-56.046933h-0.887467a128.802133 128.802133 0 0 1-27.136 29.354666 213.0944 213.0944 0 0 1-42.888533 24.917334 32.119467 32.119467 0 0 0-12.270934-15.121067A137.028267 137.028267 0 0 0 118.613333 793.6a92.945067 92.945067 0 0 0 28.450134-24.917333c-28.6208 0-47.0016 0.3072-55.159467 0.887466v-16.008533c9.335467 0.597333 20.138667 0.904533 32.392533 0.887467h42.9056v0.034133z m6.144 127.214933c-4.676267 3.566933-9.045333 7.133867-13.141334 10.683734-5.888-7.3216-12.322133-14.165333-19.2512-20.48 4.334933-2.577067 8.192-5.888 11.3664-9.7792 7.5776 6.536533 14.574933 13.073067 20.992 19.575466h0.034134z m33.28-61.3888h16.622933c-0.597333 6.536533-0.887467 13.073067-0.8704 19.575467 22.766933 0 39.099733-0.290133 49.032533-0.887467v15.121067a686.984533 686.984533 0 0 0-37.649066-0.887467c4.096 10.496 9.847467 20.258133 17.066666 28.910934a84.224 84.224 0 0 0 27.579734 22.698666c-5.341867 3.669333-10.069333 8.192-13.994667 13.346134-7.202133-6.024533-13.9264-12.578133-20.138667-19.575467a139.9808 139.9808 0 0 1-21.896533-34.696533v34.696533c0 10.069333 0.290133 21.060267 0.8704 32.904533h-16.657067a561.664 561.664 0 0 0 0.8704-32.017066v-32.034134a146.4832 146.4832 0 0 1-16.64 32.477867 252.586667 252.586667 0 0 1-18.3808 23.552 43.776 43.776 0 0 0-17.5104-10.666667 98.0992 98.0992 0 0 0 27.579734-28.928 133.632 133.632 0 0 0 13.568-30.72c-5.256533 0-11.946667 0.3072-20.138667 0.904534v-15.138134c7.5776 0.6144 18.090667 0.904533 31.522133 0.904534 0-5.922133-0.290133-12.424533-0.8704-19.541334h0.034134z m-65.757867 113.7152H120.832l0.1024-1.706666c0.580267-9.506133 0.887467-20.565333 0.887467-32.8192V875.690667c-3.976533 7.509333-8.430933 14.728533-13.312 21.674666-5.358933 7.287467-11.093333 14.301867-17.169067 21.026134l-1.655467 1.826133-1.024-2.269867a20.548267 20.548267 0 0 0-13.892266-10.666666l-2.901334-0.9216 2.389334-1.928534a115.541333 115.541333 0 0 0 21.572266-22.801066 127.232 127.232 0 0 0 14.6944-26.760534c-11.741867 0.034133-22.3744 0.341333-31.6928 0.8704l-1.6896 0.119467v-18.602667l1.706667 0.119467c9.5232 0.580267 23.569067 0.8704 42.939733 0.904533-0.085333-5.666133-0.3584-11.298133-0.853333-16.930133l-0.170667-1.757867h20.1216l-0.1536 1.757867c-0.477867 5.632-0.768 11.264-0.853333 16.896 8.192 0 16.384-0.290133 24.541867-0.8704l1.706666-0.136533v18.602666l-1.706666-0.1024c-8.192-0.546133-16.384-0.853333-24.576-0.8704v15.7696l0.238933-0.136533c4.181333-2.491733 7.8848-5.6832 10.9568-9.437867l1.024-1.2288 1.211733 1.058134c7.304533 6.263467 14.336 12.817067 21.111467 19.6608l1.314133 1.314133-1.4848 1.1264c-4.608 3.515733-9.0112 7.099733-13.038933 10.615467l-1.297067 1.1264-1.024-1.365334c-5.802667-7.2192-12.168533-13.9776-19.012266-20.206933v26.333867c0 10.24 0.290133 21.248 0.8704 32.836266l0.136533 1.706667z m-16.622933-3.242666h13.243733c-0.512-10.990933-0.785067-21.504-0.785067-31.2832v-47.889067h1.5872c8.123733 0 16.384 0.256 24.6784 0.785067v-11.656534c-7.5776 0.512-15.872 0.768-24.6784 0.768H136.704v-1.621333c0-5.0176 0.238933-10.752 0.733867-17.066667h-13.1584c0.512 5.973333 0.7168 11.707733 0.7168 17.066667v1.621333H123.392c-19.114667 0-33.2288-0.256-43.0592-0.785066v11.690666a585.642667 585.642667 0 0 1 32.546133-0.802133h2.3552l-0.853333 2.218667a131.191467 131.191467 0 0 1-15.957333 29.713066A120.405333 120.405333 0 0 1 78.506667 905.147733c4.9152 1.706667 9.1136 4.983467 11.9808 9.3184 5.461333-6.0928 10.5984-12.458667 15.445333-19.063466 6.007467-8.567467 11.3664-17.578667 16.042667-26.914134l3.037866-5.802666v36.8128c0 11.605333-0.238933 22.101333-0.768 31.317333v-0.034133z m19.319466-58.5728c5.9904 5.5808 11.6224 11.537067 16.861867 17.834666 3.413333-2.9184 6.894933-5.768533 10.461867-8.516266a348.910933 348.910933 0 0 0-18.432-17.117867 45.294933 45.294933 0 0 1-8.891734 7.799467z m81.3568 60.928h-20.036266l0.1024-1.723734c0.580267-10.103467 0.887467-20.855467 0.887466-31.931733v-23.722667a141.755733 141.755733 0 0 1-13.738666 25.105067c-5.700267 8.260267-11.8784 16.196267-18.517334 23.722667l-1.109333 1.262933-1.194667-1.194667a42.564267 42.564267 0 0 0-16.896-10.2912l-2.986666-0.989866 2.56-1.877334a96.8704 96.8704 0 0 0 27.136-28.433066 133.973333 133.973333 0 0 0 12.765866-28.2112c-4.778667 0.085333-10.786133 0.375467-17.851733 0.887466l-1.706667 0.119467v-18.6368l1.723734 0.136533c7.168 0.580267 16.930133 0.853333 29.781333 0.904534a255.863467 255.863467 0 0 0-0.853333-17.834667l-0.136534-1.7408h20.1216l-0.170666 1.757867c-0.512 5.802667-0.802133 11.776-0.853334 17.8176 22.254933 0 37.7344-0.341333 47.325867-0.904534l1.6896-0.1024v18.568534l-1.706667-0.085334a669.832533 669.832533 0 0 0-35.191466-0.887466c4.010667 9.489067 9.386667 18.3296 15.957333 26.248533 7.338667 9.250133 16.554667 16.8448 27.067733 22.254933l2.389334 1.2288-2.2016 1.570134c-5.188267 3.584-9.796267 7.970133-13.636267 12.987733l-0.989867 1.348267-1.297066-1.024a195.6864 195.6864 0 0 1-20.309334-19.746134 131.652267 131.652267 0 0 1-19.114666-28.893866v27.784533c0 10.24 0.3072 21.265067 0.887466 32.836267l0.085334 1.6896z m-16.64-3.242667h13.2608a679.168 679.168 0 0 1-0.785066-31.300267V856.746667l3.003733 6.485333a138.9056 138.9056 0 0 0 21.623467 34.304c5.8368 6.519467 12.0832 12.663467 18.688 18.3808 3.293867-4.061867 7.082667-7.68 11.264-10.820267a86.459733 86.459733 0 0 1-25.770667-21.896533 106.666667 106.666667 0 0 1-17.339733-29.371733l-0.802134-2.2016h2.304c13.687467 0 25.8048 0.273067 36.0448 0.802133v-11.7248c-9.984 0.512-25.531733 0.802133-47.428266 0.802133h-1.5872v-1.6384c0-6.024533 0.221867-12.066133 0.7168-17.937066h-13.141334c0.512 6.519467 0.733867 12.544 0.733867 17.937066v1.6384h-1.604267c-12.714667 0-22.528-0.256-29.917866-0.785066v11.639466a281.6 281.6 0 0 1 18.5344-0.768h2.1504l-0.6144 2.082134a136.567467 136.567467 0 0 1-13.7216 31.0784c-6.673067 10.752-15.36 20.138667-25.6 27.579733 5.188267 2.048 9.966933 5.051733 14.062933 8.823467 6.109867-7.082667 11.844267-14.472533 17.169067-22.1696a145.5616 145.5616 0 0 0 16.418133-32.1024l3.072-8.260267v40.8576c0.0512 10.530133-0.2048 20.753067-0.733867 30.429867v-0.017067zM185.514667 826.368H164.590933l0.119467-1.723733c0.546133-8.482133 0.853333-25.992533 0.853333-52.053334a130.269867 130.269867 0 0 1-25.429333 26.760534 214.9888 214.9888 0 0 1-43.2128 25.088l-1.621333 0.750933-0.546134-1.706667a30.788267 30.788267 0 0 0-11.6736-14.336l-2.781866-2.048 3.328-0.853333a136.072533 136.072533 0 0 0 34.184533-14.08 92.2112 92.2112 0 0 0 25.924267-21.879467c-26.504533 0.034133-43.895467 0.341333-51.712 0.887467l-1.706667 0.136533v-19.490133l1.706667 0.1024c9.079467 0.597333 19.968 0.904533 32.273066 0.904533h41.301334a205.755733 205.755733 0 0 0-0.8704-20.462933l-0.170667-1.792h21.0432l-0.170667 1.774933a218.453333 218.453333 0 0 0-0.853333 20.48h49.152c8.823467 0 17.92-0.290133 27.0336-0.887466l1.6896-0.1024v19.456l-1.6896-0.119467c-8.704-0.5632-17.442133-0.853333-26.1632-0.887467h-27.818667c5.973333 8.704 14.336 15.496533 24.064 19.592534a102.912 102.912 0 0 0 38.8096 9.216l3.413334 0.136533-2.286934 2.56c-4.437333 4.727467-7.901867 10.308267-10.171733 16.384l-0.426667 1.365333-1.399466-0.273066a116.736 116.736 0 0 1-50.141867-20.770134 72.2944 72.2944 0 0 1-23.313067-28.16h-0.802133c0 26.197333 0.290133 43.9808 0.887467 54.3232l0.085333 1.706667z m-17.493334-3.242667h14.114134c-0.512-10.837333-0.785067-28.672-0.785067-54.4256v-1.621333h6.212267l0.392533 1.024a67.4816 67.4816 0 0 0 22.6816 27.7504 111.9232 111.9232 0 0 0 47.428267 19.882667c1.9968-4.949333 4.778667-9.5232 8.226133-13.585067a105.181867 105.181867 0 0 1-36.727467-9.3184 56.32 56.32 0 0 1-26.999466-23.364267l-1.348267-2.4064h33.3824c7.5776 0 15.872 0.238933 24.661333 0.768v-12.544c-8.6016 0.512-17.2032 0.785067-25.531733 0.785067h-52.3776v-1.5872c0-8.226133 0.238933-15.0016 0.733867-20.616533h-13.994667c0.4608 5.256533 0.699733 12.168533 0.699733 20.616533v1.621333H124.279467c-11.639467 0-21.981867-0.256-30.788267-0.785066v12.561066c8.96-0.512 26.948267-0.785067 53.5552-0.785066h3.242667l-1.979734 2.6112a94.839467 94.839467 0 0 1-28.928 25.344 141.312 141.312 0 0 1-31.812266 13.550933c4.130133 3.242667 7.406933 7.424 9.591466 12.202667a210.005333 210.005333 0 0 0 41.028267-24.0128 128.1024 128.1024 0 0 0 26.811733-28.996267l0.477867-0.682667h3.310933v1.604267c0 26.5728-0.273067 44.8512-0.785066 54.4256z m163.771734-67.754666c0-8.891733-0.290133-17.493333-0.8704-25.8048h20.138666a313.344 313.344 0 0 0-0.887466 25.8048v22.237866c8.7552 0 18.3808-0.290133 28.893866-0.887466v16.0256a528.452267 528.452267 0 0 0-28.893866-0.904534v30.2592c4.386133-3.140267 9.079467-5.819733 13.994666-8.021333 3.498667 5.341867 9.335467 15.428267 17.5104 30.242133-5.700267 2.986667-11.264 6.2464-16.622933 9.796267a202.752 202.752 0 0 0-14.882133-29.354667v69.393067c0 12.458667 0.290133 24.917333 0.8704 37.376h-20.138667c0.580267-13.056 0.853333-25.514667 0.8704-37.376v-60.501333a244.855467 244.855467 0 0 1-22.749867 48.9472 948.292267 948.292267 0 0 0-12.270933-19.575467 161.28 161.28 0 0 0 17.066667-26.248533c7.0144-14.336 12.458667-29.405867 16.213333-44.936534-9.9328 0-19.5584 0.3072-28.893867 0.904534v-16.042667a587.946667 587.946667 0 0 0 30.634667 0.887467V755.370667l0.017067 0.017066z m58.658133 21.3504c6.4 0.6144 13.141333 0.887467 20.138667 0.887466h15.752533V750.933333a128.034133 128.034133 0 0 0-1.7408-22.237866h20.138667c-0.785067 7.68-1.0752 15.4112-0.887467 23.125333v25.8048h26.282667c8.482133 0.034133 16.964267-0.5632 25.378133-1.774933v16.896a310.357333 310.357333 0 0 0-23.637333-0.887467H446.464c3.310933 11.776 8.021333 23.125333 13.994667 33.792 4.744533 8.157867 10.154667 15.889067 16.213333 23.125333 4.693333 5.751467 10.1376 10.837333 16.196267 15.121067 5.239467 3.566933 9.335467 6.229333 12.253866 8.021333-2.935467 3.549867-5.563733 6.656-7.8848 9.335467-2.56 2.935467-4.898133 6.058667-6.997333 9.335467a186.197333 186.197333 0 0 1-33.28-39.150934 103.424 103.424 0 0 1-13.141333-27.579733v78.301867c0 8.891733 0.3072 18.688 0.887466 29.354666h-19.285333c0.597333-13.056 0.887467-22.8352 0.887467-29.354666v-78.267734c-6.519467 16.213333-14.1312 31.9488-22.749867 47.1552-5.12 9.2672-11.298133 17.92-18.397867 25.8048-5.239467-4.164267-11.093333-8.311467-17.5104-12.458666 7.697067-7.253333 14.592-15.3088 20.5824-24.029867a297.472 297.472 0 0 0 17.066667-28.023467c6.6048-13.038933 12.168533-26.5728 16.64-40.482133h-10.513067c-6.997333 0-13.994667 0.3072-20.992 0.904533v-16.042666 0.017066z m55.978667 156.416H423.765333l0.085334-1.706667c0.580267-13.243733 0.853333-22.8352 0.853333-29.269333v-70.4a367.9232 367.9232 0 0 1-19.780267 40.106666 140.373333 140.373333 0 0 1-18.6368 26.112l-0.9728 1.024-1.1264-0.8704c-5.12-4.0448-10.939733-8.192-17.408-12.3904l-1.757866-1.109333 1.536-1.4336c7.611733-7.168 14.421333-15.138133 20.343466-23.773867 6.161067-8.96 11.844267-18.261333 16.981334-27.869866 6.229333-12.270933 11.502933-25.002667 15.786666-38.058667h-8.2432c-6.9632 0-13.943467 0.290133-20.8896 0.8704l-1.706666 0.1536v-19.5584l1.723733 0.170667c6.229333 0.580267 12.936533 0.8704 19.985067 0.8704h14.165333V750.933333c0.068267-7.338667-0.512-14.6944-1.723733-21.947733l-0.341334-1.911467h23.944534l-0.324267 1.877334a183.808 183.808 0 0 0-0.853333 22.869333v24.183467h24.661333c8.413867 0 16.827733-0.580267 25.156267-1.757867l1.826133-0.273067v20.5312l-1.706667-0.136533a305.134933 305.134933 0 0 0-23.517866-0.887467h-23.210667a147.456 147.456 0 0 0 13.2096 31.368534c4.676267 8.072533 10.0352 15.752533 16.0256 22.920533 4.608 5.632 9.9328 10.615467 15.872 14.848 4.010667 2.730667 8.072533 5.393067 12.1856 7.953067l1.604267 0.989866-1.194667 1.450667c-2.935467 3.584-5.5808 6.690133-7.901867 9.386667-2.5088 2.884267-4.8128 5.9392-6.877866 9.1648l-1.024 1.5872-1.3824-1.314134a188.808533 188.808533 0 0 1-33.570134-39.492266 146.005333 146.005333 0 0 1-10.154666-18.909867v68.727467c0 9.0112 0.290133 18.858667 0.8704 29.269333l0.119466 1.723733z m-19.285334-3.242667h15.889067a538.794667 538.794667 0 0 1-0.785067-27.733333V810.666667l3.140267 12.834133c2.9696 9.608533 7.338667 18.756267 12.9536 27.101867a181.469867 181.469867 0 0 0 31.624533 37.546666c1.860267-2.781867 3.8912-5.4272 6.0928-7.953066 1.979733-2.286933 4.1984-4.9152 6.656-7.850667a415.197867 415.197867 0 0 1-10.734933-7.0656 84.548267 84.548267 0 0 1-16.520533-15.4112 168.96 168.96 0 0 1-16.349867-23.3472 156.279467 156.279467 0 0 1-14.165333-34.184533l-0.631467-2.0992h27.5456c7.509333 0 14.8992 0.256 22.050133 0.768v-13.312c-7.8848 1.041067-15.837867 1.553067-23.790933 1.536h-27.869867V751.786667c0-10.308267 0.187733-17.408 0.631467-21.504h-16.418133c1.024 6.826667 1.501867 13.7216 1.467733 20.6336v28.296533h-17.3568c-6.485333 0-12.714667-0.221867-18.551467-0.7168v12.458667c6.485333-0.494933 12.9536-0.750933 19.421867-0.750934h12.765867l-0.733867 2.1504c-4.5056 13.994667-10.103467 27.613867-16.7424 40.738134a302.250667 302.250667 0 0 1-17.169067 28.16 152.064 152.064 0 0 1-19.285333 22.8352c5.051733 3.310933 9.984 6.826667 14.762667 10.530133 6.536533-7.543467 12.288-15.752533 17.152-24.4736a393.386667 393.386667 0 0 0 22.664533-46.933333l3.072-7.355734v86.289067c0 6.212267-0.256 15.3088-0.802133 27.767467z m-74.410666 3.242667H329.216l0.085333-1.706667c0.5632-13.056 0.853333-25.6 0.853334-37.2736v-51.1488a258.048 258.048 0 0 1-19.780267 40.448l-1.365333 2.304-1.3824-2.304c-1.672533-2.833067-5.563733-9.045333-12.219734-19.524267l-0.648533-1.024 0.750933-0.9216c6.4512-8.0896 12.117333-16.7936 16.896-25.975466 6.656-13.585067 11.844267-27.818667 15.5136-42.496-8.9088 0.034133-17.8176 0.324267-26.709333 0.8704l-1.672533 0.119466v-19.456l1.655466 0.1024c10.717867 0.546133 20.445867 0.836267 28.9792 0.853334v-20.599467c0-8.567467-0.290133-17.134933-0.887466-25.685333l-0.119467-1.723734h23.6032l-0.136533 1.757867c-0.580267 6.912-0.887467 15.530667-0.887467 25.6512v20.599467c9.079467-0.034133 18.141867-0.341333 27.204267-0.853334l1.706666-0.1024v19.456l-1.706666-0.1024c-9.045333-0.512-18.1248-0.8192-27.204267-0.853333v25.531733c3.754667-2.4576 7.68-4.625067 11.776-6.485333l1.2288-0.546133 0.750933 1.1264c3.515733 5.358933 9.2672 15.291733 17.578667 30.378666l0.8192 1.467734-1.501867 0.785066c-5.649067 2.935467-11.1616 6.178133-16.4864 9.6768l-1.655466 1.092267-0.733867-1.877333a178.210133 178.210133 0 0 0-11.776-23.9616v63.419733c0 12.578133 0.290133 25.1392 0.8704 37.290667l0.085333 1.706666z m-20.138667-3.242667h16.776533a819.0976 819.0976 0 0 1-0.802133-35.7376v-103.936h1.604267c8.192 0 17.339733 0.273067 27.2896 0.802133v-12.5952c-9.096533 0.512-18.193067 0.785067-27.306667 0.802134h-1.5872V755.370667c0-9.506133 0.238933-17.442133 0.733867-24.183467h-16.674134c0.512 7.850667 0.733867 15.9744 0.733867 24.183467v23.8592h-1.570133c-8.533333 0-18.261333-0.273067-29.047467-0.802134v12.578134c8.874667-0.512 18.056533-0.785067 27.306667-0.785067h2.082133l-0.546133 2.048a223.914667 223.914667 0 0 1-16.3328 45.277867 166.3488 166.3488 0 0 1-16.4864 25.6c3.447467 5.410133 6.8608 10.8544 10.24 16.3328 8.704-14.6432 15.8208-30.173867 21.248-46.318934l3.1232-9.506133v70.5024c0 11.195733-0.273067 23.210667-0.802134 35.754667z m18.602667-106.5472l0.341333 0.580267c5.4272 8.9088 10.1888 18.193067 14.301867 27.784533 4.437333-2.8672 8.977067-5.563733 13.653333-8.055467-7.304533-13.175467-12.526933-22.186667-15.872-27.4944a76.885333 76.885333 0 0 0-12.424533 7.185067z m280.439466-66.645333a668.842667 668.842667 0 0 0 0 34.696533c0.375467 14.455467 3.191467 28.740267 8.311467 42.257067 4.522667 12.970667 11.349333 25.0368 20.138667 35.584a125.781333 125.781333 0 0 0 28.450133 24.4736c12.629333 7.5776 26.350933 13.141333 40.704 16.452266a66.269867 66.269867 0 0 0-15.752533 20.48 240.64 240.64 0 0 1-31.965867-17.339733 158.754133 158.754133 0 0 1-23.1936-18.688 139.3152 139.3152 0 0 1-19.694933-24.456533 131.464533 131.464533 0 0 1-15.325867-36.471467 119.227733 119.227733 0 0 1-12.288 34.235733 198.656 198.656 0 0 1-17.066667 25.361067 118.784 118.784 0 0 1-23.210666 21.794133c-9.335467 6.826667-19.541333 14.097067-30.6176 21.794134a51.746133 51.746133 0 0 0-18.397867-16.896c18.090667-6.997333 34.833067-17.066667 49.476267-29.7984a103.953067 103.953067 0 0 0 29.320533-41.813334 218.624 218.624 0 0 0 11.8272-54.272c2.0992-22.3232 2.816-44.765867 2.184533-67.1744 6.946133 1.262933 13.943467 2.1504 20.992 2.6624a120.746667 120.746667 0 0 0-3.908266 27.136z m-62.600533 40.925866a390.912 390.912 0 0 1-10.513067 36.027734 155.8016 155.8016 0 0 0-19.2512-4.437334 148.48 148.48 0 0 0 9.6256-24.4736 282.794667 282.794667 0 0 0 8.7552-36.027733c6.570667 2.082133 13.312 3.584 20.138667 4.437333-4.232533 7.6288-7.202133 15.889067-8.772267 24.4736z m121.685333 0.887467c-4.676267 12.765867-9.045333 23.586133-13.141333 32.477867a58.077867 58.077867 0 0 0-18.3808-8.021334c5.8368-9.472 10.820267-19.438933 14.882133-29.7984 4.096-10.359467 7.287467-19.694933 9.642667-28.023466 6.587733 3.447467 13.653333 5.8368 20.992 7.133866a76.458667 76.458667 0 0 0-14.011733 26.231467z m-151.04 140.629333l-0.887466-1.416533c-4.522667-6.826667-10.6496-12.458667-17.834667-16.384l-2.901333-1.6896 3.072-1.2288a167.133867 167.133867 0 0 0 49.015466-29.525333 102.877867 102.877867 0 0 0 28.910934-41.130667 217.770667 217.770667 0 0 0 11.7248-53.8624 554.666667 554.666667 0 0 0 2.184533-66.9696l-0.034133-1.979733 1.928533 0.341333c6.894933 1.245867 13.858133 2.133333 20.8384 2.645333l1.928533 0.1536-0.512 1.8944a119.8592 119.8592 0 0 0-3.8912 26.760534 701.952 701.952 0 0 0 0 34.628266c0.392533 14.250667 3.1744 28.3648 8.226134 41.710934 4.4544 12.8 11.178667 24.661333 19.831466 35.089066a124.706133 124.706133 0 0 0 28.091734 24.149334c12.4928 7.492267 26.077867 12.970667 40.260266 16.264533l2.8672 0.733867-2.184533 2.048a65.297067 65.297067 0 0 0-15.36 19.933866l-0.6656 1.501867-1.450667-0.682667a245.794133 245.794133 0 0 1-32.170666-17.4592 161.092267 161.092267 0 0 1-23.432534-18.875733 141.380267 141.380267 0 0 1-19.933866-24.746667 126.532267 126.532267 0 0 1-13.824-31.061333 114.005333 114.005333 0 0 1-11.042134 28.757333 202.752 202.752 0 0 1-17.2032 25.5488c-6.826667 8.3968-14.728533 15.8208-23.517866 22.101334-10.1376 7.389867-20.360533 14.660267-30.6688 21.828266l-1.365334 0.9216z m-14.336-18.909866c5.973333 3.720533 11.178667 8.6016 15.240534 14.336a1836.714667 1836.714667 0 0 0 29.269333-20.821334 117.879467 117.879467 0 0 0 22.869333-21.504c6.2976-7.953067 11.946667-16.366933 16.9472-25.156266 5.717333-10.581333 9.796267-21.981867 12.0832-33.792l1.365334-6.4 1.7408 6.314666c3.208533 12.6976 8.2944 24.832 15.121066 36.010667 5.563733 8.772267 12.0832 16.896 19.456 24.183467 7.0656 6.8608 14.7456 13.056 22.971734 18.500266 9.6768 6.2464 19.797333 11.776 30.3104 16.554667 3.447467-6.5024 7.953067-12.407467 13.312-17.476267a139.3152 139.3152 0 0 1-38.3488-15.906133 127.351467 127.351467 0 0 1-28.808534-24.7808 116.616533 116.616533 0 0 1-20.445866-36.078933 131.4304 131.4304 0 0 1-8.413867-42.8032c-0.290133-13.909333-0.290133-25.6 0-34.781867a123.392 123.392 0 0 1 3.515733-25.6c-5.802667-0.477867-11.605333-1.194667-17.339733-2.167467a550.587733 550.587733 0 0 1-2.235733 65.365334 221.184 221.184 0 0 1-11.912534 54.6816 105.9328 105.9328 0 0 1-29.781333 42.461866 167.970133 167.970133 0 0 1-46.933333 28.859734z m34.184534-84.565334l-1.450667-0.443733a154.3168 154.3168 0 0 0-19.063467-4.4032l-2.235733-0.392533 1.092267-2.013867c3.874133-7.765333 7.0656-15.854933 9.5232-24.183467a282.112 282.112 0 0 0 8.704-35.805866l0.324266-1.8432 1.757867 0.597333c6.468267 2.048 13.1072 3.515733 19.848533 4.386133l2.6112 0.3584-1.536 2.184534a79.189333 79.189333 0 0 0-8.4992 23.893333 391.714133 391.714133 0 0 1-10.5472 36.1984l-0.512 1.467733z m-17.8176-7.68c5.3248 0.955733 10.5984 2.167467 15.803733 3.669334 3.857067-11.3152 7.168-22.801067 9.984-34.4064 1.5872-7.901867 4.1472-15.581867 7.6288-22.852267a116.736 116.736 0 0 1-16.213333-3.584c-2.116267 11.639467-4.949333 23.1424-8.4992 34.423467a164.744533 164.744533 0 0 1-8.704 22.749866z m136.533333 5.393067l-1.536-1.024a56.6784 56.6784 0 0 0-17.8688-7.7824l-2.133333-0.546133 1.160533-1.877334c5.768533-9.386667 10.717867-19.285333 14.762667-29.559466 4.010667-10.24 7.236267-19.592533 9.5744-27.8528l0.546133-1.979734 1.774933 1.024c6.4512 3.345067 13.380267 5.6832 20.5312 6.946134l2.935467 0.597333-2.116267 2.133333a75.264 75.264 0 0 0-13.636266 25.685334 464.384 464.384 0 0 1-13.175467 32.580266l-0.8192 1.655467z m-16.554667-11.4176c5.358933 1.501867 10.478933 3.754667 15.2064 6.656 3.857067-8.516267 8.004267-18.824533 12.3392-30.6688a90.282667 90.282667 0 0 1 12.458667-24.661333 74.7008 74.7008 0 0 1-16.981333-5.751467c-2.304 7.8848-5.376 16.725333-9.130667 26.2656a189.9008 189.9008 0 0 1-13.909333 28.16h0.017066zM884.616533 907.946667a120.763733 120.763733 0 0 1-36.352-49.373867 140.680533 140.680533 0 0 1-13.141333 26.692267 98.474667 98.474667 0 0 1-17.92 21.333333 148.855467 148.855467 0 0 1-21.879467 16.0256c-9.147733 5.376-18.653867 10.1376-28.450133 14.2336a43.639467 43.639467 0 0 0-15.752533-15.121067 137.096533 137.096533 0 0 0 41.5744-18.261333 89.4976 89.4976 0 0 0 27.579733-28.0064 110.882133 110.882133 0 0 0 13.568-36.027733c2.679467-14.216533 3.413333-28.740267 2.2016-43.144534 6.997333 0.597333 14.592 1.194667 22.766933 1.774934a72.0896 72.0896 0 0 0-2.2016 30.242133c2.218667 11.588267 6.3488 22.715733 12.253867 32.9216 7.185067 13.021867 16.8448 24.507733 28.450133 33.792a126.685867 126.685867 0 0 0 49.032534 23.125333 47.547733 47.547733 0 0 0-13.141334 18.688 145.032533 145.032533 0 0 1-48.5888-28.893866z m53.845334-116.992c0 3.549867 0.273067 10.069333 0.8704 19.575466H920.064v-28.4672h-144.452267v30.242134h-19.2512c0.5632-10.069333 0.853333-17.476267 0.8704-22.237867 0-4.778667-0.290133-12.765867-0.8704-24.029867h182.954667c-0.580267 12.458667-0.887467 20.770133-0.8704 24.917334z m-154.965334 82.7392a73.079467 73.079467 0 0 0-16.622933-6.229334c3.498667-7.697067 6.8608-15.2576 10.069333-22.698666 3.925333-9.642667 6.997333-19.626667 9.198934-29.7984 5.853867 2.798933 12.014933 4.898133 18.3808 6.229333a12324.522667 12324.522667 0 0 1-21.026134 52.497067z m43.793067-139.6736c6.144-1.962667 12.014933-4.6592 17.5104-8.004267 6.0928 9.9328 11.3664 20.343467 15.752533 31.1296-6.997333 2.389333-13.141333 4.778667-18.3808 7.133867a104.3968 104.3968 0 0 0-14.8992-30.2592z m74.410667 139.6736a51.985067 51.985067 0 0 0-14.8992-8.021334 158.754133 158.754133 0 0 0 20.992-48.0256c5.205333 3.874133 11.178667 6.6048 17.5104 8.004267-6.656 16.5888-14.557867 32.648533-23.620267 48.042667z m-135.5264 65.2288l-0.682667-1.28a42.530133 42.530133 0 0 0-15.223467-14.523734l-3.1744-1.9968 3.618134-0.955733a136.2432 136.2432 0 0 0 41.1136-18.039467 88.576 88.576 0 0 0 27.0848-27.4944 110.523733 110.523733 0 0 0 13.380266-35.498666 160.699733 160.699733 0 0 0 2.1504-42.717867l-0.136533-1.911467 1.877333 0.170667c6.980267 0.597333 14.557867 1.194667 22.7328 1.774933l1.9456 0.136534-0.512 1.911466a70.656 70.656 0 0 0-2.1504 29.559467c2.184533 11.400533 6.280533 22.357333 12.0832 32.392533a112.503467 112.503467 0 0 0 28.040534 33.3312 125.730133 125.730133 0 0 0 48.4352 22.818134l2.8672 0.750933-2.2016 2.048c-5.632 4.898133-9.984 11.093333-12.714667 18.0224l-0.512 1.467733-1.450667-0.4608a147.456 147.456 0 0 1-49.152-29.218133 124.501333 124.501333 0 0 1-35.2768-46.250667c-3.2256 8.0896-7.168 15.837867-11.8272 23.1936-5.0176 8.055467-11.1616 15.36-18.244266 21.674667a149.213867 149.213867 0 0 1-22.1184 16.213333c-9.216 5.410133-18.773333 10.1888-28.637867 14.336l-1.314133 0.546134z m82.0736-84.906667l1.536 3.9936a119.517867 119.517867 0 0 0 35.84 48.708267 146.6368 146.6368 0 0 0 46.626133 28.16c2.542933-5.973333 6.229333-11.349333 10.888533-15.837867a126.395733 126.395733 0 0 1-46.830933-22.698667 115.848533 115.848533 0 0 1-28.859733-34.304 107.042133 107.042133 0 0 1-12.407467-33.450666 73.1648 73.1648 0 0 1 1.706667-29.0304 1276.2112 1276.2112 0 0 1-18.961067-1.4848 161.28 161.28 0 0 1-2.372267 41.693866 112.7936 112.7936 0 0 1-13.7728 36.5568 91.426133 91.426133 0 0 1-28.0576 28.535467 137.386667 137.386667 0 0 1-38.570666 17.493333c4.983467 3.242667 9.250133 7.492267 12.526933 12.458667 9.284267-3.925333 18.295467-8.465067 26.9824-13.585067a148.992 148.992 0 0 0 21.6576-15.837866c6.826667-6.144 12.782933-13.192533 17.646933-20.992a140.373333 140.373333 0 0 0 12.970667-26.385067l1.450667-3.9936z m53.930666 22.101333l-1.450666-1.092266a50.688 50.688 0 0 0-14.4384-7.7824l-1.962667-0.648534 1.1264-1.774933a157.627733 157.627733 0 0 0 20.7872-47.5648l0.5632-2.286933 1.911467 1.365333a44.373333 44.373333 0 0 0 16.896 7.7312l1.8432 0.375467-0.6656 1.774933a361.250133 361.250133 0 0 1-23.722667 48.298667l-0.904533 1.604266z m-12.936533-11.264c4.232533 1.6384 8.2432 3.822933 11.946667 6.468267 8.311467-14.318933 15.650133-29.184 21.9648-44.4928-5.12-1.365333-9.984-3.566933-14.370134-6.536533a161.211733 161.211733 0 0 1-19.541333 44.544v0.017066z m-104.925867 11.093334l-1.536-0.785067a70.434133 70.434133 0 0 0-16.247466-6.0928l-1.9456-0.443733 0.836266-1.8432c3.498667-7.68 6.843733-15.240533 10.052267-22.647467 3.857067-9.557333 6.894933-19.456 9.096533-29.525333l0.4608-2.013867 1.826134 0.938667c5.7344 2.730667 11.776 4.778667 18.0224 6.0928l1.809066 0.426666-0.682666 1.757867c-3.515733 8.9088-10.513067 26.402133-20.992 52.514133l-0.682667 1.621334z m-15.189333-9.591467c4.6592 1.262933 9.216 2.986667 13.533867 5.12 9.489067-23.586133 16.042667-39.970133 19.6608-49.117867-5.1712-1.194667-10.24-2.901333-15.104-5.034666-2.167467 9.591467-5.12 18.9952-8.823467 28.125866-2.9696 6.826667-6.058667 13.806933-9.2672 20.906667z m8.0896-52.411733h-22.562133l0.1024-1.706667c0.580267-10.24 0.887467-17.493333 0.887466-22.1696s-0.3072-12.458667-0.887466-23.927467l-0.068267-1.723733h85.845333a102.912 102.912 0 0 0-14.5408-29.457067l-1.297066-1.792 2.082133-0.682666a80.725333 80.725333 0 0 0 17.169067-7.850667l1.314133-0.853333 0.853333 1.314133c6.144 10.018133 11.4688 20.514133 15.906134 31.402667l0.699733 1.6384-1.655467 0.546133c-5.632 1.911467-10.752 3.84-15.189333 5.7344h95.146667l-0.085334 1.706667a669.013333 669.013333 0 0 0-0.8704 24.832c0 3.618133 0.3072 10.359467 0.8704 19.456l0.1024 1.723733h-22.545066v-28.4672H777.216v30.276267z m-19.165867-3.242667h15.9744v-30.2592h147.626667v28.4672h15.957333c-0.512-8.311467-0.750933-14.4896-0.750933-17.954133 0-4.096 0.256-12.1344 0.802133-23.278934H758.033067c0.512 10.581333 0.785067 17.92 0.785066 22.391467 0 4.488533-0.238933 11.2128-0.785066 20.616533z m71.765334-75.844267a107.178667 107.178667 0 0 1 13.312 27.204267c5.000533-2.1504 10.069333-4.096 15.223466-5.870933a211.968 211.968 0 0 0-14.08-27.9552 82.432 82.432 0 0 1-14.455466 6.6048zM790.971733 649.216c-103.594667-19.729067-126.208-79.274667-126.208-79.274667 15.5136 12.7488 34.4064 16.759467 57.156267 27.1872 39.1168 17.92 90.845867 9.489067 102.4 7.2704V655.36a2608.64 2608.64 0 0 1-33.348267-6.144z m-52.394666-144.964267c-79.172267-70.212267-69.051733-124.586667-69.051734-124.586666l50.005334 45.294933c40.4992 46.421333 100.027733 56.6272 100.027733 56.6272l4.7616 1.536v55.364267c-33.501867 3.003733-85.725867-34.235733-85.725867-34.235734z m45.2608-126.839466c-48.810667-44.731733-26.197333-95.1296-26.197334-95.1296 19.063467 60.586667 66.679467 70.212267 66.679467 70.212266v49.834667c-17.851733 2.833067-40.482133-24.917333-40.482133-24.917333z m-9.5232 54.357333c-50.602667-1.1264-64.904533-42.461867-78.592-70.212267-13.687467-27.7504-50.005333-77.0048-50.005334-77.0048-19.063467-8.4992-14.2848-7.850667-4.778666-7.850666 9.540267 0 38.7072 16.3328 61.934933 32.768 23.210667 16.418133 35.720533 45.294933 35.720533 45.294933a934.912 934.912 0 0 0 66.679467 79.274667l-30.958933-2.269867z m-64.3072 83.8144c19.6608 2.833067 35.140267 20.3776 57.173333 38.5024 22.016 18.1248 52.3776 13.585067 52.3776 13.585067s4.164267 5.666133-28.586667 13.585066c-32.733867 7.936-61.9008-6.792533-92.859733-29.44s-78.592-40.789333-78.592-40.789333c30.3616-8.482133 70.843733 1.706667 90.487467 4.5568zM537.6 450.56l112.64 148.48H476.16v97.28h-97.28v-92.16H204.8l112.64-153.6h-92.16l115.712-139.2128-64.4608 0.802133 110.592-128.682666h-41.403733l82.7904-101.546667 82.517333 101.768533h-41.403733l108.987733 128.682667-70.8608-0.785067L624.64 450.56h-87.04z" fill="#FF0000" /></svg>