<?xml version="1.0" standalone="no"?><!DOCTYPE svg PUBLIC "-//W3C//DTD SVG 1.1//EN" "http://www.w3.org/Graphics/SVG/1.1/DTD/svg11.dtd"><svg class="icon" width="1000px" height="1000.00px" viewBox="0 0 1024 1024" version="1.1" xmlns="http://www.w3.org/2000/svg"><path d="M864 1024H160A160 160 0 0 1 0 864V160A160 160 0 0 1 160 0h704A160 160 0 0 1 1024 160v704A160 160 0 0 1 864 1024z m128-832a160 160 0 0 0-160-160h-640a160 160 0 0 0-160 160v640a160 160 0 0 0 160 160h640a160 160 0 0 0 160-160v-640z" fill="#FF0000" /><path d="M270.779733 935.4752v-20.804267h-44.612266c6.007467-11.554133 11.554133-24.507733 16.64-39.0656l-19.882667-7.168c-5.546667 16.418133-11.776 31.914667-18.944 46.250667h-21.742933v-56.661333h80.452266v-20.343467h-80.452266v-27.972267h50.619733v-12.014933c9.728 5.546667 20.360533 10.632533 31.453867 15.2576l12.475733-18.261333c-43.008-17.800533-75.127467-40.004267-96.631467-66.816h-17.578666c-24.968533 27.272533-57.326933 49.698133-97.314134 67.2768l12.714667 18.261333c11.093333-5.085867 21.725867-10.632533 31.8976-16.64v12.936533h50.6368v27.989334H79.8208v20.3264h80.6912v56.661333h-22.186667c-5.563733-17.3568-11.5712-32.1536-18.056533-44.629333l-19.626667 7.168c6.4512 11.776 11.997867 24.2688 16.384 37.444266H71.748267v20.821334h199.048533z m-50.6368-145.408H120.746667a292.352 292.352 0 0 0 50.619733-41.608533 219.818667 219.818667 0 0 0 48.776533 41.608533z m270.728534 147.968l18.722133-4.4032c-4.608-22.186667-10.171733-41.847467-16.418133-58.948267l-16.861867 5.307734c2.542933 7.850667 4.846933 16.196267 7.168 24.968533l-16.657067 3.4816v-45.329067h32.597334v-96.631466h-32.597334v-38.365867h-20.565333v38.365867h-31.675733v96.631466h31.675733v49.015467c-11.332267 1.860267-22.903467 3.242667-34.679467 4.4032l5.085867 20.565333a762.2144 762.2144 0 0 0 71.202133-13.8752c0.9216 4.864 2.082133 9.728 3.003734 14.7968zM410.4192 754.688V735.061333h-111.445333v19.643734h111.445333z m-13.175467 63.351467v-52.718934H311.466667v52.718934h85.777066zM378.026667 800.938667h-47.1552v-18.500267h47.1552v18.500267z m102.877866 43.229866h-15.2576v-58.7264h15.2576v58.709334z m-33.28 0h-14.336v-58.7264h14.336v58.709334z m-126.464 96.631467v-94.327467h66.3552v69.597867c0 3.003733-2.082133 4.608-6.007466 4.608l-15.2576-1.143467 5.307733 19.421867h16.418133c12.253867 0 18.500267-6.2464 18.500267-18.7392v-91.767467h-104.277333v112.349867h18.961066z m41.147734-3.003733v-40.004267h19.2v-16.64h-10.410667c3.242667-7.389867 6.485333-15.479467 9.250133-24.507733l-14.7968-5.085867a261.12 261.12 0 0 1-9.949866 29.5936h-16.64l11.793066-3.242667a146.090667 146.090667 0 0 0-9.0112-24.7296l-13.8752 4.386134c3.464533 7.406933 6.485333 15.2576 9.250134 23.586133h-9.949867v16.64h17.800533v40.004267h17.339734z m259.1744 1.8432c15.2576 0 22.869333-7.168 22.869333-21.504v-11.776h71.68v-30.293334h23.3472V858.282667h-23.3472v-30.293334h-71.68v-11.554133h68.437333v-47.616h-68.437333v-11.5712h88.7808v-18.722133h-88.763733v-12.014934h-21.742934v12.014934h-88.763733v18.722133h88.763733v11.5712h-68.437333v47.616h68.437333v11.554133h-73.984v17.117867h73.984v13.175467h-95.010133v17.800533h95.010133v12.714667h-74.205866v17.578666h74.205866v6.690134c0 4.864-3.003733 7.406933-8.5504 7.406933-8.328533 0-16.878933-0.682667-25.668266-1.621333l4.625066 20.821333h28.450134z m69.5808-139.639467h-46.6944v-15.018667h46.6944v15.018667z m-68.437334 0h-46.6944v-15.018667h46.6944v15.018667z m72.362667 58.2656h-50.619733v-13.175467h50.619733v13.175467z m0 30.5152h-50.619733v-12.714667h50.619733v12.714667z m110.045867 51.780267V786.602667c9.250133-16.196267 16.878933-33.518933 22.664533-51.797334l-20.5824-9.472c-11.093333 35.601067-28.2112 66.816-51.319467 93.627734l7.168 23.3472c7.168-7.6288 14.097067-15.479467 20.565334-23.808v122.0608h21.504z m105.642666-0.9216V866.816h59.665067v-21.265067h-59.648v-49.698133h51.080533v-21.504h-51.080533v-46.250667h-21.9648v46.250667h-27.7504c2.56-9.250133 4.625067-19.2 6.485333-29.5936l-21.504-2.781867c-4.625067 29.5936-13.8752 54.784-27.2896 75.3664l14.114134 18.261334c8.311467-12.014933 15.2576-25.1904 21.026133-39.765334h34.9184v49.7152h-65.655467v21.265067h65.655467v72.823467h21.9648zM688.657067 682.666667c-85.674667 0-155.136-71.611733-155.136-159.965867 0-88.285867 69.461333-159.8976 155.136-159.8976s155.153067 71.611733 155.153066 159.914667c0 88.337067-69.5296 159.9488-155.136 159.9488zM623.786667 461.226667c0 14.011733 0 19.217067 6.587733 35.1232H606.208v35.1232h30.088533c5.239467 15.240533-3.345067 43.758933-19.626666 54.920533v34.4064h143.7184v-34.4064h-96.136534c0.904533-10.581333 18.602667-23.893333 15.0528-55.381333h28.672v-34.4064h-35.259733c-5.546667-8.055467-6.587733-22.459733-6.587733-28.433067 0-5.973333 0.136533-23.569067 27.1872-23.569067 17.749333 0 25.173333 16.213333 27.886933 35.771734h40.8064c0.187733-32.341333-15.36-77.841067-68.949333-78.165334-58.180267-0.392533-69.290667 44.987733-69.290667 59.016534zM368.128 245.2992C368.093867 157.013333 437.674667 85.333333 523.349333 85.333333s155.153067 71.611733 155.153067 159.965867-69.410133 159.965867-155.136 159.965867c-85.674667 0-155.2896-71.611733-155.2896-159.965867z m154.999467-21.947733L481.28 147.285333h-45.056l67.976533 123.2896h-52.224V308.906667h51.575467v54.715733h41.198933v-54.715733h48.349867v-39.031467h-50.295467l67.413334-122.555733H568.490667l-45.397334 76.014933z m-11.229867 299.229866c0 88.285867-69.461333 159.9488-155.136 159.9488s-155.221333-71.594667-155.221333-159.9488c0-88.3712 69.461333-159.914667 155.136-159.914666 85.623467 0.068267 155.221333 71.68 155.221333 159.914666z m-73.659733-39.9872c0-42.0864-37.205333-64.221867-63.0272-65.706666V388.437333h-38.0928v28.433067c-11.298133 0-61.713067 14.728533-61.713067 61.866667 0 41.949867 36.471467 53.248 61.713067 57.002666v47.325867c-18.466133-5.393067-21.8112-19.933867-24.4736-32.085333h-40.482134c2.525867 47.1552 42.939733 69.085867 64.955734 72.3456v28.945066h38.621866v-28.5696c30.464-1.621333 66.56-28.6208 66.56-65.706666 0-42.325333-35.959467-54.510933-66.56-57.7024v-43.3664c11.997867 0.9728 21.367467 13.1072 22.391467 25.6512h40.106667zM337.408 457.386667v35.976533c-27.1872-0.4608-27.6992-30.976 0-35.976533z m38.741333 125.815466V542.378667c33.6384 0.904533 37.376 35.3792 0 40.823466z" fill="#FF0000" /></svg>