<?xml version="1.0" standalone="no"?><!DOCTYPE svg PUBLIC "-//W3C//DTD SVG 1.1//EN" "http://www.w3.org/Graphics/SVG/1.1/DTD/svg11.dtd"><svg class="icon" width="1000px" height="1000.00px" viewBox="0 0 1024 1024" version="1.1" xmlns="http://www.w3.org/2000/svg"><path d="M0 1024V0h1024v1024H0zM992 32H32v960h960V32z" fill="#FFFF00" /><path d="M122.368 764.740267c-2.338133 6.212267-4.676267 12.288-6.997333 18.193066h52.48v-31.061333c0-7.68-0.290133-15.086933-0.8704-22.186667h20.1216c-0.597333 6.5024-0.887467 13.892267-0.8704 22.186667v31.061333h38.5024c9.3184 0 19.8144-0.290133 31.488-0.887466v17.749333a597.623467 597.623467 0 0 0-31.488-0.887467h-38.5024v39.936h27.136c8.157867 0 18.0736-0.3072 29.7472-0.887466v17.749333a565.725867 565.725867 0 0 0-29.7472-0.887467h-27.136v53.248h52.497066c9.3184 0 20.1216-0.3072 32.375467-0.887466v16.861866a620.5952 620.5952 0 0 0-32.375467-0.887466H112.725333c-9.9328 0-20.138667 0.290133-30.634666 0.887466v-16.861866c11.093333 0.597333 21.2992 0.887467 30.634666 0.887466h55.125334v-53.248H135.4752c-8.192 0-16.64 0.290133-25.378133 0.887467v-17.749333c8.7552 0.597333 17.2032 0.887467 25.378133 0.887466h32.375467v-39.936H109.226667c-4.539733 10.990933-9.796267 21.674667-15.752534 31.9488a79.803733 79.803733 0 0 0-20.992-6.212266 142.336 142.336 0 0 0 20.565334-34.167467c7.3728-15.940267 12.509867-32.8192 15.3088-50.141867l22.749866 8.874667a52.394667 52.394667 0 0 0-8.738133 15.530667z m-41.847467 161.024v-20.292267l1.672534 0.1024c10.820267 0.580267 21.0944 0.887467 30.549333 0.887467h53.504v-50.005334H135.4752c-8.430933 0-16.861867 0.290133-25.258667 0.8704l-1.706666 0.1024v-21.213866l1.706666 0.119466c8.4992 0.597333 16.9984 0.904533 25.258667 0.904534H166.229333v-36.7104h-55.978666a267.4688 267.4688 0 0 1-15.428267 31.163733l-0.733867 1.245867-1.297066-0.597334a78.404267 78.404267 0 0 0-20.5824-6.0928l-2.952534-0.4608 2.013867-2.235733a141.038933 141.038933 0 0 0 20.309333-33.792c7.287467-15.803733 12.3904-32.529067 15.172267-49.732267l0.341333-1.9456 26.6752 10.410667-1.467733 1.757867a50.926933 50.926933 0 0 0-8.482133 15.035733c-2.048 5.461333-4.096 10.786133-6.144 16.008533h48.554666v-29.457066c0-7.543467-0.290133-14.967467-0.8704-22.050134l-0.136533-1.757866h23.6032l-0.170667 1.774933c-0.6144 7.338667-0.904533 14.677333-0.853333 22.033067v29.474133h36.898133c9.472 0 20.036267-0.3072 31.419734-0.887467l1.672533-0.1024v21.179734l-1.672533-0.085334a599.261867 599.261867 0 0 0-31.419734-0.887466h-36.898133v36.693333H213.333333c8.2944 0 18.2784-0.290133 29.678934-0.887467l1.672533-0.085333v21.162667l-1.672533-0.085334a570.9824 570.9824 0 0 0-29.678934-0.887466h-25.531733v50.005333h50.909867a672.256 672.256 0 0 0 32.290133-0.8704l1.672533-0.085333v20.2752l-1.672533-0.085334c-10.752-0.580267-21.521067-0.8704-32.290133-0.887466H112.725333c-10.018133 0-20.309333 0.290133-30.549333 0.887466l-1.655467 0.085334z m32.221867-4.215467h125.986133c9.591467 0 19.933867 0.273067 30.7712 0.802133v-13.4656c-11.349333 0.546133-21.691733 0.802133-30.7712 0.802134h-54.101333v-56.490667h28.7232c8.192 0 17.646933 0.290133 28.16 0.802133V839.68c-10.752 0.512-20.224 0.785067-28.16 0.785067h-28.7232v-43.178667h40.106667c9.284267 0 19.336533 0.273067 29.9008 0.802133v-14.336c-10.8032 0.512-20.872533 0.785067-29.917867 0.785067h-40.0896v-32.682667c0-7.645867 0.238933-14.5408 0.7168-20.565333h-16.64c0.494933 6.656 0.733867 13.550933 0.733867 20.565333v32.682667H112.981333l0.887467-2.218667c2.321067-5.905067 4.642133-11.963733 6.980267-18.176 1.8432-5.085867 4.420267-9.8816 7.6288-14.2336l-18.875734-7.3728c-2.901333 16.810667-7.970133 33.160533-15.121066 48.64a157.115733 157.115733 0 0 1-18.944 32.375467c5.9392 1.092267 11.741867 2.850133 17.271466 5.256533 5.614933-9.847467 10.581333-20.053333 14.9504-30.5152l0.392534-0.989866h61.2864v43.178666h-33.962667c-7.765333 0-15.752533-0.256-23.790933-0.785066v14.301866c7.918933-0.512 15.854933-0.768 23.790933-0.785066h33.962667v56.490666H112.725333c-9.028267 0-18.773333-0.273067-29.047466-0.785066v13.431466a519.406933 519.406933 0 0 1 29.047466-0.802133h0.017067z m343.432533-123.0848c-3.7888 6.826667-7.150933 13.192533-10.069333 19.080533h27.136c8.192 0.170667 16.366933-0.119467 24.507733-0.887466v17.749333c-7.560533-0.7168-15.1552-1.024-22.749866-0.887467H342.869333c0 46.762667-11.093333 81.083733-33.245866 102.9632a35.464533 35.464533 0 0 0-13.141334-13.312 99.925333 99.925333 0 0 0 26.2656-53.7088c2.269867-17.2032 2.8672-34.594133 1.7408-51.9168h103.253334c6.929067-14.2336 12.4928-29.098667 16.622933-44.373333 7.5776 3.549867 14.865067 6.792533 21.879467 9.762133-3.805867 4.881067-7.168 10.069333-10.069334 15.530667h0.017067z m-37.1712-43.042133h43.741867c10.496 0 20.411733-0.3072 29.7472-0.887467v16.861867a433.134933 433.134933 0 0 0-27.136-0.887467h-105.8816c-8.7552 0-19.831467 0.290133-33.245867 0.887467v-16.861867c13.994667 0.597333 23.04 0.887467 27.136 0.887467h45.482667a220.842667 220.842667 0 0 0-6.997333-23.9616c6.997333-1.774933 13.704533-3.259733 20.1216-4.437334 1.143467 4.1472 3.4816 13.6192 6.997333 28.398934h0.034133zM392.704 806.912c-6.2976 2.594133-12.424533 5.546667-18.3808 8.874667a137.898667 137.898667 0 0 0-18.363733-31.9488c5.819733-3.549867 11.3664-6.8096 16.622933-9.762134 7.560533 10.3936 14.2848 21.367467 20.1216 32.836267z m-83.5584 132.266667l-0.989867-1.962667a33.9968 33.9968 0 0 0-12.544-12.680533l-1.604266-1.024 1.28-1.4336a98.679467 98.679467 0 0 0 25.838933-52.821334 264.533333 264.533333 0 0 0 1.7408-51.6096l-0.119467-1.723733h49.92a137.0624 137.0624 0 0 0-17.937066-31.095467l-1.143467-1.450666 1.536-0.9728c5.632-3.413333 11.264-6.7072 16.674133-9.762134l0.904534-0.512h-13.226667c-8.584533 0-19.729067 0.290133-33.194667 0.8704l-1.655466 0.085334v-20.258134l1.655466 0.085334c13.482667 0.5632 22.8352 0.887467 27.067734 0.887466h43.451733a225.245867 225.245867 0 0 0-6.485333-21.8112l-0.580267-1.6896 1.706667-0.4096c6.690133-1.706667 13.431467-3.208533 20.224-4.471466l1.4336-0.256 0.392533 1.399466c1.1776 4.266667 3.498667 13.653333 6.724267 27.2384h42.496c9.898667 0.017067 19.780267-0.273067 29.661866-0.887466l1.672534-0.119467V773.12l-1.6896-0.119467a436.48 436.48 0 0 0-27.016534-0.8704H445.952c7.355733 3.4304 14.3872 6.5536 20.8896 9.301334l2.030933 0.853333-1.399466 1.6896c-3.7376 4.795733-7.048533 9.898667-9.898667 15.274667-3.072 5.512533-6.024533 11.0592-8.874667 16.674133h24.541867c8.0896 0.187733 16.196267-0.1024 24.251733-0.853333l1.8432-0.290134V836.266667l-1.809066-0.221867a201.216 201.216 0 0 0-22.528-0.887467h-130.56c-0.238933 46.148267-11.588267 80.622933-33.723734 102.5024l-1.570133 1.536z m-10.24-16.349867c4.4032 2.8672 8.157867 6.6048 11.0592 10.990933 20.770133-21.572267 31.300267-55.296 31.300267-100.3008v-1.621333h133.700266c9.216 0 16.349867 0.238933 21.162667 0.699733v-14.114133c-4.522667 0.4608-12.049067 0.682667-22.903467 0.682667h-29.696l1.1264-2.338134c3.208533-6.485333 6.587733-12.868267 10.120534-19.1488 2.628267-4.898133 5.597867-9.591467 8.874666-14.08a603.989333 603.989333 0 0 1-18.244266-8.1408 256.682667 256.682667 0 0 1-16.247467 42.786134l-0.443733 0.9216h-102.519467c0.938667 16.8448 0.324267 33.757867-1.877333 50.517333a100.932267 100.932267 0 0 1-25.429334 53.1456z m78.5408-106.9056h49.288533c6.673067-13.858133 12.049067-28.330667 16.0768-43.178667l0.170667-0.6144h-69.802667l0.699734 0.955734c7.611733 10.478933 14.3872 21.504 20.2752 33.041066l0.802133 1.604267-1.6384 0.682667c-5.4272 2.218667-10.717867 4.727467-15.872 7.509333z m-19.0976-31.658667a140.458667 140.458667 0 0 1 16.776533 29.2352c4.983467-2.730667 10.120533-5.205333 15.36-7.424a243.797333 243.797333 0 0 0-18.346666-29.917866c-4.488533 2.594133-9.130667 5.290667-13.789867 8.106666z m-30.549333-28.040533v13.482667c12.765867-0.512 23.3984-0.8192 31.675733-0.8192h105.864533c8.1408 0 16.725333 0.256 25.531734 0.768v-13.397334c-8.704 0.512-18.158933 0.768-28.16 0.768h-45.0048l-0.3072-1.2288c-3.0208-12.8-5.290667-22.0672-6.587734-26.914133-5.444267 1.024-11.093333 2.286933-16.896 3.703467 2.56 7.3728 4.7104 14.865067 6.485334 22.459733l0.443733 1.979733h-47.496533c-4.096 0-12.9024-0.256-25.531734-0.802133z m291.9936 43.127467c-2.048 3.259733-6.280533 11.690667-12.6976 25.2928h81.373866c13.994667 0 25.378133-0.290133 34.133334-0.887467v15.9744a536.900267 536.900267 0 0 0-33.262934-0.887467h-8.738133a162.747733 162.747733 0 0 1-26.248533 46.165334 484.420267 484.420267 0 0 1 66.491733 31.9488c-4.5056 5.290667-8.6016 10.922667-12.253867 16.861866a355.447467 355.447467 0 0 0-67.362133-36.386133 167.901867 167.901867 0 0 1-49.885867 26.180267c-15.172267 5.256533-30.651733 9.557333-46.370133 12.868266a53.333333 53.333333 0 0 0-10.496-18.6368 204.4928 204.4928 0 0 0 51.2-9.762133 133.7344 133.7344 0 0 0 37.188267-17.749333 491.912533 491.912533 0 0 0-61.269334-17.749334c7.8848-10.683733 14.916267-21.947733 20.992-33.7408h-21.8624c-6.997333 0-16.913067 0.3072-29.7472 0.887467v-15.9744c6.997333 0.597333 16.622933 0.904533 28.8768 0.887467h28.859734c7.3216-13.550933 13.175467-27.818667 17.5104-42.5984 6.280533 3.84 13.056 6.826667 20.1216 8.874666-2.491733 2.56-4.693333 5.393067-6.5536 8.430934z m0.426666-73.216c6.417067 8.2944 12.834133 17.4592 19.2512 27.511466-4.096 2.2016-7.918933 4.881067-11.3664 7.9872h80.503467c-0.597333 8.2944-0.887467 15.086933-0.8704 20.4288 0 5.3248 0.290133 12.407467 0.8704 21.2992h-18.3808v-27.528533h-129.501867v25.736533h-18.3808c0.580267-8.260267 0.8704-15.36 0.8704-21.2992a106.734933 106.734933 0 0 0-1.7408-18.6368h80.503467a100.8128 100.8128 0 0 0-15.7696-24.866133c4.881067-3.259733 9.557333-6.826667 14.011733-10.6496z m17.5104 152.661333c8.1408-7.68 16.0256-20.992 23.620267-39.936h-59.511467c-4.6592 7.099733-9.6256 15.377067-14.865066 24.849067 23.893333 6.5024 40.823467 11.537067 50.756266 15.069866v0.017067z m-93.832533 59.5456l-0.443733-1.348267a51.950933 51.950933 0 0 0-10.1888-18.056533l-2.1504-2.491733 3.242666-0.2048a204.066133 204.066133 0 0 0 50.807467-9.693867 142.0288 142.0288 0 0 0 34.235733-15.752533 502.459733 502.459733 0 0 0-58.146133-16.622934l-2.389333-0.546133 1.4336-1.9968c7.287467-9.898667 13.858133-20.309333 19.677866-31.163733h-19.2512c-6.929067 0-16.64 0.3072-29.696 0.887466l-1.672533 0.085334v-19.456l1.723733 0.136533c6.894933 0.597333 16.298667 0.904533 28.740267 0.904533h27.9552c7.031467-13.2096 12.6976-27.101867 16.896-41.454933l0.580267-1.9968 1.757866 1.058133c6.161067 3.754667 12.8 6.690133 19.746134 8.704l2.645333 0.750934-1.9456 1.962666a48.469333 48.469333 0 0 0-6.3488 8.157867c-1.877333 3.037867-5.768533 10.7008-11.485867 22.818133h78.848c14.250667 0 25.378133-0.3072 34.013867-0.904533l1.706667-0.119467v19.456l-1.6896-0.119466a543.5904 543.5904 0 0 0-33.160534-0.8704h-7.68a165.632 165.632 0 0 1-24.695466 43.8272 490.496 490.496 0 0 1 64.648533 31.232l1.706667 0.9728-1.28 1.501866c-4.4544 5.239467-8.516267 10.820267-12.117334 16.657067l-0.887466 1.416533-1.348267-0.9216a355.84 355.84 0 0 0-66.235733-35.8912 170.496 170.496 0 0 1-49.629867 25.856c-15.240533 5.290667-30.805333 9.591467-46.592 12.936534l-1.3312 0.290133z m-6.1952-19.0976c3.566933 4.6592 6.365867 9.8304 8.328533 15.36a393.489067 393.489067 0 0 0 44.817067-12.544 166.570667 166.570667 0 0 0 49.408-25.941333l0.7168-0.546134 0.853333 0.341334a358.4512 358.4512 0 0 1 66.304 35.6352c3.106133-4.932267 6.536533-9.659733 10.24-14.165334a482.7136 482.7136 0 0 0-64.580266-30.8736l-2.0992-0.802133 1.4336-1.7408a161.8432 161.8432 0 0 0 25.975466-45.704533l0.392534-1.024h9.864533c11.946667 0 22.596267 0.256 31.658667 0.785066v-12.526933c-8.482133 0.512-19.114667 0.785067-32.546134 0.785067h-83.899733l1.092267-2.321067c6.365867-13.568 10.683733-22.1184 12.8-25.463467 1.467733-2.389333 3.1232-4.642133 4.949333-6.7584-5.632-1.8432-11.076267-4.266667-16.213333-7.253333a223.7952 223.7952 0 0 1-17.066667 40.96l-0.443733 0.853333h-29.815467c-11.537067 0-20.48-0.256-27.2896-0.768v12.526934c12.288-0.546133 21.504-0.802133 28.16-0.802134h24.4736l-1.160533 2.338134a247.3984 247.3984 0 0 1-19.712 31.9488c20.036267 4.522667 39.765333 10.2912 59.0848 17.271466l2.798933 1.058134-2.389333 1.792a136.157867 136.157867 0 0 1-37.649067 17.9712c-15.7184 5.12-32 8.362667-48.469333 9.591466v0.017067z m100.386133-38.6048l-0.904533-0.324267c-9.762133-3.498667-26.794667-8.5504-50.6368-15.0528l-1.979733-0.546133 1.024-1.809067c4.676267-8.4992 9.659733-16.827733 14.933333-24.968533l0.477867-0.7168h62.72l-0.887467 2.235733c-7.68 19.063467-15.735467 32.699733-24.0128 40.516267l-0.733867 0.6656z m-48.708266-17.9712c22.442667 6.144 38.161067 10.820267 47.957333 14.267733a112.571733 112.571733 0 0 0 21.623467-36.471466h-56.251734c-4.693333 7.253333-9.130667 14.660267-13.329066 22.203733z m120.9344-57.719467h-21.674667v-27.511466h-126.3104v25.736533h-21.674667l0.119467-1.706667c0.580267-8.2944 0.8704-15.428267 0.8704-21.1968a105.915733 105.915733 0 0 0-1.7408-18.363733l-0.324267-1.8944h79.872a96.699733 96.699733 0 0 0-14.3872-22.152533l-1.245866-1.3824 1.536-1.024c4.8128-3.242667 9.437867-6.7584 13.824-10.5472l1.28-1.092267 1.024 1.3312c6.843733 8.925867 13.312 18.141867 19.336533 27.630933l0.9728 1.536-1.604267 0.8192a46.353067 46.353067 0 0 0-7.5776 4.9152h77.704534l-0.119467 1.723734c-0.580267 8.072533-0.887467 14.8992-0.887467 20.309333 0 5.410133 0.3072 12.544 0.887467 21.179733l0.119467 1.706667z m-18.500267-3.242666h15.069867c-0.512-7.936-0.750933-14.5408-0.750934-19.6608 0-5.12 0.238933-11.400533 0.750934-18.807467h-163.498667c0.9216 5.632 1.399467 11.3152 1.4336 17.032533 0 5.444267-0.256 12.049067-0.750933 19.677867h15.0528v-25.736533h132.693333v27.511466z m-83.182933-64.6144c5.973333 7.253333 10.939733 15.2576 14.7968 23.825066l0.853333 1.877334 2.7648-2.4064c3.1232-2.781867 6.519467-5.239467 10.120533-7.338667a372.736 372.736 0 0 0-17.186133-24.576 155.477333 155.477333 0 0 1-11.349333 8.618667z m250.4704 5.888c20.394667 33.143467 51.319467 54.442667 92.740266 63.914666-4.949333 5.9392-8.533333 12.919467-10.496 20.411734a174.2336 174.2336 0 0 1-29.7472-15.086934v14.199467c-6.417067-0.597333-16.622933-0.887467-30.6176-0.887467h-20.992v35.498667h33.245867c12.253867 0 22.1696-0.290133 29.7472-0.887467v15.9744a400.042667 400.042667 0 0 0-29.7472-0.887466h-33.262933v39.936h34.133333c14.301867 0.136533 28.603733-0.443733 42.8544-1.757867v18.6368a255.778133 255.778133 0 0 0-41.130667-2.6624h-96.256c-17.493333 0-30.6176 0.290133-39.3728 0.887467v-15.9744c8.7552 0.580267 21.879467 0.887467 39.3728 0.887466h42.888534v-39.936h-24.490667c-19.848533 0-32.9728 0.290133-39.3728 0.887467V860.16c6.4 0.597333 19.234133 0.904533 38.5024 0.887467h25.378133v-35.498667h-17.5104c-18.090667 0-29.764267 0.290133-34.986666 0.887467v-14.199467c-9.506133 6.843733-19.456 13.073067-29.764267 18.6368a85.828267 85.828267 0 0 0-12.253867-18.6368c13.994667-3.566933 30.327467-12.424533 49.015467-26.624a151.125333 151.125333 0 0 0 44.612267-55.927467c6.997333 2.9696 14.301867 5.922133 21.879466 8.874667l-4.369066 4.437333z m-33.245867 67.464533h52.497067c11.656533 0 20.701867-0.290133 27.136-0.887467a124.757333 124.757333 0 0 1-55.995734-56.797866 193.211733 193.211733 0 0 1-54.254933 56.797866c6.997333 0.597333 17.2032 0.904533 30.6176 0.887467z m112.725333 123.511467l-1.877333-0.3072a255.112533 255.112533 0 0 0-40.840533-2.6624h-96.256c-17.783467 0-30.634667 0.3072-39.2704 0.904533l-1.706667 0.119467v-19.456l1.706667 0.119466c8.7552 0.580267 21.947733 0.8704 39.253333 0.8704h41.301333v-36.693333h-22.920533c-19.626667 0-32.836267 0.290133-39.236267 0.887467l-1.723733 0.1536v-19.524267l1.723733 0.1536c6.314667 0.597333 18.858667 0.887467 38.365867 0.887467h23.773867v-32.256h-15.906134c-17.885867 0-29.610667 0.3072-34.816 0.887466l-1.757866 0.187734v-12.8c-5.717333 4.096-14.8992 9.728-27.374934 16.827733l-1.467733 0.853333-0.750933-1.536a83.968 83.968 0 0 0-12.014934-18.295466l-1.757866-1.9968 2.56-0.648534c13.7216-3.4816 30.0032-12.3392 48.4352-26.350933a150.237867 150.237867 0 0 0 44.1344-55.330133l0.6656-1.3824 1.3824 0.597333c7.2192 3.037867 14.557867 6.024533 21.845333 8.840533l2.304 0.904534-5.2224 5.290666c20.104533 32 50.722133 52.8896 91.067733 62.088534l2.525867 0.580266-1.6384 2.048a51.165867 51.165867 0 0 0-10.1888 19.797334l-0.443733 1.792-1.706667-0.682667c-9.557333-3.7888-18.773333-8.362667-27.562667-13.6704v13.038933l-1.723733-0.170666c-6.417067-0.5632-16.657067-0.8704-30.481067-0.8704h-19.4048v32.256h31.6416c12.458667 0 22.152533-0.3072 29.627734-0.887467l1.723733-0.1536v19.490133l-1.706667-0.136533a402.875733 402.875733 0 0 0-29.6448-0.887467h-31.658666v36.7104h32.546133a420.352 420.352 0 0 0 42.7008-1.774933l1.774933-0.187733v22.3744z m-138.990933-6.212267h96.256c13.226667-0.170667 26.436267 0.6144 39.543467 2.389333v-14.9504c-10.9568 1.058133-24.814933 1.5872-41.301334 1.5872h-35.703466v-43.178666h34.833066c11.264 0 20.718933 0.273067 28.16 0.785066V861.866667c-7.3216 0.512-16.554667 0.750933-28.16 0.750933h-34.833066v-38.741333h22.596266c12.731733 0 22.4768 0.238933 29.013334 0.750933v-13.892267l-4.386134 0.4096c-6.4 0.597333-15.325867 0.887467-27.255466 0.887467H825.856c-13.704533 0-23.773867-0.290133-30.7712-0.887467l-3.515733-0.3072v13.7728c5.973333-0.512 17.186133-0.733867 33.416533-0.733866h19.0976v38.741333h-26.965333c-17.9712 0-30.088533-0.238933-36.9152-0.750933v12.458666c6.997333-0.512 19.6608-0.733867 37.7856-0.733866h26.112v43.178666h-44.475734a689.493333 689.493333 0 0 1-37.7856-0.785066v12.526933c8.6528-0.512 21.0432-0.785067 37.751467-0.785067z m-48.759467-114.6368c3.8912 4.795733 7.2704 10.001067 10.069334 15.496533 9.728-5.2736 19.114667-11.178667 28.091733-17.681066l2.56-2.048v1.160533l2.781867-1.860267a192.136533 192.136533 0 0 0 53.76-56.32l1.536-2.372266 1.245866 2.525866a123.665067 123.665067 0 0 0 55.296 56.098134l3.805867 1.962666v-0.853333l2.440533 1.6384a170.666667 170.666667 0 0 0 27.818667 14.250667c1.877333-6.212267 4.829867-12.049067 8.772267-17.220267-40.448-9.796267-71.168-31.3344-91.306667-64.0512l-0.6656-1.092267 3.5328-3.584c-6.075733-2.389333-12.1856-4.864-18.244267-7.406933a163.328 163.328 0 0 1-91.477333 81.373867v-0.017067z m49.117867-4.864c6.5024 0.375467 15.0528 0.5632 25.890133 0.5632h52.514134c8.738133 0 15.837867-0.1536 21.504-0.512a126.173867 126.173867 0 0 1-50.551467-52.3776 197.3248 197.3248 0 0 1-49.3568 52.343467v-0.017067zM680.106667 685.226667V470.289067h169.386666V685.226667H680.106667z m56.4736-181.009067h-33.877334v33.9456h33.877334v-33.9456z m79.035733 0h-33.877333v33.9456h33.877333v-33.9456z m-101.632-169.693867H533.333333V289.28a190.464 190.464 0 0 0 22.5792-90.504533h-101.632s-12.373333-67.8912-33.877333-67.8912H747.861333s-33.877333 47.4112-33.877333 90.5216v113.152-0.034134z m-225.8432 101.819734H228.420267s-14.114133-201.728-45.1584-203.639467h327.4752s-33.877333 158.378667-22.596267 203.639467z m0 33.9456c-11.298133 45.243733 45.175467 203.6224 45.175467 203.6224H171.963733c32 0.955733 56.456533-203.6224 56.456534-203.6224h259.720533z m45.175467-90.504534h180.667733v56.558934h-67.754667s-11.264-3.498667-11.264 11.3152v135.748266h-79.069866s-4.437333-38.4-22.5792-56.558933v-147.063467z" fill="#FFFF00" /></svg>