<?xml version="1.0" standalone="no"?><!DOCTYPE svg PUBLIC "-//W3C//DTD SVG 1.1//EN" "http://www.w3.org/Graphics/SVG/1.1/DTD/svg11.dtd"><svg class="icon" width="1000px" height="1000.00px" viewBox="0 0 1024 1024" version="1.1" xmlns="http://www.w3.org/2000/svg"><path d="M864 1024H160A160 160 0 0 1 0 864V160A160 160 0 0 1 160 0h704A160 160 0 0 1 1024 160v704A160 160 0 0 1 864 1024z m128-832a160 160 0 0 0-160-160h-640a160 160 0 0 0-160 160v640a160 160 0 0 0 160 160h640a160 160 0 0 0 160-160v-640z" fill="#FF0000" /><path d="M581.085867 540.7232l-161.757867-128.529067-0.2048 0.187734a25.770667 25.770667 0 0 1-3.618133 5.751466l14.848 17.92c8.823467 10.683733 10.3936 25.4976 4.027733 37.870934l-80.810667 154.692266a35.618133 35.618133 0 0 1-47.479466 15.086934 34.577067 34.577067 0 0 1-14.984534-46.865067l70.4-134.280533-83.677866-101.290667c0.2048 40.448 0.750933 107.3152 0.750933 107.3152 0 3.037867-0.4096 6.144-1.297067 9.130667l-37.205333 140.765866a35.072 35.072 0 0 1-24.507733 25.770667c-12.3904 3.447467-25.668267 0-34.7648-8.994133a34.065067 34.065067 0 0 1-8.618667-34.286934l36.181333-136.789333c-0.119467-9.454933-1.0752-143.872-1.0752-143.872 0-9.216 3.4816-18.1248 10.1888-24.746667l15.2576-14.882133a33.6896 33.6896 0 0 1-17.032533-29.149867l-27.921067-21.896533a12.032 12.032 0 0 1 6.144-21.2992 11.776 11.776 0 0 1 9.1136 2.628267l18.8928 14.813866 25.6-92.637866a33.041067 33.041067 0 0 1 31.931734-24.200534h136.516266c11.008 0 21.333333 5.461333 27.426134 14.472534l62.805333 91.886933c6.792533 10.069333 7.4752 23.04 1.5872 33.7408l-77.243733 141.312 169.8816 134.5536 56.661333-35.2256L853.333333 644.573867H430.148267l150.9376-103.850667zM303.496533 168.704l-11.9808 54.152533 54.954667-53.879466-42.973867-0.273067z m47.274667 158.1568l27.989333 22.033067 41.386667-63.761067-69.376 41.728z m189.525333-128.6144c-31.607467 0-57.1904-25.275733-57.1904-56.5248C483.106133 110.626133 508.757333 85.333333 540.296533 85.333333c31.470933 0 57.207467 25.361067 57.207467 56.388267 0 31.368533-25.668267 56.5248-57.207467 56.5248zM78.3872 929.792c15.684267-24.2176 24.200533-61.781333 25.6-112.708267h20.718933c-0.4608 45.858133-1.143467 72.823467-2.304 80.657067-1.604267 7.850667-6.4512 11.758933-14.506666 11.758933-3.242667 0-6.912-0.4608-11.0592-1.160533l4.829866 19.592533c4.386133 0.4608 7.611733 0.9216 9.454934 0.9216 18.432 0 28.5696-7.133867 30.890666-20.974933 1.826133-14.045867 2.986667-51.1488 2.986667-111.069867h-40.789333v-26.965333h44.936533v-21.1968H121.941333a358.638933 358.638933 0 0 0-11.52-32.034133l-22.357333 3.925333c4.608 8.533333 8.772267 17.9712 12.680533 28.1088H67.328v21.1968h16.145067v36.864c-0.238933 49.783467-7.389867 86.186667-21.435734 108.782933l16.349867 14.2848z m78.353067-124.689067a219.460267 219.460267 0 0 0 25.6-43.093333h88.0128v-20.514133h-79.496534c2.304-6.4512 4.608-12.9024 6.912-19.797334l-20.514133-4.608c-9.6768 30.173867-21.1968 53.9136-34.798933 70.9632l14.2848 17.066667z m87.808 123.989334c9.6768 0 16.5888-1.8432 21.1968-5.307734 5.0688-4.1472 8.533333-15.906133 10.5984-35.720533l-18.8928-5.9904c-0.9216 13.602133-2.7648 21.674667-5.5296 24.4224-2.304 2.304-5.9904 3.464533-10.837334 3.464533h-43.554133c-6.912 0-10.359467-5.290667-10.359467-15.445333V834.389333l17.749334-6.229333v67.9936h20.2752v-75.127467l17.5104-6.229333c0 23.978667-0.4608 38.024533-0.9216 41.949867-0.4608 4.369067-2.082133 6.673067-4.608 6.673066-3.003733 0-6.4512-0.221867-10.376534-0.221866l5.5296 18.432h1.160534c15.189333 0 23.722667-4.846933 25.8048-14.062934 1.8432-9.216 3.003733-35.9424 3.003733-79.957333l-37.102933 13.3632V771.925333h-20.292267v36.181334l-17.749333 6.4512v-23.978667H167.816533v30.890667l-16.349866 5.751466v19.831467l16.349866-5.768533v57.156266c0 20.2752 7.850667 30.651733 23.517867 30.651734h53.230933z m259.0208-12.680534v-21.1968h-91.9552v-140.117333h77.431466v-20.974933H312.32v20.992h77.192533v140.100266h-92.177066v21.1968h206.250666z m225.3824-125.371733V738.986667h-86.186667a378.658133 378.658133 0 0 0-9.693867-22.818134l-24.644266 4.1472c3.6864 5.768533 6.912 11.9808 9.898666 18.670934h-85.947733v51.848533h22.1184v-30.651733h152.32v30.890666h22.135467z m-14.762667 140.578133l14.984533-19.3536a844.458667 844.458667 0 0 0-70.058666-34.0992c10.5984-13.380267 20.514133-31.573333 29.730133-54.1696h44.475733V802.816H618.325333c4.846933-9.216 9.898667-18.8928 15.445334-29.0304l-22.5792-6.690133c-5.9904 11.9808-12.219733 23.739733-18.670934 35.720533h-63.829333v21.1968h52.0704c-7.133867 12.458667-14.506667 24.900267-22.357333 37.563733 20.514133 6.4512 41.2672 14.2848 62.0032 23.04-23.517867 16.605867-54.152533 25.122133-91.9552 25.361067l12.680533 20.2752c41.9328-1.143467 76.049067-13.141333 102.0928-35.720533a839.355733 839.355733 0 0 1 70.9632 37.102933z m-76.731733-62.464a566.306133 566.306133 0 0 0-48.162134-16.349866c5.290667-8.533333 11.0592-18.210133 17.288534-28.808534h58.299733c-7.150933 17.527467-16.366933 32.733867-27.426133 45.175467z m320.546133 55.0912v-21.435733H872.277333v-36.4032h64.750934v-21.1968H872.277333v-34.577067h53.248v-20.736c10.120533 6.4512 20.736 12.219733 32.256 17.749334l10.820267-19.592534c-37.546667-17.066667-70.741333-40.567467-99.549867-70.280533h-15.6672c-26.7264 28.330667-60.142933 52.0704-100.2496 71.202133l10.5984 19.114667a455.168 455.168 0 0 0 33.194667-18.193067v20.736h53.230933v34.577067h-64.989866v21.1968h64.989866v36.4032h-85.504v21.435733h193.365334z m-32.938667-134.587733h-127.675733c24.8832-15.428267 46.318933-32.7168 63.829333-52.0704a306.0736 306.0736 0 0 0 63.829334 52.0704z" fill="#FF0000" /></svg>