<?xml version="1.0" standalone="no"?><!DOCTYPE svg PUBLIC "-//W3C//DTD SVG 1.1//EN" "http://www.w3.org/Graphics/SVG/1.1/DTD/svg11.dtd"><svg class="icon" width="1000px" height="1000.00px" viewBox="0 0 1024 1024" version="1.1" xmlns="http://www.w3.org/2000/svg"><path d="M0 1024V0h1024v1024H0zM992 32H32v960h960V32z" fill="#0000FF" /><path d="M215.04 824.32H133.12v-30.72h61.44V358.4l97.28-153.6h51.2c4.983467 13.346133 7.3728 27.528533 7.031467 41.762133l343.808 198.485334 0.2048-0.3072 8.6528 5.444266 13.5168 7.799467-10.24 17.749333-1.092267-0.631466-30.037333 47.752533-21.4528-13.482667 0.085333-0.136533-3.2768-1.8944V558.08h-15.36v66.0992l5.12 1.860267 51.2 13.960533h35.84v46.08h-62.788267a40.96 40.96 0 0 0-19.131733-25.1904V655.36h-10.24v19.234133c8.925867 13.0048 20.48 31.7952 20.48 42.205867a30.72 30.72 0 0 1-61.44 0c0-10.410667 11.554133-29.184 20.48-42.205867V655.36h-15.36v9.0112c-5.461333 4.386133-9.728 10.103467-12.356267 16.5888H522.24v-46.08l71.68-23.893333v-1.706667l2.440533 0.887467 2.679467-0.887467v1.877333l15.36 5.563734V558.08h-15.36v-80.298667l-116.957867-67.5328-6.365866 12.151467-9.796267-5.154133V440.32h0.597333l55.381334 261.12h61.781333v25.6h0.341333a40.925867 40.925867 0 0 0 81.237334 0H665.6v-25.6h117.76v20.718933l-14.6432 25.361067H768v1.245867l-0.1536 0.256 0.1536 0.085333v13.7728h122.88v61.44H215.04zM609.28 716.8a15.36 15.36 0 1 0 30.72 0 15.36 15.36 0 0 0-30.72 0zM235.52 384l-20.48 2.56V793.6h97.28v-30.72h20.48l16.930133-50.807467h-1.194666L406.152533 440.32H404.48v-55.381333l-21.6064-11.349334 8.2944-15.8208-80.452267-46.472533C277.623467 347.067733 235.52 384 235.52 384z m169.5232 163.4304h58.231467l-29.098667-102.621867-29.1328 102.621867z m-59.869867-280.064c-5.9392 10.069333-12.817067 19.5584-20.565333 28.3136l113.783467 65.706667 15.2064-31.402667-108.424534-62.6176zM664.405333 491.8784l18.5344-29.474133-28.637866-16.5376-7.236267 14.933333h3.157333v22.8864l14.1824 8.192zM610.594133 460.8h13.533867l12.253867-25.258667-164.864-95.197866-15.2064 31.368533 154.282666 89.088z m-144.298666 102.4h-61.917867l-14.6944 56.32h91.6992l-15.086933-56.32z m15.035733 81.92h-91.989333l-15.9744 56.32h123.050666l-15.086933-56.32z" fill="#0000FF" /></svg>