<?xml version="1.0" standalone="no"?><!DOCTYPE svg PUBLIC "-//W3C//DTD SVG 1.1//EN" "http://www.w3.org/Graphics/SVG/1.1/DTD/svg11.dtd"><svg class="icon" width="1000px" height="1000.00px" viewBox="0 0 1024 1024" version="1.1" xmlns="http://www.w3.org/2000/svg"><path d="M864 1024H160A160 160 0 0 1 0 864V160A160 160 0 0 1 160 0h704A160 160 0 0 1 1024 160v704A160 160 0 0 1 864 1024z m128-832a160 160 0 0 0-160-160h-640a160 160 0 0 0-160 160v640a160 160 0 0 0 160 160h640a160 160 0 0 0 160-160v-640z" fill="#FF0000" /><path d="M833.706667 615.8336l-558.336 2.679467c-46.3872-0.768-79.872 0.4608-80.725334-43.1616l701.354667-2.679467c-2.389333 47.377067-21.6576 38.7072-62.293333 43.1616z m-14.045867-60.450133l-220.7232 1.536c-45.0048-6.058667-53.1456-27.716267-51.370667-74.257067l322.696534-0.4608c-2.372267 47.223467-9.984 68.727467-50.602667 73.181867z m17.0496-93.917867c-13.056 1.2288-25.122133-1.621333-35.106133-10.752a67.191467 67.191467 0 0 1-29.184 11.281067c-12.288-0.529067-22.7328-3.9936-30.481067-11.8272-6.314667 6.075733-17.578667 10.683733-32.034133 10.683733-14.199467 0.068267-24.183467-3.618133-30.4128-10.990933-6.826667 8.1408-17.0496 11.298133-29.6448 11.298133-13.3632-1.006933-24.1152-5.768533-34.0992-13.909333-8.823467 8.1408-20.8896 12.9024-32.938667 13.6704-24.200533-3.140267-41.642667-14.592-43.776-43.776 1.757867-30.1056 18.039467-42.769067 43.690667-44.544 12.526933-1.604267 24.046933 3.072 34.338133 14.1312 7.68-9.216 17.3568-14.592 29.6448-14.4384 12.663467-0.068267 24.029867 2.389333 32.7168 11.8272 0.768 0.4608 1.757867 0.6144 2.833067-0.221867 8.6016-8.1408 19.968-11.0592 29.866666-10.683733 11.844267 0.6144 21.282133 4.1472 27.579734 10.990933 9.454933-8.362667 19.114667-12.373333 29.184-10.2912 12.680533-1.621333 23.278933 1.911467 31.488 10.752 10.4448-8.6016 21.282133-13.448533 33.792-11.9808 22.050133 1.0752 37.4784 11.9808 41.710933 39.850667 1.2288 25.9584-10.837333 42.939733-39.168 48.930133zM618.2912 275.063467h186.709333c40.618667 4.232533 62.190933 30.1056 64.648534 77.653333H547.6352c-1.706667-46.626133 21.725867-72.4992 70.656-77.653333zM286.037333 444.945067c9.898667-11.605333 19.2-22.7328 29.405867-34.645334 14.592-17.032533 20.650667-46.08 1.2288-63.351466 11.8272-8.977067 26.197333-13.9776 42.939733-15.121067v-33.109333h95.3856v33.109333c21.8112 1.297067 39.6288 9.5232 53.213867 24.576 13.602133 14.967467 20.4288 34.013867 20.4288 57.207467v139.776H286.0544v-108.4416z m186.385067-42.769067h-46.08V356.010667h-37.3248v46.165333H343.210667v37.0176h45.841066v45.687467h37.410134v-45.687467h46.08v-37.034667h-0.085334z m-105.984 119.569067c5.0688 1.774933 11.52-3.3792 14.677333-11.2128 3.072 3.157333 7.68 5.2224 12.9024 5.2224 2.389333 0 4.7616-0.4608 6.826667-1.2288a16.042667 16.042667 0 0 0 8.1408 3.072c-12.817067 1.536-22.186667 5.768533-22.186667 10.752 0 6.314667 14.1312 11.298133 31.488 11.298133s31.488-5.0688 31.488-11.298133v-0.4608c2.525867 0.546133 5.290667 0.768 8.2944 0.768h2.304a8.840533 8.840533 0 0 0-0.085333 6.997333c2.9184 7.133867 15.6672 8.9088 28.2624 3.925333 12.5952-5.000533 20.514133-15.138133 17.578667-22.289066-2.901333-7.133867-15.650133-8.9088-28.245334-3.925334-1.006933 0.477867-1.8432 0.785067-2.850133 1.245867-0.529067-0.4608-1.0752-0.6144-1.604267-1.0752a79.36 79.36 0 0 0 0.6144-10.990933c0-12.663467-2.304-23.04-5.0688-23.04-2.850133 0-5.0688 10.4448-5.0688 23.04 0 2.850133 0.068267 5.461333 0.221867 7.850666a51.5072 51.5072 0 0 0-6.2976-0.477866c-11.0592 0-19.968 4.232533-19.968 9.454933v0.068267a74.973867 74.973867 0 0 0-18.8928-2.525867c5.2224-1.314133 8.686933-4.4544 8.686933-7.850667 0-4.744533-6.6048-8.669867-14.984533-8.669866-0.768 0-1.604267 0-2.304 0.085333-0.768-6.997333-7.8336-12.288-16.4352-12.288-5.290667 0-9.984 2.1504-13.056 5.290667a6.792533 6.792533 0 0 0-3.925333-3.140267c-5.290667-1.774933-12.117333 3.6864-14.967467 12.288-2.901333 8.9088-0.989867 17.271467 4.4544 19.114667z m-21.111467 13.3632c8.055467 0 14.592-4.215467 14.592-9.3696 0-5.2224-6.536533-9.437867-14.592-9.437867-8.072533 0-14.592 4.215467-14.592 9.437867 0.068267 5.154133 6.6048 9.386667 14.592 9.386666z m-32.341333 3.925333c6.6048 0 12.1344-3.3792 12.1344-7.5264s-5.461333-7.5264-12.117333-7.5264c-6.775467 0-12.151467 3.3792-12.151467 7.509333 0.085333 4.164267 5.5296 7.543467 12.1344 7.543467z m106.376533-333.550933v31.7952h-14.592v-55.6032c-52.906667 8.6016-108.7488-57.975467-100.4544-94.685867 30.327467-10.990933 100.1472 35.157333 115.114667 71.338667 0 8.072533-1.2288 24.968533 0 20.974933 10.1376-34.4064 74.1888-73.1136 104.9088-66.901333 5.154133 20.360533-51.217067 102.912-104.977067 93.0816z m-99.618133-104.055467c1.0752 22.869333 44.8512 71.031467 88.234667 70.1952 4.846933-24.576-70.417067-72.8064-88.234667-70.1952zM510.634667 124.928c-21.742933-6.997333-90.624 50.909867-88.32 71.799467 33.3312 12.373333 92.535467-63.658667 88.32-71.799467z m-10.990934 150.749867H315.0848v-37.546667h184.541867v37.546667z m-192.068266 130.184533l-35.720534 42.154667c-1.757867-1.536-63.197867-53.213867-64.273066-53.981867l36.2496-42.786133c14.1312-16.5888 42.3936-20.8896 60.2112-5.973334 22.954667 14.813867 17.664 43.912533 3.5328 60.586667z m-104.379734 123.255467c-14.1312 16.5888-44.629333 23.5008-62.208 8.6016-17.749333-14.7456-16.213333-45.841067-1.928533-62.583467 19.131733-22.5792 34.030933-40.174933 52.923733-62.600533 0 0 63.658667 53.4528 63.744 53.4528l-52.5312 63.146666zM98.9696 933.461333c30.805333-4.829867 56.797867-10.359467 77.482667-16.554666l-4.130134-18.397867c-15.4112 4.369067-31.505067 8.277333-48.298666 11.485867v-38.8608h103.936v-83.456c9.6768 5.290667 19.797333 10.3424 30.378666 14.933333l10.8032-19.080533a330.376533 330.376533 0 0 1-97.7408-62.549334h-15.189333c-25.975467 25.7536-58.624 47.377067-98.167467 64.6144l10.8032 19.319467A513.365333 513.365333 0 0 0 102.4 787.438933v112.674134c0 8.738133-3.2256 14.250667-9.198933 16.093866l5.751466 17.237334z m57.480533-148.309333H106.564267c22.289067-13.346133 41.386667-28.074667 57.2416-44.629333 17.2544 17.015467 37.256533 31.744 59.8016 44.612266H176.469333a251.255467 251.255467 0 0 0-7.3728-23.9104l-19.7632 2.986667c2.525867 6.434133 4.829867 13.568 7.1168 20.923733z m49.902934 33.792H124.040533v-14.506667h82.312534v14.506667z m0 32.887467H124.040533v-14.506667h82.312534v14.506667z m41.386666 82.312533l13.806934-16.315733a400.520533 400.520533 0 0 0-34.491734-18.858667 211.456 211.456 0 0 0 27.357867-26.453333l-18.397867-9.198934a216.0128 216.0128 0 0 1-27.136 27.136 597.282133 597.282133 0 0 0-39.765333-15.872l-12.424533 14.728534c37.034667 13.789867 67.3792 28.740267 91.050666 44.834133z m118.203734-160.0512v-16.093867h55.637333v15.633067h21.845333v-15.633067h52.224v-20.241066h-52.224v-17.476267h-21.845333v17.476267h-55.637333v-17.476267h-21.845334v17.476267h-52.206933v20.241066h52.206933v16.093867h21.845334z m-61.627734 117.504a443.323733 443.323733 0 0 0 71.509334-14.472533v-18.6368c-15.872 4.829867-31.505067 8.738133-46.8992 11.502933 14.0288-13.568 31.266133-35.413333 51.729066-65.536l-19.541333-7.355733c-5.290667 8.277333-10.3424 16.093867-15.189333 23.4496-8.4992 0.9216-17.237333 2.065067-25.975467 2.986666 10.581333-11.946667 20.923733-27.136 31.505067-45.294933l-19.080534-7.355733a248.610133 248.610133 0 0 1-31.2832 48.298666 20.5312 20.5312 0 0 1-7.816533 7.1168l4.608 17.237334c11.946667-1.604267 23.688533-3.208533 34.952533-4.590934-9.659733 12.885333-17.937067 22.306133-24.832 27.818667-2.542933 2.542933-5.5296 4.608-9.216 5.973333l5.5296 18.858667z m143.957334 41.403733c21.162667 0 32.8704-7.355733 35.6352-21.845333 2.304-14.728533 3.6864-53.128533 3.6864-115.677867h-65.536c2.048-6.434133 3.908267-12.868267 5.512533-19.541333l-20.48-2.304c-5.973333 25.770667-17.4592 47.837867-34.2528 65.774933l12.424533 16.093867a163.549867 163.549867 0 0 0 28.740267-40.465067h52.4288c-0.4608 49.2032-1.365333 77.943467-2.986667 86.459734-1.8432 8.277333-8.055467 12.407467-18.397866 12.407466-8.738133 0-19.319467-0.443733-31.266134-1.143466l4.829867 19.319466c14.011733 0.4608 23.893333 0.9216 29.661867 0.9216z m-19.0976-41.403733l15.872-11.264c-6.656-11.025067-16.3328-23.688533-28.740267-38.4l-15.872 9.898667c11.946667 14.711467 21.623467 27.818667 28.740267 39.765333z m-128.546134 40.482133c31.505067-4.369067 59.562667-10.120533 84.1728-17.476266V894.805333c-24.832 6.894933-53.8112 12.6464-86.920533 16.7936l2.747733 20.462934z m421.051734-138.666666v-51.968h-86.016c-3.208533-8.277333-6.417067-15.872-9.642667-22.766934l-24.610133 4.1472c3.6864 5.751467 6.894933 11.946667 9.898666 18.619734h-85.777066v51.746133h22.0672v-30.583467h152.0128v30.805334h22.0672z m-14.711467 140.288l14.9504-19.336534a842.6496 842.6496 0 0 0-69.922133-34.030933c10.581333-13.329067 20.48-31.505067 29.678933-54.033067h44.373333v-21.162666H611.328c4.829867-9.198933 9.8816-18.858667 15.394133-28.962134l-22.528-6.673066c-5.973333 11.946667-12.1856 23.688533-18.619733 35.6352h-63.709867v21.162666h51.968a1334.3744 1334.3744 0 0 1-22.306133 37.4784c20.48 6.434133 41.1648 14.267733 61.866667 23.005867-23.4496 16.554667-54.033067 25.053867-91.7504 25.2928l12.629333 20.224c41.864533-1.143467 75.895467-13.1072 101.888-35.6352a837.563733 837.563733 0 0 1 70.826667 37.034667z m-76.578133-62.327467c-16.3328-6.434133-32.426667-11.7248-48.059734-16.3328 5.290667-8.4992 11.042133-18.158933 17.237334-28.740267h58.197333c-7.133867 17.476267-16.3328 32.648533-27.374933 45.056z m319.863466 54.954667v-21.384534h-85.538133v-36.334933h64.6144v-21.162667h-64.6144v-34.474666h53.111467v-20.701867c10.120533 6.434133 20.701867 12.1856 32.2048 17.698133l10.8032-19.541333a323.549867 323.549867 0 0 1-99.328-70.144h-15.650134c-26.6752 28.296533-60.023467 51.985067-100.027733 71.0656l10.581333 19.080533c11.485867-5.751467 22.528-11.7248 33.109334-18.158933v20.6848h53.111466v34.5088h-64.853333v21.162667h64.853333v36.317866h-85.2992v21.384534h192.9216z m-32.887466-134.2976h-127.3856c24.832-15.394133 46.216533-32.648533 63.6928-51.968a305.425067 305.425067 0 0 0 63.6928 51.968z" fill="#FF0000" /></svg>