<?xml version="1.0" standalone="no"?><!DOCTYPE svg PUBLIC "-//W3C//DTD SVG 1.1//EN" "http://www.w3.org/Graphics/SVG/1.1/DTD/svg11.dtd"><svg class="icon" width="1000px" height="1000.00px" viewBox="0 0 1024 1024" version="1.1" xmlns="http://www.w3.org/2000/svg"><path d="M864 1024H160A160 160 0 0 1 0 864V160A160 160 0 0 1 160 0h704A160 160 0 0 1 1024 160v704A160 160 0 0 1 864 1024z m128-832a160 160 0 0 0-160-160h-640a160 160 0 0 0-160 160v640a160 160 0 0 0 160 160h640a160 160 0 0 0 160-160v-640z" fill="#FF0000" /><path d="M177.425067 925.576533c14.114133 0 21.282133-7.816533 21.282133-23.022933v-89.0368c15.854933 34.304 41.472 65.809067 76.663467 94.2592l13.038933-18.8928a216.746667 216.746667 0 0 1-64.512-65.809067 331.963733 331.963733 0 0 0 51.694933-51.712l-16.725333-12.356266a312.234667 312.234667 0 0 1-44.305067 48.213333 242.807467 242.807467 0 0 1-15.872-36.7104v-44.9536h-20.821333v171.793067c0 6.075733-2.6112 9.335467-7.611733 9.335466-8.260267 0-16.9472-0.426667-26.0608-1.297066l4.5568 20.189866h28.672z m-79.0528-20.411733c33.2288-24.746667 55.159467-61.252267 65.5872-109.4656v-16.2816H92.501333v19.968h51.029334c-10.632533 38.229333-29.969067 67.9936-58.197334 88.832l13.038934 16.9472z m402.875733 13.4656v-19.968h-97.0752v-87.330133h80.349867v-19.968h-80.349867v-65.365334h-21.2992v172.6464h-76.219733v19.985067H501.248z m108.373333 6.946133c14.336 0 21.504-6.724267 21.504-20.189866v-11.093334h67.328v-28.433066h21.930667v-16.725334h-21.930667v-28.450133H631.125333v-10.871467h64.290134V765.098667H631.125333v-10.8544h83.4048v-17.595734H631.125333V725.333333h-20.411733v11.298134h-83.4048v17.578666h83.4048v10.871467h-64.290133v44.731733h64.290133v10.871467h-69.495467v16.059733h69.495467v12.3904h-89.258667v16.725334h89.258667v11.946666h-69.717333v16.503467h69.717333v6.2976c0 4.5568-2.833067 6.946133-8.021333 6.946133-7.850667 0-15.872-0.648533-24.132267-1.536l4.352 19.5584h26.709333z m65.365334-131.1744h-43.861334v-14.114133h43.861334v14.114133z m-64.273067 0h-43.861333v-14.114133h43.861333v14.114133z m67.976533 54.7328H631.125333v-12.3904h47.5648v12.3904z m0 28.672H631.125333v-11.946666h47.5648v11.946666z m248.251734 49.288534L938.666667 909.943467c-16.9472-9.1136-31.488-21.725867-43.861334-37.7856 15.189333-24.763733 23.4496-55.176533 24.968534-90.794667h15.189333v-19.968h-66.6624c3.037867-10.001067 5.4272-20.855467 7.594667-32.1536l-19.114667-3.4816c-6.2976 36.488533-18.244267 65.365333-35.84 87.108267l12.612267 15.854933c4.113067-4.778667 8.2432-10.222933 12.151466-16.0768a266.461867 266.461867 0 0 0 26.282667 58.862933c-11.502933 15.189333-26.282667 27.784533-44.526933 37.563734l10.871466 17.152a167.594667 167.594667 0 0 0 45.175467-38.007467 147.882667 147.882667 0 0 0 43.434667 38.877867z m-157.9008-3.908267v-14.5408h59.0848v-78.626133h-29.764267v-40.618667h35.191467v-19.968h-35.191467v-40.618667h-19.7632v40.618667h-37.5808v19.968h37.5808v40.618667h-29.320533v93.184h19.7632z m113.595733-68.846933c-10.427733-17.800533-18.8928-38.656-25.429333-62.7712 1.314133-3.242667 2.833067-6.724267 4.352-10.205867h38.877866c-1.297067 28.023467-7.168 52.343467-17.800533 72.977067z m-74.496 35.618133h-39.082667v-41.472h39.082667v41.472zM511.931733 681.949867c-162.013867 0-294.2464-129.5872-298.478933-290.4064h47.701333c4.232533 134.536533 115.029333 242.756267 250.914134 242.756266 135.850667 0 246.664533-108.202667 250.88-242.756266H810.666667c-4.471467 160.8192-136.584533 290.4064-298.734934 290.4064z m174.404267-283.989334s36.181333 60.6208-7.850667 126.976c0 0-6.109867-9.7792-15.7696-18.107733-10.496 14.5408-32.768 40.209067-66.781866 52.957867-45.4656 17.032533-63.880533 20.5312-83.797334 52.599466-19.882667-31.829333-38.365867-35.447467-83.831466-52.599466-33.9968-12.8-56.285867-38.468267-66.781867-52.957867-9.7792 8.328533-15.7696 18.107733-15.7696 18.107733-44.032-66.474667-7.850667-126.976-7.850667-126.976 16.315733 38.877867 66.184533 88.456533 66.184534 88.456534-11.776 1.570133-19.2512 5.0688-23.483734 7.850666 19.8656 26.077867 51.319467 46.677333 84.411734 44.202667 33.399467-2.594133 31.044267-36.7104 31.044266-36.7104v-145.834667h-74.820266a22.3232 22.3232 0 0 1-40.277334-13.226666 22.357333 22.357333 0 0 1 22.357334-22.289067c7.287467 0 13.8752 3.6864 17.92 9.0624h74.513066v-58.760533a53.162667 53.162667 0 0 1-36.778666-50.4832c0-26.555733 19.8144-48.5376 45.3632-52.5824v38.638933a16.128 16.128 0 0 0-8.277334 13.892267c0 8.874667 7.185067 16.059733 16.1792 16.059733 8.874667 0 16.1792-7.185067 16.1792-16.059733a15.889067 15.889067 0 0 0-8.260266-13.892267V167.5264a53.213867 53.213867 0 0 1 45.346133 52.5824c0 23.722667-15.581867 43.7248-36.778667 50.4832v58.760533h74.820267a22.3232 22.3232 0 0 1 40.277333 13.226667 22.357333 22.357333 0 0 1-22.357333 22.272c-7.287467 0-13.824-3.669333-17.92-9.045333H528.725333v146.0736s-2.3552 34.235733 31.044267 36.693333c33.211733 2.6112 64.546133-18.090667 84.411733-44.202667-4.352-2.7648-11.8272-6.263467-23.483733-7.850666-0.546133-0.1024 49.4592-49.92 65.6384-88.576zM511.931733 132.9664c-135.7312 0-246.664533 108.202667-250.88 242.7392H213.333333C217.617067 214.9888 349.866667 85.333333 511.829333 85.333333c162.133333 0 294.2464 129.5872 298.478934 290.389334h-47.701334c-4.0448-134.656-114.926933-242.7392-250.6752-242.7392z" fill="#FF0000" /></svg>