<?xml version="1.0" standalone="no"?><!DOCTYPE svg PUBLIC "-//W3C//DTD SVG 1.1//EN" "http://www.w3.org/Graphics/SVG/1.1/DTD/svg11.dtd"><svg class="icon" width="1000px" height="1000.00px" viewBox="0 0 1024 1024" version="1.1" xmlns="http://www.w3.org/2000/svg"><path d="M0 1024V0h1024v1024H0zM992 32H32v960h960V32z" fill="#0000FF" /><path d="M826.094933 824.337067c-4.932267-6.058667-16.0256-15.36-37.614933-15.36-18.688 0-27.767467 8.704-36.181333 15.991466l-40.669867 0.341334c-8.994133-7.355733-18.346667-16.349867-35.7888-16.349867-17.92 0-25.873067 9.472-34.833067 16.896l-42.9568 0.341333c-9.216-7.458133-16.2816-17.237333-29.730133-17.237333-13.755733 0-22.903467 10.24-32.631467 17.749333l-37.614933 0.3072c-8.055467-5.8368-16.3328-12.936533-32.1536-12.936533-16.349867 0-27.477333 7.5776-38.6048 13.5168l-39.338667 0.3072c-8.533333-7.5776-14.216533-18.944-29.576533-18.944-15.7696 0-31.556267 11.997867-46.506667 19.575467l-33.058133 0.256c-6.673067-7.543467-9.335467-19.831467-27.9552-19.831467-26.88 0-51.2 20.48-51.2 20.48v-30.72s24.32-20.48 51.2-20.48 20.48 25.6 40.96 25.6 43.52-25.6 66.56-25.6 24.32 25.6 46.08 25.6c21.76 0 34.56-20.48 61.44-20.48 26.88 0 32 20.48 51.2 20.48s29.44-25.6 51.2-25.6 26.88 25.6 51.2 25.6 26.88-25.6 56.32-25.6c29.44 0 35.84 25.6 56.32 25.6 20.48 0 24.32-25.6 56.32-25.6 32 0 40.96 20.48 40.96 20.48v25.6l-3.345067 0.034133zM788.48 732.16c-18.688 0-27.767467 8.704-36.181333 15.991467l-40.669867 0.341333c-8.994133-7.338667-18.346667-16.3328-35.7888-16.3328-17.92 0-25.873067 9.472-34.833067 16.896l-42.9568 0.341333c-9.216-7.458133-16.2816-17.237333-29.730133-17.237333-13.755733 0-22.903467 10.24-32.631467 17.749333l-37.614933 0.3072c-8.055467-5.8368-16.3328-12.936533-32.1536-12.936533-16.349867 0-27.477333 7.5776-38.6048 13.5168l-39.338667 0.3072c-8.533333-7.5776-14.216533-18.944-29.576533-18.944-15.7696 0-31.556267 11.997867-46.506667 19.575467l-33.058133 0.256c-6.673067-7.543467-9.335467-19.831467-27.9552-19.831467-26.88 0-51.2 20.48-51.2 20.48v-30.72s24.32-20.48 51.2-20.48c6.075733-0.341333 12.049067 1.604267 16.725333 5.4784l-1.365333-5.4784s20.992-12.663467 10.24-15.36c-10.752-2.696533-25.6-5.12-25.6-5.12v-61.44h-20.48v-112.64h30.72V358.4h71.68v-71.68h112.64v-87.04h128v87.04h112.64v66.56H768V512h25.6v102.4h-15.36v66.56h-25.6v36.181333c8.311467-7.202133 17.408-15.701333 35.84-15.701333 32 0 40.96 20.48 40.96 20.48v25.6h-3.345067c-4.932267-6.0416-16.0256-15.36-37.614933-15.36z m-81.92-312.32h-66.56v-56.32H394.24v51.2l-5.12 10.24h-71.68v40.96h87.04v-25.6l10.24-5.12h194.56s15.36-2.423467 15.36 10.24v20.48h81.92v-46.08z m35.84 133.12s-20.48-8.3968-20.48-25.6h-46.08v-25.6h-97.28v-35.84h-122.88v35.84H358.4v25.6h-56.32v15.36a14.472533 14.472533 0 0 0-15.36 15.36v61.44a9.1648 9.1648 0 0 0 10.24 10.24h15.36v51.2s-12.288 10.24 10.24 10.24h384a14.933333 14.933333 0 0 0 15.36-15.36v-51.2h20.48v-71.68z" fill="#0000FF" /></svg>