<?xml version="1.0" standalone="no"?><!DOCTYPE svg PUBLIC "-//W3C//DTD SVG 1.1//EN" "http://www.w3.org/Graphics/SVG/1.1/DTD/svg11.dtd"><svg class="icon" width="1000px" height="1000.00px" viewBox="0 0 1024 1024" version="1.1" xmlns="http://www.w3.org/2000/svg"><path d="M0 1024V0h1024v1024H0zM992 32H32v960h960V32z" fill="#0000FF" /><path d="M613.341867 626.0224a94.72 94.72 0 0 0 164.898133-7.202133 94.685867 94.685867 0 0 0 147.268267 28.074666 86.920533 86.920533 0 0 1-154.948267 12.8 86.903467 86.903467 0 0 1-153.6-9.642666 87.125333 87.125333 0 0 1-64 50.005333v85.572267a94.890667 94.890667 0 0 0 60.381867-46.933334 94.72 94.72 0 0 0 164.898133-7.236266 94.685867 94.685867 0 0 0 147.268267 28.074666 86.920533 86.920533 0 0 1-154.948267 12.8 86.903467 86.903467 0 0 1-153.6-9.642666 87.125333 87.125333 0 0 1-64 50.005333v11.6224H102.4V199.68h450.56v253.115733a94.890667 94.890667 0 0 0 60.381867-46.933333 94.72 94.72 0 0 0 164.898133-7.202133 94.685867 94.685867 0 0 0 147.268267 28.074666 86.920533 86.920533 0 0 1-154.948267 12.765867 86.903467 86.903467 0 0 1-153.6-9.642667 87.125333 87.125333 0 0 1-64 50.005334v85.572266a94.890667 94.890667 0 0 0 60.381867-46.933333 94.72 94.72 0 0 0 164.898133-7.202133 94.685867 94.685867 0 0 0 147.268267 28.074666 86.920533 86.920533 0 0 1-154.948267 12.765867 86.903467 86.903467 0 0 1-153.6-9.642667 87.125333 87.125333 0 0 1-64 50.005334v80.452266a94.890667 94.890667 0 0 0 60.381867-46.933333zM486.4 286.72H168.96v30.72h317.44v-30.72z m0 102.4H168.96v30.72h285.5936c-0.273067-0.8704-0.580267-1.723733-0.836267-2.6112l2.048 2.6112H486.4v-30.72z m0 102.4H168.96v30.72h317.44v-30.72z m0 102.4H168.96v30.72h317.44v-30.72z" fill="#0000FF" /></svg>