<?xml version="1.0" standalone="no"?><!DOCTYPE svg PUBLIC "-//W3C//DTD SVG 1.1//EN" "http://www.w3.org/Graphics/SVG/1.1/DTD/svg11.dtd"><svg class="icon" width="1000px" height="1000.00px" viewBox="0 0 1024 1024" version="1.1" xmlns="http://www.w3.org/2000/svg"><path d="M864 1024H160A160 160 0 0 1 0 864V160A160 160 0 0 1 160 0h704A160 160 0 0 1 1024 160v704A160 160 0 0 1 864 1024z m128-832a160 160 0 0 0-160-160h-640a160 160 0 0 0-160 160v640a160 160 0 0 0 160 160h640a160 160 0 0 0 160-160v-640z" fill="#FF0000" /><path d="M156.945067 786.773333c-2.577067 14.574933-6.2464 28.962133-10.973867 43.008a208.384 208.384 0 0 1-17.5616 37.666134 229.7344 229.7344 0 0 1-34.6624 42.530133 39.509333 39.509333 0 0 0-18.432-12.407467A146.466133 146.466133 0 0 0 114.346667 856.797867a172.253867 172.253867 0 0 0 21.504-54.0672H112.1792c-9.984 0.085333-19.933867 0.682667-29.8496 1.792v-18.602667a501.589333 501.589333 0 0 0 28.962133 0.8704h45.636267v-0.034133z m31.146666-32.802133a146.602667 146.602667 0 0 0 1.757867 26.146133c2.7136 13.277867 8.2432 25.821867 16.247467 36.778667 23.978667-20.087467 38.314667-35.7376 43.008-46.967467 6.434133 5.922133 12.288 11.52 17.544533 16.827734-7.799467 5.461333-15.274667 11.400533-22.3744 17.749333-7.3216 6.485333-17.408 15.325867-30.276267 26.5728a126.754133 126.754133 0 0 0 25.4464 33.672533 104.448 104.448 0 0 0 44.765867 26.589867c-9.949867 4.727467-15.803733 10.632533-17.5616 17.732267a174.148267 174.148267 0 0 1-51.336533-45.2096 221.013333 221.013333 0 0 1-27.648-49.629867v98.372267a16.981333 16.981333 0 0 1-9.216 17.732266 74.990933 74.990933 0 0 1-26.794667 7.082667 50.5856 50.5856 0 0 0-7.8848-21.265067c6.587733 1.706667 13.482667 1.9968 20.189867 0.887467 4.096-1.194667 6.144-5.0176 6.144-11.52v-140.032a285.44 285.44 0 0 0-1.757867-35.447467h20.189867c0 8.874667-0.136533 16.8448-0.443734 23.927467z m-37.888 185.2416l-0.1536-1.6384a49.152 49.152 0 0 0-7.68-20.565333l-1.877333-3.1232 3.549867 0.682666c6.3488 1.621333 12.970667 1.928533 19.456 0.904534 1.211733-0.341333 4.9664-1.4336 4.9664-9.949867v-140.032c0.170667-11.776-0.426667-23.552-1.7408-35.242667l-0.238934-1.826133h23.620267v1.621333c0 8.584533-0.1536 16.64-0.443733 23.995734a147.285333 147.285333 0 0 0 1.7408 25.838933c2.525867 12.458667 7.6288 24.251733 15.0016 34.6112 22.869333-19.285333 36.727467-34.474667 41.181866-45.192533l0.887467-2.116267 1.672533 1.536c5.9904 5.495467 11.861333 11.144533 17.595734 16.896l1.365333 1.365333-1.570133 1.109334c-7.748267 5.444267-15.189333 11.3152-22.237867 17.6128-7.133867 6.3488-16.930133 14.933333-29.354667 25.770666 6.4512 11.946667 14.762667 22.784 24.593067 32.136534a103.611733 103.611733 0 0 0 44.0832 26.180266l4.027733 1.211734-3.7888 1.809066c-9.454933 4.471467-15.0528 10.069333-16.6912 16.657067l-0.512 2.116267-1.877333-1.1264a176.469333 176.469333 0 0 1-51.797333-45.653334 231.424 231.424 0 0 1-24.746667-42.496v90.282667c1.1264 7.901867-2.901333 15.633067-10.0352 19.182933a77.073067 77.073067 0 0 1-27.3408 7.2704l-1.655467 0.170667z m-3.310933-20.855467a51.2 51.2 0 0 1 6.178133 17.288534c8.533333-0.768 16.878933-3.054933 24.610134-6.741334a15.36 15.36 0 0 0 8.362666-16.1792v-107.0592l3.072 7.9872c6.997333 17.527467 16.2304 34.082133 27.460267 49.2544a171.6736 171.6736 0 0 0 49.152 43.690667 29.525333 29.525333 0 0 1 14.2848-14.916267 105.642667 105.642667 0 0 1-41.693867-25.787733 129.024 129.024 0 0 1-25.787733-34.133333l-0.512-1.109334 0.9216-0.785066c12.868267-11.229867 22.954667-20.087467 30.276267-26.589867 6.673067-5.956267 13.6704-11.537067 20.957866-16.725333-4.778667-4.744533-9.608533-9.386667-14.5408-13.943467-5.5808 11.349333-19.5072 26.282667-42.513066 45.533867l-1.365334 1.143466-0.989866-1.4848a95.982933 95.982933 0 0 1-16.4864-37.461333 146.397867 146.397867 0 0 1-1.774934-26.436267c0.273067-6.826667 0.4096-14.336 0.426667-22.237866h-16.759467c1.143467 11.229867 1.655467 22.528 1.536 33.826133v140.032c0 7.253333-2.4576 11.6736-7.304533 13.073067a43.178667 43.178667 0 0 1-17.493333-0.238934h-0.017067z m-53.2992-5.973333l-1.109333-1.4336a38.161067 38.161067 0 0 0-17.732267-11.8784l-2.884267-1.024 2.491734-1.792a145.578667 145.578667 0 0 0 38.656-40.328533 170.222933 170.222933 0 0 0 20.821333-51.575467h-21.674667c-9.898667 0.085333-19.8144 0.682667-29.696 1.774933l-1.757866 0.170667V784.213333l1.706666 0.085334c10.24 0.597333 19.968 0.887467 28.842667 0.887466h47.581867l-0.341334 1.911467a300.5952 300.5952 0 0 1-11.025066 43.229867 211.182933 211.182933 0 0 1-17.698134 37.9392 231.748267 231.748267 0 0 1-34.9184 42.871466l-1.262933 1.262934z m-14.9504-15.291733c5.802667 2.269867 11.008 5.853867 15.223467 10.4448a226.030933 226.030933 0 0 0 33.1776-40.96 207.530667 207.530667 0 0 0 17.408-37.376c4.488533-13.329067 8.021333-26.9824 10.564266-40.823467H111.274667c-8.448 0-17.646933-0.256-27.357867-0.802133v15.121066a285.952 285.952 0 0 1 28.245333-1.604266h25.7024l-0.443733 1.979733a174.762667 174.762667 0 0 1-21.725867 54.5792 147.268267 147.268267 0 0 1-37.085866 39.458133zM450.0992 832.853333c10.530133 0 21.947733-0.290133 34.235733-0.887466v15.957333a721.2032 721.2032 0 0 0-34.235733-0.904533h-37.7344v24.832h62.3104c10.530133 0 21.947733-0.3072 34.235733-0.887467v15.940267a347.272533 347.272533 0 0 0-34.235733-1.757867h-62.3104c0 21.8624 0.580267 38.997333 1.757867 51.387733h-20.189867c0.580267-12.407467 0.853333-29.525333 0.8704-51.387733H337.749333c-12.885333 0-25.463467 0.580267-37.751466 1.774933v-16.8448c12.885333 0.597333 25.463467 0.887467 37.751466 0.887467h57.053867V847.018667H361.472c-12.288 0-24.866133 0.3072-37.751467 0.904533v-15.957333c12.868267 0.597333 25.463467 0.887467 37.751467 0.887466h88.6272z m25.4464-95.709866c-0.597333 5.905067-0.887467 17.732267-0.8704 35.447466 0 17.134933 0.290133 31.0272 0.8704 41.642667h-145.698133c0.580267-8.260267 0.8704-21.5552 0.8704-39.8848 0-18.8928-0.290133-31.300267-0.853334-37.205333h145.681067z m-18.432 31.010133v-16.8448h-108.834133v16.8448h108.834133z m0 31.010133v-15.940266h-108.834133v15.940266h108.834133z m-41.233067 138.990934h-23.637333l0.085333-1.706667c0.5632-12.117333 0.853333-28.8256 0.8704-49.698133H337.749333c-12.6464 0-25.2928 0.6144-37.5808 1.774933l-1.757866 0.170667v-20.309334l1.672533 0.068267c12.561067 0.580267 25.224533 0.887467 37.666133 0.887467h55.466667v-20.701867h-31.744c-12.117333 0-24.763733 0.3072-37.666133 0.887467l-1.672534 0.085333v-19.336533l1.672534 0.068266c12.561067 0.597333 25.2416 0.887467 37.666133 0.887467h88.6272c10.666667 0 22.152533-0.290133 34.1504-0.887467l1.672533-0.068266v19.336533l-1.672533-0.085333a722.653867 722.653867 0 0 0-34.1504-0.887467h-36.1472v21.589333h60.7232c10.683733 0 22.152533-0.3072 34.1504-0.887466l1.672533-0.085334v19.456l-1.7408-0.170666a345.224533 345.224533 0 0 0-34.082133-1.774934h-60.7232c0.034133 20.992 0.631467 37.717333 1.757867 49.629867l0.170666 1.757867z m-20.2752-3.242667h16.7424c-1.058133-12.202667-1.5872-28.928-1.5872-49.7664v-1.621333h63.914667c10.461867 0 21.435733 0.529067 32.631467 1.5872v-12.458667c-11.434667 0.512-22.408533 0.802133-32.631467 0.802133h-63.914667v-28.040533h39.338667c9.915733 0 20.8896 0.273067 32.631467 0.802133v-12.561066c-11.434667 0.546133-22.408533 0.802133-32.631467 0.802133H361.472c-11.9296 0-24.064-0.256-36.1472-0.802133v12.561066c12.373333-0.512 24.5248-0.802133 36.1472-0.802133h34.952533v27.136H337.749333c-11.946667 0-24.081067-0.273067-36.1472-0.802133v13.3632a399.530667 399.530667 0 0 1 36.1472-1.604267h58.658134v1.604267c0 20.736-0.273067 37.4784-0.802134 49.800533z m81.629867-119.057067h-149.111467l0.136534-1.723733c0.5632-8.260267 0.853333-21.6576 0.853333-39.765333 0-18.722133-0.290133-31.1808-0.853333-37.0688l-0.170667-1.774934h149.230933l-0.170666 1.757867c-0.580267 5.819733-0.8704 17.3568-0.8704 35.293867 0 17.4592 0.290133 31.061333 0.853333 41.557333l0.1024 1.706667z m-145.681067-3.242666h142.301867a831.744 831.744 0 0 1-0.785067-40.021334c0-16.384 0.238933-27.4944 0.733867-33.8432H331.605333c0.494933 6.536533 0.7168 18.500267 0.7168 35.601067 0 16.9984-0.238933 29.866667-0.768 38.280533z m127.146667-11.844267h-112.008533v-19.182933h112.0256v19.182933z m-108.817067-3.242667h105.642667v-12.714666H349.866667v12.731733z m108.834134-27.784533h-112.0256v-20.053333h112.0256v20.053333z m-108.834134-3.2256h105.642667v-13.602133H349.866667v13.602133zM665.6 907.741867a120.354133 120.354133 0 0 1-36.420267-49.186134 139.776 139.776 0 0 1-13.175466 26.589867c-4.949333 7.901867-11.008 15.069867-17.988267 21.265067-6.826667 5.973333-14.165333 11.298133-21.947733 15.940266-9.181867 5.358933-18.705067 10.103467-28.5184 14.1824a43.639467 43.639467 0 0 0-15.803734-15.0528 138.018133 138.018133 0 0 0 41.693867-18.176 89.480533 89.480533 0 0 0 27.648-27.921066c6.6048-11.076267 11.195733-23.210667 13.602133-35.8912 2.679467-14.165333 3.413333-28.637867 2.2016-43.008 7.0144 0.6144 14.626133 1.194667 22.818134 1.774933a71.3728 71.3728 0 0 0-2.2016 30.122667c2.218667 11.554133 6.382933 22.647467 12.288 32.802133 7.2192 12.987733 16.896 24.4224 28.535466 33.672533a127.368533 127.368533 0 0 0 49.152 23.04 47.274667 47.274667 0 0 0-13.175466 18.602667A145.783467 145.783467 0 0 1 665.6 907.758933z m53.981867-116.548267c0 3.549867 0.273067 10.052267 0.887466 19.490133h-19.319466V782.336h-144.8448v30.139733h-19.319467c0.597333-10.0352 0.887467-17.425067 0.887467-22.1696 0-4.727467-0.290133-12.714667-0.887467-23.927466h183.466667a600.832 600.832 0 0 0-0.887467 24.814933z m-155.357867 82.432a73.216 73.216 0 0 0-16.674133-6.1952c3.498667-7.68 6.877867-15.2064 10.0864-22.596267 3.925333-9.6256 6.997333-19.5584 9.216-29.696 5.888 2.781867 12.066133 4.864 18.432 6.1952-3.515733 8.874667-10.5472 26.282667-21.060267 52.2752v0.017067z m43.895467-139.127467a81.92 81.92 0 0 0 17.544533-7.970133c6.109867 9.898667 11.400533 20.258133 15.803733 31.010133-7.031467 2.389333-13.175467 4.744533-18.432 7.099734a103.765333 103.765333 0 0 0-14.9504-30.1568h0.034134z m74.581333 139.127467a52.411733 52.411733 0 0 0-14.916267-7.970133 157.576533 157.576533 0 0 0 21.077334-47.854934c5.2224 3.857067 11.2128 6.587733 17.5616 7.970134a355.703467 355.703467 0 0 1-23.722667 47.837866v0.017067z m-135.8848 64.9728l-0.682667-1.262933a42.530133 42.530133 0 0 0-15.2576-14.472534l-3.191466-1.9968 3.6352-0.955733a136.942933 136.942933 0 0 0 41.216-17.9712 88.4224 88.4224 0 0 0 27.153066-27.392c6.485333-10.922667 11.025067-22.8864 13.4144-35.362133 2.628267-14.0288 3.345067-28.330667 2.1504-42.5472l-0.136533-1.8944 1.877333 0.170666c6.997333 0.580267 14.609067 1.1776 22.801067 1.757867l1.962667 0.136533-0.512 1.911467a69.973333 69.973333 0 0 0-2.167467 29.44c2.218667 11.3664 6.2976 22.254933 12.117333 32.256 7.1168 12.8 16.674133 24.064 28.1088 33.194667a126.327467 126.327467 0 0 0 48.554667 22.7328l2.901333 0.750933-2.218666 2.048c-5.632 4.864-10.018133 11.025067-12.7488 17.954133l-0.512 1.450667-1.450667-0.443733a147.968 147.968 0 0 1-49.271467-29.115734 124.074667 124.074667 0 0 1-35.362133-46.08c-3.242667 8.0384-7.202133 15.7696-11.861333 23.0912A99.805867 99.805867 0 0 1 599.04 907.605333c-6.877867 6.0416-14.301867 11.434667-22.186667 16.128-9.233067 5.393067-18.824533 10.171733-28.706133 14.2848l-1.3312 0.5632z m82.295467-84.5824l1.536 3.976533a119.04 119.04 0 0 0 35.9424 48.520534 147.285333 147.285333 0 0 0 46.7456 28.040533c2.56-5.9392 6.263467-11.298133 10.922666-15.786667a127.095467 127.095467 0 0 1-46.967466-22.596266 115.575467 115.575467 0 0 1-28.928-34.167467 105.984 105.984 0 0 1-12.458667-33.314133 72.430933 72.430933 0 0 1 1.723733-28.910934 1236.6848 1236.6848 0 0 1-19.029333-1.467733c1.024 13.8752 0.221867 27.835733-2.372267 41.5232a111.735467 111.735467 0 0 1-13.824 36.420267c-7.168 11.434667-16.776533 21.1456-28.16 28.416a138.069333 138.069333 0 0 1-38.673066 17.442133c5.000533 3.242667 9.2672 7.458133 12.561066 12.407467 9.301333-3.925333 18.346667-8.430933 27.067734-13.533867a149.845333 149.845333 0 0 0 21.7088-15.7696 97.792 97.792 0 0 0 17.681066-20.923733 139.281067 139.281067 0 0 0 13.021867-26.282667l1.501867-3.9936z m54.0672 22.016l-1.4336-1.092267a50.926933 50.926933 0 0 0-14.472534-7.7312l-1.979733-0.682666 1.1264-1.7408a156.740267 156.740267 0 0 0 20.872533-47.377067l0.5632-2.269867 1.911467 1.348267c5.034667 3.7376 10.820267 6.365867 16.9472 7.714133l1.8432 0.3584-0.6656 1.792c-6.724267 16.605867-14.677333 32.699733-23.808 48.128l-0.904533 1.553067z m-12.970667-11.195733c4.266667 1.621333 8.277333 3.7888 11.9808 6.434133a363.861333 363.861333 0 0 0 22.016-44.305067 47.616 47.616 0 0 1-14.404267-6.536533 159.965867 159.965867 0 0 1-19.592533 44.373333v0.034134z m-105.181867 11.042133l-1.536-0.785067a71.5264 71.5264 0 0 0-16.298666-6.075733l-1.9456-0.443733 0.853333-1.809067c3.498667-7.68 6.8608-15.189333 10.069333-22.5792 3.857067-9.5232 6.912-19.370667 9.1136-29.422933l0.477867-1.9968 1.809067 0.938666c5.768533 2.730667 11.8272 4.7616 18.0736 6.058667l1.826133 0.443733-0.682667 1.7408c-3.5328 8.874667-10.5472 26.3168-21.077333 52.309334l-0.682667 1.621333z m-15.223466-9.557333c4.676267 1.28 9.216 2.986667 13.568 5.12 9.5232-23.5008 16.093867-39.799467 19.712-48.930134a85.725867 85.725867 0 0 1-15.138134-5.0176c-2.167467 9.557333-5.12 18.944-8.8576 28.023467-2.9696 6.792533-6.075733 13.7216-9.284266 20.7872v0.034133z m8.0896-52.224h-22.613334l0.119467-1.706667c0.580267-10.1888 0.8704-17.408 0.8704-22.050133 0-4.6592-0.290133-12.424533-0.8704-23.8592l-0.1024-1.706667h86.084267a102.2976 102.2976 0 0 0-14.592-29.320533l-1.297067-1.792 2.0992-0.682667a81.237333 81.237333 0 0 0 17.2032-7.8336l1.314133-0.836267 0.853334 1.314134c6.161067 9.966933 11.502933 20.4288 15.957333 31.266133l0.699733 1.6384-1.655466 0.546133c-5.632 1.911467-10.752 3.84-15.240534 5.717334h95.402667l-0.085333 1.706666c-0.5632 11.9296-0.887467 20.48-0.887467 24.7296 0 3.584 0.324267 10.308267 0.887467 19.387734l0.1024 1.706666h-22.613334v-28.347733H557.909333v30.139733z m-19.2-3.2256h16.008533v-30.122667h148.0192v28.347733h16.008533c-0.512-8.277333-0.768-14.421333-0.768-17.8688 0-4.096 0.273067-12.100267 0.802134-23.210666H538.692267c0.512 10.564267 0.785067 17.8688 0.785066 22.3232 0 4.437333-0.256 11.1616-0.785066 20.514133v0.017067z m71.953066-75.554134c5.717333 8.362667 10.222933 17.493333 13.346134 27.118934 4.4544-1.928533 9.591467-3.8912 15.274666-5.853867a210.9952 210.9952 0 0 0-14.1312-27.8528c-4.608 2.645333-9.454933 4.846933-14.506666 6.570667v0.017066z m233.557334 47.9232c0-2.3552-0.3072-7.3728-0.887467-15.069866h20.189867c-0.597333 6.519467-0.8704 11.52-0.8704 15.069866h22.818133c14.626133 0 26.914133-0.290133 36.864-0.887466v15.957333a642.986667 642.986667 0 0 0-37.751467-0.887467h-21.930666v14.1824h32.4608c5.853867 0 13.755733-0.290133 23.7056-0.887466v15.957333a442.999467 442.999467 0 0 0-24.576-0.887467h-31.5904v13.312h51.797333c10.530133 0 21.060267-0.290133 31.607467-0.887466v15.957333a577.6384 577.6384 0 0 0-31.607467-0.887467h-51.797333v15.957334h59.682133a546.4064 546.4064 0 0 0 0 62.037333H902.997333v-7.9872h-96.546133v10.5984h-19.3024c0.580267-11.229867 0.853333-22.1696 0.8704-32.802133 0-10.615467-0.290133-21.248-0.8704-31.8976h57.053867v-15.957334H791.552c-8.192 0-18.432 0.3072-30.72 0.887467v-15.940267c9.9328 0.597333 20.1728 0.887467 30.72 0.8704h52.667733v-13.312h-28.962133c-8.789333 0-18.432 0.3072-28.9792 0.887467v-15.940267a566.442667 566.442667 0 0 0 28.9792 0.887467h28.962133v-14.1824h-22.818133c-14.6432 0-26.9312 0.290133-36.864 0.887467v-15.940267c11.1104 0.597333 23.108267 0.904533 35.976533 0.887467h23.722667l-0.034133 0.017066z m15.786666-57.6c1.757867 5.922133 3.805867 13.312 6.144 22.152534h81.629867c-0.546133 7.68-0.853333 15.36-0.8704 23.04a127.829333 127.829333 0 0 0 0.8704 15.957333h-19.3024v-23.927467h-147.456v22.152534H761.685333a66.048 66.048 0 0 0 0.887467-13.312c0-7.099733-0.290133-15.069867-0.887467-23.927467h82.517334a162.218667 162.218667 0 0 0-4.4032-19.5072c5.853867-0.580267 12.578133-1.467733 20.189866-2.6624v0.034133z m43.008 182.562134v-24.814934h-96.546133v24.814934h96.546133z m-94.941866 27.306666h-22.613334l0.1024-1.672533a589.499733 589.499733 0 0 0 0-64.512l-0.1024-1.723733h57.156267v-12.731734H791.552c-8.123733 0-18.158933 0.3072-30.651733 0.887467l-1.672534 0.085333v-19.370666l1.706667 0.1024c9.6768 0.580267 19.985067 0.887467 30.6176 0.887466h51.063467v-10.069333H815.274667c-8.618667 0-18.3296 0.290133-28.8768 0.887467l-1.706667 0.085333v-19.370667l1.706667 0.1024c11.400533 0.580267 21.111467 0.887467 28.8768 0.887467h27.357866v-10.9568H821.418667c-14.455467 0-26.8288 0.3072-36.778667 0.887467l-1.706667 0.119466V780.629333l1.706667 0.085334a669.525333 669.525333 0 0 0 35.8912 0.887466h22.0672c-0.2048-4.437333-0.477867-8.874667-0.853333-13.312l-0.119467-1.7408H865.28l-0.1536 1.757867c-0.443733 4.437333-0.733867 8.874667-0.853333 13.312h21.1968c14.8992 0 26.9312-0.290133 36.7616-0.887467l1.706666-0.1024v19.4048l-1.706666-0.119466a639.0272 639.0272 0 0 0-37.632-0.887467h-20.360534v10.939733h30.890667c5.956267 0 13.892267-0.3072 23.6032-0.887466l1.6896-0.119467v19.4048l-1.706667-0.1024a438.050133 438.050133 0 0 0-24.4736-0.887467H864.256v10.069334h50.176c10.6496 0 21.248-0.3072 31.522133-0.887467l1.6896-0.1024v19.370667l-1.706666-0.085334a567.842133 567.842133 0 0 0-31.505067-0.904533h-50.176v12.731733h59.767467l-0.1024 1.706667a562.926933 562.926933 0 0 0-0.8704 30.9248c0 10.154667 0.3072 20.565333 0.8704 30.9248l0.1024 1.706667h-22.613334v-7.970134h-93.354666v10.632534z m-19.217067-3.208533h16.0256v-10.632533h99.7376v7.970133h16.0256a547.925333 547.925333 0 0 1 0-58.811733H861.013333V851.626667h53.4016c9.864533 0 19.933867 0.273067 30.0032 0.785066v-12.526933a577.877333 577.877333 0 0 1-30.0032 0.785067h-53.4016v-16.520534h33.194667c6.058667 0 13.602133 0.256 22.971733 0.802134v-12.526934c-8.994133 0.512-16.418133 0.785067-22.084266 0.785067H861.013333v-17.408h23.552c14.728533 0 26.88 0.238933 36.1472 0.768v-12.509867c-9.591467 0.529067-21.162667 0.785067-35.2768 0.785067h-24.4224v-1.621333c0-3.345067 0.238933-7.850667 0.7168-13.448534h-16.708266c0.512 6.894933 0.750933 11.264 0.750933 13.448534v1.621333h-25.2928c-12.373333 0-23.9104-0.273067-34.389333-0.785067v12.526934a685.738667 685.738667 0 0 1 35.259733-0.785067h24.4224v17.408h-30.549333c-7.441067 0-16.64-0.273067-27.374934-0.802133v12.544c9.966933-0.512 19.1488-0.802133 27.357867-0.802134h30.5664v16.520534H791.552c-10.069333 0-19.8656-0.256-29.115733-0.768v12.526933a631.466667 631.466667 0 0 1 29.115733-0.802133h54.272v19.182933h-56.9856a603.767467 603.767467 0 0 1 0 61.44v0.034133z m115.7632-22.4768H804.864v-28.040533h99.7376v28.040533z m-96.546133-3.242667h93.354666v-21.572266h-93.354666v21.589333z m141.533866-118.1696h-22.7328v-23.927466h-144.264533v22.152533H759.637333l0.512-2.013867c0.682667-4.266667 0.9728-8.584533 0.8192-12.9024 0-6.946133-0.290133-14.9504-0.8704-23.825066l-0.1024-1.706667h82.295467a155.409067 155.409067 0 0 0-4.010667-17.408l-0.5632-1.8944 1.9456-0.187733c6.7072-0.682667 13.4144-1.5872 20.087467-2.645334l1.399467-0.221866 0.392533 1.365333c1.621333 5.495467 3.5328 12.356267 5.8368 20.992h82.107733l-0.119466 1.723733c-0.546133 7.6288-0.836267 15.274667-0.8704 22.9376-0.034133 5.256533 0.256 10.513067 0.8704 15.752534l0.221866 1.792z m-19.541333-3.242666h15.906133a137.728 137.728 0 0 1-0.6656-14.336c0-6.212267 0.256-13.4144 0.768-21.418667h-81.152l-0.3072-1.194667a816.605867 816.605867 0 0 0-5.751466-20.753066c-5.632 0.853333-11.281067 1.621333-16.9472 2.235733 1.604267 5.870933 2.901333 11.810133 3.874133 17.8176l0.324267 1.877333H763.392c0.512 8.277333 0.768 15.7696 0.768 22.3232 0.068267 3.908267-0.1024 7.799467-0.546133 11.6736h15.786666v-22.152533h150.647467v23.927467zM872.6016 646.741333c-91.648-0.785067-176.2816-40.448-215.586133-61.610666a204.578133 204.578133 0 0 0-92.398934-23.0912c-26.9312 0-91.170133 11.1104-138.581333 30.805333-42.2912 17.5616-122.4192 46.199467-200.192 46.199467s-200.192-77.0048-200.192-77.0048v-53.896534s127.044267 92.398933 200.192 92.398934c73.147733 0 244.053333-76.987733 338.773333-76.987734 94.685867 0 176.315733 84.701867 323.3792 84.701867 46.967467 0 88.541867-16.162133 107.793067-23.0912v30.7712s-46.933333 31.4368-123.1872 30.805333z m0-84.701866c-91.648-0.768-176.2816-40.448-215.586133-61.5936a204.578133 204.578133 0 0 0-92.398934-23.0912c-26.9312 0-91.170133 11.093333-138.581333 30.788266-42.2912 17.578667-122.4192 46.199467-200.192 46.199467S25.6512 477.354667 25.6512 477.354667v-53.896534s127.044267 92.398933 200.192 92.398934c73.147733 0 244.053333-77.0048 338.773333-77.0048 94.685867 0 176.298667 84.701867 323.362134 84.701866 46.967467 0 88.541867-16.1792 107.793066-23.108266v30.805333s-46.933333 31.4368-123.170133 30.788267z m0-76.970667c-91.648-0.785067-176.2816-40.448-215.586133-61.610667a204.578133 204.578133 0 0 0-92.398934-23.074133c-26.9312 0-91.170133 11.1104-138.581333 30.805333-42.2912 17.5616-122.4192 46.1824-200.192 46.1824S25.668267 400.384 25.668267 400.384V346.453333s127.044267 92.398933 200.192 92.398934c73.1648 0 244.0704-76.987733 338.773333-76.987734 94.702933 0 176.298667 84.6848 323.362133 84.6848 46.967467 0 88.541867-16.162133 107.793067-23.0912v30.788267s-46.933333 31.453867-123.1872 30.805333z m0-92.398933c-91.648-0.768-176.2816-40.448-215.586133-61.610667a204.578133 204.578133 0 0 0-92.398934-23.0912c-26.9312 0-91.170133 11.1104-138.581333 30.805333-42.2912 17.578667-122.4192 46.199467-200.192 46.199467S25.668267 307.968 25.668267 307.968v-53.896533s127.044267 92.398933 200.192 92.398933c73.1648 0 244.0704-77.0048 338.773333-77.0048 94.702933 0 176.298667 84.701867 323.362133 84.701867 46.967467 0 88.541867-16.1792 107.793067-23.108267v30.805333s-46.933333 31.4368-123.1872 30.805334z m0-84.701867c-91.648-0.768-176.2816-40.448-215.586133-61.5936a204.578133 204.578133 0 0 0-92.398934-23.0912c-26.9312 0-91.170133 11.1104-138.581333 30.788267-42.2912 17.578667-122.4192 46.199467-200.192 46.199466s-200.192-76.987733-200.192-76.987733V169.386667s127.044267 92.381867 200.192 92.381866c73.147733 0 244.087467-76.987733 338.773333-76.987733 94.72 0 176.315733 84.6848 323.3792 84.6848 46.967467 0 88.541867-16.162133 107.793067-23.0912v30.805333s-46.933333 31.4368-123.1872 30.788267z" fill="#FF0000" /></svg>