<?xml version="1.0" standalone="no"?><!DOCTYPE svg PUBLIC "-//W3C//DTD SVG 1.1//EN" "http://www.w3.org/Graphics/SVG/1.1/DTD/svg11.dtd"><svg class="icon" width="1000px" height="1000.00px" viewBox="0 0 1024 1024" version="1.1" xmlns="http://www.w3.org/2000/svg"><path d="M864 1024H160A160 160 0 0 1 0 864V160A160 160 0 0 1 160 0h704A160 160 0 0 1 1024 160v704A160 160 0 0 1 864 1024z m128-832a160 160 0 0 0-160-160h-640a160 160 0 0 0-160 160v640a160 160 0 0 0 160 160h640a160 160 0 0 0 160-160v-640z" fill="#FF0000" /><path d="M96.768 786.0224h19.2512V756.906667c0-8.8064-0.290133-17.92-0.8704-27.306667h18.363733c-1.1776 9.045333-1.757867 18.176-1.7408 27.306667v29.115733c8.157867 0 15.735467-0.3072 22.749867-0.887467v15.872c-6.417067-0.580267-13.994667-0.8704-22.749867-0.887466v39.68c7.5776-2.935467 14.865067-5.870933 21.879467-8.823467 0.580267 4.7104 1.450667 9.728 2.628267 15.0016-6.434133 2.3552-14.592 5.5808-24.507734 9.693867v49.373866c0 9.386667 0.290133 19.694933 0.8704 30.856534H115.114667c0.580267-10.581333 0.887467-20.872533 0.887466-30.856534V861.866667a248.832 248.832 0 0 0-33.262933 14.984533 115.2 115.2 0 0 0-9.6256-18.517333c7.5776-0.580267 21.879467-5.000533 42.888533-13.226667v-44.970667H93.252267c-2.3552 10.001067-4.4032 18.824533-6.144 26.453334a126.702933 126.702933 0 0 0-15.752534-5.290667c3.447467-10.24 6.229333-20.701867 8.311467-31.300267 2.321067-10.615467 3.925333-21.3504 4.8128-32.187733 6.997333 1.774933 13.397333 3.242667 19.2512 4.420267-3.584 7.509333-5.9392 15.530667-6.9632 23.808z m108.509867 15.872v-31.744h-13.141334c-9.352533 0-17.5104 0.290133-24.507733 0.8704v-15.872c6.4 0.597333 14.574933 0.887467 24.507733 0.887467h13.124267a148.360533 148.360533 0 0 0-1.757867-26.453334h18.3808c-0.580267 5.888-0.887467 14.6944-0.8704 26.453334h20.138667c8.7552 0 17.2032-0.290133 25.378133-0.887467v15.872a275.9168 275.9168 0 0 0-25.378133-0.8704h-20.138667v31.744h33.245867c8.7552 0 16.930133-0.290133 24.507733-0.887467v15.872c-6.997333-0.580267-14.574933-0.887467-22.766933-0.887466h-7.850667v26.453333c12.817067 0 22.442667-0.290133 28.8768-0.887467v16.759467c-6.997333-0.580267-16.64-0.887467-28.8768-0.887467v58.197334a17.032533 17.032533 0 0 1-7.8848 14.5408 85.213867 85.213867 0 0 1-27.136 6.621866 64.443733 64.443733 0 0 0-6.997333-20.2752c6.980267 0.6144 13.994667 0.6144 20.992 0 3.498667-0.597333 5.256533-3.5328 5.256533-8.823466V857.429333h-42.871466c-9.915733 0-18.670933 0.290133-26.248534 0.887467v-16.759467c6.4 0.597333 15.1552 0.904533 26.248534 0.887467h42.888533v-26.453333h-43.758933c-10.513067 0-19.848533 0.290133-28.0064 0.887466v-15.872c8.157867 0.597333 17.2032 0.887467 27.136 0.8704H205.277867z m-2.6112 99.6352c-5.7856 1.365333-11.3664 3.413333-16.64 6.144a175.616 175.616 0 0 0-13.124267-30.856533c5.666133-1.706667 11.229867-3.754667 16.622933-6.178134 4.642133 10.581333 9.0112 20.8896 13.1072 30.890667h0.034134z m9.1648 37.051733l-0.256-1.536a63.0272 63.0272 0 0 0-6.826667-19.780266l-1.365333-2.56 2.8672 0.170666c6.8608 0.580267 13.7728 0.580267 20.650666 0 1.672533-0.290133 3.925333-1.365333 3.925334-7.236266v-48.64h-41.3184c-9.762133 0-18.568533 0.3072-26.112 0.887466l-1.706667 0.136534v-20.258134l1.706667 0.170667c6.314667 0.5632 14.848 0.853333 26.112 0.853333h41.301333v-23.227733h-42.171733c-10.376533 0-19.746133 0.3072-27.904 0.887467l-1.706667 0.119466V799.232l1.706667 0.136533c7.936 0.580267 17.032533 0.8704 27.016533 0.8704h15.906133v-28.535466h-11.52c-9.198933 0-17.373867 0.3072-24.3712 0.887466l-1.723733 0.1536v-19.387733l1.723733 0.170667c6.314667 0.5632 14.2848 0.853333 24.3712 0.853333h11.52a141.824 141.824 0 0 0-1.706666-24.507733l-0.392534-1.928534h22.101334l-0.170667 1.757867c-0.5632 5.5296-0.853333 13.602133-0.853333 24.695467h18.517333c8.8064 0 17.322667-0.3072 25.258667-0.887467l1.706666-0.119467v19.370667l-1.7408-0.170667a272.213333 272.213333 0 0 0-25.224533-0.8704h-18.5344v28.5184h31.658667c8.789333 0 16.981333-0.290133 24.388266-0.887466l1.706667-0.136534v19.370667l-1.706667-0.136533a276.036267 276.036267 0 0 0-22.6304-0.887467h-6.314666v23.2448a324.266667 324.266667 0 0 0 27.136-0.887467l1.7408-0.1536v20.258134l-1.706667-0.136534c-6.690133-0.546133-15.8208-0.853333-27.170133-0.853333v56.558933c0.0512 6.468267-3.242667 12.4928-8.704 15.957334a85.435733 85.435733 0 0 1-27.6992 6.8096l-1.4848 0.221866z m-2.9696-20.309333c2.6112 5.290667 4.488533 10.922667 5.597866 16.725333a80.605867 80.605867 0 0 0 25.053867-6.212266 15.428267 15.428267 0 0 0 7.0656-13.312v-59.648h1.5872c11.195733 0 20.3776 0.256 27.2896 0.750933v-13.2608c-6.365867 0.512-15.325867 0.733867-27.2896 0.733867h-1.621333v-29.661867H256c7.458133 0 14.574933 0.256 21.162667 0.733867v-12.3904c-7.0144 0.512-14.711467 0.768-22.920534 0.768h-34.816v-34.986667h21.725867c9.966933 0 17.954133 0.238933 23.790933 0.733867v-12.356267c-7.5264 0.512-15.530667 0.750933-23.790933 0.750933h-21.742933V756.053333c0-10.8544 0.238933-19.012267 0.733866-24.849066h-14.728533c1.092267 8.2432 1.5872 16.554667 1.4336 24.849066v1.604267h-14.711467c-9.284267 0-16.7936-0.238933-22.903466-0.733867v12.373334c7.611733-0.512 15.2576-0.768 22.903466-0.750934h14.711467v34.9696h-19.0976c-9.335467 0-17.92-0.256-25.531733-0.768v12.407467c7.8336-0.512 16.6912-0.750933 26.402133-0.750933h45.3632v29.661866h-44.475733c-10.359467 0-18.432-0.238933-24.661334-0.7168v13.2608c7.253333-0.512 15.530667-0.768 24.661334-0.768h44.475733v51.8656c0 7.68-3.584 9.898667-6.587733 10.410667-6.161067 0.6144-12.373333 0.682667-18.551467 0.170667zM134.314667 937.506133H113.425067l0.1024-1.706666c0.580267-10.581333 0.8704-20.9408 0.8704-30.7712v-40.8576c-10.5984 3.9424-20.906667 8.635733-30.839467 14.0288l-1.621333 0.955733-0.682667-1.7408a114.909867 114.909867 0 0 0-9.489067-18.244267l-1.4336-2.269866 2.6624-0.2048c7.2704-0.5632 21.1968-4.829867 41.403734-12.714667v-42.257067H94.5152c-2.218667 9.489067-4.164267 17.885867-5.8368 25.207467l-0.4096 1.826133-1.7408-0.699733a125.1328 125.1328 0 0 0-15.547733-5.2224l-1.706667-0.426667 0.597333-1.672533c3.413333-10.171733 6.178133-20.565333 8.2432-31.095467 2.304-10.530133 3.908267-21.213867 4.778667-31.965866l0.119467-1.911467 1.877333 0.477867c7.2704 1.809067 13.533867 3.242667 19.165867 4.386133l2.3552 0.443733-1.348267 2.030934c-3.242667 6.7072-5.393067 13.909333-6.382933 21.2992h15.7184V756.906667c0-8.635733-0.290133-17.800533-0.8704-27.2384l-0.1024-1.706667h21.896533l-0.238933 1.826133a208.861867 208.861867 0 0 0-1.7408 27.136v27.4432c7.0144 0 14.0288-0.3072 21.026133-0.8704l1.723733-0.136533v19.370667l-1.723733-0.1536a243.985067 243.985067 0 0 0-21.026133-0.853334v35.703467c6.7072-2.6112 13.312-5.290667 19.677866-7.953067l1.928534-0.8192 0.273066 2.0992c0.5632 4.608 1.4336 9.608533 2.594134 14.848l0.3072 1.365334-1.3312 0.494933c-7.850667 2.935467-15.701333 6.024533-23.4496 9.2672v48.298667c0 9.506133 0.3072 19.8656 0.8704 30.7712l0.119466 1.706666z m-17.5104-3.2256h14.1312a596.411733 596.411733 0 0 1-0.785067-29.252266v-50.449067l0.989867-0.4096c7.68-3.2256 15.445333-6.2976 23.2448-9.216-0.853333-4.061867-1.536-7.970133-2.065067-11.6736-6.621867 2.7648-13.277867 5.4272-19.968 8.021333l-2.184533 0.853334v-43.656534h1.604266c7.918933 0 15.018667 0.238933 21.162667 0.750934v-12.3904c-6.468267 0.512-13.550933 0.750933-21.162667 0.750933h-1.6384v-30.72c0-8.6016 0.512-17.186133 1.536-25.736533h-14.848c0.512 8.9088 0.768 17.544533 0.768 25.736533v30.72H94.8224l0.3584-1.911467c1.160533-7.68 3.208533-15.172267 6.109867-22.357333-4.608-0.955733-9.6768-2.133333-15.325867-3.515733-0.938667 10.24-2.5088 20.411733-4.7104 30.464-1.9968 10.103467-4.608 20.0704-7.799467 29.866666 4.266667 1.194667 8.430933 2.594133 12.544 4.215467 1.655467-7.2192 3.549867-15.428267 5.700267-24.644267l0.290133-1.2288h25.6v47.684267l-1.024 0.392533c-13.141333 5.649067-26.794667 10.018133-40.772266 13.038934 2.935467 4.778667 5.512533 9.745067 7.7312 14.8992a275.029333 275.029333 0 0 1 31.8976-14.199467l2.167466-0.836267v45.568c0 9.335467-0.256 19.165867-0.785066 29.2352h0.017066z m68.266666-24.337066l-0.580266-1.757867a174.933333 174.933333 0 0 0-13.0048-30.549333l-1.024-1.774934 1.928533-0.597333c5.614933-1.672533 11.093333-3.703467 16.4352-6.0928l1.467733-0.648533 0.648534 1.467733c4.5056 10.24 8.874667 20.548267 13.141333 30.890667l0.733867 1.774933-1.877334 0.426667c-5.632 1.365333-11.093333 3.3792-16.247466 6.0416l-1.621334 0.8192z m-9.8304-32.1536c4.6592 8.874667 8.584533 18.107733 11.707734 27.648 4.317867-2.116267 8.840533-3.805867 13.482666-5.051734-3.720533-9.045333-7.68-18.3296-11.776-27.613866a145.134933 145.134933 0 0 1-13.431466 5.000533h0.017066z m124.535467-79.445334c8.7552 0.597333 18.961067 0.904533 30.634667 0.887467h6.980266v-38.8096c-5.8368 1.774933-15.7696 4.130133-29.7472 7.0656-2.338133-5.290667-4.9664-10.581333-7.8848-15.872a171.690667 171.690667 0 0 0 37.205334-5.7344 155.767467 155.767467 0 0 0 32.802133-12.8c3.515733 4.7104 7.8848 10.2912 13.141333 16.759467a87.808 87.808 0 0 0-14.882133 2.628266c-4.096 1.194667-8.7552 2.372267-13.994667 3.5328v43.2128c7.560533 0 16.896-0.273067 27.989334-0.887466v15.872a552.482133 552.482133 0 0 0-27.989334-0.8704v91.6992c0 8.209067 0.290133 18.500267 0.853334 30.856533h-18.3808c0.580267-12.356267 0.8704-22.6304 0.887466-30.856533v-58.197334a281.7536 281.7536 0 0 1-12.6976 28.2112c-3.7888 7.0656-8.891733 15.581867-15.3088 25.565867-4.676267-6.4512-9.045333-12.322133-13.141333-17.629867a167.5776 167.5776 0 0 0 22.3232-30.856533c6.826667-12.0832 11.707733-25.1904 14.4384-38.792533h-13.124267c-6.724267-0.068267-13.431467 0.221867-20.138666 0.8704v-15.872l0.034133 0.017066z m77.892267 39.68c3.703467 5.5808 6.929067 11.485867 9.6256 17.629867a76.458667 76.458667 0 0 0-14.882134 8.823467c-2.9184-6.4512-5.410133-11.895467-7.441066-16.315734a78.677333 78.677333 0 0 0-8.311467-13.653333c3.498667-2.3552 8.174933-5.290667 13.994667-8.823467 1.877333 4.352 4.215467 8.482133 6.997333 12.3392z m56.866133-111.104h18.3808c-0.597333 6.468267-0.887467 21.4528-0.8704 44.970667h45.499733c-0.597333 6.485333-0.887467 15.291733-0.8704 26.453333v59.9552c0 6.485333 0.290133 13.824 0.8704 22.033067h-17.5104V862.72h-28.0064v37.034667c0 15.274667 0.290133 27.904 0.8704 37.905066h-18.3808c0.580267-10.001067 0.8704-22.6304 0.887467-37.905066v-37.034667h-28.0064v21.162667h-17.5104c0.580267-7.048533 0.8704-15.0016 0.887467-23.808v-59.9552c0-12.356267-0.3072-21.76-0.887467-28.2112h45.5168c0-22.920533-0.3072-37.905067-0.887467-44.970667h0.034134z m0.887467 121.685334v-62.600534h-28.0064v62.600534h27.989333z m44.629333 0v-62.600534h-28.023467v62.600534h28.023467z m-25.429333 90.641066h-21.8112l0.119466-1.706666c0.580267-10.001067 0.8704-22.715733 0.8704-37.802667v-35.4304h-24.814933v21.162667h-20.821333l0.136533-1.7408c0.580267-7.031467 0.853333-15.0016 0.853333-23.671467v-3.498667l-1.2288 0.5632a74.24 74.24 0 0 0-14.574933 8.618667l-1.5872 1.194667-0.836267-1.792c-2.4576-5.461333-4.949333-10.888533-7.441066-16.315734a76.663467 76.663467 0 0 0-7.8848-13.038933v69.2224c0 8.379733 0.3072 18.7392 0.8704 30.788267l0.085333 1.6896H334.848l0.085333-1.6896a693.930667 693.930667 0 0 0 0.8704-30.7712V855.04c-3.4816 8.311467-6.724267 15.291733-9.6768 20.821333-3.822933 7.0656-8.994133 15.701333-15.36 25.668267l-1.28 1.979733-1.365333-1.911466c-4.829867-6.656-9.1136-12.424533-13.1072-17.578667l-0.8192-1.092267 0.9216-1.024a166.144 166.144 0 0 0 22.084267-30.549333 129.604267 129.604267 0 0 0 13.824-36.4032h-11.127467a186.368 186.368 0 0 0-19.968 0.887467l-1.774933 0.187733v-19.4048l1.706666 0.136533c8.6528 0.580267 18.6368 0.8704 30.532267 0.8704h5.393067v-35.037866c-6.144 1.723733-15.4624 3.8912-27.818667 6.485333l-1.28 0.273067-0.512-1.194667c-2.372267-5.358933-4.983467-10.5984-7.799467-15.735467l-1.262933-2.286933 2.56-0.1024c12.458667-0.546133 24.832-2.4576 36.864-5.6832a155.426133 155.426133 0 0 0 32.494933-12.6464l1.194667-0.648533 0.853333 1.109333c3.498667 4.727467 7.901867 10.3424 13.073067 16.6912l1.877333 2.321067-2.9696 0.3072a84.4288 84.4288 0 0 0-14.592 2.594133c-3.874133 1.109333-8.192 2.2016-12.8512 3.242667v40.311466c7.406933-0.034133 16.247467-0.341333 26.333867-0.853333l1.672533-0.1024v19.268267l-1.672533-0.1024a553.813333 553.813333 0 0 0-26.333867-0.853334v18.2784l0.1536-0.085333c4.608-3.072 9.301333-6.024533 14.062934-8.874667l1.570133-0.938666 0.7168 1.706666c1.8432 4.232533 4.130133 8.277333 6.826667 12.032 3.7888 5.666133 7.0656 11.6736 9.7792 17.92l0.4608 0.9728v-55.876266c0-12.168533-0.290133-21.6064-0.8704-28.074667l-0.170667-1.7408h45.6704c0-21.828267-0.3072-36.352-0.8704-43.229867l-0.136533-1.7408h21.845333l-0.170667 1.757867c-0.5632 6.229333-0.853333 20.360533-0.853333 43.2128h45.653333l-0.170666 1.7408c-0.5632 6.382933-0.853333 14.967467-0.853334 26.3168v59.9552c0 6.5536 0.290133 13.9264 0.853334 21.930667l0.136533 1.706666h-20.804267v-17.629866H453.632v35.4304c0 15.581867 0.290133 27.938133 0.8704 37.819733l0.136533 1.706667z m-18.397867-3.208533h15.018667a699.665067 699.665067 0 0 1-0.785067-36.3008v-38.638933h31.163733v17.629866h14.199467a299.008 299.008 0 0 1-0.750933-20.4288v-59.9552c0-10.410667 0.238933-18.5856 0.7168-24.849066h-45.3632v-1.604267c0-21.930667 0.238933-36.164267 0.750933-43.349333h-14.933333c0.512 7.697067 0.750933 22.272 0.750933 43.349333v1.604267h-45.3632c0.512 6.4512 0.733867 15.394133 0.733867 26.624v59.9552c0.017067 7.406933-0.221867 14.813867-0.733867 22.186666h14.165333v-21.1456h31.197867v38.638934c0 14.301867-0.273067 26.487467-0.785067 36.3008h0.034134z m-98.013867-1.757867h15.018667a674.133333 674.133333 0 0 1-0.785067-29.252266v-93.303467h1.5872c7.168 0 15.872 0.256 26.402134 0.785067v-12.458667c-10.154667 0.512-19.0464 0.785067-26.402134 0.785067h-1.621333v-46.08l1.262933-0.290134c5.0688-1.109333 9.728-2.304 13.909334-3.498666 4.010667-1.092267 8.0896-1.877333 12.219733-2.389334-3.584-4.4032-7.082667-8.874667-10.513067-13.397333a159.863467 159.863467 0 0 1-31.931733 12.288c-11.434667 3.072-23.159467 4.949333-34.986667 5.632 2.235733 4.164267 4.3008 8.362667 6.1952 12.544a383.2832 383.2832 0 0 0 28.3648-6.7584l2.048-0.631467v42.581334h-8.584533c-11.195733 0-20.718933-0.256-29.047467-0.768v12.373333c5.051733-0.477867 11.264-0.7168 18.5344-0.7168h15.104l-0.4096 1.9456a133.5808 133.5808 0 0 1-14.609066 39.253333 171.2128 171.2128 0 0 1-21.6064 30.1568c3.362133 4.420267 6.980267 9.250133 10.9568 14.6944 5.768533-9.0624 10.461867-16.964267 13.994666-23.483733 4.693333-9.1136 8.9088-18.4832 12.5952-28.040533l3.072-7.765334v66.56a681.898667 681.898667 0 0 1-0.785066 29.2352z m20.736-99.3792c2.8672 3.9424 5.376 8.157867 7.4752 12.578134l6.638934 14.506666c3.805867-2.730667 7.850667-5.12 12.100266-7.133866a110.370133 110.370133 0 0 0-8.789333-15.906134 67.037867 67.037867 0 0 1-6.434133-10.9568c-3.703467 2.235733-7.389867 4.539733-11.008 6.912z m122.709334 15.291734h-31.232v-65.792h31.197866v65.809066h0.017067z m-28.023467-3.208534h24.832v-59.392H453.632v59.392h0.034133z m-16.622933 3.208534h-31.214934v-65.792h31.197867v65.809066h0.017067z m-27.989334-3.208534h24.814934v-59.392h-24.849067v59.392h0.017067z m160.290134-47.7696c-0.597333 10.581333-0.887467 22.340267-0.853334 35.2768v53.76c7.031467-6.468267 13.482667-13.550933 19.234134-21.162666 2.048 6.536533 5.000533 12.765867 8.7552 18.517333-7.594667 7.048533-14.592 13.824-20.992 20.2752a152.302933 152.302933 0 0 0-17.5104 21.162667 56.183467 56.183467 0 0 0-13.141334-15.0016c4.983467-5.5296 7.509333-12.8512 7.0144-20.2752V814.250667c-12.253867 0-22.459733 0.290133-30.634666 0.8704v-16.7424c7.594667 0.597333 15.4624 0.8704 23.637333 0.8704h24.507733z m12.253866-32.6144a80.093867 80.093867 0 0 0-13.994666 11.451734 274.141867 274.141867 0 0 0-31.505067-36.1472c4.352-3.208533 8.192-7.0656 11.3664-11.4688 12.475733 10.9568 23.893333 23.074133 34.116267 36.164266h0.017066z m9.6256 57.309867a495.786667 495.786667 0 0 0 31.505067 0.8704H701.44c-4.0448 11.912533-8.874667 23.552-14.4384 34.816a177.664 177.664 0 0 1-24.9344 37.4784 120.1664 120.1664 0 0 0 64.750933 19.4048 52.497067 52.497067 0 0 0-10.496 18.517333 196.181333 196.181333 0 0 1-67.396266-27.3408c-7.594667 4.7104-16.64 9.847467-27.136 15.428267a176.981333 176.981333 0 0 1-34.133334 13.6704 35.2768 35.2768 0 0 0-13.1072-13.226667 150.084267 150.084267 0 0 0 36.317867-11.4688 104.823467 104.823467 0 0 0 25.8048-15.872 150.869333 150.869333 0 0 1-31.505067-57.309866h-13.994666v-14.984534h0.034133z m89.2416-8.823467c-9.9328 0-15.189333-4.113067-15.752533-12.3392v-49.373866H626.176a106.752 106.752 0 0 1-5.6832 38.792533 77.346133 77.346133 0 0 1-24.064 29.098667c-3.413333-4.949333-8.311467-8.669867-13.994667-10.581334 14.574933-9.984 22.869333-21.4528 24.917334-34.389333 2.013867-12.2368 2.730667-24.644267 2.2016-37.034667h73.506133c-0.597333 7.048533-0.887467 15.872-0.8704 26.453334v23.808c-0.682667 3.584 1.365333 7.168 4.8128 8.362666 4.437333 0.989867 9.028267 1.297067 13.568 0.887467 5.819733-0.273067 12.526933-0.7168 20.1216-1.314133-1.1776 5.802667-1.1776 11.810133 0 17.629866H680.448z m-3.498666 23.808h-54.272a84.1216 84.1216 0 0 0 27.136 45.858134 117.998933 117.998933 0 0 0 27.136-45.858134z m-90.112 99.7888l-0.6144-1.194666a33.928533 33.928533 0 0 0-12.544-12.5952l-3.447467-2.218667 4.027733-0.7168a148.9408 148.9408 0 0 0 35.925334-11.349333 109.175467 109.175467 0 0 0 24.1664-14.506667 154.436267 154.436267 0 0 1-30.344534-55.6032h-14.4384v-18.312533l1.706667 0.119466 4.010667 0.238934-0.273067-0.477867a26.4704 26.4704 0 0 0-13.2096-9.898667l-2.730667-1.143466 2.423467-1.6896c14.165333-9.659733 22.306133-20.872533 24.2688-33.28 1.962667-12.117333 2.696533-24.405333 2.184533-36.693334l-0.1024-1.6896h76.936534l-0.136534 1.757867c-0.580267 6.929067-0.887467 15.547733-0.887466 26.299733v23.808c0 5.239467 2.082133 6.4 3.652266 6.826667 4.283733 0.9216 8.704 1.194667 13.056 0.836267 5.768533-0.290133 12.544-0.733867 20.087467-1.3312l2.0992-0.170667-0.4096 2.0992a43.195733 43.195733 0 0 0 0 16.9984l0.392533 1.911467H680.448c-13.533867 0-16.896-7.509333-17.339733-13.824V755.029333h-35.328a106.5472 106.5472 0 0 1-5.802667 37.7856c-5.632 11.793067-14.062933 22.016-24.576 29.764267l-0.136533 0.1024c7.6288 0.375467 16.162133 0.546133 25.3952 0.546133h80.981333l-0.699733 2.116267a290.816 290.816 0 0 1-14.523734 35.037867c-6.485333 13.056-14.5408 25.275733-23.978666 36.4032a119.483733 119.483733 0 0 0 62.378666 18.141866l3.464534 0.085334-2.304 2.594133a51.2 51.2 0 0 0-10.171734 17.92l-0.4608 1.365333-1.365333-0.290133a199.1168 199.1168 0 0 1-67.072-26.999467c-8.6528 5.239467-17.442133 10.24-26.385067 14.9504a179.2 179.2 0 0 1-34.440533 13.789867l-1.245867 0.3584z m-8.2432-14.301866c3.976533 2.781867 7.338667 6.3488 9.864533 10.478933 11.264-3.293867 22.186667-7.714133 32.597333-13.192533a489.984 489.984 0 0 0 27.016534-15.36l0.853333-0.512 0.853333 0.546133a194.901333 194.901333 0 0 0 65.467734 26.811733c1.928533-5.461333 4.7104-10.564267 8.2432-15.138133a121.344 121.344 0 0 1-62.327467-19.541333l-1.536-1.024 1.194667-1.399467c9.7792-11.281067 18.090667-23.7568 24.7296-37.12 5.188267-10.564267 9.745067-21.418667 13.636266-32.529067h-76.4928c-11.093333 0-21.1456-0.238933-29.917866-0.768v11.6736h13.568l0.3584 1.109334a149.930667 149.930667 0 0 0 31.146666 56.6784l1.143467 1.2288-1.2288 1.092266c-7.918933 6.621867-16.7424 12.049067-26.2144 16.145067a151.995733 151.995733 0 0 1-32.938667 10.837333z m7.031466-114.005334c4.352 1.877333 8.174933 4.8128 11.144534 8.516267a74.069333 74.069333 0 0 0 22.2208-27.3408c4.1984-12.288 6.0928-25.224533 5.5808-38.178133v-1.604267h41.693866v50.978133c0.512 7.287467 5.0176 10.752 14.165334 10.752h38.331733a46.626133 46.626133 0 0 1-0.017067-14.267733c-6.7584 0.512-12.8512 0.904533-18.107733 1.160533a47.172267 47.172267 0 0 1-14.08-0.9216 8.823467 8.823467 0 0 1-5.973333-9.9328v-23.808c0-9.966933 0.238933-18.1248 0.733866-24.849066h-70.075733c0.392533 11.946667-0.375467 23.893333-2.286933 35.669333-1.9968 12.629333-9.8304 23.995733-23.296 33.826133h-0.034134z m-27.767466 119.6032l-1.297067-2.048a54.698667 54.698667 0 0 0-12.7488-14.557866l-1.467733-1.1264 1.314133-1.297067c4.642133-5.256533 6.997333-12.151467 6.519467-19.1488v-75.963733c-11.400533 0-21.111467 0.3072-28.910934 0.853333l-1.706666 0.136533v-20.241066l1.706666 0.1536c7.389867 0.580267 15.291733 0.8704 23.517867 0.8704h26.180267l-0.085334 1.706666a637.44 637.44 0 0 0-0.8704 35.1744v50.056534c5.9392-5.6832 11.4176-11.844267 16.384-18.397867l1.8944-2.56 0.9216 3.072c2.013867 6.4 4.881067 12.4928 8.5504 18.107733l0.733867 1.1264-0.989867 0.9216c-7.1168 6.6048-14.097067 13.346133-20.957866 20.224a152.866133 152.866133 0 0 0-17.322667 20.9408l-1.365333 1.9968z m-10.752-18.090666a58.026667 58.026667 0 0 1 10.837333 12.288c4.881067-6.912 10.359467-13.4144 16.3328-19.421867 6.229333-6.314667 12.970667-12.8 20.053333-19.421867a79.4624 79.4624 0 0 1-7.2704-14.848 163.2768 163.2768 0 0 1-17.578666 18.944l-2.679467 2.5088v-57.4464c0-12.373333 0.256-23.688533 0.785067-33.655466H544.768c-7.68 0-15.069867-0.256-22.016-0.768v13.294933c7.936-0.512 17.681067-0.750933 29.0304-0.750933h1.5872v79.189333c0.4096 7.2192-1.809067 14.353067-6.212267 20.087467h-0.0512z m102.741333-24.9344l-1.1264-0.989867a86.186667 86.186667 0 0 1-27.648-46.711467l-0.426667-1.962666h58.504534l-0.733867 2.116266a119.893333 119.893333 0 0 1-27.511467 46.472534l-1.058133 1.0752z m-25.173333-46.455467c3.925333 16.213333 12.629333 30.856533 25.0368 42.018133a116.360533 116.360533 0 0 0 24.917333-42.018133h-49.954133z m-57.344-59.989333l-1.0752-1.4848a277.077333 277.077333 0 0 0-31.317334-35.959467l-1.467733-1.365333 1.655467-1.1264c4.215467-3.1232 7.936-6.877867 11.008-11.1104l1.024-1.297067 1.262933 1.024c12.578133 11.008 24.064 23.176533 34.3552 36.352l1.160533 1.416533-1.536 0.9728c-4.983467 3.208533-9.591467 6.980267-13.7216 11.229867l-1.348266 1.365333z m-28.808534-38.434134a278.306133 278.306133 0 0 1 29.184 33.536c3.5328-3.464533 7.355733-6.6048 11.434667-9.386666a268.561067 268.561067 0 0 0-31.505067-33.4848 54.9888 54.9888 0 0 1-9.079466 9.352533h-0.034134z m205.7728 87.995734c16.042667-1.365333 31.965867-3.7376 47.701334-7.048534a145.698133 145.698133 0 0 0 41.608533-14.08 483.7888 483.7888 0 0 1-33.28-29.969066c-6.997333 7.048533-15.172267 14.677333-24.507733 22.920533a55.296 55.296 0 0 0-13.994667-9.710933 184.2176 184.2176 0 0 0 53.367467-66.116267c5.8368 3.515733 11.997867 6.485333 18.3808 8.823467l-6.997334 7.048533a134.434133 134.434133 0 0 0-8.7552 10.581333h97.143467a154.231467 154.231467 0 0 1-20.565333 29.525334 199.867733 199.867733 0 0 1-30.208 27.784533 146.500267 146.500267 0 0 0 40.686933 11.451733c15.445333 2.833067 31.163733 3.720533 46.830933 2.645334a73.915733 73.915733 0 0 0-7.8848 18.517333 718.7456 718.7456 0 0 1-52.514133-7.492267 154.0608 154.0608 0 0 1-42.871467-15.428266c-16.384 7.68-33.553067 13.568-51.2 17.629866-17.800533 4.130133-32.238933 7.355733-43.3152 9.710934a38.638933 38.638933 0 0 0-9.591466-16.776534h-0.034134z m168.942934 58.231466c0 20.002133 0.290133 35.566933 0.853333 46.728534h-16.605867v-11.4688h-98.901333v11.4688h-16.622933c0.580267-11.178667 0.8704-26.760533 0.8704-46.728534 0-20.565333-0.290133-36.1472-0.853334-46.728533h132.130134a909.312 909.312 0 0 0-0.8704 46.728533z m-73.5232-12.3392v-21.162666h-41.130667v21.162666h41.130667z m0 33.501867v-20.2752h-41.130667v20.2752h41.130667z m10.513066-108.458667a164.352 164.352 0 0 0 38.5024-36.1472h-77.021866l-2.6112 2.645334a339.8144 339.8144 0 0 0 41.130666 33.4848v0.017066z m47.2576 74.9568v-21.162666h-41.984v21.162666h41.984z m0 33.501867v-20.2752h-41.984v20.2752h41.984z m18.312534 27.170133h-19.9168v-11.4688h-95.6928v11.4688H780.288l0.085333-1.706666a964.096 964.096 0 0 0 0.887467-46.6432c0-19.729067-0.290133-35.037867-0.836267-45.602134-10.0352 2.269867-18.773333 4.181333-26.112 5.7344l-1.536 0.341334-0.341333-1.536a37.410133 37.410133 0 0 0-9.250133-16.042667l-2.167467-2.4064 3.242667-0.256a399.650133 399.650133 0 0 0 47.496533-7.031467 151.466667 151.466667 0 0 0 39.031467-12.8 477.303467 477.303467 0 0 1-30.4128-27.409066c-7.5776 7.509333-15.4112 14.813867-23.4496 21.845333l-1.024 0.938667-1.0752-0.9216a53.572267 53.572267 0 0 0-13.550934-9.437867l-2.525866-1.0752 2.167466-1.672533a183.586133 183.586133 0 0 0 52.923734-65.570134l0.768-1.570133 1.501866 0.887467c5.7344 3.498667 11.776 6.4 18.090667 8.704l2.3552 0.8704-8.772267 8.840533a105.454933 105.454933 0 0 0-6.6048 7.850667h96.512l-1.2288 2.3552a157.730133 157.730133 0 0 1-20.7872 29.832533 201.147733 201.147733 0 0 1-28.330666 26.402133 156.552533 156.552533 0 0 0 37.888 10.1888c15.3088 2.781867 30.890667 3.669333 46.421333 2.628267l3.140267-0.273067-1.604267 2.7136a72.618667 72.618667 0 0 0-7.68 18.090667l-0.3584 1.3312-1.365333-0.136533a1049.344 1049.344 0 0 1-27.921067-3.498667l-0.068267 1.109333a916.992 916.992 0 0 0-0.8704 46.626134c0 20.3264 0.290133 35.584 0.853334 46.660266v1.6384z m-16.725334-3.208533h13.346134a1012.3264 1012.3264 0 0 1-0.785067-45.124267c0-19.8656 0.256-34.6624 0.785067-45.124266h-128.768c0.512 10.615467 0.785067 25.770667 0.785066 45.124266a1026.389333 1026.389333 0 0 1-0.785066 45.124267h13.346133v-11.4688h102.075733v11.4688z m-151.483733-101.973333c3.3792 3.959467 5.9392 8.5504 7.543467 13.5168 11.0592-2.3552 25.088-5.512533 41.7792-9.386667a255.778133 255.778133 0 0 0 50.8928-17.527467l0.7168-0.324266 0.682666 0.3584c13.312 7.168 27.630933 12.322133 42.4448 15.274666 13.653333 2.56 30.839467 5.051733 51.029334 7.338667 1.536-5.1712 3.584-10.1888 6.144-14.933333a196.676267 196.676267 0 0 1-44.1856-2.901334 149.674667 149.674667 0 0 1-41.130667-11.605333l-2.321067-1.160533 2.082134-1.570134a200.1408 200.1408 0 0 0 29.934933-27.5456 154.6752 154.6752 0 0 0 19.080533-26.862933H814.592l1.9968-2.594133a133.290667 133.290667 0 0 1 8.891733-10.734934l5.239467-5.290666c-5.12-1.9968-10.069333-4.386133-14.813867-7.168a186.504533 186.504533 0 0 1-51.029333 63.5392c3.925333 2.218667 7.611733 4.881067 10.973867 7.8848 8.021333-7.048533 15.8208-14.353067 23.381333-21.9136l1.1264-1.143467 1.1264 1.143467a485.956267 485.956267 0 0 0 33.143467 29.866666l1.809066 1.536-2.048 1.143467a147.490133 147.490133 0 0 1-42.0352 14.2848c-14.779733 3.072-29.730133 5.3248-44.765866 6.741333v0.034134z m44.7488 8.516266h119.296a539.4432 539.4432 0 0 1-20.5824-3.413333 155.784533 155.784533 0 0 1-42.632533-15.240533c-16.2816 7.543467-33.28 13.380267-50.773334 17.408-1.809067 0.4096-3.584 0.802133-5.290666 1.211733v0.034133z m106.734933 71.0656h-45.192533v-23.483733h45.192533v23.483733z m-41.984-3.208533h38.826667v-17.066667H857.088v17.066667z m-15.752533 3.208533H797.013333v-23.483733h44.322134v23.483733z m-41.130667-3.208533h37.9392v-17.066667h-37.9392v17.066667z m98.8672-30.276267h-45.192533v-24.3712h45.192533v24.3712z m-41.984-3.208533h38.826667V856.405333H857.088v17.954134z m-15.752533 3.208533H797.013333v-24.3712h44.322134v24.3712z m-41.130667-3.208533h37.9392V856.405333h-37.9392v17.954134z m50.005334-71.424l-0.8704-0.597333a343.6544 343.6544 0 0 1-41.335467-33.655467l-1.194667-1.143467 4.266667-4.266666h81.066667l-2.167467 2.6112a166.434133 166.434133 0 0 1-38.912 36.5056l-0.853333 0.546133z m-38.792534-35.464533a339.677867 339.677867 0 0 0 38.877867 31.607466 160.682667 160.682667 0 0 0 35.037867-32.597333H812.373333l-0.955733 0.989867zM793.6 430.08h-61.047467c-3.413333 16.384-8.686933 32.3584-15.6672 47.5648l44.270934 25.736533a5.1712 5.1712 0 0 1 1.877333 7.031467l-25.6 44.629333a5.12 5.12 0 0 1-6.997333 1.877334l-46.728534-27.153067a226.645333 226.645333 0 0 1-30.788266 29.952l25.9584 38.314667a5.188267 5.188267 0 0 1-1.348267 7.168l-42.2912 29.013333a5.12 5.12 0 0 1-7.1168-1.365333l-28.091733-41.4208a223.505067 223.505067 0 0 1-55.978667 15.547733l-0.2048 48.384a5.12 5.12 0 0 1-5.12 5.12l-51.2-0.238933a5.12 5.12 0 0 1-5.12-5.1712l0.221867-47.752534a223.829333 223.829333 0 0 1-86.7328-30.242133l-25.019734 37.034667a5.12 5.12 0 0 1-7.133866 1.365333l-42.461867-29.2352a5.2224 5.2224 0 0 1-1.365333-7.202133l27.733333-41.045334a226.133333 226.133333 0 0 1-24.661333-31.488l-44.578134 25.992534a5.12 5.12 0 0 1-6.997333-1.8944l-25.7024-44.919467a5.205333 5.205333 0 0 1 1.877333-7.082667l48.981334-28.552533c-4.522667-14.848-7.509333-30.1056-8.874667-45.568H230.4a5.12 5.12 0 0 1-5.12-5.12v-51.2a5.12 5.12 0 0 1 5.12-5.12h60.1088a223.573333 223.573333 0 0 1 17.066667-53.691733L257.706667 260.573867a5.12 5.12 0 0 1-1.877334-6.997334l25.6-44.3392a5.12 5.12 0 0 1 6.997334-1.877333l52.394666 30.2592a226.594133 226.594133 0 0 1 28.552534-27.989333l-29.3888-43.1104a5.12 5.12 0 0 1 1.348266-7.1168l42.2912-28.842667a5.12 5.12 0 0 1 7.1168 1.348267l31.1296 45.6192c18.500267-8.0896 38.024533-13.653333 58.0096-16.4864l0.273067-56.593067a5.12 5.12 0 0 1 5.12-5.12l51.2 0.238933a5.12 5.12 0 0 1 5.12 5.12l-0.273067 55.995734c31.4368 4.078933 61.661867 14.779733 88.661334 31.402666L658.261333 150.528a5.12 5.12 0 0 1 7.150934-1.365333l42.4448 29.047466a5.1712 5.1712 0 0 1 1.365333 7.168l-31.402667 46.165334a226.133333 226.133333 0 0 1 21.316267 26.9824l46.472533-26.914134a5.12 5.12 0 0 1 6.997334 1.877334l25.7024 44.663466a5.1712 5.1712 0 0 1-1.877334 7.031467l-50.176 29.064533c5.6832 17.493333 9.181867 35.618133 10.4448 53.9648H793.6a5.12 5.12 0 0 1 5.12 5.12V424.96a5.12 5.12 0 0 1-5.12 5.12zM512 209.92c-96.136533 0-174.08 77.943467-174.08 174.08 0 96.136533 77.943467 174.08 174.08 174.08 96.136533 0 174.08-77.943467 174.08-174.08 0-96.136533-77.943467-174.08-174.08-174.08z m0 312.32a138.24 138.24 0 1 1 0-276.48 138.24 138.24 0 0 1 0 276.48z m0-199.68a61.44 61.44 0 1 0 0 122.88 61.44 61.44 0 0 0 0-122.88z" fill="#FF0000" /></svg>