<?xml version="1.0" standalone="no"?><!DOCTYPE svg PUBLIC "-//W3C//DTD SVG 1.1//EN" "http://www.w3.org/Graphics/SVG/1.1/DTD/svg11.dtd"><svg class="icon" width="1000px" height="1000.00px" viewBox="0 0 1024 1024" version="1.1" xmlns="http://www.w3.org/2000/svg"><path d="M0 1024V0h1024v1024H0zM992 32H32v960h960V32z" fill="#0000FF" /><path d="M143.36 834.56l363.52-640 373.76 640H143.36z m92.16-51.2h547.84L506.88 302.08 235.52 783.36z m404.48-90.504533A35.720533 35.720533 0 0 1 665.6 727.04h-25.6v10.24a10.24 10.24 0 0 1-10.24 10.24h-5.12a10.24 10.24 0 0 1-10.24-10.24v-10.24h-35.84v10.24a10.24 10.24 0 0 1-10.24 10.24H563.2a10.24 10.24 0 0 1-10.24-10.24v-10.24h-30.72v10.24a10.24 10.24 0 0 1-10.24 10.24h-5.12a10.24 10.24 0 0 1-10.24-10.24v-10.24H460.8v10.24a10.24 10.24 0 0 1-10.24 10.24h-5.12a10.24 10.24 0 0 1-10.24-10.24v-10.24h-35.84v10.24a10.24 10.24 0 0 1-10.24 10.24h-5.12a10.24 10.24 0 0 1-10.24-10.24v-10.24h-20.48c4.983467-10.8544 11.946667-20.6848 20.48-29.013333v-88.746667h-20.48c4.983467-10.8544 11.946667-20.6848 20.48-29.013333v-6.826667c0-5.649067 7.509333-25.6 15.36-25.6s10.24 16.571733 10.24 25.6h35.84c0-5.649067 7.509333-25.6 15.36-25.6s10.24 16.571733 10.24 25.6h35.84c0-5.649067 7.509333-25.6 15.36-25.6s10.24 16.571733 10.24 25.6h30.72c0-5.649067 7.509333-25.6 15.36-25.6s10.24 16.571733 10.24 25.6H614.4c0-5.649067 7.509333-25.6 15.36-25.6s10.24 16.571733 10.24 25.6v1.655467A35.720533 35.720533 0 0 1 665.6 609.28h-25.6v83.575467z m-204.8-83.575467h-35.84v81.92h35.84v-81.92z m61.44 0H460.8v81.92h35.84v-81.92z m56.32 0h-30.72v81.92h30.72v-81.92z m25.6 0v81.92H614.4v-81.92h-35.84z" fill="#0000FF" /></svg>