<?xml version="1.0" standalone="no"?><!DOCTYPE svg PUBLIC "-//W3C//DTD SVG 1.1//EN" "http://www.w3.org/Graphics/SVG/1.1/DTD/svg11.dtd"><svg class="icon" width="1000px" height="1000.00px" viewBox="0 0 1024 1024" version="1.1" xmlns="http://www.w3.org/2000/svg"><path d="M864 1024H160A160 160 0 0 1 0 864V160A160 160 0 0 1 160 0h704A160 160 0 0 1 1024 160v704A160 160 0 0 1 864 1024z m128-832a160 160 0 0 0-160-160h-640a160 160 0 0 0-160 160v640a160 160 0 0 0 160 160h640a160 160 0 0 0 160-160v-640z" fill="#FF0000" /><path d="M625.629867 429.312a27.818667 27.818667 0 0 0 26.794666-20.343467h38.280534v6.4512a59.9552 59.9552 0 0 1-60.0064 59.869867H401.408a59.9552 59.9552 0 0 1-60.023467-59.869867v-6.4512h38.314667a27.8528 27.8528 0 0 0 34.5088 19.080534 27.8528 27.8528 0 0 0-15.377067-53.504 27.989333 27.989333 0 0 0-19.490133 20.343466H341.333333V254.976h28.228267v40.209067c0 11.008 8.994133 19.968 20.0192 19.968h252.8768c11.042133 0 20.0192-8.96 20.0192-19.968V254.976h28.228267v139.912533h-37.9904a27.938133 27.938133 0 0 0-33.723734-20.565333 27.8528 27.8528 0 0 0 6.638934 54.9888zM662.528 197.802667c0-11.008-8.994133-19.968-20.0192-19.968H389.632c-11.042133 0-20.0192 8.891733-20.0192 19.968v43.093333h-28.245333V165.546667a59.9552 59.9552 0 0 1 60.023466-59.869867h229.341867A59.989333 59.989333 0 0 1 690.773333 165.546667v75.349333h-28.228266V197.802667z m-111.837867-103.0144a26.112 26.112 0 0 1-26.112-26.0608 26.112 26.112 0 0 1 26.112-26.0608c14.421333 0 26.112 11.6736 26.112 26.0608a26.112 26.112 0 0 1-26.112 26.0608z m-69.239466 0a26.112 26.112 0 0 1-26.112-26.0608c0-14.3872 11.690667-26.0608 26.112-26.0608 14.404267 0 26.112 11.6736 26.112 26.0608a26.112 26.112 0 0 1-26.112 26.0608z m-92.416 392.840533h35.2768v24.610133h183.5008v-24.610133h35.293866v24.610133h28.228267v34.901334H360.823467v-34.901334h28.228266v-24.610133z m0 73.591467h35.2768V583.68h183.5008v-22.459733h35.293866V583.68h28.228267v35.191467h-28.228267V640h-35.293866v-21.128533H424.328533V640h-35.2768v-21.128533h-28.228266V583.68h28.228266v-22.442667zM90.538667 908.305067c20.343467-5.546667 38.144-12.475733 53.879466-20.804267l-3.703466-19.421867a158.839467 158.839467 0 0 1-28.433067 13.4144v-46.6944h28.672v-20.343466h-28.672V790.869333H132.608v-19.643733H79.684267c4.164267-8.0896 7.850667-16.657067 11.554133-25.9072h45.7728V724.309333H98.167467c1.860267-6.2464 3.4816-12.714667 5.3248-19.421866l-21.0432-4.4032a250.043733 250.043733 0 0 1-29.1328 74.922666l17.8176 11.3152c2.065067-3.464533 4.1472-7.168 6.229333-10.8544v15.018667h13.4144v23.586133H61.883733v20.343467h28.893867v45.994667c0 4.164267-3.003733 7.168-9.0112 9.028266l8.772267 18.4832z m61.269333 6.485333c22.664533-12.032 39.304533-28.893867 49.476267-50.858667 2.304-5.546667 4.386133-11.332267 6.485333-17.578666 9.0112 27.7504 25.429333 50.397867 49.4592 67.976533l12.032-19.882667c-26.368-17.578667-42.5472-41.6256-48.554667-72.362666h44.151467v-21.0432h-48.554667c0.938667-10.171733 1.621333-20.821333 1.860267-31.914667v-8.072533h39.082667v-21.282134h-39.082667v-39.0656h-21.504v39.082667h-17.1008c1.604267-6.946133 3.242667-14.114133 4.846933-21.981867l-20.343466-4.1472a255.197867 255.197867 0 0 1-22.647467 67.498667l19.182933 12.032c4.608-9.728 8.789333-20.5824 12.714667-32.136533h23.3472v8.0896a440.285867 440.285867 0 0 1-1.8432 31.914666H146.722133v21.026134h44.8512a164.1472 164.1472 0 0 1-7.389866 26.589866c-7.867733 19.182933-22.664533 34.901333-44.3904 47.394134l12.014933 18.722133z m139.8784-2.781867c31.8976-7.6288 59.869867-15.940267 84.138667-24.746666v-22.186667c-8.311467 3.003733-17.339733 6.024533-26.5728 9.028267v-36.078934h21.504v-20.804266h-21.504v-32.136534h22.186666V757.589333l12.253867 15.957334c6.2464-5.085867 12.253867-10.410667 17.800533-16.1792 5.085867 8.789333 10.871467 16.878933 17.800534 24.746666-14.7968 10.8544-32.3584 20.3264-52.718934 28.416l13.4144 17.578667c20.821333-8.789333 39.082667-19.182933 54.3232-31.214933 15.274667 12.9536 33.536 22.8864 55.261867 30.293333l12.253867-18.039467c-19.882667-6.485333-37.2224-15.2576-51.541334-26.350933a146.039467 146.039467 0 0 0 31.419734-48.776533v-15.957334H427.178667c1.8432-4.608 3.6864-9.472 5.307733-14.336l-21.0432-4.164266c-6.929067 22.186667-20.343467 40.925867-39.9872 56.183466V707.413333h-74.9056V785.066667h32.3584v95.0272c-4.1472 1.160533-8.533333 2.304-12.936533 3.464533v-76.288h-19.421867v81.152l-10.871467 2.304 6.024534 21.265067z m58.948267-147.268266h-33.058134v-36.983467h33.058134v36.983467z m84.138666 4.164266a143.9232 143.9232 0 0 1-20.565333-27.733333c0.9216-1.160533 1.8432-2.321067 2.781867-3.703467h41.3696a131.703467 131.703467 0 0 1-23.569067 31.4368z m-25.429333 143.803734v-8.789334h50.6368v8.789334h21.0432v-88.081067h-92.484267v88.064h20.821334z m50.6368-28.672h-50.619733v-39.5264h50.619733v39.5264z m152.1152 28.433066c15.274667 0 22.903467-7.168 22.903467-21.504v-11.776h71.662933V848.896h23.3472v-17.800533h-23.3472v-30.276267h-71.68v-11.5712h68.437333v-47.616h-68.437333v-11.5712h88.7808V711.338667h-88.763733v-12.014934h-21.742934v12.014934h-88.7808v18.722133h88.7808v11.5712h-68.437333v47.616h68.437333v11.5712h-73.984v17.1008h73.984v13.175467h-95.010133v17.800533h95.010133v12.714667h-74.205866v17.578666h74.205866v6.7072c0 4.846933-3.003733 7.389867-8.5504 7.389867-8.328533 0-16.878933-0.682667-25.668266-1.621333l4.625066 20.821333h28.433067z m69.597867-139.639466h-46.6944v-15.018667h46.6944v15.018667z m-68.437334 0h-46.6944v-15.018667h46.6944v15.018667z m72.362667 58.2656h-50.619733v-13.175467h50.619733v13.175467z m0 30.5152h-50.619733v-12.714667h50.619733v12.714667z m264.2432 52.48l12.4928-18.261334c-18.039467-9.710933-33.518933-23.125333-46.6944-40.226133 16.1792-26.350933 24.968533-58.709333 26.5728-96.631467h16.196267v-21.282133h-70.997334c3.242667-10.632533 5.802667-22.186667 8.106667-34.2016l-20.343467-3.703467c-6.7072 38.843733-19.421867 69.5808-38.144 92.706134l13.4144 16.878933c4.386133-5.085867 8.772267-10.871467 12.936534-17.117867a283.648 283.648 0 0 0 27.989333 62.651734c-12.270933 16.196267-27.989333 29.5936-47.4112 40.004266l11.5712 18.261334a178.3808 178.3808 0 0 0 48.0768-40.448 157.405867 157.405867 0 0 0 46.250667 41.3696z m-168.072533-4.164267v-15.479467h62.890666v-83.694933h-31.675733v-43.229867h37.461333v-21.265066h-37.461333v-43.229867h-21.0432v43.229867h-39.9872v21.265066h39.9872v43.229867h-31.197867v99.1744h21.026134z m120.917333-73.284267c-11.093333-18.944-20.1216-41.147733-27.050667-66.816 1.3824-3.464533 3.003733-7.168 4.625067-10.8544h41.386667c-1.399467 29.815467-7.6288 55.7056-18.961067 77.6704z m-79.291733 37.922134h-41.6256v-44.168534h41.6256v44.168534z" fill="#FF0000" /></svg>