<?xml version="1.0" standalone="no"?><!DOCTYPE svg PUBLIC "-//W3C//DTD SVG 1.1//EN" "http://www.w3.org/Graphics/SVG/1.1/DTD/svg11.dtd"><svg class="icon" width="1000px" height="1000.00px" viewBox="0 0 1024 1024" version="1.1" xmlns="http://www.w3.org/2000/svg"><path d="M0 1024V0h1024v1024H0zM992 32H32v960h960V32z" fill="#0000FF" /><path d="M747.776 384.477867l-85.418667 54.357333 1.024 1.792c76.5952 139.042133 91.5456 277.9648 33.399467 310.272-58.146133 32.324267-172.4928-54.1696-249.070933-193.211733-76.5952-139.042133-86.4256-277.9648-28.279467-310.272 55.057067-30.600533 155.869867 45.3632 231.458133 171.554133l84.565334-53.828267 12.322133 19.336534zM685.056 720.9472c44.288-26.965333 33.706667-151.4496-34.184533-274.773333l-178.432 113.5616c68.352 117.5552 163.242667 191.2832 212.616533 161.211733zM436.258133 272.384c-47.7184 33.160533-39.185067 146.756267 25.019734 267.264l178.0736-113.3568c-68.437333-112.9472-164.898133-180.4288-203.093334-153.9072zM389.12 465.92c4.608 66.133333 107.52 204.8 107.52 204.8h-40.96l35.84 107.52h-25.6l-46.08-117.76-15.36 117.76h-20.48l10.24-138.24-97.28 138.24c-26.965333 12.373333-20.48-10.24-20.48-10.24l107.52-148.48c-54.272-63.573333 5.12-153.6 5.12-153.6z" fill="#0000FF" /></svg>