<?xml version="1.0" standalone="no"?><!DOCTYPE svg PUBLIC "-//W3C//DTD SVG 1.1//EN" "http://www.w3.org/Graphics/SVG/1.1/DTD/svg11.dtd"><svg class="icon" width="1000px" height="1000.00px" viewBox="0 0 1024 1024" version="1.1" xmlns="http://www.w3.org/2000/svg"><path d="M864 1024H160A160 160 0 0 1 0 864V160A160 160 0 0 1 160 0h704A160 160 0 0 1 1024 160v704A160 160 0 0 1 864 1024z m128-832a160 160 0 0 0-160-160h-640a160 160 0 0 0-160 160v640a160 160 0 0 0 160 160h640a160 160 0 0 0 160-160v-640z" fill="#FF0000" /><path d="M681.659733 546.3552a45.943467 45.943467 0 0 1 25.514667-24.4736 43.758933 43.758933 0 0 1 34.7136 1.501867c17.698133 8.738133 28.074667 28.194133 25.8048 48.401066-2.286933 20.189867-16.725333 36.642133-35.8912 40.891734 6.621867 12.6976 7.68 28.330667 1.365333 42.376533a45.909333 45.909333 0 0 1-25.480533 24.507733 43.7248 43.7248 0 0 1-34.730667-1.501866 47.2064 47.2064 0 0 1-24.797866-31.402667 48.981333 48.981333 0 0 1 7.5776-39.799467L512 536.9344l-143.633067 70.058667c8.055467 11.451733 10.786133 26.026667 7.458134 39.765333a47.428267 47.428267 0 0 1-24.6784 31.419733 43.52 43.52 0 0 1-34.781867 1.621334 45.687467 45.687467 0 0 1-25.480533-24.610134 48.827733 48.827733 0 0 1 1.3824-42.427733 45.550933 45.550933 0 0 1-31.965867-26.180267c-10.632533-23.688533-0.853333-51.848533 21.879467-63.095466a43.639467 43.639467 0 0 1 34.747733-1.536c11.3152 4.317867 20.48 13.1584 25.480533 24.541866 1.365333 2.9184 2.235733 5.9392 3.037867 8.925867l102.229333-49.783467-102.229333-49.8176c-0.682667 3.089067-1.706667 6.0928-3.037867 8.96a45.960533 45.960533 0 0 1-25.4976 24.4736 43.793067 43.793067 0 0 1-34.730666-1.467733c-22.749867-11.264-32.512-39.441067-21.879467-63.146667a45.056 45.056 0 0 1 31.965867-26.197333 48.827733 48.827733 0 0 1-1.365334-42.410667 45.960533 45.960533 0 0 1 25.514667-24.490666 43.793067 43.793067 0 0 1 34.730667 1.4848c22.7328 11.229867 32.494933 39.3728 21.845333 63.061333-1.28 2.901333-2.833067 5.666133-4.625067 8.260267L512 474.2656l143.616-69.973333a49.083733 49.083733 0 0 1-7.594667-39.8848 47.3088 47.3088 0 0 1 24.832-31.453867 43.451733 43.451733 0 0 1 34.7648-1.604267c11.3152 4.317867 20.48 13.192533 25.429334 24.610134a48.6912 48.6912 0 0 1-1.348267 42.410666c13.533867 2.9184 25.668267 12.117333 31.965867 26.2144 10.581333 23.7056 0.8704 51.950933-21.879467 63.061334a43.52 43.52 0 0 1-34.781867 1.604266 45.687467 45.687467 0 0 1-25.463466-24.610133 53.486933 53.486933 0 0 1-3.0208-8.96l-102.229334 49.885867 102.229334 49.834666c0.938667-3.003733 1.877333-6.058667 3.140266-9.045333z m-64.085333-223.726933V366.933333c0 23.432533-18.090667 42.222933-40.3968 42.222934a39.424 39.424 0 0 1-29.627733-13.602134c-5.717333 16.554667-20.804267 27.648-37.751467 27.767467-16.981333-0.068267-32.085333-11.178667-37.768533-27.767467a39.185067 39.185067 0 0 1-29.627734 13.602134 39.7312 39.7312 0 0 1-28.637866-12.407467 42.769067 42.769067 0 0 1-11.741867-29.815467v-44.305066c-24.951467-25.224533-40.379733-59.067733-40.379733-96.4096C361.5744 148.394667 427.912533 85.333333 509.730133 85.333333c81.851733 0 148.155733 63.061333 148.155734 140.8512 0.187733 37.307733-15.240533 71.185067-40.311467 96.443734zM446.293333 159.4368c-25.053867 0-45.312 21.248-45.312 47.496533 0 26.2144 20.343467 47.496533 45.312 47.496534 25.088 0 45.346133-21.282133 45.346134-47.496534 0-26.248533-20.258133-47.496533-45.346134-47.496533z m55.381334 130.798933l-20.087467 42.018134c-4.386133 9.3696 0.1024 16.964267 9.949867 16.964266h36.215466c9.966933 0 14.506667-7.6288 9.966934-16.964266l-19.968-42.018134c-4.232533-9.4208-11.485867-9.4208-16.0768 0z m71.68-130.798933c-25.088 0-45.312 21.248-45.312 47.496533 0 26.2144 20.360533 47.496533 45.312 47.496534 25.088 0 45.346133-21.282133 45.346133-47.496534 0-26.248533-20.258133-47.496533-45.346133-47.496533zM189.047467 940.8c21.3504-25.258667 32.6144-58.811733 33.757866-100.608v-34.9184h153.224534v-21.128533h-62.72c7.816533-6.894933 15.633067-15.172267 23.671466-24.354134v-15.616H251.050667c3.208533-4.608 6.1952-9.198933 9.181866-14.011733L237.738667 725.333333c-18.602667 28.484267-40.891733 50.5344-67.072 66.6112l14.6944 17.698134c5.0688-3.447467 10.3424-7.133867 15.394133-11.264v41.813333c-0.9216 36.283733-10.564267 64.768-29.405867 84.992l17.698134 15.616z m96.256-156.672h-68.010667c6.894933-6.656 13.550933-13.7728 19.985067-21.589333h71.2192c-7.816533 7.816533-15.394133 15.172267-23.210667 21.6064z m60.637866 152.541867c13.090133 0 21.8112-2.065067 26.402134-5.973334 4.608-4.130133 8.055467-16.776533 10.3424-37.905066l-20.906667-6.656c-1.365333 12.3904-2.986667 20.667733-5.051733 24.797866-2.286933 3.6864-8.021333 5.512533-17.237334 5.512534h-59.477333c-7.816533 0-11.485867-3.208533-11.485867-9.181867v-61.098667h55.3472v16.759467c0 6.434133-2.747733 9.8816-8.021333 9.8816-7.355733 0-16.093867-0.4608-26.197333-1.365333l5.290666 20.4288c9.403733 0.4608 19.285333 0.682667 29.627734 0.682666 14.2336-0.904533 21.367467-8.260267 21.589333-22.272v-43.4176h-99.925333v88.439467c0 14.2336 7.816533 21.367467 23.893333 21.367467h75.810133z m112.554667 3.669333v-151.381333a252.381867 252.381867 0 0 0 30.3104-53.521067l-20.445867-9.642667c-14.677333 35.84-37.666133 67.072-68.676266 93.952l6.894933 22.7328a394.427733 394.427733 0 0 0 30.327467-28.023466v125.883733h21.589333z m118.9888-4.130133c11.485867 0 19.524267-2.7648 23.893333-8.277334 4.130133-5.512533 7.1168-21.589333 8.721067-48.008533l-20.206933-6.656c-0.4608 21.128533-2.082133 33.314133-4.369067 36.744533-2.525867 3.447467-6.434133 5.290667-11.7248 5.290667h-34.218667c-7.338667 0-10.8032-3.208533-10.8032-9.642667v-73.966933a393.028267 393.028267 0 0 0 74.666667-60.194133l-15.172267-17.237334a305.442133 305.442133 0 0 1-59.4944 51.012267v-75.810133h-21.8112v89.361066c-11.025067 6.434133-22.971733 12.168533-35.3792 17.681067l9.8816 20.6848c8.721067-4.1472 17.237333-8.4992 25.4976-12.868267v64.324267c0 18.363733 9.181867 27.562667 27.562667 27.562667h42.9568z m223.965867-120.3712v-80.162134h-130.474667v80.162134h130.474667z m-21.828267-20.667734h-86.8352v-38.826666h86.8352v38.826666z m-118.0672 141.2608v-11.025066h42.496v11.025066h21.128533v-103.355733h-84.992v103.355733h21.367467z m104.516267 0v-11.025066h44.3392v11.025066h21.8112v-103.355733h-87.517867v103.355733h21.367467z m-62.020267-31.470933h-42.496v-51.217067h42.496v51.217067z m106.359467 0h-44.3392v-51.217067h44.3392v51.217067z" fill="#FF0000" /></svg>