<?xml version="1.0" standalone="no"?><!DOCTYPE svg PUBLIC "-//W3C//DTD SVG 1.1//EN" "http://www.w3.org/Graphics/SVG/1.1/DTD/svg11.dtd"><svg class="icon" width="1000px" height="1000.00px" viewBox="0 0 1024 1024" version="1.1" xmlns="http://www.w3.org/2000/svg"><path d="M0 1024V0h1024v1024H0zM992 32H32v960h960V32z" fill="#00FF00" /><path d="M478.242133 937.813333c10.001067 0 17.732267-15.2576 22.7328-45.499733l-19.336533-10.922667c-2.269867 19.114667-4.778667 28.893867-7.048533 28.893867-2.730667 0-6.826667-5.0176-12.049067-15.018667-5.461333-10.683733-10.24-27.2896-14.779733-49.800533-2.269867-10.922667-3.874133-25.258667-5.239467-42.530133h55.5008V781.994667h-56.866133a878.984533 878.984533 0 0 1-1.365334-51.8656h-21.6064c0 18.432 0.238933 35.720533 1.143467 51.8656h-123.4944v20.923733h124.859733c1.5872 19.5584 4.096 36.608 7.2704 50.944 6.382933 28.654933 14.114133 49.800533 23.432534 63.453867 9.557333 13.653333 18.653867 20.48 26.845866 20.48z m-4.334933-162.167466l17.749333-9.1136c-6.826667-13.175467-14.779733-25.002667-23.893333-35.925334l-17.732267 7.7312c8.635733 10.922667 16.605867 23.210667 23.893334 37.307734z m-72.994133-11.383467v-20.241067H312.661333v20.241067h88.234667zM295.8336 935.765333c46.626133-6.826667 88.234667-15.9232 125.098667-27.2896v-20.48c-13.2096 4.096-27.528533 7.748267-42.769067 11.1616v-35.9424h36.625067v-19.797333h-36.625067v-29.781333h-21.384533v90.0608c-7.7312 1.365333-15.4624 2.952533-23.415467 4.317866v-75.946666h-20.923733v79.36c-6.365867 0.9216-12.7488 1.826133-19.5584 2.730666l2.952533 21.6064z m436.821333-88.695466v-15.240534h-87.108266a103.424 103.424 0 0 0-5.905067-13.192533l-10.24 1.365333c0.904533-0.904533 2.048-2.048 2.952533-3.413333 3.191467-5.000533 5.000533-17.749333 5.6832-37.751467l10.461867 13.192534c4.5568-4.096 8.6528-8.413867 12.509867-13.4144 2.9696 5.905067 7.287467 11.8272 12.7488 17.5104-8.6528 5.461333-19.5584 9.3184-32.3072 12.049066l7.970133 17.288534c15.240533-3.6352 28.194133-9.3184 39.1168-17.288534 10.001067 6.826667 22.528 12.731733 37.5296 17.749334l9.7792-17.288534a172.663467 172.663467 0 0 1-33.672533-13.653333c7.748267-9.557333 13.192533-21.367467 16.384-35.4816h12.288v-17.5104H679.424c0.904533-3.413333 1.809067-6.826667 2.730667-10.461867l-19.5584-3.1744c-4.334933 19.5584-12.509867 35.242667-24.576 47.530667v-9.557333h-71.406934l1.143467-3.857067h12.288v-8.6528H600.746667v8.6528h17.749333v-8.6528h25.924267v-15.4624h-25.941334v-9.096533H600.746667v9.096533h-20.6848v-9.096533h-17.749334v9.096533h-25.685333v15.4624h25.7024v6.365867l-11.8272-1.809067c-3.6352 13.653333-10.24 24.337067-20.241067 32.512l11.3664 14.114133c4.317867-3.652267 8.413867-7.970133 12.288-12.7488v27.989334h47.752534l1.604266 5.461333h9.3184c2.730667 0 5.461333-0.4608 7.953067-1.143467 1.365333 2.269867 2.9696 4.539733 4.317867 7.2704h-89.378134v15.240534H732.672z m-45.2608-62.3104a54.6304 54.6304 0 0 1-16.145066-22.528l1.365333-2.730667h27.511467a60.3648 60.3648 0 0 1-12.731734 25.258667z m-78.677333 27.2896h-4.778667v-24.337067h-47.086933c1.365333-2.269867 2.730667-4.5568 4.096-7.048533h57.309867c-0.221867 13.192533-0.904533 21.828267-1.826134 25.463466-1.1264 3.6352-3.6352 5.461333-7.7312 5.922134z m-20.9408-2.730667h-17.954133v-10.461867h17.954133v10.461867z m119.176533 58.2144v-12.509867h-143.957333v12.509867h143.957333z m0 20.48v-12.509867h-143.957333v12.509867h143.957333z m-130.7648 53.674667v-6.144h118.033067v6.144h20.923733V896.853333h-159.880533v44.817067h20.923733z m118.033067-20.241067h-118.033067v-10.7008h118.033067v10.7008z" fill="#00FF00" /><path d="M399.957333 497.732267l46.250667-175.803734h1.297067l46.250666 175.803734h37.034667l65.706667-227.822934h-39.236267L512.904533 447.317333h-1.262933l-46.592-177.408h-36.369067l-46.592 177.408h-1.28l-44.3392-177.408h-39.253333l65.416533 227.822934h37.3248z m241.800534 4.471466c26.1632 0 45.312-7.031467 57.429333-20.4288 10.530133-12.765867 15.957333-31.914667 15.957333-57.429333v-154.436267h-34.781866v153.156267c0 16.913067-3.191467 29.0304-8.925867 36.693333-6.075733 7.662933-15.633067 11.810133-29.047467 11.810134-23.6032 0-35.413333-13.7216-35.413333-40.840534v-7.338666h-34.781867v7.662933c0 22.3232 6.075733 39.560533 18.193067 52.3264 11.485867 12.4416 28.7232 18.824533 51.370667 18.824533z" fill="#00FF00" /></svg>