<?xml version="1.0" standalone="no"?><!DOCTYPE svg PUBLIC "-//W3C//DTD SVG 1.1//EN" "http://www.w3.org/Graphics/SVG/1.1/DTD/svg11.dtd"><svg class="icon" width="1000px" height="1000.00px" viewBox="0 0 1024 1024" version="1.1" xmlns="http://www.w3.org/2000/svg"><path d="M0 1024V0h1024v1024H0zM992 32H32v960h960V32z" fill="#00FF00" /><path d="M99.6864 782.677333H119.808v-29.184a148.957867 148.957867 0 0 0-1.757867-23.893333h19.2512a283.989333 283.989333 0 0 0-0.8704 23.893333v29.184c5.819733 0 12.526933-0.290133 20.1216-0.887466v15.906133a289.621333 289.621333 0 0 0-20.138666-0.887467v45.9776a133.512533 133.512533 0 0 0 24.507733-7.953066c0 5.3248 0.290133 10.632533 0.887467 15.9232-7.594667 2.3552-16.042667 5.0176-25.378134 7.953066v41.557334c0 10.0352 0.290133 21.538133 0.8704 34.491733H118.050133c1.160533-11.793067 1.7408-23.296 1.757867-34.474667v-37.154133c-6.417067 1.774933-12.6976 3.6864-18.807467 5.751467-6.7584 2.338133-13.329067 5.137067-19.694933 8.3968a130.116267 130.116267 0 0 0-8.738133-19.456 389.051733 389.051733 0 0 0 47.240533-9.728V796.842667H97.058133a549.973333 549.973333 0 0 1-7.867733 32.7168 38.656 38.656 0 0 0-17.5104-4.437334 166.912 166.912 0 0 0 10.922667-35.7888c1.9456-10.666667 3.259733-21.435733 3.959466-32.256 6.8608 1.8432 13.892267 3.0208 20.992 3.5328a53.248 53.248 0 0 0-7.867733 22.084267z m158.327467-2.6624h-11.3664a436.411733 436.411733 0 0 1-5.6832 51.712 135.1168 135.1168 0 0 1-12.680534 38.468267 161.467733 161.467733 0 0 1-21.435733 31.4368 163.2768 163.2768 0 0 1-34.56 28.740267 46.7968 46.7968 0 0 0-15.735467-14.165334 100.181333 100.181333 0 0 0 35.4304-22.971733c8.874667-9.181867 16.110933-19.797333 21.435734-31.402667 5.4272-12.117333 9.233067-24.917333 11.349333-38.024533 2.321067-13.841067 4.078933-28.433067 5.239467-43.776h-14.848a171.588267 171.588267 0 0 1-14.455467 53.0432 147.268267 147.268267 0 0 1-29.303467 44.219733 29.525333 29.525333 0 0 0-16.622933-11.502933 115.3024 115.3024 0 0 0 30.173867-37.137067c7.253333-15.377067 12.117333-31.778133 14.4384-48.64h-13.1072a300.885333 300.885333 0 0 1-19.234134 34.474667 41.984 41.984 0 0 0-15.752533-8.823467 209.408 209.408 0 0 0 27.136-46.865066c4.4032-10.2912 7.918933-20.957867 10.496-31.8464 7.099733 3.157333 14.404267 5.802667 21.879467 7.970133a34.030933 34.030933 0 0 0-8.311467 11.485867c-2.628267 5.307733-5.393067 11.502933-8.311467 18.568533h82.210134a1377.553067 1377.553067 0 0 0-4.8128 83.114667c-0.853333 29.4912-1.7408 48.64-2.628267 57.4976-0.290133 8.021333-5.256533 15.104-12.680533 18.1248a128.341333 128.341333 0 0 1-33.245867 7.509333 40.9088 40.9088 0 0 0-8.738133-20.3264c16.896 1.1776 27.255467 0.887467 31.061333-0.887467 3.7888-1.774933 5.973333-6.792533 6.5536-15.035733l6.109867-114.961067z m-119.04 156.3648h-22.698667l0.187733-1.757866a353.621333 353.621333 0 0 0 1.757867-34.338134V865.28c-5.614933 1.604267-11.195733 3.328-16.725333 5.1712a151.722667 151.722667 0 0 0-19.456 8.311467l-1.655467 0.8192-0.580267-1.757867a132.1984 132.1984 0 0 0-8.635733-19.2l-1.1264-2.0992 2.3552-0.273067a380.347733 380.347733 0 0 0 45.824-9.386666v-48.401067H98.3552c-2.218667 10.581333-4.778667 21.0944-7.6288 31.522133l-0.512 1.8944-1.7408-0.853333a37.205333 37.205333 0 0 0-16.7936-4.3008h-2.4064l0.938667-2.235733a165.888 165.888 0 0 0 10.837333-35.464534c1.911467-10.615467 3.2256-21.333333 3.925333-32.085333l0.1024-1.9968 1.911467 0.512c6.775467 1.826133 13.704533 2.986667 20.701867 3.498667l2.901333 0.221866-1.757867 2.338134a49.271467 49.271467 0 0 0-7.2192 19.541333h16.5888V753.493333a148.548267 148.548267 0 0 0-1.723733-23.620266l-0.324267-1.877334h22.869334l-0.136534 1.757867c-0.6144 7.8848-0.904533 15.803733-0.853333 23.722667v27.562666c6.126933-0.068267 12.270933-0.3584 18.3808-0.853333l1.723733-0.170667v13.141334c7.458133-10.973867 13.755733-22.698667 18.7904-34.9696 4.369067-10.1888 7.850667-20.736 10.410667-31.522134l0.3584-1.9968 1.8432 0.802134c7.031467 3.1232 14.267733 5.751467 21.674667 7.8848l3.0208 0.836266-2.4576 1.979734a32.768 32.768 0 0 0-7.850667 10.973866c-2.389333 4.778667-4.864 10.24-7.355733 16.213334h81.578666l-0.170666 1.757866a1397.845333 1397.845333 0 0 0-4.8128 83.029334c-0.853333 29.371733-1.7408 48.759467-2.6112 57.6a22.016 22.016 0 0 1-13.653334 19.456 129.979733 129.979733 0 0 1-33.672533 7.662933l-1.621333 0.187733-0.170667-1.655466a39.594667 39.594667 0 0 0-8.448-19.524267l-2.0992-2.833067 3.4816 0.256c6.690133 0.477867 12.424533 0.7168 17.032533 0.7168 4.471467 0.341333 8.96-0.1536 13.243734-1.450666 3.208533-1.501867 5.102933-6.0928 5.632-13.6704l6.0416-113.2544h-8.192a434.517333 434.517333 0 0 1-5.632 50.432 137.966933 137.966933 0 0 1-12.8512 38.912 164.625067 164.625067 0 0 1-21.640534 31.709866 165.888 165.888 0 0 1-34.901333 29.013334l-1.314133 0.853333-0.8704-1.297067a45.533867 45.533867 0 0 0-15.240534-13.653333l-2.816-1.672533 3.037867-1.2288a98.952533 98.952533 0 0 0 34.8672-22.613334c8.738133-9.045333 15.872-19.524267 21.128533-30.941866a151.074133 151.074133 0 0 0 11.264-37.614934c2.218667-13.226667 3.9424-27.306667 5.102934-41.898666h-11.690667a174.250667 174.250667 0 0 1-14.421333 52.104533 149.1968 149.1968 0 0 1-29.627734 44.6976l-1.365333 1.399467-1.092267-1.6384a28.091733 28.091733 0 0 0-15.7696-10.8544l-2.816-0.887467 2.269867-1.911467a114.039467 114.039467 0 0 0 29.764267-36.608 164.829867 164.829867 0 0 0 13.994666-46.301866h-10.24a295.594667 295.594667 0 0 1-18.909866 33.792l-1.024 1.4848-1.348267-1.194667a40.721067 40.721067 0 0 0-15.1552-8.4992l-2.2016-0.6656 1.365333-1.8432c1.3824-1.877333 2.730667-3.720533 4.027734-5.546667a297.403733 297.403733 0 0 0-16.008534-0.7168v42.308267a127.1808 127.1808 0 0 0 22.237867-7.3728l2.2528-1.024v2.5088c0 5.256533 0.290133 10.513067 0.887467 15.735467l0.136533 1.3312-1.262933 0.392533-24.234667 7.594667v40.379733c0 10.171733 0.290133 21.742933 0.853333 34.423467l0.085334 1.655466z m-19.1488-3.2256h15.803733a788.599467 788.599467 0 0 1-0.802133-32.8704v-42.734933l1.1264-0.375467c8.8064-2.781867 16.8448-5.290667 24.1152-7.560533a146.773333 146.773333 0 0 1-0.733867-12.288c-7.304533 2.9696-14.848 5.3248-22.545067 7.0656l-1.962666 0.4608v-49.629867h1.5872c4.898133 0 10.973867 0.256 18.5344 0.750934v-12.4416c-6.792533 0.512-13.021867 0.768-18.5344 0.768H134.826667V753.493333c0-8.226133 0.256-15.701333 0.733866-22.272h-15.633066c1.024 7.3728 1.518933 14.813867 1.467733 22.272v30.788267H97.792l0.341333-1.8944c0.989867-7.150933 3.242667-14.062933 6.6048-20.445867a113.3056 113.3056 0 0 1-16.6912-2.850133c-0.750933 10.222933-2.013867 20.394667-3.84 30.498133a168.6528 168.6528 0 0 1-10.1376 33.9968c4.881067 0.341333 9.659733 1.5872 14.097067 3.652267 2.679467-9.966933 5.154133-20.309333 7.338667-30.754133l0.273066-1.28h25.617067v54.1696l-1.194667 0.290133c-14.848 4.010667-29.917867 7.168-45.124266 9.489067 2.730667 5.137067 5.12 10.4448 7.168 15.872a147.677867 147.677867 0 0 1 18.261333-7.68c6.2464-2.082133 12.544-4.010667 18.8928-5.768534l2.013867-0.5632v39.253334a360.772267 360.772267 0 0 1-1.604267 32.8704z m97.706666-20.4288c3.498667 5.000533 5.8368 10.7008 6.894934 16.725334a123.9552 123.9552 0 0 0 31.232-7.202134c6.877867-2.798933 11.485867-9.386667 11.707733-16.810666 0.8704-8.772267 1.757867-28.074667 2.628267-57.344 0.853333-28.859733 2.4064-56.2688 4.642133-81.4592h-82.858667l0.904534-2.218667c2.56-6.331733 5.358933-12.561067 8.362666-18.705067 1.706667-3.6352 3.908267-6.997333 6.570667-10.001066a173.090133 173.090133 0 0 1-17.527467-6.468267 220.7232 220.7232 0 0 1-10.1888 30.190933 199.714133 199.714133 0 0 1-21.76 39.4752v0.5632l-0.375466-0.034133c-1.245867 1.809067-2.542933 3.618133-3.857067 5.4272 4.642133 1.6896 8.977067 4.1472 12.8 7.287467 6.673067-10.581333 12.731733-21.538133 18.1248-32.836267l0.4608-0.8704h15.9744l-0.290133 1.860267a170.1376 170.1376 0 0 1-14.574934 49.117866 116.087467 116.087467 0 0 1-28.433066 35.805867c5.341867 1.877333 10.052267 5.205333 13.6192 9.608533a147.746133 147.746133 0 0 0 27.648-42.3936 170.530133 170.530133 0 0 0 14.301866-52.565333l0.136534-1.4336h18.056533l-0.136533 1.723733c-1.092267 14.711467-2.850133 29.354667-5.2736 43.912534a155.0848 155.0848 0 0 1-11.485867 38.4512 115.285333 115.285333 0 0 1-21.725867 31.829333A100.522667 100.522667 0 0 1 160.068267 916.48c4.881067 3.072 9.1648 7.031467 12.629333 11.656533a159.5392 159.5392 0 0 0 32.938667-27.5968 160.580267 160.580267 0 0 0 21.213866-31.095466 134.058667 134.058667 0 0 0 12.544-38.007467c2.901333-17.0496 4.778667-34.2528 5.666134-51.524267l0.068266-1.536h14.574934l-6.212267 116.701867c-0.631467 8.977067-3.072 14.336-7.492267 16.384-3.857067 1.809067-13.1072 2.218667-28.4672 1.262933z m100.864-71.68a87.9104 87.9104 0 0 0-13.994666-13.2608 255.146667 255.146667 0 0 0 43.741866-42.4448c3.857067 3.7888 7.953067 7.338667 12.2368 10.615467a442.094933 442.094933 0 0 0-41.984 45.090133z m86.186667 43.349334c-2.048 7.492267-5.956267 14.336-11.383467 19.882666-7.68 7.901867-16.725333 14.336-26.692266 19.012267-16.110933 7.185067-33.211733 11.946667-50.7392 14.165333a40.3456 40.3456 0 0 0-10.478934-16.810666 151.893333 151.893333 0 0 0 42.410667-6.656 84.241067 84.241067 0 0 0 25.821867-12.8 40.789333 40.789333 0 0 0 12.680533-17.237334c2.645333-6.929067 3.9936-14.267733 3.925333-21.674666 6.997333 1.194667 13.994667 2.065067 20.992 2.6624a101.5808 101.5808 0 0 0-6.570666 19.438933h0.017066z m-94.9248-136.192a98.304 98.304 0 0 0 10.496-12.3904c5.239467 3.5328 17.783467 11.502933 37.614933 23.893333-3.925333 4.061867-7.441067 8.4992-10.496 13.243733a434.7392 434.7392 0 0 0-37.632-24.763733z m162.7136 114.0736c0 8.840533 0.290133 19.165867 0.8704 30.941866h-17.5104v-40.669866h-108.475733v45.9776h-17.493334c0.580267-13.550933 0.853333-24.746667 0.8704-33.604267 0-9.4208-0.290133-18.568533-0.8704-27.409067h143.4624c-0.597333 7.68-0.887467 15.9232-0.887466 24.746667h0.034133z m-37.614933-74.734934c3.976533 5.495467 8.874667 10.2912 14.4384 14.165334a81.92 81.92 0 0 0 22.7328 11.042133c9.796267 3.089067 19.933867 4.881067 30.190933 5.307733a86.9888 86.9888 0 0 0-10.496 18.568534 146.9952 146.9952 0 0 1-38.912-13.2608 70.946133 70.946133 0 0 1-28.433067-28.296534 51.285333 51.285333 0 0 1-22.749866 28.296534c-10.325333 5.461333-21.162667 9.898667-32.3584 13.2608a162.389333 162.389333 0 0 0-13.994667-14.148267c24.490667-4.7104 40.533333-11.776 48.128-21.213867a57.4976 57.4976 0 0 0 12.2368-34.491733l20.1216 2.645333c-4.130133 7.0656-4.437333 13.1072-0.9216 18.1248z m-57.736534-3.072a75.605333 75.605333 0 0 0-13.141333-10.615466 85.077333 85.077333 0 0 0 19.694933-18.9952c5.973333-7.68 10.820267-16.1792 14.4384-25.207467 6.144 2.6112 12.629333 4.4032 19.234134 5.290667a63.658667 63.658667 0 0 1-10.478934 14.165333h82.193067c-1.757867 3.5328-6.997333 15.018667-15.752533 34.474667a154.692267 154.692267 0 0 0-17.493334-3.5328c2.901333-6.485333 5.5296-12.0832 7.867734-16.7936H397.141333c-5.632 8.021333-12.424533 15.138133-20.138666 21.1968l0.034133 0.017066z m76.970667 116.736c10.496 4.1472 23.04 9.454933 37.614933 15.9232-3.925333 5.461333-7.150933 11.4176-9.608533 17.681067a313.924267 313.924267 0 0 0-32.802133-16.7936 434.0224 434.0224 0 0 0-34.56-13.2608c3.0208-4.983467 5.376-10.325333 6.997333-15.9232 11.0592 4.096 21.845333 8.209067 32.341333 12.3392l0.017067 0.034133z m-139.349333 38.075734l-0.392534-1.365334a39.082667 39.082667 0 0 0-10.0864-16.110933l-2.6112-2.628267 3.669334-0.119466a151.176533 151.176533 0 0 0 41.984-6.5536 83.080533 83.080533 0 0 0 25.309866-12.561067c5.461333-4.334933 9.659733-10.069333 12.202667-16.554667 2.56-6.741333 3.857067-13.8752 3.822933-21.077333v-1.911467l1.860267 0.3072c6.912 1.1776 13.943467 2.048 20.855467 2.645334l2.2528 0.170666-0.938667 2.0992c-2.781867 6.144-4.949333 12.561067-6.4512 19.1488-2.082133 7.765333-6.144 14.865067-11.741867 20.6336-7.816533 8.021333-16.9984 14.592-27.136 19.370667-16.2816 7.236267-33.518933 12.049067-51.2 14.2848l-1.399466 0.221867z m-5.802667-17.169067c3.515733 3.9424 6.229333 8.533333 8.021333 13.5168 16.896-2.218667 33.365333-6.843733 48.913067-13.789867a89.770667 89.770667 0 0 0 26.2144-18.653866c5.239467-5.341867 9.028267-11.946667 10.990933-19.165867a102.570667 102.570667 0 0 1 5.751467-17.664c-5.632-0.512-11.383467-1.262933-17.032533-2.184533-0.170667 6.9632-1.536 13.858133-4.027734 20.360533-2.730667 7.031467-7.2704 13.226667-13.175466 17.92a85.9136 85.9136 0 0 1-26.3168 13.090133 148.770133 148.770133 0 0 1-39.355734 6.570667z m173.909333 15.0016l-1.570133-0.9216a311.637333 311.637333 0 0 0-32.648533-16.725333 431.616 431.616 0 0 0-34.423467-13.2096l-1.928533-0.648534 1.0752-1.7408c2.952533-4.846933 5.239467-10.069333 6.826666-15.530666l0.477867-1.6384 1.5872 0.597333c11.400533 4.266667 22.306133 8.430933 32.4096 12.3904 10.359467 4.096 23.04 9.437867 37.666133 15.940267l1.860267 0.802133-1.211733 1.6384c-3.857067 5.358933-7.0144 11.178667-9.4208 17.322667l-0.682667 1.723733z m-65.7408-33.28c11.52 3.925333 22.545067 8.192 32.802134 12.663467 10.752 4.727467 21.248 10.069333 31.402666 15.991466 2.133333-5.1712 4.795733-10.0864 7.936-14.711466a997.9392 997.9392 0 0 0-35.754666-15.104c-10.222933-3.976533-20.48-7.901867-30.754134-11.776a68.5568 68.5568 0 0 1-5.632 12.919466v0.017067z m-68.164266-3.6864h-20.753067l0.068267-1.672533c0.580267-13.602133 0.8704-24.8832 0.8704-33.553067 0-9.096533-0.273067-18.210133-0.853334-27.306667l-0.119466-1.706666h38.2464a157.115733 157.115733 0 0 0-12.2368-12.219734l-2.4576-2.167466 3.2256-0.631467c23.978667-4.608 39.850667-11.554133 47.172266-20.650667a56.200533 56.200533 0 0 0 11.895467-33.553066l0.068267-1.7408 24.234666 3.1744-1.211733 2.116266c-3.754667 6.536533-4.096 11.895467-0.938667 16.384 3.874133 5.358933 8.635733 10.001067 14.062934 13.7728 6.826667 4.744533 14.336 8.3968 22.289066 10.837334 9.659733 3.0208 19.6608 4.778667 29.781334 5.2224l2.935466 0.170666-1.723733 2.389334c-4.164267 5.632-7.6288 11.758933-10.308267 18.2272l-0.494933 1.245866-1.297067-0.273066a148.906667 148.906667 0 0 1-39.355733-13.397334 71.560533 71.560533 0 0 1-27.426133-26.180266 51.370667 51.370667 0 0 1-22.272 26.1632c-8.226133 4.369067-16.776533 8.0896-25.6 11.1104h98.304l-0.136534 1.7408c-0.597333 8.192-0.904533 16.418133-0.8704 24.644266 0 8.977067 0.290133 19.370667 0.8704 30.856534l0.085334 1.706666H454.144v-40.686933h-105.301333v45.9776z m-17.408-3.242667h14.2336V850.944h111.650133v40.669867h14.2336a634.3168 634.3168 0 0 1-0.785067-29.320534c0-8.277333 0.256-16.0768 0.750934-23.159466h-140.066134c0.512 8.379733 0.768 17.066667 0.768 25.8048 0 8.328533-0.256 19.080533-0.785066 31.965866z m27.136-73.454933c3.874133 3.584 7.560533 7.3728 11.0592 11.332267 10.752-3.293867 21.162667-7.5776 31.112533-12.834134a50.090667 50.090667 0 0 0 22.016-27.477333l1.194667-3.072 1.655466 2.8672a69.8368 69.8368 0 0 0 27.8016 27.682133c11.758933 5.956267 24.285867 10.274133 37.205334 12.8512 2.338133-5.358933 5.1712-10.478933 8.516266-15.291733a116.309333 116.309333 0 0 1-27.716266-5.205333 83.370667 83.370667 0 0 1-23.176534-11.264 62.327467 62.327467 0 0 1-14.813866-14.557867 16.605867 16.605867 0 0 1-0.341334-17.7664l-16.093866-2.116267a58.811733 58.811733 0 0 1-12.509867 33.672534c-7.5776 9.4208-22.613333 16.366933-45.909333 21.162666z m-40.123734 20.0704l-1.245866-1.3824a87.4496 87.4496 0 0 0-13.704534-13.0048l-1.826133-1.262933 1.723733-1.365334c16.128-12.270933 30.72-26.4192 43.4688-42.154666l1.1264-1.4336 1.28 1.28c3.805867 3.754667 7.850667 7.236267 12.0832 10.478933l1.4848 1.160533-1.399466 1.297067c-14.967467 13.994667-28.945067 29.013333-41.813334 44.936533l-1.194666 1.450667z m-11.4176-15.786667c4.0448 3.310933 7.816533 6.946133 11.264 10.8544a445.184 445.184 0 0 1 39.594667-42.5472 135.4752 135.4752 0 0 1-9.6256-8.277333A260.7616 260.7616 0 0 1 307.029333 827.733333z m69.802667-41.181866l-0.9728-0.955734a73.949867 73.949867 0 0 0-12.834133-10.3936l-2.116267-1.3312 2.048-1.365333c7.406933-5.154133 13.9264-11.4688 19.319467-18.688 5.870933-7.560533 10.6496-15.906133 14.199466-24.797867l0.6144-1.570133 1.536 0.682667c6.007467 2.56 12.356267 4.317867 18.824534 5.188266l2.286933 0.341334-1.1264 2.048a65.8432 65.8432 0 0 1-8.192 11.776h81.134933l-1.143466 2.3552c-1.7408 3.4816-7.031467 15.069867-15.735467 34.423466l-0.546133 1.2288-1.297067-0.341333a151.688533 151.688533 0 0 0-17.3056-3.4816l-2.1504-0.290133 0.904533-1.979734c2.4576-5.461333 4.7104-10.3424 6.741334-14.5408h-63.112534a100.744533 100.744533 0 0 1-19.968 20.923734l-1.109333 0.768z m-10.0864-12.8c3.703467 2.56 7.168 5.4272 10.3936 8.584533a103.2704 103.2704 0 0 0 18.705067-20.0704l0.477866-0.648533h69.870934l-1.160534 2.338133c-2.048 4.1472-4.4032 9.1136-6.9632 14.779733 4.096 0.6144 8.840533 1.604267 14.250667 2.935467 6.997333-15.5648 11.7248-25.9584 14.097067-30.976h-83.541334l2.730667-2.747733c3.498667-3.549867 6.536533-7.509333 9.079467-11.776a76.919467 76.919467 0 0 1-15.837867-4.4032 106.496 106.496 0 0 1-14.0288 24.064c-5.12 6.826667-11.2128 12.868267-18.0736 17.954133v-0.034133z m-19.114667 1.4848l-1.348266-1.024a437.572267 437.572267 0 0 0-37.4784-24.661334l-1.774934-1.058133 1.467734-1.450667c3.754667-3.7888 7.2192-7.850667 10.325333-12.1856l0.887467-1.28 1.297066 0.853334c5.341867 3.584 17.988267 11.639467 37.5808 23.8592l1.706667 1.0752-1.4336 1.4336c-3.84 3.9936-7.287467 8.362667-10.2912 13.021866l-0.938667 1.4336z m-35.4304-27.409067c14.1824 8.567467 25.838933 16.213333 34.645334 22.784 2.525867-3.754667 5.3248-7.304533 8.362666-10.632533a1707.741867 1707.741867 0 0 1-34.696533-22.016 103.594667 103.594667 0 0 1-8.2944 9.898666v-0.034133z m249.344 30.395733v118.510934c0 14.7456 0.290133 27.118933 0.8704 37.137066H544.938667a365.397333 365.397333 0 0 0 1.757866-35.3792v-92.8256c-4.096 7.68-9.642667 17.117867-16.622933 28.296534a43.3664 43.3664 0 0 0-11.3664-13.2608c7.168-11.298133 13.738667-22.954667 19.677867-34.935467a175.786667 175.786667 0 0 0 17.92-54.3744c6.741333 3.293867 13.755733 5.973333 20.992 7.953067-4.061867 4.727467-9.301333 17.698133-15.701334 38.894933h-0.034133z m44.612267 23.893334a211.729067 211.729067 0 0 0-1.7408 31.829333v54.818133c5.034667-3.362133 9.728-7.202133 13.994667-11.485866 1.024 5.512533 2.798933 10.871467 5.239466 15.906133a188.757333 188.757333 0 0 0-29.730133 23.893333 87.210667 87.210667 0 0 0-10.496-13.277866c4.8128-4.539733 7.1168-11.144533 6.144-17.681067v-69.8368c-6.434133 0-12.544 0.290133-18.3808 0.887467v-15.9232c7.5776 0.597333 14.574933 0.887467 20.992 0.887466h14.0288l-0.0512-0.034133z m2.628267-38.485334c2.321067 6.792533 4.369067 13.141333 6.144 19.012267-5.239467 1.774933-10.496 3.84-15.752534 6.1952-2.935467-12.919467-6.741333-25.6-11.3664-38.024533 5.051733-1.518933 10.018133-3.2768 14.882134-5.290667 1.7408 5.290667 3.7888 11.3664 6.126933 18.141867l-0.034133-0.034134z m46.370133-33.160533h16.622933c-0.597333 6.485333-0.887467 15.325867-0.887466 26.538667 5.256533 0 11.383467-0.290133 18.3808-0.887467v15.018667a205.892267 205.892267 0 0 0-18.3808-0.8704v31.829333h6.144c12.834133-22.3744 20.701867-39.765333 23.620266-52.1728l19.2512 8.840533c-5.802667 5.393067-10.308267 12.049067-13.124266 19.456a281.258667 281.258667 0 0 1-12.2368 23.893334h9.608533c8.157867 0 15.752533-0.290133 22.749867-0.904534v15.940267a156.910933 156.910933 0 0 0-25.361067-1.774933h-14.848c-4.676267 5.905067-9.6256 12.3904-14.882133 19.456h39.355733c-0.597333 8.840533-0.887467 25.361067-0.8704 49.527466-0.426667 15.36 0.170667 30.72 1.7408 45.9776h-16.605867v-12.373333h-41.130666v15.9232h-16.622934c1.160533-7.082667 1.7408-30.958933 1.757867-71.6288-4.676267 3.5328-9.6256 7.68-14.865067 12.373333a153.668267 153.668267 0 0 0-12.253866-14.148266 141.585067 141.585067 0 0 0 27.136-15.906134 110.267733 110.267733 0 0 0-1.757867-9.728h13.141333a118.613333 118.613333 0 0 0 17.476267-19.456h-21.8624a170.154667 170.154667 0 0 0-27.136 1.757867v-15.906133c6.997333 0.597333 14.574933 0.8704 22.7328 0.8704h13.994667v-31.829334c-9.335467 0-17.783467 0.290133-25.361067 0.887467v-15.018667c7.5776 0.580267 16.042667 0.887467 25.361067 0.8704 0-10.615467-0.273067-19.456-0.853334-26.5216l-0.034133-0.034133z m40.2432 137.966933v-20.343466h-41.130667v20.343466h41.130667z m0 36.2496v-22.971733h-41.130667v22.9888h41.130667v-0.017067z m-39.5264 30.788267h-20.104533l0.3072-1.877333c1.109333-6.826667 1.706667-29.696 1.7408-68.096a249.856 249.856 0 0 0-12.219734 10.325333l-1.28 1.143467-1.024-1.365334a152.661333 152.661333 0 0 0-12.117333-13.994666l-1.655467-1.6896 2.1504-0.938667c9.198933-4.096 17.92-9.198933 26.043734-15.172267a98.56 98.56 0 0 0-1.5872-8.6016l-0.512-1.9968h14.5408c5.461333-4.983467 10.478933-10.410667 15.018666-16.2304h-18.773333a170.615467 170.615467 0 0 0-26.845867 1.7408l-1.8432 0.324267v-19.592533l1.723734 0.1536c7.509333 0.6144 15.0528 0.904533 22.596266 0.887466h12.407467v-28.603733c-7.8848 0-15.7696 0.290133-23.637333 0.8704l-1.723734 0.136533v-18.5344l1.706667 0.136534c7.867733 0.580267 15.752533 0.8704 23.637333 0.8704 0-9.728-0.3072-18.090667-0.853333-24.7808l-0.136533-1.7408h20.104533l-0.170667 1.757866c-0.546133 6.0928-0.836267 14.199467-0.853333 24.763734 4.932267-0.034133 10.496-0.341333 16.622933-0.853334l1.7408-0.170666v17.749333c3.4304-7.236267 6.178133-14.779733 8.192-22.528l0.443734-1.911467 23.552 10.820267-2.235734 1.621333c-5.597867 5.239467-9.898667 11.6736-12.629333 18.8416-4.096 8.738133-7.714133 15.957333-10.888533 21.572267h6.826666c8.192 0 15.803733-0.3072 22.596267-0.887467l1.7408-0.136533v19.575467l-1.860267-0.324267a157.098667 157.098667 0 0 0-25.088-1.7408h-14.097066c-4.215467 5.358933-8.362667 10.752-12.458667 16.2304h37.888l-0.1024 1.706667c-0.597333 8.704-0.887467 24.917333-0.887467 49.425066-0.4096 15.2576 0.170667 30.5152 1.7408 45.704534l0.341334 1.877333h-20.138667v-12.373333H655.872v15.9232-0.017067z m-16.384-3.2256h13.192533v-15.906133h44.305067v12.424533h13.141333a416.119467 416.119467 0 0 1-1.450666-44.373333c0-23.074133 0.238933-38.775467 0.768-47.906134h-40.874667l1.928533-2.56c4.864-6.587733 9.8304-13.073067 14.8992-19.5072l0.477867-0.597333h15.633067c7.953067-0.068267 15.906133 0.426667 23.790933 1.4848v-12.288c-6.468267 0.512-13.550933 0.750933-21.162667 0.750933h-12.424533l1.450667-2.4576c3.4304-5.751467 7.5264-13.755733 12.168533-23.722666 2.7648-6.741333 6.690133-12.970667 11.605333-18.363734l-15.189333-6.9632a232.004267 232.004267 0 0 1-23.313067 50.688l-0.477866 0.802134h-8.618667V768.682667h1.5872c5.2736 0 10.9056 0.238933 16.776533 0.7168v-11.502934c-6.1952 0.512-11.844267 0.733867-16.776533 0.733867h-1.5872v-1.604267c0-10.461867 0.238933-18.6368 0.7168-24.917333h-13.1584c0.477867 6.843733 0.733867 15.2064 0.733867 24.917333v1.604267h-1.5872c-8.7552 0-16.725333-0.256-23.773867-0.750933v11.554133c7.202133-0.512 15.189333-0.750933 23.773867-0.750933h1.5872v35.054933h-15.581867c-7.611733 0-14.6944-0.256-21.162667-0.750933v12.288a182.784 182.784 0 0 1 25.531734-1.501867h24.866133l-1.655467 2.525867c-5.1712 7.202133-11.127467 13.824-17.749333 19.729066l-0.4608 0.426667h-11.741867c0.443733 2.116267 0.8704 4.7104 1.3312 7.8848l0.136534 0.955733-0.768 0.580267a144.725333 144.725333 0 0 1-25.326934 15.138133c3.242667 3.413333 6.485333 7.168 9.728 11.281067 4.437333-3.959467 9.0112-7.7312 13.7216-11.332267l2.56-1.9456v3.242667c-0.034133 37.495467-0.546133 60.996267-1.536 70.007467l-0.034133-0.034134z m33.006933-131.754667h3.584c5.8368-10.24 10.632533-19.456 14.3872-27.613866l-1.365333-0.119467a212.138667 212.138667 0 0 0-16.64-0.853333v28.586666h0.034133z m-108.373333 134.980267h-20.957867l0.170667-1.774933c1.160533-11.776 1.7408-23.637333 1.7408-35.208534v-86.5792c-3.703467 6.656-8.277333 14.318933-13.653333 22.920534l-1.399467 2.218666-1.348267-2.2528a42.0864 42.0864 0 0 0-10.922666-12.8l-1.28-0.938666 0.904533-1.297067c7.1168-11.246933 13.653333-22.8352 19.575467-34.7648 8.823467-16.861867 14.848-35.054933 17.800533-53.8624l0.341333-2.184533 1.9456 0.9728c6.656 3.259733 13.585067 5.905067 20.718934 7.867733l2.440533 0.699733-1.672533 1.911467c-3.908267 4.522667-9.079467 17.339733-15.36 38.0928v118.272c0 15.018667 0.3072 27.136 0.887466 37.034667l0.068267 1.672533z m-17.442133-3.2256h14.062933a681.096533 681.096533 0 0 1-0.785067-35.515733l0.0512-118.971734c3.310933-13.073067 8.209067-25.685333 14.609067-37.546666a124.8256 124.8256 0 0 1-17.083733-6.4512 178.176 178.176 0 0 1-17.749334 52.736c-8.413867 16.1792-14.779733 27.528533-18.944 33.792 3.601067 3.0208 6.7072 6.6048 9.181867 10.581333a464.725333 464.725333 0 0 0 15.223467-26.026667l3.003733-5.632v99.259734c0.034133 11.281067-0.477867 22.562133-1.536 33.792h-0.034133z m47.0528-12.544l-1.143467-1.7408a85.947733 85.947733 0 0 0-10.2912-13.021867l-1.2288-1.2288 1.297067-1.1264c4.437333-4.1984 6.536533-10.308267 5.5808-16.349866v-68.334934c-5.7344 0.0512-11.3152 0.341333-16.622934 0.8704l-1.7408 0.170667v-19.456l1.706667 0.136533c7.389867 0.597333 14.3872 0.904533 20.872533 0.904534h15.872l-0.3072 1.877333a212.650667 212.650667 0 0 0-1.7408 31.573333v51.729067c4.010667-2.8672 7.7824-6.058667 11.264-9.557333l2.0992-2.1504 0.580267 2.986666c1.024 5.358933 2.730667 10.581333 5.12 15.496534l0.631467 1.262933-1.143467 0.785067c-10.581333 6.877867-20.445867 14.7968-29.44 23.637333l-1.365333 1.536z m-8.021334-15.872c3.072 3.328 5.870933 6.877867 8.413867 10.615467 8.533333-8.021333 17.732267-15.325867 27.4944-21.8112a63.9488 63.9488 0 0 1-4.164267-12.219734c-3.771733 3.549867-7.850667 6.775467-12.151466 9.659734l-2.491734 1.6896v-57.856c-0.1536-10.103467 0.341333-20.189867 1.4848-30.208h-12.117333c-6.075733 0-12.5952-0.256-19.421867-0.768v12.407466c5.5808-0.494933 11.178667-0.733867 16.776534-0.7168h1.604266v71.4752a22.186667 22.186667 0 0 1-5.410133 17.7664l-0.034133-0.034133z m111.274667 2.440533h-44.305067V880.128h44.305067v26.2144-0.068267z m-41.130667-3.2256h37.9392v-19.7632H655.872v19.7632z m41.130667-33.024h-44.305067v-23.552h44.305067v23.552z m-41.130667-3.242666h37.9392v-17.1008H655.872v17.117866z m-57.856-75.6736l-0.375466-1.979734a303.4624 303.4624 0 0 0-11.3152-37.802666l-0.580267-1.621334 1.6384-0.4608c3.976533-1.143467 8.942933-2.901333 14.728533-5.256533l1.570134-0.648533 0.512 1.6384c1.9968 6.058667 4.027733 12.0832 6.109866 18.090666 2.4064 7.048533 4.437333 13.294933 6.144 19.114667l0.4608 1.4848-1.4848 0.512c-5.12 1.7408-10.376533 3.7888-15.598933 6.144l-1.792 0.785067z m-8.106666-39.253334c4.1472 11.349333 7.645867 22.9376 10.4448 34.696534 4.130133-1.826133 8.3456-3.464533 12.5952-4.949334a527.8208 527.8208 0 0 0-5.632-17.442133 1331.729067 1331.729067 0 0 1-5.5808-16.5376 142.506667 142.506667 0 0 1-11.810134 4.283733l-0.017066-0.034133z m154.504533 78.523734c16.0256-1.3824 31.9488-3.754667 47.684267-7.0656a145.083733 145.083733 0 0 0 41.540266-14.165334 476.023467 476.023467 0 0 1-33.2288-30.0544c-6.997333 7.0656-15.172267 14.7456-24.507733 22.9888a55.159467 55.159467 0 0 0-13.994667-9.728 184.644267 184.644267 0 0 0 53.367467-66.321066 104.618667 104.618667 0 0 0 18.363733 8.840533l-6.997333 7.082667a132.949333 132.949333 0 0 0-8.738133 10.615466h97.109333a155.272533 155.272533 0 0 1-20.565333 29.610667 200.413867 200.413867 0 0 1-30.190934 27.869867 146.261333 146.261333 0 0 0 40.686934 11.485866c15.428267 2.833067 31.146667 3.720533 46.7968 2.645334-3.447467 5.802667-6.109867 12.066133-7.867734 18.5856a720.349867 720.349867 0 0 1-52.497066-7.509334 153.9072 153.9072 0 0 1-42.8544-15.479466c-16.384 7.68-33.570133 13.602133-51.2 17.664-17.800533 4.1472-32.238933 7.389867-43.3152 9.728a38.7584 38.7584 0 0 0-9.5744-16.7424l-0.017067-0.0512z m168.840533 58.368c0 20.053333 0.290133 35.669333 0.853334 46.865066h-16.605867v-11.451733h-98.833067v11.502933h-16.622933c0.580267-11.2128 0.853333-26.845867 0.8704-46.882133 0-20.616533-0.290133-36.232533-0.8704-46.865067h132.096a910.506667 910.506667 0 0 0-0.8704 46.882134l-0.017067-0.0512z m-73.489066-12.373334v-21.230933h-41.130667v21.230933h41.130667z m0 33.604267v-20.343467h-41.130667v20.343467h41.130667z m10.496-108.765867a164.625067 164.625067 0 0 0 38.5024-36.266666h-76.970667l-2.628267 2.6624c12.8 12.270933 26.555733 23.517867 41.130667 33.621333l-0.034133-0.034133z m47.240533 75.1616v-21.230933h-41.984v21.230933h41.984z m0 33.604267v-20.343467h-41.984v20.343467h41.984z m18.312533 27.255467h-19.899733v-11.502934H800.256v11.502934h-19.9168l0.1024-1.706667c0.580267-11.229867 0.8704-26.965333 0.8704-46.762667 0-19.8144-0.290133-35.157333-0.836267-45.755733-10.018133 2.269867-18.756267 4.1984-26.112 5.751467l-1.536 0.341333-0.341333-1.570133a37.632 37.632 0 0 0-9.233067-16.059734l-2.184533-2.440533 3.242667-0.256a397.431467 397.431467 0 0 0 47.479466-7.048533 151.04 151.04 0 0 0 39.031467-12.8512c-11.9808-10.069333-22.186667-19.285333-30.395733-27.4944-7.594667 7.543467-15.4112 14.848-23.4496 21.930666l-1.024 0.9216-1.0752-0.9216a53.521067 53.521067 0 0 0-13.550934-9.472l-2.525866-1.092266 2.184533-1.655467a184.081067 184.081067 0 0 0 52.8896-65.774933l0.768-1.570134 1.501867 0.904534c5.7344 3.4816 11.776 6.4 18.090666 8.704l2.3552 0.853333-8.789333 8.874667a106.154667 106.154667 0 0 0-6.587733 7.850666h96.477866l-1.2288 2.389334a158.378667 158.378667 0 0 1-20.7872 29.934933 201.1136 201.1136 0 0 1-28.330666 26.453333 156.125867 156.125867 0 0 0 37.888 10.24c15.3088 2.798933 30.890667 3.6864 46.421333 2.645334l3.140267-0.273067-1.621334 2.730667c-3.362133 5.666133-5.956267 11.776-7.68 18.141866l-0.341333 1.3312-1.365333-0.136533a1047.210667 1047.210667 0 0 1-27.921067-3.515733l-0.068267 1.109333c-0.580267 10.496-0.8704 25.787733-0.8704 46.762667a948.906667 948.906667 0 0 0 0.8704 46.7968v1.6896z m-16.725333-3.2256h13.346133a1020.177067 1020.177067 0 0 1-0.785066-45.2608c0-19.9168 0.256-34.7648 0.785066-45.2608h-128.699733c0.512 10.6496 0.785067 25.856 0.785067 45.2608 0 18.8928-0.273067 34.0992-0.785067 45.2608h13.346133v-11.502934h102.007467v11.502934z m-151.432533-102.280534c3.396267 3.9936 5.973333 8.6016 7.560533 13.585067 11.042133-2.372267 25.088-5.5296 41.7792-9.403733a255.197867 255.197867 0 0 0 50.858667-17.578667l0.7168-0.341333 0.682666 0.3584c13.312 7.202133 27.613867 12.356267 42.427734 15.325866 13.653333 2.56 30.8224 5.0688 51.029333 7.355734 1.501867-5.188267 3.566933-10.205867 6.144-14.967467-14.7968 0.699733-29.610667-0.273067-44.1856-2.901333a148.957867 148.957867 0 0 1-41.130667-11.639467l-2.304-1.194667 2.065067-1.553066a199.867733 199.867733 0 0 0 29.934933-27.648 155.460267 155.460267 0 0 0 19.080534-26.948267h-97.672534l1.9968-2.594133c2.781867-3.754667 5.7344-7.338667 8.891734-10.752l5.239466-5.307734a106.496 106.496 0 0 1-14.813866-7.202133 186.948267 186.948267 0 0 1-51.012267 63.744c3.925333 2.218667 7.611733 4.881067 10.990933 7.918933 8.021333-7.082667 15.803733-14.421333 23.364267-21.981866l1.1264-1.160534 1.1264 1.160534c8.704 8.8064 19.882667 18.8928 33.1264 29.952l1.809067 1.536-2.048 1.143466a147.012267 147.012267 0 0 1-42.018134 14.336c-14.779733 3.089067-29.713067 5.358933-44.7488 6.792534v-0.034134z m44.7488 8.533334h119.2448a523.656533 523.656533 0 0 1-20.565334-3.413334 155.357867 155.357867 0 0 1-42.615466-15.274666c-16.2816 7.560533-33.28 13.4144-50.773334 17.4592-1.774933 0.4608-3.566933 0.8704-5.290666 1.28v-0.0512z m106.683733 71.3728h-45.175467v-23.552h45.175467v23.552z m-41.984-3.242667h38.8096v-17.1008H857.088v17.117867z m-15.735467 3.242667h-44.305066v-23.552h44.305066v23.552z m-41.130666-3.242667h37.9392v-17.1008H800.256v17.117867h-0.034133z m98.850133-30.378667h-45.175467v-24.439466h45.175467v24.456533z m-41.984-3.208533h38.8096v-18.005333H857.088v18.005333z m-15.735467 3.2256h-44.305066v-24.456533h44.305066v24.456533z m-41.130666-3.2256h37.9392v-18.005333H800.256v18.005333h-0.017067z m49.988266-71.6288l-0.853333-0.597333a343.552 343.552 0 0 1-41.335467-33.774934l-1.194666-1.1264 4.266666-4.3008h81.032534l-2.1504 2.645334a166.6048 166.6048 0 0 1-38.877867 36.590933l-0.887467 0.5632z m-38.775466-35.566933a339.524267 339.524267 0 0 0 38.8608 31.6928 160.836267 160.836267 0 0 0 35.037866-32.699734h-72.9088l-0.989866 1.024zM860.228267 316.0064l-13.550934 20.650667-75.127466-50.090667V691.2H732.16V356.317867H293.9904V691.2H249.685333V283.904l-72.328533 47.8208-13.585067-20.5312L510.549333 81.92l3.072 4.642133 0.7168-1.109333 345.890134 230.5536z m-246.2208 0.9216H732.16v-19.712h-118.152533v19.712zM412.16 297.216h-118.1696v19.712h118.1696v-19.712z m44.305067 19.712h118.152533v-19.712h-118.152533v19.712z m231.389866 103.424h-354.474666v-19.712h354.474666v19.712z m0 78.7968h-354.474666v-19.712h354.474666V499.1488z m0 73.864533h-354.474666v-19.694933h354.474666v19.694933z m0 78.7968h-354.474666v-19.694933h354.474666v19.694933z" fill="#00FF00" /></svg>