<?xml version="1.0" standalone="no"?><!DOCTYPE svg PUBLIC "-//W3C//DTD SVG 1.1//EN" "http://www.w3.org/Graphics/SVG/1.1/DTD/svg11.dtd"><svg class="icon" width="1000px" height="1000.00px" viewBox="0 0 1024 1024" version="1.1" xmlns="http://www.w3.org/2000/svg"><path d="M0 1024V0h1024v1024H0zM992 32H32v960h960V32z" fill="#00FF00" /><path d="M132.744533 743.714133c6.4 0 14.250667-0.290133 23.586134-0.853333v16.64a479.214933 479.214933 0 0 0-29.696-0.887467v48.213334c8.1408 0 16.896-0.3072 26.2144-0.887467v16.657067a432.042667 432.042667 0 0 0-26.2144-0.887467v53.469867c9.898667-2.338133 20.104533-5.256533 30.583466-8.772267-0.546133 5.5296-0.836267 11.093333-0.8704 16.657067-19.217067 4.676267-34.645333 9.045333-46.301866 13.141333a243.712 243.712 0 0 0-26.2144 10.513067 89.565867 89.565867 0 0 0-7.031467-21.026134 385.5872 385.5872 0 0 0 34.082133-6.144v-57.856c-9.335467 0-18.363733 0.290133-27.0848 0.8704v-16.622933c8.738133 0.597333 17.749333 0.887467 27.0848 0.887467V758.613333c-10.496 0-19.797333 0.290133-27.9552 0.887467v-16.657067c6.997333 0.597333 13.687467 0.887467 20.087467 0.8704h29.730133z m93.047467 57.856c-0.989867 15.018667-2.901333 29.934933-5.666133 44.714667h17.476266c-0.597333 5.8368-0.887467 13.7216-0.887466 23.6544v28.040533c0 8.7552 1.604267 13.4144 4.8128 14.011734 3.601067 0.597333 7.2704 0.750933 10.922666 0.443733a9.864533 9.864533 0 0 0 8.738134-6.144c2.269867-6.621867 3.447467-13.585067 3.4816-20.599467a54.101333 54.101333 0 0 0 19.234133 7.0144 86.664533 86.664533 0 0 1-8.738133 24.968534c-2.901333 4.386133-9.045333 7.168-18.346667 8.328533h-17.476267c-12.834133 0-19.234133-5.546667-19.234133-16.64v-61.354667a132.727467 132.727467 0 0 1-22.698667 46.882134 138.717867 138.717867 0 0 1-44.544 34.6112 35.669333 35.669333 0 0 0-14.848-12.288 120.251733 120.251733 0 0 0 41.045334-24.968534 99.037867 99.037867 0 0 0 20.992-34.628266c5.256533-14.045867 8.362667-28.8256 9.181866-43.810134 0.8704-15.189333 1.024-30.378667 0.443734-45.568 7.560533 1.1776 14.557867 2.048 20.992 2.628267a119.330133 119.330133 0 0 0-4.881067 30.685867v0.017066z m42.376533-38.5536v58.709334c0 11.1104 0.3072 20.753067 0.887467 28.928h-16.605867v-101.6832H186.026667v102.536533h-16.605867c0.580267-9.915733 0.8704-21.009067 0.8704-33.28V770.048c0-12.834133-0.290133-24.5248-0.853333-35.054933h99.601066a434.056533 434.056533 0 0 0-0.887466 28.023466v0.017067z m-115.882666 168.6016l-0.802134-1.28c-3.584-5.102933-8.4992-9.130667-14.216533-11.656533l-3.140267-1.604267 3.242667-1.3312a118.971733 118.971733 0 0 0 40.533333-24.593066 97.570133 97.570133 0 0 0 20.6336-34.082134 147.524267 147.524267 0 0 0 9.079467-43.349333c0.853333-15.0016 1.024-30.276267 0.443733-45.397333l-0.085333-1.9456 1.911467 0.290133c7.509333 1.160533 14.506667 2.048 20.855466 2.628267l2.082134 0.170666-0.7168 1.962667a118.596267 118.596267 0 0 0-4.7104 30.208 379.101867 379.101867 0 0 1-5.358934 43.008h17.322667l-0.170667 1.757867a245.248 245.248 0 0 0-0.887466 23.5008v28.040533c0 10.24 2.218667 12.202667 3.515733 12.4416 3.4816 0.5632 6.997333 0.699733 10.530133 0.426667a8.260267 8.260267 0 0 0 7.389867-5.2224c2.184533-6.434133 3.310933-13.192533 3.362133-20.002134l0.1536-2.645333 2.2528 1.365333a52.565333 52.565333 0 0 0 18.670934 6.792534l1.672533 0.290133-0.392533 1.672533a87.330133 87.330133 0 0 1-8.977067 25.4976c-3.208533 4.829867-9.5744 7.7824-19.456 9.045334h-17.681067c-17.2032 0-20.821333-9.9328-20.821333-18.261334V858.453333a127.812267 127.812267 0 0 1-19.882667 37.4272A141.192533 141.192533 0 0 1 153.6 930.935467l-1.297067 0.682666z m-10.581334-14.199466c4.5568 2.4576 8.533333 5.870933 11.656534 9.984a136.0896 136.0896 0 0 0 42.8032-33.518934 131.310933 131.310933 0 0 0 22.340266-46.0288h-0.3072l0.341334-1.8944a374.784 374.784 0 0 0 5.666133-44.4928 132.130133 132.130133 0 0 1 4.2496-29.184 334.984533 334.984533 0 0 1-17.152-2.167466c0.512 14.609067 0.324267 29.3376-0.512 43.793066a151.04 151.04 0 0 1-9.2672 44.288 101.102933 101.102933 0 0 1-21.333333 35.157334 117.691733 117.691733 0 0 1-38.468267 24.064z m79.991467-69.546667v61.508267c0 10.120533 5.768533 15.0528 17.629867 15.0528h17.493333c8.6016-1.109333 14.3872-3.669333 17.032533-7.6288 3.805867-7.150933 6.5536-14.848 8.106667-22.801067a56.354133 56.354133 0 0 1-15.872-5.632c-0.136533 6.3488-1.314133 12.629333-3.464533 18.602667a11.400533 11.400533 0 0 1-10.069334 7.0656 47.701333 47.701333 0 0 1-11.332266-0.443734c-5.4784-1.024-6.109867-9.386667-6.109867-15.616v-28.040533c0-9.181867 0.238933-16.4352 0.7168-22.0672h-14.1312z m-139.008 61.218133l-0.443733-2.048a88.0128 88.0128 0 0 0-6.8608-20.650666l-0.989867-2.048 2.218667-0.273067a382.464 382.464 0 0 0 32.699733-5.8368v-54.903467c-8.482133 0.017067-16.9472 0.3072-25.3952 0.853334l-1.706667 0.136533v-20.087467l1.706667 0.136534c8.021333 0.546133 16.554667 0.8192 25.3952 0.853333v-44.970667c-9.728 0-18.5344 0.3072-26.2656 0.853334l-1.706667 0.136533v-20.104533l1.7408 0.136533c6.792533 0.580267 13.482667 0.8704 19.968 0.8704h29.696c6.485333 0 14.404267-0.290133 23.5008-0.8704l1.6896-0.119467v20.0704l-1.706666-0.119466a468.189867 468.189867 0 0 0-28.0064-0.853334v44.970667c8.192-0.0512 16.366933-0.341333 24.5248-0.853333l1.6896-0.119467V824.32l-1.6896-0.119467c-8.157867-0.512-16.349867-0.785067-24.5248-0.853333v49.800533c9.608533-2.338133 19.114667-5.085867 28.501333-8.2432l2.304-0.768-0.221867 2.423467c-0.580267 6.2464-0.8704 11.776-0.8704 16.520533v1.262934l-1.2288 0.3072c-19.114667 4.642133-34.645333 9.045333-46.148266 13.090133-8.874667 2.9696-17.5616 6.4512-26.026667 10.4448l-1.8432 0.904533z m-3.4816-22.101333c2.474667 5.597867 4.386133 11.434667 5.717333 17.408 5.802667-2.730667 14.062933-6.007467 24.576-9.728 11.383467-3.9936 26.589867-8.328533 45.2608-12.9024 0.034133-3.874133 0.256-8.260267 0.648534-13.090133-9.728 3.1744-19.2512 5.888-28.416 8.021333l-1.9456 0.477867v-57.053867h1.5872c7.5776 0 15.872 0.238933 24.6272 0.768v-13.243733c-8.567467 0.512-16.827733 0.768-24.6272 0.768h-1.604267v-51.4048h1.604267c9.728 0 19.2 0.256 28.1088 0.785066v-13.243733c-8.448 0.512-15.872 0.768-22.016 0.768h-29.696c-5.9904 0-12.202667-0.256-18.517334-0.733867v13.175467c7.816533-0.512 16.674133-0.750933 26.368-0.750933h1.604267v51.387733h-1.5872c-8.840533 0-17.408-0.256-25.4976-0.768v13.243733c8.4992-0.512 16.9984-0.785067 25.4976-0.768h1.5872v60.7232l-1.245867 0.273067a406.186667 406.186667 0 0 1-32.034133 5.888z m108.424533-33.877333H167.765333l0.1024-1.706667c0.5632-9.9328 0.853333-21.0944 0.853334-33.194667v-48.196266c0-12.680533-0.290133-24.439467-0.853334-34.9696l-0.1024-1.6896h102.997334l-0.1024 1.706666a443.579733 443.579733 0 0 0-0.8704 27.938134v58.709333c0 11.3152 0.290133 20.736 0.8704 28.808533l0.119466 1.706667H250.88V750.592h-63.249067v102.536533-0.017066z m-16.503466-3.191467h13.312v-102.536533h69.597866v101.649066h13.312a419.328 419.328 0 0 1-0.750933-27.306666v-58.709334c0-8.925867 0.256-17.8176 0.768-26.453333h-96.256c0.512 10.154667 0.785067 21.4016 0.785067 33.450667v48.196266c0 11.485867-0.238933 22.1184-0.768 31.709867z m162.577066-97.4336c0-6.417067-0.290133-14.592-0.853333-24.541867h18.3296a450.372267 450.372267 0 0 0-0.8704 24.541867v32.4096c8.738133 0 17.749333-0.290133 27.0848-0.887467v15.786667a511.488 511.488 0 0 0-27.0848-0.887467v64c6.4-2.321067 16.008533-6.417067 28.842667-12.288-0.017067 5.290667 0.273067 10.5472 0.853333 15.786667-9.898667 4.676267-21.845333 9.796267-35.84 15.36-11.997867 4.608-23.671467 10.0352-34.935467 16.213333a100.5056 100.5056 0 0 0-10.496-17.527466c10.478933-2.901333 22.135467-6.7072 34.952534-11.400534v-70.126933c-12.834133 0-23.022933 0.290133-30.583467 0.887467v-15.786667c9.898667 0.597333 20.087467 0.887467 30.583467 0.887467v-32.426667h0.017066z m154.658134-21.9136v14.0288a60.535467 60.535467 0 0 0-26.624 15.7696c-9.608533 8.772267-22.5792 21.0432-38.877867 36.8128h78.609067c-0.597333 4.096-1.1776 13.448533-1.7408 28.040533l-3.498667 65.723734c-0.597333 14.609067-3.652267 23.671467-9.181867 27.170133-5.5296 3.498667-15.274667 5.8368-29.269333 6.997333a62.225067 62.225067 0 0 0-7.850667-21.026133c12.219733 1.1776 20.087467 0.887467 23.586134-0.8704a13.038933 13.038933 0 0 0 6.109866-11.400533l3.498667-79.735467h-16.605867c-2.269867 14.865067-5.768533 29.525333-10.478933 43.810133a139.502933 139.502933 0 0 1-14.421333 30.242134 106.069333 106.069333 0 0 1-18.773334 21.896533c-8.192 6.997333-16.964267 13.312-26.231466 18.8416a43.008 43.008 0 0 0-12.219734-14.8992c9.6768-5.12 18.773333-11.264 27.0848-18.397867a90.504533 90.504533 0 0 0 20.087467-24.541866 119.808 119.808 0 0 0 11.776-29.781334c2.628267-10.530133 4.522667-19.575467 5.6832-27.170133h-17.4592a105.813333 105.813333 0 0 1-7.424 26.7264 113.032533 113.032533 0 0 1-16.162133 26.7264 143.138133 143.138133 0 0 1-27.0848 25.429333 46.506667 46.506667 0 0 0-13.1072-13.1584 85.111467 85.111467 0 0 0 32.768-30.6688c6.997333-10.581333 11.605333-22.528 13.533866-35.054933a104.618667 104.618667 0 0 0-13.1072 1.757867c-2.338133 0.580267-6.109867 1.7408-11.349333 3.498666a165.768533 165.768533 0 0 0-5.239467-17.527466c9.898667-1.160533 21.4016-7.7312 34.5088-19.712a680.6528 680.6528 0 0 0 35.3792-34.628267h-33.194666c-12.834133 0-24.7808 0.290133-35.84 0.887467v-16.657067c10.478933 0.597333 22.135467 0.887467 34.952533 0.8704h68.164267zM395.946667 929.160533l-0.785067-1.570133a41.437867 41.437867 0 0 0-11.776-14.336l-1.9456-1.536 2.184533-1.160533a147.729067 147.729067 0 0 0 26.794667-18.210134 89.258667 89.258667 0 0 0 19.746133-24.098133c5.188267-9.233067 9.096533-19.114667 11.656534-29.405867 2.3552-9.557333 4.181333-17.988267 5.341866-25.173333h-14.216533a109.141333 109.141333 0 0 1-7.355733 25.7536 114.978133 114.978133 0 0 1-16.384 27.101867 145.169067 145.169067 0 0 1-27.392 25.7024l-1.450667 1.058133-0.887467-1.536a45.141333 45.141333 0 0 0-12.6464-12.6464l-2.048-1.501867 2.218667-1.194666c4.164267-2.269867 8.174933-4.864 11.946667-7.748267-9.642667 4.522667-21.1456 9.403733-34.184534 14.574933-11.946667 4.608-23.552 9.984-34.7648 16.110934l-1.536 0.853333-0.7168-1.5872a99.328 99.328 0 0 0-10.325333-17.237333l-1.3312-1.877334 2.218667-0.6144a465.8688 465.8688 0 0 0 33.792-10.9568v-67.3792c-11.946667 0-21.640533 0.3072-28.8768 0.853334l-1.706667 0.136533V782.336l1.672533 0.1024c9.6256 0.580267 19.268267 0.853333 28.910934 0.8704v-30.8224c0-6.263467-0.3072-14.4896-0.887467-24.439467l-0.1024-1.6896h21.725867l-0.085334 1.706667a461.141333 461.141333 0 0 0-0.8704 24.4224v30.8224c8.465067-0.034133 16.9472-0.341333 25.3952-0.853333l1.6896-0.119467v19.165867l-1.6896-0.085334c-9.728-0.512-18.2784-0.836267-25.3952-0.853333v60.040533c6.331733-2.423467 15.2576-6.2464 26.589867-11.4176l2.235733-1.024v2.491734c0 5.205333 0.290133 10.410667 0.8704 15.581866l0.034134 0.3072a81.339733 81.339733 0 0 0 17.5616-20.241066 89.207467 89.207467 0 0 0 13.056-32.426667 90.1632 90.1632 0 0 0-10.871467 1.536c-2.389333 0.6144-6.144 1.792-11.264 3.4816l-1.6384 0.546133-0.4096-1.672533a169.642667 169.642667 0 0 0-5.205333-17.3568l-0.7168-1.928533 2.048-0.238934c9.5232-1.109333 20.821333-7.594667 33.621333-19.285333 11.264-10.257067 22.186667-20.872533 32.733867-31.8464h-29.457067a691.2 691.2 0 0 0-35.754667 0.8704l-1.672533 0.1024v-20.036267l1.706667 0.085334c10.24 0.597333 21.947733 0.887467 34.850133 0.887466h69.7344v16.913067l-1.262933 0.273067a59.477333 59.477333 0 0 0-25.890134 15.394133c-9.096533 8.260267-21.162667 19.694933-36.010666 34.013867h76.509866l-0.273066 1.8432c-0.5632 3.976533-1.143467 13.346133-1.723734 27.869866l-3.498666 65.7408c-0.6144 15.291733-3.857067 24.593067-9.898667 28.450134-5.802667 3.652267-15.633067 6.0416-30.0032 7.236266l-1.467733 0.136534-0.238934-1.501867a61.098667 61.098667 0 0 0-7.68-20.48l-1.536-2.7136 3.106134 0.290133c4.8128 0.477867 8.994133 0.7168 12.424533 0.7168 3.498667 0.273067 6.997333-0.221867 10.2912-1.4336a11.4688 11.4688 0 0 0 5.239467-10.103466l3.413333-77.994667h-13.585067c-2.269867 14.506667-5.7344 28.808533-10.325333 42.752a141.824 141.824 0 0 1-14.592 30.583467 107.895467 107.895467 0 0 1-19.080533 22.237866c-8.260267 7.048533-17.1008 13.4144-26.436267 18.9952l-1.467733 0.9216z m-8.704-16.896c4.0448 3.4816 7.424 7.68 10.001066 12.3392 8.635733-5.256533 16.8448-11.195733 24.541867-17.7664 7.1168-6.314667 13.346133-13.585067 18.500267-21.589333a138.513067 138.513067 0 0 0 14.2336-29.883733c4.676267-14.199467 8.157867-28.7744 10.410666-43.554134l0.238934-1.3312h19.626666l-0.085333 1.672534-3.515733 79.752533a14.660267 14.660267 0 0 1-6.997334 12.7488c-3.584 1.774933-10.513067 2.167467-21.435733 1.314133 2.952533 5.461333 5.0688 11.349333 6.314667 17.442134a65.706667 65.706667 0 0 0 27.101866-6.656c5.034667-3.1744 7.850667-11.895467 8.430934-25.873067l3.498666-65.7408c0.512-12.936533 1.024-21.6064 1.536-26.368h-80.7936l2.850134-2.747733a2066.090667 2066.090667 0 0 1 38.912-36.864 64.6144 64.6144 0 0 1 26.112-15.872V732.16h-66.56c-12.458667 0-23.381333-0.256-33.348267-0.785067v13.277867c10.666667-0.512 22.186667-0.785067 34.218667-0.785067h36.9152l-2.56 2.696534c-10.410667 11.042133-22.357333 22.715733-35.464534 34.696533-12.4416 11.383467-23.671467 18.039467-33.416533 19.831467 1.416533 3.9936 2.816 8.738133 4.1984 14.165333 4.352-1.416533 7.68-2.440533 9.847467-2.986667 4.4032-0.887467 8.874667-1.4848 13.346133-1.809066l1.962667-0.170667-0.221867 1.9456a89.6 89.6 0 0 1-13.7728 35.720533 86.698667 86.698667 0 0 1-31.197867 30.037334c4.061867 2.9696 7.645867 6.5536 10.615467 10.615466a140.014933 140.014933 0 0 0 25.412267-24.098133c6.485333-8.004267 11.861333-16.861867 15.940266-26.350933 3.566933-8.413867 6.024533-17.2544 7.304534-26.3168l0.170666-1.365334h20.753067l-0.290133 1.8432c-1.160533 7.6288-3.072 16.810667-5.700267 27.306667a121.685333 121.685333 0 0 1-11.946667 30.208 93.115733 93.115733 0 0 1-20.445866 24.968533c-7.816533 6.656-16.264533 12.509867-25.258667 17.4592z m-85.8624-30.907733c3.242667 4.5568 6.109867 9.352533 8.584533 14.370133a300.373333 300.373333 0 0 1 33.621333-15.4624c13.312-5.290667 24.9856-10.24 34.7136-14.813866a139.9296 139.9296 0 0 1-0.733866-12.3392c-11.656533 5.290667-20.6336 9.096533-26.7264 11.298133l-2.133334 0.785067v-67.857067h1.5872c7.0656 0 15.633067 0.256 25.4976 0.785067v-12.3904c-8.6016 0.512-17.152 0.768-25.4976 0.768h-1.604266v-34.013867c0-5.700267 0.256-13.4144 0.785066-22.9376H334.506667c0.512 9.352533 0.785067 16.896 0.785066 22.9376v34.013867h-1.5872c-10.0352 0-19.7632-0.256-28.9792-0.768v12.356266c7.458133-0.512 17.186133-0.750933 28.9792-0.750933h1.5872v72.823467l-1.024 0.375466c-12.014933 4.386133-23.057067 8.021333-32.887466 10.820267zM556.544 904.533333a9.045333 9.045333 0 0 0 3.4816-8.328533v-49.066667a97.0752 97.0752 0 0 0-12.2368 4.8128c-2.9184 1.4848-8.157867 4.5568-15.735467 9.216a75.0592 75.0592 0 0 0-8.721066-18.397866c7.082667-1.672533 14.08-3.7376 20.957866-6.144 4.6592-1.7408 9.898667-3.498667 15.735467-5.256534V790.186667h-6.109867c-7.594667 0-15.172267 0.290133-22.7328 0.8704v-15.786667c6.997333 0.597333 14.574933 0.887467 22.7328 0.8704h6.109867v-26.282667c0-8.174933-0.290133-16.059733-0.8704-23.671466h18.346667c-0.597333 6.434133-0.887467 14.336-0.8704 23.671466v26.282667c7.560533 0 15.428267-0.290133 23.586133-0.8704v15.7696a359.7312 359.7312 0 0 0-23.586133-0.887467V824.32c3.2768-0.9216 6.485333-2.0992 9.608533-3.498667l12.219733-5.256533a77.533867 77.533867 0 0 0 0 16.64c-3.4816 1.1776-7.168 2.491733-10.922666 3.9424-3.754667 1.450667-7.424 3.072-10.922667 4.829867v61.3376c-0.017067 5.717333-2.218667 11.195733-6.109867 15.36-3.4816 3.208533-13.9776 5.393067-31.453866 6.570666a82.670933 82.670933 0 0 0-6.144-19.285333c13.397333 1.160533 21.265067 1.024 23.6032-0.426667h0.017066z m75.127467-174.830933c-0.597333 8.192-0.887467 18.705067-0.8704 31.556267 14.336-2.321067 28.501333-5.6832 42.376533-10.0864 8.567467-3.003733 16.896-6.656 24.900267-10.9568 2.730667 6.417067 6.929067 12.117333 12.2368 16.657066a419.498667 419.498667 0 0 0-11.776 2.628267c-4.949333 1.160533-10.922667 2.628267-17.92 4.369067-6.997333 1.757867-15.018667 3.669333-24.029867 5.700266-9.045333 2.048-17.629867 3.9424-25.8048 5.700267v19.285333c-0.597333 5.8368 4.061867 8.772267 13.9776 8.7552h42.820267c8.738133 0 14.114133-1.8944 16.162133-5.700266 2.6624-5.717333 4.573867-11.758933 5.666133-17.9712 4.9152 4.846933 10.922667 8.448 17.476267 10.530133-5.239467 13.448533-9.3184 21.179733-12.219733 23.210667a31.453867 31.453867 0 0 1-14.848 3.959466h-67.2768a16.315733 16.315733 0 0 1-14.421334-5.700266 18.432 18.432 0 0 1-3.925333-10.069334v-40.328533c0-15.189333-0.3072-25.685333-0.887467-31.5392h18.346667z m79.5136 128.8192v36.8128c0 12.270933 0.290133 21.9136 0.853333 28.910933h-17.4592v-14.011733H630.784v17.5104h-17.476267c0.580267-7.594667 0.853333-18.414933 0.8704-32.426667v-36.8128c0-13.4144-0.290133-23.637333-0.8704-30.6688h98.730667c-0.580267 7.031467-0.8704 17.237333-0.8704 30.685867z m-16.605867 3.515733v-20.155733H630.784v20.138667h63.7952z m0 34.167467V875.178667H630.784v21.026133h63.7952z m-62.190933 33.143467h-20.7872l0.119466-1.706667c0.580267-7.594667 0.887467-18.4832 0.887467-32.3072v-36.8128c0-13.2608-0.3072-23.552-0.887467-30.549333l-0.136533-1.706667h102.1952l-0.136533 1.723733c-0.580267 6.894933-0.8704 16.896-0.8704 30.532267v36.8128c0 12.458667 0.290133 21.879467 0.8704 28.7744l0.136533 1.7408h-20.7872v-14.0288h-60.6208v17.527467z m-17.3568-3.191467h14.165333V908.629333h66.9696v14.0288h14.165333c-0.512-6.826667-0.733867-15.7696-0.733866-27.323733v-36.8128c0-12.629333 0.221867-22.186667 0.7168-29.064533h-95.266134c0.477867 6.997333 0.7168 16.759467 0.7168 29.064533v36.8128c0 12.9024-0.238933 23.261867-0.750933 30.8224h0.017067z m-77.312-0.221867l-0.256-1.399466a81.783467 81.783467 0 0 0-5.9904-18.909867l-1.143467-2.491733 2.730667 0.238933c5.888 0.512 10.752 0.768 14.421333 0.768 2.781867 0.3072 5.5808-0.034133 8.192-0.9728a7.560533 7.560533 0 0 0 2.747733-6.9632v-46.830933a84.992 84.992 0 0 0-9.915733 4.010666c-2.884267 1.450667-8.123733 4.5056-15.598933 9.130667l-1.792 1.092267-0.580267-1.9968a74.376533 74.376533 0 0 0-8.5504-18.005334l-1.194667-1.877333 2.133334-0.512a206.848 206.848 0 0 0 20.821333-6.075733c4.829867-1.809067 9.728-3.464533 14.677333-4.949334v-38.4h-4.522666c-7.424 0-15.035733 0.290133-22.596267 0.8704l-1.706667 0.1536v-19.2512l1.723734 0.136534c7.509333 0.6144 15.0528 0.904533 22.5792 0.8704h4.522666V749.909333c0-8.021333-0.290133-15.957333-0.853333-23.552l-0.136533-1.723733h21.8112l-0.170667 1.7408c-0.5632 6.314667-0.853333 14.011733-0.853333 23.517867v24.6784c7.304533-0.0512 14.592-0.341333 21.879466-0.853334l1.706667-0.136533v19.2l-1.706667-0.119467c-7.287467-0.494933-14.592-0.768-21.879466-0.853333v30.446933c1.979733-0.648533 4.437333-1.604267 7.389866-2.850133l14.6944-6.314667-0.256 2.6624a76.322133 76.322133 0 0 0 0 16.298667l0.170667 1.314133-1.245867 0.4096c-3.4816 1.194667-7.1168 2.474667-10.8544 3.925334-3.362133 1.297067-6.656 2.730667-9.898666 4.334933v60.330667c-0.068267 6.144-2.440533 12.049067-6.656 16.520533-3.805867 3.498667-14.421333 5.7856-32.426667 6.997333l-1.416533 0.068267z m-2.269867-19.1488c2.1504 5.085867 3.771733 10.376533 4.881067 15.7696 20.104533-1.450667 26.9312-4.096 29.0816-6.075733 3.584-3.8912 5.5808-8.994133 5.597866-14.2848V840.021333l0.8704-0.443733c3.447467-1.723733 7.168-3.3792 11.0592-4.864 3.3792-1.314133 6.638933-2.5088 9.7792-3.584a78.011733 78.011733 0 0 1-0.085333-13.021867l-9.796267 4.1984c-3.191467 1.450667-6.485333 2.645333-9.847466 3.584l-1.979734 0.512v-37.819733h1.5872c6.468267 0 13.858133 0.238933 22.016 0.768v-12.356267c-7.441067 0.512-14.848 0.750933-22.016 0.750934h-1.5872v-27.869867c0-8.738133 0.238933-15.991467 0.7168-22.0672h-14.882133c0.512 7.168 0.750933 14.557867 0.750933 22.0672v27.869867h-7.68c-7.611733 0-14.677333-0.256-21.128533-0.733867v12.322133c7.082667-0.512 14.165333-0.750933 21.128533-0.750933h7.68v43.963733l-1.143466 0.341334c-5.256533 1.570133-10.478933 3.310933-15.616 5.239466-6.2464 2.184533-12.5952 4.078933-19.029334 5.632 2.901333 4.7104 5.290667 9.728 7.133867 14.9504 6.656-4.096 11.400533-6.826667 14.114133-8.192 4.027733-1.911467 8.192-3.566933 12.458667-4.9152l2.082133-0.699733v51.285333a10.564267 10.564267 0 0 1-4.2496 9.693867 19.114667 19.114667 0 0 1-9.864533 1.467733 148.804267 148.804267 0 0 1-12.032-0.546133z m160.699733-8.977066h-66.952533v-24.234667h66.952533v24.234667z m-63.778133-3.191467h60.586667v-17.834667h-60.586667v17.834667z m63.778133-30.993067h-66.952533v-23.3472h66.952533v23.3472z m-63.778133-3.191466h60.586667v-16.964267h-60.586667v16.964267z m67.498667-41.506134h-67.345067a17.834667 17.834667 0 0 1-15.7184-6.382933 20.053333 20.053333 0 0 1-4.215467-10.973867v-40.311466c0-15.018667-0.3072-25.582933-0.8704-31.402667l-0.170666-1.757867h21.828266l-0.136533 1.706667a426.325333 426.325333 0 0 0-0.853333 29.525333c13.6192-2.2528 27.067733-5.461333 40.2432-9.659733 8.482133-2.986667 16.725333-6.621867 24.661333-10.8544l1.5872-0.853333 0.6656 1.655466c2.645333 6.1952 6.690133 11.690667 11.810133 16.059734l2.372267 2.133333-3.1232 0.631467c-2.901333 0.580267-6.826667 1.467733-11.741867 2.628266a1167.701333 1167.701333 0 0 0-17.902933 4.369067c-7.287467 1.826133-15.36 3.754667-24.064 5.717333-8.567467 1.928533-16.725333 3.754667-24.5248 5.4272v17.9712a5.205333 5.205333 0 0 0 1.109333 4.232534 15.530667 15.530667 0 0 0 11.264 2.935466h42.8032c8.072533 0 13.021867-1.6384 14.762667-4.864 2.594133-5.5808 4.437333-11.4688 5.5296-17.527466l0.597333-2.901334 2.0992 2.0992c4.727467 4.6592 10.496 8.123733 16.827734 10.1376l1.604266 0.512-0.6144 1.553067c-7.202133 18.4832-10.752 22.528-12.8 23.9616-4.778667 2.7136-10.171733 4.164267-15.650133 4.232533h-0.068267 0.034134z m-84.821334-87.620266c0.477867 6.178133 0.7168 16.213333 0.7168 29.952v40.311466c0.290133 3.345067 1.553067 6.536533 3.652267 9.1648 3.259733 3.754667 8.192 5.632 13.1072 5.0176H699.733333c4.898133-0.068267 9.710933-1.3312 13.994667-3.669333 1.757867-1.245867 5.085867-5.888 11.076267-20.957867a45.9776 45.9776 0 0 1-14.4384-8.379733 66.56 66.56 0 0 1-5.2224 15.633067c-2.3552 4.4032-8.123733 6.536533-17.578667 6.536533H644.778667a17.9712 17.9712 0 0 1-13.653334-3.976533 8.1408 8.1408 0 0 1-1.911466-6.536534V773.973333l1.262933-0.273066c8.123733-1.7408 16.708267-3.6352 25.736533-5.6832 8.669867-1.962667 16.725333-3.874133 23.995734-5.6832a748.424533 748.424533 0 0 1 26.760533-6.4 46.250667 46.250667 0 0 1-9.6768-13.482667c-7.611733 3.976533-15.496533 7.389867-23.6032 10.24-13.9264 4.437333-28.177067 7.8336-42.615467 10.154667l-1.877333 0.341333v-1.928533c0-12.253867 0.256-22.0672 0.750933-29.952h-14.882133z m164.266667 38.7072v-26.282667c0-5.8368-0.290133-11.9808-0.8704-18.414933h17.476267a305.152 305.152 0 0 0-0.887467 18.414933v26.282667c6.4 0 13.9776-0.290133 22.715733-0.8704v14.8992c-8.721067-0.580267-16.298667-0.8704-22.698666-0.887467v37.6832c2.901333-1.143467 10.171733-4.369067 21.845333-9.642667 1.1264 4.778667 2.577067 9.454933 4.352 14.0288-9.0112 3.106133-17.783467 6.912-26.2144 11.383467v63.095467c0.529067 6.0416-1.365333 12.014933-5.239467 16.657066-3.498667 3.515733-13.397333 6.724267-29.696 9.642667a55.296 55.296 0 0 0-6.144-18.397867c13.994667 0 21.572267-0.887467 22.715734-2.628266 1.2288-1.877333 2.116267-3.976533 2.628266-6.144V842.752c-12.2368 5.853867-20.6848 9.949867-25.344 12.288a157.354667 157.354667 0 0 0-7.850666-16.657067 211.848533 211.848533 0 0 0 33.194666-12.288V784.042667h-6.144c-5.8368 0-13.1072 0.290133-21.845333 0.8704v-15.7696c8.1408 0.580267 15.428267 0.8704 21.845333 0.853333h6.161067z m88.234667-13.141334c9.898667 3.498667 16.0256 5.546667 18.363733 6.144-6.997333 11.093333-11.3664 18.397867-13.1072 21.9136h35.84c14.557867 0 24.746667-0.3072 30.583467-0.887466v14.8992c-5.8368-0.580267-16.042667-0.8704-30.583467-0.8704h-41.079467l-21.845333 33.28h31.470933c0-8.772267-0.290133-17.237333-0.887466-25.429334h17.476266c-0.580267 8.192-0.8704 16.674133-0.853333 25.429334h18.3296c8.174933 0.2048 16.3328-0.085333 24.4736-0.887467v15.7696a167.6288 167.6288 0 0 0-22.715733-0.8704H892.928v26.282667h28.842667c9.898667 0 19.5072-0.290133 28.8256-0.853334v14.882134a422.6048 422.6048 0 0 0-27.9552-0.8704h-29.696v12.288c0 11.6736 0.290133 21.6064 0.853333 29.781333h-17.4592c0.580267-10.513067 0.853333-20.445867 0.8704-29.781333v-12.288h-29.696c-11.656533 0-22.715733 0.290133-33.194667 0.8704v-14.8992c9.898667 0.597333 20.667733 0.887467 32.324267 0.887466H877.226667v-26.299733h-29.696a112.042667 112.042667 0 0 0-17.476267 2.628267 100.1472 100.1472 0 0 0-6.144-15.7696c5.819733-2.901333 14.267733-14.301867 25.344-34.184534-8.157867 0-16.605867 0.3072-25.344 0.887467v-14.8992c10.496 0.597333 20.974933 0.887467 31.453867 0.8704a117.6064 117.6064 0 0 0 12.202666-28.040533z m74.2912-2.628266c0 5.853867 0.273067 11.707733 0.853333 17.527466h-17.4592v-21.0432h-87.381333v21.9136h-16.605867c1.160533-11.656533 1.160533-23.381333 0-35.054933h121.4464c-0.597333 5.5296-0.887467 11.093333-0.853333 16.657067zM895.488 928.477867h-20.872533l0.1024-1.706667c0.5632-10.496 0.853333-20.497067 0.853333-29.696v-10.6496h-28.1088c-11.4688 0-22.613333 0.290133-33.109333 0.853333l-1.6896 0.1024v-18.295466l1.706666 0.119466c9.6256 0.580267 20.48 0.8704 32.256 0.8704h28.9792v-23.0912h-28.125866a112.776533 112.776533 0 0 0-17.152 2.594134l-1.4336 0.290133-0.4096-1.399467a96.4608 96.4608 0 0 0-6.024534-15.5136l-0.699733-1.4336 1.416533-0.7168c5.290667-2.628267 13.1072-13.1072 23.313067-31.1296-7.168 0.068267-14.728533 0.341333-22.4768 0.853334l-1.706667 0.119466V782.336l1.6896 0.085333c9.898667 0.5632 20.138667 0.853333 30.395734 0.887467a114.568533 114.568533 0 0 0 11.6224-26.760533l0.3584-1.809067 1.7408 0.597333c9.984 3.5328 15.940267 5.546667 18.210133 6.109867l2.133333 0.512-1.1776 1.877333c-5.7344 9.1136-9.608533 15.530667-11.793066 19.456h33.160533c14.728533 0 24.6784-0.290133 30.429867-0.887466l1.7408-0.170667v18.432l-1.7408-0.170667c-5.802667-0.5632-16.042667-0.853333-30.429867-0.853333h-40.209067l-19.729066 30.088533h26.88a356.625067 356.625067 0 0 0-0.853334-23.7056l-0.136533-1.706666h20.8896l-0.136533 1.706666c-0.546133 7.8848-0.836267 15.803733-0.853334 23.722667h16.7424c8.072533 0.187733 16.162133-0.1024 24.200534-0.8704l1.860266-0.3072v19.626667l-1.8944-0.392534a169.745067 169.745067 0 0 0-22.408533-0.853333H894.464v23.0912h27.2384c9.984 0 19.6608-0.290133 28.757333-0.8704l1.672534-0.1024v18.312533l-1.706667-0.119466a424.533333 424.533333 0 0 0-27.835733-0.8704H894.464v10.666666c0 11.895467 0.3072 21.6064 0.8704 29.696l0.136533 1.706667z m-17.5104-3.191467h14.08c-0.512-7.816533-0.750933-17.066667-0.750933-28.194133v-13.892267h31.317333c9.181867 0 18.039467 0.256 26.368 0.768v-11.485867c-8.6528 0.512-17.8176 0.768-27.2384 0.768h-30.429867V843.776h21.674667c10.376533 0 17.322667 0.2048 21.1456 0.631467v-12.100267c-4.181333 0.443733-11.7248 0.648533-22.869333 0.648533h-19.950934v-1.604266c0-8.260267 0.256-16.2816 0.750934-23.808h-14.045867c0.512 7.7312 0.750933 15.701333 0.750933 23.808v1.604266H842.752l23.944533-36.5056h41.9328c13.141333 0 22.869333 0.238933 28.9792 0.733867v-11.400533c-6.024533 0.477867-15.530667 0.7168-28.9792 0.7168h-38.4l1.160534-2.304c1.655467-3.345067 5.632-9.966933 12.049066-20.241067-2.901333-0.8704-7.765333-2.56-14.711466-4.983467a134.314667 134.314667 0 0 1-11.9808 26.709334l-0.4608 0.8192h-0.938667c-10.069333 0-20.104533-0.256-29.866667-0.785067v11.502933c8.226133-0.512 16.196267-0.768 23.7568-0.768h2.730667l-1.348267 2.389334c-10.513067 18.8928-18.602667 30.0544-24.6272 34.030933 2.013867 4.3008 3.720533 8.738133 5.12 13.294933 5.376-1.245867 10.871467-2.048 16.384-2.389333h31.300267v29.4912h-32.170667a542.037333 542.037333 0 0 1-30.72-0.785067v11.52c10.069333-0.512 20.6848-0.785067 31.607467-0.785066h31.300267v13.858133a601.941333 601.941333 0 0 1-0.8192 28.194133z m-119.159467 2.56l-0.290133-1.536a54.272 54.272 0 0 0-5.888-17.8176l-1.655467-2.491733h2.986667c18.5856 0 21.0944-1.6384 21.418667-1.962667a18.944 18.944 0 0 0 2.389333-5.597867l-0.0512-53.162666c-10.990933 5.290667-18.670933 8.994133-23.04 11.178666l-1.536 0.768-0.648533-1.604266a160.3584 160.3584 0 0 0-7.7824-16.452267l-1.109334-1.9456 2.184534-0.426667c10.939733-3.037867 21.623467-6.980267 31.914666-11.776v-39.424h-4.522666c-5.768533 0-12.868267 0.290133-21.742934 0.8704l-1.706666 0.119467v-19.2l1.706666 0.119467c7.936 0.580267 15.240533 0.887467 21.742934 0.887466h4.539733v-24.695466a204.6464 204.6464 0 0 0-0.8704-18.261334l-0.170667-1.7408h20.957867l-0.136533 1.706667a325.290667 325.290667 0 0 0-0.8704 18.295467v24.6784c6.144-0.0512 13.192533-0.341333 21.009066-0.853334l1.706667-0.136533v18.312533l-1.706667-0.1024c-6.997333-0.477867-13.994667-0.768-21.009066-0.853333v33.672533c3.584-1.536 9.949867-4.352 19.592533-8.704l1.826133-0.836266 0.392534 1.979733c1.1264 4.676267 2.56 9.284267 4.3008 13.789867l0.597333 1.5872-1.6384 0.477866c-8.618667 2.986667-16.9984 6.6048-25.088 10.8544v62.122667c0.546133 6.434133-1.518933 12.834133-5.700267 17.749333-3.754667 3.7888-13.755733 7.082667-30.549333 10.103467l-1.536 0.3072z m-2.0992-18.653867c2.133333 4.778667 3.669333 9.796267 4.608 14.933334 18.653867-3.4304 25.173333-6.741333 27.3408-8.9088 3.566933-4.334933 5.290667-9.898667 4.778667-15.530667v-64.068267l0.853333-0.443733c8.055467-4.215467 16.366933-7.8848 24.900267-10.973867a127.1808 127.1808 0 0 1-3.413333-10.752c-11.025067 4.949333-17.408 7.7824-20.138667 8.874667l-2.167467 0.853333v-41.642666h1.5872c5.922133 0 13.021867 0.256 21.111467 0.785066v-11.485866c-7.8848 0.512-14.984533 0.750933-21.111467 0.750933h-1.5872v-27.869867c0-3.4304 0.238933-9.079467 0.750934-16.810666h-14.0288c0.494933 5.888 0.7168 11.52 0.7168 16.810666v27.869867h-7.68c-6.0928 0-12.9024-0.256-20.258134-0.750933v12.356266c8.174933-0.512 14.7968-0.785067 20.258134-0.785066h7.68v44.731733l-0.955734 0.4096c-10.205867 4.6592-20.6848 8.635733-31.402666 11.8784 1.911467 3.584 3.9936 8.072533 6.2464 13.380267 4.881067-2.423467 12.834133-6.263467 23.842133-11.52l2.269867-1.092267v58.624c-0.512 2.491733-1.501867 4.864-2.884267 6.997333-1.109333 1.706667-4.522667 3.2256-21.2992 3.3792z m82.722134-134.9632h-19.968l0.187733-1.757866c1.1776-11.554133 1.1776-23.176533 0-34.7136l-0.170667-1.774934h125.013334l-0.2048 1.792c-0.597333 5.461333-0.887467 10.9568-0.8704 16.452267 0 5.802667 0.290133 11.605333 0.8704 17.373867l0.170666 1.757866h-20.821333V752.298667h-84.189867v21.9136z m-16.418134-3.191466H836.266667v-21.9136h90.555733v21.0432h14.114133a179.524267 179.524267 0 0 1-0.699733-15.940267c0-5.358933 0.238933-10.3424 0.682667-15.0528h-117.896534c0.4608 4.881067 0.699733 10.24 0.699734 15.940267 0 5.6832-0.238933 11.042133-0.699734 15.9232zM809.506133 686.08l-0.221866 0.034133V686.08H216.064l-0.221867 1.160533-6.6048-1.160533H143.36v-25.6h51.165867L261.12 280.2688V235.52l250.368-163.84 251.392 163.84v37.888l67.908267 387.072H880.64v25.6h-71.133867zM261.12 428.6464L220.501333 660.48h40.618667V428.6464zM440.32 317.44l-102.4-25.6V358.4l102.4-25.6v-15.36z m40.96-5.12h-25.6v25.6h25.6v-25.6z m94.72-87.04a53.725867 53.725867 0 0 0-53.1456 46.08H522.24l-15.36 10.24h122.743467c0.0512-0.853333 0.136533-1.706667 0.136533-2.56a53.76 53.76 0 0 0-53.76-53.76z m-53.76 71.68v40.96s24.695467 30.72 49.834667 30.72c26.043733 0 52.565333-30.72 52.565333-30.72v-40.96h-102.4z m153.6 127.744l-0.221867-0.034133c0.0512-0.768 0.221867-1.4848 0.221867-2.269867a28.0576 28.0576 0 0 0-25.361067-27.869867V394.24h-157.866666l-1.553067-1.6896-76.3392 70.929067V368.64h-0.7168a20.3776 20.3776 0 0 0-39.509333 0H373.76v133.12h0.119467c0.187733-0.256 0.4096-0.477867 0.6144-0.733867a25.4976 25.4976 0 0 0 45.192533 21.265067l71.8336-66.730667V609.28h184.32V424.704z m87.04-3.157333v238.933333h41.915733l-41.915733-238.933333z" fill="#00FF00" /></svg>