<?xml version="1.0" standalone="no"?><!DOCTYPE svg PUBLIC "-//W3C//DTD SVG 1.1//EN" "http://www.w3.org/Graphics/SVG/1.1/DTD/svg11.dtd"><svg class="icon" width="1000px" height="1000.00px" viewBox="0 0 1024 1024" version="1.1" xmlns="http://www.w3.org/2000/svg"><path d="M0 1024V0h1024v1024H0zM992 32H32v960h960V32z" fill="#0000FF" /><path d="M778.24 496.64c-9.386667 9.386667-69.973333 19.626667-40.96-46.08 0 0 45.1584-64.170667 46.08-112.64 0.853333-45.056-33.28-79.36-46.08-92.16-12.8-12.8-6.826667-39.5264 5.12-46.08 41.864533-22.9888 108.936533 95.266133 107.52 153.6-1.365333 56.490667-62.293333 133.973333-71.68 143.36z m-92.16-46.08s-69.973333 14.506667-40.96-51.2c0 0 21.5552-13.141333 25.6-61.44 2.56-30.549333-5.973333-27.306667-20.48-40.96-14.506667-13.653333-14.848-30.890667 0-40.96 34.218667-23.210667 83.336533 38.946133 81.92 97.28-1.365333 56.490667-46.08 97.28-46.08 97.28zM512 430.08a81.92 81.92 0 1 1 0-163.84 81.92 81.92 0 0 1 0 163.84z m-134.980267-32.597333c28.757333 65.792-40.584533 51.268267-40.584533 51.268266s-44.305067-40.840533-45.653333-97.399466c-1.399467-58.368 47.274667-120.610133 81.169066-97.365334 14.711467 10.069333 14.3872 27.323733 0 40.994134-14.370133 13.653333-22.8352 10.410667-20.309333 40.994133 4.027733 48.366933 25.378133 61.525333 25.378133 61.525333z m-136.977066-61.4912c0.904533 48.520533 45.653333 112.759467 45.653333 112.759466 28.740267 65.774933-31.2832 55.517867-40.584533 46.1312-9.3184-9.403733-69.6832-86.971733-71.031467-143.530666-1.399467-58.368 65.058133-176.759467 106.5472-153.7536 11.8272 6.570667 17.749333 33.314133 5.0688 46.1312-12.680533 12.8-46.506667 47.1552-45.653333 92.2624zM459.264 455.68c13.431467 9.6256 29.8496 10.24 47.616 10.24s34.2016-0.6144 47.616-10.24H563.2l148.48 378.88h-66.56l-10.1888-26.282667-130.8672-49.4592-117.777067 44.680534-12.526933 31.061333H307.2l148.48-378.88h3.584zM512 491.52l-20.6336 51.2h40.4992L512 491.52z m33.792 87.04h-68.864l-10.018133 24.849067 42.8032 26.862933 45.175466-28.2112-9.096533-23.5008z m24.576 63.3856l-22.442667 12.322133 36.010667 22.596267-13.568-34.9184z m-166.946133 119.022933l98.952533-37.956266v-1.1776l1.536 0.580266 2.338133-0.887466 0.034134 1.809066 112.349866 42.939734-15.701333-40.413867-86.493867-54.306133-98.8672 54.272-14.165333 35.157333z m34.628266-85.930666l42.069334-26.282667-25.122134-15.7696-16.9472 42.052267z" fill="#0000FF" /></svg>