<?xml version="1.0" standalone="no"?><!DOCTYPE svg PUBLIC "-//W3C//DTD SVG 1.1//EN" "http://www.w3.org/Graphics/SVG/1.1/DTD/svg11.dtd"><svg class="icon" width="1000px" height="1000.00px" viewBox="0 0 1024 1024" version="1.1" xmlns="http://www.w3.org/2000/svg"><path d="M864 1024H160A160 160 0 0 1 0 864V160A160 160 0 0 1 160 0h704A160 160 0 0 1 1024 160v704A160 160 0 0 1 864 1024z m128-832a160 160 0 0 0-160-160h-640a160 160 0 0 0-160 160v640a160 160 0 0 0 160 160h640a160 160 0 0 0 160-160v-640z" fill="#FF0000" /><path d="M839.253333 566.6816c-7.594667-11.383467-60.689067-87.227733-60.689066-87.227733v-307.2c0-37.9392-30.344533-68.266667-68.266667-68.266667h-409.6c-37.922133 0-68.266667 30.327467-68.266667 68.266667v307.2s-53.077333 75.844267-60.672 87.210666c-7.594667 15.189333-7.594667 22.766933-7.594666 30.3616v18.944c0 18.978133 18.961067 34.133333 34.133333 34.133334h614.4c15.189333 0 34.133333-15.1552 34.133333-34.133334v-18.944c0-7.594667 0-15.189333-7.5776-30.344533z m-155.4944-41.728c0-3.7888 3.7888-3.7888 15.172267-3.7888h30.327467c7.594667 0 18.961067 3.7888 18.961066 3.7888 0 3.805867-3.7888 3.805867-11.3664 3.805867h-34.133333c-11.383467 0-18.961067 0-18.961067-3.805867z m11.3664 22.766933c0 3.7888-3.7888 7.5776-15.172266 7.5776-11.3664 0-18.944-3.7888-18.944-7.5776 0-3.805867 3.7888-7.594667 15.1552-7.594666 11.383467 0 15.189333 3.7888 18.961066 7.594666zM281.736533 157.064533h451.328v295.8336H281.736533V157.0816zM649.6256 524.970667c0 3.805867-3.805867 3.805867-15.189333 3.805866-7.5776 0-18.944-3.805867-18.944-3.805866 0-3.7888 3.7888-3.7888 15.172266-3.7888 11.3664 0 18.944 0 18.944 3.7888z m-75.861333 3.805866c-7.5776 0-15.172267-3.805867-18.944-3.805866 0-3.7888 7.5776-3.7888 15.1552-3.7888s15.172267 3.7888 18.961066 3.7888c0 3.805867-7.5776 3.805867-15.172266 3.805866z m22.766933 45.499734c0 3.7888-7.594667 7.594667-15.189333 7.594666-7.5776 0-18.944-3.805867-18.944-7.594666s7.5776-7.5776 15.1552-7.5776c11.383467 0 18.978133 3.7888 18.978133 7.5776z m-189.6448-34.133334c7.594667 0 15.189333 3.7888 15.189333 7.594667 0 3.7888-7.594667 7.5776-18.978133 7.5776-7.5776 0-15.172267-3.7888-15.172267-7.5776a28.962133 28.962133 0 0 1 18.961067-7.594667z m-30.327467-11.3664c-7.594667 0-15.189333-3.805867-15.189333-3.805866 0-3.7888 7.594667-3.7888 18.978133-3.7888s15.172267 3.7888 15.172267 3.7888c0 3.805867-7.594667 3.805867-18.961067 3.805866z m64.4608 37.922134c11.383467 0 18.978133 3.7888 18.978134 7.5776s-7.594667 7.594667-18.978134 7.594666c-11.3664 0-18.944-3.805867-18.944-7.594666s7.5776-7.5776 18.944-7.5776z m0-37.922134c-7.5776 0-15.1552-3.805867-15.1552-3.805866 0-3.7888 7.5776-3.7888 15.1552-3.7888 7.594667 0 15.189333 3.7888 15.189334 3.7888 3.7888 3.805867-3.805867 3.805867-15.189334 3.805866z m34.133334 11.3664c11.383467 0 15.189333 3.7888 18.978133 7.594667 0 3.7888-7.594667 7.5776-18.978133 7.5776-11.3664 0-18.944-3.7888-15.1552-7.5776-3.805867-3.805867 3.7888-7.594667 15.1552-7.594667z m15.189333-15.172266c0-3.7888 7.5776-3.7888 15.1552-3.7888 7.594667 0 15.189333 3.7888 15.189333 3.7888 0 3.805867-7.594667 3.805867-15.189333 3.805866-7.5776 0-15.172267 0-15.172267-3.805866z m18.944 41.728c11.383467 0 18.978133 3.7888 18.978133 7.5776s-7.594667 7.594667-18.978133 7.594666c-11.3664 0-18.944-3.805867-18.944-7.594666s7.5776-7.5776 18.944-7.5776z m15.189333-18.961067c0-3.805867 7.5776-7.594667 15.1552-7.594667 7.594667 0 18.961067 3.7888 18.961067 7.594667 0 3.7888-7.5776 7.5776-15.172267 7.5776-11.3664 0-18.944-3.7888-18.944-7.5776z m-238.933333-26.555733h30.327467c7.594667 0 15.172267 3.7888 15.172266 3.7888 0 3.805867-7.5776 3.805867-18.961066 3.805866h-30.344534c-7.5776 0-15.172267-3.805867-15.172266-3.805866 0-3.7888 11.383467-3.7888 18.961066-3.7888z m-11.383467 18.961066h68.266667c7.5776 0 15.172267 3.7888 15.172267 7.594667 0 3.7888-7.594667 7.5776-18.978134 7.5776h-68.266666c-11.3664 0-15.1552-3.7888-15.1552-7.5776a28.962133 28.962133 0 0 1 18.944-7.594667z m-7.594666 26.555734h106.1888c11.383467 0 15.189333 3.7888 15.189333 7.5776s-11.383467 7.594667-18.978133 7.594666h-109.9776c-11.383467 0-15.189333-3.805867-15.189334-7.594666 3.805867-3.7888 11.400533-7.5776 22.766934-7.5776z m18.961066 41.710933h-37.922133c-11.383467 0-18.961067-3.7888-15.172267-7.5776 0-3.7888 11.383467-7.594667 22.766934-7.594667h37.922133c11.3664 0 18.944 3.805867 15.172267 7.594667-3.805867 7.5776-15.189333 7.5776-22.766934 7.5776z m299.6224 0H357.597867c-11.383467 0-18.978133-3.7888-18.978134-7.5776s11.383467-7.594667 18.978134-7.594667H577.536c11.383467 0 18.978133 3.805867 18.978133 7.594667 7.5776 7.5776 0 7.5776-11.383466 7.5776z m26.538667-53.077333c-11.3664 0-18.944-3.805867-18.944-7.594667 0-3.805867 7.5776-7.594667 15.1552-7.594667 7.594667 0 18.961067 3.7888 18.961067 7.594667 0 3.7888-7.5776 7.5776-15.172267 7.5776z m87.2448 53.077333H660.992c-11.3664 0-18.944-3.7888-22.749867-7.5776 0-3.7888 7.5776-7.594667 15.172267-7.594667h37.922133c11.383467 0 18.961067 3.805867 22.749867 7.594667 3.805867 7.5776-3.7888 7.5776-15.1552 7.5776z m60.672-26.538667h-106.1888c-11.383467 0-18.961067-3.805867-18.961067-7.594666s7.5776-7.5776 15.172267-7.5776h87.210667l-11.3664-18.961067c0-3.805867 3.7888-7.594667 15.172266-7.594667s18.961067 3.7888 18.961067 7.594667l15.172267 26.538667c3.7888 3.7888-3.7888 7.594667-15.172267 7.594666zM106.496 940.3392v-155.904c8.260267-15.872 14.933333-32.426667 20.224-49.442133l-20.48-9.659734c-10.3424 35.413333-26.197333 66.679467-47.36 93.354667l7.133867 23.466667c6.894933-7.816533 13.1072-15.650133 19.080533-23.466667v121.6512h21.384533z m167.168-164.420267v-20.462933h-62.088533a198.980267 198.980267 0 0 0-11.042134-28.501333l-20.923733 5.7344c3.908267 7.355733 7.338667 14.9504 10.3424 22.766933H122.5728v20.48h151.0912z m-19.5584 33.570134v-19.541334H143.530667v19.541334h110.592z m0 32.6656v-19.780267H143.530667v19.780267h110.592zM159.607467 939.861333v-11.946666h78.165333v11.946666h21.162667v-83.234133h-120.490667v83.234133h21.162667z m78.165333-32.426666h-78.165333V876.885333h78.165333v30.583467z m233.8816-48.059734v-116.1216h-72.9088c2.304-4.608 4.369067-9.4208 5.751467-14.4896l-22.766934-2.986666c-1.604267 5.973333-3.669333 11.7248-6.434133 17.476266h-50.824533v116.1216h147.182933z m-21.162667-82.773333h-104.8576v-14.728533h104.8576v14.728533z m0 31.744h-104.8576v-14.506667h104.8576v14.506667z m0 32.4096h-104.8576v-14.9504h104.8576v14.9504z m-42.5472 64.170667l16.3328-11.52c-5.973333-8.738133-14.711467-18.619733-25.992533-30.122667l-16.093867 9.898667a248.285867 248.285867 0 0 1 25.770667 31.744z m78.1824 22.528l17.237334-12.202667c-7.338667-13.329067-17.698133-29.184-31.488-47.138133l-17.015467 10.581333c13.1072 17.937067 23.4496 34.030933 31.266133 48.759467z m-59.562666 8.96c9.216 0 15.872-1.8432 20.48-5.290667 4.829867-4.130133 8.277333-15.872 10.120533-35.413333l-20.923733-6.656c-0.682667 13.550933-2.304 21.6064-4.829867 24.3712-1.621333 2.286933-4.608 3.447467-8.977067 3.447466h-48.059733c-4.608 0-6.894933-2.525867-6.894933-7.133866V872.277333h-22.084267v42.0864c0 14.711467 7.594667 22.0672 22.766933 22.0672h58.4192z m-116.343467-4.1472c9.659733-15.633067 17.015467-34.030933 22.528-55.415467l-20.6848-4.130133c-3.925333 17.015467-10.581333 33.109333-20.241067 47.8208l18.397867 11.7248z m414.839467-131.754667V748.544h-86.016a377.856 377.856 0 0 0-9.642667-22.766933l-24.610133 4.130133c3.669333 5.751467 6.894933 11.963733 9.898666 18.6368H528.896v51.729067h22.0672V769.706667h151.995733v30.8224h22.084267z m-14.728534 140.270933l14.9504-19.319466A842.6496 842.6496 0 0 0 655.377067 887.466667c10.581333-13.329067 20.48-31.505067 29.661866-54.033067h44.373334v-21.162667h-114.7392c4.829867-9.198933 9.898667-18.858667 15.4112-28.9792l-22.528-6.656c-5.973333 11.946667-12.202667 23.671467-18.6368 35.6352h-63.6928v21.162667h51.968a1334.3744 1334.3744 0 0 1-22.306134 37.4784c20.48 6.434133 41.1648 14.250667 61.866667 22.9888-23.466667 16.554667-54.050133 25.070933-91.767467 25.2928l12.663467 20.241067c41.847467-1.143467 75.8784-13.1072 101.853867-35.6352a837.563733 837.563733 0 0 1 70.826666 37.0176z m-76.561066-62.3104c-16.3328-6.4512-32.426667-11.741867-48.059734-16.3328 5.290667-8.516267 11.025067-18.158933 17.237334-28.740266h58.180266c-7.133867 17.476267-16.3328 32.648533-27.357866 45.056z m319.863466 54.954667V912.042667h-85.5552v-36.352h64.631467v-21.1456h-64.631467v-34.474667h53.128534v-20.701867c10.120533 6.434133 20.701867 12.1856 32.187733 17.698134l10.820267-19.541334a323.549867 323.549867 0 0 1-99.345067-70.144h-15.633067c-26.6752 28.296533-60.023467 51.968-100.0448 71.0656l10.581334 19.080534c11.502933-5.751467 22.528-11.7248 33.109333-18.158934v20.6848h53.128533v34.491734h-64.853333v21.162666h64.853333v36.334934h-85.316266v21.384533h192.938666z m-32.887466-134.2976h-127.402667c24.849067-15.4112 46.2336-32.648533 63.709867-51.968a305.425067 305.425067 0 0 0 63.6928 51.968z" fill="#FF0000" /></svg>