<?xml version="1.0" standalone="no"?><!DOCTYPE svg PUBLIC "-//W3C//DTD SVG 1.1//EN" "http://www.w3.org/Graphics/SVG/1.1/DTD/svg11.dtd"><svg class="icon" width="1000px" height="1000.00px" viewBox="0 0 1024 1024" version="1.1" xmlns="http://www.w3.org/2000/svg"><path d="M0 1024V0h1024v1024H0zM992 32H32v960h960V32z" fill="#0000FF" /><path d="M807.850667 867.2256l42.752-65.604267c-112.059733-41.301333-206.421333-91.426133-282.350934-151.876266 67.822933-74.4448 119.432533-166.6048 154.811734-277.1968h111.325866v-76.663467H555.690667c-22.1184-47.9232-46.4384-89.207467-72.977067-123.8528l-77.4144 28.0064c26.538667 30.242133 49.390933 61.934933 67.822933 95.8464H181.213867v76.663467h112.042666c30.976 106.9056 86.254933 200.533333 165.888 281.634133-76.680533 64.853333-173.994667 112.042667-291.208533 142.267733l41.284267 67.84c120.1664-33.911467 221.9008-87.722667 304.469333-160.7168 78.148267 64.8704 176.196267 119.432533 294.161067 163.669334z m-294.161067-265.386667c-67.822933-66.3552-116.48-142.2848-146.705067-229.290666h276.462934c-28.757333 89.207467-72.2432 165.888-129.757867 229.290666z" fill="#0000FF" /></svg>