<?xml version="1.0" standalone="no"?><!DOCTYPE svg PUBLIC "-//W3C//DTD SVG 1.1//EN" "http://www.w3.org/Graphics/SVG/1.1/DTD/svg11.dtd"><svg class="icon" width="1000px" height="1000.00px" viewBox="0 0 1024 1024" version="1.1" xmlns="http://www.w3.org/2000/svg"><path d="M864 1024H160A160 160 0 0 1 0 864V160A160 160 0 0 1 160 0h704A160 160 0 0 1 1024 160v704A160 160 0 0 1 864 1024z m128-832a160 160 0 0 0-160-160h-640a160 160 0 0 0-160 160v640a160 160 0 0 0 160 160h640a160 160 0 0 0 160-160v-640z" fill="#FF0000" /><path d="M124.279467 789.777067c6.007467-6.536533 11.5712-13.4656 16.657066-20.736 3.754667 4.898133 7.867733 9.5232 12.288 13.824-10.496 7.970133-20.1728 16.930133-28.910933 26.794666a1896.96 1896.96 0 0 1-2.628267 36.3008 1149.44 1149.44 0 0 0 31.5392 34.577067 232.106667 232.106667 0 0 0-13.141333 12.100267 148.923733 148.923733 0 0 0-21.896533-29.3888 158.805333 158.805333 0 0 1-10.9568 33.706666 221.0816 221.0816 0 0 1-14.455467 25.941334 92.5696 92.5696 0 0 0-15.7696-10.376534 109.056 109.056 0 0 0 18.397867-29.3888c5.0176-12.219733 8.533333-24.9856 10.513066-38.0416a316.928 316.928 0 0 0 3.498667-50.1248c0-19.592533-0.290133-41.472-0.8704-65.706666 5.7856 1.245867 11.639467 2.116267 17.527467 2.6112a923.818667 923.818667 0 0 0-1.774934 57.9072z m-31.5392 47.547733a139.1104 139.1104 0 0 0-14.8992-0.853333c1.160533-11.52 2.338133-31.402667 3.515733-59.648 5.256533 0.580267 10.8032 1.160533 16.64 1.723733-2.9184 28.808533-4.676267 48.401067-5.256533 58.7776z m175.240533-67.413333v114.090666c0 12.100267 0.290133 25.344 0.887467 39.765334h-16.657067v-19.029334h-78.848v19.012267h-16.657067c0.580267-11.52 0.8704-24.7808 0.8704-39.765333v-112.349867c0-13.243733-0.290133-25.344-0.853333-36.3008h112.128c-0.597333 10.9568-0.8704 22.4768-0.853333 34.577067z m-15.7696 121.856v-142.609067h-78.848v142.609067h78.848z m-32.426667-98.525867c9.352533 0 17.8176-0.290133 25.429334-0.853333v14.677333c-7.611733-0.5632-16.0768-0.853333-25.429334-0.853333l-1.7408 11.264a467.3536 467.3536 0 0 1 31.5392 45.806933c-5.256533 2.884267-9.9328 5.461333-14.011733 7.765333a690.346667 690.346667 0 0 0-21.896533-38.024533 198.570667 198.570667 0 0 1-20.155734 44.0832 92.2112 92.2112 0 0 0-17.527466-6.912 114.107733 114.107733 0 0 0 17.954133-28.9792c4.932267-11.093333 8.0384-22.920533 9.216-35.003733-7.611733 0-15.786667 0.290133-24.541867 0.853333v-14.677333c8.772267 0.580267 17.237333 0.8704 25.429334 0.853333 0-13.243733-0.3072-25.634133-0.887467-37.154133 6.075733 1.194667 12.219733 2.048 18.397867 2.577066a269.243733 269.243733 0 0 0-1.757867 34.577067z m50.756267 132.096h-19.9168v-19.012267H174.933333v19.012267H155.016533l0.085334-1.655467a805.205333 805.205333 0 0 0 0.887466-39.68v-112.366933c0-13.056-0.3072-25.258667-0.887466-36.232533l-0.085334-1.655467h115.541334l-0.1024 1.655467a643.584 643.584 0 0 0-0.8704 34.5088v114.090666c0 12.288 0.290133 25.6 0.853333 39.697067l0.1024 1.6384z m-16.725333-3.140267h13.380266a1019.733333 1019.733333 0 0 1-0.802133-38.1952v-114.090666c0-11.6224 0.256-22.7328 0.785067-33.006934H158.378667c0.512 10.5984 0.785067 22.272 0.785066 34.730667v112.366933c0 14.1312-0.273067 26.965333-0.802133 38.178134h13.380267V903.168h82.056533v19.012267z m-160.682667 3.037867l-1.3824-1.109333a91.357867 91.357867 0 0 0-15.496533-10.1888l-1.8432-0.904534 1.365333-1.536c7.543467-8.635733 13.653333-18.414933 18.1248-28.9792 4.949333-12.0832 8.448-24.7296 10.410667-37.649066 2.474667-16.503467 3.6352-33.194667 3.4816-49.885867 0-19.285333-0.290133-41.3696-0.8704-65.672533l-0.0512-1.9968 1.9968 0.426666a137.045333 137.045333 0 0 0 17.322666 2.56l1.536 0.1536-0.1024 1.536a941.755733 941.755733 0 0 0-1.7408 53.640534c4.898133-5.563733 9.472-11.400533 13.7216-17.476267l1.28-1.809067 1.3312 1.774934c3.703467 4.829867 7.748267 9.386667 12.117334 13.653333l1.297066 1.28-1.4848 1.092267c-10.24 7.799467-19.729067 16.554667-28.296533 26.180266-0.733867 11.707733-1.5872 23.415467-2.56 35.1232 10.1376 11.537067 20.48 22.869333 31.061333 34.030934l1.1776 1.160533-1.28 1.092267c-4.5056 3.822933-8.874667 7.8336-13.056 11.997866l-1.501866 1.4848-1.024-1.826133a147.541333 147.541333 0 0 0-19.626667-26.862933 155.648 155.648 0 0 1-10.3936 31.061333c-4.266667 9.045333-9.130667 17.749333-14.557867 26.112l-0.955733 1.536z m-13.653333-13.192533c4.5056 2.491733 8.8064 5.341867 12.8512 8.533333 4.983467-7.799467 9.454933-15.906133 13.4144-24.2688a157.866667 157.866667 0 0 0 10.837333-33.3824l0.648533-2.935467 2.0992 2.184534a151.671467 151.671467 0 0 1 21.077334 27.904c3.413333-3.328 6.894933-6.536533 10.478933-9.659734a1158.263467 1158.263467 0 0 1-30.429867-33.416533l-0.443733-0.512 0.034133-0.6656c1.160533-14.336 2.048-26.5216 2.628267-36.266667l0.034133-0.546133 0.375467-0.4096a207.36 207.36 0 0 1 27.682133-25.9072 127.488 127.488 0 0 1-9.7792-10.990933c-4.778667 6.690133-9.966933 13.090133-15.530666 19.131733l-2.781867 3.0208v-4.096c0-19.080533 0.546133-38.058667 1.655467-56.4736a152.234667 152.234667 0 0 1-14.1824-2.048c0.5632 23.552 0.8192 44.970667 0.8192 63.726933 0.170667 16.861867-1.024 33.706667-3.515734 50.3808a166.4 166.4 0 0 1-10.632533 38.4 111.991467 111.991467 0 0 1-17.322667 28.296534z m174.336-18.688h-82.056534v-145.7664h82.056534V893.354667z m-78.848-3.157334h75.656533v-25.685333l-0.256 0.119467c-5.256533 2.901333-9.9328 5.4784-13.994667 7.7824l-1.450666 0.8192-0.785067-1.450667a661.230933 661.230933 0 0 0-20.0192-34.986667c-4.864 14.3872-11.3152 28.16-19.234133 41.1136l-0.8192 1.314134-1.365334-0.768a90.794667 90.794667 0 0 0-17.186133-6.775467l-0.5632-0.170667v18.688z m3.7888-20.821333c4.864 1.4848 9.608533 3.362133 14.165333 5.597867 8.072533-13.329067 14.506667-27.579733 19.217067-42.427734l1.024-3.362133 1.877333 3.003733c7.867733 12.8 14.984533 25.088 21.162667 36.6592l11.178666-6.1952a481.024 481.024 0 0 0-30.6176-44.270933l-0.4096-0.512 2.048-13.226667h1.365334c8.584533 0 16.571733 0.256 23.825066 0.750934v-11.3152c-7.082667 0.512-15.069867 0.750933-23.825066 0.750933h-1.570134v-1.5872c-0.136533-11.076267 0.392533-22.135467 1.536-33.160533-5.137067-0.512-10.1376-1.194667-14.8992-2.082134 0.512 11.042133 0.768 22.869333 0.768 35.242667v1.570133h-1.5872c-7.936 0-15.872-0.256-23.808-0.750933v11.3152c8.192-0.512 15.9232-0.750933 22.9376-0.750933h1.774934l-0.170667 1.723733a115.370667 115.370667 0 0 1-9.335467 35.498667 118.545067 118.545067 0 0 1-16.657066 27.528533z m-3.805867-118.647467v118.186667c7.202133-8.533333 13.1072-18.090667 17.527467-28.330667 4.608-10.410667 7.594667-21.469867 8.874666-32.768-6.9632 0.034133-14.557867 0.324267-22.6304 0.853334l-1.706666 0.1024v-18.090667l1.706666 0.136533c7.9872 0.512 15.940267 0.8192 23.7056 0.853334-0.017067-11.844267-0.3072-23.671467-0.887466-35.498667l-0.1024-2.048 2.013866 0.392533c6.024533 1.194667 12.117333 2.048 18.2272 2.56l1.672534 0.170667-0.221867 1.621333a259.447467 259.447467 0 0 0-1.723733 32.768c7.8848 0 15.786667-0.273067 23.671466-0.853333l1.706667-0.136533v18.1248l-1.706667-0.136534c-7.953067-0.5632-15.940267-0.853333-23.893333-0.853333l-1.467733 9.216a473.088 473.088 0 0 1 30.890666 44.834133v-111.104h-75.656533z m-80.708267 88.354134l-1.672533-0.170667a135.970133 135.970133 0 0 0-14.728533-0.887467h-1.757867l0.170667-1.706666c1.160533-11.52 2.338133-31.573333 3.515733-59.562667l0.0512-1.706667 1.723733 0.2048c5.239467 0.580267 10.786133 1.143467 16.622934 1.706667l1.604266 0.170667-0.170666 1.570133c-2.901333 28.672-4.676267 48.418133-5.256534 58.709333l-0.1024 1.672534z m-14.626133-4.1984c3.669333 0.068267 7.560533 0.290133 11.639467 0.682666 0.648533-10.496 2.321067-29.184 5.000533-55.6032a1402.624 1402.624 0 0 1-13.3632-1.3824c-1.092267 25.838933-2.2016 44.7488-3.2768 56.302934z m278.613333-14.848v75.195733c0 9.216 0.3072 19.592533 0.887467 31.112533h-18.414933c0.580267-10.9568 0.887467-21.333333 0.887466-31.112533v-58.7776a287.744 287.744 0 0 1-32.426666 25.941333 85.623467 85.623467 0 0 0-10.513067-14.6944c12.970667-7.492267 24.917333-16.64 35.498667-27.2384 13.704533-12.970667 22.3232-23.1936 25.838933-30.6688 6.382933 4.608 13.482667 8.106667 21.026133 10.359467a133.700267 133.700267 0 0 0-22.784 19.882667z m15.786667-52.736c0 6.331733 0.290133 12.970667 0.8704 19.8656h-19.285333c0.580267-6.894933 0.8704-13.533867 0.887466-19.8656H331.946667c-9.9328 0-19.8656 0.290133-29.781334 0.853333V752.64c9.898667 0.597333 19.848533 0.887467 29.781334 0.8704h24.541866c0-9.216-0.290133-17.288533-0.887466-24.200533h20.155733a146.602667 146.602667 0 0 0-1.757867 24.200533h44.6976V727.552h18.397867c-0.597333 6.912-0.887467 15.547733-0.8704 25.941333h35.037867c10.513067 0 19.575467-0.290133 27.170133-0.8704v15.547734c-7.611733-0.5632-16.657067-0.853333-27.170133-0.853334H436.224c0 5.1712 0.290133 11.8272 0.8704 19.8656h-18.414933V767.317333h-44.680534v-0.017066z m51.712 50.9952v24.200533c8.413867-4.949333 16.213333-10.922667 23.210667-17.7152a122.606933 122.606933 0 0 0 19.712-22.050133c5.802667 4.949333 12.288 9.045333 19.285333 12.117333a113.664 113.664 0 0 0-21.026133 15.991467 370.978133 370.978133 0 0 1-41.181867 30.685866v35.4304c0 6.3488 3.7888 9.5232 11.383467 9.5232h27.170133a15.991467 15.991467 0 0 0 12.288-3.8912c2.321067-2.594133 4.369067-9.079467 6.144-19.456 5.495467 3.8912 11.776 6.536533 18.397867 7.765334-4.096 13.824-8.0384 22.186667-11.8272 25.088-5.085867 3.242667-11.076267 4.744533-17.083734 4.317866h-43.008c-13.431467 0-20.138667-4.608-20.138666-13.824v-35.4304c-5.853867 3.464533-16.0768 8.925867-30.6688 16.418134a56.8832 56.8832 0 0 0-12.288-14.677334c15.104-4.778667 29.525333-11.434667 42.939733-19.899733v-34.577067c0-9.7792-0.290133-18.141867-0.887467-25.053866h18.414934c-0.580267 6.894933-0.8704 15.2576-0.853334 25.053866v-0.017066z m-64.904533 109.6192h-21.794134l0.085334-1.655467a595.285333 595.285333 0 0 0 0.8704-31.044267v-55.125333a293.546667 293.546667 0 0 1-29.9008 23.586133l-1.450667 1.024-0.853333-1.536a86.1696 86.1696 0 0 0-10.3424-14.421333l-1.3312-1.501867 1.792-0.9216a170.3424 170.3424 0 0 0 35.1232-26.965333c13.533867-12.8 22.1184-22.971733 25.4976-30.208l0.170666-0.375467h-4.8128l0.136534-1.706666c0.512-6.314667 0.8192-12.407467 0.853333-18.158934H331.946667c-9.7792 0-19.7632 0.290133-29.696 0.853334l-1.6896 0.1024V750.933333l1.706666 0.119467c9.659733 0.5632 19.6608 0.853333 29.696 0.853333h22.903467c0-7.509333-0.273067-15.018667-0.853333-22.493866l-0.1536-1.706667h23.790933l-0.3072 1.8432a142.165333 142.165333 0 0 0-1.723733 22.357333h41.472v-25.924266h21.725866l-0.136533 1.706666c-0.5632 6.485333-0.853333 14.404267-0.853333 24.234667h33.4336c10.683733 0 19.541333-0.3072 27.0336-0.8704l1.706666-0.136533v18.961066l-1.706666-0.119466a366.933333 366.933333 0 0 0-27.0336-0.853334h-33.450667c0.0512 5.000533 0.341333 11.093333 0.8704 18.193067l0.119467 1.672533H417.109333v-19.882666h-41.472c0.0512 5.905067 0.341333 12.014933 0.853334 18.176l0.1536 1.706666h-15.36c6.178133 4.369067 13.0048 7.714133 20.258133 9.898667l3.106133 1.024-2.730666 1.792a131.925333 131.925333 0 0 0-22.0672 19.182933v74.581334c0 9.352533 0.290133 19.797333 0.8704 31.044266l0.119466 1.6384z m-18.397867-3.157334h15.018667a624.1792 624.1792 0 0 1-0.785067-29.525333v-75.810133l0.426667-0.4608a143.4624 143.4624 0 0 1 20.48-18.3296 71.424 71.424 0 0 1-16.964267-8.448 132.386133 132.386133 0 0 1-25.326933 29.422933 181.930667 181.930667 0 0 1-34.082134 26.538667c3.157333 3.754667 6.007467 7.7312 8.516267 11.946666a285.1328 285.1328 0 0 0 30.805333-24.797866l2.696534-2.491734v62.429867a636.296533 636.296533 0 0 1-0.802134 29.5424z m77.8752-139.1616h15.086933c-0.512-7.185067-0.750933-13.312-0.750933-18.295466v-1.5872h36.642133c9.659733 0 18.261333 0.256 25.582934 0.750933v-12.168533c-7.2192 0.512-15.616 0.750933-25.582934 0.750933h-36.6592v-1.570133c0-9.7792 0.238933-17.783467 0.733867-24.3712h-15.069867v25.941333h-47.872v-1.570133a153.838933 153.838933 0 0 1 1.467734-22.6304h-16.554667c0.512 6.6048 0.750933 14.199467 0.750933 22.6304v1.570133h-26.112c-9.5232 0-18.978133-0.256-28.194133-0.768v12.219733c9.437867-0.512 18.909867-0.768 28.194133-0.768h26.112v1.570134c0 5.768533-0.256 11.9296-0.733866 18.295466h15.803733a238.848 238.848 0 0 1-0.733867-18.295466v-1.5872h47.872v19.882666h0.017067z m51.8656 136.260267h-42.9568c-14.4384 0-21.76-5.188267-21.76-15.394133v-32.682667a783.36 783.36 0 0 1-28.330667 15.069867l-1.365333 0.699733-0.768-1.348267a55.978667 55.978667 0 0 0-11.9296-14.267733l-2.184533-1.8944 2.816-0.785067c14.677333-4.625067 28.706133-11.093333 41.762133-19.268266v-33.6896c0-9.6256-0.290133-18.0224-0.8704-24.917334l-0.136533-1.706666h21.8624l-0.136534 1.706666c-0.580267 6.724267-0.887467 15.086933-0.887466 24.917334v21.469866c7.355733-4.693333 14.2336-10.103467 20.5312-16.128 7.338667-6.4512 13.858133-13.738667 19.456-21.742933l1.024-1.536 1.416533 1.2288c5.6832 4.846933 12.049067 8.840533 18.875733 11.844267l2.798934 1.262933-2.645334 1.536c-7.509333 4.437333-14.4896 9.728-20.770133 15.7696a365.2608 365.2608 0 0 1-40.686933 30.378667v34.594133c0 3.413333 1.024 7.936 9.7792 7.936h27.170133a14.677333 14.677333 0 0 0 11.093333-3.362133c1.4336-1.621333 3.618133-6.178133 5.717334-18.670934l0.426666-2.4576 2.082134 1.4336c5.307733 3.754667 11.3664 6.314667 17.749333 7.509334l1.757867 0.324266-0.512 1.706667c-4.232533 14.267733-8.277333 22.715733-12.373334 25.856-5.358933 3.413333-11.6736 5.034667-18.0224 4.608z m-61.5424-53.623467v38.229334c0 8.2432 6.075733 12.253867 18.551467 12.253866h42.939733c5.666133 0.4096 11.298133-0.989867 16.110933-3.9936 2.321067-1.774933 6.0416-7.168 10.752-22.613333a47.6672 47.6672 0 0 1-15.189333-6.314667c-0.6144 6.3488-2.7136 12.458667-6.109867 17.834667a17.578667 17.578667 0 0 1-13.4656 4.420267h-27.136c-10.752 0-12.970667-6.024533-12.970666-11.093334V860.672l0.682666-0.4608c14.336-9.233067 28.023467-19.438933 40.96-30.549333 5.751467-5.495467 12.049067-10.410667 18.773334-14.677334a79.872 79.872 0 0 1-15.581867-9.8816 132.232533 132.232533 0 0 1-18.944 20.821334c-7.1168 6.894933-15.018667 12.919467-23.552 17.954133l-2.3552 1.28v-26.88c0-9.216 0.238933-16.9472 0.733867-23.483733h-14.916267c0.494933 6.656 0.733867 14.5408 0.733867 23.483733v35.4816l-0.750934 0.4608c-12.765867 7.953067-26.385067 14.404267-40.618666 19.234133 3.754667 3.515733 7.0144 7.509333 9.728 11.8784 13.653333-7.031467 23.5008-12.288 29.201066-15.684266l2.423467-1.416534z m175.837867-77.585066c-5.546667 5.188267-10.376533 9.796267-14.455467 13.824a995.8912 995.8912 0 0 1-4.386133 38.912c9.352533 5.768533 17.527467 11.246933 24.541866 16.418133-3.515733 4.608-6.724267 9.216-9.642666 13.824a308.053333 308.053333 0 0 0-16.64-13.824 261.393067 261.393067 0 0 1-11.400534 33.28 209.015467 209.015467 0 0 1-17.527466 31.556267 65.604267 65.604267 0 0 0-14.011734-12.117334 102.007467 102.007467 0 0 0 21.026134-34.56 151.3984 151.3984 0 0 0 9.642666-39.765333c2.5088-16.452267 3.822933-33.0752 3.959467-49.7152a1586.688 1586.688 0 0 0-0.443733-62.6688c5.444267 1.501867 11.025067 2.389333 16.657066 2.594133a143.36 143.36 0 0 0-1.757866 25.088v32.853334a102.058667 102.058667 0 0 0 16.64-21.6064c3.6352 4.727467 7.748267 9.079467 12.288 12.970666-4.096 3.4304-8.925867 7.748267-14.472534 12.936534h-0.017066z m-42.496 7.7824c-1.1776 10.376533-2.628267 22.186667-4.386134 35.4304a154.914133 154.914133 0 0 0-15.7696-2.594134c3.4304-19.1488 5.768533-38.485333 6.997334-57.9072 5.393067 1.7408 11.008 2.628267 16.657066 2.594134-1.621333 7.406933-2.781867 14.916267-3.4816 22.4768h-0.017066z m169.984-36.3008c0 10.359467 0.290133 21.026133 0.8704 31.982933h-26.282667v12.970667c9.915733 0 19.848533-0.3072 29.7984-0.8704v13.824a559.018667 559.018667 0 0 0-29.7984-0.8704v15.5648c15.7696 0 28.6208-0.290133 38.5536-0.8704v12.987733c-9.9328-0.580267-23.381333-0.853333-40.311467-0.8704a68.949333 68.949333 0 0 0 21.469867 15.5648c6.826667 3.447467 14.0288 6.075733 21.469867 7.7824a75.810133 75.810133 0 0 0-11.383467 14.677333 162.730667 162.730667 0 0 1-28.484267-17.7152 90.88 90.88 0 0 1-19.712-20.309333h-27.170133c-5.905067 8.704-12.970667 16.554667-21.026133 23.3472a156.16 156.16 0 0 1-28.910934 19.012267 40.533333 40.533333 0 0 0-12.288-12.117334 130.986667 130.986667 0 0 0 27.136-12.9536 58.914133 58.914133 0 0 0 18.397867-17.288533c-12.8512 0-24.541867 0.290133-35.037867 0.8704v-12.970667c9.898667 0.597333 22.186667 0.887467 36.795734 0.853334V819.2c-7.611733 0-17.237333 0.273067-28.910934 0.853333v-13.824c11.6736 0.580267 21.2992 0.8704 28.910934 0.853334v-12.970667H606.208c0.580267-11.52 0.853333-22.459733 0.8704-32.853333 0-10.922667-0.290133-20.718933-0.8704-29.371734h108.6464a491.741867 491.741867 0 0 0-0.887467 30.242134h-0.017066z m-70.980267 125.320533l7.901867-3.447467c0-11.52-0.290133-21.026133-0.887467-28.535466h15.7696c-0.597333 5.7856-0.887467 13.841067-0.8704 24.200533 5.0688 3.4816 10.325333 6.656 15.7696 9.506133a119.296 119.296 0 0 0 10.5472-18.141866c3.8912 3.4304 7.9872 6.6048 12.288 9.506133-4.676267 5.768533-8.772267 10.666667-12.288 14.6944 8.157867 5.188267 16.64 10.666667 25.412267 16.418133a56.064 56.064 0 0 0-10.513067 12.117334 326.912 326.912 0 0 0-41.181867-30.2592v17.288533a16.896 16.896 0 0 1-3.9424 12.970667c-2.628267 2.286933-9.506133 4.3008-20.599466 6.0416a32.085333 32.085333 0 0 0-6.997334-15.5648c11.093333 1.143467 16.930133-0.580267 17.5104-5.188267v-11.229867c-6.417067 2.884267-13.8752 6.331733-22.357333 10.376534-8.448 4.027733-16.196267 8.055467-23.210667 12.100266a52.804267 52.804267 0 0 0-9.6256-13.824c11.6736-3.5328 23.0912-7.867733 34.167467-12.970666a102.587733 102.587733 0 0 0-14.011733-17.288534 26.794667 26.794667 0 0 0 11.383466-7.7824L642.9696 887.466667z m55.210667-130.5088v-13.824h-76.219734v13.824h76.2368-0.017066z m0 25.941333v-14.711466h-76.219734v14.6944h76.2368-0.017066z m-23.6544 24.183467v-12.9536h-32.426667v12.970667h32.426667z m0 27.648v-15.547733h-32.426667v15.547733h32.426667z m-35.4816 96.887467l-0.273067-1.536a30.549333 30.549333 0 0 0-6.656-14.7968l-2.6112-3.037867 4.010667 0.426667c9.813333 0.9728 15.291733-0.3072 15.752533-3.822934v-8.567466c-6.7072 3.054933-13.397333 6.161067-20.053333 9.335466-7.850667 3.703467-15.5648 7.714133-23.108267 12.032l-1.4848 0.853334-0.768-1.536a51.473067 51.473067 0 0 0-9.3184-13.4144l-1.911467-1.877334 2.56-0.750933a259.9936 259.9936 0 0 0 32.256-12.117333 101.085867 101.085867 0 0 0-12.8-15.5136L614.4 877.090133c-6.587733 4.676267-13.482667 8.874667-20.6848 12.578134l-1.365333 0.7168-0.785067-1.3312a39.168 39.168 0 0 0-11.776-11.588267l-2.525867-1.757867 2.9184-1.024 0.8192-0.273066c-4.642133-4.113067-9.386667-8.0896-14.267733-11.946667a258.423467 258.423467 0 0 1-10.837333 31.197867c-4.949333 11.076267-10.8544 21.7088-17.646934 31.7952l-1.143466 1.706666-1.3824-1.536a64.768 64.768 0 0 0-13.6704-11.793066l-1.672534-1.024 1.3312-1.416534a100.829867 100.829867 0 0 0 20.701867-34.048c4.949333-12.629333 8.157867-25.856 9.557333-39.338666a351.914667 351.914667 0 0 0 3.925334-49.595734 1595.306667 1595.306667 0 0 0-0.426667-62.583466l-0.068267-2.082134 2.048 0.512c5.307733 1.467733 10.752 2.321067 16.264534 2.56h1.928533l-0.341333 1.860267c-1.314133 8.192-1.877333 16.4864-1.7408 24.7808v28.928c5.2224-5.632 9.813333-11.8272 13.653333-18.4832l1.194667-2.082133 1.4848 1.928533c3.549867 4.6592 7.5776 8.9088 12.032 12.714667l1.399466 1.211733-1.399466 1.194667c-4.9152 4.181333-9.728 8.482133-14.421334 12.9024-4.727467 4.4032-9.386667 8.874667-13.994666 13.397333-1.143467 12.288-2.56 24.849067-4.215467 37.376 9.096533 5.632 17.1008 11.008 23.773867 15.957333l1.28 0.938667-0.955734 1.262933c-3.037867 3.9936-5.9392 8.106667-8.669866 12.322134a127.266133 127.266133 0 0 0 22.306133-11.127467c6.212267-3.7888 11.707733-8.6528 16.213333-14.370133-11.502933 0.0512-22.237867 0.341333-31.914666 0.853333l-1.6896 0.085333v-16.315733l1.706666 0.119467c9.437867 0.546133 20.9408 0.836267 35.089067 0.853333v-12.3904c-7.2704 0.034133-16.213333 0.3072-27.2384 0.853333l-1.672533 0.085334V804.522667l1.672533 0.085333c10.632533 0.512 19.7632 0.8192 27.2384 0.853333v-9.813333h-22.016l0.1024-1.6384a659.968 659.968 0 0 0 0.8704-32.768c0-10.786133-0.290133-20.650667-0.8704-29.2864l-0.1024-1.672533h112.042667l-0.1024 1.655466c-0.580267 9.557333-0.8704 19.694933-0.8704 30.1568 0 10.478933 0.290133 21.230933 0.8704 31.914667l0.085333 1.655467h-26.282667v9.796266c9.489067 0 18.944-0.3072 28.1088-0.853333l1.6896-0.1024v17.169067l-1.706666-0.085334a590.7456 590.7456 0 0 0-28.091734-0.853333v12.407467a679.0144 679.0144 0 0 0 36.864-0.8704l1.6896-0.1024v16.315733l-1.6896-0.1024a707.874133 707.874133 0 0 0-36.437333-0.853333c5.410133 5.137067 11.605333 9.386667 18.3808 12.561066 6.690133 3.396267 13.7728 5.973333 21.0944 7.68l2.935467 0.5632-2.116267 2.082134a75.264 75.264 0 0 0-11.144533 14.404266l-0.768 1.245867-1.3312-0.648533a170.461867 170.461867 0 0 1-23.6032-14.045867c3.2768 2.816 6.724267 5.461333 10.325333 7.850667l1.450667 0.9728-1.092267 1.3312c-4.164267 5.12-7.8848 9.6256-11.1104 13.3632 7.68 4.898133 15.650133 10.069333 23.893333 15.4624l1.774934 1.1776-1.655467 1.365333c-3.9424 3.413333-7.3728 7.3728-10.205867 11.776l-1.024 1.4848-1.365333-1.194667a329.130667 329.130667 0 0 0-38.536533-28.5696v14.421334c0.597333 5.12-1.024 10.274133-4.471467 14.1312-2.901333 2.56-9.898667 4.6592-21.418667 6.434133l-1.570133 0.221867z m-2.304-15.5136c2.3552 3.6352 4.010667 7.68 4.864 11.895466 12.2368-1.9968 16.6912-4.0448 18.261333-5.4272a15.581867 15.581867 0 0 0 3.413333-11.776v-20.138666l2.4576 1.501866a328.482133 328.482133 0 0 1 40.021334 29.2352c2.389333-3.464533 5.12-6.656 8.192-9.557333-8.1408-5.3248-16.0256-10.410667-23.6544-15.274667l-1.536-0.9728 1.194666-1.3824c3.805867-4.369067 7.509333-8.8064 11.1616-13.312a119.995733 119.995733 0 0 1-9.437866-7.3216c-2.7648 5.802667-6.024533 11.383467-9.762134 16.622934l-0.853333 1.024-1.160533-0.631467a159.300267 159.300267 0 0 1-15.957334-9.6256l-0.648533-0.4608v-0.8192c0-9.591467 0.238933-17.015467 0.7168-22.6304h-12.288c0.512 7.304533 0.750933 16.384 0.750933 26.965333v1.024l-9.949866 4.352-15.36-18.5344a27.7504 27.7504 0 0 1-8.533334 5.905067c4.7104 4.881067 8.9088 10.1888 12.578134 15.872l1.024 1.536-1.706667 0.768c-10.359467 4.744533-20.992 8.8576-31.880533 12.288 2.8672 3.310933 5.3248 6.9632 7.355733 10.8544 7.168-4.0448 14.455467-7.816533 21.879467-11.3152 7.424-3.549867 14.882133-7.0144 22.357333-10.3936l2.269867-1.024v13.704533c-0.682667 5.290667-5.853867 7.543467-15.735467 7.0656h-0.034133z m-111.342934-3.8912c4.130133 2.850133 7.936 6.144 11.349334 9.847466 6.229333-9.403733 11.656533-19.3024 16.264533-29.610666 4.5056-10.752 8.2944-21.794133 11.3152-33.058134l0.631467-2.286933 1.8944 1.450667c5.239467 4.0448 10.359467 8.277333 15.325866 12.663466 2.4576-3.7888 5.034667-7.492267 7.748267-11.093333-7.509333-5.4272-15.240533-10.581333-23.1424-15.394133l-0.887467-0.546134 0.136534-1.024c1.7408-13.038933 3.208533-26.112 4.369066-38.843733l0.0512-0.5632 0.426667-0.4096a679.867733 679.867733 0 0 1 27.613867-25.685333 86.954667 86.954667 0 0 1-9.659734-10.120534 103.2192 103.2192 0 0 1-15.701333 19.882667l-2.730667 2.696533v-36.642133a156.791467 156.791467 0 0 1 1.467734-23.552 77.533867 77.533867 0 0 1-13.1072-2.0992c0.512 22.016 0.6656 42.4448 0.375466 60.672-0.119467 16.725333-1.450667 33.399467-3.9424 49.92a153.5488 153.5488 0 0 1-9.728 40.055467 105.079467 105.079467 0 0 1-20.053333 33.757866h-0.017067z m141.073067-33.348267c4.437333 2.986667 9.0112 5.751467 13.7216 8.2944 3.584-5.393067 6.7584-11.008 9.540267-16.827733l0.768-1.536-1.6384-1.28a93.917867 93.917867 0 0 1-19.5584-19.968h-25.480534a114.961067 114.961067 0 0 1-16.2304 18.858666l15.872 19.114667 5.802667-2.56a381.781333 381.781333 0 0 0-0.853333-27.357867l-0.136534-1.706666h19.2512l-0.170666 1.7408c-0.546133 5.5296-0.853333 13.141333-0.853334 23.2448l-0.034133-0.017067z m-82.346667-2.167467c3.669333 2.645333 6.877867 5.870933 9.489067 9.557334a153.412267 153.412267 0 0 0 27.2896-18.158934 113.5616 113.5616 0 0 0 20.753067-23.005866l0.4608-0.682667h28.8768l0.477866 0.682667c5.376 7.6288 11.9296 14.370133 19.387734 19.968a160.529067 160.529067 0 0 0 26.88 16.896c2.594133-4.164267 5.563733-8.072533 8.874666-11.690667a105.796267 105.796267 0 0 1-19.063466-7.287467 70.946133 70.946133 0 0 1-21.947734-15.9232l-2.423466-2.628266h3.601066c15.872 0 28.8768 0.238933 38.7072 0.768v-9.642667c-9.6256 0.512-21.742933 0.768-36.949333 0.768h-1.5872v-18.705067h1.5872c8.738133 0 18.210133 0.256 28.194133 0.768v-10.478933c-9.216 0.512-18.705067 0.768-28.194133 0.768h-1.5872v-16.128h26.180267a608.256 608.256 0 0 1-0.768-30.395733c0-9.898667 0.238933-19.5584 0.750933-28.672H607.914667c0.512 8.2944 0.768 17.646933 0.768 27.8016 0 9.7792-0.256 20.2752-0.802134 31.266133h21.845334v16.128h-1.604267c-7.424 0-16.605867-0.273067-27.323733-0.785067v10.496c11.144533-0.512 20.087467-0.768 27.306666-0.768h1.604267v18.705067h-1.5872c-14.114133 0-25.6512-0.238933-35.208533-0.768v9.6256c10.154667-0.512 21.4016-0.768 33.450666-0.768h2.9184l-1.570133 2.423467c-4.949333 7.2192-11.383467 13.277867-18.8928 17.749333a132.096 132.096 0 0 1-24.644267 12.1344h-0.034133z m91.989334-40.379733H640.512v-18.705067h35.618133v18.705067z m-32.426667-3.157333h29.2352v-12.407467h-29.218133v12.407467z m-102.741333 2.628266l-1.706667-0.375466a153.326933 153.326933 0 0 0-15.616-2.56l-1.706667-0.187734 0.324267-1.672533c3.413333-19.0976 5.751467-38.365867 6.997333-57.719467l0.136534-2.048 1.9456 0.648534c5.2224 1.6896 10.666667 2.542933 16.162133 2.5088h2.048l-0.512 1.962666c-1.604267 7.338667-2.7648 14.779733-3.464533 22.254934-1.365333 11.844267-2.816 23.671467-4.386134 35.4816l-0.221866 1.706666z m-15.240534-5.888c4.164267 0.512 8.362667 1.194667 12.526934 2.082134 1.5872-12.202667 3.003733-23.552 4.1472-33.723734 1.024-9.045333 2.048-16.008533 3.072-20.753066a54.562133 54.562133 0 0 1-13.192534-2.048 524.8 524.8 0 0 1-6.519466 54.442666h-0.034134z m150.408534-21.248H640.512v-16.110933h35.618133v16.110933z m-32.426667-3.140266h29.2352v-9.8304h-29.218133v9.8304z m56.081067-21.060267H620.373333v-17.851733h79.428267v17.851733h-0.034133z m-76.202667-3.1232h73.045333v-11.537067h-73.045333v11.537067z m76.2368-22.784H620.373333v-16.981333h79.428267v16.981333z m-76.2368-3.140267h73.045333v-10.683733h-73.045333v10.683733z m174.9504-0.170666c-3.208533 7.509333-6.8608 15.581867-10.939733 24.2176h27.153066c8.174933 0 17.527467-0.290133 28.040534-0.853334v15.530667a513.262933 513.262933 0 0 0-27.170134-0.853333h-8.7552v99.396266c0 9.796267 0.290133 21.6064 0.8704 35.4304h-19.268266c0-13.824 0.290133-25.6512 0.8704-35.447466V793.258667h-8.7552c-3.498667 6.3488-6.7072 12.117333-9.642667 17.288533-2.901333 5.1712-6.144 10.6496-9.642667 16.418133a50.176 50.176 0 0 0-17.5104-10.376533c5.4272-6.570667 10.410667-13.482667 14.8992-20.736 4.744533-7.645867 8.977067-15.581867 12.6976-23.773867 3.7888-8.3456 7.133867-16.418133 10.069334-24.200533 2.730667-7.133867 4.795733-14.506667 6.144-22.033067 7.338667 3.498667 14.967467 6.4 22.784 8.635734-4.727467 6.434133-8.704 13.397333-11.844267 20.736v0.034133z m44.6976 55.296c5.632-8.226133 10.615467-16.896 14.882133-25.924267 4.386133-9.216 8.482133-18.568533 12.288-28.074667 3.959467-10.0352 7.338667-20.2752 10.0864-30.685866 7.168 2.730667 14.472533 5.034667 21.896534 6.912a98.986667 98.986667 0 0 0-10.513067 19.012266c-2.9184 6.912-7.0144 16.128-12.288 27.648h42.069333c8.157867 0 17.800533-0.290133 28.910934-0.853333v15.5648a719.035733 719.035733 0 0 0-27.136-0.853333h-5.256534v108.885333c0 12.680533-3.805867 20.0192-11.400533 22.016a188.416 188.416 0 0 1-27.153067 4.7616 108.032 108.032 0 0 0-6.144-22.4768c7.594667 0.853333 15.274667 0.5632 22.784-0.853333 2.901333-1.160533 4.386133-5.461333 4.386134-12.970667v-99.3792h-28.0576l-13.994667 24.6272a278.0672 278.0672 0 0 1-18.414933 27.2384 46.301867 46.301867 0 0 0-15.7696-12.117333 154.350933 154.350933 0 0 0 18.824533-22.459734z m35.003733 120.1664l-0.221866-1.4848a105.642667 105.642667 0 0 0-6.058667-22.152534l-0.8704-2.269866 2.4576 0.119466c4.027733 0.187733 7.560533 0.290133 10.581333 0.290134 3.857067 0.238933 7.748267-0.1024 11.52-1.024 2.184533-0.853333 3.3792-4.949333 3.3792-11.502934V794.794667h-25.4976l-13.568 23.842133c-5.632 9.489067-11.810133 18.6368-18.517333 27.392l-1.297067 1.7408-1.28-1.757867a44.9024 44.9024 0 0 0-15.240533-11.639466l-1.877333-1.024 1.536-1.501867a152.234667 152.234667 0 0 0 18.619733-22.254933 186.026667 186.026667 0 0 0 14.762667-25.7024c4.386133-9.216 8.465067-18.5344 12.2368-27.989334 3.925333-9.984 7.287467-20.155733 10.018133-30.5152l0.477867-1.723733 1.672533 0.6656c7.099733 2.696533 14.336 4.983467 21.7088 6.843733l2.218667 0.580267-1.297067 1.860267c-4.130133 5.8368-7.594667 12.117333-10.359467 18.705066-2.833067 6.7072-6.656 15.274667-11.264 25.480534h39.594667c8.2944 0 17.988267-0.290133 28.842667-0.853334l1.672533-0.1024v18.875734l-1.672533-0.068267a727.2448 727.2448 0 0 0-27.0848-0.8704h-3.669334v107.349333c0 13.4144-4.215467 21.333333-12.561066 23.552-9.0112 2.2528-18.176 3.857067-27.409067 4.795734l-1.536 0.187733z m-2.423466-22.528c2.269867 6.1952 3.976533 12.561067 5.12 19.063466 8.567467-0.9216 17.066667-2.440533 25.429333-4.539733 6.843733-1.826133 10.1888-8.533333 10.1888-20.514133v-110.4896h6.8608c4.9664 0 13.346133 0.238933 25.565867 0.785066v-12.2368c-10.24 0.512-19.4048 0.768-27.323734 0.768h-44.544l1.024-2.218666c5.085867-11.1616 9.216-20.462933 12.253867-27.613867 2.56-6.126933 5.6832-11.963733 9.386667-17.476267a199.816533 199.816533 0 0 1-18.2272-5.7344c-2.679467 9.8816-5.905067 19.6096-9.6768 29.1328a488.174933 488.174933 0 0 1-12.288 28.16 191.965867 191.965867 0 0 1-15.018667 26.146134c-5.2224 7.5776-11.093333 14.677333-17.544533 21.230933 4.881067 2.525867 9.3184 5.870933 13.1072 9.864533 6.144-8.1408 11.844267-16.622933 17.0496-25.3952l14.472533-25.429333h30.5664v100.9664c0 8.277333-1.7408 13.0048-5.376 14.421333-6.912 1.501867-13.994667 1.877333-21.026133 1.109334z m-66.389334 21.504h-22.528v-1.570134c0-14.165333 0.273067-25.770667 0.853334-35.5328v-97.7408h-6.212267c-3.037867 5.512533-6.109867 11.008-9.181867 16.4864-3.140267 5.546667-6.365867 11.025067-9.6768 16.469334l-1.058133 1.723733-1.4336-1.416533a48.7936 48.7936 0 0 0-16.981333-10.018134l-2.048-0.785066 1.399466-1.706667c5.393067-6.5024 10.325333-13.380267 14.779734-20.565333 4.7104-7.5776 8.925867-15.4624 12.612266-23.586134 3.618133-7.918933 6.9632-15.957333 10.018134-24.1152 2.696533-7.031467 4.727467-14.318933 6.058666-21.742933l0.341334-2.048 1.911466 0.887467c7.2704 3.464533 14.7968 6.314667 22.528 8.533333l2.235734 0.6144-1.365334 1.860267a102.4 102.4 0 0 0-11.639466 20.4288c-3.191467 7.389867-6.485333 14.7456-9.915734 22.016h24.644267c8.2944 0 17.698133-0.290133 27.9552-0.853334l1.672533-0.1024v18.8928l-1.672533-0.085333a512.0512 512.0512 0 0 0-27.0848-0.8704h-7.168v97.826133c0 9.966933 0.3072 21.8624 0.887467 35.3792l0.068266 1.621334z m-19.370666-3.140267h16.008533a874.24 874.24 0 0 1-0.785067-33.860267v-100.983466h10.359467c7.099733 0 15.684267 0.256 25.565867 0.768v-12.219734c-9.659733 0.512-18.551467 0.768-26.453334 0.768h-29.696l1.0752-2.235733c4.061867-8.584533 7.7312-16.708267 10.922667-24.1664 2.901333-6.7584 6.485333-13.192533 10.7008-19.217067a155.306667 155.306667 0 0 1-18.944-7.253333c-1.365333 6.912-3.328 13.704533-5.8368 20.292267-3.106133 8.192-6.485333 16.315733-10.120533 24.302933-3.754667 8.260267-8.021333 16.264533-12.8 23.9616-4.1472 6.673067-8.704 13.1072-13.653334 19.2512 5.290667 2.030933 10.205867 4.9152 14.557867 8.533333 3.003733-4.949333 5.905067-9.898667 8.618667-14.6944 2.901333-5.1712 6.109867-10.922667 9.608533-17.271466l0.4608-0.8192h11.3152v100.9664c-0.580267 9.4208-0.853333 20.48-0.904533 33.860266v0.017067zM855.04 670.72L614.4 588.8l15.36 92.16-76.8-76.8-138.24 102.4-10.24-20.48 35.84-87.04-271.36 5.12 76.8-25.6 122.88-40.96-61.44-15.36 81.92-10.24-97.28-46.08 15.36-5.12h61.44l66.56 15.36-5.12-10.24-15.36-10.24 15.36-5.12-10.24-10.24-10.24-15.36-5.12-5.12h-15.36l-10.24-5.12-15.36-30.72-5.12-5.12-15.36 5.12s-46.08 5.12-61.44-15.36c-15.36-20.48-24.132267-21.947733-30.72-35.84a51.882667 51.882667 0 0 1 10.24-56.32c17.408-19.456 8.0384-24.866133 20.48-35.84a24.814933 24.814933 0 0 1 25.6-5.12l5.12-76.8s29.696-84.992 102.4-81.92c72.704 3.072 107.52 32.768 112.64 46.08 0 0 36.864-56.32 102.4-35.84 0 0 62.464 16.384 61.44 92.16 0 0 64.512-12.288 76.8 51.2 0 0 7.168 60.416-61.44 66.56 0 0 12.288 41.984-20.48 66.56a82.261333 82.261333 0 0 1-66.56 15.36s-12.288 44.032-35.84 51.2c-23.552 7.168-25.6 20.48-25.6 20.48h15.36s15.36-13.312 20.48-5.12c5.12 8.192 10.24 15.36 10.24 15.36l15.36-15.36 71.68-25.6-40.96 71.68 102.4-5.12-51.2 35.84 76.8 35.84-102.4-10.24 179.2 122.88zM491.52 399.36v-20.48h-35.84l-10.24 10.24 10.24 15.36 5.12 10.24h30.72l5.12-5.12-5.12-10.24z m-51.2 46.08l10.24 5.12h15.36v-15.36l-10.24 5.12-15.36 5.12z m194.56 97.28a291.106133 291.106133 0 0 1 81.92 0l-51.2-20.48 46.08-20.48-81.92 5.12-5.12-10.24 35.84-51.2-56.32 25.6h-15.36v-20.48l-20.48 10.24h-25.6v-5.12l-20.48-5.12 5.12 10.24-40.96 10.24h-30.72l15.36 15.36v10.24l-97.28-15.36 20.48 10.24 25.6 5.12 10.24 20.48h-25.6l15.36 5.12h10.24l-5.12 10.24-179.2 56.32 204.8-10.24v10.24l-20.48 87.04 117.76-81.92h10.24l46.08 40.96-5.12-56.32h25.6l148.48 51.2-138.24-87.04z m-87.04-5.12l-10.24-10.24 5.12-10.24V512h15.36l5.12 15.36-10.24 5.12-5.12 5.12z m-20.48-40.96l-5.12-10.24 5.12-15.36 10.24-5.12 10.24 10.24v10.24l-5.12 10.24h-15.36z m-5.12 10.24l-10.24 10.24-10.24 5.12-20.48-10.24v-15.36l15.36-15.36 15.36 5.12 10.24 10.24v10.24z" fill="#FF0000" /></svg>