<?xml version="1.0" standalone="no"?><!DOCTYPE svg PUBLIC "-//W3C//DTD SVG 1.1//EN" "http://www.w3.org/Graphics/SVG/1.1/DTD/svg11.dtd"><svg class="icon" width="1000px" height="1000.00px" viewBox="0 0 1024 1024" version="1.1" xmlns="http://www.w3.org/2000/svg"><path d="M0 1024V0h1024v1024H0zM992 32H32v960h960V32z" fill="#00FF00" /><path d="M265.5232 733.303467v15.991466a576.375467 576.375467 0 0 0-35.959467-0.887466H97.109333v166.144h146.466134c9.6768 0.119467 19.3536-0.477867 28.945066-1.774934v15.991467a419.259733 419.259733 0 0 0-31.573333-0.887467H78.6944c0.580267-13.636267 0.8704-23.7056 0.887467-30.208v-135.936c0-8.874667-0.290133-18.056533-0.887467-27.5456h149.111467c16.9472 0 29.525333-0.290133 37.717333-0.887466z m-110.523733 50.6368h59.648c11.1104 0 21.930667-0.290133 32.4608-0.887467v15.991467a561.8688 561.8688 0 0 0-32.4608-0.887467h-21.0432c-0.597333 11.861333-1.194667 23.108267-1.757867 33.757867h31.573333c13.448533 0 24.849067-0.290133 34.2016-0.887467v16.008533c-9.352533-0.597333-20.48-0.904533-33.314133-0.904533h-35.089067l-0.8704 4.437333c12.970667 5.700267 25.565867 12.2368 37.717334 19.5584 10.001067 5.973333 19.6608 12.4928 28.928 19.541334a45.602133 45.602133 0 0 0-14.8992 15.104 187.0848 187.0848 0 0 0-30.276267-24.8832 156.672 156.672 0 0 0-27.648-15.086934 112.64 112.64 0 0 1-23.671467 22.647467c-11.264 7.389867-22.9888 14.062933-35.089066 19.968a75.9296 75.9296 0 0 0-16.657067-16.896 130.7136 130.7136 0 0 0 43.4176-17.322667 50.807467 50.807467 0 0 0 19.729067-27.101866h-24.576c-12.868267 0-23.978667 0.3072-33.3312 0.887466v-15.991466c9.352533 0.597333 20.48 0.887467 33.3312 0.887466h27.221333c1.194667-11.2128 1.774933-22.4768 1.757867-33.757866H145.3568a122.077867 122.077867 0 0 1-7.0144 11.093333 41.864533 41.864533 0 0 1-9.642667 9.335467 129.262933 129.262933 0 0 0-16.674133-9.7792 110.882133 110.882133 0 0 0 18.858667-20.4288c5.888-8.891733 10.752-18.432 14.472533-28.433067 7.3728 3.310933 15.0016 5.973333 22.818133 8.004267a68.4544 68.4544 0 0 0-13.1584 16.0256z m119.125333 146.602666l-1.706667-0.170666a423.424 423.424 0 0 0-31.453866-0.8704H77.021867l0.085333-1.6896c0.580267-13.8752 0.8704-23.722667 0.8704-30.1568v-135.936c0-8.704-0.290133-17.92-0.8704-27.4432l-0.119467-1.706667h150.818134c17.220267 0 29.525333-0.3072 37.614933-0.904533l1.706667-0.119467v19.456l-1.706667-0.1024a571.170133 571.170133 0 0 0-35.84-0.887467H98.7136v162.9184h144.896c9.608533 0.1024 19.2-0.477867 28.706133-1.774933l1.8432-0.290133v19.6608h-0.017066zM80.384 926.242133h160.580267c12.714667 0 22.545067 0.238933 29.969066 0.768v-12.3904c-9.0624 1.1264-18.210133 1.6384-27.3408 1.536H95.522133v-169.386666h134.0416c14.148267 0 25.685333 0.256 34.3552 0.768v-12.509867c-8.1408 0.512-19.985067 0.750933-36.113066 0.750933H80.384c0.512 8.977067 0.768 17.681067 0.768 25.941334v135.918933c0.017067 6.212267-0.221867 15.581867-0.768 28.603733z m42.530133-16.725333l-0.785066-1.160533a74.581333 74.581333 0 0 0-16.315734-16.520534l-2.730666-2.048 3.310933-0.8192c15.189333-3.072 29.730133-8.874667 42.871467-17.066666 8.533333-5.905067 14.984533-14.370133 18.432-24.149334H145.3568c-12.680533 0-23.876267 0.290133-33.2288 0.887467l-1.706667 0.1024v-19.456l1.706667 0.136533c9.216 0.580267 20.087467 0.887467 33.211733 0.887467h25.770667c1.024-9.728 1.536-19.968 1.570133-30.532267H146.2784c-2.048 3.584-4.266667 7.082667-6.656 10.4448-2.798933 3.754667-6.178133 7.0144-10.018133 9.693867l-0.9216 0.682667-0.9216-0.6656a125.952 125.952 0 0 0-16.469334-9.642667l-2.167466-1.1264 1.877333-1.570133c6.997333-5.922133 13.243733-12.6976 18.5856-20.155734 5.802667-8.8064 10.5984-18.2272 14.2848-28.1088l0.631467-1.5872 1.536 0.7168c7.2704 3.242667 14.813867 5.888 22.528 7.901867l2.8672 0.768-2.218667 1.9968a67.498667 67.498667 0 0 0-11.298133 13.175467h56.7296c11.2128 0 22.101333-0.290133 32.3584-0.887467l1.6896-0.085333v19.456l-1.706667-0.119467a552.8576 552.8576 0 0 0-32.341333-0.887467h-19.524267c-0.529067 10.666667-1.058133 20.8384-1.5872 30.532267h29.883733c13.687467 0 24.866133-0.3072 34.116267-0.887467l1.6896-0.119466v19.456l-1.6896-0.1024a541.764267 541.764267 0 0 0-33.2288-0.887467h-33.792l-0.3584 1.8432c12.629333 5.614933 24.8832 11.997867 36.693333 19.114667 10.069333 6.007467 19.780267 12.578133 29.098667 19.6608l1.877333 1.450666-2.013866 1.2288a44.151467 44.151467 0 0 0-14.404267 14.592l-1.058133 1.706667-1.416534-1.4336a185.9072 185.9072 0 0 0-30.0032-24.661333c-8.277333-5.632-17.066667-10.496-26.248533-14.506667a114.141867 114.141867 0 0 1-23.296 22.050133c-11.3152 7.424-23.0912 14.1312-35.259733 20.104534l-1.194667 0.580266z m-12.561066-18.210133c5.12 4.096 9.6768 8.8064 13.585066 14.045866a311.296 311.296 0 0 0 33.6896-19.268266 111.172267 111.172267 0 0 0 23.3472-22.340267l0.7168-0.904533 1.092267 0.4096a160.085333 160.085333 0 0 1 27.938133 15.274666c10.461867 6.894933 20.224 14.848 29.115734 23.688534a47.445333 47.445333 0 0 1 12.373333-12.663467 327.594667 327.594667 0 0 0-26.965333-18.039467 326.997333 326.997333 0 0 0-37.546667-19.456l-1.194667-0.512 1.399467-7.031466h36.4032c11.9808 0 22.647467 0.256 31.744 0.768v-12.526934c-8.977067 0.512-19.6608 0.785067-32.597333 0.785067h-33.28l0.085333-1.706667c0.580267-10.666667 1.160533-21.9136 1.757867-33.757866l0.085333-1.536h22.562133c10.922667 0 21.2992 0.256 30.856534 0.785066v-12.561066c-9.8304 0.546133-20.206933 0.802133-30.856534 0.802133h-62.464l1.467734-2.474667a69.973333 69.973333 0 0 1 11.3152-14.336 146.056533 146.056533 0 0 1-18.7392-6.6048 139.4176 139.4176 0 0 1-13.994667 27.1872 111.496533 111.496533 0 0 1-17.322667 19.1488c4.744533 2.423467 9.352533 5.137067 13.7728 8.123734 3.191467-2.321067 6.007467-5.12 8.362667-8.277334 2.5088-3.5328 4.829867-7.185067 6.929067-10.973866l0.4608-0.802134h31.470933v1.621334a314.538667 314.538667 0 0 1-1.757867 33.928533l-0.1536 1.450667H145.3568c-12.3904 0-22.784-0.256-31.744-0.768v12.509866c9.0624-0.512 19.729067-0.768 31.744-0.768h26.760533l-0.6656 2.0992a52.6336 52.6336 0 0 1-20.343466 27.938134 127.317333 127.317333 0 0 1-40.7552 16.725333z m313.941333-165.137067c2.6624 8.430933 4.7104 17.0496 6.144 25.770667h40.3456c9.915733 0 19.575467-0.3072 28.945067-0.887467v17.749333a263.338667 263.338667 0 0 0-28.945067-1.757866h-117.5552c-0.580267 10.069333-0.733867 22.954667-0.426667 38.638933 0.273067 16.0256-0.324267 32.034133-1.757866 47.991467-1.365333 15.735467-4.027733 31.3344-7.901867 46.6432a83.012267 83.012267 0 0 1-18.858667 36.420266 73.079467 73.079467 0 0 0-15.786666-13.312c5.290667-4.778667 9.898667-10.325333 13.602133-16.4352 4.420267-7.8848 7.509333-16.4352 9.216-25.326933 2.679467-13.175467 4.437333-26.538667 5.256533-39.970133-4.096 2.389333-9.506133 5.802667-16.213333 10.24-6.724267 4.437333-12.424533 8.430933-17.117867 11.997866a81.783467 81.783467 0 0 0-11.400533-19.592533c7.4752-2.167467 14.813867-4.829867 21.930667-7.9872 8.192-3.566933 15.786667-7.1168 22.801066-10.666667v-36.437333c0.085333-12.458667-0.512-24.917333-1.757866-37.307733h78.062933c-2.3552-6.5024-4.983467-13.909333-7.901867-22.2208l19.319467-3.549867z m-92.9792 77.312c-4.676267 2.9696-9.949867 6.229333-15.786667 9.7792a206.779733 206.779733 0 0 0-20.1728-32.8704c5.512533-2.3552 10.581333-5.666133 14.916267-9.796267 5.256533 7.714133 12.253867 18.670933 21.026133 32.8704l0.017067 0.017067z m159.6416-7.9872v15.104a165.376 165.376 0 0 0-24.576 13.312c-8.192 5.341867-16.674133 11.264-25.429333 17.7664v67.5328c0.5632 6.997333-2.389333 13.824-7.901867 18.210133-5.2736 3.84-14.916267 6.365867-28.945067 7.560534a46.199467 46.199467 0 0 0-7.031466-21.333334c7.048533 0.273067 14.114133-0.170667 21.060266-1.3312 3.515733-0.887467 5.256533-5.188267 5.256534-12.885333v-45.312c0.341333-7.509333-0.546133-15.0016-2.628267-22.203733a688.196267 688.196267 0 0 0 38.587733-21.333334h-57.002666c-9.9328 0-21.0432 0.3072-33.3312 0.887467v-17.7664c11.076267 1.211733 22.203733 1.809067 33.348266 1.774933h88.576z m-166.7072 143.6672l-1.160533-1.365333a71.816533 71.816533 0 0 0-15.445334-13.021867l-1.792-1.1264 1.5872-1.4336a72.874667 72.874667 0 0 0 13.312-16.093867c4.317867-7.7312 7.338667-16.110933 9.0112-24.814933a279.893333 279.893333 0 0 0 5.000534-36.6592c-3.754667 2.2528-8.260267 5.12-13.5168 8.618667-6.656 4.386133-12.407467 8.3968-17.015467 11.9296l-1.672533 1.245866-0.785067-1.928533a80.349867 80.349867 0 0 0-11.178667-19.1488l-1.536-1.9456 2.3552-0.648533a167.594667 167.594667 0 0 0 21.725867-7.918934c7.3728-3.191467 14.660267-6.587733 21.845333-10.171733v-35.4304c0.068267-12.407467-0.512-24.797867-1.757866-37.137067l-0.187734-1.792h77.550934c-2.1504-5.973333-4.5056-12.663467-7.099734-20.053333l-0.648533-1.792 22.562133-4.164267 0.4096 1.3824c2.542933 8.072533 4.539733 16.298667 5.973334 24.6272h38.980266c10.0352 0 19.729067-0.3072 28.842667-0.887466l1.706667-0.1024v21.2992l-1.774934-0.187734c-9.557333-1.1264-19.1488-1.706667-28.7744-1.774933h-116.0192a538.453333 538.453333 0 0 0-0.341333 37.000533c0.256 16.059733-0.324267 32.136533-1.757867 48.145067a298.1888 298.1888 0 0 1-7.953066 46.933333 84.906667 84.906667 0 0 1-19.234134 37.102934L324.266667 939.178667z m-13.141333-15.9744c4.8128 3.208533 9.233067 6.946133 13.175466 11.144533a82.8416 82.8416 0 0 0 17.3056-34.423466 295.253333 295.253333 0 0 0 7.850667-46.3872c1.4336-15.872 2.030933-31.8464 1.757867-47.786667a518.0928 518.0928 0 0 1 0.443733-38.792533l0.085333-1.536h119.04a259.413333 259.413333 0 0 1 27.3408 1.5872v-14.216534c-8.704 0.512-17.8688 0.768-27.3408 0.768H429.056l-0.2048-1.365333c-1.3312-8.174933-3.2256-16.247467-5.666133-24.1664l-16.042667 2.952533c2.6624 7.5776 5.085867 14.370133 7.253333 20.411734l0.785067 2.167466h-78.574933c1.024 10.376533 1.570133 22.3744 1.570133 35.703467v37.4272l-0.887467 0.4608c-7.5264 3.771733-15.172267 7.338667-22.8864 10.683733-6.468267 2.8672-13.090133 5.341867-19.831466 7.424 3.6864 5.000533 6.826667 10.410667 9.335466 16.110934 5.085867-3.754667 10.274133-7.3728 15.5648-10.837334 5.341867-3.566933 10.769067-6.997333 16.298667-10.274133l2.6112-1.536-0.221867 3.072a294.570667 294.570667 0 0 1-5.290666 40.209067 85.981867 85.981867 0 0 1-9.403734 25.838933c-3.4304 5.632-7.5776 10.8032-12.3392 15.36z m91.528533 13.533867l-0.136533-1.621334a44.868267 44.868267 0 0 0-6.7584-20.5824l-1.570134-2.491733h2.9184c6.912 0.256 13.824-0.170667 20.650667-1.28 3.362133-0.853333 4.061867-6.621867 4.061867-11.3152v-45.312a67.754667 67.754667 0 0 0-2.56-21.640533l-0.512-1.365334 1.28-0.682666a655.7184 655.7184 0 0 0 33.348266-18.2272h-51.029333c-9.762133 0-20.957867 0.290133-33.28 0.887466l-1.6896 0.085334V791.893333l1.774933 0.170667a295.936 295.936 0 0 0 33.160534 1.792h90.248533v17.800533l-0.9728 0.4096a165.9392 165.9392 0 0 0-24.32 13.2096c-7.765333 5.051733-16.0768 10.8544-24.712533 17.237334v66.696533c0.597333 7.509333-2.6112 14.848-8.533334 19.524267-5.563733 4.061867-15.3088 6.656-29.7472 7.850666l-1.621333 0.136534z m-2.730667-21.469867c3.072 5.563733 4.9664 11.656533 5.632 17.954133 12.834133-1.194667 21.76-3.584 26.5728-7.099733 5.102933-4.061867 7.816533-10.410667 7.236267-16.896V840.874667l0.631467-0.512a520.874667 520.874667 0 0 1 25.531733-17.8176 168.618667 168.618667 0 0 1 23.825067-13.038934v-12.424533h-86.971734c-10.615467 0.034133-21.213867-0.494933-31.744-1.570133v14.250666c11.690667-0.529067 22.357333-0.802133 31.744-0.802133h62.941867l-5.12 3.003733a688.810667 688.810667 0 0 1-37.444267 20.736c1.757867 6.997333 2.525867 14.199467 2.2528 21.418667V899.413333c0 8.618667-2.0992 13.346133-6.468266 14.455467-6.144 1.092267-12.373333 1.570133-18.602667 1.3824z m-85.026133-99.703467l-0.785067-1.570133a205.960533 205.960533 0 0 0-20.002133-32.631467l-1.211733-1.621333 1.826133-0.836267a49.322667 49.322667 0 0 0 14.4384-9.437866l1.365333-1.365334 1.0752 1.5872c5.3248 7.799467 12.424533 18.875733 21.111467 32.938667l0.853333 1.365333-1.365333 0.8704c-4.693333 2.9696-9.966933 6.229333-15.8208 9.796267l-1.4848 0.904533z m-17.032533-34.56a210.602667 210.602667 0 0 1 18.346666 29.952c4.693333-2.850133 9.0112-5.512533 12.919467-7.9872a943.752533 943.752533 0 0 0-19.114667-29.866666 52.906667 52.906667 0 0 1-12.1856 7.901866h0.034134zM605.866667 846.1312c-4.096 3.549867-9.079467 7.406933-14.916267 11.554133a236.066133 236.066133 0 0 0-18.432-31.095466v64.853333c0 11.861333 0.290133 25.1904 0.8704 39.9872h-19.285333c0.5632-14.813867 0.853333-28.16 0.8704-39.9872v-56.849067c-2.9184 8.874667-6.144 17.3056-9.642667 25.309867a203.434667 203.434667 0 0 1-14.916267 27.101867 160.8192 160.8192 0 0 0-14.0288-14.216534 160.426667 160.426667 0 0 0 18.432-31.095466c7.936-16.384 13.824-33.706667 17.527467-51.541334h-5.256533c-8.226133 0-16.4352 0.6144-24.576 1.792v-16.896c8.192 0.597333 16.093867 0.887467 23.688533 0.887467h8.772267v-17.783467c0-9.472-0.290133-18.346667-0.887467-26.641066h20.1728a148.992 148.992 0 0 0-1.7408 26.641066v17.783467h9.6256c6.417067 0 13.7216-0.3072 21.930667-0.904533v16.008533a722.7392 722.7392 0 0 0-31.573334-0.887467v35.5328c3.498667-2.952533 7.594667-6.212267 12.288-9.7792 9.352533 13.056 16.384 23.125333 21.0432 30.225067h0.034134z m81.578666-60.416v115.5072c0 7.714133 1.7408 11.844267 5.256534 12.4416 2.884267 0.5632 5.8368 0.7168 8.772266 0.443733a6.656 6.656 0 0 0 4.8128-6.212266c1.041067-5.717333 1.4848-11.52 1.3312-17.339734 5.802667 3.191467 11.997867 5.5808 18.432 7.1168-1.194667 8.567467-3.566933 16.9472-7.031466 24.8832a12.117333 12.117333 0 0 1-11.434667 6.212267h-18.432a20.855467 20.855467 0 0 1-15.36-4.898133c-3.2256-3.242667-4.539733-9.898667-3.9424-19.968v-145.7152h-33.3312c0 33.774933-0.443733 59.989333-1.314133 78.6432A218.282667 218.282667 0 0 1 627.3024 887.466667a128.2048 128.2048 0 0 1-25.873067 45.755733 106.632533 106.632533 0 0 0-15.786666-14.199467c8.192-6.536533 14.916267-14.711467 19.729066-23.995733a99.925333 99.925333 0 0 0 10.0864-29.320533c1.809067-10.581333 2.986667-21.265067 3.515734-32 0.580267-11.264 0.853333-25.463467 0.8704-42.632534 0-17.783467-0.290133-33.774933-0.8704-47.9744h69.290666c-0.580267 16.571733-0.853333 30.788267-0.853333 42.615467h0.034133z m-85.9648 150.016l-1.245866-1.467733a104.5504 104.5504 0 0 0-15.530667-13.994667l-1.621333-1.245867 1.621333-1.314133a73.386667 73.386667 0 0 0 19.319467-23.466667c4.778667-9.045333 8.123733-18.773333 9.898666-28.842666 1.809067-10.513067 2.9696-21.128533 3.498667-31.778134 0.580267-11.264 0.8704-25.6 0.8704-42.564266a1195.690667 1195.690667 0 0 0-0.8704-47.9232l-0.085333-1.6896h72.635733l-0.068267 1.706666a1219.362133 1219.362133 0 0 0-0.853333 42.564267v115.5072c0 4.642133 0.682667 10.2912 3.925333 10.837333 2.730667 0.546133 5.5296 0.682667 8.311467 0.426667 2.048-0.785067 3.413333-2.747733 3.4304-4.949333 1.024-5.614933 1.450667-11.298133 1.297067-16.981334v-2.747733l2.389333 1.348267c5.666133 3.089067 11.7248 5.4272 18.005333 6.946133l1.4848 0.375467-0.290133 1.501866a95.232 95.232 0 0 1-7.202133 25.378134 13.6704 13.6704 0 0 1-12.8 7.031466h-18.432a22.340267 22.340267 0 0 1-16.469334-5.358933c-3.584-3.6352-5.051733-10.581333-4.437333-21.230933V759.808h-30.122667c0 32.853333-0.443733 58.7776-1.314133 77.090133a221.115733 221.115733 0 0 1-7.953067 51.029334 130.440533 130.440533 0 0 1-26.180266 46.336l-1.211734 1.467733z m-13.2096-16.776533c4.676267 3.584 9.079467 7.543467 13.175467 11.776a125.883733 125.883733 0 0 0 24.3712-43.707734c4.5568-16.401067 7.168-33.28 7.8336-50.2784 0.853333-18.5344 1.314133-44.970667 1.314133-78.5408v-1.621333h36.522667v147.336533c-0.5632 9.6256 0.6144 15.9232 3.4816 18.8416 3.959467 3.293867 9.079467 4.881067 14.216533 4.420267h18.432c4.096 0.290133 8.021333-1.809067 10.001067-5.410133 3.208533-7.304533 5.410133-15.0016 6.5536-22.8864a78.5408 78.5408 0 0 1-14.967467-5.632c0.0512 5.034667-0.392533 10.069333-1.3312 15.018666a8.0896 8.0896 0 0 1-6.1952 7.458134c-3.072 0.256-6.1952 0.1024-9.233066-0.443734-6.587733-1.143467-6.587733-10.871467-6.587734-14.045866v-115.524267c0-11.6736 0.256-25.463467 0.802134-41.028267h-65.9968c0.512 13.8752 0.802133 29.457067 0.802133 46.370134 0 17.032533-0.273067 31.402667-0.8704 42.717866-0.529067 10.786133-1.706667 21.538133-3.515733 32.187734a102.007467 102.007467 0 0 1-10.24 29.7984c-4.608 8.874667-10.922667 16.759467-18.602667 23.210666h0.034133z m-13.192533 14.097066H552.448l0.085333-1.672533c0.580267-14.848 0.8704-28.296533 0.8704-39.936V844.117333a300.714667 300.714667 0 0 1-6.570666 16.4352c-4.317867 9.472-9.352533 18.602667-15.035734 27.3408l-1.143466 1.774934-1.399467-1.5872a156.330667 156.330667 0 0 0-13.892267-14.062934l-1.2288-1.0752 1.0752-1.245866a159.7952 159.7952 0 0 0 18.193067-30.754134 219.648 219.648 0 0 0 16.964267-49.169066h-3.242667c-8.157867 0-16.2816 0.597333-24.354133 1.757866l-1.809067 0.273067v-20.48l1.706667 0.119467a320.853333 320.853333 0 0 0 23.552 0.887466h7.168v-16.145066c0-9.3184-0.3072-18.261333-0.887467-26.538667l-0.119467-1.7408h23.8592l-0.392533 1.9456a148.3776 148.3776 0 0 0-1.723733 26.333867v16.145066h8.0384c6.5024 0 13.824-0.290133 21.8112-0.887466l1.706666-0.119467v19.456l-1.672533-0.085333a737.28 737.28 0 0 0-29.9008-0.8704v30.446933c3.0208-2.4576 6.280533-5.0176 9.728-7.645867l1.297067-0.989866 0.955733 1.3312c9.557333 13.312 16.4352 23.210667 21.077333 30.2592l0.802134 1.211733-1.0752 0.938667c-4.829867 4.096-9.847467 7.9872-15.018667 11.639466l-1.5872 1.109334-0.802133-1.757867a212.548267 212.548267 0 0 0-15.36-26.453333v59.528533c0 12.014933 0.290133 25.4464 0.8704 39.936l0.1024 1.672533z m-19.3024-3.242666h15.957333a1054.941867 1054.941867 0 0 1-0.802133-38.3488v-102.912h1.604267c7.816533 0 17.6128 0.256 29.969066 0.802133v-12.544c-7.389867 0.512-14.216533 0.750933-20.309333 0.750933h-11.264v-19.387733c-0.170667-8.362667 0.3072-16.725333 1.416533-25.0368h-16.5376c0.512 7.8848 0.768 16.298667 0.768 25.0368v19.387733h-10.376533c-7.3728 0-14.728533-0.256-22.084267-0.750933v13.277867c7.611733-1.024 15.291733-1.536 22.971734-1.536h7.236266l-0.4096 1.962666a226.184533 226.184533 0 0 1-17.681066 51.9168 178.107733 178.107733 0 0 1-17.6128 30.208c4.0448 3.720533 7.918933 7.6288 11.5712 11.7248 5.154133-8.021333 9.728-16.401067 13.653333-25.088 3.618133-8.226133 6.826667-16.622933 9.608533-25.156266l3.1232-9.489067v66.850133a1020.7232 1020.7232 0 0 1-0.8192 38.314667l0.017067 0.034133z m18.517333-103.4752a252.245333 252.245333 0 0 1 17.288534 28.910933c4.608-3.2768 8.6528-6.434133 12.151466-9.403733-4.437333-6.690133-10.752-15.752533-19.268266-27.648-3.447467 2.645333-6.843733 5.358933-10.1888 8.1408h0.017066z m223.658667-1.536v67.5328c0 12.4416 0.290133 25.173333 0.8704 38.212266h-18.432a902.826667 902.826667 0 0 0 0.887467-38.229333v-64a266.615467 266.615467 0 0 1-28.945067 48.878933 135.2704 135.2704 0 0 0-12.288-14.216533 161.160533 161.160533 0 0 0 25.873067-39.543467 129.928533 129.928533 0 0 0 11.844266-35.089066c-9.386667 0-18.432 0.290133-27.204266 0.887466v-15.991466c8.772267 0.6144 19.012267 0.904533 30.72 0.887466v-20.4288c0-8.874667-0.290133-16.878933-0.8704-23.995733h18.432c-0.597333 5.9392-0.887467 13.943467-0.8704 23.995733v20.4288c7.594667 0 15.786667-0.290133 24.576-0.887466v15.991466a376.644267 376.644267 0 0 0-24.576-0.887466v34.645333c4.6592-2.3552 9.335467-5.0176 14.0288-7.9872 5.8368 10.666667 11.383467 21.026133 16.657066 31.095467a107.4176 107.4176 0 0 0-15.8208 8.942933c-4.266667-10.410667-9.233067-20.497067-14.8992-30.208l0.017067-0.034133z m67.976533-76.407467c-2.628267 5.9392-5.12 11.861333-7.458133 17.7664h86.8352a1522.176 1522.176 0 0 0-1.757867 32.8704c0 36.1472-1.160533 69.922133-3.498666 101.290667-2.3552 13.038933-7.168 21.162667-14.4896 24.439466a108.936533 108.936533 0 0 1-33.757867 6.656 77.141333 77.141333 0 0 0-7.0144-20.445866 129.877333 129.877333 0 0 0 28.0576-0.887467c6.434133-1.160533 10.24-8.874667 11.400533-23.0912 2.338133-33.160533 3.2256-68.4032 2.645334-105.728h-74.581334c-5.137067 11.605333-11.008 22.869333-17.544533 33.757867a52.155733 52.155733 0 0 0-14.916267-8.004267c8.8064-13.073067 16.162133-27.0848 21.930667-41.762133 5.188267-12.663467 9.301333-25.736533 12.288-39.082667 6.3488 3.328 13.141333 5.717333 20.189867 7.099733a89.173333 89.173333 0 0 0-8.362667 15.138134l0.034133-0.017067z m-3.515733 130.6112a120.9344 120.9344 0 0 0-30.2592 7.9872 217.531733 217.531733 0 0 0-7.8848-20.4288c3.498667-1.1776 7.594667-5.614933 12.288-13.312 4.5568-7.458133 8.362667-15.36 11.400533-23.552 2.901333-8.004267 5.8368-17.629867 8.772267-28.8768 6.894933 2.901333 13.6192 6.161067 20.1728 9.7792-6.161067 7.765333-11.332267 16.264533-15.36 25.309867-4.8128 9.949867-10.24 19.592533-16.213333 28.8768a1285.632 1285.632 0 0 0 42.0864-2.6624 372.992 372.992 0 0 0-8.772267-26.658134l17.544533-5.3248c3.515733 10.069333 6.724267 19.541333 9.642667 28.433067 2.798933 8.379733 4.864 17.015467 6.144 25.770667-6.314667 1.143467-12.475733 2.935467-18.432 5.3248a263.68 263.68 0 0 0-3.515733-14.216534c-6.434133 0.597333-15.650133 1.792-27.630934 3.549867h0.017067z m28.074667 54.152533l-0.273067-1.450666a75.656533 75.656533 0 0 0-6.877867-19.968l-1.211733-2.491734 2.730667 0.136534a129.1776 129.1776 0 0 0 27.716266-0.853334c5.597867-1.024 8.994133-8.311467 10.069334-21.6576 2.304-32.4608 3.191467-67.447467 2.6624-103.970133h-71.936c-5.0688 11.332267-10.820267 22.357333-17.220267 32.989867l-0.904533 1.536-1.416534-1.058134a50.926933 50.926933 0 0 0-14.4384-7.765333l-2.048-0.682667 1.194667-1.774933c8.704-12.970667 16.008533-26.88 21.76-41.437867 5.12-12.578133 9.216-25.565867 12.202667-38.826666l0.4096-2.048 1.877333 0.938666c6.212267 3.259733 12.8512 5.597867 19.729067 6.9632l2.491733 0.4608-1.467733 2.0992a89.019733 89.019733 0 0 0-8.192 14.813867c-2.269867 5.12-4.437333 10.2912-6.536534 15.479467h86.186667l-0.136533 1.7408a1557.162667 1557.162667 0 0 0-1.757867 32.836266c0 35.84-1.1776 69.973333-3.498667 101.341867-2.4576 13.687467-7.645867 22.306133-15.428266 25.787733a111.104 111.104 0 0 1-34.304 6.792534l-1.3824 0.068266z m-3.072-20.4288c2.542933 5.4272 4.4544 11.1104 5.700266 16.964267a105.079467 105.079467 0 0 0 31.829334-6.434133c6.741333-3.003733 11.298133-10.820267 13.533866-23.210667 2.304-31.112533 3.4816-65.160533 3.4816-101.0176 0.546133-12.612267 1.109333-22.8352 1.655467-31.232h-87.552l0.8704-2.218667c2.269867-5.751467 4.795733-11.776 7.492267-17.834666 2.013867-4.608 4.386133-9.0624 7.099733-13.312a77.7216 77.7216 0 0 1-16.349867-5.853867c-3.003733 12.731733-6.997333 25.224533-11.9296 37.341867-5.563733 14.114133-12.578133 27.648-20.923733 40.328533 4.2496 1.6384 8.260267 3.805867 11.946667 6.468267 6.144-10.359467 11.6736-21.077333 16.554666-32.085334l0.426667-0.938666H928.426667v1.570133a1239.296 1239.296 0 0 1-2.628267 105.8816c-1.262933 15.223467-5.4272 23.261867-12.714667 24.576a121.634133 121.634133 0 0 1-25.7024 1.024h0.034134z m-86.903467 19.421867H778.752l0.068267-1.672533c0.580267-13.687467 0.887467-26.504533 0.887466-38.144v-56.6272a291.5328 291.5328 0 0 1-26.0608 42.496l-1.28 1.757866-1.297066-1.7408a134.485333 134.485333 0 0 0-12.1344-14.062933l-1.0752-1.0752 1.024-1.160533a160.170667 160.170667 0 0 0 25.6-39.133867 136.704 136.704 0 0 0 11.434666-32.768c-8.413867 0.017067-16.810667 0.324267-25.207466 0.8704l-1.706667 0.1024v-19.456l1.706667 0.136533c8.277333 0.5632 17.749333 0.853333 28.996266 0.853334v-18.773334c0-8.7552-0.3072-16.759467-0.887466-23.876266l-0.136534-1.7408h21.930667l-0.170667 1.774933c-0.580267 5.8368-0.887467 13.636267-0.887466 23.825067v18.807466c7.6288-0.0512 15.2576-0.341333 22.869333-0.8704l1.706667-0.136533v19.456l-1.706667-0.1024c-7.611733-0.512-15.240533-0.8192-22.869333-0.8704v30.3616c3.959467-2.0992 7.816533-4.334933 11.605333-6.724267l1.416533-0.904533 0.836267 1.4848c5.649067 10.325333 11.2128 20.701867 16.657067 31.1296l0.8192 1.536-1.570134 0.7168a104.618667 104.618667 0 0 0-15.547733 8.7552l-1.621333 1.092267-0.750934-1.809067c-3.498667-8.482133-7.441067-16.7424-11.844266-24.7808v61.44c0 12.561067 0.3072 25.3952 0.887466 38.109867l0.068267 1.723733z m-18.432-3.242667h15.069867a878.933333 878.933333 0 0 1-0.802134-36.573866v-105.5744h1.604267c7.031467 0 14.762667 0.256 22.954667 0.785066v-12.544c-7.645867 0.512-15.291733 0.768-22.954667 0.785067h-1.604267v-22.0672c0-9.301333 0.238933-16.657067 0.733867-22.357333h-14.933333c0.512 6.741333 0.733867 14.250667 0.733866 22.357333v22.0672h-1.5872c-11.229867 0-20.770133-0.256-29.115733-0.785067v12.544c8.311467-0.512 16.896-0.785067 25.6-0.785066h1.8432l-0.256 1.8432a132.215467 132.215467 0 0 1-11.963733 35.566933 163.771733 163.771733 0 0 1-25.1392 38.775467c3.566933 3.669333 6.912 7.5264 10.069333 11.5712 10.752-14.609067 19.968-30.293333 27.477333-46.813867l3.072-7.0656v71.68c-0.034133 12.202667-0.324267 24.405333-0.8192 36.608h0.017067z m17.322667-104.789333c5.358933 9.1648 10.0864 18.670933 14.165333 28.4672 4.130133-2.696533 8.430933-5.12 12.868267-7.2192-4.949333-9.386667-9.949867-18.7392-15.018667-28.0576-3.925333 2.440533-7.936 4.7104-12.032 6.8096h0.017067z m92.9792 67.7888l-0.4096-1.877333c-1.024-4.608-2.048-8.9088-3.140267-12.8-6.468267 0.648533-15.274667 1.792-26.197333 3.413333-10.24 1.348267-20.292267 3.9936-29.866667 7.8848l-1.604267 0.699733-0.546133-1.672533c-2.269867-6.877867-4.881067-13.653333-7.8336-20.292267l-0.733867-1.6384 1.706667-0.5632c2.133333-0.7168 5.8368-3.4816 11.400533-12.629333 4.488533-7.389867 8.260267-15.189333 11.264-23.278933 2.901333-7.970133 5.8368-17.629867 8.704-28.706134l0.4608-1.809066 1.706667 0.7168c6.946133 2.9184 13.7216 6.212267 20.3264 9.847466l1.877333 1.041067-1.536 1.536c-6.024533 7.662933-11.093333 16.042667-15.0528 24.9344a314.402133 314.402133 0 0 1-14.5408 26.350933c11.3664-0.546133 23.7568-1.365333 36.864-2.3552a346.0608 346.0608 0 0 0-8.192-24.610133l-0.580266-1.6384 20.650666-6.263467 0.512 1.450667c3.498667 10.0864 6.7072 19.575467 9.6256 28.4672 2.833067 8.482133 4.9152 17.186133 6.212267 26.043733l0.221867 1.536-1.536 0.273067a93.184 93.184 0 0 0-18.090667 5.239467l-1.672533 0.699733z m-1.194667-18.193067l0.392533 1.314134c1.041067 3.7888 2.0992 7.953067 3.106134 12.458666a95.232 95.232 0 0 1 15.445333-4.437333 153.122133 153.122133 0 0 0-5.8368-23.9616c-2.781867-8.430933-5.8368-17.408-9.130667-26.9312l-14.4384 4.386133c3.054933 8.277333 5.7856 16.674133 8.192 25.156267l0.546134 1.8944-1.962667 0.170667c-15.1552 1.194667-29.354667 2.082133-42.154667 2.6624l-3.242666 0.170666 1.860266-2.730666c5.9392-9.216 11.332267-18.7904 16.110934-28.672 3.9424-8.482133 8.704-16.554667 14.216533-24.132267-5.393067-2.901333-10.922667-5.563733-16.5376-7.9872-2.747733 10.410667-5.546667 19.575467-8.3456 27.204267a136.362667 136.362667 0 0 1-11.537067 23.842133c-2.7136 5.307733-6.656 9.8816-11.52 13.312 2.491733 5.717333 4.744533 11.537067 6.741334 17.442133a126.464 126.464 0 0 1 29.047466-7.424c11.776-1.7408 21.0944-2.952533 27.733334-3.584l1.3312-0.1536zM826.402133 371.029333l-21.725866 21.742934 20.855466 20.855466-290.594133 290.594134-20.855467-20.855467-20.855466 20.855467-290.594134-290.594134 20.855467-20.872533-21.725867-21.725867 312.32-312.337066 312.32 312.354133zM495.854933 655.5136l18.2272-18.210133 18.2272 18.210133 116.155734-116.155733-75.025067-75.042134V563.2H460.8v-104.96l-81.117867 81.1008 116.1728 116.155733zM239.189333 372.6336l20.138667 20.138667-18.2272 18.210133 114.261333 114.261333 84.923734-84.923733H348.16v-102.4h88.661333l-81.4592-81.4592-116.1728 116.1728zM514.082133 58.709333l-21.725866 21.725867 21.725866 21.725867 21.725867-21.725867-21.725867-21.725867z m17.578667 66.833067l-17.578667 17.578667-17.578666-17.578667-116.821334 116.8384L460.8 323.498667V215.04h112.64v102.365867l75.025067-75.025067-116.821334-116.8384z m141.141333 130.9184L591.36 337.92h94.72v102.4h-98.218667l84.9408 84.923733 114.261334-114.261333-18.2272-18.2272 20.138666-20.138667-116.1728-116.155733z" fill="#00FF00" /></svg>