<?xml version="1.0" standalone="no"?><!DOCTYPE svg PUBLIC "-//W3C//DTD SVG 1.1//EN" "http://www.w3.org/Graphics/SVG/1.1/DTD/svg11.dtd"><svg class="icon" width="1000px" height="1000.00px" viewBox="0 0 1024 1024" version="1.1" xmlns="http://www.w3.org/2000/svg"><path d="M0 1024V0h1024v1024H0zM992 32H32v960h960V32z" fill="#00FF00" /><path d="M98.816 756.5312c-1.109333 9.557333-1.706667 19.1488-1.757867 28.7744v81.954133c0 9.301333 0.597333 21.230933 1.757867 35.7376H78.6944c1.160533-14.506667 1.7408-26.436267 1.757867-35.7376v-81.083733c0-5.802667-0.580267-15.701333-1.757867-29.6448H98.816z m21.8624 2.6112a241.8688 241.8688 0 0 0-2.628267-31.3856h20.992c-1.160533 12.8-1.7408 23.552-1.7408 32.256v139.502933c0 5.819733 0.290133 15.701333 0.8704 29.6448H118.920533c1.1264-9.847467 1.706667-19.746133 1.757867-29.6448V759.125333z m76.9536-8.704c-2.9184 5.239467-5.546667 9.898667-7.867733 13.960533h52.462933c8.738133 0 18.944-0.597333 30.600533-1.7408v17.425067c-9.557333-1.1264-19.2-1.706667-28.842666-1.7408H183.637333a378.658133 378.658133 0 0 1-27.101866 36.625067 59.136 59.136 0 0 0-14.848-10.478934 161.501867 161.501867 0 0 0 29.2864-40.106666c6.434133-11.605333 11.5712-23.893333 15.3088-36.608 7.714133 3.328 15.581867 6.229333 23.620266 8.704-5.000533 3.754667-9.181867 8.516267-12.270933 13.943466v0.017067z m73.454933 127.2832c0 16.861867 0.290133 31.965867 0.8704 45.346133H253.610667v-15.701333H176.64v18.3296H158.276267c0.580267-14.5408 0.853333-30.8224 0.8704-48.810667 0-18.602667-0.290133-34.594133-0.8704-47.957333h113.664c-0.580267 15.104-0.853333 31.368533-0.853334 48.7936z m-65.5872 15.7184v-50.568533H176.64v50.568533h28.842667z m17.493334-96.768c6.587733 5.3248 12.458667 11.4688 17.476266 18.312533-4.778667 3.259733-9.181867 7.0656-13.1072 11.332267a502.5792 502.5792 0 0 0-34.986666-36.625067c4.369067-3.140267 8.465067-6.638933 12.2368-10.461866 5.717333 6.212267 11.861333 12.032 18.3808 17.408v0.034133z m0 46.216533v50.551467h29.730133v-50.568533h-29.730133z m-83.165867 87.8592h-22.698667l0.2048-1.757866c1.109333-9.7792 1.706667-19.626667 1.7408-29.474134v-140.373333a242.688 242.688 0 0 0-2.6112-31.163733l-0.238933-1.809067h24.576l-0.170667 1.723733c-1.143467 12.6464-1.7408 23.4496-1.7408 32.119467v44.987733l1.655467-1.6384a161.041067 161.041067 0 0 0 29.013333-39.714133 179.2 179.2 0 0 0 15.172267-36.283733l0.443733-1.792 1.706667 0.7168c7.68 3.310933 15.496533 6.1952 23.466667 8.669866l2.935466 0.887467-2.423466 1.8944a44.322133 44.322133 0 0 0-11.8272 13.4656l-6.519467 11.588267h49.7152c8.704 0 18.944-0.597333 30.446933-1.757867l1.757867-0.170667v20.992l-1.792-0.187733c-9.506133-1.143467-19.080533-1.706667-28.672-1.757867h-36.522667c5.2224 5.4784 10.752 10.666667 16.5888 15.530667 6.7072 5.410133 12.680533 11.6736 17.7664 18.6368l0.853334 1.262933-1.2288 0.904534a75.5712 75.5712 0 0 0-12.8 11.008l-0.0512 0.068266h45.038933l-0.068267 1.655467a1257.6768 1257.6768 0 0 0-0.853333 48.759467c0 17.237333 0.290133 32.034133 0.853333 45.2608l0.085334 1.672533h-21.623467v-15.7184h-73.7792v18.312533H156.603733l0.085334-1.655466c0.580267-14.592 0.8704-30.993067 0.8704-48.759467 0-18.346667-0.290133-34.474667-0.8704-47.889067l-0.085334-1.655466h69.512534a500.1216 500.1216 0 0 0-34.850134-36.488534l-1.3824-1.348266 1.570134-1.092267c3.584-2.577067 6.9632-5.410133 10.1376-8.465067H184.490667c-8.192 12.544-17.134933 24.593067-26.760534 36.078934l-1.058133 1.2288-1.194667-1.092267a58.760533 58.760533 0 0 0-14.4384-10.1888l-2.167466-0.904533v94.481066c0 6.007467 0.3072 15.957333 0.887466 29.576534l0.068267 1.655466z m-19.114667-3.1744h15.7696c-0.512-12.8-0.785067-22.254933-0.785066-28.0576v-139.502933c0-8.362667 0.512-18.670933 1.5872-30.6688h-17.408c1.4336 9.8816 2.218667 19.831467 2.389333 29.7984v140.373333a269.312 269.312 0 0 1-1.553067 28.0576z m39.2192-3.4816h15.121067v-18.312533h80.128v15.701333h15.104a1034.274133 1034.274133 0 0 1-0.785067-43.758933c0-16.981333 0.256-32.8704 0.802134-47.240533H159.9488c0.512 13.141333 0.785067 28.7232 0.785067 46.370133 0 17.134933-0.256 33.024-0.802134 47.240533z m34.935467-134.263466c12.288 11.776 23.210667 23.227733 32.494933 34.013866 3.413333-3.345067 7.048533-6.434133 10.922667-9.216a102.8096 102.8096 0 0 0-16.349867-16.759466c-6.109867-5.102933-11.9296-10.564267-17.408-16.349867a98.542933 98.542933 0 0 1-9.659733 8.311467z m-50.4832 14.1824c4.3008 2.423467 8.328533 5.3248 11.9808 8.669866a391.3728 391.3728 0 0 0 25.941333-35.242666l0.477867-0.682667h61.184c9.1136 0 18.210133 0.512 27.272533 1.536v-13.909333c-10.9056 1.024-20.650667 1.570133-29.013333 1.570133h-55.227733l1.365333-2.389333c2.321067-4.027733 4.949333-8.669867 7.867733-13.9264 2.679467-4.744533 6.1952-8.994133 10.3424-12.526934a237.858133 237.858133 0 0 1-19.234133-7.168 193.450667 193.450667 0 0 1-14.967467 35.157334 164.215467 164.215467 0 0 1-27.989333 38.912zM100.522667 904.6016H76.970667l0.136533-1.706667c1.160533-14.762667 1.7408-26.4192 1.7408-35.6352v-81.083733c0-5.700267-0.580267-15.36-1.7408-29.525333l-0.136533-1.706667h23.620266l-0.187733 1.757867c-1.109333 9.489067-1.706667 19.0464-1.757867 28.603733v81.954133c0 9.284267 0.597333 21.265067 1.757867 35.618134l0.136533 1.706666z m-20.104534-3.191467h16.64a451.857067 451.857067 0 0 1-1.604266-34.133333v-81.9712c0.034133-9.079467 0.546133-18.158933 1.536-27.1872h-16.571734c1.092267 13.312 1.604267 22.528 1.604267 28.0576v81.083733c0 8.942933-0.529067 20.138667-1.604267 34.1504z m173.8752-6.417066h-32.9216v-53.76h32.9216v53.76z m-29.730133-3.1744h26.555733V844.458667h-26.555733v47.377066z m-17.493333 3.1744h-32.034134v-53.76h32.034134v53.76z m-28.842667-3.1744h25.668267V844.458667h-25.685334v47.377066z m196.027733-66.4064c0 29.6448 0.290133 52.906667 0.8704 69.751466h-18.363733v-16.571733h-34.986667v28.7744H303.445333c0.597333-26.743467 0.887467-53.469867 0.887467-80.213333 0-27.306667-0.290133-53.179733-0.887467-77.602134h71.714134a2782.0544 2782.0544 0 0 0-0.8704 75.861334z m-17.493333-20.036267v-40.96h-34.986667v40.96h34.986667z m0 58.4192v-43.588267h-34.986667v43.588267h34.986667z m99.6864-136.9088h19.2512c-0.597333 15.121067-0.887467 31.402667-0.8704 48.810667 8.738133 0 18.056533-0.273067 27.989333-0.853334v16.554667a492.731733 492.731733 0 0 0-27.989333-0.853333v116.821333a15.445333 15.445333 0 0 1-10.496 16.554667c-8.840533 2.696533-17.92 4.437333-27.136 5.239466a28.347733 28.347733 0 0 0-9.6256-20.053333c7.68 1.058133 15.445333 1.365333 23.176533 0.8704 4.386133-0.580267 6.570667-4.369067 6.570667-11.332267V790.528c-29.166933 0-53.640533 0.290133-73.472 0.8704v-16.554667c18.653867 0.580267 43.144533 0.853333 73.472 0.853334 0-17.408-0.290133-33.6896-0.853333-48.810667z m-23.6032 126.429867c-6.382933 1.962667-12.526933 4.608-18.363733 7.850666a147.387733 147.387733 0 0 0-20.1216-39.253333c5.256533-2.304 10.786133-4.9152 16.622933-7.850667 7.5776 12.219733 14.848 25.2928 21.845333 39.253334z m2.781867 77.6192v-1.774934a26.965333 26.965333 0 0 0-9.147734-18.944l-3.208533-3.1744 4.5056 0.4608c7.543467 1.058133 15.189333 1.365333 22.784 0.8704 1.28-0.170667 5.1712-0.682667 5.1712-9.728v-106.513066c-28.16 0-52.292267 0.3072-71.816533 0.853333l-1.6384 0.0512v-19.848533l1.6384 0.068266c18.158933 0.5632 41.6768 0.853333 71.816533 0.853334 0-15.701333-0.290133-31.4368-0.8704-47.1552l-0.068267-1.655467h22.528l-0.068266 1.655467c-0.5632 14.336-0.853333 30.1568-0.853334 47.1552 8.7552-0.034133 17.527467-0.341333 26.282667-0.853334l1.706667-0.136533v19.968l-1.672534-0.1024a481.757867 481.757867 0 0 0-26.299733-0.853333v115.234133a16.964267 16.964267 0 0 1-11.588267 18.0736 134.5536 134.5536 0 0 1-27.4432 5.307733l-1.757866 0.187734z m-4.027734-19.831467c4.061867 4.522667 6.570667 10.24 7.168 16.2816 8.4992-0.8192 16.896-2.474667 25.088-4.949333a13.9264 13.9264 0 0 0 9.386667-15.069867v-118.4256h1.604267c8.157867 0 17.015467 0.256 26.385066 0.785067V776.533333a473.941333 473.941333 0 0 1-26.385066 0.768h-1.621334v-1.5872c0-16.964267 0.273067-32.853333 0.8192-47.240533h-15.940266c0.546133 14.7456 0.8192 30.6176 0.8192 47.240533v1.5872h-1.5872c-30.037333 0-53.589333-0.273067-71.867734-0.8192v13.294934c19.626667-0.5632 43.810133-0.836267 71.850667-0.836267h1.604267v109.704533c0 9.796267-4.3008 12.424533-7.936 12.9024a100.522667 100.522667 0 0 1-19.387734-0.443733z m-108.202666-2.1504h-21.623467l0.0512-1.621333c0.580267-26.7264 0.8704-53.4528 0.887467-80.1792 0-26.965333-0.3072-53.060267-0.887467-77.568l-0.0512-1.621334h74.990933l-0.034133 1.6384a2780.791467 2780.791467 0 0 0-0.8704 75.810134c0 30.276267 0.290133 53.009067 0.853333 69.6832l0.068267 1.655466h-21.6064v-16.554666h-31.7952v28.757333z m-18.3296-3.1744h15.121066v-28.7744H358.4v16.554667h15.121067c-0.546133-16.554667-0.8192-38.912-0.8192-68.1472a2764.8 2764.8 0 0 1 0.836266-74.24h-68.4544c0.546133 24.064 0.8192 49.6128 0.8192 75.997866 0 26.2144-0.273067 52.411733-0.8192 78.609067z m53.2992-40.448h-38.178134v-46.762667H358.4v46.762667h-0.017067z m-34.986667-3.1744h31.7952V821.76h-31.7952v40.448-0.0512z m90.197333 1.297067l-0.6144-1.826134a146.8928 146.8928 0 0 0-19.882666-38.792533l-1.143467-1.604267 1.774933-0.802133c5.12-2.2528 10.683733-4.881067 16.554667-7.816533l1.314133-0.631467 0.768 1.2288c7.8848 12.8 15.2064 25.924267 21.930667 39.355733l0.853333 1.706667-1.826133 0.546133a95.522133 95.522133 0 0 0-18.056533 7.714134l-1.672534 0.9216z m-16.7936-40.8576c7.8336 11.178667 14.08 23.381333 18.602667 36.266666 4.864-2.594133 9.9328-4.778667 15.189333-6.519466a500.48 500.48 0 0 0-20.189866-36.181334 397.994667 397.994667 0 0 1-13.602134 6.434134zM358.4 806.946133h-38.1952v-44.151466H358.4v44.151466z m-34.986667-3.1744h31.7952V765.952H323.413333v37.802667h0.017067z m283.4944 39.936c-4.096 3.4816-9.045333 7.2704-14.848 11.332267a231.338667 231.338667 0 0 0-18.363733-30.5152v63.6416c0 11.639467 0.290133 24.712533 0.8704 39.236267h-19.234133c0.580267-14.5408 0.853333-27.613867 0.8704-39.236267v-55.808c-2.901333 8.721067-6.126933 16.9984-9.6256 24.849067-4.266667 9.216-9.216 18.1248-14.848 26.589866a159.232 159.232 0 0 0-13.994667-13.943466 156.996267 156.996267 0 0 0 18.3808-30.5152c7.901867-16.0768 13.7728-33.058133 17.476267-50.568534h-5.239467c-8.192 0-16.384 0.580267-24.490667 1.7408v-16.571733c8.157867 0.597333 16.0256 0.887467 23.6032 0.8704h8.7552v-17.408c0-9.284267-0.290133-18.005333-0.8704-26.146133h20.104534a143.5648 143.5648 0 0 0-1.7408 26.146133v17.442133h9.608533c6.417067 0 13.704533-0.290133 21.8624-0.887466v15.701333a735.573333 735.573333 0 0 0-31.470933-0.853333v34.8672c3.9936-3.310933 8.0896-6.485333 12.2368-9.591467 9.284267 12.8 16.264533 22.6816 20.9408 29.6448l0.017066-0.017067z m81.322667-59.2896v113.322667c0 7.5776 1.757867 11.639467 5.239467 12.219733 2.901333 0.546133 5.8368 0.699733 8.7552 0.443734a6.570667 6.570667 0 0 0 4.8128-6.109867 81.237333 81.237333 0 0 0 1.314133-16.9984c5.7856 3.1232 11.946667 5.461333 18.363733 6.980267-1.194667 8.413867-3.549867 16.64-6.997333 24.405333a12.117333 12.117333 0 0 1-11.3664 6.109867h-18.363733a20.992 20.992 0 0 1-15.3088-4.795734c-3.208533-3.208533-4.522667-9.745067-3.925334-19.626666V757.418667h-33.245866c0 33.1264-0.426667 58.862933-1.314134 77.1584a210.773333 210.773333 0 0 1-7.850666 49.698133 125.371733 125.371733 0 0 1-25.8048 44.9024 105.693867 105.693867 0 0 0-15.752534-13.943467 73.216 73.216 0 0 0 19.677867-23.552 96.853333 96.853333 0 0 0 10.069333-28.7744 260.608 260.608 0 0 0 3.498667-31.402666c0.5632-11.025067 0.853333-24.968533 0.8704-41.8304 0-17.442133-0.290133-33.143467-0.8704-47.104h69.085867a1116.910933 1116.910933 0 0 0-0.904534 41.8816l0.017067-0.017067z m-85.725867 147.217067l-1.2288-1.450667a103.765333 103.765333 0 0 0-15.479466-13.704533l-1.6384-1.245867 1.621333-1.28c7.970133-6.2464 14.523733-14.097067 19.268267-23.04 4.7616-8.8576 8.0896-18.414933 9.8816-28.3136 1.792-10.308267 2.952533-20.718933 3.4816-31.1808 0.580267-11.042133 0.853333-25.088 0.853333-41.762133 0-17.237333-0.273067-33.041067-0.853333-47.018667l-0.085334-1.655466h72.413867l-0.068267 1.6384a1173.1968 1173.1968 0 0 0-0.853333 41.813333v113.322667c0 4.5568 0.682667 10.0864 3.908267 10.632533 2.730667 0.529067 5.512533 0.682667 8.2944 0.426667 2.048-0.750933 3.413333-2.696533 3.413333-4.864 1.024-5.495467 1.450667-11.076267 1.297067-16.657067v-2.696533l2.389333 1.314133a74.069333 74.069333 0 0 0 17.954133 6.826667l1.467734 0.341333-0.273067 1.4848c-1.211733 8.6016-3.618133 16.9984-7.168 24.917333a13.687467 13.687467 0 0 1-12.765867 6.894934h-18.363733c-5.956267 0.512-11.861333-1.399467-16.418133-5.256534-3.584-3.584-5.034667-10.3936-4.4032-20.821333v-141.312h-30.037334c0 32.256-0.477867 57.685333-1.3312 75.639467a213.504 213.504 0 0 1-7.936 50.0736 127.453867 127.453867 0 0 1-26.112 45.4656l-1.2288 1.467733z m-13.141333-16.452267c4.642133 3.515733 9.045333 7.3728 13.124267 11.537067a123.016533 123.016533 0 0 0 24.285866-42.9056c4.539733-16.0768 7.168-32.631467 7.816534-49.322667 0.853333-18.193067 1.297067-44.1344 1.297066-77.090133v-1.5872h36.420267v144.5888c-0.5632 9.437867 0.6144 15.633067 3.464533 18.4832 3.9936 3.242667 9.079467 4.795733 14.1824 4.334933h18.363734a10.581333 10.581333 0 0 0 9.984-5.307733c3.191467-7.168 5.376-14.711467 6.519466-22.459733a79.4112 79.4112 0 0 1-14.916266-5.512534 73.728 73.728 0 0 1-1.3312 14.728534 7.9872 7.9872 0 0 1-6.178134 7.338666c-3.072 0.256-6.161067 0.1024-9.216-0.443733-6.570667-1.109333-6.570667-10.6496-6.570666-13.789867v-113.339733c0-11.4688 0.273067-24.9856 0.8192-40.277333h-65.757867c0.512 13.636267 0.802133 28.928 0.802133 45.499733 0 16.725333-0.290133 30.839467-0.8704 41.9328-0.546133 10.581333-1.706667 21.1456-3.515733 31.5904a99.072 99.072 0 0 1-10.24 29.2352c-4.608 8.738133-10.9056 16.469333-18.500267 22.766933z m-13.175467 13.824H553.642667l0.068266-1.655466c0.580267-14.592 0.887467-27.7504 0.887467-39.168V841.728c-2.048 5.461333-4.215467 10.837333-6.570667 16.145067-4.317867 9.301333-9.3184 18.261333-14.984533 26.811733l-1.143467 1.7408-1.399466-1.536a154.043733 154.043733 0 0 0-13.824-13.824l-1.2288-1.058133 1.0752-1.194667c7.168-9.352533 13.243733-19.473067 18.1248-30.190933 7.560533-15.36 13.243733-31.556267 16.930133-48.264534h-3.242667c-8.123733 0.017067-16.213333 0.597333-24.2688 1.723734l-1.809066 0.290133v-20.1216l1.706666 0.136533c7.936 0.5632 15.837867 0.853333 23.5008 0.853334h7.168v-15.872c0-9.130667-0.3072-17.92-0.887466-26.026667l-0.119467-1.706667h23.790933l-0.392533 1.8944c-1.365333 8.5504-1.928533 17.2032-1.723733 25.856v15.872h8.021333c6.485333 0 13.824-0.3072 21.76-0.8704l1.706667-0.136533v19.080533l-1.672534-0.085333a747.178667 747.178667 0 0 0-29.815466-0.853333v29.917866c2.986667-2.423467 6.2464-4.932267 9.693866-7.509333l1.297067-0.9728 0.955733 1.314133c9.506133 13.038933 16.384 22.766933 20.992 29.696l0.802134 1.194667-1.092267 0.904533c-4.181333 3.549867-9.216 7.389867-14.984533 11.434667l-1.570134 1.092267-0.802133-1.7408a207.6672 207.6672 0 0 0-15.325867-25.9584v58.4192c0 11.776 0.3072 24.9856 0.8704 39.185066l0.068267 1.6384z m-19.2512-3.1744h15.9232a1015.7568 1015.7568 0 0 1-0.802133-37.649066v-100.983467h1.604267c7.7824 0 17.5616 0.256 29.866666 0.802133v-12.322133c-7.355733 0.512-14.165333 0.750933-20.258133 0.750933h-11.2128v-19.029333a161.143467 161.143467 0 0 1 1.416533-24.576h-16.469333c0.512 7.7312 0.750933 15.991467 0.750933 24.576v19.029333h-10.3424c-7.168 0-14.574933-0.256-22.016-0.750933v13.038933a175.957333 175.957333 0 0 1 22.903467-1.518933h7.2192l-0.426667 1.928533a219.067733 219.067733 0 0 1-17.6128 50.944c-4.864 10.427733-10.752 20.360533-17.578666 29.627734 3.464533 3.072 7.338667 6.912 11.554133 11.502933 5.12-7.850667 9.6768-16.093867 13.6192-24.6272 3.584-8.072533 6.775467-16.315733 9.557333-24.695467l3.1232-9.301333v65.604267c0 11.025067-0.256 23.688533-0.8192 37.649066z m18.4832-101.546666c6.365867 9.045333 12.117333 18.5344 17.220267 28.3648 4.164267-2.901333 8.192-5.973333 12.117333-9.216-4.437333-6.5536-10.717867-15.4624-19.2-27.101867-3.447467 2.56-6.826667 5.2224-10.1376 7.953067z m222.976-1.501867v66.269867c0 12.202667 0.290133 24.695467 0.8704 37.4784h-18.363733c0.580267-13.3632 0.8704-25.856 0.887467-37.4784v-62.7712a260.949333 260.949333 0 0 1-28.859734 47.957333 133.12 133.12 0 0 0-12.253866-13.960533 158.0032 158.0032 0 0 0 25.8048-38.792534c5.5808-10.8544 9.557333-22.442667 11.793066-34.440533-9.335467 0-18.3808 0.290133-27.136 0.8704v-15.701333c8.7552 0.597333 18.961067 0.887467 30.6176 0.8704v-20.036267c0-8.721067-0.290133-16.571733-0.8704-23.552h18.363734c-0.597333 5.802667-0.887467 13.653333-0.887467 23.552V773.12c7.5776 0 15.752533-0.290133 24.490667-0.8704v15.701333c-8.738133-0.580267-16.896-0.8704-24.490667-0.8704v33.9968c4.6592-2.321067 9.3184-4.949333 13.994667-7.850666 5.8368 10.461867 11.3664 20.650667 16.622933 30.5152-5.4784 2.4576-10.752 5.376-15.735467 8.704-4.266667-10.222933-9.216-20.138667-14.848-29.661867z m67.754667-74.973867a468.48 468.48 0 0 0-7.424 17.442134h86.5792a1412.096 1412.096 0 0 0-1.7408 32.256c0 35.464533-1.1776 68.608-3.498667 99.396266-2.3552 12.782933-7.168 20.770133-14.4384 23.9616-10.8032 3.925333-22.1696 6.144-33.655466 6.536534a74.990933 74.990933 0 0 0-6.997334-20.036267 131.771733 131.771733 0 0 0 27.989334-0.8704c6.382933-1.160533 10.171733-8.704 11.349333-22.6816 2.321067-32.546133 3.208533-67.1232 2.628267-103.765333h-74.325334a299.52 299.52 0 0 1-17.493333 33.143466 52.2752 52.2752 0 0 0-14.848-7.850666 212.48 212.48 0 0 0 21.8624-40.96c5.154133-12.407467 9.250133-25.2416 12.2368-38.3488 6.3488 3.259733 13.124267 5.614933 20.1216 6.980266-3.242667 4.642133-6.0416 9.608533-8.328533 14.7968z m-3.4816 128.170667c-10.3424 1.314133-20.48 3.9424-30.173867 7.850667-2.269867-6.826667-4.898133-13.5168-7.867733-20.0704 3.498667-1.143467 7.5776-5.512533 12.2368-13.073067 4.539733-7.304533 8.362667-15.0528 11.383467-23.108267 2.901333-7.850667 5.802667-17.288533 8.738133-28.330666 6.8608 2.850133 13.585067 6.0416 20.104533 9.591466-6.126933 7.594667-11.264 15.957333-15.291733 24.849067a262.434133 262.434133 0 0 1-16.1792 28.330667 1329.493333 1329.493333 0 0 0 41.984-2.6112 357.7856 357.7856 0 0 0-8.738133-26.1632l17.476266-5.2224c3.498667 9.898667 6.7072 19.2 9.6256 27.904 2.781867 8.226133 4.829867 16.6912 6.126934 25.275733a95.8464 95.8464 0 0 0-18.363734 5.239467c-1.041067-4.693333-2.218667-9.335467-3.498666-13.960534a579.584 579.584 0 0 0-27.562667 3.498667z m27.989333 53.128533l-0.273066-1.416533a73.6256 73.6256 0 0 0-6.843734-19.626667l-1.2288-2.440533 2.730667 0.1536c9.216 0.682667 18.500267 0.392533 27.648-0.853333 5.5808-1.006933 8.977067-8.157867 10.069333-21.248 2.269867-31.8464 3.157333-66.184533 2.628267-102.024534h-71.748267a298.496 298.496 0 0 1-17.152 32.375467l-0.9216 1.4848-1.399466-1.024a50.944 50.944 0 0 0-14.404267-7.611733l-2.030933-0.682667 1.194666-1.723733c8.704-12.731733 15.9744-26.368 21.7088-40.669867 5.12-12.3392 9.181867-25.088 12.168534-38.109867l0.4096-2.013866 1.877333 0.9216a73.386667 73.386667 0 0 0 19.6608 6.826666l2.474667 0.443734-1.450667 2.048a86.8352 86.8352 0 0 0-8.157867 14.5408c-2.269867 5.034667-4.437333 10.103467-6.519466 15.189333h85.930666l-0.136533 1.706667c-0.682667 10.752-1.28 21.486933-1.7408 32.221866 0 35.191467-1.1776 68.693333-3.498667 99.447467-2.4576 13.431467-7.6288 21.896533-15.36 25.309867a112.1792 112.1792 0 0 1-34.184533 6.656l-1.450667 0.119466z m-3.072-20.036266c2.525867 5.307733 4.437333 10.888533 5.6832 16.64a106.205867 106.205867 0 0 0 31.744-6.314667c6.724267-2.935467 11.264-10.632533 13.482667-22.784 2.304-30.5152 3.498667-63.914667 3.498667-99.106133 0.529067-12.373333 1.0752-22.4256 1.6384-30.6688h-87.261867l0.887467-2.184534c2.2528-5.632 4.778667-11.537067 7.458133-17.5104a92.672 92.672 0 0 1 7.0656-13.073066c-5.632-1.297067-11.093333-3.242667-16.298667-5.7344-2.986667 12.4928-6.9632 24.746667-11.8784 36.625066a215.552 215.552 0 0 1-20.872533 39.594667c4.232533 1.5872 8.226133 3.720533 11.9296 6.331733 6.109867-10.154667 11.6224-20.650667 16.503467-31.470933l0.426666-0.938667h76.919467v1.536a1193.557333 1193.557333 0 0 1-2.6112 103.8848c-1.262933 14.933333-5.410133 22.8352-12.680533 24.149334-8.482133 1.2288-17.083733 1.570133-25.634134 1.024z m-86.6304 19.063466h-21.725866l0.085333-1.655466c0.580267-13.4144 0.8704-25.992533 0.8704-37.4272v-55.586134a284.842667 284.842667 0 0 1-25.9584 41.710934l-1.28 1.7408-1.297067-1.706667a131.703467 131.703467 0 0 0-12.117333-13.824l-1.058133-1.041067 1.024-1.143466a156.9792 156.9792 0 0 0 25.531733-38.4c5.1712-10.171733 9.0112-20.992 11.400533-32.136534-8.379733 0.017067-16.759467 0.3072-25.1392 0.853334l-1.706666 0.1024v-19.114667l1.706666 0.136533c8.2432 0.546133 17.7152 0.836267 28.910934 0.853334v-18.432c0-8.584533-0.3072-16.452267-0.8704-23.432534l-0.136534-1.706666h21.845334l-0.170667 1.7408c-0.5632 5.7344-0.853333 13.380267-0.853333 23.381333v18.432c7.594667-0.034133 15.189333-0.341333 22.766933-0.853333l1.706667-0.119467v19.114667l-1.706667-0.119467c-8.123733-0.512-15.7696-0.8192-22.784-0.853333v29.7984c3.925333-2.048 7.799467-4.266667 11.554133-6.6048l1.4336-0.887467 0.8192 1.467733c5.632 10.120533 11.178667 20.309333 16.622934 30.549334l0.802133 1.501866-1.553067 0.699734c-5.410133 2.423467-10.581333 5.290667-15.5136 8.584533l-1.604266 1.0752-0.750934-1.774933a245.725867 245.725867 0 0 0-11.810133-24.32v60.3136c0 12.3392 0.3072 24.917333 0.8704 37.410133l0.085333 1.672533z m-18.3808-3.191466h15.018667c-0.512-11.997867-0.785067-24.064-0.785067-35.8912v-103.594667h1.5872c7.0144 0 14.711467 0.256 22.903467 0.768v-12.288c-7.9872 0.512-15.684267 0.750933-22.903467 0.750933h-1.5872v-21.640533c0-9.130667 0.238933-16.349867 0.7168-21.947733h-14.882133c0.494933 6.6048 0.733867 13.994667 0.733867 21.947733v21.640533h-1.5872a476.16 476.16 0 0 1-29.013334-0.750933v12.288c8.2944-0.512 16.861867-0.768 25.514667-0.768h1.826133l-0.256 1.809067a128.512 128.512 0 0 1-11.9296 34.901333c-6.485333 13.824-14.933333 26.624-25.053866 38.058667 3.5328 3.584 6.877867 7.389867 10.018133 11.349333a256.904533 256.904533 0 0 0 27.426133-45.943467l3.037867-6.946133v70.365867c0 10.990933-0.256 23.057067-0.785067 35.908266z m17.271467-102.843734c5.341867 8.994133 10.069333 18.3296 14.1312 27.938134 4.096-2.628267 8.379733-5.000533 12.8-7.0656-4.7616-8.9088-9.7792-18.158933-14.984533-27.5456a162.304 162.304 0 0 1-11.946667 6.673066z m92.706133 66.5088l-0.392533-1.826133c-1.024-4.539733-2.048-8.7552-3.1232-12.578133-6.4512 0.631467-15.223467 1.7408-26.112 3.345066a122.043733 122.043733 0 0 0-29.781333 7.7312l-1.604267 0.682667-0.546133-1.6384a211.1488 211.1488 0 0 0-7.799467-19.899733l-0.733867-1.621334 1.6896-0.546133c2.133333-0.699733 5.8368-3.4304 11.383467-12.407467 4.471467-7.236267 8.226133-14.865067 11.229867-22.8352 2.901333-7.8336 5.802667-17.3056 8.704-28.16l0.4608-1.774933 1.6896 0.7168c6.912 2.8672 13.687467 6.0928 20.2752 9.659733l1.877333 1.024-1.536 1.4848c-6.007467 7.509333-11.042133 15.7184-15.018667 24.456534-5.888 11.4688-10.6496 19.968-14.506666 25.873066 12.288-0.6144 24.541867-1.365333 36.795733-2.304-2.423467-8.157867-5.137067-16.213333-8.157867-24.1664l-0.597333-1.604266 20.5824-6.144 0.512 1.4336c3.498667 9.898667 6.7072 19.217067 9.6256 27.938133 2.816 8.311467 4.881067 16.861867 6.178133 25.5488l0.221867 1.536-1.536 0.290133a94.788267 94.788267 0 0 0-18.056533 5.12l-1.706667 0.682667z m-1.160533-17.834666l0.375467 1.28c1.024 3.720533 2.0992 7.816533 3.106133 12.2368 5.000533-1.877333 10.154667-3.345067 15.394133-4.369067a148.189867 148.189867 0 0 0-5.819733-23.5008c-2.781867-8.2944-5.802667-17.1008-9.1136-26.453333l-14.3872 4.317866c3.037867 8.123733 5.768533 16.366933 8.192 24.6784l0.546133 1.877334-1.962666 0.1536c-15.104 1.160533-29.269333 2.048-42.018134 2.6112l-3.242666 0.170666 1.8432-2.679466c5.9392-9.045333 11.298133-18.449067 16.0768-28.16 3.9424-8.328533 8.686933-16.264533 14.165333-23.671467a221.354667 221.354667 0 0 0-16.469333-7.850667c-2.747733 10.24-5.546667 19.217067-8.328534 26.692267a133.12 133.12 0 0 1-11.502933 23.415467c-2.730667 5.205333-6.656 9.693867-11.502933 13.038933 2.491733 5.597867 4.727467 11.3152 6.741333 17.117867a128.136533 128.136533 0 0 1 28.962133-7.287467c11.7248-1.706667 21.026133-2.901333 27.648-3.515733l1.297067-0.1024zM846.677333 321.297067l-75.127466-50.090667V675.84H249.685333V268.544l-72.328533 47.8208-13.585067-20.5312L510.549333 66.56l3.072 4.642133 0.7168-1.109333 345.890134 230.570667-13.550934 20.6336zM482.986667 538.333867h20.992v-20.992h87.995733v18.005333h20.992c-0.682667-15.36-1.024-32.682667-0.989867-52.002133 0-20.002133 0.341333-38.673067 0.989867-55.995734H482.986667c0.6656 15.36 1.006933 33.6896 1.024 54.9888 0 20.667733-0.341333 39.338667-1.024 55.995734z m94.0032-126.976a111.735467 111.735467 0 0 0-20.002134-20.992 210.670933 210.670933 0 0 1-20.992-20.002134 112.605867 112.605867 0 0 1-13.994666 12.014934c14.0288 13.312 27.374933 27.306667 39.9872 41.984 4.5056-4.898133 9.5232-9.2672 15.018666-13.021867v0.017067z m-161.9968-67.0208h-23.005867c1.3312 16.008533 1.9968 27.3408 2.013867 34.013866v92.9792c0 10.683733-0.682667 24.354133-2.013867 41.0112h23.005867a522.752 522.752 0 0 1-1.9968-41.0112V377.344c0.0512-11.025067 0.7168-22.050133 1.9968-33.006933z m22.016-32.989867c1.774933 11.912533 2.781867 23.944533 3.003733 35.9936v160.989867c-0.0512 11.3664-0.7168 22.715733-2.013867 34.013866h22.016c-0.682667-16.008533-1.024-27.3408-1.024-33.9968V348.330667c0-9.984 0.682667-22.3232 2.013867-37.000534h-24.0128z m176.981333 40.004267a351.061333 351.061333 0 0 1-34.986667 1.9968H518.997333c2.645333-4.6592 5.632-9.984 8.994134-16.008534a52.736 52.736 0 0 1 13.994666-15.991466 267.605333 267.605333 0 0 1-26.999466-10.001067c-4.266667 14.592-10.1376 28.672-17.493334 41.984a185.1904 185.1904 0 0 1-33.501866 46.0288c6.2464 3.106133 11.9808 7.150933 16.9984 11.997867a434.688 434.688 0 0 0 30.993066-41.984h69.000534c11.042133 0.034133 22.050133 0.682667 33.006933 1.9968v-20.036267z m-76.970667 150.016H503.978667v-58.026667h32.989866v57.992533l0.017067 0.034134z m53.981867 0h-33.9968v-58.026667h33.9968v58.026667z" fill="#00FF00" /></svg>