<?xml version="1.0" standalone="no"?><!DOCTYPE svg PUBLIC "-//W3C//DTD SVG 1.1//EN" "http://www.w3.org/Graphics/SVG/1.1/DTD/svg11.dtd"><svg class="icon" width="1000px" height="1000.00px" viewBox="0 0 1024 1024" version="1.1" xmlns="http://www.w3.org/2000/svg"><path d="M0 1024V0h1024v1024H0zM992 32H32v960h960V32z" fill="#00FF00" /><path d="M112.725333 892.245333v-70.7584c-10.530133 0-20.753067 0.3072-30.685866 0.887467v-16.7936c11.093333 0.597333 21.9136 0.887467 32.426666 0.887467h14.916267a507.6992 507.6992 0 0 0-0.887467 26.5216v55.722666c12.288 15.325867 35.498667 23.1424 69.6832 23.432534a511.709867 511.709867 0 0 0 79.3088-3.976534 72.840533 72.840533 0 0 0-7.8848 21.213867h-56.968533a274.705067 274.705067 0 0 1-38.126933-2.218667 124.1088 124.1088 0 0 1-25.856-6.178133 64.580267 64.580267 0 0 1-19.285334-11.485867c-5.853867-5.0176-12.714667-3.9936-20.599466 3.072-6.314667 5.5296-12.322133 11.434667-17.954134 17.681067-4.096-4.727467-8.772267-10.325333-14.0288-16.810667 11.434667-7.918933 23.466667-15.018667 35.9424-21.1968z m4.386134-112.315733a175.035733 175.035733 0 0 0-26.282667-33.621333l12.288-10.581334a275.968 275.968 0 0 1 28.023467 33.5872l-14.0288 10.615467z m63.112533 103.031467a69.12 69.12 0 0 0-22.784 5.751466l-8.772267-18.5856c5.8368-2.338133 11.9808-8.823467 18.414934-19.456 7.168-12.629333 12.202667-26.385067 14.8992-40.669866-19.882667 0-35.072 0.290133-45.568 0.887466v-16.810666c11.093333 0.597333 33.5872 0.904533 67.4816 0.887466 33.877333-0.017067 55.808-0.3072 65.723733-0.887466v16.810666c-9.9328-0.580267-32.733867-0.8704-68.352-0.887466a168.328533 168.328533 0 0 1-10.0864 25.6512c-5.3248 11.264-11.3152 22.186667-17.9712 32.7168a8968.192 8968.192 0 0 0 62.225067-5.307734 171.144533 171.144533 0 0 0-17.527467-25.6512c4.881067-2.5088 9.3184-5.802667 13.141333-9.728a543.197867 543.197867 0 0 1 35.9424 53.060267c-5.256533 2.952533-10.530133 6.1952-15.786666 9.728-2.901333-5.290667-5.8368-10.325333-8.7552-15.035733-30.4128 3.549867-51.1488 6.058667-62.225067 7.509333z m74.496-120.712534a1062.1952 1062.1952 0 0 0-49.954133-0.887466 1128.106667 1128.106667 0 0 0-50.824534 0.887466v-16.810666c10.513067 0.597333 27.153067 0.904533 49.954134 0.887466 22.784-0.017067 39.7312-0.3072 50.824533-0.887466v16.810666z m-163.8912 170.496l-1.2288-1.416533c-4.778667-5.5296-9.472-11.144533-14.062933-16.827733L74.410667 913.066667l1.536-0.9728a310.272 310.272 0 0 1 35.191466-20.9408V823.125333c-9.659733 0-19.336533 0.290133-28.9792 0.853334l-1.706666 0.119466v-20.224l1.6896 0.1024a608.938667 608.938667 0 0 0 32.341333 0.8704h16.5888l-0.085333 1.706667a528.674133 528.674133 0 0 0-0.887467 26.453333v55.125334c11.997867 14.574933 34.9184 22.1184 68.096 22.391466 26.4192 0.682667 52.8384-0.648533 79.0528-3.959466l3.191467-0.512-1.536 2.884266c-3.6352 6.468267-6.229333 13.4656-7.714134 20.736l-0.238933 1.3312H212.650667a276.309333 276.309333 0 0 1-38.3488-2.235733 126.208 126.208 0 0 1-26.197334-6.263467 65.928533 65.928533 0 0 1-19.746133-11.776c-5.307733-4.5056-11.264-3.413333-18.500267 3.072a212.309333 212.309333 0 0 0-17.8176 17.5104l-1.194666 1.4336z m-11.639467-18.8928c4.471467 5.461333 8.311467 10.0864 11.656534 13.9776 5.358933-5.768533 10.990933-11.264 16.896-16.452266 8.482133-7.611733 16.298667-8.6016 22.698666-3.1232 5.563733 4.8128 11.946667 8.6016 18.807467 11.2128 8.260267 2.935467 16.827733 4.983467 25.531733 6.109866a275.626667 275.626667 0 0 0 37.888 2.2016h55.620267c1.348267-6.0928 3.464533-11.997867 6.314667-17.544533a537.429333 537.429333 0 0 1-76.4416 3.515733c-34.5088-0.273067-58.368-8.362667-70.912-24.029866l-0.341334-0.443734v-56.285866c0-6.314667 0.273067-14.6944 0.785067-24.917334h-13.2096c-10.1376 0-20.48-0.273067-30.839467-0.785066v13.380266a515.5328 515.5328 0 0 1 29.0816-0.785066H114.346667v73.454933l-1.024 0.4096a274.432 274.432 0 0 0-34.133334 20.104533h0.017067z m171.4688-21.060266l-0.853333-1.536a372.258133 372.258133 0 0 0-8.192-14.097067c-29.3376 3.413333-49.902933 5.905067-61.166933 7.406933-7.68 0.580267-15.189333 2.4576-22.237867 5.546667l-1.501867 0.8704-10.24-21.7088 1.570134-0.631467c5.495467-2.218667 11.4176-8.533333 17.646933-18.807466a128.256 128.256 0 0 0 14.267733-38.229334 874.1376 874.1376 0 0 0-43.485866 0.887467l-1.706667 0.1024v-20.224l1.6896 0.1024c10.990933 0.580267 33.024 0.887467 67.413333 0.887467 34.3552 0 55.808-0.3072 65.621334-0.887467l1.706666-0.119467v20.241067l-1.706666-0.1024c-9.8304-0.5632-32.392533-0.853333-67.072-0.887467-2.645333 8.482133-5.9392 16.7424-9.8304 24.746667a308.650667 308.650667 0 0 1-16.384 30.139733c19.575467-1.604267 38.434133-3.208533 56.576-4.8128-4.778667-8.174933-10.171733-15.940267-16.1792-23.2448l-1.262934-1.570133 1.792-0.904533c4.727467-2.423467 9.045333-5.614933 12.7488-9.403734l1.262934-1.297066 1.109333 1.416533a548.010667 548.010667 0 0 1 36.0448 53.248l0.8704 1.4336-1.450667 0.802133c-5.341867 3.0208-10.581333 6.2464-15.6672 9.6768l-1.399466 0.955734z m-7.3728-19.080534l0.512 0.8704c2.730667 4.471467 5.393067 9.0112 7.953067 13.585067 4.232533-2.816 8.567467-5.4784 12.970667-8.004267a543.675733 543.675733 0 0 0-33.8432-50.056533 53.418667 53.418667 0 0 1-10.513067 7.8336c6.178133 7.611733 11.690667 15.7696 16.452267 24.354133l1.160533 2.1504-2.423467 0.221867c-19.882667 1.774933-40.618667 3.549867-62.242133 5.307733l-3.191467 0.273067 1.706667-2.747733c6.621867-10.478933 12.578133-21.333333 17.8688-32.546134 4.010667-8.192 7.355733-16.657067 9.984-25.378133l0.341333-1.194667h1.194667c33.536 0 55.978667 0.273067 66.7648 0.802134v-13.397334c-10.5472 0.512-31.573333 0.785067-64.136533 0.785067-32.768 0-54.357333-0.256-65.877334-0.785067v13.397334a960.853333 960.853333 0 0 1 43.963734-0.802134h1.9968l-0.426667 1.9456a133.290667 133.290667 0 0 1-15.104 41.198934 50.107733 50.107733 0 0 1-17.629867 19.4048l7.355734 15.581866c6.997333-2.730667 14.370133-4.471467 21.845333-5.1712a5069.824 5069.824 0 0 1 62.242133-7.509333l1.0752-0.119467z m-126.634666-91.409066l-0.9216-1.536c-7.304533-12.117333-16.042667-23.313067-26.043734-33.314134l-1.245866-1.2288 14.762666-12.765866 1.024 1.143466c10.308267 10.513067 19.746133 21.845333 28.245334 33.877334l0.733866 1.245866-16.554666 12.578134z m-23.5008-35.874134a177.92 177.92 0 0 1 24.405333 31.1296l11.434667-8.635733a301.636267 301.636267 0 0 0-26.043734-30.976l-9.796266 8.482133z m163.140266 17.527467l-1.672533-0.1024a1041.015467 1041.015467 0 0 0-49.885867-0.887467c-21.384533 0-38.468267 0.3072-50.7392 0.887467l-1.672533 0.085333v-20.206933l1.6896 0.1024c10.3936 0.580267 26.709333 0.887467 49.851733 0.887467 23.1424 0 39.765333-0.3072 50.756267-0.887467l1.672533-0.1024v20.224z m-100.795733-16.810667v13.4144c12.202667-0.512 28.757333-0.8192 49.237333-0.8192 20.9408 0 37.188267 0.273067 48.349867 0.802134v-13.397334c-11.025067 0.512-27.153067 0.785067-49.237333 0.785067-22.0672 0-37.8368-0.256-48.3328-0.785067z m194.7136 142.4384c0 18.295467 0.290133 33.911467 0.887467 46.882134h-16.657067c0.580267-12.970667 0.8704-27.426133 0.887467-43.349334-9.813333 2.423467-19.456 5.376-28.928 8.8576a78.711467 78.711467 0 0 0-7.8848-17.681066c9.335467-1.1776 21.6064-3.5328 36.8128-7.082667v-33.621333c-10.769067 0.512-21.4016 2.6112-31.556267 6.1952l-6.144-15.018667c4.6592-2.935467 9.045333-10.308267 13.141333-22.1184 3.9424-11.264 7.168-22.801067 9.642667-34.474667-5.853867 0-11.9808 0.290133-18.397867 0.8704v-15.9232c7.594667 0.597333 14.592 0.904533 21.026134 0.887467a222.72 222.72 0 0 0 4.386133-33.604267c6.894933 2.2016 13.9264 3.976533 21.026133 5.307734-3.498667 4.130133-6.7072 13.568-9.6256 28.296533 12.270933 0 22.784-0.290133 31.5392-0.887467v15.9232a625.544533 625.544533 0 0 0-34.167466-0.887466 398.762667 398.762667 0 0 1-17.527467 53.077333l16.657067-1.792c0-7.662933-0.290133-16.503467-0.887467-26.5216h16.657067a246.442667 246.442667 0 0 0-0.8704 24.746667l14.8992-1.757867v14.165333l-14.8992 1.757867v31.829333l17.527466-4.437333v15.0528a99.84 99.84 0 0 0-17.544533 5.307733z m52.5824-105.233066c-11.690667 12.970667-19.575467 21.230933-23.6544 24.763733h54.340267c-0.597333 6.485333-0.887467 14.4384-0.887467 23.893333v83.985067a11.605333 11.605333 0 0 1-3.925333 11.502933 47.991467 47.991467 0 0 1-17.1008 6.178134 62.208 62.208 0 0 0-8.772267-17.681067c9.9328 0 14.8992-1.4848 14.8992-4.437333v-22.971734h-23.6544v44.202667h-15.7696c0.580267-10.5984 0.853333-21.213867 0.8704-31.829333v-61.9008c0-10.018133-0.290133-20.036267-0.8704-30.071467l-5.256533 4.420267a38.843733 38.843733 0 0 0-14.8992-10.615467 171.451733 171.451733 0 0 0 37.6832-34.935467 208.042667 208.042667 0 0 0 26.282666-42.888533c6.0928 3.208533 12.578133 5.597867 19.285334 7.082667l-3.515734 4.420266a142.472533 142.472533 0 0 0 35.054934 35.362134 145.664 145.664 0 0 0 34.184533 17.698133 68.096 68.096 0 0 0-13.141333 15.9232 155.5968 155.5968 0 0 1-33.28-22.1184v10.615467h-57.856v-10.615467l-0.017067 0.017067z m14.8992 58.368v-20.343467h-23.6544v20.343467h23.671467-0.017067z m0 32.7168v-19.456h-23.6544v19.456h23.671467-0.017067z m11.400533-127.3344a376.32 376.32 0 0 1-23.671466 32.7168h50.824533c-10.0352-10.069333-19.114667-21.009067-27.136-32.7168h-0.034133z m34.167467 94.6176v38.912c0 11.2128 0.290133 20.360533 0.887467 27.409066h-17.527467c0.580267-8.840533 0.8704-17.681067 0.887467-26.5216v-39.799466c0-8.2432-0.3072-16.503467-0.887467-24.746667h17.527467c-0.597333 7.0656-0.887467 15.3088-0.8704 24.746667z m28.040533-5.290667v79.5648a16.418133 16.418133 0 0 1-4.369066 13.2608 61.7472 61.7472 0 0 1-21.9136 7.082667 49.8688 49.8688 0 0 0-8.772267-17.698134c12.8512 0.597333 19.575467-1.467733 20.155733-6.178133V839.168c0-9.437867-0.290133-19.165867-0.853333-29.184h16.64c-0.580267 9.454933-0.8704 18.602667-0.8704 27.426133z m-27.511466 101.819733l-0.341334-1.536a48.366933 48.366933 0 0 0-8.4992-17.083733l-1.9456-2.730667 3.328 0.170667a81.92 81.92 0 0 0 3.925334 0.085333c6.365867 0 14.045867-0.853333 14.557866-4.864V839.168c0-9.2672-0.3072-19.0464-0.887466-29.098667l-0.1024-1.706666h20.0704l-0.119467 1.706666c-0.5632 9.096533-0.853333 18.210133-0.8704 27.323734v79.598933c0.597333 5.341867-1.2288 10.666667-4.983467 14.523733-6.980267 3.908267-14.660267 6.417067-22.596266 7.389867l-1.536 0.341333z m-4.4032-17.885866c2.986667 4.317867 5.290667 9.0624 6.8096 14.097066 13.038933-2.730667 17.937067-5.0176 19.729066-6.4512a15.086933 15.086933 0 0 0 3.7888-11.997866v-79.598934c0-8.430933 0.256-17.1008 0.768-25.8048h-13.243733c0.512 9.506133 0.785067 18.773333 0.785067 27.579734v74.2912c-0.6656 5.376-6.468267 7.901867-17.749334 7.901866h-0.887466z m-106.615467 16.725333h-20.002133l0.085333-1.706667c0.546133-12.424533 0.853333-26.2656 0.853333-41.147733-9.045333 2.2528-17.9712 5.000533-26.709333 8.2432l-1.6384 0.6656-0.512-1.706667a77.380267 77.380267 0 0 0-7.7312-17.322666l-1.262933-2.116267 2.440533-0.324267c8.9088-1.092267 20.821333-3.3792 35.413333-6.7584v-30.549333a105.250133 105.250133 0 0 0-29.354666 5.922133l-1.467734 0.631467-7.2704-17.800533 1.160534-0.733867c4.317867-2.7136 8.533333-9.864533 12.475733-21.265067 3.703467-10.581333 6.7584-21.384533 9.1648-32.324266-5.4272 0.068267-10.8544 0.3584-16.264533 0.853333l-1.7408 0.170667v-19.456l1.706666 0.136533c6.894933 0.512 13.482667 0.836267 19.626667 0.853333 2.133333-10.564267 3.515733-21.265067 4.096-32.0512l0.1024-2.082133 1.962667 0.6144c6.826667 2.184533 13.789867 3.925333 20.821333 5.256533l2.7648 0.512-1.792 2.167467c-3.1744 3.754667-6.144 12.356267-8.9088 25.6 11.639467 0 21.282133-0.324267 29.4912-0.853333l1.706667-0.136534v19.3536l-1.706667-0.085333a623.872 623.872 0 0 0-32.853333-0.887467 415.300267 415.300267 0 0 1-16.213334 49.5616l12.509867-1.3312a492.8512 492.8512 0 0 0-0.853333-24.9856l-0.119467-1.706666h20.155733l-0.2048 1.792c-0.6656 7.5776-0.955733 15.172267-0.853333 22.766933l14.882133-1.774933v17.408l-14.8992 1.774933v28.330667l17.527467-4.437334v18.432l-1.28 0.256a98.2016 98.2016 0 0 0-16.247467 4.846934c0 18.141867 0.3072 33.109333 0.8704 45.6704l0.068267 1.706666z m-16.657067-3.242667h13.312a1056.3072 1056.3072 0 0 1-0.785066-45.2608v-1.092266l1.024-0.4096c5.341867-2.167467 10.871467-3.874133 16.520533-5.12v-11.639467l-17.527467 4.420267v-35.328l14.8992-1.774934v-10.888533l-14.8992 1.774933v-1.826133c0-10.24 0.221867-17.834667 0.699734-23.159467h-13.226667c0.512 9.4208 0.785067 17.783467 0.785067 24.917334v1.467733l-20.821334 2.218667 1.109334-2.56a399.394133 399.394133 0 0 0 17.442133-52.855467l0.341333-1.194667h1.211734c11.502933 0 22.459733 0.273067 32.597333 0.802134v-12.4928c-8.379733 0.512-18.193067 0.768-29.969067 0.768h-1.962666l0.392533-1.928534c1.365333-9.335467 4.215467-18.414933 8.448-26.845866-5.666133-1.1776-11.264-2.6112-16.776533-4.3008a226.645333 226.645333 0 0 1-4.3008 31.812266l-0.273067 1.262934h-1.28c-6.075733 0-12.5952-0.238933-19.456-0.750934v12.407467c5.597867-0.477867 11.195733-0.7168 16.810667-0.7168h1.979733l-0.4096 1.9456a286.8736 286.8736 0 0 1-9.6768 34.696533c-3.959467 11.349333-8.106667 18.602667-12.6976 22.152534l5.051733 12.356266a119.296 119.296 0 0 1 30.532267-5.700266l1.723733-0.1536v36.642133l-1.2288 0.290133a409.770667 409.770667 0 0 1-34.577066 6.792534c2.56 4.5568 4.676267 9.3184 6.314666 14.267733 6.007467-2.269867 15.240533-5.051733 27.477334-8.277333l2.013866-0.512v2.0992c0 13.909333-0.273067 27.818667-0.8192 41.693866z m74.3424 1.7408l-0.426666-1.4336a60.8768 60.8768 0 0 0-8.533334-17.2032l-1.774933-2.56h3.072c10.496 0 13.312-1.774933 13.312-2.816v-21.384533h-20.48v44.2368h-19.0464l0.085333-1.706667c0.580267-10.615467 0.887467-21.2992 0.887467-31.744v-61.9008c0-8.8064-0.238933-17.783467-0.7168-26.7776l-3.9936 3.3792-1.024-1.1776a37.341867 37.341867 0 0 0-14.301867-10.1888l-2.781866-1.1264 2.474666-1.706666a170.461867 170.461867 0 0 0 37.341867-34.6112 207.138133 207.138133 0 0 0 26.112-42.5472l0.682667-1.536 1.4848 0.733866c5.973333 3.140267 12.305067 5.4784 18.875733 6.946134l2.56 0.512-4.386133 5.546666a140.526933 140.526933 0 0 0 33.928533 33.979734 145.169067 145.169067 0 0 0 33.792 17.5104l2.628267 0.8704-2.048 1.877333c-5.051733 4.488533-9.386667 9.728-12.834134 15.530667l-0.768 1.28-1.3312-0.682667a161.7408 161.7408 0 0 1-30.976-20.036267v8.704h-61.064533V788.48c-7.850667 8.669867-13.858133 15.018667-17.954133 18.978133h51.985066l-0.170666 1.757867c-0.5632 6.4-0.8704 14.148267-0.8704 23.722667v84.036266a13.021867 13.021867 0 0 1-4.608 12.8 48.981333 48.981333 0 0 1-17.698134 6.468267l-1.4336 0.341333z m-4.676266-18.005333c2.884267 4.437333 5.188267 9.216 6.8608 14.216533 5.341867-0.9216 10.4448-2.816 15.069866-5.597866a10.069333 10.069333 0 0 0 3.293867-10.018134v-84.189866c0-8.8064 0.238933-16.110933 0.7168-22.272H379.904c0.5632 9.847467 0.836267 19.712 0.836267 29.354666v61.9008c0 9.9328-0.273067 20.087467-0.785067 30.208h12.475733v-44.219733h26.862934v24.593067c0 4.7104-7.0144 5.802667-13.5168 6.024533z m-44.3904-115.080533c4.420267 2.1504 8.3968 5.12 11.776 8.704l1.706666-1.4848h-0.085333l3.293867-2.833067c4.096-3.515733 11.963733-11.776 23.517866-24.6272l0.750934-0.836267h-0.375467l2.235733-2.645333c8.413867-10.4448 16.2816-21.316267 23.552-32.597333l1.262934-1.911467 1.365333 1.877333c7.970133 11.605333 16.9984 22.493867 26.948267 32.4608l1.706666 1.5872v-0.392533l2.645334 2.3552c9.6256 8.362667 20.258133 15.479467 31.658666 21.213867 3.003733-4.8128 6.6048-9.233067 10.683734-13.1584a153.088 153.088 0 0 1-32.017067-16.9984 144.605867 144.605867 0 0 1-35.464533-35.771734l-0.7168-0.989866 2.679466-3.362134a80.9984 80.9984 0 0 1-15.6672-5.905066c-6.946133 14.848-15.616 28.859733-25.8048 41.710933-10.24 12.834133-22.237867 24.149333-35.669333 33.604267z m43.008-10.1376h54.647466v-10.922667h-54.647466v10.922667z m4.437333-14.165334h43.451733c-8.362667-8.874667-16.093867-18.3296-23.1424-28.296533a397.789867 397.789867 0 0 1-20.309333 28.296533z m57.0368 131.464534H444.928l0.1024-1.706667c0.580267-8.874667 0.887467-17.749333 0.887467-26.436267v-39.799466c0-8.106667-0.3072-16.384-0.887467-24.644267l-0.119467-1.723733h20.992l-0.136533 1.7408c-0.580267 6.877867-0.887467 15.172267-0.887467 24.6272v38.912c0 11.383467 0.3072 20.309333 0.887467 27.272533l0.1024 1.757867z m-17.544533-3.2256h14.08c-0.512-6.792533-0.733867-15.2576-0.733867-25.8048v-38.912c0-8.7552 0.256-16.554667 0.733867-23.1424h-14.062934c0.512 7.765333 0.750933 15.530667 0.750934 23.1424v39.799466c0 8.192-0.256 16.554667-0.768 24.917334z m-29.0304-30.378667h-26.845867V854.357333h26.845867v22.6816zM395.605333 873.813333h20.48v-16.2304h-20.48v16.2304z m23.671467-29.508266h-26.845867v-23.552h26.845867v23.552z m-23.671467-3.208534h20.48V823.978667h-20.48v17.117866z m160.529067-82.414933c0-6.485333-0.290133-14.728533-0.853333-24.746667h18.3808a458.581333 458.581333 0 0 0-0.853334 24.746667v32.733867c8.7552 0 17.800533-0.290133 27.136-0.887467v15.9232a494.353067 494.353067 0 0 0-27.136-0.887467v64.546134c6.4-2.338133 16.042667-6.485333 28.910934-12.373334 0 5.3248 0.290133 10.632533 0.853333 15.9232a625.322667 625.322667 0 0 1-35.908267 15.479467 290.816 290.816 0 0 0-35.054933 16.349867 101.5296 101.5296 0 0 0-10.530133-17.681067 467.456 467.456 0 0 0 35.054933-11.502933v-70.741334c-12.8512 0-23.074133 0.290133-30.6688 0.887467v-15.940267c9.915733 0.597333 20.138667 0.904533 30.6688 0.887467v-32.733867 0.017067z m155.136-22.101333v14.148266c-10.1376 2.901333-19.336533 8.362667-26.7264 15.9232-9.6256 8.840533-22.6304 21.213867-38.997333 37.137067h78.882133c-0.597333 4.1472-1.194667 13.568-1.757867 28.296533l-3.498666 66.338134c-0.597333 14.7456-3.669333 23.893333-9.216 27.409066-5.546667 3.5328-15.342933 5.888-29.354667 7.082667a63.146667 63.146667 0 0 0-7.901867-21.230933c12.288 1.194667 20.155733 0.887467 23.671467-0.887467a13.2096 13.2096 0 0 0 6.144-11.502933l3.515733-80.469334h-16.657066a274.944 274.944 0 0 1-10.513067 44.202667 141.192533 141.192533 0 0 1-14.455467 30.532267c-5.256533 8.192-11.605333 15.633067-18.8416 22.101333-8.226133 7.0656-17.015467 13.431467-26.282666 19.012267a43.3664 43.3664 0 0 0-12.288-15.018667 148.821333 148.821333 0 0 0 27.153066-18.5856c8.123733-6.997333 14.9504-15.377067 20.155734-24.746667a121.378133 121.378133 0 0 0 11.8272-30.071466c2.645333-10.615467 4.539733-19.7632 5.700266-27.426134H654.336a107.4176 107.4176 0 0 1-7.458133 26.965334 114.005333 114.005333 0 0 1-16.213334 26.965333 143.6672 143.6672 0 0 1-27.153066 25.668267 46.762667 46.762667 0 0 0-13.141334-13.277867 85.572267 85.572267 0 0 0 32.853334-30.941867 88.490667 88.490667 0 0 0 13.585066-35.3792 104.6528 104.6528 0 0 0-13.141333 1.774934c-2.3552 0.597333-6.144 1.757867-11.400533 3.5328a166.519467 166.519467 0 0 0-5.256534-17.681067c9.915733-1.1776 21.4528-7.799467 34.6112-19.899733a682.0864 682.0864 0 0 0 35.498667-34.935467h-33.28c-12.868267 0-24.849067 0.290133-35.925333 0.887467v-16.810667c10.513067 0.597333 22.186667 0.904533 35.037866 0.887467h68.369067-0.034133z m-92.672 200.3968l-0.768-1.570134a41.7792 41.7792 0 0 0-11.810133-14.4896l-1.962667-1.536 2.184533-1.160533c9.608533-5.12 18.619733-11.281067 26.88-18.3808a89.941333 89.941333 0 0 0 19.797334-24.32 120.098133 120.098133 0 0 0 11.690666-29.678933c2.372267-9.6256 4.181333-18.158933 5.358934-25.429334h-14.267734a110.592 110.592 0 0 1-7.3728 26.0096 116.189867 116.189867 0 0 1-16.4352 27.357867 146.158933 146.158933 0 0 1-27.477333 25.941333l-1.4336 1.058134-0.904533-1.536a45.602133 45.602133 0 0 0-12.680534-12.765867l-2.048-1.501867 2.218667-1.2288a91.989333 91.989333 0 0 0 11.997867-7.799466 622.592 622.592 0 0 1-34.304 14.711466c-11.9808 4.642133-23.620267 10.069333-34.8672 16.264534l-1.536 0.853333-0.733867-1.604267a100.352 100.352 0 0 0-10.3424-17.408l-1.348267-1.877333 2.218667-0.631467a460.987733 460.987733 0 0 0 33.8944-11.076266v-67.9936c-11.946667 0-21.691733 0.3072-28.962133 0.853333l-1.706667 0.170667V788.821333l1.6896 0.1024c9.181867 0.5632 18.944 0.853333 28.9792 0.8704v-31.095466c0-6.314667-0.290133-14.626133-0.8704-24.661334l-0.119467-1.706666h21.794134l-0.085334 1.706666a471.108267 471.108267 0 0 0-0.887466 24.661334v31.095466c8.362667-0.017067 16.896-0.3072 25.4976-0.853333l1.6896-0.119467v19.336534l-1.706667-0.085334a550.656 550.656 0 0 0-25.480533-0.853333v60.6208c6.365867-2.440533 15.3088-6.314667 26.6752-11.537067l2.2528-1.024v2.5088c0 5.256533 0.290133 10.513067 0.8704 15.735467l0.034133 0.324267a81.92 81.92 0 0 0 17.6128-20.445867c6.485333-9.9328 10.922667-21.060267 13.090133-32.7168a88.814933 88.814933 0 0 0-10.9056 1.536c-2.372267 0.6144-6.178133 1.792-11.264 3.498667l-1.6384 0.5632-0.4096-1.706667c-1.416533-5.905067-3.157333-11.758933-5.205333-17.493333l-0.7168-1.9456 2.048-0.238934c9.540267-1.1264 20.8896-7.68 33.723733-19.490133 12.014933-11.042133 23.04-21.845333 32.8192-32.119467h-29.559466c-12.663467 0-24.7296 0.3072-35.84 0.887467l-1.672534 0.085333v-20.206933l1.706667 0.085333c10.24 0.597333 22.016 0.887467 34.952533 0.887467h69.956267v17.066667l-1.28 0.273066a59.528533 59.528533 0 0 0-25.975467 15.530667c-9.096533 8.362667-21.230933 19.899733-36.096 34.338133h76.7488l-0.273066 1.860267c-0.580267 4.010667-1.160533 13.4656-1.7408 28.125867l-3.498667 66.338133c-0.6144 15.428267-3.874133 24.832-9.9328 28.706133-5.819733 3.703467-15.6672 6.0928-30.088533 7.3216l-1.467734 0.119467-0.256-1.467733a61.781333 61.781333 0 0 0-7.68-20.667734l-1.570133-2.730666 3.106133 0.290133c4.829867 0.477867 9.028267 0.7168 12.458667 0.7168 3.515733 0.273067 7.031467-0.221867 10.325333-1.4336a11.605333 11.605333 0 0 0 5.256534-10.205867l3.4304-78.711466h-13.653334a276.053333 276.053333 0 0 1-10.359466 43.144533 143.650133 143.650133 0 0 1-14.626134 30.856533c-5.341867 8.311467-11.776 15.872-19.1488 22.442667-8.277333 7.1168-17.152 13.533867-26.504533 19.165867l-1.4848 0.887466z m-8.738133-17.0496c4.061867 3.5328 7.458133 7.748267 10.0352 12.458666 8.669867-5.290667 16.896-11.298133 24.610133-17.92a105.216 105.216 0 0 0 18.551467-21.777066 140.117333 140.117333 0 0 0 14.2848-30.173867c4.693333-14.336 8.192-29.013333 10.4448-43.946667l0.238933-1.3312h19.677867l-0.085334 1.672534-3.498666 80.4864a14.848 14.848 0 0 1-6.997334 12.885333c-3.584 1.757867-10.564267 2.184533-21.504 1.297067 2.952533 5.5296 5.085867 11.4688 6.314667 17.6128a65.7408 65.7408 0 0 0 27.1872-6.7072c5.051733-3.208533 7.8848-12.014933 8.465067-26.112l3.515733-66.3552c0.512-13.056 1.024-21.794133 1.536-26.624h-81.066667l2.8672-2.781867a1986.218667 1986.218667 0 0 1 39.031467-37.1712c7.3216-7.338667 16.315733-12.834133 26.197333-15.991467v-11.264h-66.747733c-12.4928 0-23.4496-0.256-33.450667-0.785066v13.380266c10.683733-0.512 22.237867-0.785067 34.321067-0.785066h37.034667l-2.56 2.730666a685.277867 685.277867 0 0 1-35.584 35.0208c-12.475733 11.4688-23.722667 18.193067-33.518934 20.002134 1.416533 4.027733 2.816 8.8064 4.215467 14.2848 4.352-1.4336 7.68-2.4576 9.864533-3.003734 4.437333-0.887467 8.891733-1.501867 13.397334-1.826133l1.962666-0.170667-0.221866 1.962667a90.794667 90.794667 0 0 1-13.824 36.0448 87.176533 87.176533 0 0 1-31.2832 30.3104c4.078933 3.003733 7.662933 6.621867 10.632533 10.717867a141.192533 141.192533 0 0 0 25.4976-24.32c6.519467-8.072533 11.895467-17.032533 15.9744-26.589867a106.496 106.496 0 0 0 7.338667-26.555733l0.170666-1.399467h20.821334l-0.290134 1.877333c-1.1776 7.68-3.106133 16.964267-5.7344 27.5456a123.050667 123.050667 0 0 1-11.9808 30.464 93.815467 93.815467 0 0 1-20.48 25.207467c-7.8336 6.724267-16.3328 12.629333-25.378133 17.629867h0.017067z m-86.1184-31.197867c3.242667 4.608 6.144 9.454933 8.618666 14.506667 10.922667-5.888 22.186667-11.093333 33.723734-15.598934a630.101333 630.101333 0 0 0 34.816-14.967466 142.3872 142.3872 0 0 1-0.733867-12.4416c-11.690667 5.341867-20.6848 9.181867-26.794667 11.400533l-2.133333 0.785067v-68.4544h1.5872c7.099733 0 15.701333 0.256 25.582933 0.785066v-12.4928c-8.533333 0.512-17.0496 0.768-25.565866 0.768h-1.604267v-34.338133c0-5.7344 0.256-13.533867 0.785067-23.1424h-15.018667c0.512 9.437867 0.768 17.032533 0.768 23.1424v34.338133h-1.5872c-10.069333 0-19.831467-0.256-29.0816-0.768v12.458667c7.492267-0.512 17.237333-0.750933 29.0816-0.750933h1.5872v73.489066l-1.024 0.375467c-12.0832 4.437333-23.159467 8.0896-33.024 10.922667h0.017067zM824.32 845.824a3098.112 3098.112 0 0 1-8.7552 40.2432c11.093333-2.3552 18.978133-4.130133 23.6544-5.307733 0 4.778667 0.597333 9.5232 1.757867 14.165333-18.1248 4.130133-33.757867 7.799467-46.8992 11.042133-12.288 2.986667-24.4224 6.656-36.317867 11.025067a65.314133 65.314133 0 0 0-7.8848-19.456c16.7936-1.9968 33.4848-4.949333 49.954133-8.840533 2.321067-7.662933 5.102933-19.012267 8.311467-34.048 3.328-15.889067 5.5296-32 6.587733-48.196267 6.2464 2.321067 12.6976 4.096 19.285334 5.290667a213.9136 213.9136 0 0 0-9.693867 34.082133z m-19.285333-69.4272c8.174933 0 20.445867-0.290133 36.8128-0.887467v16.810667a1145.856 1145.856 0 0 0-36.8128-0.887467h-17.527467c-9.352533 0-21.333333 0.3072-35.925333 0.887467v-16.810667a895.829333 895.829333 0 0 0 35.925333 0.887467h17.527467z m-12.288 92.859733c-5.853867 1.774933-11.400533 3.242667-16.64 4.437334a393.045333 393.045333 0 0 0-16.657067-59.272534c4.6592-1.757867 10.222933-3.5328 16.657067-5.290666 9.3696 30.651733 14.933333 50.688 16.6912 60.125866h-0.0512z m-14.8992-132.6592c5.137067-1.979733 10.120533-4.352 14.8992-7.0656 6.7072 10.769067 12.014933 22.357333 15.7696 34.474667a90.453333 90.453333 0 0 1-16.64 6.212267 130.2528 130.2528 0 0 0-13.994667-33.621334h-0.034133z m116.565333 38.0416h25.429333c9.335467 0 19.5584-0.3072 30.6688-0.887466v16.776533a596.514133 596.514133 0 0 0-30.685866-0.887467H894.464v43.349334h43.810133a363.52 363.52 0 0 0-0.853333 24.746666v43.349334c0 10.581333 0.273067 21.504 0.853333 32.7168H919.893333v-18.5856h-58.7264v19.456h-16.657066c0-10.615467 0.290133-20.036267 0.887466-28.296534v-46.865066a343.108267 343.108267 0 0 1-0.887466-26.538667h33.28v-80.469333c0-5.290667-0.290133-13.2608-0.8704-23.8592h18.397866a507.323733 507.323733 0 0 0-0.8704 22.101333v23.876267h-0.017066z m25.429333 126.464v-53.9648h-58.709333v53.947734H919.893333h-0.0512z m-57.1392 35.208534h-19.848533v-1.621334c0-10.752 0.3072-20.309333 0.887467-28.398933v-46.762667c-0.597333-7.509333-0.887467-16.2304-0.887467-26.5216v-1.621333h33.28v-78.848c0-5.2224-0.290133-13.0048-0.8704-23.790933l-0.034133-1.706667h21.794133l-0.1024 1.6896a554.359467 554.359467 0 0 0-0.853333 22.016v22.272h23.808c9.454933 0 19.746133-0.3072 30.583466-0.887467l1.672534-0.1024v20.224l-1.672534-0.1024a591.445333 591.445333 0 0 0-30.583466-0.8704h-23.825067v40.106667h43.946667l-0.136534 1.706667c-0.5632 8.209067-0.853333 16.4352-0.853333 24.661333v43.349333c0 10.7008 0.273067 21.674667 0.853333 32.631467l0.1024 1.6896h-21.691733v-18.568533h-55.534933v19.456h-0.034134z m-16.64-3.242667h13.448534v-19.456h61.917866v18.5856h15.104a637.7984 637.7984 0 0 1-0.768-31.112533V857.770667c0-7.304533 0.238933-15.086933 0.750934-23.159467h-43.690667v-46.5408h26.999467c8.772267 0 18.5344 0.256 29.0816 0.785067v-13.397334c-10.274133 0.512-20.053333 0.785067-29.0816 0.785067h-27.016534V750.762667c0-3.498667 0.273067-10.5472 0.785067-20.48h-15.0016c0.512 9.966933 0.785067 17.2544 0.785067 22.254933v82.090667h-33.28c0 9.5232 0.3072 17.646933 0.853333 24.797866v47.0016c-0.580267 8.874667-0.853333 17.7664-0.853333 26.6752h-0.034134z m-89.6-13.892267l-0.341333-1.8432a64.1024 64.1024 0 0 0-7.68-18.944l-1.211733-2.0992 2.3552-0.341333c16.4352-1.979733 32.768-4.846933 48.896-8.5504 2.235733-7.509333 4.949333-18.619733 8.0384-33.0752 3.310933-15.8208 5.495467-31.8464 6.5536-47.957333l0.136533-2.1504 1.9968 0.733866c6.178133 2.286933 12.544 4.0448 19.012267 5.239467l1.9456 0.341333-0.733867 1.8432a212.3264 212.3264 0 0 0-9.557333 33.792c-2.730667 13.0048-5.461333 25.6-8.192 37.802667 9.762133-2.082133 16.861867-3.6864 21.162666-4.778667l1.979734-0.512v2.048c0 4.642133 0.580267 9.2672 1.706666 13.7728l0.4096 1.604267-1.604266 0.3584c-15.650133 3.566933-31.2832 7.236267-46.865067 11.042133-12.270933 2.986667-24.354133 6.656-36.1984 11.008l-1.809067 0.682667z m-4.130133-20.360533c2.850133 5.051733 5.034667 10.4448 6.5024 16.042667a346.624 346.624 0 0 1 34.816-10.461867c12.544-3.072 27.784533-6.7072 45.329067-10.717867a61.371733 61.371733 0 0 1-1.3824-10.871466c-4.829867 1.160533-12.117333 2.798933-21.777067 4.829866l-2.440533 0.512 0.546133-2.474666c2.901333-12.936533 5.8368-26.333867 8.772267-40.192 2.184533-11.042133 5.188267-21.896533 9.0112-32.494934a120.439467 120.439467 0 0 1-15.650134-4.283733 344.234667 344.234667 0 0 1-6.4512 46.301867c-3.293867 15.274667-6.007467 26.453333-8.362666 34.167466l-0.238934 0.836267-0.853333 0.238933c-15.735467 3.771733-31.675733 6.638933-47.752533 8.567467h-0.068267z m169.079467 3.8912h-61.866667v-57.173333h61.917867v57.173333h-0.0512z m-58.7264-3.2256h55.586133v-50.722133h-55.534933v50.722133h-0.0512z m-87.893334-23.8592l-0.290133-1.672533a392.0896 392.0896 0 0 0-16.5888-58.9824l-0.512-1.501867 1.467733-0.5632c4.676267-1.757867 10.325333-3.584 16.776534-5.341867l1.518933-0.4096 0.443733 1.501867c9.472 31.061333 14.933333 50.773333 16.708267 60.296533l0.3072 1.450667-1.399467 0.4096c-5.5296 1.706667-11.1104 3.1744-16.759466 4.4544l-1.6896 0.3584z m-13.312-60.245333c6.656 18.3808 11.946667 37.205333 15.889067 56.32 4.539733-1.041067 9.045333-2.235733 13.533867-3.584-1.979733-9.642667-7.3216-28.791467-15.872-57.002667-5.051733 1.4336-9.591467 2.850133-13.499734 4.266667h-0.068266z m-11.52-21.367467V773.802667l1.655467 0.085333c14.250667 0.580267 26.3168 0.887467 35.874133 0.887467h17.5104c8.413867 0 20.7872-0.3072 36.7616-0.887467l1.655467-0.068267v20.138667l-1.655467-0.0512a1142.920533 1142.920533 0 0 0-36.7616-0.887467h-17.5104c-9.284267 0-20.992 0.3072-35.874133 0.887467l-1.655467 0.085333z m37.5296-4.181333h17.5104c7.850667 0 19.387733 0.256 35.2256 0.8192v-13.4656c-15.223467 0.5632-27.0848 0.836267-35.2256 0.836266h-17.5104c-9.216 0-20.753067-0.273067-34.338133-0.8192v13.448534c14.165333-0.5632 25.3952-0.836267 34.372267-0.836267h-0.034134z m3.191467-17.6128l-0.392533-1.6384a128.119467 128.119467 0 0 0-13.841067-33.1776l-0.938667-1.655467 1.774934-0.6656a110.933333 110.933333 0 0 0 14.677333-6.9632l1.262933-0.7168 0.836267 1.211733c6.775467 10.9056 12.151467 22.613333 15.9744 34.8672l0.443733 1.348267-1.245866 0.648533c-5.4272 2.628267-11.093333 4.744533-16.9472 6.314667l-1.604267 0.426667z m-10.5472-34.781867a132.096 132.096 0 0 1 12.885333 30.7712 88.917333 88.917333 0 0 0 13.499734-5.0176 150.664533 150.664533 0 0 0-14.301867-31.522133 115.882667 115.882667 0 0 1-12.032 5.768533h-0.0512zM493.0048 683.195733V521.728H868.181333v161.467733H493.0048z m185.207467-142.472533H512v52.224h166.229333v-52.224z m166.229333 0h-147.217067v52.224h147.217067v-52.224z m0 71.236267H512v52.224h332.4416v-52.224z m-59.357867-332.458667H701.952v118.749867c11.605333 4.676267 19.1488 15.991467 18.9952 28.501333 0 21.76-8.8576 35.106133-33.245867 37.9904-16.605867 1.962667-30.395733-11.946667-37.5296-21.0432-4.266667-6.365867-4.608-6.4512-5.205333-9.8304a13.8752 13.8752 0 0 1 11.861333-11.861333 14.045867 14.045867 0 0 1 2.730667 0.341333c5.461333 1.570133 10.2912 4.778667 13.909333 9.147733 0 0 0.512 0.597333 1.4336 1.399467a14.216533 14.216533 0 1 0 18.858667-18.9952 43.690667 43.690667 0 0 0-10.8032-6.144v-128.238933H336.2816v308.701866h12.3904a25.6 25.6 0 0 1 25.6 25.6v53.282134a25.6 25.6 0 0 1-25.6 25.6h-167.253333a25.6 25.6 0 0 1-25.6-25.6v-53.282134a25.6 25.6 0 0 1 25.6-25.6h12.3904V278.852267a40.328533 40.328533 0 0 1 0-79.4112v-52.906667a71.2192 71.2192 0 0 1 105.710933-62.293333l506.760533 115.063466-1.109333 4.881067a40.3456 40.3456 0 0 1-20.087467 75.332267z m-88.285866-80.725333L328.977067 115.268267a70.826667 70.826667 0 0 1 7.304533 31.266133v52.224h360.516267v0.017067z m-384.256 80.725333h-94.993067v308.718933h94.993067V279.517867z m-122.743467 332.458667a10.24 10.24 0 0 0-10.24 10.24v36.522666a10.24 10.24 0 0 0 10.24 10.24h150.493867a10.24 10.24 0 0 0 10.24-10.24v-36.522666a10.24 10.24 0 0 0-10.24-10.24H189.781333z m27.7504-463.035734v49.851734h94.993067V148.923733a47.496533 47.496533 0 0 0-94.993067 0z" fill="#00FF00" /></svg>