<?xml version="1.0" standalone="no"?><!DOCTYPE svg PUBLIC "-//W3C//DTD SVG 1.1//EN" "http://www.w3.org/Graphics/SVG/1.1/DTD/svg11.dtd"><svg class="icon" width="1000px" height="1000.00px" viewBox="0 0 1024 1024" version="1.1" xmlns="http://www.w3.org/2000/svg"><path d="M0 1024V0h1024v1024H0zM992 32H32v960h960V32z" fill="#FFFF00" /><path d="M107.793067 892.279467v-70.7072c-10.581333 0-20.8384 0.290133-30.805334 0.8704v-16.776534c11.127467 0.597333 21.981867 0.887467 32.5632 0.8704h14.9504a511.6928 511.6928 0 0 0-0.8704 26.5216v55.688534c12.322133 15.325867 35.6352 23.125333 69.973334 23.415466a516.778667 516.778667 0 0 0 79.633066-3.976533 72.584533 72.584533 0 0 0-7.918933 21.213867h-57.207467c-12.8 0.1536-25.6-0.597333-38.280533-2.218667a125.064533 125.064533 0 0 1-25.975467-6.178133 64.785067 64.785067 0 0 1-19.3536-11.485867c-5.888-5.0176-12.782933-3.976533-20.6848 3.072-6.365867 5.512533-12.3904 11.434667-18.039466 17.664a641.416533 641.416533 0 0 1-14.08-16.7936 287.744 287.744 0 0 1 36.096-21.179733z m4.386133-112.247467a175.0528 175.0528 0 0 0-26.402133-33.5872l12.322133-10.615467c10.257067 10.427733 19.677867 21.674667 28.16 33.5872l-14.08 10.615467z m63.368533 102.9632c-7.901867 0.597333-15.633067 2.56-22.869333 5.751467l-8.8064-18.568534c5.853867-2.3552 12.014933-8.840533 18.4832-19.456a130.901333 130.901333 0 0 0 14.967467-40.6528c-19.968 0-35.2256 0.290133-45.7728 0.887467v-16.7936c11.144533 0.597333 33.723733 0.887467 67.754666 0.8704 34.048 0 56.046933-0.3072 66.013867-0.8704v16.7936c-9.984-0.597333-32.853333-0.887467-68.642133-0.887467a167.662933 167.662933 0 0 1-10.120534 25.634134c-5.341867 11.264-11.3664 22.186667-18.039466 32.699733 21.7088-1.774933 42.530133-3.5328 62.464-5.290667a170.8032 170.8032 0 0 0-17.595734-25.6512 50.688 50.688 0 0 0 13.2096-9.728c13.056 16.964267 25.088 34.679467 36.061867 53.060267-5.290667 2.935467-10.564267 6.178133-15.837867 9.728-2.935467-5.307733-5.870933-10.325333-8.8064-15.018667-30.498133 3.515733-51.319467 6.024533-62.464 7.492267z m74.820267-120.6272a1052.637867 1052.637867 0 0 0-50.176-0.887467c-21.725867 0-38.741333 0.3072-51.0464 0.887467v-16.7936c10.564267 0.597333 27.2896 0.887467 50.176 0.887467s39.901867-0.3072 51.0464-0.887467v16.7936z m-164.590933 170.376533l-1.194667-1.399466a650.922667 650.922667 0 0 1-14.1312-16.827734l-1.143467-1.399466 1.536-0.989867a312.5248 312.5248 0 0 1 35.328-20.923733v-68.010667c-9.864533 0-19.643733 0.3072-29.098666 0.853333l-1.706667 0.119467v-20.206933l1.6896 0.085333c10.871467 0.580267 21.794133 0.887467 32.477867 0.887467h16.657066l-0.085333 1.6896c-0.597333 10.922667-0.887467 19.831467-0.887467 26.436266v55.0912c12.049067 14.592 35.072 22.1184 68.386134 22.408534 26.504533 0.648533 53.026133-0.682667 79.36-3.959467l3.191466-0.512-1.536 2.8672a71.236267 71.236267 0 0 0-7.748266 20.718933l-0.221867 1.3312h-58.538667a278.698667 278.698667 0 0 1-38.5024-2.218666 127.1808 127.1808 0 0 1-26.299733-6.280534 66.2528 66.2528 0 0 1-19.848533-11.776c-5.3248-4.488533-11.298133-3.3792-18.568534 3.072-6.314667 5.495467-12.288 11.332267-17.92 17.527467l-1.194666 1.416533z m-11.690667-18.875733c4.488533 5.4784 8.3456 10.0864 11.707733 13.960533 5.376-5.751467 11.025067-11.264 16.964267-16.4352 8.516267-7.594667 16.384-8.584533 22.784-3.106133a63.658667 63.658667 0 0 0 18.8928 11.195733c8.2944 2.935467 16.896 4.983467 25.634133 6.109867 12.612267 1.604267 25.326933 2.338133 38.058667 2.2016h55.876267a72.362667 72.362667 0 0 1 6.3488-17.544533 549.802667 549.802667 0 0 1-76.782934 3.5328c-34.645333-0.290133-58.606933-8.362667-71.202133-24.029867l-0.341333-0.443733v-56.251734c0-6.314667 0.256-14.6944 0.785066-24.917333H109.568c-10.1888 0-20.5824-0.256-30.958933-0.785067v13.380267a545.28 545.28 0 0 1 29.184-0.785067h1.604266v73.386667l-1.024 0.426667a275.968 275.968 0 0 0-34.286933 20.104533z m172.1856-21.0432l-0.836267-1.536a365.568 365.568 0 0 0-8.226133-14.097067c-29.474133 3.413333-50.141867 5.905067-61.44 7.406934-7.68 0.580267-15.223467 2.4576-22.289067 5.5296l-1.518933 0.8704-10.274133-21.691734 1.5872-0.631466c5.495467-2.218667 11.4688-8.533333 17.7152-18.773334a127.7952 127.7952 0 0 0 14.336-38.229333c-18.773333 0.034133-33.450667 0.324267-43.690667 0.887467l-1.6896 0.1024v-20.206934l1.6896 0.085334c11.042133 0.597333 33.160533 0.887467 67.6864 0.887466s56.046933-0.290133 65.911467-0.887466l1.706666-0.1024v20.224l-1.706666-0.1024c-9.864533-0.5632-32.529067-0.853333-67.345067-0.887467-2.6624 8.482133-5.973333 16.725333-9.864533 24.712533-4.9152 10.3424-10.410667 20.411733-16.4352 30.139734 19.6608-1.604267 38.6048-3.208533 56.832-4.8128-4.778667-8.157867-10.222933-15.9232-16.247467-23.210667l-1.262933-1.5872 1.792-0.904533a49.493333 49.493333 0 0 0 12.8-9.386667l1.28-1.314133 1.109333 1.416533a547.771733 547.771733 0 0 1 36.1984 53.213867l0.887467 1.4336-1.467734 0.802133c-5.358933 3.0208-10.615467 6.2464-15.735466 9.659733l-1.501867 0.989867z m-7.406933-19.063467l0.512 0.8704c2.7648 4.471467 5.4272 8.994133 8.021333 13.568 4.232533-2.816 8.584533-5.4784 13.0048-8.004266a543.232 543.232 0 0 0-33.979733-50.0224 53.572267 53.572267 0 0 1-10.581334 7.816533c6.212267 7.6288 11.758933 15.7696 16.554667 24.354133l1.160533 2.1504-2.440533 0.221867c-19.968 1.774933-40.789333 3.5328-62.498133 5.290667l-3.208534 0.290133 1.706667-2.747733c6.656-10.478933 12.629333-21.333333 17.954133-32.529067 4.027733-8.174933 7.3728-16.657067 10.018134-25.361067l0.341333-1.194666h1.211733c33.6896 0 56.2176 0.273067 67.054934 0.785066v-13.380266c-10.5984 0.512-31.726933 0.785067-64.4096 0.785066-32.904533 0-54.5792-0.256-66.167467-0.785066v13.380266c10.564267-0.512 25.3952-0.785067 44.168533-0.785066h1.9968l-0.426666 1.9456a132.829867 132.829867 0 0 1-15.1552 41.1648 50.1248 50.1248 0 0 1-17.698134 19.387733l7.3728 15.581867c7.048533-2.730667 14.421333-4.4544 21.947734-5.154134 11.434667-1.501867 32.477867-4.027733 62.498133-7.509333l1.041067-0.119467z m-127.146667-91.374933l-0.9216-1.536c-7.3216-12.117333-16.110933-23.296-26.146133-33.28l-1.245867-1.2288 14.830933-12.7488 1.041067 1.1264c10.3424 10.513067 19.831467 21.845333 28.381867 33.860267l0.733866 1.245866-16.657066 12.561067z m-23.569067-35.84A177.937067 177.937067 0 0 1 112.64 777.659733l11.4688-8.635733a301.329067 301.329067 0 0 0-26.112-30.958933l-9.847467 8.482133z m163.84 17.527467l-1.706666-0.1024a1058.2528 1058.2528 0 0 0-50.0736-0.8704c-21.504 0-38.621867 0.290133-50.961067 0.8704l-1.6896 0.085333v-20.189867l1.706667 0.1024c10.427733 0.580267 26.8288 0.8704 50.0736 0.8704s39.936-0.290133 50.961066-0.8704l1.672534-0.1024v20.206934z m-101.205333-16.7936v13.397333c12.253867-0.512 28.842667-0.802133 49.425067-0.802133 21.026133 0 37.341867 0.273067 48.554666 0.785066v-13.380266c-11.076267 0.512-27.272533 0.785067-49.425066 0.785066-22.1696 0-38.058667-0.273067-48.5888-0.802133h0.017066z m195.515733 142.370133c0 18.261333 0.3072 33.877333 0.887467 46.830933h-16.7424c0.580267-12.970667 0.8704-27.392 0.887467-43.298133-9.847467 2.389333-19.541333 5.358933-29.047467 8.840533a78.404267 78.404267 0 0 0-7.918933-17.681066c9.386667-1.1776 21.691733-3.5328 36.9664-7.0656v-33.5872a111.394133 111.394133 0 0 0-31.6928 6.178133l-6.144-15.018667c4.693333-2.935467 9.096533-10.308267 13.2096-22.101333 3.959467-11.281067 7.168-22.818133 9.659733-34.5088-5.870933 0-12.032 0.290133-18.4832 0.887467v-15.906134c7.6288 0.597333 14.677333 0.887467 21.128533 0.8704 2.321067-11.0592 3.7888-22.289067 4.4032-33.5872 6.912 2.218667 13.9776 3.976533 21.111467 5.307734-3.515733 4.1472-6.741333 13.568-9.6768 28.279466 12.322133 0 22.869333-0.290133 31.675733-0.8704v15.906134a630.493867 630.493867 0 0 0-34.304-0.887467 397.226667 397.226667 0 0 1-17.595733 53.026133l16.725333-1.757866c0-7.662933-0.290133-16.503467-0.887466-26.5216h16.725333c-0.7168 8.226133-1.006933 16.4864-0.887467 24.746666l14.967467-1.757866v14.1312l-14.967467 1.774933v31.812267l17.6128-4.420267v15.018667a101.0176 101.0176 0 0 0-17.629866 5.341866h0.017066z m52.804267-105.181867c-11.741867 12.970667-19.6608 21.213867-23.7568 24.746667h54.545067c-0.597333 6.485333-0.887467 14.4384-0.8704 23.8592v83.968a11.5712 11.5712 0 0 1-3.959467 11.485867c-5.290667 3.140267-11.093333 5.239467-17.169067 6.1952-1.962667-6.314667-4.949333-12.288-8.8064-17.681067 9.966933 0 14.967467-1.4848 14.967467-4.420267v-22.9888h-23.7568v44.202667h-15.854933c0.580267-10.615467 0.887467-21.213867 0.887466-31.812267v-61.9008c0-10.001067-0.290133-20.0192-0.887466-30.037333l-5.290667 4.4032a39.048533 39.048533 0 0 0-14.9504-10.5984 171.810133 171.810133 0 0 0 37.853867-34.9184 207.872 207.872 0 0 0 26.402133-42.871467c6.109867 3.208533 12.629333 5.597867 19.370667 7.082667l-3.5328 4.420267a142.574933 142.574933 0 0 0 69.512533 53.026133c-5.188267 4.608-9.642667 9.966933-13.2096 15.906133a156.296533 156.296533 0 0 1-33.450667-22.084266v10.581333h-58.0608v-10.581333h0.017067z m14.967467 58.333867v-20.3264h-23.773867v20.3264h23.7568z m0 32.699733v-19.456h-23.773867v19.456h23.7568z m11.400533-127.300266c-7.338667 11.3152-15.2576 22.237867-23.7568 32.699733h51.029333a233.591467 233.591467 0 0 1-27.272533-32.699733z m34.304 94.583466v38.877867c0 11.2128 0.290133 20.343467 0.887467 27.409067h-17.578667c0.597333-8.8576 0.887467-17.681067 0.887467-26.5216v-39.765334c0-8.2432-0.290133-16.503467-0.8704-24.746666h17.595733a294.741333 294.741333 0 0 0-0.887467 24.746666h-0.034133z m28.16-5.307733v79.547733a16.384 16.384 0 0 1-4.4032 13.2608c-6.826667 3.703467-14.301867 6.109867-22.016 7.0656a49.732267 49.732267 0 0 0-8.8064-17.681066c12.9024 0.597333 19.6608-1.467733 20.241067-6.178134v-74.24c0-9.4208-0.290133-19.1488-0.8704-29.184h16.776533a429.226667 429.226667 0 0 0-0.8704 27.409067h-0.0512z m-27.648 101.768533l-0.341333-1.536a48.264533 48.264533 0 0 0-8.533334-17.066666l-1.962666-2.730667 3.345066 0.170667c1.3824 0.068267 2.730667 0.085333 3.959467 0.085333 6.382933 0 14.097067-0.853333 14.592-4.881067v-74.0352c0-9.2672-0.290133-19.0464-0.8704-29.0816l-0.0512-1.723733h20.138667l-0.1024 1.706667a433.595733 433.595733 0 0 0-0.8704 27.306666v79.530667a17.92 17.92 0 0 1-5.000534 14.5408 62.429867 62.429867 0 0 1-22.698666 7.3728l-1.604267 0.341333z m-4.437333-17.8688c3.003733 4.3008 5.307733 9.045333 6.826666 14.08 13.124267-2.730667 18.039467-5.000533 19.831467-6.434133a15.0528 15.0528 0 0 0 3.8912-11.997867v-79.547733c0-8.430933 0.256-17.1008 0.768-25.787733h-13.312c0.512 9.489067 0.785067 18.773333 0.785067 27.5456v74.24c-0.6656 5.393067-6.485333 7.918933-17.8176 7.918933H455.850667z m-107.076267 16.708267h-20.002133l0.068266-1.706667c0.546133-12.407467 0.853333-26.231467 0.853334-41.130666a254.976 254.976 0 0 0-26.811734 8.2432l-1.6384 0.682666-0.512-1.706666a77.243733 77.243733 0 0 0-7.765333-17.3056l-1.262933-2.133334 2.440533-0.324266c8.942933-1.092267 20.906667-3.362133 35.566933-6.741334v-30.549333c-10.052267 0.580267-19.968 2.56-29.474133 5.9392l-1.4848 0.6144-7.287467-17.783467 1.160534-0.733866c4.334933-2.730667 8.533333-9.864533 12.526933-21.265067 3.720533-10.581333 6.792533-21.3504 9.216-32.3072-5.1712 0.068267-10.6496 0.341333-16.349867 0.8704l-1.7408 0.170667v-19.438934l1.7408 0.136534c6.912 0.512 13.5168 0.853333 19.677867 0.8704 2.1504-10.564267 3.515733-21.265067 4.096-32.034134l0.119467-2.082133 1.962666 0.6144c6.8608 2.167467 13.858133 3.925333 20.923734 5.256533l2.781866 0.512-1.826133 2.1504c-3.191467 3.7376-6.1952 12.3392-8.942933 25.6 11.6736 0 21.367467-0.324267 29.610666-0.853333l1.706667-0.136533v19.336533l-1.6896-0.085333a629.76 629.76 0 0 0-32.989867-0.887467 413.9008 413.9008 0 0 1-16.2816 49.527467l12.544-1.3312a486.912 486.912 0 0 0-0.853333-24.968534l-0.119467-1.706666h20.258134l-0.2048 1.809066c-0.682667 7.560533-0.9728 15.1552-0.8704 22.7328l14.9504-1.757866v17.408l-14.967467 1.757866v28.330667l17.595733-4.437333v18.432l-1.28 0.256a98.423467 98.423467 0 0 0-16.315733 4.829866c0 18.141867 0.290133 33.092267 0.887467 45.6704v1.655467z m-16.725333-3.2256h13.3632a1046.8352 1046.8352 0 0 1-0.802134-45.226667v-1.092266l1.024-0.4096a102.4 102.4 0 0 1 16.605867-5.12v-11.656534l-17.6128 4.420267v-35.328l14.967467-1.757867v-10.888533l-14.967467 1.774933V827.733333c0-10.24 0.221867-17.834667 0.7168-23.1424h-13.192533c0.512 9.4208 0.785067 17.783467 0.785066 24.917334v1.450666l-20.906666 2.218667 1.092266-2.56a397.653333 397.653333 0 0 0 17.527467-52.804267l0.341333-1.194666h1.211734c11.554133 0 22.528 0.273067 32.733866 0.802133v-12.475733c-8.413867 0.512-18.261333 0.768-30.088533 0.768h-1.962667l0.392534-1.928534c1.365333-9.352533 4.215467-18.414933 8.465066-26.845866a187.835733 187.835733 0 0 1-16.8448-4.283734c-0.682667 10.683733-2.116267 21.2992-4.317866 31.778134l-0.256 1.28h-1.314134c-6.109867 0-12.6464-0.256-19.524266-0.768v12.407466c5.888-0.512 11.5712-0.7168 16.896-0.7168h1.979733l-0.4096 1.928534a285.371733 285.371733 0 0 1-9.728 34.679466c-3.976533 11.349333-8.1408 18.602667-12.7488 22.152534l5.0688 12.356266a120.200533 120.200533 0 0 1 30.6688-5.717333l1.7408-0.136533v36.608l-1.245867 0.3072c-14.267733 3.293867-25.668267 5.5296-34.7136 6.792533 2.56 4.522667 4.693333 9.301333 6.331734 14.250667 6.0416-2.269867 15.3088-5.051733 27.613866-8.277334l2.013867-0.512v2.0992c0 13.892267-0.273067 27.8016-0.8192 41.6768h-0.085333z m74.666666 1.7408l-0.426666-1.450667a60.757333 60.757333 0 0 0-8.584534-17.186133l-1.774933-2.56h3.072c10.5472 0 13.3632-1.774933 13.3632-2.816V891.221333h-20.48v44.202667H372.736l0.085333-1.706667c0.597333-10.615467 0.887467-21.282133 0.887467-31.744v-61.8496c0-8.789333-0.238933-17.749333-0.699733-26.743466l-4.027734 3.3792-1.024-1.194667a37.4784 37.4784 0 0 0-14.336-10.171733l-2.798933-1.143467 2.4576-1.706667c14.165333-9.5744 26.794667-21.230933 37.495467-34.577066a206.848 206.848 0 0 0 26.197333-42.530134l0.682667-1.536 1.501866 0.733867c5.973333 3.140267 12.356267 5.461333 18.944 6.946133l2.594134 0.512-4.386134 5.5296a140.629333 140.629333 0 0 0 67.9936 51.456l2.645334 0.887467-2.048 1.877333c-5.0688 4.471467-9.403733 9.710933-12.885334 15.530667l-0.768 1.262933-1.3312-0.6656a162.730667 162.730667 0 0 1-31.1296-20.036266v8.704H397.482667v-8.055467c-7.8848 8.669867-13.9264 15.018667-18.0224 18.944h52.189866l-0.1536 1.757867a265.216 265.216 0 0 0-0.887466 23.722666v83.968a12.987733 12.987733 0 0 1-4.608 12.8c-5.461333 3.259733-11.485867 5.461333-17.7664 6.4512l-1.536 0.375467z m-4.7104-17.988267c2.901333 4.420267 5.205333 9.198933 6.894934 14.199467 5.358933-0.9216 10.478933-2.833067 15.138133-5.597867a10.052267 10.052267 0 0 0 3.310933-10.018133v-84.138667c0-8.8064 0.238933-16.110933 0.7168-22.254933h-51.968c0.5632 9.8304 0.836267 19.694933 0.836267 29.320533v61.883734c0 9.915733-0.273067 20.0704-0.785067 30.208h12.544v-44.202667h26.965334v24.576c0 4.693333-7.082667 5.802667-13.585067 6.007467h-0.068267z m-44.578133-115.029333c4.437333 2.1504 8.448 5.102933 11.8272 8.704l1.723733-1.4848 3.293867-2.833067c4.096-3.498667 12.032-11.776 23.620267-24.610133l0.768-0.836267h-0.4096l2.2528-2.645333c8.465067-10.427733 16.349867-21.2992 23.6544-32.5632l1.28-1.928533 1.365333 1.877333c8.021333 11.605333 17.066667 22.4768 27.050667 32.443733l1.706666 1.5872v-0.4096l2.6624 2.338134c9.6768 8.362667 20.360533 15.496533 31.7952 21.213866 3.037867-4.8128 6.656-9.216 10.752-13.141333a153.6512 153.6512 0 0 1-32.1536-16.9984 144.7936 144.7936 0 0 1-35.601066-35.754667l-0.733867-0.989866 2.696533-3.362134a81.4592 81.4592 0 0 1-15.735466-5.905066c-6.997333 14.865067-15.684267 28.859733-25.9072 41.710933a173.602133 173.602133 0 0 1-35.84 33.570133h-0.068267z m43.178667-10.1376h54.954666v-10.922667h-54.869333v10.922667h-0.068267z m4.471466-14.148267h43.639467a261.2736 261.2736 0 0 1-23.227733-28.279466 380.3136 380.3136 0 0 1-20.3264 28.279466h-0.085334z m57.2928 131.3792h-20.992l0.1024-1.706666c0.597333-8.840533 0.887467-17.749333 0.887467-26.4192v-39.765334c0-8.106667-0.290133-16.384-0.887467-24.644266l-0.119466-1.706667h21.077333l-0.1536 1.7408c-0.580267 6.8608-0.8704 15.1552-0.8704 24.610133v38.877867c0 11.383467 0.290133 20.309333 0.8704 27.255467l0.085333 1.757866z m-17.629866-3.208533h14.1312c-0.512-6.792533-0.733867-15.2576-0.733867-25.8048v-38.877867c0-8.772267 0.256-16.554667 0.733867-23.1424h-14.1312c0.512 7.765333 0.768 15.530667 0.768 23.1424v39.765334c0.0512 8.311467-0.170667 16.622933-0.682667 24.917333h-0.085333z m-29.166934-30.378667h-26.897066v-22.664533h26.965333v22.664533h-0.068267z m-23.7568-3.2256h20.565334v-16.213333h-20.48v16.213333h-0.085334z m23.7568-29.474133h-26.897066v-23.552h26.965333v23.552h-0.068267z m-23.7568-3.2256h20.565334v-17.1008h-20.48v17.1008h-0.085334z m225.8944-42.1376c-2.048 3.242667-6.2976 11.639467-12.765866 25.1904h81.851733c14.08 0 25.514667-0.290133 34.304-0.887467v15.9232a554.257067 554.257067 0 0 0-33.450667-0.887466h-8.789333a161.792 161.792 0 0 1-26.402133 45.960533 489.1136 489.1136 0 0 1 66.901333 31.812267 134.5536 134.5536 0 0 0-12.3392 16.7936 359.168 359.168 0 0 0-67.754667-36.232534 169.4208 169.4208 0 0 1-50.176 26.077867c-15.274667 5.2224-30.856533 9.489067-46.660266 12.8-2.218667-6.843733-5.802667-13.1584-10.5472-18.568533a207.428267 207.428267 0 0 0 51.473066-9.728 135.031467 135.031467 0 0 0 37.376-17.681067 498.688 498.688 0 0 0-61.610666-17.681067c7.936-10.615467 15.0016-21.845333 21.128533-33.5872h-22.016c-7.031467 0-17.015467 0.3072-29.917867 0.887467v-15.906133c7.031467 0.597333 16.725333 0.904533 29.047467 0.887466h29.047467c7.389867-13.482667 13.346133-27.682133 17.749333-42.410666 6.314667 3.822933 13.141333 6.792533 20.241067 8.840533-2.5088 2.56-4.727467 5.358933-6.6048 8.3968h-0.085334z m0.443734-72.925867c6.4512 8.260267 12.9024 17.408 19.370666 27.409067a57.582933 57.582933 0 0 0-11.451733 7.953067h81.0496c-0.597333 8.260267-0.904533 15.018667-0.887467 20.3264 0 5.290667 0.3072 12.373333 0.887467 21.213866H688.64v-27.392h-130.2528v25.634134h-18.4832c0.580267-8.2432 0.8704-15.3088 0.887467-21.213867a105.403733 105.403733 0 0 0-1.774934-18.568533h80.981334a100.352 100.352 0 0 0-15.837867-24.746667c4.898133-3.242667 9.591467-6.792533 14.062933-10.615467h-0.068266z m17.595733 152.029867c8.192-7.662933 16.110933-20.906667 23.773867-39.765333h-59.767467a380.074667 380.074667 0 0 0-14.967467 24.746666c24.046933 6.485333 41.0624 11.485867 51.029334 15.018667h-0.068267z m-94.378667 59.306667l-0.426666-1.348267a51.643733 51.643733 0 0 0-10.24-17.988267l-2.167467-2.474666 3.259733-0.2048a206.711467 206.711467 0 0 0 51.0976-9.659734 143.1552 143.1552 0 0 0 34.440534-15.684266 511.1296 511.1296 0 0 0-58.487467-16.554667l-2.389333-0.512 1.4336-1.979733c7.3216-9.864533 13.9264-20.241067 19.797333-31.0272h-19.3024c-6.9632 0-16.7424 0.290133-29.8496 0.8704l-1.672533 0.085333v-19.3536l1.7408 0.136533c6.929067 0.597333 16.384 0.887467 28.893866 0.887467h28.091734c7.082667-13.141333 12.8-26.999467 17.032533-41.3184l0.580267-1.979733 1.774933 1.058133c6.212267 3.754667 12.885333 6.656 19.848533 8.6528l2.679467 0.750933-1.962667 1.9456a47.786667 47.786667 0 0 0-6.382933 8.1408c-1.911467 3.0208-5.802667 10.6496-11.554133 22.698667h79.291733c14.336 0 25.514667-0.290133 34.2016-0.8704l1.706667-0.136533v19.370666l-1.6896-0.119466a554.530133 554.530133 0 0 0-33.348267-0.8704h-7.68a164.488533 164.488533 0 0 1-24.832 43.639466 494.779733 494.779733 0 0 1 65.024 31.1296l1.723733 0.9728-1.297066 1.501867c-4.488533 5.205333-8.5504 10.752-12.1856 16.5888l-0.887467 1.399467-1.365333-0.9216a359.424 359.424 0 0 0-66.6112-35.7376c-15.121067 11.264-31.982933 19.968-49.92 25.770666-15.325867 5.239467-30.976 9.540267-46.848 12.868267l-1.501867 0.273067z m-6.212266-19.029334c3.584 4.642133 6.4 9.813333 8.379733 15.3088a398.097067 398.097067 0 0 0 45.056-12.475733 168.0896 168.0896 0 0 0 49.698133-25.838933l0.7168-0.5632 0.853334 0.341333a361.8816 361.8816 0 0 1 66.696533 35.498667c3.1232-4.9152 6.570667-9.6256 10.2912-14.097067a488.1408 488.1408 0 0 0-64.955733-30.754133l-2.0992-0.802134 1.4336-1.723733c11.127467-13.653333 19.950933-29.013333 26.112-45.5168l0.392533-1.024h9.898667c12.032 0 22.7328 0.256 31.863466 0.785067v-12.458667c-8.533333 0.512-19.2512 0.750933-32.733866 0.750933h-84.2752l1.092266-2.304c6.417067-13.499733 10.752-22.016 12.868267-25.361066 1.467733-2.372267 3.140267-4.608 4.983467-6.724267a86.3232 86.3232 0 0 1-16.315734-7.2192c-4.352 14.1312-10.0864 27.784533-17.152 40.789333l-0.4608 0.8192h-30.0032c-11.605333 0-20.5824-0.221867-27.426133-0.733866v12.458666a665.2928 665.2928 0 0 1 28.3136-0.802133h24.610133l-1.160533 2.338133c-5.802667 11.093333-12.424533 21.725867-19.831467 31.829334 20.138667 4.488533 39.9872 10.24 59.426134 17.2032l2.816 1.024-2.4064 1.774933a137.506133 137.506133 0 0 1-37.870934 17.92c-15.803733 5.12-32.170667 8.328533-48.7424 9.557333h-0.068266z m100.9664-38.417066l-0.904534-0.324267c-9.8304-3.498667-26.965333-8.533333-50.926933-15.0016l-1.9968-0.512 1.024-1.809067c4.693333-8.465067 9.693867-16.759467 15.018667-24.866133l0.477866-0.699733h63.095467l-0.904533 2.218666c-7.68 18.9952-15.8208 32.5632-24.149334 40.3456l-0.733866 0.648534z m-48.981334-17.92c22.562133 6.144 38.4 10.752 48.213334 14.199466a111.837867 111.837867 0 0 0 21.76-36.317866h-56.576c-4.6592 7.253333-9.096533 14.626133-13.329067 22.135466l-0.085333-0.017066z m121.634134-57.480534H686.933333V777.216h-126.976v25.634133h-21.794133l0.119467-1.723733c0.580267-8.2432 0.887467-15.36 0.887466-21.0944a104.721067 104.721067 0 0 0-1.757866-18.2784l-0.341334-1.8944h80.349867a96.392533 96.392533 0 0 0-14.472533-22.050133l-1.262934-1.399467 1.536-1.024c4.846933-3.208533 9.489067-6.7072 13.9264-10.478933l1.28-1.092267 1.024 1.314133c6.894933 8.874667 13.380267 18.0736 19.456 27.511467l0.9728 1.536-1.604266 0.8192c-2.679467 1.3824-5.239467 3.0208-7.611734 4.898133h78.165334l-0.136534 1.706667c-0.580267 8.055467-0.887467 14.848-0.887466 20.241067 0 5.358933 0.3072 12.4928 0.887466 21.0944l0.068267 1.655466z m-18.602667-3.208533h15.1552c-0.512-7.936-0.768-14.506667-0.768-19.6096 0-5.102933 0.238933-11.349333 0.750933-18.722133h-164.369066c0.9216 5.614933 1.416533 11.264 1.4336 16.9472 0 5.444267-0.238933 12.014933-0.750934 19.6096h15.1552V773.973333h133.461334v27.409067h-0.085334z m-83.677867-64.375467c5.9904 7.2192 10.990933 15.189333 14.882134 23.739734l0.853333 1.877333 2.781867-2.4064c3.157333-2.781867 6.570667-5.2224 10.1888-7.338667-5.4272-8.362667-11.195733-16.554667-17.288534-24.4736-3.618133 3.072-7.406933 5.973333-11.349333 8.618667h-0.068267z m251.904 5.870934c20.514133 33.006933 51.6096 54.2208 93.2864 63.658666a52.155733 52.155733 0 0 0-10.581333 20.309334 176.059733 176.059733 0 0 1-29.9008-15.018667v14.148267c-6.468267-0.597333-16.725333-0.887467-30.805333-0.887467h-21.128534v35.345067h33.450667c12.322133 0 22.289067-0.290133 29.917867-0.887467v15.9232a412.433067 412.433067 0 0 0-29.917867-0.887467h-33.450667v39.765334h34.304c14.404267 0.136533 28.791467-0.443733 43.127467-1.757867v18.551467a259.549867 259.549867 0 0 0-41.3696-2.645334h-96.682667c-17.6128 0-30.805333 0.290133-39.594666 0.887467v-15.906133c8.789333 0.580267 21.981867 0.8704 39.594666 0.8704h43.127467v-39.748267H817.152c-19.968 0-33.160533 0.290133-39.594667 0.887467v-15.9232c6.434133 0.6144 19.336533 0.904533 38.7072 0.887466h25.531734v-35.345066h-17.6128c-18.193067 0-29.934933 0.290133-35.191467 0.887466v-14.148266c-9.557333 6.826667-19.5584 13.038933-29.917867 18.568533a84.923733 84.923733 0 0 0-12.3392-18.568533c14.097067-3.5328 30.5152-12.373333 49.3056-26.504534a150.852267 150.852267 0 0 0 44.885334-55.688533c7.031467 2.935467 14.370133 5.888 22.016 8.823467l-4.539734 4.4032z m-33.450666 67.1744h52.804266c11.7248 0 20.821333-0.290133 27.2896-0.887467a124.7744 124.7744 0 0 1-56.32-56.558933 193.262933 193.262933 0 0 1-54.562133 56.558933c7.099733 0.631467 17.390933 0.9216 30.890667 0.904533h-0.1024z m113.373866 122.999466l-1.877333-0.3072a258.833067 258.833067 0 0 0-41.079467-2.645333h-96.7168c-17.885867 0-30.805333 0.3072-39.492266 0.887467l-1.706667 0.119466v-19.336533l1.706667 0.119467a652.8 652.8 0 0 0 39.492266 0.8704h41.540267V876.202667h-23.04c-19.746133 0-33.041067 0.3072-39.458133 0.887466l-1.7408 0.170667v-19.456l1.7408 0.1536c6.3488 0.580267 18.944 0.887467 38.570666 0.887467h23.927467V826.709333h-15.991467c-18.005333 0-29.781333 0.290133-35.037866 0.8704l-1.774934 0.187734v-12.731734c-5.7344 4.096-14.967467 9.728-27.528533 16.759467l-1.4848 0.853333-0.750933-1.536a83.182933 83.182933 0 0 0-12.0832-18.2272l-1.757867-1.9968 2.56-0.631466c13.789867-3.4816 30.208-12.288 48.708267-26.248534a149.896533 149.896533 0 0 0 44.407466-55.108266l0.648534-1.365334 1.399466 0.597334c7.287467 3.037867 14.609067 5.973333 21.981867 8.8064l2.304 0.904533-5.239467 5.2736c20.206933 31.8464 50.9952 52.650667 91.579734 61.815467l2.56 0.580266-1.6384 2.048c-4.829867 5.7344-8.328533 12.458667-10.24 19.694934l-0.443734 1.809066-1.706666-0.699733a185.719467 185.719467 0 0 1-27.733334-13.602133v12.987733l-1.7408-0.170667c-6.4512-0.5632-16.759467-0.8704-30.6688-0.8704H861.013333v32.136534h31.8464c12.526933 0 22.272-0.3072 29.7984-0.887467l1.7408-0.136533v19.387733l-1.7408-0.119467a410.743467 410.743467 0 0 0-29.7984-0.887466H861.013333v36.5568h32.7168c14.336 0.136533 28.672-0.4608 42.9568-1.774934l1.774934-0.170666v22.254933h-0.136534z m-139.776-6.161066h96.802134c13.312-0.170667 26.589867 0.6144 39.765333 2.372266v-14.8992c-11.008 1.058133-24.951467 1.604267-41.5232 1.604267h-35.925333v-43.008h35.054933c11.332267 0 20.821333 0.238933 28.330667 0.750933v-12.4416c-7.389867 0.512-16.674133 0.768-28.330667 0.768h-35.054933v-38.570666h22.7328c12.8 0 22.613333 0.221867 29.184 0.733866v-13.824l-4.420267 0.4096c-6.434133 0.597333-15.4112 0.887467-27.426133 0.887467h-52.6848c-13.789867 0-23.893333-0.290133-30.941867-0.887467l-3.549867-0.290133v13.704533c6.007467-0.512 17.288533-0.7168 33.621334-0.7168h19.2v38.570667h-27.136c-18.056533 0-30.2592-0.238933-37.12-0.750933v12.407466c7.0144-0.512 19.780267-0.733867 37.9904-0.733866h26.248533v43.008h-44.714667c-16.384 0-29.166933-0.256-38.007466-0.768v12.458666c8.721067-0.512 21.179733-0.768 38.007466-0.768l-0.1024-0.017066z m-49.0496-114.176c3.925333 4.778667 7.304533 9.9328 10.120534 15.428266a257.348267 257.348267 0 0 0 28.2624-17.6128l2.594133-2.048v1.160534l2.781867-1.860267a192.119467 192.119467 0 0 0 54.101333-56.081067l1.536-2.3552 1.262933 2.5088a123.733333 123.733333 0 0 0 55.620267 55.8592l3.822933 1.9456v-0.836266l2.4576 1.621333c8.874667 5.5808 18.244267 10.325333 27.989334 14.199467 1.877333-6.1952 4.846933-12.014933 8.8064-17.152-40.686933-9.762133-71.5776-31.214933-91.818667-63.778134l-0.682667-1.092266 3.549867-3.584c-6.109867-2.372267-12.288-4.846933-18.346667-7.389867a152.405333 152.405333 0 0 1-44.6976 54.920533 154.709333 154.709333 0 0 1-47.274666 26.180267l-0.085334-0.034133z m49.408-4.846934c6.536533 0.375467 15.138133 0.5632 26.043734 0.5632h52.804266c8.8064 0 15.940267-0.170667 21.623467-0.512a126.208 126.208 0 0 1-50.8416-52.155733 197.205333 197.205333 0 0 1-49.527467 52.138667l-0.1024-0.034134zM839.68 599.04h-66.56s-10.973867 102.4-112.64 102.4-102.4-92.603733-102.4-102.4h-112.64s-19.012267 107.52-117.76 107.52c-76.8 0-107.52-81.186133-107.52-107.52h-40.96s-40.96 7.68-40.96-40.96c0-34.56 16.64-25.6 30.72-25.6v-153.6s-2.56-23.04 20.48-46.08l76.8-76.8a38.4 38.4 0 0 1 30.72-15.36h97.28l5.12-46.08s15.36-46.08 66.56-46.08h61.44l5.12-5.12 46.08-5.12-25.6-25.6 5.12-35.84h15.36l10.24 15.36h15.36l20.48 25.6 10.24-5.12 5.12-20.48 10.24-15.36 15.36 5.12 5.12 15.36 5.12 10.24 51.2-51.2s16.093867-12.1344 15.36 10.24c-0.733867 22.3744-5.12 25.6-5.12 25.6v35.84l5.12-5.12 20.48-5.12s37.307733-4.829867 30.72 15.36c-6.587733 20.189867-10.24 30.72-10.24 30.72a42.496 42.496 0 0 1 30.72-10.24c20.48 0.443733 17.5616-12.1344 40.96 5.12s40.96 26.624 40.96 51.2v343.04s-5.853867 46.08-51.2 46.08z m-506.88 30.72a35.84 35.84 0 1 0 0-71.68 35.84 35.84 0 0 0 0 71.68zM302.08 307.2s-4.386133-2.628267-15.36 15.36-40.96 46.08-40.96 46.08a46.08 46.08 0 0 0-5.12 20.48v35.84h153.6l5.12-112.64-97.28-5.12z m358.4 322.56a35.84 35.84 0 1 0 0-71.68 35.84 35.84 0 0 0 0 71.68z m-15.36-332.8l-76.8 128h158.72l-81.92-128z m-15.36 41.693867c0-6.058667 10.8544-10.973867 17.92-10.973867 7.0656 0 17.92 4.9152 17.92 10.973867l-5.12 39.492266c0 6.058667-10.24 21.213867-10.24 21.213867s-15.36-15.1552-15.36-21.213867l-5.12-39.492266z m30.72 65.826133a5.12 5.12 0 0 1-5.12 5.12h-15.36a5.12 5.12 0 0 1 0-10.24h15.36a5.12 5.12 0 0 1 5.12 5.12z" fill="#FFFF00" /></svg>