<?xml version="1.0" standalone="no"?><!DOCTYPE svg PUBLIC "-//W3C//DTD SVG 1.1//EN" "http://www.w3.org/Graphics/SVG/1.1/DTD/svg11.dtd"><svg class="icon" width="1000px" height="1000.00px" viewBox="0 0 1024 1024" version="1.1" xmlns="http://www.w3.org/2000/svg"><path d="M0 1024V0h1024v1024H0zM992 32H32v960h960V32z" fill="#0000FF" /><path d="M512 834.56c-178.141867 0-322.56-144.418133-322.56-322.56 0-178.141867 144.418133-322.56 322.56-322.56 178.141867 0 322.56 144.418133 322.56 322.56 0 178.141867-144.418133 322.56-322.56 322.56z m0-599.04c-152.695467 0-276.48 123.784533-276.48 276.48S359.304533 788.48 512 788.48 788.48 664.695467 788.48 512 664.695467 235.52 512 235.52z m-5.12 296.96c-31.095467 0-56.32-112.264533-56.32-143.36a56.32 56.32 0 1 1 112.64 0c0 31.095467-25.207467 143.36-56.32 143.36z m0 51.2a51.2 51.2 0 1 1 0 102.4 51.2 51.2 0 0 1 0-102.4z" fill="#0000FF" /></svg>