<svg xmlns="http://www.w3.org/2000/svg" xmlns:xlink="http://www.w3.org/1999/xlink" fill="none" version="1.1" width="142" height="144" viewBox="0 0 142 144"><defs><filter id="master_svg0_0_4053" filterUnits="objectBoundingBox" color-interpolation-filters="sRGB" x="-4" y="-3" width="144" height="144"><feFlood flood-opacity="0" result="BackgroundImageFix"/><feColorMatrix in="SourceAlpha" type="matrix" values="0 0 0 0 0 0 0 0 0 0 0 0 0 0 0 0 0 0 127 0"/><feOffset dy="1" dx="0"/><feGaussianBlur stdDeviation="1"/><feColorMatrix type="matrix" values="0 0 0 0 0.2980392277240753 0 0 0 0 0.5647059082984924 0 0 0 0 0.9411764740943909 0 0 0 1 0"/><feBlend mode="normal" in2="BackgroundImageFix" result="effect1_dropShadow"/><feBlend mode="normal" in="SourceGraphic" in2="effect1_dropShadow" result="shape"/><feGaussianBlur stdDeviation="0" result="effect2_foregroundBlur"/></filter><filter id="master_svg1_0_4054" filterUnits="objectBoundingBox" color-interpolation-filters="sRGB" x="-4" y="-3" width="144" height="144"><feFlood flood-opacity="0" result="BackgroundImageFix"/><feColorMatrix in="SourceAlpha" type="matrix" values="0 0 0 0 0 0 0 0 0 0 0 0 0 0 0 0 0 0 127 0"/><feOffset dy="1" dx="0"/><feGaussianBlur stdDeviation="1"/><feColorMatrix type="matrix" values="0 0 0 0 0.2980392277240753 0 0 0 0 0.5647059082984924 0 0 0 0 0.9411764740943909 0 0 0 1 0"/><feBlend mode="normal" in2="BackgroundImageFix" result="effect1_dropShadow"/><feBlend mode="normal" in="SourceGraphic" in2="effect1_dropShadow" result="shape"/><feGaussianBlur stdDeviation="0" result="effect2_foregroundBlur"/></filter></defs><g><g filter="url(#master_svg0_0_4053)"><ellipse cx="71" cy="72" rx="68" ry="68" fill="#FFFFFF" fill-opacity="0.009999999776482582"/><ellipse cx="71" cy="72" rx="67.5" ry="67.5" fill-opacity="0" stroke-opacity="1" stroke="#4C90F0" fill="none" stroke-width="1"/></g><g transform="matrix(1,0,0,-1,0,280)" filter="url(#master_svg1_0_4054)"><ellipse cx="71" cy="208" rx="68" ry="68" fill="#FFFFFF" fill-opacity="0.009999999776482582"/><ellipse cx="71" cy="208" rx="67.5" ry="67.5" fill-opacity="0" stroke-opacity="1" stroke="#4C90F0" fill="none" stroke-width="1"/></g><g><ellipse cx="71" cy="72" rx="57" ry="57" fill-opacity="0" stroke-opacity="0.8033319115638733" stroke="#16202B" fill="none" stroke-width="20"/></g><g><ellipse cx="71" cy="72" rx="46.5" ry="46.5" fill-opacity="0" stroke-opacity="1" stroke="#37414D" fill="none" stroke-width="1"/></g><g><path d="M39.7069549975586,18.158531256713868L37.717886997558594,14.395393256713866L38.60198299755859,13.928089256713868L40.591054997558594,17.691231256713866L39.7069549975586,18.158531256713868Z" fill-rule="evenodd" fill="#FFFFFF" fill-opacity="1"/></g><g transform="matrix(-1,0,0,1,206.6441192626953,0)"><path d="M104.92898963134766,18.021419887695313L102.87868263134766,14.088129887695313L103.76543663134765,13.625889887695312L105.81574963134766,17.55917988769531L104.92898963134766,18.021419887695313Z" fill-rule="evenodd" fill="#FFFFFF" fill-opacity="1"/></g><g><path d="M17.173844368591308,40.99387630859375L13.42333436859131,38.68500130859375L13.947574368591308,37.83343130859375L17.69808436859131,40.14230630859375L17.173844368591308,40.99387630859375Z" fill-rule="evenodd" fill="#FFFFFF" fill-opacity="1"/></g><g transform="matrix(-1,0,0,1,256.87193298339844,0)"><path d="M131.92435649169923,40.99387630859375L128.1738464916992,38.68500130859375L128.69808649169923,37.83343130859375L132.44859649169922,40.14230630859375L131.92435649169923,40.99387630859375Z" fill-rule="evenodd" fill="#FFFFFF" fill-opacity="1"/></g><g><path d="M17.071097218017577,102.494075453125L13.079692218017579,104.771894453125L12.584042218017577,103.903374453125L16.57544721801758,101.625553453125L17.071097218017577,102.494075453125Z" fill-rule="evenodd" fill="#FFFFFF" fill-opacity="1"/></g><g><path d="M40.04359555175781,125.48201688916015L37.74488255175781,129.61923388916017L36.87074855175781,129.13354388916017L39.16946555175781,124.99633088916016L40.04359555175781,125.48201688916015Z" fill-rule="evenodd" fill="#FFFFFF" fill-opacity="1"/></g><g><path d="M102.7462750649414,125.54063595410156L105.1481890649414,129.06162295410155L104.32208906494141,129.62516295410157L101.92018306494141,126.10416995410156L102.7462750649414,125.54063595410156Z" fill-rule="evenodd" fill="#FFFFFF" fill-opacity="1"/></g><g><path d="M125.7635914765625,102.21954788476563L129.2194384765625,104.16631188476562L128.7286284765625,105.03758188476563L125.2727854765625,103.09081588476562L125.7635914765625,102.21954788476563Z" fill-rule="evenodd" fill="#FFFFFF" fill-opacity="1"/></g><g><path d="M23.499953951358794,71.99999630859375L4.499999951358795,71.99999630859375L4.499999951358795,70.99999930859374L23.499953951358794,70.99999930859374L23.499953951358794,71.99999630859375Z" fill-rule="evenodd" fill="#DD4444" fill-opacity="1"/></g><g transform="matrix(-1,0,0,1,275.7418212890625,0)"><path d="M157.21131064453124,72L137.87091064453125,72L137.87091064453125,71L157.21131064453124,71L157.21131064453124,72Z" fill-rule="evenodd" fill="#DD4444" fill-opacity="1"/></g><g><path d="M75.608,21L73.928,21L67.816,11.512L67.752,11.512Q67.784,11.879999999999999,67.80799999999999,12.384Q67.832,12.888,67.856,13.456Q67.88,14.024,67.88,14.616L67.88,21L66.552,21L66.552,9.576L68.216,9.576L74.312,19.032L74.376,19.032Q74.36,18.776,74.336,18.264Q74.312,17.752000000000002,74.288,17.144Q74.264,16.536,74.264,16.024L74.264,9.576L75.608,9.576L75.608,21Z" fill="#FFFFFF" fill-opacity="1"/></g><g><path d="M73.032,130.944Q73.032,131.968,72.536,132.68Q72.04,133.392,71.12,133.776Q70.2,134.16,68.952,134.16Q68.312,134.16,67.728,134.096Q67.144,134.032,66.664,133.912Q66.184,133.792,65.816,133.61599999999999L65.816,132.24Q66.392,132.496,67.248,132.704Q68.104,132.912,69.016,132.912Q69.864,132.912,70.44,132.688Q71.016,132.464,71.304,132.048Q71.592,131.632,71.592,131.072Q71.592,130.512,71.352,130.128Q71.112,129.744,70.528,129.416Q69.944,129.088,68.904,128.72Q68.168,128.448,67.616,128.136Q67.064,127.824,66.696,127.424Q66.328,127.024,66.144,126.512Q65.96,126,65.96,125.328Q65.96,124.416,66.424,123.768Q66.888,123.12,67.712,122.768Q68.536,122.416,69.608,122.416Q70.55199999999999,122.416,71.336,122.592Q72.12,122.768,72.76,123.056L72.312,124.288Q71.72,124.032,71.024,123.856Q70.328,123.68,69.576,123.68Q68.856,123.68,68.376,123.888Q67.896,124.096,67.656,124.472Q67.416,124.848,67.416,125.344Q67.416,125.92,67.656,126.304Q67.896,126.688,68.44,126.992Q68.984,127.29599999999999,69.912,127.648Q70.92,128.016,71.616,128.44Q72.312,128.864,72.672,129.456Q73.032,130.048,73.032,130.944Z" fill="#FFFFFF" fill-opacity="1"/></g><g transform="matrix(0,-1,1,0,-74.97426927089691,83.63428175449371)"><path d="M19.0020062417984,83.8802755126953L15.9620062417984,95.30427551269531L14.506006241798401,95.30427551269531L12.2820062417984,87.81627551269531Q12.1860062417984,87.48027551269531,12.0900062417984,87.12827551269531Q11.9940062417984,86.7762755126953,11.9140062417984,86.45627551269531Q11.8340062417984,86.1362755126953,11.778006241798401,85.9042755126953Q11.7220062417984,85.67227551269531,11.706006241798402,85.56027551269531Q11.6900062417984,85.67227551269531,11.650006241798401,85.9042755126953Q11.610006241798402,86.1362755126953,11.5300062417984,86.45627551269531Q11.450006241798402,86.7762755126953,11.362006241798401,87.1362755126953Q11.2740062417984,87.49627551269532,11.162006241798402,87.86427551269531L9.002006241798401,95.30427551269531L7.546006241798401,95.30427551269531L4.522006241798401,83.8802755126953L6.026006241798401,83.8802755126953L7.8020062417984,90.8562755126953Q7.8980062417984005,91.22427551269531,7.978006241798401,91.58427551269531Q8.0580062417984,91.94427551269531,8.130006241798402,92.28827551269531Q8.2020062417984,92.63227551269532,8.2500062417984,92.95227551269531Q8.2980062417984,93.27227551269532,8.346006241798401,93.57627551269532Q8.394006241798401,93.25627551269531,8.450006241798402,92.92027551269531Q8.506006241798401,92.58427551269531,8.586006241798401,92.22427551269531Q8.666006241798401,91.86427551269531,8.762006241798401,91.49627551269532Q8.8580062417984,91.12827551269531,8.9540062417984,90.7762755126953L10.970006241798401,83.8802755126953L12.458006241798401,83.8802755126953L14.554006241798401,90.82427551269531Q14.666006241798401,91.19227551269532,14.762006241798401,91.56827551269531Q14.858006241798401,91.94427551269531,14.938006241798401,92.29627551269532Q15.018006241798401,92.6482755126953,15.0740062417984,92.97627551269531Q15.130006241798402,93.30427551269531,15.178006241798402,93.57627551269532Q15.226006241798402,93.17627551269531,15.306006241798402,92.73627551269531Q15.3860062417984,92.29627551269532,15.4980062417984,91.81627551269531Q15.6100062417984,91.33627551269531,15.7380062417984,90.84027551269531L17.4980062417984,83.8802755126953L19.0020062417984,83.8802755126953Z" fill="#FFFFFF" fill-opacity="1"/></g><g transform="matrix(0,1,-1,0,203.51435470581055,-71.84883499145508)"><path d="M145.61759484863282,81.83275985717773L139.2335948486328,81.83275985717773L139.2335948486328,70.40875985717773L145.61759484863282,70.40875985717773L145.61759484863282,71.67275985717774L140.6735948486328,71.67275985717774L140.6735948486328,75.24075985717774L145.3295948486328,75.24075985717774L145.3295948486328,76.48875985717774L140.6735948486328,76.48875985717774L140.6735948486328,80.56875985717774L145.61759484863282,80.56875985717774L145.61759484863282,81.83275985717773Z" fill="#FFFFFF" fill-opacity="1"/></g><g transform="matrix(0.874619722366333,-0.48480960726737976,0.48480960726737976,0.874619722366333,-5.476842682701374,19.720230677451127)"><path d="M40.3178173828125,24.97880485534668Q40.3178173828125,25.458804855346678,40.1378173828125,25.80880485534668Q39.9578173828125,26.15880485534668,39.6228173828125,26.37880485534668Q39.2878173828125,26.59880485534668,38.8378173828125,26.68880485534668L38.8378173828125,26.72880485534668Q39.6978173828125,26.82880485534668,40.117817382812504,27.26880485534668Q40.5378173828125,27.708804855346678,40.5378173828125,28.41880485534668Q40.5378173828125,29.03880485534668,40.2478173828125,29.52380485534668Q39.9578173828125,30.008804855346682,39.3528173828125,30.278804855346678Q38.7478173828125,30.54880485534668,37.7978173828125,30.54880485534668Q37.2378173828125,30.54880485534668,36.7578173828125,30.46380485534668Q36.2778173828125,30.37880485534668,35.8378173828125,30.15880485534668L35.8378173828125,29.33880485534668Q36.2878173828125,29.55880485534668,36.8078173828125,29.68380485534668Q37.3278173828125,29.80880485534668,37.8078173828125,29.80880485534668Q38.7678173828125,29.80880485534668,39.1928173828125,29.43380485534668Q39.617817382812504,29.05880485534668,39.617817382812504,28.39880485534668Q39.617817382812504,27.94880485534668,39.3828173828125,27.67380485534668Q39.1478173828125,27.39880485534668,38.6978173828125,27.26880485534668Q38.2478173828125,27.13880485534668,37.6178173828125,27.13880485534668L36.9278173828125,27.13880485534668L36.9278173828125,26.38880485534668L37.6278173828125,26.38880485534668Q38.2178173828125,26.38880485534668,38.6128173828125,26.21880485534668Q39.0078173828125,26.04880485534668,39.2128173828125,25.74380485534668Q39.4178173828125,25.43880485534668,39.4178173828125,25.03880485534668Q39.4178173828125,24.51880485534668,39.0678173828125,24.23380485534668Q38.7178173828125,23.94880485534668,38.1178173828125,23.94880485534668Q37.7378173828125,23.94880485534668,37.4278173828125,24.02380485534668Q37.1178173828125,24.09880485534668,36.8528173828125,24.23380485534668Q36.5878173828125,24.36880485534668,36.3178173828125,24.54880485534668L35.8778173828125,23.94880485534668Q36.2578173828125,23.64880485534668,36.8228173828125,23.42880485534668Q37.3878173828125,23.208804855346678,38.1078173828125,23.208804855346678Q39.2278173828125,23.208804855346678,39.7728173828125,23.708804855346678Q40.3178173828125,24.208804855346678,40.3178173828125,24.97880485534668ZM46.0378173828125,24.97880485534668Q46.0378173828125,25.458804855346678,45.8578173828125,25.80880485534668Q45.6778173828125,26.15880485534668,45.3428173828125,26.37880485534668Q45.0078173828125,26.59880485534668,44.5578173828125,26.68880485534668L44.5578173828125,26.72880485534668Q45.4178173828125,26.82880485534668,45.8378173828125,27.26880485534668Q46.2578173828125,27.708804855346678,46.2578173828125,28.41880485534668Q46.2578173828125,29.03880485534668,45.9678173828125,29.52380485534668Q45.6778173828125,30.008804855346682,45.0728173828125,30.278804855346678Q44.4678173828125,30.54880485534668,43.5178173828125,30.54880485534668Q42.9578173828125,30.54880485534668,42.4778173828125,30.46380485534668Q41.9978173828125,30.37880485534668,41.5578173828125,30.15880485534668L41.5578173828125,29.33880485534668Q42.0078173828125,29.55880485534668,42.5278173828125,29.68380485534668Q43.0478173828125,29.80880485534668,43.5278173828125,29.80880485534668Q44.4878173828125,29.80880485534668,44.9128173828125,29.43380485534668Q45.3378173828125,29.05880485534668,45.3378173828125,28.39880485534668Q45.3378173828125,27.94880485534668,45.1028173828125,27.67380485534668Q44.867817382812504,27.39880485534668,44.4178173828125,27.26880485534668Q43.9678173828125,27.13880485534668,43.3378173828125,27.13880485534668L42.6478173828125,27.13880485534668L42.6478173828125,26.38880485534668L43.3478173828125,26.38880485534668Q43.9378173828125,26.38880485534668,44.3328173828125,26.21880485534668Q44.7278173828125,26.04880485534668,44.9328173828125,25.74380485534668Q45.1378173828125,25.43880485534668,45.1378173828125,25.03880485534668Q45.1378173828125,24.51880485534668,44.7878173828125,24.23380485534668Q44.4378173828125,23.94880485534668,43.8378173828125,23.94880485534668Q43.4578173828125,23.94880485534668,43.1478173828125,24.02380485534668Q42.8378173828125,24.09880485534668,42.5728173828125,24.23380485534668Q42.3078173828125,24.36880485534668,42.0378173828125,24.54880485534668L41.5978173828125,23.94880485534668Q41.9778173828125,23.64880485534668,42.5428173828125,23.42880485534668Q43.1078173828125,23.208804855346678,43.8278173828125,23.208804855346678Q44.9478173828125,23.208804855346678,45.492817382812504,23.708804855346678Q46.0378173828125,24.208804855346678,46.0378173828125,24.97880485534668Z" fill="#FFFFFF" fill-opacity="1"/></g><g transform="matrix(0.4694715738296509,-0.882947564125061,0.882947564125061,0.4694715738296509,-33.23326088982071,37.30351608031947)"><path d="M19.355107955932617,50.83647659301758Q19.355107955932617,51.316476593017576,19.175107955932617,51.66647659301758Q18.995107955932617,52.01647659301758,18.660107955932617,52.23647659301758Q18.325107955932616,52.45647659301758,17.875107955932616,52.54647659301758L17.875107955932616,52.58647659301758Q18.735107955932616,52.68647659301758,19.155107955932618,53.12647659301758Q19.575107955932616,53.566476593017576,19.575107955932616,54.27647659301758Q19.575107955932616,54.89647659301758,19.285107955932617,55.38147659301758Q18.995107955932617,55.86647659301758,18.390107955932617,56.136476593017576Q17.785107955932617,56.40647659301758,16.835107955932617,56.40647659301758Q16.27510795593262,56.40647659301758,15.795107955932618,56.32147659301758Q15.315107955932618,56.23647659301758,14.875107955932616,56.01647659301758L14.875107955932616,55.19647659301758Q15.325107955932618,55.41647659301758,15.845107955932617,55.54147659301758Q16.36510795593262,55.66647659301758,16.84510795593262,55.66647659301758Q17.805107955932616,55.66647659301758,18.230107955932617,55.29147659301758Q18.655107955932618,54.91647659301758,18.655107955932618,54.25647659301758Q18.655107955932618,53.80647659301758,18.420107955932618,53.53147659301758Q18.185107955932615,53.25647659301758,17.735107955932616,53.12647659301758Q17.285107955932617,52.996476593017576,16.655107955932618,52.996476593017576L15.965107955932616,52.996476593017576L15.965107955932616,52.246476593017576L16.66510795593262,52.246476593017576Q17.255107955932615,52.246476593017576,17.65010795593262,52.076476593017574Q18.045107955932618,51.90647659301758,18.250107955932616,51.60147659301758Q18.45510795593262,51.29647659301758,18.45510795593262,50.89647659301758Q18.45510795593262,50.37647659301758,18.105107955932617,50.091476593017575Q17.755107955932615,49.80647659301758,17.155107955932618,49.80647659301758Q16.77510795593262,49.80647659301758,16.465107955932616,49.88147659301758Q16.155107955932618,49.95647659301758,15.890107955932617,50.091476593017575Q15.625107955932616,50.22647659301758,15.355107955932617,50.40647659301758L14.915107955932617,49.80647659301758Q15.295107955932616,49.50647659301758,15.860107955932618,49.286476593017575Q16.425107955932617,49.066476593017576,17.145107955932616,49.066476593017576Q18.265107955932617,49.066476593017576,18.810107955932615,49.566476593017576Q19.355107955932617,50.066476593017576,19.355107955932617,50.83647659301758ZM25.375107955932616,52.72647659301758Q25.375107955932616,53.59647659301758,25.245107955932617,54.27647659301758Q25.115107955932615,54.95647659301758,24.83010795593262,55.43147659301758Q24.545107955932615,55.90647659301758,24.090107955932616,56.15647659301758Q23.635107955932618,56.40647659301758,22.995107955932617,56.40647659301758Q22.195107955932617,56.40647659301758,21.670107955932618,55.966476593017575Q21.145107955932616,55.52647659301758,20.890107955932617,54.701476593017574Q20.635107955932618,53.87647659301758,20.635107955932618,52.72647659301758Q20.635107955932618,51.566476593017576,20.870107955932617,50.746476593017576Q21.105107955932617,49.926476593017576,21.625107955932616,49.49147659301758Q22.145107955932616,49.05647659301758,22.995107955932617,49.05647659301758Q23.795107955932615,49.05647659301758,24.325107955932616,49.49147659301758Q24.855107955932617,49.926476593017576,25.115107955932615,50.746476593017576Q25.375107955932616,51.566476593017576,25.375107955932616,52.72647659301758ZM21.515107955932617,52.72647659301758Q21.515107955932617,53.70647659301758,21.660107955932617,54.356476593017575Q21.805107955932616,55.00647659301758,22.130107955932615,55.33147659301758Q22.45510795593262,55.65647659301758,22.995107955932617,55.65647659301758Q23.535107955932617,55.65647659301758,23.86010795593262,55.33647659301758Q24.185107955932615,55.01647659301758,24.335107955932617,54.36147659301758Q24.48510795593262,53.70647659301758,24.48510795593262,52.72647659301758Q24.48510795593262,51.746476593017576,24.335107955932617,51.10147659301758Q24.185107955932615,50.45647659301758,23.86010795593262,50.13147659301758Q23.535107955932617,49.80647659301758,22.995107955932617,49.80647659301758Q22.45510795593262,49.80647659301758,22.130107955932615,50.13147659301758Q21.805107955932616,50.45647659301758,21.660107955932617,51.10147659301758Q21.515107955932617,51.746476593017576,21.515107955932617,52.72647659301758Z" fill="#FFFFFF" fill-opacity="1"/></g><g transform="matrix(-0.5150380730628967,-0.8571673035621643,0.8571673035621643,-0.5150380730628967,-60.78155226893796,182.0284140377862)"><path d="M26.302584838867187,118.20848083496094L21.582584838867188,118.20848083496094L21.582584838867188,117.47848083496093L23.45258483886719,115.58848083496093Q23.992584838867188,115.04848083496094,24.362584838867186,114.62848083496094Q24.732584838867187,114.20848083496094,24.922584838867188,113.80348083496094Q25.112584838867186,113.39848083496094,25.112584838867186,112.91848083496093Q25.112584838867186,112.32848083496094,24.762584838867188,112.02348083496094Q24.412584838867186,111.71848083496094,23.852584838867188,111.71848083496094Q23.332584838867188,111.71848083496094,22.93758483886719,111.89848083496094Q22.54258483886719,112.07848083496094,22.13258483886719,112.39848083496094L21.662584838867186,111.80848083496093Q21.942584838867187,111.56848083496094,22.277584838867188,111.37848083496094Q22.61258483886719,111.18848083496094,23.00758483886719,111.07848083496094Q23.402584838867188,110.96848083496094,23.852584838867188,110.96848083496094Q24.52258483886719,110.96848083496094,25.002584838867186,111.19848083496093Q25.482584838867187,111.42848083496094,25.747584838867187,111.85348083496093Q26.012584838867188,112.27848083496093,26.012584838867188,112.86848083496093Q26.012584838867188,113.42848083496094,25.782584838867187,113.91848083496093Q25.552584838867187,114.40848083496094,25.142584838867187,114.88348083496093Q24.732584838867187,115.35848083496094,24.182584838867186,115.89848083496094L22.692584838867187,117.36848083496093L22.692584838867187,117.40848083496094L26.302584838867187,117.40848083496094L26.302584838867187,118.20848083496094ZM32.34258483886719,116.58848083496093L31.302584838867187,116.58848083496093L31.302584838867187,118.20848083496094L30.45258483886719,118.20848083496094L30.45258483886719,116.58848083496093L27.032584838867187,116.58848083496093L27.032584838867187,115.83848083496093L30.392584838867187,111.02848083496093L31.302584838867187,111.02848083496093L31.302584838867187,115.79848083496094L32.34258483886719,115.79848083496094L32.34258483886719,116.58848083496093ZM30.45258483886719,113.54848083496094Q30.45258483886719,113.28848083496094,30.457584838867188,113.07348083496093Q30.462584838867187,112.85848083496094,30.472584838867185,112.66848083496093Q30.48258483886719,112.47848083496093,30.487584838867186,112.30348083496094Q30.492584838867188,112.12848083496094,30.502584838867186,111.96848083496094L30.462584838867187,111.96848083496094Q30.38258483886719,112.15848083496094,30.262584838867188,112.37848083496094Q30.142584838867187,112.59848083496094,30.032584838867187,112.74848083496094L27.892584838867187,115.79848083496094L30.45258483886719,115.79848083496094L30.45258483886719,113.54848083496094Z" fill="#FFFFFF" fill-opacity="1"/></g><g transform="matrix(-0.838670551776886,-0.5446390509605408,0.5446390509605408,-0.838670551776886,10.484976430763254,263.3170641347592)"><path d="M49.441523742675784,140.1056365966797L44.72152374267578,140.1056365966797L44.72152374267578,139.3756365966797L46.59152374267578,137.48563659667968Q47.13152374267578,136.9456365966797,47.50152374267578,136.52563659667967Q47.871523742675784,136.1056365966797,48.06152374267578,135.7006365966797Q48.25152374267578,135.29563659667969,48.25152374267578,134.8156365966797Q48.25152374267578,134.2256365966797,47.90152374267578,133.92063659667969Q47.55152374267578,133.61563659667968,46.99152374267578,133.61563659667968Q46.47152374267578,133.61563659667968,46.07652374267578,133.79563659667969Q45.68152374267578,133.9756365966797,45.27152374267578,134.29563659667969L44.80152374267578,133.70563659667968Q45.081523742675785,133.4656365966797,45.41652374267578,133.27563659667967Q45.75152374267578,133.08563659667968,46.14652374267578,132.9756365966797Q46.54152374267578,132.86563659667968,46.99152374267578,132.86563659667968Q47.66152374267578,132.86563659667968,48.14152374267578,133.0956365966797Q48.621523742675784,133.3256365966797,48.88652374267578,133.7506365966797Q49.15152374267578,134.17563659667968,49.15152374267578,134.76563659667968Q49.15152374267578,135.3256365966797,48.92152374267578,135.8156365966797Q48.691523742675784,136.30563659667968,48.28152374267578,136.7806365966797Q47.871523742675784,137.2556365966797,47.32152374267578,137.79563659667969L45.831523742675785,139.26563659667968L45.831523742675785,139.30563659667968L49.441523742675784,139.30563659667968L49.441523742675784,140.1056365966797ZM53.51152374267578,140.1056365966797L52.65152374267578,140.1056365966797L52.65152374267578,135.11563659667968Q52.65152374267578,134.8256365966797,52.65652374267578,134.6256365966797Q52.66152374267578,134.42563659667968,52.67152374267578,134.2506365966797Q52.68152374267578,134.0756365966797,52.691523742675784,133.8856365966797Q52.53152374267578,134.04563659667969,52.40152374267578,134.1556365966797Q52.27152374267578,134.26563659667968,52.07152374267578,134.4356365966797L51.31152374267578,135.05563659667968L50.85152374267578,134.4656365966797L52.78152374267578,132.9656365966797L53.51152374267578,132.9656365966797L53.51152374267578,140.1056365966797Z" fill="#FFFFFF" fill-opacity="1"/></g><g transform="matrix(-0.8571673035621643,0.5150380730628967,-0.5150380730628967,-0.8571673035621643,261.203877625519,173.45486648343785)"><path d="M110.10029296875,132.9465560913086L109.24029296875,132.9465560913086L109.24029296875,127.9565560913086Q109.24029296875,127.66655609130859,109.24529296875,127.46655609130859Q109.25029296875,127.26655609130859,109.26029296875,127.09155609130859Q109.27029296875,126.91655609130859,109.28029296875,126.7265560913086Q109.12029296875,126.88655609130859,108.99029296875,126.99655609130859Q108.86029296875,127.10655609130859,108.66029296875,127.27655609130859L107.90029296875,127.8965560913086L107.44029296875,127.3065560913086L109.37029296875,125.8065560913086L110.10029296875,125.8065560913086L110.10029296875,132.9465560913086ZM115.02029296875,128.5665560913086Q115.75029296875,128.5665560913086,116.29029296875,128.8165560913086Q116.83029296875,129.0665560913086,117.12529296875,129.5315560913086Q117.42029296875,129.9965560913086,117.42029296875,130.6665560913086Q117.42029296875,131.4065560913086,117.10029296875,131.9415560913086Q116.78029296875,132.4765560913086,116.18529296875,132.7615560913086Q115.59029296874999,133.0465560913086,114.75029296875,133.0465560913086Q114.20029296875,133.0465560913086,113.71529296875,132.9465560913086Q113.23029296875,132.8465560913086,112.90029296875,132.6565560913086L112.90029296875,131.8265560913086Q113.26029296875,132.0465560913086,113.77529296875,132.1715560913086Q114.29029296875,132.2965560913086,114.76029296875001,132.2965560913086Q115.29029296875,132.2965560913086,115.68529296875,132.1315560913086Q116.08029296875,131.9665560913086,116.30029296875,131.6215560913086Q116.52029296875,131.2765560913086,116.52029296875,130.7565560913086Q116.52029296875,130.0565560913086,116.09029296874999,129.6815560913086Q115.66029296875,129.3065560913086,114.73029296875,129.3065560913086Q114.45029296875,129.3065560913086,114.09029296875,129.3565560913086Q113.73029296875,129.4065560913086,113.51029296875,129.45655609130858L113.07029296875,129.17655609130858L113.34029296875,125.8065560913086L116.92029296875,125.8065560913086L116.92029296875,126.60655609130859L114.09029296875,126.60655609130859L113.92029296875,128.67655609130858Q114.09029296875,128.64655609130858,114.38029296875,128.6065560913086Q114.67029296875,128.5665560913086,115.02029296875,128.5665560913086Z" fill="#FFFFFF" fill-opacity="1"/></g><g transform="matrix(-0.5,0.8660253882408142,-0.8660253882408142,-0.5,278.41312135838143,37.194176220374175)"><path d="M132.0195281982422,108.96803283691406L131.15952819824219,108.96803283691406L131.15952819824219,103.97803283691407Q131.15952819824219,103.68803283691406,131.16452819824218,103.48803283691406Q131.16952819824218,103.28803283691406,131.1795281982422,103.11303283691406Q131.1895281982422,102.93803283691406,131.19952819824218,102.74803283691406Q131.03952819824218,102.90803283691406,130.90952819824219,103.01803283691406Q130.7795281982422,103.12803283691406,130.5795281982422,103.29803283691406L129.81952819824218,103.91803283691407L129.35952819824217,103.32803283691406L131.28952819824218,101.82803283691406L132.0195281982422,101.82803283691406L132.0195281982422,108.96803283691406ZM139.38952819824217,108.96803283691406L134.66952819824218,108.96803283691406L134.66952819824218,108.23803283691406L136.53952819824218,106.34803283691406Q137.0795281982422,105.80803283691407,137.44952819824218,105.38803283691406Q137.81952819824218,104.96803283691406,138.00952819824218,104.56303283691406Q138.19952819824218,104.15803283691406,138.19952819824218,103.67803283691406Q138.19952819824218,103.08803283691407,137.84952819824218,102.78303283691406Q137.4995281982422,102.47803283691407,136.9395281982422,102.47803283691407Q136.41952819824218,102.47803283691407,136.0245281982422,102.65803283691406Q135.62952819824218,102.83803283691407,135.2195281982422,103.15803283691406L134.7495281982422,102.56803283691406Q135.0295281982422,102.32803283691406,135.3645281982422,102.13803283691406Q135.69952819824218,101.94803283691407,136.0945281982422,101.83803283691407Q136.4895281982422,101.72803283691407,136.9395281982422,101.72803283691407Q137.60952819824217,101.72803283691407,138.0895281982422,101.95803283691406Q138.56952819824218,102.18803283691406,138.8345281982422,102.61303283691406Q139.09952819824218,103.03803283691406,139.09952819824218,103.62803283691406Q139.09952819824218,104.18803283691406,138.8695281982422,104.67803283691406Q138.63952819824217,105.16803283691407,138.22952819824218,105.64303283691406Q137.81952819824218,106.11803283691407,137.2695281982422,106.65803283691406L135.7795281982422,108.12803283691406L135.7795281982422,108.16803283691407L139.38952819824217,108.16803283691407L139.38952819824217,108.96803283691406Z" fill="#FFFFFF" fill-opacity="1"/></g><g transform="matrix(0.5,0.8660253882408142,-0.8660253882408142,0.5,95.02586043110591,-88.04671732079714)"><path d="M124.31362609863281,45.22145004272461Q124.31362609863281,44.60145004272461,124.39862609863282,44.00145004272461Q124.48362609863281,43.40145004272461,124.69362609863282,42.86645004272461Q124.90362609863281,42.33145004272461,125.27362609863282,41.91645004272461Q125.64362609863281,41.501450042724606,126.2086260986328,41.26645004272461Q126.77362609863282,41.03145004272461,127.5836260986328,41.03145004272461Q127.79362609863281,41.03145004272461,128.0486260986328,41.05145004272461Q128.3036260986328,41.07145004272461,128.4636260986328,41.12145004272461L128.4636260986328,41.87145004272461Q128.28362609863282,41.81145004272461,128.0586260986328,41.78145004272461Q127.8336260986328,41.751450042724606,127.60362609863282,41.751450042724606Q126.91362609863282,41.751450042724606,126.45362609863281,41.98145004272461Q125.99362609863282,42.21145004272461,125.72862609863282,42.61145004272461Q125.46362609863282,43.01145004272461,125.34362609863281,43.53145004272461Q125.2236260986328,44.05145004272461,125.19362609863282,44.64145004272461L125.25362609863281,44.64145004272461Q125.40362609863281,44.40145004272461,125.63362609863282,44.21145004272461Q125.8636260986328,44.02145004272461,126.18862609863281,43.91145004272461Q126.51362609863281,43.80145004272461,126.94362609863282,43.80145004272461Q127.56362609863281,43.80145004272461,128.0286260986328,44.056450042724606Q128.4936260986328,44.31145004272461,128.75362609863282,44.79645004272461Q129.0136260986328,45.28145004272461,129.0136260986328,45.97145004272461Q129.0136260986328,46.71145004272461,128.7336260986328,47.25145004272461Q128.4536260986328,47.791450042724605,127.94862609863281,48.08145004272461Q127.44362609863282,48.37145004272461,126.74362609863282,48.37145004272461Q126.23362609863281,48.37145004272461,125.79362609863281,48.181450042724606Q125.35362609863282,47.99145004272461,125.01862609863281,47.60145004272461Q124.68362609863281,47.21145004272461,124.49862609863281,46.61645004272461Q124.31362609863281,46.02145004272461,124.31362609863281,45.22145004272461ZM126.73362609863281,47.63145004272461Q127.3636260986328,47.63145004272461,127.75362609863281,47.22645004272461Q128.1436260986328,46.82145004272461,128.1436260986328,45.97145004272461Q128.1436260986328,45.291450042724605,127.79862609863281,44.89145004272461Q127.45362609863281,44.49145004272461,126.76362609863281,44.49145004272461Q126.29362609863281,44.49145004272461,125.94362609863282,44.68645004272461Q125.59362609863281,44.88145004272461,125.39862609863282,45.181450042724606Q125.20362609863281,45.48145004272461,125.20362609863281,45.80145004272461Q125.20362609863281,46.13145004272461,125.29862609863281,46.45145004272461Q125.39362609863281,46.77145004272461,125.58862609863282,47.041450042724605Q125.78362609863281,47.31145004272461,126.06862609863282,47.47145004272461Q126.35362609863282,47.63145004272461,126.73362609863281,47.63145004272461Z" fill="#FFFFFF" fill-opacity="1"/></g><g transform="matrix(0.8480480909347534,0.5299192667007446,-0.5299192667007446,0.8480480909347534,23.575928975492957,-50.31975480794415)"><path d="M104.4608837890625,20.479639320373536Q104.4608837890625,20.959639320373533,104.2808837890625,21.309639320373535Q104.1008837890625,21.659639320373536,103.7658837890625,21.879639320373535Q103.4308837890625,22.099639320373534,102.9808837890625,22.189639320373537L102.9808837890625,22.229639320373536Q103.8408837890625,22.329639320373534,104.2608837890625,22.769639320373535Q104.6808837890625,23.209639320373533,104.6808837890625,23.919639320373534Q104.6808837890625,24.539639320373535,104.3908837890625,25.024639320373534Q104.1008837890625,25.509639320373537,103.4958837890625,25.779639320373533Q102.8908837890625,26.049639320373537,101.9408837890625,26.049639320373537Q101.3808837890625,26.049639320373537,100.9008837890625,25.964639320373536Q100.4208837890625,25.879639320373535,99.9808837890625,25.659639320373536L99.9808837890625,24.839639320373536Q100.4308837890625,25.059639320373535,100.9508837890625,25.184639320373535Q101.4708837890625,25.309639320373535,101.9508837890625,25.309639320373535Q102.9108837890625,25.309639320373535,103.3358837890625,24.934639320373535Q103.7608837890625,24.559639320373535,103.7608837890625,23.899639320373534Q103.7608837890625,23.449639320373535,103.5258837890625,23.174639320373537Q103.2908837890625,22.899639320373534,102.8408837890625,22.769639320373535Q102.3908837890625,22.639639320373536,101.7608837890625,22.639639320373536L101.0708837890625,22.639639320373536L101.0708837890625,21.889639320373536L101.7708837890625,21.889639320373536Q102.3608837890625,21.889639320373536,102.7558837890625,21.719639320373535Q103.1508837890625,21.549639320373537,103.3558837890625,21.244639320373537Q103.5608837890625,20.939639320373537,103.5608837890625,20.539639320373535Q103.5608837890625,20.019639320373535,103.2108837890625,19.734639320373535Q102.8608837890625,19.449639320373535,102.2608837890625,19.449639320373535Q101.8808837890625,19.449639320373535,101.5708837890625,19.524639320373534Q101.2608837890625,19.599639320373534,100.9958837890625,19.734639320373535Q100.7308837890625,19.869639320373537,100.4608837890625,20.049639320373537L100.0208837890625,19.449639320373535Q100.4008837890625,19.149639320373534,100.9658837890625,18.929639320373536Q101.5308837890625,18.709639320373533,102.2508837890625,18.709639320373533Q103.3708837890625,18.709639320373533,103.9158837890625,19.209639320373533Q104.4608837890625,19.709639320373533,104.4608837890625,20.479639320373536Z" fill="#FFFFFF" fill-opacity="1"/></g><g><path d="M71,9.427115440368652L66,13.694045440368653L66,24.427115440368652L76,24.427115440368652L76,13.694045440368653L71,9.427115440368652Z" fill-rule="evenodd" fill="#4C90F0" fill-opacity="1"/></g></g></svg>