<svg xmlns="http://www.w3.org/2000/svg" xmlns:xlink="http://www.w3.org/1999/xlink" fill="none" version="1.1" width="18" height="18" viewBox="0 0 18 18"><g><g><path d="M9,18Q9.22094,18,9.44161,17.9892Q9.66228,17.9783,9.88215,17.9567Q10.102,17.935,10.3206,17.9026Q10.5391,17.8702,10.7558,17.8271Q10.9725,17.784,11.1868,17.7303Q11.4011,17.6766,11.6126,17.6125Q11.824,17.5483,12.032,17.4739Q12.24,17.3995,12.4441,17.3149Q12.6483,17.2304,12.848,17.1359Q13.0477,17.0414,13.2426,16.9373Q13.4374,16.8331,13.6269,16.7196Q13.8164,16.606,14.0001,16.4832Q14.1838,16.3605,14.3613,16.2289Q14.5388,16.0973,14.7095,15.9571Q14.8803,15.8169,15.044,15.6686Q15.2077,15.5202,15.364,15.364Q15.5202,15.2077,15.6686,15.044Q15.8169,14.8803,15.9571,14.7095Q16.0973,14.5388,16.2289,14.3613Q16.3605,14.1838,16.4832,14.0001Q16.606,13.8164,16.7196,13.6269Q16.8331,13.4374,16.9373,13.2426Q17.0414,13.0477,17.1359,12.848Q17.2304,12.6483,17.3149,12.4441Q17.3995,12.24,17.4739,12.032Q17.5483,11.824,17.6125,11.6126Q17.6766,11.4011,17.7303,11.1868Q17.784,10.9725,17.8271,10.7558Q17.8702,10.5391,17.9026,10.3206Q17.935,10.102,17.9567,9.88215Q17.9783,9.66228,17.9892,9.44161Q18,9.22094,18,9Q18,8.77906,17.9892,8.55839Q17.9783,8.33772,17.9567,8.11785Q17.935,7.89797,17.9026,7.67943Q17.8702,7.46088,17.8271,7.24419Q17.784,7.02749,17.7303,6.81318Q17.6766,6.59886,17.6125,6.38744Q17.5483,6.17601,17.4739,5.96799Q17.3995,5.75997,17.3149,5.55585Q17.2304,5.35173,17.1359,5.152Q17.0414,4.95228,16.9373,4.75743Q16.8331,4.56258,16.7196,4.37308Q16.606,4.18357,16.4832,3.99987Q16.3605,3.81616,16.2289,3.63871Q16.0973,3.46125,15.9571,3.29046Q15.8169,3.11967,15.6686,2.95597Q15.5202,2.79227,15.364,2.63604Q15.2077,2.47981,15.044,2.33144Q14.8803,2.18307,14.7095,2.04291Q14.5388,1.90274,14.3613,1.77113Q14.1838,1.63952,14.0001,1.51677Q13.8164,1.39403,13.6269,1.28044Q13.4374,1.16686,13.2426,1.06271Q13.0477,0.958559,12.848,0.864096Q12.6483,0.769633,12.4441,0.685084Q12.24,0.600535,12.032,0.526103Q11.824,0.451672,11.6126,0.387537Q11.4011,0.323402,11.1868,0.269719Q10.9725,0.216035,10.7558,0.172932Q10.5391,0.12983,10.3206,0.0974114Q10.102,0.0649931,9.88215,0.0433375Q9.66228,0.0216818,9.44161,0.0108409Q9.22094,0,9,0Q8.77906,0,8.55839,0.0108409Q8.33772,0.0216818,8.11785,0.0433375Q7.89797,0.0649931,7.67943,0.0974114Q7.46088,0.12983,7.24419,0.172932Q7.02749,0.216035,6.81318,0.269719Q6.59886,0.323402,6.38744,0.387537Q6.17601,0.451672,5.96799,0.526103Q5.75997,0.600535,5.55585,0.685084Q5.35173,0.769633,5.152,0.864096Q4.95228,0.958559,4.75743,1.06271Q4.56258,1.16686,4.37308,1.28044Q4.18357,1.39403,3.99987,1.51677Q3.81616,1.63952,3.63871,1.77113Q3.46125,1.90274,3.29046,2.04291Q3.11967,2.18307,2.95597,2.33144Q2.79227,2.47981,2.63604,2.63604Q2.47981,2.79227,2.33144,2.95597Q2.18307,3.11967,2.04291,3.29046Q1.90274,3.46125,1.77113,3.63871Q1.63952,3.81616,1.51677,3.99987Q1.39403,4.18357,1.28044,4.37308Q1.16686,4.56258,1.06271,4.75743Q0.958559,4.95228,0.864096,5.152Q0.769633,5.35173,0.685084,5.55585Q0.600535,5.75997,0.526103,5.96799Q0.451672,6.17601,0.387537,6.38744Q0.323402,6.59886,0.269719,6.81318Q0.216035,7.02749,0.172932,7.24419Q0.12983,7.46088,0.0974114,7.67943Q0.0649931,7.89797,0.0433375,8.11785Q0.0216818,8.33772,0.0108409,8.55839Q0,8.77906,0,9Q0,9.22094,0.0108409,9.44161Q0.0216818,9.66228,0.0433375,9.88215Q0.0649931,10.102,0.0974114,10.3206Q0.12983,10.5391,0.172932,10.7558Q0.216035,10.9725,0.269719,11.1868Q0.323402,11.4011,0.387537,11.6126Q0.451672,11.824,0.526103,12.032Q0.600535,12.24,0.685084,12.4441Q0.769633,12.6483,0.864096,12.848Q0.958559,13.0477,1.06271,13.2426Q1.16686,13.4374,1.28044,13.6269Q1.39403,13.8164,1.51677,14.0001Q1.63952,14.1838,1.77113,14.3613Q1.90274,14.5388,2.04291,14.7095Q2.18307,14.8803,2.33144,15.044Q2.47981,15.2077,2.63604,15.364Q2.79227,15.5202,2.95597,15.6686Q3.11967,15.8169,3.29046,15.9571Q3.46125,16.0973,3.63871,16.2289Q3.81616,16.3605,3.99987,16.4832Q4.18357,16.606,4.37308,16.7196Q4.56258,16.8331,4.75743,16.9373Q4.95228,17.0414,5.152,17.1359Q5.35173,17.2304,5.55585,17.3149Q5.75997,17.3995,5.96799,17.4739Q6.17601,17.5483,6.38744,17.6125Q6.59886,17.6766,6.81318,17.7303Q7.02749,17.784,7.24419,17.8271Q7.46088,17.8702,7.67943,17.9026Q7.89797,17.935,8.11785,17.9567Q8.33772,17.9783,8.55839,17.9892Q8.77906,18,9,18ZM8.74747,12.0472L13.2559,7.53881C13.4179,7.37683,13.5259,7.15186,13.5259,6.89989C13.5259,6.40495,13.1209,6,12.626,6C12.374,6,12.149,6.09899,11.9871,6.26097L8.10855,10.1305L6.03881,8.06074C5.87683,7.89876,5.65186,7.79978,5.39989,7.79978C4.90495,7.79978,4.5,8.20472,4.5,8.69966C4.5,8.95163,4.59899,9.1766,4.76097,9.33858L7.46963,12.0472C7.63161,12.2092,7.85658,12.3082,8.10855,12.3082C8.36052,12.3082,8.58549,12.2092,8.74747,12.0472Z" fill-rule="evenodd" fill="#ffffff" fill-opacity="1"/></g></g></svg>