<?xml version="1.0" encoding="UTF-8"?>
<svg width="50px" height="50px" viewBox="0 0 50 50" version="1.1" xmlns="http://www.w3.org/2000/svg" xmlns:xlink="http://www.w3.org/1999/xlink">
    <title>jiankong</title>
    <g id="jiankong" stroke="none" stroke-width="1" fill="none" fill-rule="evenodd">
        <g id="-s-renkou备份-3" transform="translate(7.000000, 0.000000)" fill-rule="nonzero">
            <path d="M29.2411005,32.8810971 C29.1747222,32.9310331 29.106517,32.9785332 29.0389207,33.0272511 C19.3464709,39.8770046 18.36054,47.8740674 18.2765014,50 C18.2765014,49.9780769 18.2765014,49.9598076 18.2722386,49.9391024 C17.6906672,41.3026157 10.7258175,35.3845943 8.21135866,33.5199121 C1.60455138,29.162079 -1.44487898,21.045697 0.657892539,13.4155618 C2.76066406,5.78542655 9.537364,0.37700534 17.4438385,0.0188543663 C25.3503131,-0.339296607 32.5882418,4.43428377 35.3722524,11.8430554 C38.1562629,19.251827 35.8531347,27.6106716 29.6673832,32.5479877 C29.5313248,32.6665391 29.3890276,32.7777342 29.2411005,32.8810971 Z" id="形状" fill="#3FD5CE"></path>
            <path d="M18.2746744,0.00190070275 C26.0377432,0.000173243075 32.9538029,4.90559455 35.5186536,12.2327209 C38.0835043,19.5598473 35.7367295,27.7077113 29.6673832,32.5479877 C29.5313248,32.6665391 29.3890276,32.7777342 29.2411005,32.8810971 C29.1747222,32.9310331 29.106517,32.9785332 29.0389207,33.0272511 C28.4171511,33.4669488 27.8104664,33.9275986 27.2199117,34.408407 L5.53673946,5.17820464 C8.94283979,1.85403043 13.5153029,-0.00407236218 18.2746744,0.00190070275 Z" id="路径" fill="#3FD5CE"></path>
            <g id="bukonggaojing" transform="translate(7.960859, 10.068146)" fill="#FFFFFF">
                <path d="M20.7359748,8.73488857 L5.05671883,0.110219559 C4.9408018,0.011225817 4.77960258,-0.0241306544 4.62988038,0.0165993735 C4.48015818,0.0573294013 4.3629089,0.168434261 4.31941672,0.310793257 L1.37020829,5.124562 C1.29778837,5.24371479 1.27932078,5.38576933 1.31904197,5.51813851 C1.35876316,5.65050769 1.45326397,5.76183061 1.58086604,5.82656995 L14.4225622,12.8466494 C14.6200304,12.9470254 14.8570672,12.9470254 15.0545354,12.8466494 L20.8476234,9.63747021 C21.16361,9.53718336 21.16361,9.03574911 20.7422945,8.73488857 L20.7359748,8.73488857 Z M20.7359748,8.73488857 L18.4187396,12.5457888 L15.2588734,14.3509521 C15.0997405,14.4531748 14.891362,14.4531748 14.7322291,14.3509521 L2.1075104,7.43115953 C1.91935849,7.32367241 1.68527225,7.31992304 1.49342969,7.42132378 C1.30158714,7.52272451 1.18113372,7.71387016 1.17744307,7.92275802 C1.17375243,8.13164588 1.28738525,8.3265409 1.47553716,8.43402802 L6.84730967,11.3423466 L5.47803432,13.6489442 C5.21922221,13.8815081 4.88480895,14.0230215 4.53007447,14.0500916 L2.1075104,14.0500916 L2.1075104,12.5457888 C2.1162269,12.4104261 2.06354653,12.2780052 1.96282965,12.1821096 C1.86211278,12.0862139 1.72303424,12.0360553 1.58086604,12.0443546 L0.527577308,12.0443546 C0.385409101,12.0360553 0.246330561,12.0862139 0.145613689,12.1821096 C0.0448968174,12.2780052 -0.00778355756,12.4104261 0.000932945148,12.5457888 L0.000932945148,17.5601313 C-0.00778355756,17.695494 0.0448968174,17.8279149 0.145613689,17.9238105 C0.246330561,18.0197062 0.385409101,18.0698648 0.527577308,18.0615655 L1.58086604,18.0615655 C1.72303424,18.0698648 1.86211278,18.0197062 1.96282965,17.9238105 C2.06354653,17.8279149 2.1162269,17.695494 2.1075104,17.5601313 L2.1075104,16.0558285 L5.16204771,16.0558285 C5.90666601,16.058638 6.59343646,15.6739938 6.95263854,15.05296 L8.6379005,12.3452151 L14.5363174,15.5543943 C14.8938382,15.7548248 15.3374142,15.7548248 15.694935,15.5543943 C16.7482237,14.9526732 18.96013,13.5486573 18.96013,13.5486573 C19.2311549,13.3689915 19.321128,13.026327 19.1707878,12.7463625 C19.0071926,12.5200014 18.6979866,12.4358858 18.4334857,12.5457888 L20.7359748,8.73488857 Z" id="形状"></path>
            </g>
        </g>
    </g>
</svg>