<?xml version="1.0" encoding="UTF-8"?>
<svg width="50px" height="50px" viewBox="0 0 50 50" version="1.1" xmlns="http://www.w3.org/2000/svg" xmlns:xlink="http://www.w3.org/1999/xlink">
    <title>狗</title>
    <g id="狗" stroke="none" stroke-width="1" fill="none" fill-rule="evenodd">
        <g id="-s-renkou备份-2" transform="translate(7.000000, 0.000000)">
            <path d="M29.2411005,32.8810971 C29.1747222,32.9310331 29.106517,32.9785332 29.0389207,33.0272511 C19.3464709,39.8770046 18.36054,47.8740674 18.2765014,50 C18.2765014,49.9780769 18.2765014,49.9598076 18.2722386,49.9391024 C17.6906672,41.3026157 10.7258175,35.3845943 8.21135866,33.5199121 C1.60455138,29.162079 -1.44487898,21.045697 0.657892539,13.4155618 C2.76066406,5.78542655 9.537364,0.37700534 17.4438385,0.0188543663 C25.3503131,-0.339296607 32.5882418,4.43428377 35.3722524,11.8430554 C38.1562629,19.251827 35.8531347,27.6106716 29.6673832,32.5479877 C29.5313248,32.6665391 29.3890276,32.7777342 29.2411005,32.8810971 Z" id="形状" fill="#2980F1" fill-rule="nonzero"></path>
            <path d="M18.2746744,0.00190070275 C26.0377432,0.000173243075 32.9538029,4.90559455 35.5186536,12.2327209 C38.0835043,19.5598473 35.7367295,27.7077113 29.6673832,32.5479877 C29.5313248,32.6665391 29.3890276,32.7777342 29.2411005,32.8810971 C29.1747222,32.9310331 29.106517,32.9785332 29.0389207,33.0272511 C28.4171511,33.4669488 27.8104664,33.9275986 27.2199117,34.408407 L5.53673946,5.17820464 C8.94283979,1.85403043 13.5153029,-0.00407236218 18.2746744,0.00190070275 Z" id="路径" fill="#2980F1" fill-rule="nonzero"></path>
            <g id="编组" transform="translate(10.536431, 8.429145)">
                <path d="M16.8570848,5.2348606 C17.0243469,6.06291204 17.6074666,7.94661644 17.6074666,8.00064521 C17.6074666,8.05467399 17.6766402,8.45905845 18.0479757,8.94428607 C18.4193112,9.42951369 18.3238279,11.1739696 18.1246788,10.7496366 C17.9919127,10.466748 17.7129844,10.4413003 17.2878938,10.6732935 C17.255649,9.85175202 17.1691515,9.28550119 17.0284013,8.97454099 C16.8172759,8.5081007 16.4990421,6.89416326 15.6529573,6.96876826 C14.8068724,7.04337326 14.8622243,4.58651123 15.6529573,4.55046063 C16.3442009,4.45469298 16.7455767,4.68282631 16.8570848,5.2348606 Z" id="路径-2" fill="#FFFFFF"></path>
                <path d="M17.2948729,10.7722718 C17.1545146,10.9080462 17.0599419,11.1070147 17.0111546,11.3691773 C16.9379738,11.7624212 16.1635932,14.5230997 16.0149706,14.6716909 C15.8663481,14.8202822 15.4327695,16.0736474 15.4327695,16.1713121 C15.4327695,16.2231798 15.2890785,16.6510329 15.8432062,16.7802202 C16.399563,16.9099272 16.5399388,16.4633182 16.5673313,16.1713121 C16.6062754,15.7561659 16.6257474,15.3154404 16.6257474,14.8491358 C17.1701994,13.2168614 17.487798,12.3467601 17.5785432,12.2388318 C17.7146609,12.0769394 17.9023239,11.5103037 17.9807644,11.2302606 C18.0330581,11.0435652 18.0330581,10.9053302 17.9807644,10.8155557 C17.9815203,10.7811778 17.9057808,10.7388645 17.7535458,10.6886159 C17.6013108,10.6383674 17.4484198,10.6662527 17.2948729,10.7722718 Z" id="路径-3" fill="#FFFFFF"></path>
                <path d="M8.98352592,5.74027994 C9.2950834,6.71019586 9.62452475,7.48928502 9.97184998,8.07754742 C10.7717356,9.70379006 11.3714216,10.8457348 11.770908,11.5033818 C12.1859438,12.1866265 11.6823724,13.2574281 11.4552238,12.9366469 C11.2244532,12.6107507 10.8682259,12.4946516 10.3865419,12.5883494 C10.1100806,11.2190373 9.71710541,10.2037789 9.20761627,9.54257439 C8.44338256,8.55076759 8.60963559,8.34177177 7.01063937,7.90450438 C5.41164315,7.467237 6.13181387,4.79992604 6.88991786,4.65118517 C7.97409909,4.40733244 8.67196845,4.77036403 8.98352592,5.74027994 Z" id="路径" fill="#FFFFFF"></path>
                <path d="M8.76084056,4.93228324 C9.19808606,5.43666666 9.20739625,5.97966549 9.40835811,6.49745979 C9.58710651,6.9580193 9.73383447,7.27217299 9.95712583,7.72916762 L14.2836373,7.19186712 C14.6315147,5.78999184 14.5414546,4.90085999 14.0134567,4.52447159 L8.16938993,4.62939774 C8.41503989,4.65984605 8.6121901,4.76080788 8.76084056,4.93228324 Z" id="路径-2" fill="#FFFFFF"></path>
                <path d="M11.620365,8.36042798 C11.6038468,8.34761777 11.5214176,8.03889807 11.5164884,8.01991482 C11.4447276,7.74443718 10.9557621,7.60912217 11.2417244,7.33434232 C11.2467722,7.32949198 11.6156954,7.49278769 11.620365,7.48759482 C11.8150178,7.27102798 12.0697654,7.15178685 12.3376228,7.15178685 C12.6111436,7.15178685 12.8081295,9.2932711 12.3810901,9.65314577 C12.2805297,9.73789005 12.221524,8.45316174 12.0417598,8.36604524 C11.8852591,8.29020256 11.6802561,8.40695741 11.620365,8.36042798 Z" id="路径" fill="#FFFFFF" fill-rule="nonzero"></path>
                <path d="M14.2836373,4.57769816 C14.6963876,5.31728652 14.7485863,6.09695959 14.4402336,6.91671739 L15.1149957,6.91671739 C14.8549793,5.70361004 14.9257372,4.92393697 15.3272696,4.57769816 L14.2836373,4.57769816 Z" id="路径-3" fill="#FFFFFF"></path>
                <path d="M6.53148566,7.91849085 L4.71808418,7.83101641 C4.75932886,6.81575322 4.76826443,6.13963358 4.74489092,5.80265749 C4.71979904,5.44090783 4.10785833,5.26430279 4.03769752,5.07737101 C3.96267496,4.87748593 4.42620107,4.67980771 4.29964712,4.67980771 L6.53148566,4.52447159 C5.66158343,5.72823525 5.66158343,6.85957501 6.53148566,7.91849085 Z" id="路径-7" fill="#FFFFFF"></path>
                <path d="M4.3937958,4.72564978 L5.14659763,4.63781305 L8.15795056,4.51564455 L15.3272696,4.39427716 L13.44283,4.33090725 L13.44283,4.06790835 L11.2368685,4.06790835 L11.2368685,2.92013314 L4.82573945,2.83703655 L4.82573945,4.33090725 L3.36865287,4.35385015 C3.77528214,4.40444774 4.02934346,4.47906375 4.13083683,4.57769816 C4.23233019,4.67633257 4.31998318,4.72564978 4.3937958,4.72564978 Z" id="路径-8" fill="#FFFFFF"></path>
                <path d="M0.798471308,4.33090725 C1.93668501,4.34309581 2.79003138,4.35012768 3.35851044,4.35200284 L3.64033862,4.35251425 C4.18975518,4.35251425 4.5353682,4.80233142 4.67717767,5.70196575 L4.67717767,5.70196575 L4.67717767,7.2705869 C4.67717767,8.09041754 4.26412303,8.48718036 3.43801375,8.46087536 C2.06286872,8.30413176 1.2537949,8.1604596 1.01079231,8.02985889 C0.767789724,7.89925817 0.560170231,7.63159793 0.387933835,7.22687816 C0.178017656,6.6246789 0.0520680216,6.15806216 0.0100849317,5.82702794 C-0.0119329363,5.65341834 -0.00868273713,5.24586598 0.132809586,4.97016553 C0.218343924,4.80350026 0.440231164,4.59041417 0.798471308,4.33090725 Z M2.8446023,7.1656775 C2.69554548,7.1656775 2.57471106,7.28651193 2.57471106,7.43556875 C2.57471106,7.60274913 2.70227557,7.74230423 2.86878358,7.75728298 L2.86878358,7.75728298 L3.00357592,7.76940866 C3.01161606,7.77013193 3.0196846,7.77049412 3.0277572,7.77049412 C3.17681402,7.77049412 3.29764844,7.64965969 3.29764844,7.50060287 C3.29764844,7.33342249 3.17008393,7.19386739 3.00357592,7.17888864 L3.00357592,7.17888864 L2.86878358,7.16676296 C2.86074344,7.16603969 2.8526749,7.1656775 2.8446023,7.1656775 Z M1.705181,6.97090259 C1.56134497,6.97090259 1.44474282,7.08750473 1.44474282,7.23134077 C1.44474282,7.40202125 1.57092919,7.54641401 1.74007112,7.56927956 L1.74007112,7.56927956 L2.1116895,7.619517 C2.1232538,7.62108033 2.13491011,7.62186464 2.14657961,7.62186464 C2.29041565,7.62186464 2.4070178,7.50526249 2.4070178,7.36142646 C2.4070178,7.19074597 2.28083143,7.04635321 2.1116895,7.02348767 L2.1116895,7.02348767 L1.74007112,6.97325023 C1.72850681,6.9716869 1.7168505,6.97090259 1.705181,6.97090259 Z M3.04667713,6.22148122 C2.88775089,6.22148122 2.75891571,6.38004759 2.75891571,6.57564912 C2.75891571,6.77125066 2.88775089,6.92981703 3.04667713,6.92981703 C3.20560338,6.92981703 3.33443855,6.77125066 3.33443855,6.57564912 C3.33443855,6.38004759 3.20560338,6.22148122 3.04667713,6.22148122 Z M1.56459945,6.04233673 C1.4056732,6.04233673 1.27683803,6.20090311 1.27683803,6.39650464 C1.27683803,6.59210617 1.4056732,6.75067255 1.56459945,6.75067255 C1.72352569,6.75067255 1.85236087,6.59210617 1.85236087,6.39650464 C1.85236087,6.20090311 1.72352569,6.04233673 1.56459945,6.04233673 Z M2.77771497,4.93769849 L2.61562819,4.93769849 C2.45256059,4.93769849 2.32036818,5.0698909 2.32036818,5.2329585 C2.32036818,5.3960261 2.45256059,5.52821851 2.61562819,5.52821851 L2.61562819,5.52821851 L2.77771497,5.52821851 C2.94078257,5.52821851 3.07297498,5.3960261 3.07297498,5.2329585 C3.07297498,5.0698909 2.94078257,4.93769849 2.77771497,4.93769849 L2.77771497,4.93769849 Z M1.93381154,4.9208596 L1.33712399,4.9208596 C1.17253504,4.9208596 1.03910933,5.05428531 1.03910933,5.21887427 C1.03910933,5.38346322 1.17253504,5.51688893 1.33712399,5.51688893 L1.33712399,5.51688893 L1.93381154,5.51688893 C2.09840049,5.51688893 2.2318262,5.38346322 2.2318262,5.21887427 C2.2318262,5.05428531 2.09840049,4.9208596 1.93381154,4.9208596 L1.93381154,4.9208596 Z" id="形状结合" fill="#FFFFFF"></path>
                <path d="M11.670388,7.3574149 C12.3213868,7.32661397 12.7477914,9.93843319 12.2440221,9.67708942 C11.9053932,9.50141661 11.6565532,9.64041413 11.5028987,9.58677478 C11.2505482,9.49868152 11.6030507,8.23264325 11.1756357,8.00033647 C10.9764014,7.89204952 10.7491487,7.58386187 10.8212122,7.46176271 C10.9037458,7.3219239 11.3228443,7.37385836 11.670388,7.3574149 Z" id="路径-9" fill="#FFFFFF"></path>
                <path d="M11.5251126,9.69547452 C11.0569794,10.3414068 10.7833002,10.8519421 10.7040751,11.2270806 C10.62485,11.602219 10.1882455,12.5029178 9.39426164,13.9291768 C9.22058534,14.4537485 9.31251853,14.7160343 9.6700612,14.7160343 C10.0276039,14.7160343 10.6459543,13.505857 11.5251126,11.0855025 C11.9349991,10.4718569 12.1399424,10.0515195 12.1399424,9.8244901 C12.1399424,9.6629104 11.775895,9.65314577 11.6364848,9.65314577 C11.6323454,9.65314577 11.5952213,9.66725535 11.5251126,9.69547452 Z" id="路径-10" fill="#FFFFFF"></path>
                <path d="M8.6691287,17.5543359 C8.54154402,17.8384024 8.12078291,18.8873842 7.40684535,20.7012813 C7.14302406,21.4032392 7.22707261,21.8134397 7.65899101,21.9318827 C9.1731074,22.347092 8.9084928,21.1503816 8.9084928,20.8262807 C8.9084928,20.4217176 8.91373128,19.8974285 8.92420822,19.2534135 C10.3863928,15.976953 11.117485,14.2186906 11.117485,13.9786264 C11.117485,13.7385623 11.2430428,13.4552754 11.4941583,13.1287658 C11.2197741,12.8003371 11.0358036,12.6213529 10.9422466,12.5918132 C10.7179198,12.520984 10.4959569,12.8708081 10.4258557,12.7211156 C9.38228903,15.6591959 8.79671337,17.2702693 8.6691287,17.5543359 Z" id="路径-11" fill="#FFFFFF"></path>
                <path d="M4.39083303,8.0814776 L5.41859865,9.69547452 C5.63422027,10.0354475 5.74196071,10.2844684 5.74181997,10.4425373 C5.74103367,11.3242029 5.35748127,11.7342863 5.20622646,11.5027723 C5.01429521,11.208998 4.77366431,11.1207707 4.48433378,11.2380904 C4.3893173,10.3557843 4.18501174,9.76380695 3.8714171,9.46215824 C3.55782245,9.16050954 3.24607667,8.76491028 2.93617975,8.27536046 L4.39083303,8.0814776 Z" id="路径-12" fill="#FFFFFF"></path>
                <path d="M5.18396916,11.6967979 C4.91138428,11.3800791 4.69372316,11.2745062 4.5309858,11.3800791 C4.28687976,11.5384385 4.24208833,11.7348773 4.07216953,12.0471654 C3.95889033,12.2553575 3.00326018,14.0345337 1.20527909,17.384694 C1.05775362,18.0461102 1.2402654,18.3768183 1.75281445,18.3768183 C2.9362413,18.3768183 2.62129502,17.4762277 2.62129502,17.384694 C2.62129502,17.1957038 2.53462424,16.5362319 3.19462413,15.2973657 C3.85462401,14.0584995 5.18396916,11.8487881 5.18396916,11.6712643" id="路径-13" fill="#FFFFFF"></path>
                <polygon id="路径-37" fill="#FFFFFF" points="5.22853701 0.392637509 5.22853701 2.83703655 8.22783041 2.9178175 8.2872694 0.392637509"></polygon>
                <path d="M6.18002304,0.392637509 C4.67706658,0.25442006 4.35990457,0.138135357 5.22853701,0.0437833979 C6.09716945,-0.0505685607 7.19863677,0.00757379108 8.53293897,0.218210453 C8.99563789,0.311358962 9.22698735,0.612814373 9.22698735,1.12257669 C9.22698735,1.632339 9.22698735,2.26454617 9.22698735,3.0191982" id="路径-38" stroke="#FFFFFF" stroke-width="0.4"></path>
            </g>
        </g>
    </g>
</svg>