<?xml version="1.0" encoding="UTF-8"?>
<svg width="50px" height="50px" viewBox="0 0 50 50" version="1.1" xmlns="http://www.w3.org/2000/svg" xmlns:xlink="http://www.w3.org/1999/xlink">
    <title>ren</title>
    <g id="ren" stroke="none" stroke-width="1" fill="none" fill-rule="evenodd">
        <g id="-s-renkou备份" transform="translate(7.000000, 0.000000)" fill-rule="nonzero">
            <path d="M29.6673832,32.5479877 C29.5313248,32.6665391 29.3890276,32.7777342 29.2411005,32.8810971 C29.1747222,32.9310331 29.106517,32.9785332 29.0389207,33.0272511 C19.3464709,39.8770046 18.36054,47.8740674 18.2765014,50 C18.2765014,49.9780769 18.2765014,49.9598076 18.2722386,49.9391024 C17.6906672,41.3026157 10.7258175,35.3845943 8.21135866,33.5199121 C1.60455138,29.162079 -1.44487898,21.045697 0.657892539,13.4155618 C2.76066406,5.78542655 9.537364,0.37700534 17.4438385,0.0188543663 C25.3503131,-0.339296607 32.5882418,4.43428377 35.3722524,11.8430554 C38.1562629,19.251827 35.8531347,27.6106716 29.6673832,32.5479877 L29.6673832,32.5479877 Z" id="形状" fill="#2980F1"></path>
            <path d="M18.2746744,0.00190070275 C26.0377432,0.000173243075 32.9538029,4.90559455 35.5186536,12.2327209 C38.0835043,19.5598473 35.7367295,27.7077113 29.6673832,32.5479877 C29.5313248,32.6665391 29.3890276,32.7777342 29.2411005,32.8810971 C29.1747222,32.9310331 29.106517,32.9785332 29.0389207,33.0272511 C28.4171511,33.4669488 27.8104664,33.9275986 27.2199117,34.408407 L5.53673946,5.17820464 C8.94283979,1.85403043 13.5153029,-0.00407236218 18.2746744,0.00190070275 Z" id="路径" fill="#2980F1"></path>
            <path d="M20.0340877,25.2823778 L19.5940801,25.2823778 L18.9011946,25.2874353 L9.53838902,25.2874353 L9.53838902,24.8499572 C9.53838902,24.8499572 9.33608668,22.4058958 13.0445416,21.7812882 C13.0445416,21.7812882 15.8679237,21.4108227 16.0664329,20.658512 C16.0664329,20.658512 16.1726416,20.573798 16.0929851,19.6988417 C15.9235569,17.8363986 14.6680179,16.960178 14.1584689,16.2470633 C13.6514486,15.5364774 13.6084594,14.7146254 13.6084594,14.7146254 C13.6084594,14.5085302 13.6969667,14.4339314 13.8449003,14.3011707 C14.0269724,14.1380646 13.9713392,13.9648435 13.9372007,13.7827717 C13.8057042,13.0835653 13.7930603,11.9645822 13.9194992,11.2615826 C13.9473158,10.4270868 14.7388237,9.75569689 14.7388238,9.75569689 C14.8867573,9.63305129 15.0346909,9.49902619 15.1396353,9.33844897 C15.1691073,9.29415155 15.1924968,9.24609679 15.2091767,9.19557316 C15.2723962,9.00338621 15.0700938,8.86177479 15.1092899,8.656944 C15.1459572,8.4723434 15.4721698,8.46349269 15.6694145,8.45464195 C16.1130179,8.42391288 16.5581089,8.42095687 17.0020813,8.44579124 C20.317311,8.69361123 21.4084793,9.87834251 21.4084793,9.87834251 C21.6664148,10.1780024 21.8371074,10.5446748 21.9395229,10.920198 C21.9698683,11.0339929 21.9964205,11.1477877 22.0103288,11.262847 C22.1140087,11.8394078 22.1140087,12.439992 22.0811346,13.0228747 C22.0659619,13.30104 22.0330878,13.5728833 21.9900985,13.8485199 C21.9686039,13.9913957 21.9799834,14.1266852 22.0786058,14.24048 C22.1620555,14.3365735 22.2556204,14.4048504 22.2973452,14.5300248 C22.3148385,14.5899484 22.3229424,14.6522205 22.3213686,14.7146254 C22.3213686,14.7146254 22.2783794,15.5364774 21.7700947,16.2483277 C21.2618101,16.960178 20.0062711,17.8363986 19.8355785,19.7001061 C19.7571864,20.573798 19.8646595,20.658512 19.8646595,20.658512 C20.0619043,21.4108227 22.8865508,21.7812882 22.8865508,21.7812882 C26.6367306,22.4552069 26.391439,24.8499572 26.391439,24.8499572 L26.391439,25.2874353 L23.9220859,25.2874353 L24.311518,25.2823778 L20.0340877,25.2823778 Z" id="路径" fill="#FFFFFF"></path>
        </g>
    </g>
</svg>