<?xml version="1.0" encoding="UTF-8"?>
<svg width="50px" height="50px" viewBox="0 0 50 50" version="1.1" xmlns="http://www.w3.org/2000/svg" xmlns:xlink="http://www.w3.org/1999/xlink">
    <title>TTP</title>
    <g id="TTP" stroke="none" stroke-width="1" fill="none" fill-rule="evenodd">
        <g id="-s-renkou备份-2" transform="translate(8.000000, 0.000000)" fill-rule="nonzero">
            <path d="M26.6849769,30.0067816 C26.6244011,30.0523524 26.5621581,30.0957002 26.5004708,30.1401595 C17.6552907,36.3911388 16.7555453,43.6891348 16.678853,45.6292281 C16.678853,45.6092214 16.678853,45.5925491 16.6749628,45.5736539 C16.1442298,37.6921294 9.78821543,32.2914345 7.49355915,30.5897543 C1.46428882,26.6128631 -1.31857425,19.2059782 0.600382574,12.2428346 C2.5193394,5.27969095 8.70365114,0.344049253 15.9189778,0.0172062036 C23.1343044,-0.309636846 29.7395264,4.04665891 32.2801714,10.8077895 C34.8208165,17.5689201 32.7190172,25.1970726 27.0739959,29.7027911 C26.9498311,29.8109793 26.8199729,29.9124542 26.6849769,30.0067816 Z M16.6771858,46.1282838 C16.6771858,46.1282838 16.6682939,45.9487794 16.681076,45.6281166 C17.3224016,55.1640832 16.6771858,46.1282838 16.6771858,46.1282838 Z" id="形状" fill="#3FD5CE"></path>
            <path d="M16.6771858,0.00173455199 C23.7616425,0.000158098956 30.0731318,4.47676985 32.4137749,11.1633923 C34.7544181,17.8500147 32.6127876,25.2856296 27.0739959,29.7027911 C26.9498311,29.8109793 26.8199729,29.9124542 26.6849769,30.0067816 C26.6244011,30.0523524 26.5621581,30.0957002 26.5004708,30.1401595 C25.9330534,30.5414208 25.3794023,30.9618027 24.8404712,31.400581 L5.05274295,4.72554961 C8.16109753,1.69195955 12.3338567,-0.00371637485 16.6771858,0.00173455199 Z" id="路径" fill="#3FD5CE"></path>
            <path d="M16.6282051,7.69230769 L9.25641026,11.6528936 L16.6282051,15.0501672 L24,11.6528936 L16.6282051,7.69230769 Z M24,12.3745819 L16.9487179,15.9062934 L16.9487179,19.0635452 L24,15.3997357 L24,12.3756737 L24,12.3745819 Z M24,17.0578636 L16.9487179,20.3277995 L16.9487179,23.0769231 L24,19.6417778 L24,17.0568562 L24,17.0578636 Z M15.6526701,15.9290557 L8.61538462,12.3745819 L8.61538462,15.4343099 L15.6666667,19.0635452 L15.6666667,15.9290557 L15.6526701,15.9290557 Z M13.7440249,17.0355265 C13.3993594,16.9853275 13.1025641,16.6248077 13.1025641,16.2633752 C13.1025641,15.9019426 13.3993594,15.640908 13.7440249,15.7403932 C14.0878201,15.8407911 14.3846154,16.151112 14.3846154,16.5125446 C14.3846154,16.8739771 14.1000052,17.1350117 13.7440249,17.0355265 Z M8.61538462,17.0568562 L8.61538462,19.6406278 L15.6666667,23.0769231 L15.6666667,20.3278868 L8.61538462,17.0568562 Z M13.7440249,21.0444052 C13.3993594,20.9943778 13.1025641,20.6350901 13.1025641,20.2748928 C13.1025641,19.9146955 13.3993594,19.654553 13.7440249,19.7536982 C14.0878201,19.8528435 14.3846154,20.1630133 14.3846154,20.5232106 C14.3846154,20.8952326 14.1000052,21.1553751 13.7440249,21.0444052 Z" id="形状" fill="#FFFFFF"></path>
        </g>
    </g>
</svg>