<?xml version="1.0" standalone="no"?><!DOCTYPE svg PUBLIC "-//W3C//DTD SVG 1.1//EN" "http://www.w3.org/Graphics/SVG/1.1/DTD/svg11.dtd"><svg t="1733822958527" class="icon" viewBox="0 0 1024 1024" version="1.1" xmlns="http://www.w3.org/2000/svg" p-id="99000" xmlns:xlink="http://www.w3.org/1999/xlink" width="200" height="200"><path d="M0 512c0 282.752 229.248 512 512 512s512-229.248 512-512S794.752 0 512 0 0 229.248 0 512z" fill="#000000" p-id="99001"></path><path d="M42.026667 512c0 259.584 210.389333 469.973333 469.973333 469.973333 259.584 0 469.973333-210.389333 469.973333-469.973333C981.973333 252.416 771.584 42.026667 512 42.026667 252.416 42.026667 42.026667 252.416 42.026667 512z" fill="#FFFFFF" p-id="99002"></path><path d="M82.261333 514.858667C82.261333 752.213333 274.688 944.64 512 944.64c237.354667 0 429.738667-192.426667 429.738667-429.738667 0-237.354667-192.426667-429.738667-429.738667-429.738666-237.354667 0-429.738667 192.426667-429.738667 429.738666z" fill="#FFBE00" p-id="99003"></path><path d="M368.64 481.28c11.264 0 20.48-9.216 20.48-20.48a20.522667 20.522667 0 0 0-20.48-20.48 71.253333 71.253333 0 0 1-71.68-71.68c0-39.936 31.744-71.68 71.68-71.68 39.936 0 71.68 31.744 71.68 71.68 0 11.264 9.216 20.48 20.48 20.48s20.48-9.216 20.48-20.48A112.298667 112.298667 0 0 0 368.64 256 112.298667 112.298667 0 0 0 256 368.64a112.298667 112.298667 0 0 0 112.64 112.64z m194.56-92.16c11.264 0 20.48-9.216 20.48-20.48 0-39.936 31.744-71.68 71.68-71.68 39.936 0 71.68 31.744 71.68 71.68a71.253333 71.253333 0 0 1-71.68 71.68 20.522667 20.522667 0 0 0-20.48 20.48c0 11.264 9.216 20.48 20.48 20.48A112.298667 112.298667 0 0 0 768 368.64 112.298667 112.298667 0 0 0 655.36 256a112.298667 112.298667 0 0 0-112.64 112.64c0 11.264 9.216 20.48 20.48 20.48z m-102.4 245.76a20.522667 20.522667 0 0 0-20.48 20.48 71.253333 71.253333 0 0 1-71.68 71.68 71.253333 71.253333 0 0 1-71.68-71.68c0-39.936 31.744-71.68 71.68-71.68 11.264 0 20.48-9.216 20.48-20.48a20.522667 20.522667 0 0 0-20.48-20.48A112.298667 112.298667 0 0 0 256 655.36 112.298667 112.298667 0 0 0 368.64 768a112.298667 112.298667 0 0 0 112.64-112.64 20.522667 20.522667 0 0 0-20.48-20.48z m194.56-92.16a20.522667 20.522667 0 0 0-20.48 20.48c0 11.264 9.216 20.48 20.48 20.48 39.936 0 71.68 31.744 71.68 71.68a71.253333 71.253333 0 0 1-71.68 71.68 71.253333 71.253333 0 0 1-71.68-71.68 20.522667 20.522667 0 0 0-20.48-20.48 20.522667 20.522667 0 0 0-20.48 20.48A112.298667 112.298667 0 0 0 655.36 768 112.298667 112.298667 0 0 0 768 655.36a112.298667 112.298667 0 0 0-112.64-112.64z" fill="#FFFFFF" p-id="99004"></path><path d="M646.4 676.266667c4.266667 4.266667 9.6 6.4 14.933333 6.4 5.333333 0 10.666667-2.133333 14.933334-6.4 4.266667-4.266667 6.4-9.6 6.4-14.933334 0-5.333333-2.133333-10.666667-6.4-14.933333l-73.6-73.6a85.632 85.632 0 0 1 0-120.533333l73.6-73.6A25.6 25.6 0 0 0 682.666667 362.666667c0-5.333333-2.133333-10.666667-6.4-14.933334-8.533333-8.533333-21.333333-8.533333-29.866667 0l-73.6 73.6a85.632 85.632 0 0 1-120.533333 0L378.666667 347.733333c-8.533333-8.533333-21.333333-8.533333-29.866667 0A18.645333 18.645333 0 0 0 341.333333 362.666667c0 5.333333 2.133333 10.666667 6.4 14.933333l73.6 73.6c33.066667 33.066667 33.066667 87.466667 0 120.533333L347.733333 645.333333A25.6 25.6 0 0 0 341.333333 661.333333c0 5.333333 2.133333 10.666667 6.4 14.933334 8.533333 8.533333 21.333333 8.533333 29.866667 0l73.6-73.6a85.632 85.632 0 0 1 120.533333 0l74.666667 73.6z" fill="#FFFFFF" p-id="99005"></path></svg>