<?xml version="1.0" encoding="UTF-8"?>
<svg width="50px" height="50px" viewBox="0 0 50 50" version="1.1" xmlns="http://www.w3.org/2000/svg" xmlns:xlink="http://www.w3.org/1999/xlink">
    <title>无人机</title>
    <g id="无人机" stroke="none" stroke-width="1" fill="none" fill-rule="evenodd">
        <g id="-s-renkou备份-2" transform="translate(7.000000, 0.000000)" fill-rule="nonzero">
            <path d="M29.6673832,32.5479877 C29.5313248,32.6665391 29.3890276,32.7777342 29.2411005,32.8810971 C29.1747222,32.9310331 29.106517,32.9785332 29.0389207,33.0272511 C19.3464709,39.8770046 18.36054,47.8740674 18.2765014,50 C18.2765014,49.9780769 18.2765014,49.9598076 18.2722386,49.9391024 C17.6906672,41.3026157 10.7258175,35.3845943 8.21135866,33.5199121 C1.60455138,29.162079 -1.44487898,21.045697 0.657892539,13.4155618 C2.76066406,5.78542655 9.537364,0.37700534 17.4438385,0.0188543663 C25.3503131,-0.339296607 32.5882418,4.43428377 35.3722524,11.8430554 C38.1562629,19.251827 35.8531347,27.6106716 29.6673832,32.5479877 L29.6673832,32.5479877 Z" id="形状" fill="#2980F1"></path>
            <path d="M18.2746744,0.00190070275 C26.0377432,0.000173243075 32.9538029,4.90559455 35.5186536,12.2327209 C38.0835043,19.5598473 35.7367295,27.7077113 29.6673832,32.5479877 C29.5313248,32.6665391 29.3890276,32.7777342 29.2411005,32.8810971 C29.1747222,32.9310331 29.106517,32.9785332 29.0389207,33.0272511 C28.4171511,33.4669488 27.8104664,33.9275986 27.2199117,34.408407 L5.53673946,5.17820464 C8.94283979,1.85403043 13.5153029,-0.00407236218 18.2746744,0.00190070275 Z" id="路径" fill="#2980F1"></path>
            <g id="wurenji-2" transform="translate(9.000000, 10.000000)" fill="#FFFFFF">
                <path d="M3.96,7.92 C4.356,7.92 4.68,7.596 4.68,7.2 C4.68,6.804 4.356,6.48 3.96,6.48 C2.556,6.48 1.44,5.364 1.44,3.96 C1.44,2.556 2.556,1.44 3.96,1.44 C5.364,1.44 6.48,2.556 6.48,3.96 C6.48,4.356 6.804,4.68 7.2,4.68 C7.596,4.68 7.92,4.356 7.92,3.96 C7.92,1.764 6.156,0 3.96,0 C1.764,0 0,1.764 0,3.96 C0,6.156 1.764,7.92 3.96,7.92 Z M10.8,4.68 C11.196,4.68 11.52,4.356 11.52,3.96 C11.52,2.556 12.636,1.44 14.04,1.44 C15.444,1.44 16.56,2.556 16.56,3.96 C16.56,5.364 15.444,6.48 14.04,6.48 C13.644,6.48 13.32,6.804 13.32,7.2 C13.32,7.596 13.644,7.92 14.04,7.92 C16.236,7.92 18,6.156 18,3.96 C18,1.764 16.236,0 14.04,0 C11.844,0 10.08,1.764 10.08,3.96 C10.08,4.356 10.404,4.68 10.8,4.68 Z M7.2,13.32 C6.804,13.32 6.48,13.644 6.48,14.04 C6.48,15.444 5.364,16.56 3.96,16.56 C2.556,16.56 1.44,15.444 1.44,14.04 C1.44,12.636 2.556,11.52 3.96,11.52 C4.356,11.52 4.68,11.196 4.68,10.8 C4.68,10.404 4.356,10.08 3.96,10.08 C1.764,10.08 0,11.844 0,14.04 C0,16.236 1.764,18 3.96,18 C6.156,18 7.92,16.236 7.92,14.04 C7.92,13.644 7.596,13.32 7.2,13.32 Z M14.04,10.08 C13.644,10.08 13.32,10.404 13.32,10.8 C13.32,11.196 13.644,11.52 14.04,11.52 C15.444,11.52 16.56,12.636 16.56,14.04 C16.56,15.444 15.444,16.56 14.04,16.56 C12.636,16.56 11.52,15.444 11.52,14.04 C11.52,13.644 11.196,13.32 10.8,13.32 C10.404,13.32 10.08,13.644 10.08,14.04 C10.08,16.236 11.844,18 14.04,18 C16.236,18 18,16.236 18,14.04 C18,11.844 16.236,10.08 14.04,10.08 Z" id="形状"></path>
                <path d="M13.725,14.775 C13.875,14.925 14.0625,15 14.25,15 C14.4375,15 14.625,14.925 14.775,14.775 C14.925,14.625 15,14.4375 15,14.25 C15,14.0625 14.925,13.875 14.775,13.725 L12.1875,11.1375 C11.025,9.975 11.025,8.0625 12.1875,6.9 L14.775,4.3125 C14.925,4.125 15,3.9375 15,3.75 C15,3.5625 14.925,3.375 14.775,3.225 C14.475,2.925 14.025,2.925 13.725,3.225 L11.1375,5.8125 C9.975,6.975 8.0625,6.975 6.9,5.8125 L4.3125,3.225 C4.0125,2.925 3.5625,2.925 3.2625,3.225 C3.075,3.375 3,3.5625 3,3.75 C3,3.9375 3.075,4.125 3.225,4.275 L5.8125,6.8625 C6.975,8.025 6.975,9.9375 5.8125,11.1 L3.225,13.6875 C3.075,13.875 3,14.0625 3,14.25 C3,14.4375 3.075,14.625 3.225,14.775 C3.525,15.075 3.975,15.075 4.275,14.775 L6.8625,12.1875 C8.025,11.025 9.9375,11.025 11.1,12.1875 L13.725,14.775 L13.725,14.775 Z" id="路径"></path>
            </g>
        </g>
    </g>
</svg>