<?xml version="1.0" encoding="UTF-8"?>
<svg width="50px" height="50px" viewBox="0 0 50 50" version="1.1" xmlns="http://www.w3.org/2000/svg" xmlns:xlink="http://www.w3.org/1999/xlink">
    <title>wanglou</title>
    <g id="wanglou" stroke="none" stroke-width="1" fill="none" fill-rule="evenodd">
        <g id="-s-renkou备份-2" transform="translate(7.000000, 0.000000)" fill-rule="nonzero">
            <path d="M29.2411005,32.8810971 C29.1747222,32.9310331 29.106517,32.9785332 29.0389207,33.0272511 C19.3464709,39.8770046 18.36054,47.8740674 18.2765014,50 C18.2765014,49.9780769 18.2765014,49.9598076 18.2722386,49.9391024 C17.6906672,41.3026157 10.7258175,35.3845943 8.21135866,33.5199121 C1.60455138,29.162079 -1.44487898,21.045697 0.657892539,13.4155618 C2.76066406,5.78542655 9.537364,0.37700534 17.4438385,0.0188543663 C25.3503131,-0.339296607 32.5882418,4.43428377 35.3722524,11.8430554 C38.1562629,19.251827 35.8531347,27.6106716 29.6673832,32.5479877 C29.5313248,32.6665391 29.3890276,32.7777342 29.2411005,32.8810971 Z" id="形状" fill="#2980F1"></path>
            <path d="M18.2746744,0.00190070275 C26.0377432,0.000173243075 32.9538029,4.90559455 35.5186536,12.2327209 C38.0835043,19.5598473 35.7367295,27.7077113 29.6673832,32.5479877 C29.5313248,32.6665391 29.3890276,32.7777342 29.2411005,32.8810971 C29.1747222,32.9310331 29.106517,32.9785332 29.0389207,33.0272511 C28.4171511,33.4669488 27.8104664,33.9275986 27.2199117,34.408407 L5.53673946,5.17820464 C8.94283979,1.85403043 13.5153029,-0.00407236218 18.2746744,0.00190070275 Z" id="路径" fill="#2980F1"></path>
            <g id="资源-1备份-2" transform="translate(8.482788, 6.321859)" fill="#FFFFFF">
                <path d="M14.7517573,19.2573546 C14.7636224,19.1529569 14.8924439,19.1513508 14.897529,19.1513508 L15.2822985,19.1513508 C15.409425,19.1513508 15.4518005,19.3489033 15.4518005,19.3537217 L15.9179309,20.8201074 C15.6094373,20.6900118 15.3348441,20.5791897 15.1416118,20.4988838 L15.1416118,20.4988838 L14.8432883,20.3784249 L12.756719,19.8821345 L12.756719,19.5705476 L12.5567066,19.4099358 L12.3770345,19.5609109 L12.3770345,19.7841613 L11.5091844,19.5769721 L11.5091844,19.5769721 L10.9786432,19.5930332 C10.7966659,19.4448692 10.6047246,19.3080612 10.4040315,19.1834732 L10.4040315,18.4719629 L10.8515167,18.1860739 L14.3500376,20.1037788 C14.3924131,20.1359011 14.6890415,20.3591515 14.9093941,20.3591515 C14.9596313,20.3612452 15.0085987,20.3438455 15.0449957,20.310968 C15.0949937,20.2715517 15.1220836,20.2118561 15.1178816,20.1503562 C15.1061965,20.0833859 15.0640529,20.0246605 15.0026202,19.9897444 L14.7568423,19.8564366 C14.7500623,19.7841613 14.7398921,19.3746012 14.7517573,19.2573546 L14.7517573,19.2573546 Z M14.8263381,20.4346391 L14.9365144,20.4780043 L11.3295123,20.188903 L11.5261346,19.6492474 L14.8263381,20.4346391 Z M12.8224518,19.8759777 L12.4431403,19.8135801 L12.4431403,19.5984727 L12.6201524,19.4966662 L12.8224518,19.6017568 L12.8224518,19.8759777 Z M15.0890662,20.5502796 L14.8009129,21.4031282 C14.8009129,21.4031282 14.8009129,21.4031282 14.8009129,21.4111588 L11.5159645,20.2627844 L15.0890662,20.5502796 Z M14.8602385,21.4224016 L15.1466969,20.5727652 L17.4875192,22.3491317 L14.8551535,21.4304322 C14.8551535,21.4304322 14.8602385,21.4256139 14.8602385,21.4224016 L14.8602385,21.4224016 Z M8.67850135,20.25636 L9.11581646,20.25636 L9.01750531,20.6356715 L8.67850135,20.6356715 L8.67850135,20.25636 Z M9.02394267,17.1581584 C9.03436508,17.2889158 9.06065427,17.4168565 9.1018834,17.5374699 L8.72257187,17.5374699 L8.72257187,17.1581584 L9.02394267,17.1581584 Z M9.86501521,17.5374699 C9.90950974,17.418075 9.93815984,17.2898486 9.9497662,17.1581584 L10.2667349,17.1581584 L10.2667349,17.5374699 L9.86501521,17.5374699 Z M10.0040068,17.4954432 L10.0040068,17.8747547 L8.94292444,17.8747547 L8.94292444,17.4954432 L10.0040068,17.4954432 Z M9.49685979,18.1477948 L9.49685979,17.7684832 L9.67513621,17.7684832 L9.67513621,18.1477948 L9.49685979,18.1477948 Z M9.37854453,17.7684832 L9.37854453,17.929095 L9.28870848,17.929095 L9.28870848,19.930318 L8.94970452,19.930318 L8.94970452,17.7684832 L9.37854453,17.7684832 Z M9.35142421,17.9885214 L9.73073574,17.9885214 L9.73073574,19.930318 L9.35142421,19.930318 L9.35142421,17.9885214 Z M9.58872698,17.929095 L9.58872698,17.7684832 L10.019262,17.7684832 L10.019262,19.930318 L9.68025805,19.930318 L9.68025805,17.929095 L9.58872698,17.929095 Z M10.0841871,19.9094385 L10.0841871,17.7684832 L10.4562042,17.7684832 L10.4562042,19.930318 L10.0768927,19.930318 L10.0841871,19.9094385 Z M10.0819777,17.8747547 L10.0819777,17.4954432 L10.0819777,17.4954432 L10.4612893,17.8719027 L10.0819777,17.8747547 Z M9.89615577,17.5374699 L9.89615577,17.1581584 L10.0516735,17.1581584 C10.0251294,17.2884539 9.96888133,17.4154603 9.88477643,17.5350069 L9.89615577,17.5374699 Z M9.76670406,17.5374699 L9.21582263,17.5374699 L9.21582263,17.1581584 L9.75822896,17.1581584 L9.76670406,17.5374699 Z M9.31958513,17.5374699 C9.22098438,17.4186247 9.15806065,17.2902089 9.13372248,17.1581584 L9.30061955,17.1581584 L9.31958513,17.5374699 Z M9.09510332,17.4970493 L9.09510332,17.8763608 L8.71579179,17.8763608 L9.06096528,17.4970493 L9.09510332,17.4970493 Z M8.63612586,17.7684832 L9.01543739,17.7684832 L9.01543739,19.930318 L8.63612586,19.930318 L8.63612586,17.7684832 Z M9.09001826,19.9944088 L9.09001826,20.3642376 L8.71070673,19.984926 L9.09001826,19.9944088 Z M8.94292444,20.3690559 L8.94292444,19.9897444 L9.32223597,19.9897444 L9.32223597,20.3690559 L8.94292444,20.3690559 Z M9.73073574,22.614718 L9.35142421,22.614718 L9.35142421,22.4516141 L9.72596453,22.4516141 L9.73073574,22.614718 Z M9.35481425,22.3298583 L9.35481425,21.94439 L9.73412578,21.94439 L9.73412578,22.3362828 L9.35481425,22.3298583 Z M9.35619542,22.5801035 L9.73073574,22.5801035 L9.73073574,22.7432075 L9.35142421,22.7432075 L9.35619542,22.5801035 Z M9.35481425,21.8753269 L9.35481425,19.9881383 L9.73412578,19.9881383 L9.73412578,21.876933 L9.35481425,21.8753269 Z M9.68364809,19.9865322 L10.0629596,19.9865322 L10.0629596,20.3658437 L9.68364809,20.3658437 L9.68364809,19.9865322 Z M10.3006353,20.2547539 L10.3006353,20.6340654 L9.97858153,20.6340654 L9.88027039,20.2547539 L10.3006353,20.2547539 Z M10.0802827,19.9865322 L10.4595943,19.9865322 L10.0802827,20.3658437 L10.0802827,19.9865322 Z M14.9704148,20.052383 C15.0128678,20.0766615 15.043366,20.1159636 15.0551658,20.161599 C15.0566445,20.2058617 15.0358924,20.2481684 14.9992302,20.2756334 C14.8788838,20.3880616 14.5178445,20.161599 14.383938,20.0620197 L14.214436,19.9736832 L14.383938,19.7375839 L14.9704148,20.052383 Z M14.1652804,19.9447731 L10.9040623,18.1571638 L10.9311827,18.1394965 C11.0035517,18.0934289 11.0473051,18.0165203 11.048139,17.9339134 L14.3347824,19.7102799 L14.1652804,19.9447731 Z M10.8345665,17.8166668 L10.959998,17.8857298 C10.9733696,17.897322 10.9828085,17.9124146 10.9871183,17.929095 C11.0006785,17.9869153 10.9413528,18.05116 10.8938922,18.0897068 L10.3989464,18.4109304 L10.3989464,17.7684832 L10.8345665,17.8166668 Z M10.4626692,17.8315608 L10.2009442,17.5129391 L10.4626692,17.5129391 L10.4626692,17.8315608 Z M10.3858616,17.5374699 L10.3175855,17.5374699 L10.3175855,17.1581584 L10.696897,17.1581584 L10.3858616,17.5374699 Z M7.31062038,16.3117342 L6.97161642,16.3117342 L7.02755207,15.8491722 L7.36655603,15.8491722 L7.31062038,16.3117342 Z M7.41697372,16.131849 L7.75264764,16.2602618 L7.75264764,16.5111605 L7.75264764,16.5111605 L7.37333611,16.3669431 L7.41697372,16.131849 Z M7.05636741,14.8324996 L6.87669531,14.8324996 L6.87669531,15.1537231 L6.9868716,15.1537231 L6.9868716,15.1874516 L6.67329293,15.1874516 L6.76143396,14.7168591 L7.04619729,14.7168591 L7.05636741,14.8324996 Z M6.94958116,15.2682315 L6.94958116,14.8951382 L7.56826339,14.8951382 L7.56826339,15.2744497 L6.94958116,15.2682315 Z M8.06320917,16.5028623 L8.55645993,16.5028623 L8.42255336,16.8821738 L8.06320917,16.5028623 Z M7.97337312,16.5028623 L8.08524442,16.6755144 L7.9716781,16.8821738 L7.63267414,16.5028623 L7.97337312,16.5028623 Z M8.13758053,16.6506251 L8.40184022,16.9635035 L8.26881153,17.0299366 L8.02252869,16.8156363 L8.13758053,16.6506251 Z M8.77796131,16.5028623 L8.85949557,16.5028623 L8.85949557,16.8821738 L8.48018404,16.8821738 L8.77796131,16.5028623 Z M8.72426689,16.5028623 L9.13107164,16.5028623 C9.07284941,16.6214824 9.0416337,16.7508426 9.03954057,16.8821738 L8.72596191,16.8821738 L8.72426689,16.5028623 Z M9.28819116,16.5992293 L9.28819116,16.9785409 L9.16301835,16.9785409 C9.16768914,16.8486626 9.21134126,16.720274 9.29198427,16.5992293 L9.28819116,16.5992293 Z M9.22033918,16.5028623 L9.54654709,16.5028623 L9.54654709,16.8821738 L9.22033918,16.8821738 L9.22033918,16.5028623 Z M9.41639822,16.8821738 L9.41639822,16.5028623 L9.76915794,16.5028623 L9.76915794,16.8821738 L9.41639822,16.8821738 Z M9.64740145,16.5028623 L9.94705756,16.5028623 L9.94705756,16.8821738 L9.64360833,16.8821738 L9.64740145,16.5028623 Z M9.8872776,16.621715 C9.96347611,16.7434237 10.0144794,16.8709319 10.0390022,17.0010265 L9.8872776,17.0010265 L9.8872776,16.621715 Z M9.95485126,16.8821738 C9.93703853,16.7506968 9.89814998,16.6227192 9.83958991,16.5028623 L10.2667349,16.5028623 L10.2667349,16.8821738 L9.95485126,16.8821738 Z M10.3192805,16.5028623 L10.3937248,16.5028623 L10.698592,16.8821738 L10.3228255,16.8821738 L10.3192805,16.5028623 Z M11.6227507,15.8523845 L11.9617547,15.8523845 L12.0176903,16.3149464 L11.6786864,16.3149464 L11.6227507,15.8523845 Z M11.7800147,16.3631231 L11.4473398,16.517585 L11.4007031,16.517585 L11.4007031,16.2751385 L11.4007031,16.2751385 L11.7364871,16.1382735 L11.7800147,16.3631231 Z M11.3413775,16.5092867 L11.0023735,16.8885983 L10.8888072,16.6913563 L11.0108486,16.5092867 L11.3413775,16.5092867 Z M10.5565833,16.8885983 L10.4226767,16.5092867 L10.9176225,16.5092867 L10.5565833,16.8885983 Z M10.8642746,16.6666863 L10.9850504,16.8280027 L10.7378374,17.0459978 L10.6057389,16.9631597 L10.8642746,16.6666863 Z M11.6312258,16.3807973 L12.0821011,16.3807973 L12.0109103,15.7993826 L11.5464748,15.7993826 L11.5786802,16.0756349 L11.4091782,16.1848509 L11.4091782,15.1505109 L11.9346344,15.1505109 L11.9515846,15.2436658 L12.3905947,15.2436658 L12.2804184,14.6638572 L11.8668336,14.6638572 L11.8668336,14.8357118 L11.4007031,14.8357118 L11.4007031,14.5305494 L12.7702791,14.5305494 L13.1262333,16.4434359 L11.5312197,16.4434359 L11.6312258,16.3807973 Z M11.9295493,14.8421363 L11.9295493,14.7168591 L12.2257241,14.7168591 L12.3088608,15.1842394 L11.9970979,15.1842394 L11.9970979,15.1505109 L12.109679,15.1505109 L12.109679,14.8292873 L11.9295493,14.8421363 Z M12.0380306,14.9071798 L12.0380306,15.2744497 L11.4007031,15.2744497 L11.4007031,14.8951382 L12.0380306,14.9071798 Z M13.9466229,16.3053097 L13.190644,16.445042 L12.8329949,14.5241249 L13.6432143,14.3635131 L13.9466229,16.3053097 Z M13.361841,14.3941993 L12.7940094,14.6559243 L11.4007031,14.6559243 L11.4007031,14.3941993 L13.361841,14.3941993 Z M10.3660071,12.36577 L10.3091104,12.36577 L10.3091104,11.9864585 L10.6884219,11.9864585 L10.3660071,12.36577 Z M9.10056128,11.5046231 L9.00733519,11.8839346 L8.71918183,11.8839346 L8.71918183,11.5046231 L9.10056128,11.5046231 Z M9.99013946,11.8839346 L9.89213553,11.5046231 L10.2714471,11.5046231 L10.2714471,11.8839346 L9.99013946,11.8839346 Z M9.88695724,11.9140916 L9.88695724,11.5367455 L10.076613,11.916057 L9.88695724,11.9140916 Z M10.0628927,11.9784279 L9.89220248,12.3577394 L9.89220248,11.9884098 L10.0628927,11.9784279 Z M9.77178912,11.8839346 L9.21921267,11.8839346 L9.21921267,11.5046231 L9.77178912,11.5046231 L9.77178912,11.8839346 Z M9.1269424,11.9144509 L9.31280505,11.5351393 L9.31280505,11.9144509 L9.1269424,11.9144509 Z M9.30860886,11.9784279 L9.30860886,12.3577394 L9.13791867,11.9884098 L9.30860886,11.9784279 Z M9.01581029,11.9784279 L9.10056128,12.3577394 L8.71918183,12.3577394 L8.71918183,11.9873739 L9.01581029,11.9784279 Z M9.21921267,11.9784279 L9.77178912,11.9784279 L9.77178912,12.3577394 L9.21921267,12.3577394 L9.21921267,11.9784279 Z M9.98075277,11.9784279 L10.269752,11.9784279 L10.269752,12.3577394 L9.89044051,12.3577394 L9.98075277,11.9784279 Z M10.3141955,11.8839346 L10.3141955,11.5046231 L10.3141955,11.5046231 L10.693507,11.8839346 L10.3141955,11.8839346 Z M10.8582968,9.04913639 L10.8582968,8.66982486 L11.2376083,8.66982486 L11.2376083,9.04913639 L10.8582968,9.04913639 Z M11.8447983,7.87961481 L12.2617732,7.87961481 L12.2617732,9.70416484 L11.8447983,9.70416484 L11.8447983,7.87961481 L11.8447983,7.87961481 Z M11.2125559,8.33896456 L11.7820826,8.33896456 L11.7820826,9.23036004 L11.2125559,9.23036004 L11.2125559,8.33896456 L11.2125559,8.33896456 Z M11.1481452,8.61361073 L10.8582968,8.61361073 L10.8582968,7.82018845 L10.3701311,7.82018845 L10.3701311,7.53269333 L10.3887763,7.53269333 L10.5582783,7.19540855 L11.1413651,8.42569493 L11.1481452,8.61361073 Z M10.3963573,7.19701467 L10.6808409,7.19701467 L10.3963573,7.5763262 L10.3963573,7.19701467 Z M10.3074154,7.5763262 L9.88535545,7.5763262 L9.88535545,7.52618732 L9.92773094,7.52618732 L9.92773094,7.34961126 L9.9582413,7.34961126 L9.9582413,7.19701467 L10.3141955,7.19701467 L10.3074154,7.5763262 Z M10.0286719,7.30497995 L9.96418895,7.30497995 L9.96418895,7.57311397 L9.89591288,7.57311397 L9.89591288,7.19380244 L10.0286719,7.19380244 L10.0286719,7.30497995 Z M9.93656708,7.57311397 L9.67104901,7.57311397 L9.67104901,7.19380244 L9.93656708,7.19380244 L9.93656708,7.57311397 Z M9.75749653,7.57311397 L9.39210469,7.57311397 L9.39210469,7.19380244 L9.77141622,7.19380244 L9.75749653,7.57311397 Z M9.49989794,7.57311397 L9.23817299,7.57311397 L9.23817299,7.19380244 L9.49989794,7.19380244 L9.49989794,7.57311397 Z M9.28246013,7.57311397 L9.22177028,7.57311397 L9.22177028,7.30027585 L9.15349421,7.30027585 L9.15349421,7.19380244 L9.28625324,7.19380244 L9.28246013,7.57311397 Z M9.05140571,7.34639903 L9.05140571,7.52297509 L9.08191606,7.52297509 L9.08191606,7.57311397 L8.67511131,7.57311397 L8.67511131,7.19380244 L9.02767543,7.19380244 L9.02767543,7.34639903 L9.05140571,7.34639903 Z M8.78814981,7.57311397 L8.50745928,7.19380244 L8.78814981,7.19380244 L8.78814981,7.57311397 Z M9.0853061,7.53269333 L9.32260887,7.53269333 L9.32260887,7.91200486 L8.67511131,7.91200486 L8.67511131,7.53269333 L9.0853061,7.53269333 Z M9.38532461,7.53269333 L9.76463614,7.53269333 L9.76463614,7.91200486 L9.3992443,7.91200486 L9.38532461,7.53269333 Z M9.6327975,7.53269333 L10.3006353,7.53269333 L10.3006353,7.91200486 L9.63957758,7.91200486 L9.6327975,7.53269333 Z M10.5481082,3.98638483 L11.812593,3.98638483 L11.812593,5.18294272 L10.5548883,5.18294272 L10.5548883,3.98638483 L10.5481082,3.98638483 Z M10.4613261,3.98638483 L10.6396025,3.98638483 L10.6396025,4.88420478 L10.4613261,4.88420478 L10.4613261,3.98638483 L10.4613261,3.98638483 Z M10.5087603,4.06669073 L10.5087603,4.84405183 L10.2887596,4.84405183 L10.2887596,4.06669073 L10.5087603,4.06669073 Z M8.77342246,2.6886415 L8.77342246,1.29774333 L9.18022721,1.29774333 L9.18022721,1.29774333 L9.24972302,1.29774333 L9.24972302,1.29774333 L9.78365426,1.29774333 L9.78365426,1.29774333 L9.84636999,1.29774333 L9.84636999,1.29774333 L10.2023241,1.29774333 L10.2023241,2.6886415 L8.78020254,2.6886415 L8.77342246,2.6886415 Z M9.35311923,2.74806787 L9.73243076,2.74806787 L9.73243076,3.67319182 L9.36380406,3.67319182 L9.35311923,2.74806787 Z M9.20904255,3.73261819 L9.77687418,3.73261819 L9.77687418,4.11192972 L9.21582263,4.11192972 L9.20904255,3.73261819 Z M8.77342246,3.98638483 L10.1819839,3.98638483 L10.1819839,5.43189101 L8.78020254,5.43189101 L8.77342246,3.98638483 Z M8.41916332,5.18294272 L7.16145863,5.18294272 L7.16145863,3.98638483 L8.41407826,3.98638483 L8.41407826,4.95005562 L8.4259434,4.95005562 L8.41916332,5.18294272 Z M8.68282619,4.88420478 L8.55006716,4.88420478 L8.55006716,3.98638483 L8.68282619,3.98638483 L8.68282619,4.88420478 Z M8.64273525,4.84565795 L8.64273525,4.06508461 L8.88170151,4.06508461 L8.88170151,4.84565795 L8.64273525,4.84565795 Z M8.77342246,5.5187231 L10.1819839,5.5187231 L10.1819839,5.7918274 L8.78020254,5.7918274 L8.77342246,5.5187231 Z M10.1819839,5.663172 L10.1819839,6.98179486 L8.78020254,6.98179486 L8.78020254,5.65835365 L10.1819839,5.663172 Z M8.38695795,7.04935354 L8.72596191,7.04935354 L8.72596191,7.09107781 L10.5904837,7.09107781 L10.5904837,7.32245784 L8.38695795,7.32245784 L8.38695795,7.04935354 Z M8.37678783,7.19380244 L8.41577328,7.19380244 L8.5971404,7.53269333 L8.61239558,7.53269333 L8.61239558,7.82018845 L8.12422988,7.82018845 L8.12422988,8.61361073 L7.83438149,8.61361073 L7.83438149,8.45299893 L8.37678783,7.19380244 Z M7.12247318,9.70416484 L6.70719333,9.70416484 L6.70719333,7.87961481 L7.1241682,7.87961481 L7.1241682,9.70416484 L7.12247318,9.70416484 Z M7.77166576,9.23036004 L7.18518891,9.23036004 L7.18518891,8.33896456 L7.77166576,8.33896456 L7.77166576,9.23036004 L7.77166576,9.23036004 Z M7.83438149,9.04913639 L7.83438149,8.66982486 L8.21369302,8.66982486 L8.21369302,9.04913639 L7.83438149,9.04913639 Z M8.18694561,9.66401189 L8.18694561,7.87961481 L10.7955811,7.87961481 L10.7955811,9.66401189 L8.18694561,9.66401189 L8.18694561,9.66401189 Z M10.2972453,9.72343826 L10.2972453,11.4468028 L8.68528143,11.4468028 L8.68528143,9.72343826 L10.2972453,9.72343826 Z M8.50891666,11.8394599 L8.85788326,11.530321 L8.85788326,11.9096325 L8.50891666,11.9096325 L8.50891666,11.8394599 Z M8.80098653,12.3586132 L8.50891666,12.0633943 L8.50891666,11.9864585 L8.85788326,11.9864585 L8.85788326,12.36577 L8.80098653,12.3586132 Z M8.71918183,12.3799574 L10.2446996,12.3799574 L10.2446996,14.307299 L8.71918183,14.307299 L8.71918183,12.3799574 Z M7.62589406,14.3603009 L11.3379874,14.3603009 L11.3379874,16.4482542 L7.62589406,16.4482542 L7.62589406,14.3603009 Z M7.56317833,14.6559243 L6.13766668,14.6559243 L5.56814003,14.3941993 L7.56317833,14.3941993 L7.56317833,14.6559243 Z M5.28676674,14.3667253 L6.09868122,14.5273371 L5.74103205,16.4386175 L4.98505322,16.2988853 L5.28676674,14.3667253 Z M5.80374778,16.4434359 L6.15970194,14.5305494 L7.56317833,14.5305494 L7.56317833,14.8357118 L7.11399808,14.8357118 L7.11399808,14.6638572 L6.70719333,14.6638572 L6.59701704,15.2436658 L7.04619729,15.2436658 L7.06314749,15.1505109 L7.57165343,15.1505109 L7.57165343,16.1623652 L7.41062654,16.0627859 L7.44283192,15.7865336 L6.9699214,15.7865336 L6.89873057,16.3679483 L7.35130085,16.3679483 L7.45130702,16.4370114 L5.80374778,16.4434359 Z M8.3140721,17.029919 L8.42255336,16.9333019 L10.5447181,16.9333019 L10.5447181,16.9333019 L10.6667596,17.0406542 L10.5243779,17.2732509 L10.5159028,17.3126134 L8.47001392,17.3126134 L8.47001392,17.3126134 L8.3140721,17.029919 Z M8.49882925,17.1581584 L8.87814078,17.1581584 L8.87814078,17.5374699 L8.80607159,17.5374699 L8.49882925,17.1581584 Z M8.95741415,17.5151261 L8.74499969,17.8261616 L8.74499969,17.5151261 L8.95741415,17.5151261 Z M8.5717151,18.4109304 L8.08015936,18.0897068 C8.02930877,18.0463416 7.96998308,17.9820969 7.98354324,17.929095 C7.98857792,17.9127036 7.99790752,17.8977856 8.01066355,17.8857298 L8.13609502,17.8182729 L8.5717151,17.7684832 L8.5717151,18.4109304 Z M4.58502855,19.7424022 L4.75453053,19.9785016 L4.58502855,20.0684442 C4.45451202,20.1664174 4.09347281,20.3896678 3.9731264,20.2804517 C3.93768079,20.2520913 3.91721885,20.2103761 3.91719075,20.1664174 C3.92899062,20.1207819 3.95948875,20.0814799 4.00194174,20.0572013 L4.58502855,19.7424022 Z M4.80538112,19.9495914 L4.63587914,19.7134921 L7.92421754,17.929095 C7.92613276,18.0126581 7.9710827,18.0900443 8.04456395,18.1362842 L8.06829423,18.1523454 L4.80538112,19.9495914 Z M3.51886109,19.3537217 C3.51886109,19.3537217 3.56123659,19.1609875 3.68836307,19.154563 L4.07482759,19.154563 C4.07482759,19.154563 4.20873415,19.154563 4.22059929,19.2605668 C4.23246443,19.3665706 4.22059929,19.7873735 4.22059929,19.8724978 L3.97482142,20.0058056 C3.9133887,20.0407217 3.87124509,20.099447 3.85956007,20.1664174 C3.85535806,20.2279173 3.88244796,20.2876128 3.93244592,20.3270292 C3.96884296,20.3599067 4.01781037,20.3773064 4.06804751,20.3752127 C4.27992498,20.3752127 4.58502855,20.1519623 4.62231898,20.1230522 L8.1259249,18.1957106 L8.5717151,18.4799935 L8.5717151,19.1915038 C8.37131684,19.316489 8.17940175,19.4532784 7.99710339,19.6010638 L7.4665622,19.5850027 L7.4580871,19.5850027 L6.59023696,19.7921919 L6.59023696,19.5689415 L6.41056487,19.4179664 L6.21055253,19.5785782 L6.21055253,19.8901651 L4.12059312,20.3880616 C4.12059312,20.3880616 4.0070268,20.4314268 3.82904972,20.5037021 L3.82904972,20.5037021 C3.63751248,20.5807958 3.36291927,20.6916179 3.05273065,20.8249257 L3.51886109,19.3537217 Z M3.88159533,20.5534918 L7.45469706,20.2659967 L4.16466364,21.4111588 C4.16466364,21.4111588 4.16466364,21.4111588 4.16466364,21.4031282 L3.88159533,20.5534918 Z M4.11550806,21.4336445 L1.48483734,22.3491317 L3.82565968,20.5727652 L4.11211802,21.4224016 C4.11211802,21.4224016 4.11550806,21.42722 4.11720308,21.4304322 L4.11550806,21.4336445 Z M4.03414711,20.4812165 L4.13923834,20.4394574 L7.44452694,19.6524596 L7.64114924,20.1921153 L4.03414711,20.4812165 Z M6.66274991,19.8135801 L6.28343838,19.8759777 L6.28343838,19.6017568 L6.48573786,19.4966662 L6.66274991,19.5984727 L6.66274991,19.8135801 Z M0,22.7586918 C0.0491555741,22.59808 0.269508147,21.9733001 0.715298354,21.8142944 C0.739993248,21.8118967 0.7646103,21.8194776 0.783099145,21.8351739 C0.981416461,21.9700879 1.26109473,22.5531087 1.28143497,22.7586918 L0,22.7586918 Z M0.918700729,21.8817514 L0.928870848,21.8817514 C1.60687877,21.4834341 2.92390915,20.9309295 3.64090252,20.6386161 L1.29838516,22.4149825 L1.24414453,22.434256 C1.16265649,22.2369336 1.05316771,22.051055 0.918700729,21.8817514 L0.918700729,21.8817514 Z M7.69877991,20.1664174 L7.50893769,19.6460351 L7.94286276,19.6588841 C7.90318839,19.7034902 7.8921578,19.7649728 7.91404742,19.8194959 C7.94336802,19.864901 7.98917739,19.8985983 8.04286893,19.9142568 L7.69877991,20.1664174 Z M7.96998308,19.8002225 C7.9547279,19.7697062 7.96998308,19.7327655 7.99879841,19.6861881 C8.17540638,19.5287147 8.36721941,19.3872918 8.5717151,19.2637791 L8.5717151,19.9271058 C8.1089747,19.9238936 7.99710339,19.8467999 7.9716781,19.8002225 L7.96998308,19.8002225 Z M8.69883633,20.0411402 L8.99849244,20.4204517 L8.69883633,20.4204517 L8.69883633,20.0411402 Z M8.80816443,20.2772395 L8.80816443,20.656551 L8.48574963,20.656551 L8.80816443,20.2772395 Z M9.08022104,20.6356715 L9.26365859,20.25636 L9.45953257,20.25636 L9.45953257,20.6356715 L9.08022104,20.6356715 Z M9.31921883,22.9300632 L9.31921883,22.6759245 L9.69853036,22.6759245 L9.69853036,22.9300632 L9.31921883,22.9300632 Z M9.68025805,20.2547539 L9.89740016,20.2547539 L10.0595696,20.6340654 L9.68025805,20.6340654 L9.68025805,20.2547539 Z M10.3736299,20.2547539 L10.7392725,20.6340654 L10.359961,20.6340654 L10.359961,20.2547539 L10.3736299,20.2547539 Z M10.1689043,20.4059966 L10.4913191,20.0266851 L10.4913191,20.4059966 L10.1689043,20.4059966 Z M10.3989464,19.2621729 C10.6034421,19.3856856 10.7952552,19.5271086 10.9718631,19.684582 C11.0074586,19.7311594 11.0159336,19.7697062 11.0006785,19.7986163 C10.9854233,19.8275265 10.8633819,19.9222874 10.3989464,19.9254997 L10.3989464,19.2621729 Z M10.9277926,19.9206813 C10.9814842,19.9050228 11.0272935,19.8713254 11.0566141,19.8259204 C11.0785037,19.7713973 11.0674732,19.7099147 11.0277988,19.6653086 L11.4617239,19.6524596 L11.2718816,20.1728418 L10.9277926,19.9206813 Z M17.6739714,22.4133764 L15.329759,20.6354038 C16.0518375,20.9293234 17.3637828,21.4802219 18.0417907,21.8785391 L18.0519608,21.8785391 C17.9174938,22.0478427 17.8080051,22.2337214 17.726517,22.4310437 L17.6739714,22.4133764 Z M18.1824773,21.8335678 C18.2009662,21.8178715 18.2255832,21.8102906 18.2502781,21.8126883 C18.6960683,21.9733001 18.9164209,22.59808 18.9655765,22.7570857 L17.6909216,22.7570857 C17.7112618,22.5531087 17.9909401,21.9700879 18.1892574,21.8351739 L18.1824773,21.8335678 Z M10.2667349,1.29774333 L9.84636999,1.29774333 L9.84636999,2.14771401e-13 L9.78365426,2.14771401e-13 L9.78365426,1.29774333 L9.24972302,1.29774333 L9.24972302,2.14771401e-13 L9.18700729,2.14771401e-13 L9.18700729,1.29774333 L8.71748681,1.29774333 L10.2667349,1.29774333 Z" id="形状"></path>
            </g>
        </g>
    </g>
</svg>