<?xml version="1.0" encoding="UTF-8"?>
<svg width="50px" height="50px" viewBox="0 0 50 50" version="1.1" xmlns="http://www.w3.org/2000/svg" xmlns:xlink="http://www.w3.org/1999/xlink">
    <title>wurenjiku</title>
    <g id="wurenjiku" stroke="none" stroke-width="1" fill="none" fill-rule="evenodd">
        <g id="-s-renkou备份-2" transform="translate(7.000000, 0.000000)" fill-rule="nonzero">
            <path d="M29.6673832,32.5479877 C29.5313248,32.6665391 29.3890276,32.7777342 29.2411005,32.8810971 C29.1747222,32.9310331 29.106517,32.9785332 29.0389207,33.0272511 C19.3464709,39.8770046 18.36054,47.8740674 18.2765014,50 C18.2765014,49.9780769 18.2765014,49.9598076 18.2722386,49.9391024 C17.6906672,41.3026157 10.7258175,35.3845943 8.21135866,33.5199121 C1.60455138,29.162079 -1.44487898,21.045697 0.657892539,13.4155618 C2.76066406,5.78542655 9.537364,0.37700534 17.4438385,0.0188543663 C25.3503131,-0.339296607 32.5882418,4.43428377 35.3722524,11.8430554 C38.1562629,19.251827 35.8531347,27.6106716 29.6673832,32.5479877 L29.6673832,32.5479877 Z" id="形状" fill="#2980F1"></path>
            <g id="gudingwurenjijichang备份" transform="translate(7.429145, 10.395754)" fill="#FFFFFF">
                <path d="M16.4446178,11.9968413 C16.4446178,13.19445 15.4569713,14.1652588 14.2385911,14.1652588 L6.73780955,14.1652588 C5.5194294,14.1652588 4.53178286,13.19445 4.53178286,11.9968413 L4.53178286,8.19742986 L16.4446178,8.19742986 L16.4446178,11.9968413 Z M5.52451911,8.16860339 L3.56763137e-08,8.16860339 L3.56763137e-08,7.95180929 C-7.43423055e-05,7.66424571 0.116151455,7.38844807 0.323075612,7.18516819 C0.529970186,6.98190266 0.810493555,6.86768184 1.10301341,6.86760057 L5.52451911,6.86760057 L5.52451911,8.16860339 L5.52451911,8.16860339 Z M9.16439043,6.83948881 L9.16439043,7.5182211 L7.84082289,7.5182211 L7.84082289,6.83948881 L9.16439043,6.83948881 Z M13.1353354,6.83948881 L13.1353354,7.5182211 L11.8117679,7.5182211 L11.8117679,6.83948881 L13.1353354,6.83948881 Z M15.5483437,6.86760057 L19.9698494,6.86760057 C20.5791607,6.86760057 21.0728628,7.35288582 21.0728628,7.95180929 L21.0728628,8.16860339 L15.5483437,8.16860339 L15.5483437,6.86760057 Z M15.1208079,5.48130952 L15.1208079,6.16051828 L5.8553504,6.16051828 L5.8553504,5.48178599 L15.1208079,5.48178599 L15.1208079,5.48130952 Z M10.3792069,0.707223402 C10.5631224,0.684672107 10.7353787,0.719053589 10.9012411,0.789665021 C11.0716168,0.86212492 11.2126564,0.974881396 11.3288729,1.11462549 C11.3924347,1.18782477 11.4368151,1.27618149 11.4939832,1.35270801 C11.507523,1.36971391 11.5428769,1.37784716 11.5676998,1.37784716 L13.4403284,1.37858655 L13.7167658,1.37858655 L13.7167658,0.845119026 L14.6769628,0.845119026 L14.6769628,1.37599869 C14.7973923,1.37084584 14.9114867,1.42917474 14.9763427,1.52905175 C15.0884221,1.70835303 14.9737099,1.93608414 14.7751263,1.99005937 C14.3817201,2.0943129 13.992075,2.21483293 13.6009254,2.32906818 L12.5959719,2.62001686 C12.578671,2.62519256 12.5598658,2.6285198 12.5241357,2.63517428 C12.5933391,2.69395553 12.6516355,2.74386413 12.7121884,2.79081519 L13.2804836,3.23518661 C13.4121205,3.33685229 13.5415007,3.44110581 13.6750181,3.54055333 C13.7690445,3.60709813 13.8247081,3.71356982 13.8247081,3.82743538 C13.828093,4.18086223 13.8254603,4.53244062 13.8254603,4.88475839 C13.8145532,5.08993821 13.6490669,5.25445176 13.4403284,5.26776072 C13.2801075,5.26960918 13.0867894,5.15500424 13.0484266,4.97829081 C13.0424089,4.95536983 13.039024,4.93207914 13.039024,4.90841877 C13.039024,4.64667587 13.0375196,4.38345419 13.0397762,4.12171129 C13.0405284,4.07549962 13.0243559,4.05036047 12.9867453,4.03002734 C12.7088035,3.87845306 12.4304855,3.72724848 12.1540481,3.57382573 C12.0600217,3.52354743 11.9693803,3.4695722 11.8723452,3.41485759 C11.493231,3.79675083 11.0268603,3.97420364 10.4909102,3.97531272 C9.96869463,3.98677155 9.46504672,3.78475754 9.10007255,3.41744544 L8.7243433,3.62632219 L7.99921217,4.02337286 C7.95633616,4.04703323 7.94467689,4.07549962 7.94467689,4.12282037 C7.94693352,4.36755738 7.94693352,4.61229439 7.94467689,4.85703139 C7.95107068,5.00047242 7.87735403,5.13614988 7.75211095,5.21045825 C7.64228818,5.27700305 7.50651415,5.28661508 7.38841706,5.23633678 C7.27023399,5.18570242 7.18470086,5.0814716 7.1593689,4.95721829 C7.15071848,4.91507325 7.14658132,4.87181913 7.14658132,4.828565 C7.1450769,4.51062871 7.14658132,4.19010457 7.1450769,3.87142889 C7.14131584,3.72983633 7.21164755,3.59637703 7.33162516,3.51800203 C7.48131509,3.40968188 7.6223546,3.28990123 7.76828348,3.17640537 C7.90518583,3.06697613 8.04547313,2.9575469 8.184256,2.84996613 L8.45204302,2.64293785 C8.33281762,2.6063382 8.21321612,2.57010825 8.09323851,2.53535708 C7.87923456,2.47213951 7.66560671,2.41187949 7.45122666,2.3501407 C7.05593993,2.23738423 6.66065319,2.12462775 6.26574257,2.00780465 C6.18939318,1.98414427 6.11755706,1.9493931 6.05173862,1.90429051 C5.94379638,1.83183061 5.93702648,1.66362013 5.97915028,1.56676047 C6.02630552,1.45391311 6.13750273,1.37968708 6.26160541,1.37821685 L6.29244605,1.37488961 L6.29244605,0.844749332 L7.25339524,0.844749332 L7.25339524,1.22923043 C7.25414745,1.27876934 7.24211208,1.33865966 7.26618282,1.37304115 C7.28085093,1.39485306 7.35343927,1.37821685 7.39970023,1.37821685 L9.39305863,1.37895624 C9.43931959,1.37895624 9.4682797,1.37045329 9.49573539,1.32350224 C9.61270805,1.10983808 9.79026943,0.934147984 10.0068626,0.817761717 C10.1208225,0.756392619 10.2464417,0.72459899 10.3784547,0.707593095 L10.3784547,0.707223402 L10.3792069,0.707223402 Z M10.48645,2.71738366 C10.4263154,2.71613974 10.3683141,2.73929578 10.3260926,2.78140373 C10.283871,2.82351168 10.2611568,2.88085386 10.2632942,2.93993906 C10.2655508,3.07721853 10.3563175,3.15633291 10.4879544,3.16052277 C10.6168332,3.16397324 10.7103581,3.06169141 10.7138684,2.93993906 C10.7133669,2.81670794 10.6110662,2.71689073 10.4856978,2.71738366 L10.48645,2.71738366 Z M14.2530921,0.000392447534 C14.42422,0.0985043309 14.5073393,0.269219008 14.5885781,0.450529769 C14.6750823,0.360266836 14.7544405,0.274713274 14.8375598,0.191514396 C14.8887101,0.139711322 14.9436215,0.0886931426 15.0034223,0.0486634942 C15.0444178,0.0219770619 15.0974486,0.0156979013 15.1455901,0.000392447534 L16.3318264,0.000392447534 C16.3935077,0.0243317471 16.4600783,0.0361051731 16.5149897,0.0718178987 C16.6319585,0.150307405 16.6812283,0.303361943 16.6330868,0.439933685 C16.5918565,0.569001171 16.4768664,0.656707831 16.3464945,0.658526961 C14.9120287,0.655779829 13.4794434,0.655779829 12.0449775,0.658526961 C11.8343585,0.658526961 11.6921907,0.414032148 11.7798232,0.209174535 C11.8211948,0.0930100655 11.9265043,0.0153054538 12.0449775,0.0133432161 C12.0517474,0.0133432161 12.0577651,0.00627916054 12.0652872,0.000784895067 L13.2515235,0.000784895067 C13.2594217,0.00510181794 13.2661916,0.0133432161 13.2722093,0.0133432161 C13.3662356,0.00902629327 13.4358151,0.0553351022 13.4963681,0.123228526 C13.5949077,0.23389873 13.6896862,0.346531172 13.7874736,0.457986272 C13.8773628,0.259015372 13.9619865,0.0945798556 14.1323623,0 L14.2530921,0 L14.2530921,0.000392447534 Z M5.82946035,0.0015275698 C5.88775668,0.0220203298 5.95771228,0.0283257944 6.00058829,0.0661585822 C6.1205659,0.172957389 6.22813203,0.290396668 6.34133974,0.405077306 C6.35676006,0.421235059 6.37368481,0.437392812 6.3943706,0.456309206 C6.45157799,0.270388313 6.56700452,0.110144645 6.72195837,0.0015275698 L6.84268819,0.0015275698 C7.01494444,0.0965036307 7.10107257,0.263598443 7.17478922,0.458673755 C7.19773165,0.428328706 7.21315197,0.403106848 7.23383776,0.381431813 C7.31770926,0.291578942 7.40571791,0.20645517 7.48620446,0.11423775 C7.55127068,0.0397544491 7.63777492,0.0255671537 7.72239862,0.00113347826 L8.94699767,0.00113347826 C9.03801517,0.0342371675 9.1241433,0.0693113145 9.17642194,0.164287375 C9.2369749,0.278968013 9.24299259,0.392860468 9.17717415,0.506752923 C9.12700885,0.604029956 9.02836675,0.662895876 8.92292693,0.658478165 L6.47974652,0.658478165 L4.62253825,0.659266348 C4.4995518,0.659266348 4.41906525,0.59305897 4.36415387,0.489806986 C4.30973152,0.393575406 4.31176903,0.273408075 4.36941935,0.179262854 C4.41996814,0.0814270889 4.51572321,0.0184751739 4.62178604,0.013350316 C4.62930815,0.013350316 4.63532584,0.00625666827 4.64209573,0.000739386722 L5.82946035,0.000739386722 L5.82946035,0.0015275698 Z" id="形状"></path>
            </g>
        </g>
    </g>
</svg>