<?xml version="1.0" encoding="UTF-8"?>
<svg width="50px" height="50px" viewBox="0 0 50 50" version="1.1" xmlns="http://www.w3.org/2000/svg" xmlns:xlink="http://www.w3.org/1999/xlink">
    <title>zhifayi</title>
    <defs>
        <filter id="filter-1">
            <feColorMatrix in="SourceGraphic" type="matrix" values="0 0 0 0 1.000000 0 0 0 0 1.000000 0 0 0 0 1.000000 0 0 0 1.000000 0"></feColorMatrix>
        </filter>
    </defs>
    <g id="zhifayi" stroke="none" stroke-width="1" fill="none" fill-rule="evenodd">
        <g id="-s-renkou备份-2" transform="translate(7.000000, 0.000000)">
            <g id="-s-renkou备份" transform="translate(-0.000000, 0.000000)">
                <path d="M29.6673832,32.5479877 C29.5313248,32.6665391 29.3890276,32.7777342 29.2411005,32.8810971 C29.1747222,32.9310331 29.106517,32.9785332 29.0389207,33.0272511 C19.3464709,39.8770046 18.36054,47.8740674 18.2765014,50 C18.2765014,49.9780769 18.2765014,49.9598076 18.2722386,49.9391024 C17.6906672,41.3026157 10.7258175,35.3845943 8.21135866,33.5199121 C1.60455138,29.162079 -1.44487898,21.045697 0.657892539,13.4155618 C2.76066406,5.78542655 9.537364,0.37700534 17.4438385,0.0188543663 C25.3503131,-0.339296607 32.5882418,4.43428377 35.3722524,11.8430554 C38.1562629,19.251827 35.8531347,27.6106716 29.6673832,32.5479877 L29.6673832,32.5479877 Z" id="形状" fill="#2980F1" fill-rule="nonzero"></path>
                <path d="M18.2746744,0.00190070275 C26.0377432,0.000173243075 32.9538029,4.90559455 35.5186536,12.2327209 C38.0835043,19.5598473 35.7367295,27.7077113 29.6673832,32.5479877 C29.5313248,32.6665391 29.3890276,32.7777342 29.2411005,32.8810971 C29.1747222,32.9310331 29.106517,32.9785332 29.0389207,33.0272511 C28.4171511,33.4669488 27.8104664,33.9275986 27.2199117,34.408407 L5.53673946,5.17820464 C8.94283979,1.85403043 13.5153029,-0.00407236218 18.2746744,0.00190070275 Z" id="路径" fill="#2980F1" fill-rule="nonzero"></path>
                <g filter="url(#filter-1)" id="zhifayi">
                    <g transform="translate(11.643718, 8.429145)">
                        <path d="M12.5047983,4.64330024 C12.5809467,4.64330024 12.6437177,4.57217489 12.6437177,4.48326819 L12.6437177,3.28006428 C12.6437177,3.19168102 12.5815214,3.12003223 12.5047983,3.12003223 L12.2959048,3.12003223 L12.2959048,2.15983994 C12.2953367,0.96680155 11.4556226,0 10.4199792,0 L1.87592555,0 C0.840684047,0.000654003799 0.00159675449,0.967264281 0.00102903212,2.15983994 L0.00102903212,11.9419471 L2.29268356,10.4838773 L2.29268356,11.6835249 L0,13.1415947 L0,13.7817229 L2.29268356,12.3236531 L2.29268356,13.5233008 L0,14.982556 L0,15.5432609 L2.29268356,14.0840057 L2.29268356,15.2848387 L0,16.7440939 L0,16.8057359 C0,17.3787665 0.197674349,17.92831 0.549508245,18.3333926 C0.901342142,18.7384753 1.37849381,18.9658903 1.87592555,18.9655768 L10.4199792,18.9655768 C11.4560243,18.9655768 12.2959048,17.9980518 12.2959048,16.8045505 L12.2959048,16.6634852 L10.0032212,15.2054154 L10.0032212,14.0033969 L12.2959048,15.4626521 L12.2959048,14.9031327 L10.0032212,13.4438775 L10.0032212,12.2430444 L12.2959048,13.7011142 L12.2959048,13.0621714 L10.0032212,11.6041016 L10.0032212,10.4008977 L12.2959048,11.8613383 L12.2959048,9.20243548 L12.5047983,9.20243548 C12.5809467,9.20243548 12.6437177,9.13131012 12.6437177,9.04240343 L12.6437177,7.83919951 C12.6437177,7.75081625 12.5815214,7.67916747 12.5047983,7.67916747 L12.2959048,7.67916747 L12.2959048,6.8932323 L12.5047983,6.8932323 C12.5815214,6.8932323 12.6437177,6.82158351 12.6437177,6.73320025 L12.6437177,5.53118175 C12.6437177,5.44279849 12.5815214,5.3711497 12.5047983,5.3711497 L12.2959048,5.3711497 L12.2959048,4.64330024 L12.5047983,4.64330024 Z M6.33773688,15.1893669 L4.37704794,15.8128992 L4.37704794,14.6120661 L6.33773688,13.9885338 L8.29842583,14.6120661 L8.29842583,15.8128992 L6.33773688,15.1893669 Z M8.26886307,14.0525467 L6.30817412,13.427829 L4.34748517,14.0525467 L4.34748517,12.8505282 L6.30817412,12.2269959 L8.26886307,12.8505282 L8.26886307,14.0525467 Z M6.29942421,11.5880531 L4.33873527,12.2115854 L4.33873527,11.0107523 L6.29942421,10.38722 L8.26011316,11.0107523 L8.26011316,12.2115854 L6.29942421,11.5880531 Z M3.43225648,6.04369144 C2.80287377,4.96746401 2.80287377,3.63545121 3.43225648,2.55922378 C4.0616392,1.48299635 5.22254719,0.829887844 6.46912398,0.850730084 C8.35241788,0.882217967 9.86263907,2.41790049 9.86263907,4.30145761 C9.86263907,6.18501473 8.35241788,7.72069726 6.46912398,7.75218514 C5.22254719,7.77302738 4.0616392,7.11991888 3.43225648,6.04369144 Z M6.33773688,2.12981411 C5.14702924,2.12981411 4.23302926,3.202921 4.23302926,4.3374224 C4.23302926,5.47192379 5.20323549,6.39111205 6.33773688,6.39111205 C7.47223828,6.39111205 8.4943272,5.47711206 8.4943272,4.28640442 C8.4943272,3.09535248 7.52878883,2.12981411 6.33773688,2.12981411 Z" id="形状" fill="#FFFFFF" fill-rule="nonzero"></path>
                    </g>
                </g>
            </g>
        </g>
    </g>
</svg>