<?xml version="1.0" standalone="no"?><!DOCTYPE svg PUBLIC "-//W3C//DTD SVG 1.1//EN" "http://www.w3.org/Graphics/SVG/1.1/DTD/svg11.dtd"><svg t="1737012189309" class="icon" viewBox="0 0 1024 1024" version="1.1" xmlns="http://www.w3.org/2000/svg" p-id="16931" xmlns:xlink="http://www.w3.org/1999/xlink" width="200" height="200"><path d="M0 512c0 282.752 229.248 512 512 512s512-229.248 512-512S794.752 0 512 0 0 229.248 0 512z" fill="#000000" p-id="16932"></path><path d="M42.026667 512c0 259.584 210.389333 469.973333 469.973333 469.973333 259.584 0 469.973333-210.389333 469.973333-469.973333C981.973333 252.416 771.584 42.026667 512 42.026667 252.416 42.026667 42.026667 252.416 42.026667 512z" fill="#FFFFFF" p-id="16933"></path><path d="M82.261333 514.858667C82.261333 752.213333 274.688 944.64 512 944.64c237.354667 0 429.738667-192.426667 429.738667-429.738667 0-237.354667-192.426667-429.738667-429.738667-429.738666-237.354667 0-429.738667 192.426667-429.738667 429.738666z" fill="#9B69CD" p-id="16934"></path><path d="M678.912 381.354667c2.048 0 3.754667-1.92 3.754667-4.309334v-32.512c0-2.389333-1.706667-4.266667-3.754667-4.266666H673.28v-25.941334C673.28 282.112 650.581333 256 622.634667 256H391.978667C364.032 256 341.333333 282.112 341.333333 314.325333v264.064l61.866667-39.381333v32.426667L341.333333 610.730667v17.28l61.866667-39.381334v32.426667L341.333333 660.48v15.146667l61.866667-39.424v32.426666L341.333333 708.010667v1.706666c0 15.445333 5.333333 30.293333 14.848 41.216 9.472 10.922667 22.357333 17.066667 35.797334 17.066667h230.656c27.989333 0 50.645333-26.112 50.645333-58.325333v-3.84l-61.866667-39.338667v-32.426667l61.866667 39.381334V658.346667l-61.866667-39.424v-32.426667l61.866667 39.381333v-17.237333l-61.866667-39.381333v-32.469334l61.866667 39.424V504.448h5.632c2.048 0 3.754667-1.92 3.754667-4.352v-32.426667c0-2.432-1.706667-4.352-3.754667-4.352H673.28v-21.205333h5.632c2.090667 0 3.754667-1.962667 3.754667-4.352V405.333333c0-2.389333-1.706667-4.352-3.754667-4.352H673.28v-19.626666h5.632zM512.426667 666.026667l-52.906667 16.810666v-32.426666l52.906667-16.810667 52.906666 16.810667v32.426666l-52.906666-16.810666z m52.138666-30.72l-52.906666-16.853334-52.949334 16.853334v-32.426667l52.906667-16.853333 52.906667 16.853333v32.426667zM511.402667 568.832l-52.906667 16.853333v-32.426666l52.906667-16.853334 52.906666 16.853334v32.426666l-52.906666-16.853333zM434.005333 419.157333a93.184 93.184 0 1 1 160.853334-94.08 93.184 93.184 0 0 1-160.853334 94.08zM512.426667 313.514667c-32.128 0-56.832 28.970667-56.832 59.562666 0 30.634667 26.197333 55.466667 56.832 55.466667 30.634667 0 58.24-24.661333 58.24-56.832 0-32.128-26.069333-58.197333-58.24-58.197333z" fill="#FFFFFF" p-id="16935"></path></svg>