<?xml version="1.0" encoding="UTF-8"?>
<svg width="50px" height="50px" viewBox="0 0 50 50" version="1.1" xmlns="http://www.w3.org/2000/svg" xmlns:xlink="http://www.w3.org/1999/xlink">
    <title>无人机</title>
    <g id="无人机" stroke="none" stroke-width="1" fill="none" fill-rule="evenodd">
        <g id="-s-renkou备份" transform="translate(7.000000, 0.000000)" fill-rule="nonzero">
            <path d="M29.6673832,32.5479877 C29.5313248,32.6665391 29.3890276,32.7777342 29.2411005,32.8810971 C29.1747222,32.9310331 29.106517,32.9785332 29.0389207,33.0272511 C19.3464709,39.8770046 18.36054,47.8740674 18.2765014,50 C18.2765014,49.9780769 18.2765014,49.9598076 18.2722386,49.9391024 C17.6906672,41.3026157 10.7258175,35.3845943 8.21135866,33.5199121 C1.60455138,29.162079 -1.44487898,21.045697 0.657892539,13.4155618 C2.76066406,5.78542655 9.537364,0.37700534 17.4438385,0.0188543663 C25.3503131,-0.339296607 32.5882418,4.43428377 35.3722524,11.8430554 C38.1562629,19.251827 35.8531347,27.6106716 29.6673832,32.5479877 L29.6673832,32.5479877 Z" id="形状" fill="#4C90F0"></path>
            <path d="M18.2746744,0.00190070275 C26.0377432,0.000173243075 32.9538029,4.90559455 35.5186536,12.2327209 C38.0835043,19.5598473 35.7367295,27.7077113 29.6673832,32.5479877 C29.5313248,32.6665391 29.3890276,32.7777342 29.2411005,32.8810971 C29.1747222,32.9310331 29.106517,32.9785332 29.0389207,33.0272511 C28.4171511,33.4669488 27.8104664,33.9275986 27.2199117,34.408407 L5.53673946,5.17820464 C8.94283979,1.85403043 13.5153029,-0.00407236218 18.2746744,0.00190070275 Z" id="路径" fill="#4C90F0"></path>
            <g id="wurenji" transform="translate(6.321859, 8.429145)" fill="#FFFFFF">
                <path d="M19.690483,2.77936446 L19.0667979,2.77936446 C18.8886022,2.77936446 18.7401057,2.54653813 18.7401057,2.25669309 C18.7401057,1.97159961 18.8886021,1.73402171 19.0667979,1.73402171 L19.690483,1.73402171 C19.8686787,1.73402171 20.0171752,1.96684804 20.0171752,2.25669309 C20.0171752,2.54653813 19.8686787,2.77936446 19.690483,2.77936446 Z" id="路径"></path>
                <path d="M3.38557259,2.77936446 L4.00925769,2.77936446 C4.19042336,2.77936446 4.33594988,2.54653813 4.33594988,2.25669309 C4.33594988,1.97159961 4.19042336,1.73402171 4.00925769,1.73402171 L3.38557259,1.73402171 C3.20440691,1.73402171 3.05888039,1.96684804 3.05888039,2.25669309 C3.05888039,2.54653813 3.20440691,2.77936446 3.38557259,2.77936446 Z" id="路径"></path>
                <polygon id="路径" points="4.16194174 2.11414634 7.45856297 2.11414634 7.45856297 2.58395664 4.16194174 2.58395664"></polygon>
                <polygon id="路径备份" points="19.8155509 2.11414634 23.1121721 2.11414634 23.1121721 2.58395664 19.8155509 2.58395664"></polygon>
                <polygon id="路径" points="0 2.11414634 3.29662123 2.11414634 3.29662123 2.58395664 0 2.58395664"></polygon>
                <polygon id="路径备份-2" points="15.6560462 2.11414634 18.9526674 2.11414634 18.9526674 2.58395664 15.6560462 2.58395664"></polygon>
                <path d="M12.3488184,14.373166 L10.7302071,14.373166 C10.480733,14.373166 10.2758079,14.0500601 10.2758079,13.6461776 L10.2758079,10.0112358 C10.2758079,9.61210487 10.4777631,9.28424738 10.7302071,9.28424738 L12.3488184,9.28424738 C12.5982925,9.28424738 12.8032176,9.60735333 12.8032176,10.0112358 L12.8032176,13.6461776 C12.8002476,14.0500601 12.5982925,14.373166 12.3488184,14.373166 Z" id="路径"></path>
                <polygon id="路径" points="12.8002476 10.8094975 15.4137852 10.8094975 15.4137852 11.5222312 12.8002476 11.5222312"></polygon>
                <polygon id="路径" points="13.1566391 11.5222312 14.166415 11.5222312 14.166415 13.47037 13.1566391 13.47037"></polygon>
                <path d="M14.4277687,16.178758 L13.2190076,16.178758 C12.9873532,16.178758 12.7972777,15.8794099 12.7972777,15.5040368 L12.7972777,14.4729487 C12.7972777,14.1023272 12.9843832,13.7982275 13.2190076,13.7982275 L14.4277687,13.7982275 C14.6594232,13.7982275 14.8494987,14.0975756 14.8494987,14.4729487 L14.8494987,15.5040368 C14.8494987,15.8794099 14.6623931,16.178758 14.4277687,16.178758 Z" id="路径"></path>
                <path d="M13.4239327,14.9462299 L13.8397228,14.9462299 L13.8397228,15.4600849 L13.4239327,15.4600849 L13.4239327,14.9462299 Z M7.66227039,10.7619819 L10.2758079,10.7619819 L10.2758079,11.8630998 L7.66227039,11.8630998 L7.66227039,10.7619819 Z" id="形状"></path>
                <polygon id="路径" points="8.850242 11.4747156 9.86001788 11.4747156 9.86001788 13.4228544 8.850242 13.4228544"></polygon>
                <path d="M10.0916723,17.1765852 L8.94230981,17.1765852 C8.75817422,17.1765852 8.60967775,16.9390073 8.60967775,16.6444107 L8.60967775,15.1381668 C8.60967775,14.8435702 8.75817421,14.6059923 8.94230981,14.6059923 L10.0916723,14.6059923 C10.2758079,14.6059923 10.4243044,14.8435702 10.4243044,15.1381668 L10.4243044,16.6444107 C10.4243044,16.9390073 10.2758079,17.1765852 10.0916723,17.1765852 Z" id="路径"></path>
                <path d="M9.14723491,13.4228544 L9.62242356,13.4228544 L9.62242356,14.6107439 L9.14723491,14.6107439 L9.14723491,13.4228544 Z M13.9674297,7.91513345 L14.3748743,7.67788816 L17.2696641,20.4032257 L16.8621899,20.640471 L13.9674297,7.91513345 Z" id="形状"></path>
                <path d="M16.5126589,20.2650979 C16.5126589,20.7112141 16.7387049,21.0728628 17.0175469,21.0728628 C17.2963888,21.0728628 17.5224348,20.7112141 17.5224348,20.2650979 C17.5224348,19.8189817 17.2963888,19.457333 17.0175469,19.457333 C16.7387049,19.457333 16.5126589,19.8189817 16.5126589,20.2650979 Z" id="路径"></path>
                <polygon id="路径" points="5.80743092 20.4075496 8.70222075 7.68216456 9.10969501 7.91940985 6.21490518 20.6447949"></polygon>
                <path d="M5.55362079,20.2650979 C5.55362079,20.7112141 5.77966681,21.0728628 6.05850872,21.0728628 C6.33735063,21.0728628 6.56339666,20.7112141 6.56339666,20.2650979 C6.56339666,19.8189817 6.33735063,19.457333 6.05850872,19.457333 C5.77966681,19.457333 5.55362079,19.8189817 5.55362079,20.2650979 L5.55362079,20.2650979 Z" id="路径"></path>
                <path d="M8.8799413,15.8699068 C8.8799413,16.4341126 9.16582304,16.8914917 9.51847604,16.8914917 C9.87112904,16.8914917 10.1570108,16.4341126 10.1570108,15.8699068 C10.1570108,15.305701 9.87112904,14.8483218 9.51847604,14.8483218 C9.16582304,14.8483218 8.8799413,15.305701 8.8799413,15.8699068 Z" id="路径"></path>
                <path d="M13.0081426,14.9908685 C13.0081204,15.1606491 13.0647221,15.317548 13.1566211,15.4024485 C13.2485202,15.4873491 13.3617509,15.4873491 13.45365,15.4024485 C13.545549,15.317548 13.6021507,15.1606491 13.6021285,14.9908685 C13.6021507,14.821088 13.545549,14.6641891 13.45365,14.5792885 C13.3617509,14.494388 13.2485202,14.494388 13.1566211,14.5792885 C13.0647221,14.6641891 13.0081204,14.821088 13.0081426,14.9908685 Z" id="路径"></path>
                <path d="M9.08783633,15.8936645 C9.08783633,16.2872965 9.28728871,16.6063982 9.53332569,16.6063982 C9.77936267,16.6063982 9.97881505,16.2872965 9.97881505,15.8936645 C9.97881505,15.5000326 9.77936267,15.1809308 9.53332569,15.1809308 C9.28728871,15.1809308 9.08783633,15.5000326 9.08783633,15.8936645 Z" id="路径"></path>
                <path d="M13.8100235,14.9908685 C13.8100235,15.3582584 13.996179,15.6560867 14.2258136,15.6560867 C14.4554481,15.6560867 14.6416036,15.3582584 14.6416036,14.9908685 C14.6416036,14.6234787 14.4554481,14.3256504 14.2258136,14.3256504 C13.996179,14.3256504 13.8100235,14.6234787 13.8100235,14.9908685 Z" id="路径"></path>
                <path d="M19.8389794,7.33492069 L18.9183014,7.33492069 C18.7222861,7.33492069 18.5619099,6.91902305 18.5619099,6.41070374 L18.5619099,3.56103471 C18.5619099,3.05271536 18.7222861,2.63681772 18.9183014,2.63681772 L19.8389794,2.63681772 C20.0349948,2.63681772 20.1953709,3.05271536 20.1953709,3.56103471 L20.1953709,6.41070374 C20.1953709,6.91902308 20.0349948,7.33492069 19.8389794,7.33492069 Z M3.23707613,7.33492069 L4.15775414,7.33492069 C4.35376946,7.33492069 4.51414562,6.91902305 4.51414562,6.41070374 L4.51414562,3.56103471 C4.51414562,3.05271536 4.35376945,2.63681772 4.15775414,2.63681772 L3.23707613,2.63681772 C3.04106081,2.63681772 2.88068466,3.05271536 2.88068466,3.56103471 L2.88068466,6.41070374 C2.88068466,6.91902308 3.04106082,7.33492069 3.23707613,7.33492069 L3.23707613,7.33492069 Z" id="形状"></path>
                <path d="M13.7899468,7.76745327 L20.0171752,4.9858692 L19.8155509,7.33492069 L13.9292364,9.69501956 L13.7899468,7.76745327 Z M3.16072796,7.33492069 L2.97080562,4.9858692 L9.2858712,7.76339356 L9.14658153,9.69103236 L3.16072796,7.33492069 Z" id="形状"></path>
                <path d="M13.7149858,9.94012797 L9.36403974,9.94012797 C9.21257336,9.94012797 9.08783633,9.74531408 9.08783633,9.49823306 L9.08783633,6.20998934 C9.08783633,5.96765989 9.20960343,5.76809444 9.36403974,5.76809444 L13.7149858,5.76809444 C13.8664521,5.76809444 13.9911892,5.96290832 13.9911892,6.20998934 L13.9911892,9.49823306 C13.9882192,9.74531408 13.8664521,9.94012797 13.7149858,9.94012797 Z" id="路径"></path>
            </g>
        </g>
    </g>
</svg>