<?xml version="1.0" standalone="no"?>
<!DOCTYPE svg PUBLIC "-//W3C//DTD SVG 1.1//EN" "http://www.w3.org/Graphics/SVG/1.1/DTD/svg11.dtd">
<svg t="1714986340735" class="icon" viewBox="0 0 1024 1024" version="1.1" xmlns="http://www.w3.org/2000/svg" p-id="16239" 
xmlns:xlink="http://www.w3.org/1999/xlink" width="50" height="50">
<path d="M711.948791 608.47913a94.600698 94.600698 0 0 1-7.971969 6.20042l-3.779304 2.775427c-181.052272 127.964864-199.476378 277.365467-201.070772 317.107208l-0.059051-1.181032c-10.865498-161.329031-141.015273-271.932718-187.961312-306.773175a341.318374 341.318374 0 1 1 400.842408-18.128848zM499.008643 944.719064s-0.177155-3.661201 0.118103-10.21593c13.10946 195.224661-0.118103 10.215931-0.118103 10.21593z" fill="#1973E8" p-id="16240"></path><path d="M499.067695 0.424581a341.259322 341.259322 0 0 1 204.909127 614.254969l-3.779304 2.775427c-11.633169 8.208175-22.971081 16.770661-34.013734 25.805558l-405.094125-546.109397A340.137341 340.137341 0 0 1 499.126746 0.483633z" fill="#4B9AFF" p-id="16241"></path><path d="M643.685116 209.821632h-11.692221c-3.306891 0-6.082317-4.36982-6.082317-9.743518 0-5.314646 2.775426-9.802569 6.082317-9.802569h11.63317c3.365942 0 6.141369 4.36982 6.141368 9.802569 0 5.373698-2.775426 9.743518-6.141368 9.743518zM339.0378 209.821632h11.633169c3.424994 0 6.141369-4.36982 6.141369-9.743518 0-5.314646-2.716375-9.802569-6.141369-9.802569h-11.633169c-3.365942 0-6.082317 4.36982-6.082317 9.802569 0 5.373698 2.716375 9.743518 6.082317 9.743518z" fill="#FFFFFF" p-id="16242"></path><path d="M353.564499 197.420791H415.15534v8.73964H353.564499zM645.98813 197.420791h61.590841v8.73964H645.98813zM275.793513 197.420791h61.590842v8.73964H275.793513zM568.276196 197.420791h61.590841v8.73964H568.276196zM506.508199 426.42298h-30.23443c-4.72413 0-8.503434-6.023265-8.503434-13.581873v-67.909365c0-7.440504 3.779304-13.581873 8.503434-13.581873h30.23443c4.665078 0 8.444382 6.023265 8.444382 13.581873v67.909365c0 7.558608-3.779304 13.581873-8.444382 13.581873zM514.952581 359.812751h48.77664v13.345667H514.952581zM521.566363 373.158418h18.896519v36.375798h-18.896519zM545.305115 460.141456h-22.55772c-4.310768 0-7.853866-5.609904-7.853866-12.577995v-19.30988c0-6.90904 3.484046-12.577995 7.853866-12.577996h22.55772c4.36982 0 7.912917 5.609904 7.912917 12.577996v19.30988c0 6.968091-3.543097 12.577995-7.912917 12.577995z" fill="#FFFFFF" p-id="16243"></path><path d="M526.585751 437.111324h7.735762v9.625414h-7.735762v-9.625414zM418.934644 358.926977h48.835691v20.609016h-48.835691V358.867925z" fill="#FFFFFF" p-id="16244"></path><path d="M441.138054 372.272643h18.896519v36.375799H441.138054zM464.345341 478.742717h-21.49479c-3.424994 0-6.20042-4.36982-6.20042-9.920672v-28.108572c0-5.491801 2.775426-9.979724 6.20042-9.979724h21.49479c3.424994 0 6.20042 4.487923 6.200421 9.979724v28.108572c0 5.550852-2.775426 9.979724-6.200421 9.979724z" fill="#FFFFFF" p-id="16245"></path><path d="M446.688906 408.648442h8.857744v22.20341h-8.857744v-22.20341z m90.053724-102.867925l7.617659-4.428872 54.032234 237.682778-7.558608 4.487923-54.091285-237.741829z" fill="#FFFFFF" p-id="16246"></path><path d="M584.279185 536.495203c0 8.267227 4.251717 15.058164 9.448259 15.058164 5.196543 0 9.448259-6.731885 9.44826-15.058164 0-8.326279-4.251717-15.117215-9.44826-15.117215-5.196543 0-9.448259 6.790936-9.448259 15.117215zM384.271342 539.152526l54.091286-237.741829 7.617659 4.428872-54.091286 237.741829z" fill="#FFFFFF" p-id="16247"></path><path d="M379.547212 536.495203c0 8.267227 4.192665 15.058164 9.44826 15.058164 5.196543 0 9.448259-6.731885 9.448259-15.058164 0-8.326279-4.251717-15.117215-9.448259-15.117215-5.255594 0-9.448259 6.790936-9.44826 15.117215zM441.72857 454.354397c0 10.57024 5.314646 19.132725 11.869376 19.132726 6.613782 0 11.928428-8.562485 11.928428-19.132726 0-10.511189-5.314646-19.073674-11.928428-19.073673-6.55473 0-11.928428 8.562485-11.928427 19.073673zM518.790936 437.997098c0 3.129736 1.062929 6.082317 2.775427 7.676711 1.771549 1.535342 3.838355 1.535342 5.550852 0 1.771549-1.594394 2.775426-4.546975 2.775426-7.676711 0-3.188788-1.062929-6.141369-2.775426-7.735762-1.712497-1.594394-3.838355-1.594394-5.550852 0-1.712497 1.594394-2.775426 4.546975-2.775427 7.676711z" fill="#FFFFFF" p-id="16248"></path><path d="M445.566926 454.82681c0 7.322401 3.720252 13.286615 8.326278 13.286615 4.606026 0 8.267227-5.905162 8.267227-13.286615s-3.661201-13.345667-8.267227-13.345666c-4.606026 0-8.267227 5.964214-8.267227 13.345666zM533.790048 437.997098c0 6.790936 3.484046 12.400841 7.794814 12.400841 4.251717 0 7.735762-5.609904 7.735763-12.400841 0-6.90904-3.484046-12.459892-7.735763-12.459892-4.310768 0-7.794814 5.550852-7.794814 12.400841zM646.401491 294.915019h-17.184022c-3.661201 0-6.672833-7.735762-6.672833-17.243074v-53.264563c0-9.448259 3.011633-17.243074 6.672833-17.243073h17.184022c3.661201 0 6.672833 7.735762 6.672833 17.243073v53.264563c0 9.448259-2.952581 17.243074-6.672833 17.243074z m-310.139117 0h17.184022c3.661201 0 6.672833-7.735762 6.672833-17.243074v-53.264563c0-9.448259-2.952581-17.243074-6.672833-17.243073h-17.124971c-3.720252 0-6.731885 7.735762-6.731885 17.243073v53.264563c0 9.448259 3.011633 17.243074 6.672834 17.243074z" fill="#FFFFFF" p-id="16249"></path><path d="M533.435739 303.005091l116.331694-51.965427-3.779303 43.875355-109.95412 44.111561-2.598271-36.021489zM334.845135 294.915019l-3.543097-43.875355 117.98514 51.906375-2.598272 36.02149L334.845135 294.915019z" fill="#FFFFFF" p-id="16250"></path><path d="M532.0185 343.573555H450.704417c-2.775426 0-5.137491-3.602149-5.137491-8.267227v-61.413687c0-4.487923 2.303013-8.267227 5.137491-8.267227H532.077551c2.834478 0 5.137491 3.661201 5.137491 8.267227v61.413687c0 4.665078-2.362065 8.267227-5.137491 8.267227z" fill="#FFFFFF" p-id="16251"></path>
</svg>