<?xml version="1.0" encoding="UTF-8"?>
<svg width="50px" height="50px" viewBox="0 0 50 50" version="1.1" xmlns="http://www.w3.org/2000/svg" xmlns:xlink="http://www.w3.org/1999/xlink">
    <title>wurenjiku</title>
    <g id="wurenjiku" stroke="none" stroke-width="1" fill="none" fill-rule="evenodd">
        <g id="-s-renkou备份-2" transform="translate(7.000000, 0.000000)" fill-rule="nonzero">
            <path d="M29.6673832,32.5479877 C29.5313248,32.6665391 29.3890276,32.7777342 29.2411005,32.8810971 C29.1747222,32.9310331 29.106517,32.9785332 29.0389207,33.0272511 C19.3464709,39.8770046 18.36054,47.8740674 18.2765014,50 C18.2765014,49.9780769 18.2765014,49.9598076 18.2722386,49.9391024 C17.6906672,41.3026157 10.7258175,35.3845943 8.21135866,33.5199121 C1.60455138,29.162079 -1.44487898,21.045697 0.657892539,13.4155618 C2.76066406,5.78542655 9.537364,0.37700534 17.4438385,0.0188543663 C25.3503131,-0.339296607 32.5882418,4.43428377 35.3722524,11.8430554 C38.1562629,19.251827 35.8531347,27.6106716 29.6673832,32.5479877 L29.6673832,32.5479877 Z" id="形状" fill="#2980F1"></path>
            <g id="gudingwurenjijichang备份" transform="translate(6.429145, 10.395754)" fill="#FFFFFF">
                <path d="M18.7288662,13.6632689 C18.7288662,15.0272321 17.6040301,16.1328916 16.2164102,16.1328916 L7.67372858,16.1328916 C6.28610868,16.1328916 5.16127258,15.0272321 5.16127258,13.6632689 L5.16127258,9.33609822 L18.7288662,9.33609822 L18.7288662,13.6632689 Z M6.29190538,9.3032676 L4.06319511e-08,9.3032676 L4.06319511e-08,9.0563596 C-8.46688631e-05,8.72885185 0.132285535,8.41474438 0.367952602,8.1832278 C0.603585977,7.95172757 0.923075594,7.82164084 1.25622808,7.82154829 L6.29190538,7.82154829 L6.29190538,9.3032676 L6.29190538,9.3032676 Z M10.437375,7.78953164 L10.437375,8.56254361 L8.92995658,8.56254361 L8.92995658,7.78953164 L10.437375,7.78953164 Z M14.9599062,7.78953164 L14.9599062,8.56254361 L13.4524878,8.56254361 L13.4524878,7.78953164 L14.9599062,7.78953164 Z M17.7080947,7.82154829 L22.743772,7.82154829 C23.43772,7.82154829 24,8.37424234 24,9.0563596 L24,9.3032676 L17.7080947,9.3032676 L17.7080947,7.82154829 Z M17.2211718,6.24269374 L17.2211718,7.01624836 L6.66869097,7.01624836 L6.66869097,6.2432364 L17.2211718,6.2432364 L17.2211718,6.24269374 Z M11.8209361,0.805460645 C12.0303985,0.77977685 12.2265821,0.818934111 12.4154838,0.899353862 C12.6095257,0.981878842 12.7701564,1.11029782 12.902516,1.26945313 C12.9749069,1.35282021 13.0254521,1.45345016 13.090561,1.54060664 C13.1059816,1.55997475 13.1462463,1.56923775 13.1745173,1.56923775 L15.3072644,1.57007985 L15.6221005,1.57007985 L15.6221005,0.962510734 L16.7156742,0.962510734 L16.7156742,1.56713253 C16.852832,1.56126392 16.9827747,1.62769502 17.0566395,1.74144549 C17.1842874,1.94565271 17.0536411,2.20501694 16.8274731,2.26648963 C16.3794206,2.38522455 15.9356516,2.52248548 15.4901692,2.65258864 L14.3456221,2.9839517 C14.325918,2.98984634 14.3045006,2.99363575 14.2638075,3.00121457 C14.3426236,3.06816086 14.4090176,3.12500204 14.4779817,3.17847486 L15.1252163,3.68457193 C15.2751382,3.80035953 15.4224901,3.91909445 15.5745538,4.03235578 C15.6816409,4.10814402 15.7450365,4.22940522 15.7450365,4.35908733 C15.7488917,4.76160713 15.7458932,5.1620217 15.7458932,5.56327836 C15.7334711,5.79695879 15.5449978,5.98432418 15.3072644,5.99948183 C15.1247879,6.00158706 14.9046168,5.87106285 14.8609253,5.66980295 C14.8540717,5.64369811 14.8502166,5.61717223 14.8502166,5.59022529 C14.8502166,5.29212486 14.8485032,4.99234024 14.8510733,4.6942398 C14.8519299,4.64160907 14.833511,4.61297796 14.7906761,4.58982044 C14.4741266,4.41719165 14.1571487,4.24498391 13.8423126,4.0702499 C13.7352255,4.01298767 13.6319935,3.95151498 13.5214796,3.8892002 C13.0897043,4.32414053 12.5585522,4.52624252 11.9481556,4.52750565 C11.3534015,4.54055618 10.7797941,4.3104813 10.364123,3.89214752 L9.93620286,4.13003841 L9.110347,4.58224161 C9.06151527,4.60918854 9.04823647,4.64160907 9.04823647,4.69550294 C9.05080656,4.97423527 9.05080656,5.2529676 9.04823647,5.53169993 C9.05551839,5.6950657 8.97156209,5.84958952 8.82892205,5.93421972 C8.70384429,6.01000797 8.5492105,6.02095516 8.41470907,5.96369293 C8.28010971,5.90602517 8.18269556,5.78731613 8.15384485,5.64580334 C8.14399284,5.59780412 8.13928101,5.54854176 8.13928101,5.4992794 C8.13756761,5.13718 8.13928101,4.77213327 8.13756761,4.40919178 C8.13328413,4.24793123 8.21338529,4.09593369 8.35002846,4.00667198 C8.52051115,3.88330556 8.68114183,3.74688671 8.84734103,3.61762565 C9.00325988,3.49299609 9.16303386,3.36836652 9.32109445,3.24584219 L9.62607856,3.01005654 C9.49029209,2.968373 9.35407728,2.92711051 9.21743412,2.8875322 C8.97370383,2.81553337 8.7304019,2.7469029 8.48624327,2.67658825 C8.03604902,2.54816928 7.58585478,2.4197503 7.13608888,2.28669982 C7.04913414,2.25975289 6.96731958,2.22017459 6.8923586,2.168807 C6.76942258,2.08628202 6.76171231,1.89470617 6.80968734,1.78439217 C6.86339271,1.65586968 6.99003582,1.57133324 7.13137705,1.5696588 L7.16650162,1.56586939 L7.16650162,0.962089689 L8.26093197,0.962089689 L8.26093197,1.39997734 C8.26178867,1.45639748 8.24808152,1.5246069 8.27549582,1.56376416 C8.29220141,1.58860586 8.37487267,1.5696588 8.42755953,1.5696588 L10.6978064,1.57050089 C10.7504933,1.57050089 10.7834761,1.56081684 10.8147456,1.50734402 C10.9479664,1.26400073 11.150192,1.06390631 11.3968712,0.931353344 C11.5266607,0.861459739 11.6697291,0.825249799 11.8200794,0.805881691 L11.8200794,0.805460645 L11.8209361,0.805460645 Z M11.9430759,3.09484328 C11.8745882,3.09342657 11.8085303,3.11979912 11.7604439,3.16775609 C11.7123576,3.21571307 11.6864883,3.28102041 11.6889225,3.34831286 C11.6914926,3.50466121 11.7948674,3.59476501 11.9447893,3.59953687 C12.0915701,3.60346663 12.1980861,3.48697728 12.202084,3.34831286 C12.2015128,3.20796426 12.0850021,3.09428189 11.9422192,3.09484328 L11.9430759,3.09484328 Z M16.2329254,0.000446960667 C16.427824,0.112187128 16.522489,0.306615018 16.6150123,0.513110846 C16.7135324,0.410309893 16.8039139,0.312872467 16.898579,0.218116806 C16.9568344,0.159117998 17.0193732,0.101013111 17.0874806,0.0554231228 C17.1341706,0.0250297974 17.1945678,0.0178784267 17.2493964,0.000446960667 L18.6004074,0.000446960667 C18.6706566,0.0277115614 18.7464743,0.0411203814 18.8090132,0.0817938021 C18.9422295,0.171185936 18.9983432,0.345500596 18.9435146,0.501042908 C18.8965571,0.648038582 18.7655943,0.747928182 18.617113,0.75 C16.983392,0.746871275 15.3518126,0.746871275 13.7180915,0.75 C13.4782164,0.75 13.3163007,0.471543504 13.4161059,0.238230036 C13.4632242,0.105929678 13.5831618,0.017431466 13.7180915,0.0151966627 C13.7258018,0.0151966627 13.7326554,0.00715137068 13.7412224,0.000893921335 L15.0922334,0.000893921335 C15.1012288,0.00581048868 15.108939,0.0151966627 15.1157926,0.0151966627 C15.2228797,0.0102800954 15.3021242,0.0630214541 15.3710883,0.14034565 C15.4833156,0.266388558 15.5912594,0.394666269 15.70263,0.521603099 C15.8050053,0.294994041 15.9013837,0.107717521 16.0954256,0 L16.2329254,0 L16.2329254,0.000446960667 Z M6.63920465,0.0017397577 C6.70559866,0.0250790755 6.78527148,0.032260404 6.8341032,0.0753483753 C6.97074637,0.196982128 7.09325403,0.330734372 7.22218692,0.461344785 C7.23974921,0.479746939 7.25902489,0.498149093 7.28258406,0.519693079 C7.34773787,0.307946745 7.47919779,0.125444345 7.65567558,0.0017397577 L7.79317544,0.0017397577 C7.98935904,0.109908519 8.08745084,0.300213725 8.17140714,0.522386077 C8.1975364,0.487825934 8.21509869,0.459100619 8.23865785,0.434414803 C8.33417956,0.332080871 8.4344131,0.235132935 8.52607968,0.130106005 C8.60018396,0.045276562 8.69870411,0.0291185728 8.79508252,0.00129092466 L10.1897852,0.00129092466 C10.2934455,0.0389928995 10.3915373,0.0789390396 10.4510777,0.187107801 C10.5200418,0.317718214 10.5268954,0.447430961 10.4519344,0.577143707 C10.3948009,0.687933059 10.2824568,0.754975781 10.1623709,0.749944426 L7.37981916,0.749944426 L5.26463439,0.750842092 C5.12456444,0.750842092 5.03289787,0.675438142 4.97035899,0.557843887 C4.90837707,0.448245207 4.91069761,0.31138597 4.97635587,0.204163456 C5.03392617,0.0927377621 5.14298215,0.0210414778 5.2637777,0.0152047487 C5.27234467,0.0152047487 5.27919824,0.00712575411 5.28690851,0.000842091629 L6.63920465,0.000842091629 L6.63920465,0.0017397577 Z" id="形状"></path>
            </g>
        </g>
    </g>
</svg>