<?xml version="1.0" standalone="no"?><!DOCTYPE svg PUBLIC "-//W3C//DTD SVG 1.1//EN" "http://www.w3.org/Graphics/SVG/1.1/DTD/svg11.dtd"><svg t="1737012179909" class="icon" viewBox="0 0 1024 1024" version="1.1" xmlns="http://www.w3.org/2000/svg" p-id="16773" xmlns:xlink="http://www.w3.org/1999/xlink" width="200" height="200"><path d="M0 512c0 282.752 229.248 512 512 512s512-229.248 512-512S794.752 0 512 0 0 229.248 0 512z" fill="#000000" p-id="16774"></path><path d="M42.026667 512c0 259.584 210.389333 469.973333 469.973333 469.973333 259.584 0 469.973333-210.389333 469.973333-469.973333C981.973333 252.416 771.584 42.026667 512 42.026667 252.416 42.026667 42.026667 252.416 42.026667 512z" fill="#FFFFFF" p-id="16775"></path><path d="M82.261333 514.858667C82.261333 752.213333 274.688 944.64 512 944.64c237.354667 0 429.738667-192.426667 429.738667-429.738667 0-237.354667-192.426667-429.738667-429.738667-429.738666-237.354667 0-429.738667 192.426667-429.738667 429.738666z" fill="#7493BF" p-id="16776"></path><path d="M759.808 510.890667L378.88 301.354667a11.434667 11.434667 0 0 0-10.410667-2.304 10.752 10.752 0 0 0-7.509333 7.168L289.28 423.168a11.818667 11.818667 0 0 0-1.237333 9.557333 12.458667 12.458667 0 0 0 6.4 7.509334l311.978666 170.581333a17.066667 17.066667 0 0 0 15.36 0l140.757334-77.994667c7.68-2.432 7.68-14.634667-2.56-21.930666h-0.170667z m0 0l-56.32 92.586666-76.757333 43.861334a11.946667 11.946667 0 0 1-12.8 0L307.2 479.232a15.573333 15.573333 0 0 0-14.933333-0.256 14.122667 14.122667 0 0 0-7.68 12.202667 14.08 14.08 0 0 0 7.253333 12.373333L422.4 574.293333l-33.28 56.021334a38.912 38.912 0 0 1-23.04 9.770666H307.2v-36.565333a11.178667 11.178667 0 0 0-3.498667-8.832 12.416 12.416 0 0 0-9.301333-3.328h-25.6a12.416 12.416 0 0 0-9.258667 3.328 11.178667 11.178667 0 0 0-3.498666 8.832V725.333333a11.178667 11.178667 0 0 0 3.498666 8.832 12.416 12.416 0 0 0 9.258667 3.328h25.6a12.416 12.416 0 0 0 9.301333-3.328A11.178667 11.178667 0 0 0 307.2 725.333333v-36.565333h74.24a49.92 49.92 0 0 0 43.52-24.362667l40.917333-65.792 143.317334 77.952a28.928 28.928 0 0 0 28.16 0c25.6-14.592 79.317333-48.725333 79.317333-48.725333a14.848 14.848 0 0 0 5.12-19.498667 15.061333 15.061333 0 0 0-17.92-4.864l55.936-92.586666z" fill="#FFFFFF" p-id="16777"></path></svg>