<?xml version="1.0" standalone="no"?><!DOCTYPE svg PUBLIC "-//W3C//DTD SVG 1.1//EN" "http://www.w3.org/Graphics/SVG/1.1/DTD/svg11.dtd"><svg t="1734403340121" class="icon" viewBox="0 0 1024 1024" version="1.1" xmlns="http://www.w3.org/2000/svg" p-id="19449" xmlns:xlink="http://www.w3.org/1999/xlink" width="200" height="200"><path d="M0 512c0 282.752 229.248 512 512 512s512-229.248 512-512S794.752 0 512 0 0 229.248 0 512z" fill="#000000" p-id="19450"></path><path d="M42.026667 512c0 259.584 210.389333 469.973333 469.973333 469.973333 259.584 0 469.973333-210.389333 469.973333-469.973333C981.973333 252.416 771.584 42.026667 512 42.026667 252.416 42.026667 42.026667 252.416 42.026667 512z" fill="#FFFFFF" p-id="19451"></path><path d="M82.261333 514.858667C82.261333 752.213333 274.688 944.64 512 944.64c237.354667 0 429.738667-192.426667 429.738667-429.738667 0-237.354667-192.426667-429.738667-429.738667-429.738666-237.354667 0-429.738667 192.426667-429.738667 429.738666z" fill="#218461" p-id="19452"></path><path d="M768 452.650667c0-16.128-12.8-29.184-28.16-29.184h-33.749333l-24.32-65.749334c-6.144-16.384-24.32-33.536-40.704-38.4 0 0-42.197333-12.544-129.194667-12.544s-128.938667 12.544-128.938667 12.544c-16.128 4.864-34.56 22.016-40.704 38.4l-24.32 65.749334H284.16c-15.36 0-28.16 13.056-28.16 29.184 0 16.128 12.8 29.141333 28.16 29.141333h12.032l-8.704 23.296a209.578667 209.578667 0 0 0-11.008 61.44v137.898667c0 20.48 16.128 37.12 35.84 37.12 19.669333 0 35.797333-16.64 35.797333-37.12v-21.248h327.509334v21.248c0 20.48 16.128 37.12 35.84 37.12 19.669333 0 35.84-16.64 35.84-37.12V566.485333c0-17.365333-4.906667-45.269333-11.050667-61.397333l-8.704-23.296h12.032A28.842667 28.842667 0 0 0 768 452.693333z m-421.418667 8.704l28.672-80.853334a15.786667 15.786667 0 0 1 13.781334-9.984h245.674666a15.786667 15.786667 0 0 1 13.781334 9.984l28.672 80.853334c2.048 5.376-1.024 9.984-6.656 9.984H353.28c-5.632-0.256-8.704-4.608-6.656-9.984z m24.576 126.378666a38.314667 38.314667 0 1 1 0-76.757333c21.205333 0 38.4 17.408 38.4 38.4 0 21.205333-17.194667 38.4-38.4 38.4z m281.429334 0a38.314667 38.314667 0 1 1 0-76.757333 38.314667 38.314667 0 1 1 0 76.8z" fill="#FFFFFF" p-id="19453"></path></svg>