<?xml version="1.0" standalone="no"?><!DOCTYPE svg PUBLIC "-//W3C//DTD SVG 1.1//EN" "http://www.w3.org/Graphics/SVG/1.1/DTD/svg11.dtd"><svg t="1740551648336" class="icon" viewBox="0 0 1024 1024" version="1.1" xmlns="http://www.w3.org/2000/svg" p-id="30132" xmlns:xlink="http://www.w3.org/1999/xlink" width="128" height="128"><path d="M73.824445 363.584325h874.647142l0.170397 660.415675H73.781845L73.654048 425.39579z" fill="#000000" p-id="30133"></path><path d="M927.129378 384.883934H94.996256l-0.085199 57.934936 0.170397 559.881521H927.342375z" fill="#4D6BFE" p-id="30134"></path><path d="M307.779349 551.915467a139.725435 139.725435 0 1 0-2.981945 279.40827 139.725435 139.725435 0 0 0 2.981945-279.40827zM715.794658 551.915467a139.725435 139.725435 0 1 0-2.981945 279.40827 139.725435 139.725435 0 0 0 2.981945-279.40827z" fill="#000000" p-id="30135"></path><path d="M306.245778 571.042516a119.27781 119.27781 0 1 0 3.024544 238.55562 119.27781 119.27781 0 0 0-2.981945-238.55562zM714.346285 571.042516a119.27781 119.27781 0 1 0 2.981945 238.55562 119.27781 119.27781 0 0 0-2.981945-238.55562z" fill="#4D6BFE" p-id="30136"></path><path d="M324.904235 0.340794c27.476496 0 49.968883 17.806473 52.82303 40.554455l0.298195 4.941509V316.938181c0 25.090939-23.685165 45.453366-53.121225 45.453366-27.476496 0-49.968883-17.721275-52.82303-40.469257L271.740411 316.938181V45.836758c0-25.090939 23.727764-45.495965 53.163824-45.495964zM729.809801 0.340794c27.433896 0 49.968883 17.806473 52.82303 40.554455l0.298195 4.941509V316.938181c0 25.090939-23.685165 45.453366-53.121225 45.453366-27.476496 0-49.968883-17.721275-52.82303-40.469257l-0.340794-4.984109V45.836758c0-25.090939 23.727764-45.495965 53.163824-45.495964z" fill="#000000" p-id="30137"></path><path d="M324.904235 21.640403c-13.802147 0-25.303935 8.73284-27.476496 20.234628l-0.383393 3.961727V316.938181c0 13.418754 12.52417 24.153757 27.859889 24.153757 13.802147 0 25.303935-8.69024 27.476496-20.19203l0.340793-3.961727V45.836758c0-13.418754-12.481571-24.196356-27.817289-24.196355zM729.809801 21.640403c-13.802147 0-25.303935 8.73284-27.476495 20.234628l-0.383393 3.961727V316.938181c0 13.418754 12.52417 24.153757 27.859888 24.153757 13.802147 0 25.303935-8.69024 27.476496-20.19203l0.340793-3.961727V45.836758c0-13.418754-12.481571-24.196356-27.817289-24.196355z" fill="#4D6BFE" p-id="30138"></path></svg>