<?xml version="1.0" standalone="no"?><!DOCTYPE svg PUBLIC "-//W3C//DTD SVG 1.1//EN" "http://www.w3.org/Graphics/SVG/1.1/DTD/svg11.dtd"><svg t="1753682424335" class="icon" viewBox="0 0 1024 1024" version="1.1" xmlns="http://www.w3.org/2000/svg" p-id="95452" xmlns:xlink="http://www.w3.org/1999/xlink" width="128" height="128"><path d="M484.140013 14.342133L220.174105 322.252584l295.239063-57.426557L810.652232 322.252584 545.875696 13.360848l-2.901193-2.901194a41.384666 41.384666 0 0 0-58.791825 3.882479z m35.752939 23.721521l196.555833 229.322249-197.579784-38.398144H512l-197.622448 38.398144L511.360031 37.679672a5.37574 5.37574 0 0 1 7.551635-0.597304l0.981286 0.981286z" fill="#000000" p-id="95453"></path><path d="M518.655678 36.143746l205.558065 239.775078a4.26646 4.26646 0 0 1-4.053137 6.996995l-201.462263-39.166107a4.26646 4.26646 0 0 0-0.853292-0.042665h-4.863765a4.26646 4.26646 0 0 0-0.810628 0.042665l-201.504927 39.166107a4.26646 4.26646 0 0 1-4.053137-6.95433l205.600729-239.775078a4.26646 4.26646 0 0 1 6.442355 0z" fill="#C274C2" p-id="95454"></path><path d="M512 1024c235.636611 0 426.646045-191.009435 426.646045-426.646045S747.636611 170.707909 512 170.707909 85.353955 361.717344 85.353955 597.353955s191.009435 426.646045 426.646045 426.646045z" fill="#000000" p-id="95455"></path><path d="M120.33893 597.353955a391.66107 391.66107 0 1 0 783.32214 0 391.66107 391.66107 0 0 0-783.32214 0z" fill="#FFFFFF" p-id="95456"></path><path d="M153.873309 599.743172a358.126691 358.126691 0 1 0 716.253382 0 358.126691 358.126691 0 0 0-716.253382 0z" fill="#C274C2" p-id="95457"></path><path d="M564.477464 656.017786l67.92205 67.964715a30.462528 30.462528 0 0 0 3.157181 24.190831l-16.937848 16.937848a7.252983 7.252983 0 0 0 0 10.239505 7.252983 7.252983 0 0 0 10.239505 0l16.937848-16.895184c11.647437 6.996995 27.092024 5.546399 37.118206-4.479783a30.419863 30.419863 0 0 0 4.437119-37.118206l16.937848-16.895184a7.252983 7.252983 0 0 0 0-10.239505 7.252983 7.252983 0 0 0-10.239505 0l-16.937848 16.895184a30.505192 30.505192 0 0 0-24.233496-3.114516l-68.007379-67.922051a70.14061 70.14061 0 0 0 0-76.454971l67.964715-67.964715c8.106275 2.303889 16.895183 1.279938 24.233495-3.157181l16.895183 16.937848a7.252983 7.252983 0 0 0 10.239505 0 7.252983 7.252983 0 0 0 0-10.239505l-16.895183-16.937848a30.419863 30.419863 0 0 0-4.479783-37.118206 30.419863 30.419863 0 0 0-37.118206-4.437119l-16.895184-16.937848a7.252983 7.252983 0 0 0-10.239505 0 7.252983 7.252983 0 0 0 0 10.239505l16.937848 16.937848a30.505192 30.505192 0 0 0-3.157181 24.190831l-67.92205 68.050044a70.14061 70.14061 0 0 0-76.454971 0L420.015113 470.640079a30.462528 30.462528 0 0 0-3.157181-24.190831l16.937848-16.937848a7.252983 7.252983 0 0 0 0-10.239505 7.252983 7.252983 0 0 0-10.239505 0l-16.937848 16.937848a30.419863 30.419863 0 0 0-37.075542 4.479784 30.419863 30.419863 0 0 0-4.479783 37.075541l-16.895183 16.895183a7.252983 7.252983 0 0 0 0 10.239506 7.252983 7.252983 0 0 0 10.239505 0l16.895183-16.895184c7.338312 4.437119 16.21255 5.461069 24.233495 3.157181l67.964715 67.964715a70.012616 70.012616 0 0 0 0 76.497636L399.536102 703.58882a30.462528 30.462528 0 0 0-24.233495 3.157181l-16.895183-16.937848a7.252983 7.252983 0 0 0-10.239505 0 7.252983 7.252983 0 0 0 0 10.239505l16.895183 16.937848a30.419863 30.419863 0 0 0 4.479783 37.075541c10.026182 9.983517 25.470769 11.519443 37.118206 4.479784l16.895184 16.895183a7.252983 7.252983 0 0 0 10.239505 0 7.252983 7.252983 0 0 0 0-10.239505l-16.980513-16.937848a30.505192 30.505192 0 0 0 3.157181-24.233496l67.964715-67.964715c23.16688 15.10327 53.330756 15.10327 76.497636-0.042664z" fill="#FFFFFF" p-id="95458"></path><path d="M576.423553 480.111621a7.03966 7.03966 0 0 0 6.698343-7.423641 71.24989 71.24989 0 0 1 121.423464-53.757402c13.43935 13.43935 20.862992 31.31582 20.862992 50.344234 0 19.028414-7.423641 36.904883-20.862992 50.344233-13.908661 13.908661-32.425099 21.332302-52.136146 20.820327a6.996995 6.996995 0 0 0-7.252983 6.826337 7.03966 7.03966 0 0 0 6.869001 7.252983l2.261224 0.085329a84.475917 84.475917 0 0 0 60.242422-25.001458c16.127221-16.084556 24.958794-37.502187 24.958793-60.285087s-8.831573-44.157866-24.958793-60.285086a85.371874 85.371874 0 0 0-145.486302 64.423553c0.170658 3.839814 3.413168 6.869001 7.338312 6.655678z m-100.261821 236.233916a7.03966 7.03966 0 0 0-6.826337 7.252982 71.24989 71.24989 0 0 1-121.508793 52.136147 71.24989 71.24989 0 0 1 53.757401-121.423464 7.03966 7.03966 0 0 0 7.380977-6.741008 7.03966 7.03966 0 0 0-6.741007-7.380976 85.371874 85.371874 0 0 0-64.423553 145.486301c16.68186 16.639196 38.526138 24.958794 60.32775 24.958794a84.902563 84.902563 0 0 0 60.327751-24.916129c16.639196-16.68186 25.513434-38.910119 24.958794-62.503646a7.082324 7.082324 0 0 0-7.252983-6.826337z m174.028922-76.156319a6.996995 6.996995 0 0 0-6.741007 7.380976 7.03966 7.03966 0 0 0 7.380976 6.741008 71.24989 71.24989 0 0 1 53.757402 121.423464 70.69525 70.69525 0 0 1-50.344233 20.820327c-18.985749 0-36.862218-7.380977-50.301569-20.820327-13.908661-13.908661-21.332302-32.425099-20.820327-52.136147a6.996995 6.996995 0 0 0-6.826337-7.252982 7.03966 7.03966 0 0 0-7.252983 6.869001l-0.085329 2.261224c0 22.782899 8.831573 44.072536 25.001458 60.242422 16.084556 16.084556 37.502187 24.958794 60.285087 24.958793s44.157866-8.874238 60.285086-24.958793a85.371874 85.371874 0 0 0-64.338224-145.528966z m-249.843924-85.627862a7.03966 7.03966 0 1 0-0.426646-14.121984 71.24989 71.24989 0 0 1-52.136147-121.508794 71.24989 71.24989 0 0 1 121.466129 53.757402 7.03966 7.03966 0 0 0 6.741008 7.423641 7.03966 7.03966 0 0 0 7.380976-6.741007 85.371874 85.371874 0 0 0-145.486301-64.423553c-16.639196 16.639196-24.958794 38.483473-24.958794 60.327751 0 21.844278 8.276933 43.688555 24.916129 60.285086 16.68186 16.724525 38.82479 25.598763 62.503646 25.001458z" fill="#FFFFFF" p-id="95459"></path></svg>