<?xml version="1.0" standalone="no"?><!DOCTYPE svg PUBLIC "-//W3C//DTD SVG 1.1//EN" "http://www.w3.org/Graphics/SVG/1.1/DTD/svg11.dtd"><svg t="1757488791894" class="icon" viewBox="0 0 1024 1024" version="1.1" xmlns="http://www.w3.org/2000/svg" p-id="8234" xmlns:xlink="http://www.w3.org/1999/xlink" width="200" height="200"><path d="M0 512c0 282.752 229.248 512 512 512s512-229.248 512-512S794.752 0 512 0 0 229.248 0 512z" fill="#000000" p-id="8235"></path><path d="M42.026667 512c0 259.584 210.389333 469.973333 469.973333 469.973333 259.584 0 469.973333-210.389333 469.973333-469.973333C981.973333 252.416 771.584 42.026667 512 42.026667 252.416 42.026667 42.026667 252.416 42.026667 512z" fill="#FFFFFF" p-id="8236"></path><path d="M82.261333 514.858667C82.261333 752.213333 274.688 944.64 512 944.64c237.354667 0 429.738667-192.426667 429.738667-429.738667 0-237.354667-192.426667-429.738667-429.738667-429.738666-237.354667 0-429.738667 192.426667-429.738667 429.738666z" fill="#7A93B6" p-id="8237"></path><path d="M277.077333 593.237333H227.242667v62.506667H213.333333v40.746667h13.824v30.378666h51.2c6.144 23.338667 27.221333 40.576 52.48 40.576 25.173333 0 46.293333-17.322667 52.48-40.576h172.501334v-30.378666h7.509333v26.666666h56.362667c4.821333 25.173333 26.922667 44.373333 53.461333 44.373334 26.581333 0 48.64-19.114667 53.461333-44.373334h67.712v-26.666666H810.666667v-40.746667h-16.341334v-226.986667H563.328v226.901334h-7.509333V593.152H391.509333l-114.432 0.085333z m396.032 153.898667a34.133333 34.133333 0 1 1 0-68.266667 34.133333 34.133333 0 0 1 0 68.266667z m86.613334-287.317333v104.106666h-80v-104.106666h80zM330.88 747.136l0 0z" fill="#FFFFFF" p-id="8238"></path><path d="M525.568 482.389333a5.973333 5.973333 0 0 0 2.432-4.778666 6.954667 6.954667 0 0 0-2.090667-5.12L311.594667 258.133333a6.997333 6.997333 0 0 0-5.12-2.048c-1.706667 0-3.413333 1.024-4.821334 2.389334a159.402667 159.402667 0 0 0 7.552 216.362666 158.037333 158.037333 0 0 0 112.298667 46.378667c37.12 0 74.538667-12.714667 104.106667-38.826667z" fill="#FFFFFF" p-id="8239"></path><path d="M479.914667 476.245333c1.706667-0.725333 2.389333-2.773333 1.365333-4.48-0.682667-1.706667-2.773333-2.389333-4.48-1.365333-16.810667 8.917333-36.053333 13.397333-55.296 13.397333a120.576 120.576 0 0 1-85.504-35.413333 3.328 3.328 0 0 0-4.693333-0.085333l-0.128 0.128a3.328 3.328 0 0 0-0.085334 4.693333l0.085334 0.085333c23.936 24.021333 56.448 37.504 90.325333 37.461334 20.266667 0 40.533333-5.162667 58.410667-14.421334z m-36.096-71.125333a7.765333 7.765333 0 0 0 4.821333-4.437333l32.298667-88.277334a7.168 7.168 0 0 0-1.706667-7.210666 6.4 6.4 0 0 0-7.253333-1.706667l-87.893334 32.597333c-2.389333 0.725333-4.096 2.432-4.48 4.821334a6.144 6.144 0 0 0 1.706667 6.186666L437.333333 403.072c1.28 1.28 2.986667 2.048 4.778667 2.048h1.706667z m19.242666-83.456l-23.68 64.256-40.874666-40.874667 64.554666-23.381333z" fill="#FFFFFF" p-id="8240"></path><path d="M545.834667 296.277333c0-31.957333-26.112-58.026667-58.026667-58.026666a6.912 6.912 0 0 0-6.869333 6.826666c0 3.797333 3.072 6.869333 6.826666 6.869334a44.373333 44.373333 0 0 1 44.373334 44.330666c0 3.754667 3.072 6.826667 6.826666 6.826667 3.797333 0 6.869333-3.072 6.869334-6.826667z m-39.168 18.517334a26.538667 26.538667 0 0 0 0-37.077334 27.178667 27.178667 0 0 0-18.517334-7.552 25.941333 25.941333 0 0 0-26.112 26.112c0 7.210667 2.730667 13.738667 7.552 18.517334 5.12 4.821333 11.690667 7.552 18.56 7.552a27.136 27.136 0 0 0 18.517334-7.552z m-9.6-27.136c2.389333 2.090667 3.797333 5.162667 3.797333 8.618666a12.288 12.288 0 0 1-3.797333 8.576 12.416 12.416 0 0 1-17.493334 0 11.178667 11.178667 0 0 1-3.797333-8.576c0-3.114667 1.365333-6.186667 3.797333-8.618666a11.136 11.136 0 0 1 8.533334-3.754667c3.114667 0 6.229333 1.365333 8.96 3.754667zM450.346667 607.061333a6.826667 6.826667 0 0 0-0.341334-7.210666L382.037333 504.064c-1.066667-1.706667-3.456-2.773333-5.546666-2.773333a7.210667 7.210667 0 0 0-5.461334 2.773333L303.018667 599.850667a7.594667 7.594667 0 0 0-0.341334 7.253333 7.253333 7.253333 0 0 0 6.186667 3.754667h136.362667c2.389333 0 4.778667-1.365333 5.12-3.797334zM377.216 520.192l54.613333 76.928H322.261333l54.954667-76.928z" fill="#FFFFFF" p-id="8241"></path></svg>