<?xml version="1.0" standalone="no"?><!DOCTYPE svg PUBLIC "-//W3C//DTD SVG 1.1//EN" "http://www.w3.org/Graphics/SVG/1.1/DTD/svg11.dtd"><svg t="1758163675036" class="icon" viewBox="0 0 1024 1024" version="1.1" xmlns="http://www.w3.org/2000/svg" p-id="9003" xmlns:xlink="http://www.w3.org/1999/xlink" width="200" height="200"><path d="M0 512c0 282.752 229.248 512 512 512s512-229.248 512-512S794.752 0 512 0 0 229.248 0 512z" fill="#000000" p-id="9004"></path><path d="M42.026667 512c0 259.584 210.389333 469.973333 469.973333 469.973333 259.584 0 469.973333-210.389333 469.973333-469.973333C981.973333 252.416 771.584 42.026667 512 42.026667 252.416 42.026667 42.026667 252.416 42.026667 512z" fill="#FFFFFF" p-id="9005"></path><path d="M82.261333 514.858667C82.261333 752.213333 274.688 944.64 512 944.64c237.354667 0 429.738667-192.426667 429.738667-429.738667 0-237.354667-192.426667-429.738667-429.738667-429.738666-237.354667 0-429.738667 192.426667-429.738667 429.738666z" fill="#475A76" p-id="9006"></path><path d="M702.208 736c-24.96 0-45.312-22.016-45.312-49.066667 0-27.050667 20.352-49.066667 45.312-49.066666 24.96 0 45.312 22.016 45.312 49.066666 0 27.050667-20.309333 49.066667-45.312 49.066667z m0-77.226667c-14.336 0-26.026667 12.629333-26.026667 28.16 0 15.530667 11.690667 28.202667 26.026667 28.202667 14.378667 0 26.026667-12.672 26.026667-28.16 0-15.573333-11.648-28.245333-26.026667-28.245333z m-260.224 77.226667c-24.96 0-45.312-22.016-45.312-49.066667 0-27.050667 20.352-49.066667 45.312-49.066666 25.002667 0 45.312 22.016 45.312 49.066666 0 27.050667-20.309333 49.066667-45.312 49.066667z m0-77.226667c-14.378667 0-26.026667 12.629333-26.026667 28.16 0 15.530667 11.690667 28.202667 26.026667 28.202667 14.378667 0 26.026667-12.672 26.026667-28.16 0-15.573333-11.648-28.245333-26.026667-28.245333z" fill="#FFFFFF" p-id="9007"></path><path d="M691.328 686.933333c0 6.528 4.864 11.776 10.88 11.776 5.973333 0 10.88-5.248 10.88-11.776 0-6.485333-4.864-11.776-10.88-11.776-5.973333 0-10.88 5.290667-10.88 11.776zM431.104 686.933333c0 6.528 4.864 11.776 10.88 11.776 5.973333 0 10.88-5.248 10.88-11.776 0-6.485333-4.864-11.776-10.88-11.776-5.973333 0-10.88 5.290667-10.88 11.776zM325.845333 736c-25.002667 0-45.312-22.016-45.312-49.066667 0-27.050667 20.309333-49.066667 45.312-49.066666 24.96 0 45.312 22.016 45.312 49.066666 0 27.050667-20.352 49.066667-45.312 49.066667z m0-77.226667c-14.378667 0-26.026667 12.629333-26.026666 28.16 0 15.530667 11.648 28.202667 26.026666 28.202667 14.336 0 26.026667-12.672 26.026667-28.16 0-15.573333-11.690667-28.245333-26.026667-28.245333zM314.965333 579.114667c0 4.266667 2.048 8.106667 5.418667 10.24 3.413333 2.090667 7.509333 2.090667 10.88 0a11.989333 11.989333 0 0 0 5.461333-10.24 11.989333 11.989333 0 0 0-5.461333-10.197334 10.154667 10.154667 0 0 0-10.88 0 11.989333 11.989333 0 0 0-5.418667 10.24z" fill="#FFFFFF" p-id="9008"></path><path d="M230.613333 562.474667H575.573333v16.298666H230.613333v-16.298666z m260.949334-35.328h84.053333v16.298666H491.52v-16.298666zM216.064 447.061333l37.546667-22.954666 51.584 98.986666-37.546667 22.954667-51.626667-98.986667z m130.944-80l37.546667-22.954666 51.584 98.986666-37.546667 22.954667-51.626667-98.986667zM262.826667 418.474667l73.642666-44.970667 51.541334 98.986667L314.453333 517.418667 262.826667 418.474667zM394.666667 337.92c55.04-33.621333 102.485333-55.424 105.984-48.725333 3.498667 6.741333-38.272 39.424-93.312 73.045333m6.784 13.013333c55.04-33.621333 102.485333-55.466667 105.984-48.725333 3.498667 6.698667-38.272 39.424-93.312 73.045333m6.784 12.970667c55.04-33.621333 102.442667-55.424 105.941333-48.682667 3.498667 6.698667-38.229333 39.381333-93.269333 73.045334M366.634667 508.16l-44.416 23.082667v19.2h44.373333v-42.24z" fill="#FFFFFF" p-id="9009"></path><path d="M801.706667 636.714667h-4.053334v-69.546667a25.642667 25.642667 0 0 0-2.133333-10.197333 1498.965333 1498.965333 0 0 0-6.186667-14.250667l-39.808-89.216c-6.997333-15.616-21.632-25.6-37.674666-25.6h-89.173334c-15.573333 0-28.330667 13.824-28.330666 30.72v66.730667l0.128 1.664v103.936c0 6.570667-4.949333 11.946667-11.050667 11.946666-6.058667 0-11.050667-5.376-11.050667-11.946666v-41.941334H233.6c-1.621333 0-2.986667 1.408-2.986667 3.157334v43.690666h-11.093333c-3.413333 0-6.186667 2.986667-6.186667 6.656v21.589334c0 3.669333 2.773333 6.656 6.144 6.656h11.136v4.778666c0 10.538667 7.978667 19.114667 17.664 19.114667h19.925334a70.229333 70.229333 0 0 1-0.426667-7.68c0-35.498667 26.624-64.341333 59.349333-64.341333 26.88 0 49.578667 19.413333 56.917334 45.909333 7.296-26.538667 30.037333-45.909333 56.874666-45.909333 32.768 0 59.392 28.842667 59.392 64.298666 0 2.645333-0.170667 5.205333-0.469333 7.722667h142.933333c-0.298667-2.56-0.469333-5.12-0.469333-7.68 0-35.84 26.794667-64.938667 59.904-64.938667 33.109333 0 59.946667 29.056 59.946667 64.896 0 2.645333-0.213333 5.205333-0.469334 7.722667h27.904c5.034667-7.168 8.064-16.042667 8.064-25.685333H810.666667v-22.613334c0-5.290667-4.010667-9.642667-8.96-9.642666z m-37.802667-106.794667c0 5.418667-4.096 9.813333-9.088 9.813333H704.853333c-7.253333 0-13.141333-6.4-13.141333-14.165333V458.837333c0-8.618667 6.528-15.701333 14.506667-15.701333h8.96c7.850667 0 15.104 4.522667 19.072 11.861333l22.613333 42.026667c4.650667 8.618667 7.082667 18.474667 7.082667 28.458667v4.437333z" fill="#FFFFFF" p-id="9010"></path></svg>