<?xml version="1.0" standalone="no"?><!DOCTYPE svg PUBLIC "-//W3C//DTD SVG 1.1//EN" "http://www.w3.org/Graphics/SVG/1.1/DTD/svg11.dtd"><svg t="1757488784655" class="icon" viewBox="0 0 1024 1024" version="1.1" xmlns="http://www.w3.org/2000/svg" p-id="8072" xmlns:xlink="http://www.w3.org/1999/xlink" width="200" height="200"><path d="M0 512c0 282.752 229.248 512 512 512s512-229.248 512-512S794.752 0 512 0 0 229.248 0 512z" p-id="8073"></path><path d="M42.027 512c0 259.584 210.389 469.973 469.973 469.973S981.973 771.584 981.973 512 771.584 42.027 512 42.027 42.027 252.416 42.027 512z" fill="#FFFFFF" p-id="8074"></path><path d="M82.261 514.859C82.261 752.213 274.688 944.64 512 944.64c237.355 0 429.739-192.427 429.739-429.739 0-237.354-192.427-429.738-429.739-429.738-237.355 0-429.739 192.426-429.739 429.738z" fill="#8B3FAD" p-id="8075"></path><path d="M738.475 714.07L419.883 746.58 293.93 708.48l232.661-19.328z" fill="#FFFFFF" p-id="8076"></path><path d="M738.475 714.07v67.114H293.93V708.48l125.952 38.101z m-212.31-266.497l100.267 17.494v48.938l-107.861 13.227-74.923-2.773v-57.515l82.517-19.37z m27.52 9.387c-9.898 1.28-16.64 12.928-14.976 26.155 1.622 13.226 10.966 22.912 20.864 21.717 9.899-1.237 16.64-12.928 14.976-26.112-1.621-13.227-10.965-22.955-20.864-21.76z m30.72 21.76c-5.418 0.683-9.088 7.04-8.192 14.25 0.854 7.211 5.974 12.502 11.35 11.862 5.418-0.683 9.088-7.04 8.192-14.25-0.854-7.211-5.974-12.502-11.392-11.862z m23.467-2.603c-5.419 0.64-9.045 7.04-8.192 14.208 0.896 7.254 5.973 12.502 11.392 11.862 5.419-0.683 9.045-7.04 8.192-14.251-0.896-7.21-5.973-12.501-11.392-11.819z" fill="#FFFFFF" p-id="8077"></path><path d="M418.773 339.157c11.606 16.598 18.432 26.752 20.48 30.507 2.048 3.755 2.048 23.467 0 59.179l-16.512 34.73c-1.28 38.699-1.28 67.499 0 86.4 0.598 9.174 29.867 25.387 52.139 40.32 4.01 2.688 24.533 7.382 37.12 0 7.68-4.522 22.741-2.816 23.765-9.258 1.536-9.814 0-29.099 0-40.32l48.64-6.315c23.254-0.853 37.419-2.603 42.454-5.333 0.17 14.762 0.17 22.357 0 22.869-5.931 20.139-16.896 39.936-32.939 59.392l-216.576-3.968-38.827-79.317v-79.744l-4.821-11.307v-45.781l17.237-37.248 21.462-9.899z m131.712-30.165l-6.4-16.213 56.32-23.595h18.091l113.963 35.115v9.216l-53.76 17.066-40.406 1.622z" fill="#FFFFFF" p-id="8078"></path><path d="M406.87 607.36c1.962-9.813 1.962-5.973 0 11.52-0.171 1.493 4.309 1.408 4.138 3.03-0.128 0.938-4.01 1.791-4.139 2.858l-10.24 72.96c-8.362 2.859-13.653 4.267-16.042 4.267-3.542 0-12.928 7.381-2.603 10.368 10.283 2.986 45.781 6.997 83.157 6.997 37.334 0 137.046-4.096 139.52-6.997 2.859-3.286 0-10.368-5.546-10.368h-13.099l-11.179-76.075-3.84-1.707 3.84-2.304V607.36H406.87z m137.215-306.645l94.208 31.488 18.688 26.453c6.272 57.515 6.272 86.272 0 86.272-6.314 0-16.213 2.261-29.781 6.699l-105.813-18.262-75.947 18.262 15.19-22.656v-58.88l-10.155-15.531-6.827-9.43 100.437-44.415z m66.944 40.32c-18.005 2.218-30.208 23.466-27.264 47.488 2.944 24.021 19.926 41.685 37.974 39.466 17.962-2.218 30.165-23.466 27.221-47.488-2.944-23.978-19.925-41.642-37.93-39.466z m-61.653 21.76c-9.899 1.237-16.64 12.928-14.976 26.112 1.621 13.226 10.965 22.912 20.864 21.717 9.899-1.237 16.64-12.928 14.976-26.112-1.621-13.227-10.965-22.912-20.864-21.717z m1.707-46.678c-6.827 0.854-11.35 8.832-10.24 17.835 1.066 8.96 7.466 15.616 14.208 14.763 6.741-0.811 11.349-8.79 10.24-17.792-1.11-8.96-7.51-15.616-14.251-14.806z" fill="#FFFFFF" p-id="8079"></path><path d="M422.144 628.608c3.627 0 6.57 5.888 6.57 13.141 0 6.23-2.133 11.435-5.034 12.8l-1.536 0.342h-79.53c-3.627 0-6.571-5.888-6.571-13.142 0-6.229 2.133-11.434 5.077-12.8l1.493-0.341h79.574z m136.576 0c-3.627 0-6.57 5.888-6.57 13.141 0 6.23 2.133 11.435 5.034 12.8l1.536 0.342h79.573c3.627 0 6.571-5.888 6.571-13.142 0-6.229-2.133-11.434-5.077-12.8l-1.494-0.341H558.72z" fill="#FFFFFF" p-id="8080"></path></svg>