<?xml version="1.0" standalone="no"?><!DOCTYPE svg PUBLIC "-//W3C//DTD SVG 1.1//EN" "http://www.w3.org/Graphics/SVG/1.1/DTD/svg11.dtd"><svg t="1758163669546" class="icon" viewBox="0 0 1024 1024" version="1.1" xmlns="http://www.w3.org/2000/svg" p-id="8841" xmlns:xlink="http://www.w3.org/1999/xlink" width="200" height="200"><path d="M0 512c0 282.752 229.248 512 512 512s512-229.248 512-512S794.752 0 512 0 0 229.248 0 512z" fill="#000000" p-id="8842"></path><path d="M42.026667 512c0 259.584 210.389333 469.973333 469.973333 469.973333 259.584 0 469.973333-210.389333 469.973333-469.973333C981.973333 252.416 771.584 42.026667 512 42.026667 252.416 42.026667 42.026667 252.416 42.026667 512z" fill="#FFFFFF" p-id="8843"></path><path d="M82.261333 514.858667C82.261333 752.213333 274.688 944.64 512 944.64c237.354667 0 429.738667-192.426667 429.738667-429.738667 0-237.354667-192.426667-429.738667-429.738667-429.738666-237.354667 0-429.738667 192.426667-429.738667 429.738666z" fill="#7447DE" p-id="8844"></path><path d="M663.04 590.592c-27.648 0-50.176 23.850667-50.176 53.162667l0.042667 1.706666c0.853333 28.501333 23.04 51.413333 50.176 51.413334 26.752 0 48.64-22.272 50.090666-50.218667 0.042667-0.981333 0.128-1.92 0.128-2.901333 0-29.312-22.528-53.162667-50.218666-53.162667m0 69.546667a15.829333 15.829333 0 0 1-15.36-14.250667c-0.042667-0.725333-0.170667-1.408-0.170667-2.133333 0-9.088 6.954667-16.426667 15.530667-16.426667a16 16 0 0 1 15.274666 18.901333 15.786667 15.786667 0 0 1-15.274666 13.909334m-284.885334-17.536l-0.042666 1.152c0 29.269333 22.485333 53.12 50.218666 53.12 27.690667 0 50.176-23.765333 50.218667-53.077334v-0.042666c0-29.312-22.528-53.162667-50.218667-53.162667-27.306667 0-49.621333 23.210667-50.176 52.010667m50.176 17.536a16 16 0 0 1-15.530666-16.384l0.085333-0.725334a15.957333 15.957333 0 0 1 15.445333-15.701333c8.448 0 15.317333 7.125333 15.488 16.085333v0.341334a16 16 0 0 1-15.488 16.384m-180.736-19.114667c-0.042667 0.896-0.128 1.792-0.128 2.730667 0 29.269333 22.528 53.12 50.218667 53.12 27.733333 0 50.218667-23.850667 50.218667-53.12l-0.042667-1.536c-0.768-28.586667-22.954667-51.626667-50.176-51.626667-26.837333 0-48.768 22.4-50.090667 50.432m50.090667 19.114667a16 16 0 0 1-15.530667-16.384c0-0.810667 0.128-1.578667 0.213334-2.304a15.786667 15.786667 0 0 1 15.317333-14.122667c7.936 0 14.421333 6.357333 15.36 14.506667 0.042667 0.597333 0.170667 1.28 0.170667 1.92a16 16 0 0 1-15.530667 16.384" fill="#FFFFFF" p-id="8845"></path><path d="M219.221333 557.013333v83.626667l16.853334 0.256c1.408-34.730667 28.501333-62.549333 61.653333-62.549333 33.621333 0 61.013333 28.586667 61.738667 64l7.168 0.128c0.64-35.498667 28.074667-64.128 61.738666-64.128 34.090667 0 61.781333 29.312 61.781334 65.408v0.213333l111.189333 1.322667-0.085333-1.536c0-36.096 27.733333-65.408 61.824-65.408s61.781333 29.312 61.781333 65.408c0 1.024-0.085333 2.005333-0.128 3.029333l28.757333 0.384v-123.562667l-73.984-123.562666h-124.672v156.970666H219.221333z m368.512-112.768h75.349334l49.322666 79.36h-124.672v-79.36z" fill="#FFFFFF" p-id="8846"></path><path d="M512.426667 504.746667l-107.733334-50.688v50.688h107.733334z m216.021333 142.250666H810.666667V544.426667a22.186667 22.186667 0 0 0-5.973334-15.232 19.797333 19.797333 0 0 0-14.378666-6.314667h-61.866667v124.16z m-388.949333-147.285333h39.04v60.288h-39.04v-60.288z m49.152-71.850667h10.154666v76.8H388.693333v-76.8z" fill="#FFFFFF" p-id="8847"></path><path d="M321.536 493.952h72.576v10.709333h-72.533333zM213.333333 429.056l224.128-108.970667 39.125334 90.069334-224.170667 108.970666z" fill="#FFFFFF" p-id="8848"></path><path d="M306.218667 407.552L530.346667 298.666667l15.36 35.328-224.170667 108.885333z" fill="#FFFFFF" p-id="8849"></path></svg>