<?xml version="1.0" standalone="no"?><!DOCTYPE svg PUBLIC "-//W3C//DTD SVG 1.1//EN" "http://www.w3.org/Graphics/SVG/1.1/DTD/svg11.dtd"><svg t="1737012174822" class="icon" viewBox="0 0 1024 1024" version="1.1" xmlns="http://www.w3.org/2000/svg" p-id="16613" xmlns:xlink="http://www.w3.org/1999/xlink" width="200" height="200"><path d="M0 512c0 282.752 229.248 512 512 512s512-229.248 512-512S794.752 0 512 0 0 229.248 0 512z" fill="#000000" p-id="16614"></path><path d="M42.026667 512c0 259.584 210.389333 469.973333 469.973333 469.973333 259.584 0 469.973333-210.389333 469.973333-469.973333C981.973333 252.416 771.584 42.026667 512 42.026667 252.416 42.026667 42.026667 252.416 42.026667 512z" fill="#FFFFFF" p-id="16615"></path><path d="M82.261333 514.858667C82.261333 752.213333 274.688 944.64 512 944.64c237.354667 0 429.738667-192.426667 429.738667-429.738667 0-237.354667-192.426667-429.738667-429.738667-429.738666-237.354667 0-429.738667 192.426667-429.738667 429.738666z" fill="#4E9A7F" p-id="16616"></path><path d="M554.837333 489.173333l-4.48 7.253334c37.546667 48.213333 50.986667 93.610667 29.44 111.274666-28.032 22.954667-104.277333-8.96-170.112-71.168C343.808 474.325333 312.704 405.333333 340.736 382.378667c22.954667-18.773333 78.165333-0.853333 133.674667 40.362666 2.773333 1.962667 6.698667 2.56 10.069333 1.109334l4.778667-1.962667 6.144-34.474667a8.149333 8.149333 0 0 0-3.626667-8.106666C422.570667 334.762667 346.88 314.88 305.408 351.274667c-52.693333 46.506667-84.352 189.44 16.810667 278.570666a218.453333 218.453333 0 0 0 65.877333 40.064v56.618667H335.957333c-12.885333 0.256-23.253333 9.813333-22.954666 21.290667 0.256 11.221333 10.368 19.882667 22.954666 20.181333h188.330667c12.885333 0.256 23.808-8.704 24.106667-20.181333 0.256-11.52-10.112-21.034667-22.997334-21.333334h-90.496v-43.946666c75.093333 12.032 148.224-12.373333 182.997334-42.88 39.509333-34.773333 23.808-102.016-20.736-163.114667l-42.325334 12.629333z" fill="#FFFFFF" p-id="16617"></path><path d="M452.821333 507.093333l5.333334 4.778667c10.922667 9.813333 28.032 8.96 37.845333-1.706667l45.653333-49.066666a25.173333 25.173333 0 0 0 4.778667-27.136 26.453333 26.453333 0 0 0 15.957333 5.034666c14.592 0 26.368-10.922667 26.368-24.106666 0-13.184-11.776-24.362667-26.368-24.362667-14.549333 0-26.325333 10.922667-26.325333 24.362667 0 5.333333 1.962667 10.666667 5.589333 15.146666a34.901333 34.901333 0 0 0-31.104 4.181334l-55.765333 39.509333c-10.922667 7.594667-12.885333 21.333333-4.48 30.848l2.56 2.517333z m83.2-188.885333v35.029333a96 96 0 0 1 65.322667 24.96c17.664 16.213333 27.178667 38.101333 27.178667 60.501334h38.144c0-66.389333-58.581333-120.490667-130.602667-120.490667z" fill="#FFFFFF" p-id="16618"></path><path d="M536.064 256v35.029333c87.978667 0 159.744 66.133333 159.744 147.669334h38.101333C733.866667 337.834667 645.077333 256 536.064 256z" fill="#FFFFFF" p-id="16619"></path></svg>