<?xml version="1.0" standalone="no"?><!DOCTYPE svg PUBLIC "-//W3C//DTD SVG 1.1//EN" "http://www.w3.org/Graphics/SVG/1.1/DTD/svg11.dtd"><svg t="1741858455919" class="icon" viewBox="0 0 1031 1024" version="1.1" xmlns="http://www.w3.org/2000/svg" p-id="16120" xmlns:xlink="http://www.w3.org/1999/xlink" width="128.875" height="128"><path d="M457.685333 195.456L0 729.472h1024L564.736 193.706667l-5.077333-4.992c-31.146667-26.752-76.245333-23.253333-101.973334 6.698666z m62.08 41.130667l340.778667 397.696-342.613333-66.645334h-11.861334l-342.613333 66.645334L504.874667 235.946667a9.344 9.344 0 0 1 13.141333-1.024l1.706667 1.664z" fill="#000000" p-id="16121"></path><path d="M515.242667 230.528l366.592 427.690667a4.266667 4.266667 0 0 1-3.242667 7.04H145.322667a4.266667 4.266667 0 0 1-3.2-7.04L508.714667 230.528a4.266667 4.266667 0 0 1 6.485333 0z" fill="#456EAE" p-id="16122"></path></svg>