<?xml version="1.0" standalone="no"?><!DOCTYPE svg PUBLIC "-//W3C//DTD SVG 1.1//EN" "http://www.w3.org/Graphics/SVG/1.1/DTD/svg11.dtd"><svg t="1741662217943" class="icon" viewBox="0 0 1024 1024" version="1.1" xmlns="http://www.w3.org/2000/svg" p-id="15875" xmlns:xlink="http://www.w3.org/1999/xlink" width="128" height="128"><path d="M0 512c0 282.752 229.248 512 512 512s512-229.248 512-512S794.752 0 512 0 0 229.248 0 512z" fill="#000000" p-id="15876"></path><path d="M42.026667 512c0 259.584 210.389333 469.973333 469.973333 469.973333 259.584 0 469.973333-210.389333 469.973333-469.973333C981.973333 252.416 771.584 42.026667 512 42.026667 252.416 42.026667 42.026667 252.416 42.026667 512z" fill="#FFFFFF" p-id="15877"></path><path d="M82.261333 514.858667C82.261333 752.213333 274.688 944.64 512 944.64c237.354667 0 429.738667-192.426667 429.738667-429.738667 0-237.354667-192.426667-429.738667-429.738667-429.738666-237.354667 0-429.738667 192.426667-429.738667 429.738666z" fill="#456EAE" p-id="15878"></path><path d="M691.669333 377.728c3.925333 19.242667 17.493333 63.061333 17.493334 64.298667 0 1.28 1.621333 10.666667 10.282666 21.973333 8.661333 11.264 6.4 51.84 1.792 41.984-3.114667-6.613333-9.6-7.210667-19.498666-1.792-0.768-19.114667-2.773333-32.256-6.058667-39.509333-4.906667-10.837333-12.373333-48.384-32.085333-46.634667-19.712 1.706667-18.432-55.381333 0-56.234667 16.128-2.218667 25.472 3.072 28.074666 15.914667z" fill="#FFFFFF" p-id="15879"></path><path d="M701.866667 506.453333a25.130667 25.130667 0 0 0-6.570667 13.909334c-1.706667 9.173333-19.797333 73.386667-23.253333 76.8-3.456 3.456-13.568 32.597333-13.568 34.858666 0 1.237333-3.328 11.178667 9.557333 14.165334 12.970667 2.986667 16.256-7.381333 16.896-14.165334 0.896-9.642667 1.365333-19.882667 1.365333-30.72 12.672-37.973333 20.096-58.197333 22.186667-60.714666 3.2-3.754667 7.594667-16.938667 9.386667-23.466667 1.237333-4.309333 1.237333-7.552 0-9.642667 0-0.768-1.706667-1.749333-5.290667-2.944-3.541333-1.152-7.125333-0.512-10.666667 1.962667zM508.117333 389.461333c7.253333 22.570667 14.933333 40.704 23.04 54.357334 18.645333 37.845333 32.64 64.384 41.941334 79.658666 9.685333 15.914667-2.048 40.789333-7.338667 33.322667-5.418667-7.552-13.696-10.24-24.917333-8.106667-6.442667-31.829333-15.616-55.424-27.52-70.826666-17.792-23.04-13.909333-27.904-51.2-38.058667-37.290667-10.154667-20.48-72.192-2.816-75.648 25.258667-5.674667 41.557333 2.773333 48.810666 25.301333z" fill="#FFFFFF" p-id="15880"></path><path d="M502.912 370.688c10.24 11.733333 10.410667 24.32 15.104 36.394667 4.181333 10.709333 7.594667 18.005333 12.8 28.629333l100.864-12.458667c8.106667-32.597333 6.016-53.290667-6.314667-62.037333l-136.234666 2.432a20.949333 20.949333 0 0 1 13.781333 7.04z" fill="#FFFFFF" p-id="15881"></path><path d="M569.6 450.389333a76.16 76.16 0 0 1-2.432-7.893333c-1.706667-6.4-13.056-9.557333-6.4-15.957333 0.128-0.085333 8.704 3.712 8.832 3.584a22.442667 22.442667 0 0 1 16.725333-7.808c6.4 0 10.965333 49.792 1.024 58.154666-2.346667 1.962667-3.754667-27.904-7.936-29.952-3.626667-1.706667-8.405333 0.981333-9.813333-0.128z" fill="#FFFFFF" p-id="15882"></path><path d="M631.68 362.453333c9.642667 17.194667 10.837333 35.328 3.669333 54.4h15.701334c-6.058667-28.245333-4.394667-46.336 4.949333-54.4h-24.32zM450.986667 440.149333l-42.325334-2.048c0.981333-23.594667 1.194667-39.338667 0.64-47.189333-0.597333-8.405333-14.848-12.501333-16.512-16.853333-1.706667-4.650667 9.088-9.258667 6.101334-9.258667l52.053333-3.584c-20.266667 27.989333-20.266667 54.272 0 78.933333z" fill="#FFFFFF" p-id="15883"></path><path d="M401.066667 365.866667l17.578666-2.005334 70.229334-2.858666 167.125333-2.816-43.946667-1.493334v-6.101333H560.64v-26.709333l-149.461333-1.92v34.730666l-33.962667 0.554667c9.472 1.152 15.36 2.901333 17.749333 5.205333 2.389333 2.304 4.437333 3.413333 6.144 3.413334z" fill="#FFFFFF" p-id="15884"></path><path d="M317.269333 356.693333l56.32 0.512h9.941334c12.8 0 20.906667 10.453333 24.192 31.402667v36.437333c0 19.072-9.642667 28.330667-28.885334 27.733334-32.085333-3.669333-50.944-7.04-56.618666-10.069334-5.632-2.986667-10.496-9.258667-14.506667-18.645333a173.781333 173.781333 0 0 1-8.789333-32.554667c-0.554667-4.053333-0.426667-13.525333 2.858666-19.925333 1.962667-3.882667 7.168-8.832 15.488-14.890667z m47.701334 65.92a6.272 6.272 0 0 0-6.272 6.272c0 3.882667 2.986667 7.168 6.826666 7.509334l3.2 0.256h0.554667a6.272 6.272 0 0 0 6.272-6.229334 7.509333 7.509333 0 0 0-6.826667-7.466666l-3.2-0.298667h-0.554666zM338.389333 418.133333a6.058667 6.058667 0 0 0-6.058666 6.058667c0 3.968 2.986667 7.338667 6.869333 7.850667l8.704 1.194666a6.058667 6.058667 0 0 0 6.869333-6.016 7.936 7.936 0 0 0-6.826666-7.850666L339.2 418.133333a6.058667 6.058667 0 0 0-0.810667 0z m25.045334-47.274666h-3.84a6.826667 6.826667 0 0 0 0 13.738666h3.84a6.826667 6.826667 0 0 0 0-13.738666z m-19.626667-0.426667H329.813333a6.912 6.912 0 0 0 0 13.909333h13.952a6.912 6.912 0 0 0 0-13.866666zM570.752 427.093333c15.189333-0.725333 25.130667 59.989333 13.397333 53.930667-7.893333-4.096-13.696-0.853333-17.28-2.133333-5.888-2.005333 2.304-31.445333-7.68-36.864-4.608-2.517333-9.898667-9.685333-8.234666-12.501334 1.92-3.285333 11.690667-2.048 19.797333-2.432z" fill="#FFFFFF" p-id="15885"></path><path d="M567.381333 481.450667c-10.922667 15.018667-17.322667 26.88-19.157333 35.626666-1.834667 8.704-12.032 29.653333-30.549333 62.805334-4.053333 12.202667-1.877333 18.346667 6.442666 18.346666s22.741333-28.16 43.264-84.48c9.557333-14.250667 14.336-24.021333 14.336-29.312 0-3.754667-8.533333-3.968-11.733333-3.968a29.952 29.952 0 0 0-2.602667 0.981334z" fill="#FFFFFF" p-id="15886"></path><path d="M500.778667 664.192c-2.986667 6.613333-12.8 31.018667-29.44 73.173333-6.144 16.341333-4.181333 25.856 5.888 28.586667 35.328 9.685333 29.141333-18.133333 29.141333-25.685333 0-9.386667 0.128-21.589333 0.384-36.565334 34.090667-76.202667 51.114667-117.077333 51.114667-122.666666 0-5.546667 2.944-12.16 8.789333-19.754667-6.4-7.637333-10.666667-11.776-12.885333-12.458667-5.205333-1.706667-10.410667 6.485333-12.032 2.986667-24.32 68.309333-37.973333 105.813333-40.96 112.384zM401.066667 443.904l23.893333 37.546667c5.077333 7.893333 7.594667 13.696 7.594667 17.365333 0 20.48-8.96 30.037333-12.501334 24.661333-4.48-6.826667-10.069333-8.874667-16.853333-6.144-2.218667-20.522667-6.954667-34.304-14.293333-41.301333a148.266667 148.266667 0 0 1-21.76-27.605333l33.877333-4.522667z" fill="#FFFFFF" p-id="15887"></path><path d="M419.541333 528c-6.4-7.381333-11.434667-9.813333-15.232-7.381333-5.674667 3.669333-6.741333 8.234667-10.666666 15.530666-2.688 4.821333-24.96 46.208-66.858667 124.117334-3.456 15.36 0.810667 23.04 12.757333 23.04 27.562667 0 20.224-20.906667 20.224-23.04 0-4.394667-2.005333-19.754667 13.397334-48.554667 15.36-28.8 46.378667-80.213333 46.378666-84.309333M420.565333 265.130667v56.832l69.930667 1.877333 1.365333-58.709333z" fill="#FFFFFF" p-id="15888"></path></svg>