<?xml version="1.0" standalone="no"?>
<!DOCTYPE svg PUBLIC "-//W3C//DTD SVG 1.1//EN" "http://www.w3.org/Graphics/SVG/1.1/DTD/svg11.dtd">
<svg t="1700000000000" class="icon" viewBox="0 0 1024 1024" version="1.1" xmlns="http://www.w3.org/2000/svg" p-id="1000" xmlns:xlink="http://www.w3.org/1999/xlink" width="200" height="200">
  <path d="M0 512c0 282.752 229.248 512 512 512s512-229.248 512-512S794.752 0 512 0 0 229.248 0 512z" fill="#000000" p-id="1001"></path>
  <path d="M42.026667 512c0 259.584 210.389333 469.973333 469.973333 469.973333 259.584 0 469.973333-210.389333 469.973333-469.973333C981.973333 252.416 771.584 42.026667 512 42.026667 252.416 42.026667 42.026667 252.416 42.026667 512z" fill="#FFFFFF" p-id="1002"></path>
  <path d="M82.261333 514.858667C82.261333 752.213333 274.688 944.64 512 944.64c237.354667 0 429.738667-192.426667 429.738667-429.738667 0-237.354667-192.426667-429.738667-429.738667-429.738666-237.354667 0-429.738667 192.426667-429.738667 429.738666z" fill="#4A90E2" p-id="1003"></path>
  <path d="M512 298.666667c-58.88 0-106.666667 47.786667-106.666667 106.666666s47.786667 106.666667 106.666667 106.666667 106.666667-47.786667 106.666667-106.666667-47.786667-106.666667-106.666667-106.666666z m0 170.666666c-35.328 0-64-28.672-64-64s28.672-64 64-64 64 28.672 64 64-28.672 64-64 64z" fill="#FFFFFF" p-id="1004"></path>
  <path d="M682.666667 640c0-94.208-76.458667-170.666667-170.666667-170.666667s-170.666667 76.458667-170.666667 170.666667c0 11.776 9.557333 21.333333 21.333334 21.333333h298.666666c11.776 0 21.333333-9.557333 21.333334-21.333333z m-298.666667-21.333333c11.776-58.88 64-106.666667 128-106.666667s116.224 47.786667 128 106.666667H384z" fill="#FFFFFF" p-id="1005"></path>
</svg>
