<?xml version="1.0" standalone="no"?><!DOCTYPE svg PUBLIC "-//W3C//DTD SVG 1.1//EN" "http://www.w3.org/Graphics/SVG/1.1/DTD/svg11.dtd"><svg t="1758163663861" class="icon" viewBox="0 0 1024 1024" version="1.1" xmlns="http://www.w3.org/2000/svg" p-id="8680" xmlns:xlink="http://www.w3.org/1999/xlink" width="200" height="200"><path d="M0 512c0 282.752 229.248 512 512 512s512-229.248 512-512S794.752 0 512 0 0 229.248 0 512z" fill="#000000" p-id="8681"></path><path d="M42.026667 512c0 259.584 210.389333 469.973333 469.973333 469.973333 259.584 0 469.973333-210.389333 469.973333-469.973333C981.973333 252.416 771.584 42.026667 512 42.026667 252.416 42.026667 42.026667 252.416 42.026667 512z" fill="#FFFFFF" p-id="8682"></path><path d="M82.261333 514.858667C82.261333 752.213333 274.688 944.64 512 944.64c237.354667 0 429.738667-192.426667 429.738667-429.738667 0-237.354667-192.426667-429.738667-429.738667-429.738666-237.354667 0-429.738667 192.426667-429.738667 429.738666z" fill="#26249D" p-id="8683"></path><path d="M598.442667 651.306667l0.085333 1.450666c0.725333 24.32 19.712 43.818667 42.965333 43.818667 22.954667 0 41.685333-18.944 42.922667-42.752 0.042667-0.853333 0.128-1.664 0.128-2.517333 0-24.96-19.285333-45.226667-43.050667-45.226667-23.722667 0-43.093333 20.266667-43.093333 45.226667z m29.909333 1.834666c-0.042667-0.597333-0.170667-1.194667-0.170667-1.834666 0-7.68 5.973333-13.952 13.312-13.952a13.653333 13.653333 0 0 1 13.098667 16.085333 13.525333 13.525333 0 0 1-13.098667 11.861333 13.525333 13.525333 0 0 1-13.141333-12.16z m-231.082667-1.834666c0 24.96 19.285333 45.269333 43.050667 45.269333 23.722667 0 43.008-20.266667 43.050667-45.226667 0-25.002667-19.328-45.269333-43.093334-45.269333-23.381333 0-42.496 19.754667-42.965333 44.288l-0.042667 0.938667z m29.738667 0l0.042667-0.597334a13.653333 13.653333 0 0 1 13.226666-13.354666 13.653333 13.653333 0 0 1 13.312 13.653333v0.298667a13.653333 13.653333 0 0 1-13.269333 13.994666 13.653333 13.653333 0 0 1-13.312-13.994666z m-141.738667 0c0 24.96 19.328 45.269333 43.093334 45.269333 23.722667 0 43.050667-20.309333 43.050666-45.226667l-0.085333-1.28c-0.64-24.405333-19.626667-43.989333-43.008-43.989333-22.997333 0-41.813333 19.029333-42.922667 42.922667l-0.128 2.304z m29.781334 0c0-0.64 0.085333-1.28 0.170666-1.92a13.525333 13.525333 0 0 1 13.098667-12.032c6.826667 0 12.373333 5.418667 13.184 12.330666 0 0.554667 0.128 1.066667 0.128 1.621334a13.653333 13.653333 0 0 1-13.312 13.994666 13.653333 13.653333 0 0 1-13.269333-13.994666z" fill="#FFFFFF" p-id="8684"></path><path d="M256 518.698667v127.146666l19.498667 0.213334c1.194667-29.610667 24.405333-53.290667 52.821333-53.290667 28.842667 0 52.352 24.362667 52.906667 54.570667l6.186666 0.042666c0.554667-30.208 24.021333-54.613333 52.906667-54.613333 29.226667 0 52.949333 25.002667 52.949333 55.722667v0.170666l95.317334 1.152-0.085334-1.322666c0-30.72 23.765333-55.722667 52.992-55.722667 29.226667 0 52.992 25.002667 52.992 55.722667l-0.128 2.56 24.618667 0.341333V490.24l-24.618667-64.426667H548.693333v92.842667H256z m320.896-65.621334h91.52l15.36 37.12H576.853333v-37.12z" fill="#FFFFFF" p-id="8685"></path><path d="M697.514667 651.392H768v-143.445333a18.858667 18.858667 0 0 0-5.12-12.970667 17.066667 17.066667 0 0 0-12.373333-5.376h-52.992v161.792z" fill="#FFFFFF" p-id="8686"></path><path d="M453.461333 520.874667H346.538667c-2.986667 7.253333-2.432 0.938667 1.578666-18.986667h23.04l1.450667-11.52s0-0.341333-0.426667-0.725333c-2.858667-0.213333-8.064-4.693333-10.24-6.656L346.666667 469.333333a10.368 10.368 0 0 1 0-15.872l41.472-37.12a53.12 53.12 0 0 0-1.066667-5.632 5.674667 5.674667 0 0 1-2.218667-1.194666 4.736 4.736 0 0 1-1.621333-3.498667c0-1.322667 0.597333-2.56 1.621333-3.541333l1.365334-1.237334a6.101333 6.101333 0 0 1 7.338666-0.554666c0.768 0.512 1.408 1.28 1.792 2.048 0.256 0.128 0.426667 0.213333 0.554667 0.213333l30.549333 4.437333 58.624-56.362666 0.213334 0.170666v-0.256s9.813333-15.616 8.96-18.688c-0.810667-3.072 23.04 9.898667 16.64 15.274667-2.986667 2.56-5.546667 3.584-8.149334 4.693333a29.354667 29.354667 0 0 0-9.301333 5.546667 7.936 7.936 0 0 1-1.28 0.981333l-55.04 52.992-0.170667 9.472a9.472 9.472 0 0 0-0.170666 2.005334c-0.426667 13.482667 0.042667 23.466667 4.138666 36.906666 2.346667 7.765333 6.144 16.341333 9.514667 23.978667 1.493333 3.328 2.901333 6.485333 4.053333 9.301333 2.602667-5.034667 3.328 38.4-1.024 27.477334zM397.482667 441.173333a4.693333 4.693333 0 0 0 1.664-3.541333 4.693333 4.693333 0 0 0-1.706667-3.498667 6.058667 6.058667 0 0 0-7.850667 0l-19.882666 17.834667a4.736 4.736 0 0 0-1.578667 3.498667c0 1.322667 0.554667 2.602667 1.578667 3.541333a6.058667 6.058667 0 0 0 7.893333 0l19.882667-17.834667z m-18.944-24.362666c1.962667-1.706667 1.962667-4.394667 0-6.144l-1.024-0.853334a5.248 5.248 0 0 0-6.826667 0l-27.946667 24.96a4.096 4.096 0 0 0 0 6.144l1.024 0.853334c1.92 1.706667 4.949333 1.706667 6.826667 0l27.946667-24.96z" fill="#FFFFFF" p-id="8687"></path></svg>