<?xml version="1.0" standalone="no"?><!DOCTYPE svg PUBLIC "-//W3C//DTD SVG 1.1//EN" "http://www.w3.org/Graphics/SVG/1.1/DTD/svg11.dtd"><svg t="1737202626455" class="icon" viewBox="0 0 1024 1024" version="1.1" xmlns="http://www.w3.org/2000/svg" p-id="44540" xmlns:xlink="http://www.w3.org/1999/xlink" width="200" height="200"><path d="M0 512a512 512 0 1 0 1024 0A512 512 0 0 0 0 512z" fill="#000000" p-id="44541"></path><path d="M41.984 512a470.016 470.016 0 1 0 940.032 0A470.016 470.016 0 0 0 41.984 512z" fill="#FFFFFF" p-id="44542"></path><path d="M82.285714 514.925714a429.714286 429.714286 0 1 0 859.428572 0 429.714286 429.714286 0 0 0-859.428572 0z" fill="#F55656" p-id="44543"></path><path d="M819.2 650.24a168.96 168.96 0 1 0-337.92 0 168.96 168.96 0 0 0 337.92 0zM678.4 762.88h-56.32V593.92h56.32v168.96z m0-197.12h-56.32V537.6h56.32v28.16z" fill="#FFFFFF" p-id="44544"></path><path d="M313.197714 462.482286h341.284572V419.84H313.197714v42.642286zM725.357714 298.642286H640V256h-42.642286v42.642286H426.642286V256H384v42.642286H298.642286A42.788571 42.788571 0 0 0 256 341.357714V768a42.788571 42.788571 0 0 0 42.642286 42.642286h248.758857c-11.483429-12.873143-35.84-27.209143-43.52-42.642286H298.715429V384h426.642285v94.500571c15.433143 7.68 29.769143 13.165714 42.642286 24.649143V341.357714a42.788571 42.788571 0 0 0-42.642286-42.715428zM313.197714 547.84h174.299429a193.097143 193.097143 0 0 1 38.985143-42.642286H313.197714v42.642286z" fill="#FFFFFF" p-id="44545"></path></svg>