<?xml version="1.0" standalone="no"?><!DOCTYPE svg PUBLIC "-//W3C//DTD SVG 1.1//EN" "http://www.w3.org/Graphics/SVG/1.1/DTD/svg11.dtd"><svg t="1767584977509" class="icon" viewBox="0 0 1024 1024" version="1.1" xmlns="http://www.w3.org/2000/svg" p-id="18924" xmlns:xlink="http://www.w3.org/1999/xlink" width="128" height="128"><path d="M0 512c0 282.752 229.248 512 512 512s512-229.248 512-512S794.752 0 512 0 0 229.248 0 512z" fill="#000000" p-id="18925"></path><path d="M42.026667 512c0 259.584 210.389333 469.973333 469.973333 469.973333 259.584 0 469.973333-210.389333 469.973333-469.973333C981.973333 252.416 771.584 42.026667 512 42.026667 252.416 42.026667 42.026667 252.416 42.026667 512z" fill="#FFFFFF" p-id="18926"></path><path d="M82.261333 514.858667C82.261333 752.213333 274.688 944.64 512 944.64c237.354667 0 429.738667-192.426667 429.738667-429.738667 0-237.354667-192.426667-429.738667-429.738667-429.738666-237.354667 0-429.738667 192.426667-429.738667 429.738666z" fill="#7294E9" p-id="18927"></path><path d="M631.125333 313.770667h-64.213333V277.333333h64.213333c10.112 0 18.218667 8.106667 18.218667 18.218667v0.256c0 9.813333-8.106667 17.92-18.218667 17.92zM539.562667 277.333333h-55.125334v36.437334h54.869334V277.333333h0.256zM768 474.752v11.562667a13.226667 13.226667 0 0 1-13.312 13.312l-17.706667 2.944c5.674667 11.306667 9.130667 23.893333 9.130667 38.869333l6.613333 76.586667c0 2.218667-0.213333 4.394667-0.469333 6.613333 0.256 1.493333 0.469333 2.986667 0.469333 4.437333v92.074667a23.68 23.68 0 0 1-23.893333 23.637333h-36.394667a23.850667 23.850667 0 0 1-23.893333-23.637333v-29.525333H355.925333v29.525333a23.68 23.68 0 0 1-23.893333 23.637333H295.68a23.850667 23.850667 0 0 1-23.893333-23.637333v-92.074667c0-1.450667 0.256-2.944 0.512-4.437333a60.373333 60.373333 0 0 1-0.512-6.613333l6.656-76.586667c0-14.762667 3.2-27.562667 9.088-38.869333l-18.176-3.2A13.226667 13.226667 0 0 1 256 486.058667v-11.52a13.226667 13.226667 0 0 1 13.312-13.312h48a12.373333 12.373333 0 0 1 6.613333 1.962666l21.674667-65.28c5.888-30.72 28.288-54.613333 64.981333-54.613333h203.093334c32 0 58.069333 17.749333 64.981333 54.613333l21.632 65.024a13.610667 13.610667 0 0 1 6.186667-1.706666h48a13.653333 13.653333 0 0 1 13.525333 13.525333z m-406.4-27.093333l-5.888 23.381333c1.194667 17.237333 22.144 30.805333 39.381333 30.805333h234.325334c17.237333 0 37.888-13.568 39.381333-30.805333l-5.888-23.381333-16.256-43.093334c-1.493333-8.106667-4.693333-9.813333-10.112-16.469333H388.266667c-5.205333 6.656-8.917333 8.106667-10.368 16.512l-0.256 0.981333-16 42.069334z m47.274667 164.437333a36.053333 36.053333 0 0 0-36.181334-35.925333 36.053333 36.053333 0 0 0-36.181333 35.925333 36.181333 36.181333 0 0 0 72.362667 0z m165.418666-20.650667a10.709333 10.709333 0 0 0-10.837333-10.624h-101.162667a10.709333 10.709333 0 0 0-10.837333 10.624v29.994667c0 5.930667 4.906667 10.581333 10.837333 10.581333h101.418667c5.888 0 10.794667-4.693333 10.794667-10.581333v-29.994667h-0.213334z m113.493334 20.650667a36.053333 36.053333 0 0 0-36.224-35.925333 36.053333 36.053333 0 0 0-36.181334 35.925333 36.181333 36.181333 0 0 0 72.362667 0zM392.576 313.770667h64.256V277.333333h-64a18.176 18.176 0 0 0-18.218667 18.218667v0.256c0 9.813333 8.106667 17.92 17.92 17.92z" fill="#FFFFFF" p-id="18928"></path></svg>