<?xml version="1.0" standalone="no"?><!DOCTYPE svg PUBLIC "-//W3C//DTD SVG 1.1//EN" "http://www.w3.org/Graphics/SVG/1.1/DTD/svg11.dtd"><svg t="1755511459631" class="icon" viewBox="0 0 1024 1024" version="1.1" xmlns="http://www.w3.org/2000/svg" p-id="71242" xmlns:xlink="http://www.w3.org/1999/xlink" width="200" height="200"><path d="M513.834667 816.042667c-12.885333 0-25.514667 0.256-37.845334 0.725333l-24.32 1.194667c-123.562667 7.893333-213.290667 40.277333-213.290666 97.28 0 66.133333 121.002667 99.157333 275.456 99.157333 154.453333 0 275.456-33.024 275.456-99.157333 0-57.002667-89.728-89.386667-213.248-97.28l-24.32-1.194667c-12.373333-0.469333-25.002667-0.725333-37.888-0.725333z m0 66.133333c62.378667 0 120.576 6.698667 162.688 18.176l7.936 2.304c10.154667 3.072 18.858667 6.357333 25.770666 9.642667l5.546667 2.901333-5.546667 2.944c-8.661333 4.138667-20.053333 8.234667-33.706666 11.946667-42.112 11.477333-100.266667 18.176-162.688 18.176-62.378667 0-120.576-6.698667-162.688-18.176l-7.936-2.304a186.026667 186.026667 0 0 1-25.770667-9.642667l-5.632-2.944 5.632-2.901333c8.661333-4.138667 20.053333-8.192 33.706667-11.946667 42.112-11.477333 100.266667-18.176 162.688-18.176z" fill="#000000" p-id="71243"></path><path d="M510.933333 9.813333l-10.282666-0.170666a277.888 277.888 0 0 0-277.077334 259.413333l-0.512 10.112a278.016 278.016 0 0 0 200.448 275.370667l11.52 3.072v312.192l0.768 10.24 0.725334 4.565333c8.106667 35.328 39.978667 60.032 76.245333 59.093333l6.4-0.256c38.4-3.2 69.802667-34.432 69.802667-73.642666l-0.042667-318.634667 4.608-1.450667A277.973333 277.973333 0 0 0 510.933333 9.770667z m-10.197333 65.92a211.84 211.84 0 0 1 47.786667 418.304l-25.685334 5.888v369.877334c0 3.754667-4.352 7.808-10.922666 7.808l-3.2-0.341334a10.24 10.24 0 0 1-6.784-4.864l-0.64-1.621333-0.256-3.84 0.128-365.568-28.629334-3.882667a211.84 211.84 0 0 1 28.202667-421.76z" fill="#000000" p-id="71244"></path><path d="M513.834667 981.333333c133.888 0 242.389333-29.610667 242.389333-66.133333 0-36.48-108.501333-66.090667-242.346667-66.090667-133.930667 0-242.432 29.610667-242.432 66.133334 0 36.48 108.501333 66.090667 242.389334 66.090666z" fill="#4C90F0" p-id="71245"></path><path d="M744.362667 259.797333a244.906667 244.906667 0 0 1-188.458667 266.453334v343.552c0 22.528-19.626667 40.832-43.989333 40.832a43.178667 43.178667 0 0 1-43.178667-33.450667l-0.64-7.381333v-339.541334A244.906667 244.906667 0 0 1 500.693333 42.666667a244.906667 244.906667 0 0 1 243.669334 217.130666z" fill="#4C90F0" p-id="71246"></path></svg>