<?xml version="1.0" standalone="no"?><!DOCTYPE svg PUBLIC "-//W3C//DTD SVG 1.1//EN" "http://www.w3.org/Graphics/SVG/1.1/DTD/svg11.dtd"><svg t="1757488741985" class="icon" viewBox="0 0 1024 1024" version="1.1" xmlns="http://www.w3.org/2000/svg" p-id="7914" xmlns:xlink="http://www.w3.org/1999/xlink" width="200" height="200"><path d="M0 512c0 282.752 229.248 512 512 512s512-229.248 512-512S794.752 0 512 0 0 229.248 0 512z" fill="#000000" p-id="7915"></path><path d="M42.026667 512c0 259.584 210.389333 469.973333 469.973333 469.973333 259.584 0 469.973333-210.389333 469.973333-469.973333C981.973333 252.416 771.584 42.026667 512 42.026667 252.416 42.026667 42.026667 252.416 42.026667 512z" fill="#FFFFFF" p-id="7916"></path><path d="M82.261333 514.858667C82.261333 752.213333 274.688 944.64 512 944.64c237.354667 0 429.738667-192.426667 429.738667-429.738667 0-237.354667-192.426667-429.738667-429.738667-429.738666-237.354667 0-429.738667 192.426667-429.738667 429.738666z" fill="#5E86BE" p-id="7917"></path><path d="M393.685333 312.874667h236.629334v280.106666H393.685333V312.874667z m-29.44 416.981333h296.789334v-16.64H364.245333v16.64z m75.349334-124.074667h146.090666l10.112 94.677334H429.482667l10.112-94.677334zM380.885333 325.674667v240.469333L213.333333 529.109333v-166.4L380.885333 325.674667zM296.533333 392.192a53.76 53.76 0 1 0 0 107.434667 53.76 53.76 0 0 0 0-107.434667z m0.64 39.637333a14.72 14.72 0 1 1 0 29.44 14.72 14.72 0 0 1 0-29.44zM643.114667 325.674667v240.469333L810.666667 529.109333v-166.4L643.114667 325.674667z m84.394666 66.517333a53.76 53.76 0 1 1 0 107.434667 53.76 53.76 0 0 1 0-107.434667z m-0.64 39.637333a14.72 14.72 0 1 0 0 29.44 14.72 14.72 0 0 0 0-29.44z" fill="#FFFFFF" p-id="7918"></path></svg>