<?xml version="1.0" standalone="no"?><!DOCTYPE svg PUBLIC "-//W3C//DTD SVG 1.1//EN" "http://www.w3.org/Graphics/SVG/1.1/DTD/svg11.dtd"><svg t="1740551382270" class="icon" viewBox="0 0 1024 1024" version="1.1" xmlns="http://www.w3.org/2000/svg" p-id="29971" data-spm-anchor-id="a313x.manage_type_myprojects.0.i2.36d13a81aq2eXf" xmlns:xlink="http://www.w3.org/1999/xlink" width="128" height="128"><path d="M484.096614 14.358212L220.16642 322.217039l295.263905-57.496335 295.263904 57.496335L545.791257 13.334235l-2.918336-2.867137a41.419889 41.419889 0 0 0-58.827506 3.839915z m35.839211 23.65388l196.501277 229.370954-197.627652-38.399156H512l-197.627652 38.399156L511.385614 37.6537a5.375882 5.375882 0 0 1 7.577433-0.563188l1.023977 0.92158z" fill="#000000" p-id="29972" data-spm-anchor-id="a313x.manage_type_myprojects.0.i1.36d13a81aq2eXf" class="selected"></path><path d="M519.321439 36.885717l203.259528 237.204381a5.119887 5.119887 0 0 1-4.863893 8.345416l-198.958823-38.655149a5.119887 5.119887 0 0 0-0.972778-0.102398h-4.710297a5.119887 5.119887 0 0 0-1.023977 0.102398l-198.958823 38.655149a5.119887 5.119887 0 0 1-4.863893-8.345416L511.488011 36.885717a5.119887 5.119887 0 0 1 7.782229 0z" fill="#F56B04" p-id="29973"></path><path d="M512 1024a426.640214 426.640214 0 1 0 0-853.331627A426.640214 426.640214 0 0 0 512 1024z" fill="#000000" p-id="29974"></path><path d="M120.328617 597.359786a391.671383 391.671383 0 1 0 783.342766 0 391.671383 391.671383 0 0 0-783.342766 0z" fill="#FFFFFF" p-id="29975"></path><path d="M153.863879 599.714934a358.136121 358.136121 0 1 0 716.272242 0 358.136121 358.136121 0 0 0-716.272242 0z" fill="#F56B04" p-id="29976"></path><path d="M386.869953 571.760349a17.100424 17.100424 0 0 0 0-34.149648 59.390693 59.390693 0 0 1-59.749086-59.749086c0-33.279268 26.469818-59.697887 59.749086-59.697887s59.697887 26.418619 59.697887 59.697887a17.100424 17.100424 0 0 0 34.149648 0A93.591541 93.591541 0 0 0 386.869953 384.01408a93.591541 93.591541 0 0 0-93.898734 93.847535c0 52.069254 41.82948 93.898734 93.898734 93.898734z m162.095634-76.79831c9.420593 0 17.100424-7.679831 17.100424-17.100424 0-33.279268 26.418619-59.697887 59.697886-59.697887 33.279268 0 59.749086 26.418619 59.749086 59.697887a59.390693 59.390693 0 0 1-59.749086 59.749086 17.100424 17.100424 0 0 0-17.049225 17.049224c0 9.420593 7.679831 17.100424 17.049225 17.100424a93.591541 93.591541 0 0 0 93.898734-93.898734A93.591541 93.591541 0 0 0 625.763897 384.01408a93.591541 93.591541 0 0 0-93.847535 93.847535c0 9.420593 7.679831 17.100424 17.049225 17.100424z m-85.297324 204.795494a17.100424 17.100424 0 0 0-17.100423 17.049225 59.390693 59.390693 0 0 1-59.697887 59.749086A59.390693 59.390693 0 0 1 327.120867 716.806758c0-33.279268 26.469818-59.749086 59.749086-59.749085 9.369394 0 17.049225-7.679831 17.049225-17.049225a17.100424 17.100424 0 0 0-17.049225-17.049225A93.591541 93.591541 0 0 0 292.971219 716.806758c0 52.069254 41.82948 93.847535 93.898734 93.847536A93.591541 93.591541 0 0 0 480.717488 716.806758a17.100424 17.100424 0 0 0-17.049225-17.049225z m162.095634-76.79831a17.100424 17.100424 0 0 0-17.049225 17.049225c0 9.369394 7.679831 17.049225 17.049225 17.049225 33.279268 0 59.749086 26.469818 59.749086 59.749085a59.390693 59.390693 0 0 1-59.749086 59.749086A59.390693 59.390693 0 0 1 566.066011 716.806758a17.100424 17.100424 0 0 0-17.100424-17.049225 17.100424 17.100424 0 0 0-17.049225 17.049225c0 52.069254 41.82948 93.847535 93.847535 93.847536A93.591541 93.591541 0 0 0 719.662631 716.806758a93.591541 93.591541 0 0 0-93.898734-93.847535z" fill="#FFFFFF" p-id="29977"></path><path d="M631.754165 739.539058a17.561214 17.561214 0 0 0 12.441327-5.324683 17.561214 17.561214 0 0 0 5.324683-12.441326 17.561214 17.561214 0 0 0-5.324683-12.441326l-61.336251-61.336251a71.37123 71.37123 0 0 1 0-100.45219l61.336251-61.336251a21.34993 21.34993 0 0 0 5.324683-13.311707 17.561214 17.561214 0 0 0-5.324683-12.441326 17.202822 17.202822 0 0 0-24.882653 0l-61.33625 61.336251a71.37123 71.37123 0 0 1-100.452191 0L396.188148 460.453998a17.202822 17.202822 0 0 0-24.882653 0 15.513259 15.513259 0 0 0-6.195063 12.441326c0 4.454302 1.740762 8.908604 5.324682 12.441327l61.336251 61.33625a71.37123 71.37123 0 0 1 0 100.45219l-61.336251 61.336251a21.34993 21.34993 0 0 0-5.324682 13.311707c0 4.454302 1.740762 8.908604 5.324682 12.441326a17.202822 17.202822 0 0 0 24.882653 0l61.336251-61.33625a71.37123 71.37123 0 0 1 100.45219 0l62.206631 61.33625c3.583921 3.583921 7.987024 5.324683 12.441326 5.324683z" fill="#FFFFFF" p-id="29978"></path></svg>