<?xml version="1.0" standalone="no"?><!DOCTYPE svg PUBLIC "-//W3C//DTD SVG 1.1//EN" "http://www.w3.org/Graphics/SVG/1.1/DTD/svg11.dtd"><svg t="1740560615976" class="icon" viewBox="0 0 1024 1024" version="1.1" xmlns="http://www.w3.org/2000/svg" p-id="30453" xmlns:xlink="http://www.w3.org/1999/xlink" width="128" height="128"><path d="M132.776562 505.841943l-0.255433 4.086923a42.1464 42.1464 0 0 0 12.005338 35.462577c8.514424 8.514424 20.179185 13.282502 32.865678 13.282502H341.805677a122.522564 122.522564 0 0 1 121.883982 121.883983v164.413531c1.575168 14.85767 6.300674 25.88385 14.474521 34.057697 8.514424 8.514424 20.179185 13.282502 32.865678 13.282502 26.139282 0 46.148179-20.008897 46.148179-46.148179v-164.413532a122.522564 122.522564 0 0 1 121.883983-121.883983l165.690695-1.192019c12.601348 0 24.266109-4.768078 32.780533-13.282502 8.514424-8.514424 13.282502-20.179185 13.282502-32.865677 0-12.686492-4.768078-24.351253-13.282502-32.865678-8.514424-8.514424-20.179185-13.282502-32.865677-13.282502H680.254039a122.522564 122.522564 0 0 1-121.883983-121.883982V180.080072c-1.575168-14.85767-6.300674-25.88385-14.474521-34.057697-8.514424-8.514424-20.179185-13.282502-32.865677-13.282501-26.09671 0-46.148179 20.008897-46.148179 46.148179v164.413531a122.522564 122.522564 0 0 1-121.883983 121.883983H178.584164c-24.266109 0-43.253275 17.284281-45.850174 40.656376z" fill="#000000" p-id="30454"></path><path d="M178.584164 490.72884h164.413532a148.065837 148.065837 0 0 0 147.427255-147.427256V178.888053c0-12.005338 8.599568-20.604907 20.604907-20.604907 5.960097 0 11.068751 2.128606 14.815098 5.789809 3.746347 3.746347 6.172958 9.365867 7.066972 17.411997l-0.085144 163.051224a148.065837 148.065837 0 0 0 147.427255 147.384683h164.413532c5.960097 0 11.111324 2.128606 14.815098 5.789809a20.519762 20.519762 0 0 1 5.789808 14.815098c0 5.960097-2.128606 11.068751-5.789808 14.815098a20.519762 20.519762 0 0 1-14.815098 5.789808l-165.733268 1.19202a148.023265 148.023265 0 0 0-147.299539 147.427255v164.413532a19.838608 19.838608 0 0 1-20.604906 20.604906c-5.960097 0-11.068751-2.128606-14.815098-5.789808-3.746347-3.746347-6.172958-9.365867-7.066972-17.411998l0.085144-163.051224a148.065837 148.065837 0 0 0-147.427255-147.384683H177.392145c-5.960097 0-11.111324-2.128606-14.815098-5.789808a15.921973 15.921973 0 0 1-4.81065-11.068752l0.212861-4.938366c0-12.005338 8.599568-20.604907 20.604906-20.604906z" fill="#F56B04" p-id="30455"></path><path d="M375.948518 697.969925a45.211593 45.211593 0 0 1 63.858181 0c16.390267 16.390267 17.45457 42.444405 3.235481 60.154407l-3.278053 3.661203c-39.592073 39.592073-39.592073 102.471095 0 142.063168 39.634645 39.634645 102.471095 39.634645 142.10574 0 37.974332-37.974332 39.5495-97.234725 4.725506-136.997086l-4.725506-5.108654a45.211593 45.211593 0 0 1 0-63.773038 45.211593 45.211593 0 0 1 63.81561 0 190.212237 190.212237 0 0 1 0 269.694387 190.212237 190.212237 0 0 1-269.736959 0 190.212237 190.212237 0 0 1 0-269.694387zM696.261157 377.657286a190.212237 190.212237 0 0 1 269.736959 0 190.212237 190.212237 0 0 1 0 269.736959 190.212237 190.212237 0 0 1-269.736959 0 45.211593 45.211593 0 0 1 0-63.858181 45.211593 45.211593 0 0 1 63.815609 0c39.592073 39.677217 102.471095 39.677217 142.063168 0 39.634645-39.592073 39.634645-102.428523 0-142.063168a99.703908 99.703908 0 0 0-136.997085-4.725506l-5.108655 4.725506a45.211593 45.211593 0 0 1-63.773037 0 45.211593 45.211593 0 0 1 0-63.81561z" fill="#000000" p-id="30456"></path><path d="M394.041669 716.063077a164.668964 164.668964 0 0 0 0 233.550656 164.668964 164.668964 0 0 0 233.593228 0 164.668964 164.668964 0 0 0 0-233.593229 19.66832 19.66832 0 0 0-27.671878 0 19.66832 19.66832 0 0 0 0 27.671879 125.332324 125.332324 0 0 1 0 178.249471 125.332324 125.332324 0 0 1-178.249471 0 125.332324 125.332324 0 0 1 0-178.206899 19.66832 19.66832 0 0 0 0-27.671878 19.66832 19.66832 0 0 0-27.671879 0zM714.311736 395.707865a19.66832 19.66832 0 0 0 0 27.714451 19.66832 19.66832 0 0 0 27.671879 0 125.332324 125.332324 0 0 1 178.249471 0 125.332324 125.332324 0 0 1 0 178.206899 125.332324 125.332324 0 0 1-178.206899 0 19.66832 19.66832 0 0 0-27.671879 0 19.66832 19.66832 0 0 0 0 27.671879 164.668964 164.668964 0 0 0 233.550656 0 164.668964 164.668964 0 0 0 0-233.593229 164.668964 164.668964 0 0 0-233.593228 0z" fill="#F56B04" p-id="30457"></path><path d="M55.678451 377.657286a190.212237 190.212237 0 0 1 269.694387 0 45.211593 45.211593 0 0 1 0 63.858182c-16.390267 16.347694-42.444405 17.45457-60.154407 3.235481l-3.661203-3.278053a99.789052 99.789052 0 0 0-142.063168 0c-39.634645 39.634645-39.634645 102.471095 0 142.10574 39.592073 39.592073 102.428523 39.592073 142.063168 0a45.211593 45.211593 0 0 1 63.858182 0 45.211593 45.211593 0 0 1 0 63.815609 190.212237 190.212237 0 0 1-269.736959 0 190.212237 190.212237 0 0 1 0-269.736959z" fill="#000000" p-id="30458"></path><path d="M73.72903 395.707865a164.668964 164.668964 0 0 0 0 233.635801 164.668964 164.668964 0 0 0 233.593228 0 19.66832 19.66832 0 0 0 0-27.714451 19.66832 19.66832 0 0 0-27.671878 0 125.332324 125.332324 0 0 1-178.249471 0 125.332324 125.332324 0 0 1 0-178.206899 125.332324 125.332324 0 0 1 178.249471 0 19.66832 19.66832 0 0 0 27.671878 0 19.66832 19.66832 0 0 0 0-27.671878 164.668964 164.668964 0 0 0-233.593228 0z" fill="#F56B04" p-id="30459"></path><path d="M674.975096 313.671388L526.653826 38.698058a17.028848 17.028848 0 0 0-29.970773 0L348.361783 313.671388a17.028848 17.028848 0 0 0 20.392046 24.266109l137.507951-45.892746a17.028848 17.028848 0 0 1 10.813319 0l137.507951 45.850174a17.028848 17.028848 0 0 0 20.392046-24.266109z" fill="#000000" p-id="30460"></path><path d="M526.568682 91.444916l105.493716 190.297381a12.771636 12.771636 0 0 1-15.198247 18.306012l-99.448475-33.163682a12.771636 12.771636 0 0 0-4.044352-0.638582h-3.405769a12.771636 12.771636 0 0 0-4.044352 0.638582l-99.491047 33.163682a12.771636 12.771636 0 0 1-15.198247-18.306012l105.57886-190.297381a17.028848 17.028848 0 0 1 29.757913 0z" fill="#F56B04" p-id="30461"></path><path d="M532.74164 388.938898v-155.813963c0-18.050579 18.050579-14.900242 0-14.900242-10.217309-1.106875-36.910029-14.431949-42.572122-8.769857-5.662092 5.61952 0 13.537935 0 22.563224v155.813963c0 69.945995 42.572121 71.095442 42.572122 1.106875z" fill="#F56B04" p-id="30462"></path></svg>