<?xml version="1.0" standalone="no"?><!DOCTYPE svg PUBLIC "-//W3C//DTD SVG 1.1//EN" "http://www.w3.org/Graphics/SVG/1.1/DTD/svg11.dtd"><svg t="1733823222553" class="icon" viewBox="0 0 1024 1024" version="1.1" xmlns="http://www.w3.org/2000/svg" p-id="99155" xmlns:xlink="http://www.w3.org/1999/xlink" width="200" height="200"><path d="M0 512c0 282.752 229.248 512 512 512s512-229.248 512-512S794.752 0 512 0 0 229.248 0 512z" fill="#000000" p-id="99156"></path><path d="M42.026667 512c0 259.584 210.389333 469.973333 469.973333 469.973333 259.584 0 469.973333-210.389333 469.973333-469.973333C981.973333 252.416 771.584 42.026667 512 42.026667 252.416 42.026667 42.026667 252.416 42.026667 512z" fill="#FFFFFF" p-id="99157"></path><path d="M82.261333 514.858667C82.261333 752.213333 274.688 944.64 512 944.64c237.354667 0 429.738667-192.426667 429.738667-429.738667 0-237.354667-192.426667-429.738667-429.738667-429.738666-237.354667 0-429.738667 192.426667-429.738667 429.738666z" fill="#2E00FF" p-id="99158"></path><path d="M679.466667 689.621333c0 43.306667-27.989333 78.378667-62.506667 78.378667H404.309333c-34.56 0-62.506667-35.072-62.506666-78.378667v-137.344h337.664v137.344zM369.92 551.253333H213.333333v-7.850666c0-10.368 3.285333-20.352 9.173334-27.733334a28.501333 28.501333 0 0 1 22.101333-11.434666H369.92v47.018666z m103.168-48.042666v24.533333h-37.504v-24.533333h37.546667z m112.597333 0v24.533333h-37.546666v-24.533333h37.546666z m68.394667 1.024h125.312c17.28 0 31.274667 17.493333 31.274667 39.168v7.850666h-156.586667v-47.018666z m-12.117333-50.133334v24.576H379.306667v-24.533333h262.656zM507.562667 281.6c5.205333-0.810667 10.069333 0.426667 14.762666 2.986667a34.261333 34.261333 0 0 1 12.117334 11.733333c1.834667 2.645333 3.072 5.845333 4.693333 8.618667 0.426667 0.597333 1.408 0.896 2.133333 0.896h60.885334v-19.242667h27.221333v19.2c3.413333-0.213333 6.656 1.92 8.490667 5.546667 3.157333 6.442667-0.085333 14.677333-5.717334 16.64-11.136 3.754667-22.186667 8.106667-33.28 12.245333l-28.501333 10.538667c-0.469333 0.170667-1.024 0.298667-2.005333 0.512 1.962667 2.133333 3.584 3.925333 5.290666 5.632l16.128 16.085333c3.712 3.669333 7.381333 7.424 11.178667 11.008 2.688 2.432 4.266667 6.272 4.266667 10.368 0.085333 12.8 0 25.514667 0 38.229333-0.298667 7.424-4.992 13.354667-10.922667 13.866667-4.522667 0.042667-10.026667-4.096-11.093333-10.496a12.501333 12.501333 0 0 1-0.256-2.517333v-28.416c0-1.706667-0.426667-2.56-1.493334-3.328-7.893333-5.461333-15.786667-10.922667-23.594666-16.469334-2.688-1.834667-5.248-3.797333-7.978667-5.76-10.752 13.781333-23.978667 20.224-39.168 20.266667-14.805333 0.426667-29.098667-6.912-39.424-20.181333l-10.666667 7.552-20.565333 14.336c-1.194667 0.853333-1.536 1.92-1.536 3.626666 0.085333 8.832 0.085333 17.664 0 26.538667a15.36 15.36 0 0 1-5.461333 12.757333 9.258667 9.258667 0 0 1-10.282667 0.938667 13.781333 13.781333 0 0 1-6.528-10.112 29.354667 29.354667 0 0 1-0.341333-4.650667l-0.042667-34.56a16.213333 16.213333 0 0 1 5.290667-12.8c4.266667-3.925333 8.234667-8.234667 12.373333-12.373333 3.84-3.925333 7.850667-7.893333 11.776-11.776l7.594667-7.466667c-3.370667-1.322667-6.741333-2.645333-10.154667-3.882666-6.058667-2.304-12.117333-4.48-18.218667-6.698667a3018.325333 3018.325333 0 0 1-33.578666-12.373333 20.906667 20.906667 0 0 1-6.058667-3.754667c-3.072-2.602667-3.285333-8.704-2.090667-12.202667 1.365333-4.053333 4.522667-6.741333 8.021334-6.826666l0.853333-0.085334v-19.2h27.264v13.909334c0 1.792-0.341333 3.968 0.341333 5.205333 0.426667 0.810667 2.474667 0.213333 3.84 0.213333h56.448c1.322667 0 2.133333-0.298667 2.944-2.005333a42.026667 42.026667 0 0 1 14.506667-18.261333 25.472 25.472 0 0 1 10.496-4.010667z m2.986666 72.661333a5.632 5.632 0 0 0-4.522666 2.304 8.96 8.96 0 0 0-1.749334 5.76c0.042667 4.949333 2.602667 7.808 6.357334 7.936 3.626667 0.128 6.314667-3.541333 6.4-7.936 0-4.48-2.901333-8.106667-6.485334-8.064zM617.386667 256c4.864 3.541333 7.253333 9.728 9.514666 16.298667 2.474667-3.285333 4.693333-6.4 7.082667-9.386667a34.816 34.816 0 0 1 4.693333-5.12c1.152-0.981333 2.645333-1.237333 4.010667-1.792h33.621333c1.749333 0.853333 3.626667 1.28 5.205334 2.56 3.328 2.858667 4.693333 8.405333 3.328 13.354667-1.152 4.650667-4.394667 7.808-8.106667 7.893333-40.661333-0.085333-81.28-0.085333-121.941333 0-5.973333 0-9.984-8.832-7.509334-16.213333 1.194667-4.266667 4.181333-7.04 7.509334-7.125334 0.213333 0 0.384-0.256 0.597333-0.426666h33.621333c0.213333 0.128 0.426667 0.426667 0.597334 0.426666 2.645333-0.128 4.608 1.536 6.314666 3.968 2.816 4.010667 5.504 8.106667 8.277334 12.117334 2.56-7.210667 4.949333-13.141333 9.770666-16.554667h3.413334z m-238.762667 0.042667c1.664 0.768 3.626667 0.981333 4.864 2.346666 3.413333 3.84 6.4 8.106667 9.642667 12.245334l1.493333 1.877333A32 32 0 0 1 403.882667 256h3.413333c4.864 3.413333 7.338667 9.472 9.386667 16.554667 0.682667-1.109333 1.109333-2.048 1.706666-2.816 2.389333-3.242667 4.864-6.314667 7.168-9.642667 1.834667-2.688 4.266667-3.2 6.656-4.096h34.730667c2.56 1.194667 5.034667 2.474667 6.485333 5.888a14.933333 14.933333 0 0 1 0.042667 12.373333c-1.408 3.541333-4.224 5.674667-7.210667 5.504H344.362667c-3.498667 0-5.76-2.389333-7.338667-6.101333a13.824 13.824 0 0 1 0.170667-11.221333c1.408-3.541333 4.138667-5.802667 7.168-5.973334 0.213333 0 0.384-0.298667 0.554666-0.469333h33.664z" fill="#FFFFFF" p-id="99159"></path></svg>