<?xml version="1.0" standalone="no"?><!DOCTYPE svg PUBLIC "-//W3C//DTD SVG 1.1//EN" "http://www.w3.org/Graphics/SVG/1.1/DTD/svg11.dtd"><svg t="1762853370270" class="icon" viewBox="0 0 1024 1024" version="1.1" xmlns="http://www.w3.org/2000/svg" p-id="8898" xmlns:xlink="http://www.w3.org/1999/xlink" width="128" height="128"><path d="M0 512c0 282.752 229.248 512 512 512s512-229.248 512-512S794.752 0 512 0 0 229.248 0 512z" fill="#000000" p-id="8899"></path><path d="M42.026667 512c0 259.584 210.389333 469.973333 469.973333 469.973333 259.584 0 469.973333-210.389333 469.973333-469.973333C981.973333 252.416 771.584 42.026667 512 42.026667 252.416 42.026667 42.026667 252.416 42.026667 512z" fill="#FFFFFF" p-id="8900"></path><path d="M82.261333 514.858667C82.261333 752.213333 274.688 944.64 512 944.64c237.354667 0 429.738667-192.426667 429.738667-429.738667 0-237.354667-192.426667-429.738667-429.738667-429.738666-237.354667 0-429.738667 192.426667-429.738667 429.738666z" fill="#C02BFC" p-id="8901"></path><path d="M716.245333 527.189333c62.848 0 113.792 53.461333 113.792 119.424 0 48.256-27.733333 91.818667-70.229333 110.293334-42.538667 18.474667-91.477333 8.277333-123.989333-25.856a123.733333 123.733333 0 0 1-24.661334-130.133334c17.621333-44.629333 59.093333-73.728 105.088-73.728z m61.184 49.92h-124.416v19.797334h49.194667a287.573333 287.573333 0 0 1-1.834667 24.021333h-56.746666v19.797333h53.12c-4.650667 21.845333-22.826667 41.642667-54.485334 59.349334 6.784 6.272 12.672 11.946667 17.664 17.066666 29.866667-17.066667 48.469333-38.826667 55.722667-65.152v39.936c0 14.72 7.936 22.058667 23.850667 22.058667h17.92c6.4 0 11.648-0.981333 15.616-2.986667a18.346667 18.346667 0 0 0 8.874666-10.112c1.92-4.736 3.968-13.269333 6.101334-25.557333a450.090667 450.090667 0 0 1-20.565334-7.552c-0.896 7.68-1.877333 13.568-2.901333 17.792-1.024 4.266667-2.688 6.826667-5.034667 7.68a20.565333 20.565333 0 0 1-7.253333 1.28h-4.565333c-7.125333 0-10.709333-3.584-10.709334-10.752v-33.28h-20.949333c0.938667-3.072 1.749333-6.357333 2.474667-9.813333h68.053333v-19.754667H721.92a332.8 332.8 0 0 0 2.218667-24.021333h53.248v-19.797334z" fill="#FFFFFF" p-id="8902"></path><path d="M713.130667 499.456a134.826667 134.826667 0 0 1 60.586666 14.634667l-2.56-29.866667a96.042667 96.042667 0 0 0-9.130666-41.173333l19.626666-3.285334a14.08 14.08 0 0 0 10.368-4.266666 15.573333 15.573333 0 0 0 4.437334-10.666667v-14.037333a15.232 15.232 0 0 0-4.565334-10.709334 14.08 14.08 0 0 0-10.24-4.181333h-53.205333a13.738667 13.738667 0 0 0-6.826667 1.792l-23.893333-72.533333c-5.888-36.309333-36.949333-62.08-71.936-59.733334H400.213333c-34.645333-1.493333-65.066667 23.936-71.381333 59.733334l-23.893333 72.832a13.226667 13.226667 0 0 0-7.424-2.133334H244.352a14.165333 14.165333 0 0 0-10.24 4.224 15.274667 15.274667 0 0 0-4.565333 10.709334v12.842666c0.085333 4.053333 1.706667 7.893333 4.437333 10.666667a14.08 14.08 0 0 0 10.368 4.266667l20.181333 4.48a93.184 93.184 0 0 0-9.941333 42.368l-7.68 85.674666a66.133333 66.133333 0 0 0 0 7.466667v108.074667c0.128 7.253333 2.986667 14.08 7.978667 19.072a25.173333 25.173333 0 0 0 18.474666 7.509333h41.514667a25.173333 25.173333 0 0 0 18.474667-7.509333 27.818667 27.818667 0 0 0 7.978666-19.072v-33.109334h229.546667v-4.778666c0-82.432 63.658667-149.290667 142.250667-149.290667zM345.6 380.074667l17.621333-47.189334c1.706667-9.557333 5.717333-11.050667 11.392-18.517333h275.328c5.717333 7.466667 9.386667 9.557333 11.093334 18.517333l17.664 48.384 6.528 26.24c-5.034667 20.650667-22.954667 34.858667-43.221334 34.346667h-258.56c-20.48 0.384-38.528-14.08-43.52-34.944l5.674667-26.88z m12.501333 223.872a37.888 37.888 0 0 1-35.968-18.986667 42.026667 42.026667 0 0 1 0-42.282667 37.888 37.888 0 0 1 35.968-19.029333 37.888 37.888 0 0 1 36.010667 19.029333 42.026667 42.026667 0 0 1 0 42.24 37.888 37.888 0 0 1-36.010667 19.029334z m90.666667-20.394667a12.501333 12.501333 0 0 1-3.626667-8.533333v-33.749334a12.501333 12.501333 0 0 1 3.626667-8.576 11.349333 11.349333 0 0 1 8.32-3.413333h113.792a11.946667 11.946667 0 0 1 11.648 11.946667v33.749333a12.245333 12.245333 0 0 1-3.413333 8.533333 11.093333 11.093333 0 0 1-8.234667 3.413334h-113.792a11.349333 11.349333 0 0 1-8.32-3.370667z" fill="#FFFFFF" p-id="8903"></path></svg>