<?xml version="1.0" standalone="no"?><!DOCTYPE svg PUBLIC "-//W3C//DTD SVG 1.1//EN" "http://www.w3.org/Graphics/SVG/1.1/DTD/svg11.dtd"><svg t="1765508512397" class="icon" viewBox="0 0 1024 1024" version="1.1" xmlns="http://www.w3.org/2000/svg" p-id="19640" xmlns:xlink="http://www.w3.org/1999/xlink" width="200" height="200"><path d="M0 512c0 282.752 229.248 512 512 512s512-229.248 512-512S794.752 0 512 0 0 229.248 0 512z" fill="#000000" p-id="19641"></path><path d="M42.026667 512c0 259.584 210.389333 469.973333 469.973333 469.973333 259.584 0 469.973333-210.389333 469.973333-469.973333C981.973333 252.416 771.584 42.026667 512 42.026667 252.416 42.026667 42.026667 252.416 42.026667 512z" fill="#FFFFFF" p-id="19642"></path><path d="M82.261333 514.858667C82.261333 752.213333 274.688 944.64 512 944.64c237.354667 0 429.738667-192.426667 429.738667-429.738667 0-237.354667-192.426667-429.738667-429.738667-429.738666-237.354667 0-429.738667 192.426667-429.738667 429.738666z" fill="#31AB31" p-id="19643"></path><path d="M726.4 367.573333h-182.570667a9.813333 9.813333 0 0 0-6.826666 2.688 9.002667 9.002667 0 0 0-2.773334 6.485334v130.858666c0 2.474667 1.024 4.778667 2.816 6.528 1.792 1.706667 4.266667 2.688 6.784 2.688h182.613334a9.813333 9.813333 0 0 0 6.741333-2.688 8.96 8.96 0 0 0 2.816-6.528V376.746667a9.002667 9.002667 0 0 0-2.816-6.485334 9.813333 9.813333 0 0 0-6.784-2.688z m-151.594667 61.738667a16.213333 16.213333 0 0 1-16.554666-15.872 16.213333 16.213333 0 0 1 16.554666-15.872 16.213333 16.213333 0 0 1 16.597334 15.872 16.213333 16.213333 0 0 1-16.597334 15.872z m60.928 0a16.213333 16.213333 0 0 1-16.597333-15.872 16.213333 16.213333 0 0 1 16.597333-15.872 16.213333 16.213333 0 0 1 16.554667 15.872 16.213333 16.213333 0 0 1-16.554667 15.872z m60.885334 0a16.213333 16.213333 0 0 1-16.597334-15.872 16.213333 16.213333 0 0 1 16.597334-15.872 16.213333 16.213333 0 0 1 16.554666 15.872 16.213333 16.213333 0 0 1-16.554666 15.872z" fill="#FFFFFF" p-id="19644"></path><path d="M704.298667 376.064v-41.728a9.386667 9.386667 0 0 0-9.6-9.216h-119.168a9.813333 9.813333 0 0 0-6.784 2.688 9.002667 9.002667 0 0 0-2.816 6.528v41.728h138.368z m-238.805334 109.141333a9.002667 9.002667 0 0 1-2.816 6.485334 9.813333 9.813333 0 0 1-6.826666 2.730666H290.56a9.813333 9.813333 0 0 1-6.784-2.730666 9.002667 9.002667 0 0 1-2.816-6.485334V409.770667c0-5.12 4.309333-9.216 9.6-9.216h165.290667a9.813333 9.813333 0 0 1 6.826666 2.688c1.792 1.706667 2.816 4.096 2.816 6.528v75.434666zM359.808 387.114667c0 0.981333-0.426667 1.92-1.109333 2.602666a3.925333 3.925333 0 0 1-2.730667 1.066667h-26.88a3.925333 3.925333 0 0 1-2.730667-1.066667 3.584 3.584 0 0 1-1.152-2.56V334.592c0-0.981333 0.426667-1.92 1.152-2.602667a3.925333 3.925333 0 0 1 2.730667-1.066666h26.88c1.024 0 2.005333 0.384 2.730667 1.066666a3.584 3.584 0 0 1 1.109333 2.56v52.522667z m64.853333 0c0 2.048-1.706667 3.669333-3.84 3.669333h-26.88a3.754667 3.754667 0 0 1-3.84-3.669333v-52.48c0-2.048 1.706667-3.669333 3.84-3.669334h26.88c2.133333 0 3.84 1.621333 3.84 3.669334v52.48z" fill="#FFFFFF" p-id="19645"></path><path d="M224.554667 515.797333l27.221333 32.512h512.256l24.533333-78.677333s8.533333-20.138667-12.501333-21.76c-20.992-1.578667-568.96 1.962667-568.96 1.962667s-7.68 0-11.434667 4.864c-3.328 5.034667-2.688 10.496-2.688 10.496s-0.469333 15.146667 31.573334 50.602666z m45.738666 54.613334l56.96 68.010666s20.992 28.032 31.701334 27.989334h350.293333s17.621333 1.749333 23.253333-16.810667c5.632-18.56 17.834667-57.386667 17.834667-57.386667l6.826667-21.802666H270.250667z" fill="#FFFFFF" p-id="19646"></path></svg>