<?xml version="1.0" standalone="no"?><!DOCTYPE svg PUBLIC "-//W3C//DTD SVG 1.1//EN" "http://www.w3.org/Graphics/SVG/1.1/DTD/svg11.dtd"><svg t="1737012032833" class="icon" viewBox="0 0 1024 1024" version="1.1" xmlns="http://www.w3.org/2000/svg" p-id="16455" xmlns:xlink="http://www.w3.org/1999/xlink" width="200" height="200"><path d="M0 512c0 282.752 229.248 512 512 512s512-229.248 512-512S794.752 0 512 0 0 229.248 0 512z" fill="#000000" p-id="16456"></path><path d="M42.026667 512c0 259.584 210.389333 469.973333 469.973333 469.973333 259.584 0 469.973333-210.389333 469.973333-469.973333C981.973333 252.416 771.584 42.026667 512 42.026667 252.416 42.026667 42.026667 252.416 42.026667 512z" fill="#FFFFFF" p-id="16457"></path><path d="M82.261333 514.858667C82.261333 752.213333 274.688 944.64 512 944.64c237.354667 0 429.738667-192.426667 429.738667-429.738667 0-237.354667-192.426667-429.738667-429.738667-429.738666-237.354667 0-429.738667 192.426667-429.738667 429.738666z" fill="#1367DF" p-id="16458"></path><path d="M657.834667 673.109333h10.026666c3.285333 0 4.394667 4.437333 4.394667 4.522667l12.16 32.768c-8.021333-2.944-15.189333-5.418667-20.224-7.210667l-7.765333-2.688-54.357334-11.093333v-6.912l-5.205333-3.584-4.693333 3.370667v4.949333l-22.613334-4.608-13.824 0.341333a145.92 145.92 0 0 0-14.933333-9.130666v-15.872l11.648-6.4 91.136 42.837333c1.066667 0.725333 8.832 5.674667 14.549333 5.674667 1.28 0.042667 2.56-0.341333 3.541334-1.066667a3.968 3.968 0 0 0 1.877333-3.584 5.290667 5.290667 0 0 0-2.986667-3.584l-6.4-2.986667a120.064 120.064 0 0 1-0.128-13.354666c0.298667-2.346667 3.669333-2.389333 3.797334-2.389334z m-1.877334 28.672l2.901334 0.981334-93.994667-6.485334 5.12-12.032 85.973333 17.493334z m-52.181333-12.501333l-9.898667-1.365333v-4.821334l4.608-2.261333 5.290667 2.346667v6.101333z m59.050667 15.061333l-7.509334 19.072-85.589333-25.472 93.098667 6.4z m1.493333 0.512l61.013333 39.68-68.608-20.522666 7.594667-19.157334z m-168.533333-7.04h11.434666l-2.56 8.448h-8.832v-8.448z m9.045333-69.205333a30.506667 30.506667 0 0 0 2.005333 8.490667h-9.856v-8.490667h7.850667z m21.888 8.490667a28.586667 28.586667 0 0 0 2.218667-8.490667h8.277333v8.490667h-10.496z m3.626667-0.938667v8.448h-27.648v-8.448h27.648z m-13.226667 14.549333v-8.448h4.693333v8.448h-4.693333z m-3.072-8.448v3.584h-2.346667v44.672h-8.832v-48.256h11.178667z m-0.682667 4.906667h9.856v43.349333h-9.856v-43.349333z m6.186667-1.322667v-3.584h11.178667v48.213334h-8.832v-44.629334h-2.346667z m12.885333 44.202667v-47.786667h9.685334v48.213334h-9.856l0.170666-0.426667z m-0.042666-45.44v-8.448l9.856 8.405333-9.856 0.042667z m-4.864-7.509333v-8.490667h4.053333a20.992 20.992 0 0 1-4.352 8.405333l0.298667 0.085334z m-3.370667 0h-14.336v-8.490667h14.122667l0.213333 8.490667z m-11.648 0a17.664 17.664 0 0 1-4.821333-8.490667H512l0.469333 8.490667z m-5.845333-0.896v8.448h-9.856l8.96-8.448h0.896z m-11.946667 6.058666h9.898667v48.213334h-9.898667v-48.213334z m11.818667 49.664v8.277334l-9.898667-8.448 9.898667 0.170666z m-3.84 8.405334v-8.490667h9.898666v8.490667h-9.898666z m20.522666 50.133333h-9.856v-3.669333h9.728l0.128 3.669333z m-9.813333-6.4v-8.576h9.898667v8.746667l-9.856-0.128z m0.085333 5.632h9.728v3.626667h-9.856l0.128-3.626667z m-0.042666-15.786667v-42.112h9.856v42.197334l-9.856-0.042667z m8.533333-42.154666h9.898667v8.490666h-9.856v-8.490666z m16.085333 5.973333v8.533333h-8.362666l-2.56-8.533333h10.922666z m-5.717333-5.973333h9.856l-9.856 8.490666v-8.490666z m127.36 1.493333a4.138667 4.138667 0 0 1 2.218667 2.432 2.944 2.944 0 0 1-1.450667 2.56c-3.157333 2.474667-12.544-2.56-16.042667-4.778667l-4.394666-1.962666 4.394666-5.290667 15.274667 7.04z m-20.949333-2.432l-84.949334-39.893333 0.682667-0.426667c1.877333-0.981333 3.029333-2.730667 3.072-4.565333l85.589333 39.68-4.394666 5.205333z m-86.784-47.488l3.285333 1.536a1.92 1.92 0 0 1 0.682667 0.981333c0.384 1.28-1.194667 2.730667-2.432 3.584l-12.885334 7.168v-14.336l11.349334 1.066667z m-9.685334 0.341333l-6.826666-7.125333h6.826666v7.125333z m-2.005333-6.570666h-1.749333v-8.490667h9.856l-8.106667 8.490667z m-80.085333-27.392h-8.832l1.450666-10.325334h8.832l-1.450666 10.325334z m2.773333-4.010667l8.746667 2.858667v5.632l-9.898667-3.242667 1.152-5.248z m-9.386667-29.013333h-4.693333v7.168h2.858667v0.768h-8.149334l2.261334-10.496h7.424l0.256 2.56z m-2.816 9.728v-8.32h16.128v8.448l-16.128-0.128z m29.013334 27.562666h12.842666l-3.456 8.490667-9.386666-8.490667z m-2.346667 0l2.944 3.84-2.986667 4.650667-8.832-8.490667h8.874667z m4.266667 3.328l6.912 6.954667-3.456 1.493333-6.4-4.778666 2.986666-3.669334z m16.725333-3.328h2.133333v8.490667H490.666667l7.765333-8.490667z m-1.408 0h10.581333a17.664 17.664 0 0 0-2.389333 8.490667h-8.149333l-0.042667-8.490667z m14.677333 10.666667h-3.242666a14.805333 14.805333 0 0 1 3.328-8.533333l-0.085334 8.533333z m-1.749333-10.666667h8.490667v8.490667h-8.533334v-8.490667z m5.12 8.490667v-8.490667h9.173333v8.490667h-9.216z m5.973333-8.490667h7.808v8.490667h-7.893333l0.085333-8.490667z m6.272 2.645334a22.613333 22.613333 0 0 1 3.925334 8.490666h-3.925334v-8.490666z m1.749334 5.845333a24.96 24.96 0 0 0-2.986667-8.490667h11.093333v8.490667h-8.106666z m9.514666-8.490667h1.92l7.936 8.490667h-9.813333l-0.042667-8.490667z m33.92-14.506666h8.832l1.493334 10.325333h-8.832l-1.493334-10.325333z m4.096 11.392l-8.661333 3.413333h-1.194667v-5.376l8.746667-3.072 1.109333 5.034667z m-11.392 3.285333l-8.832 8.448-2.986666-4.394667 3.2-4.053333h8.618666z m-20.48 8.448l-3.456-8.448h12.885334l-9.386667 8.448z m8.021334-4.949333l3.157333 3.584-6.4 4.864-3.498667-1.834667 6.741334-6.613333z m20.010666-6.4h11.733334l-1.877334-12.970667h-12.074666l0.853333 6.186667-4.437333 2.432v-23.082667h13.653333l0.469333 2.048h11.434667l-2.858667-12.928h-10.794666v3.84h-12.117334v-6.826667h35.669334l9.258666 42.709334h-41.514666l2.56-1.408z m7.765334-34.346667v-2.773333h7.68l2.176 10.410666h-8.106667v-0.725333h2.944v-7.210667l-4.693333 0.298667z m2.816 1.450667v8.192h-16.64v-8.448l16.64 0.256z m49.706666 31.232l-19.669333 3.114666-9.344-42.88 21.12-3.584 7.893333 43.349334z m-15.232-42.666667l-14.762666 5.845333h-36.309334v-5.845333h51.072z m-78.037333-45.312h-1.493333v-8.448h9.898666l-8.405333 8.448z m-32.938667-19.2l-2.432 8.448h-7.509333v-8.448h9.941333z m23.168 8.448l-2.56-8.448h9.856v8.448h-7.296z m-2.688 0.682667v-8.448l4.906667 8.490666-4.906667-0.042666z m4.565334 1.408l-4.437334 8.490666v-8.234666l4.437334-0.256z m-7.594667-2.090667h-14.378667v-8.448h14.378667v8.448z m-16.768 0.682667l4.821333-8.490667v8.490667h-4.821333z m4.693333 1.408v8.490666l-4.437333-8.234666 4.48-0.256z m-7.594666 0l2.218666 8.490666h-9.941333v-8.277333l7.68-0.213333z m5.290666 0h14.378667v8.490666h-14.378667v-8.490666z m19.84 0h7.509334v8.490666h-9.856l2.346666-8.490666z m8.661334-2.090667v-8.448l9.898666 8.448h-9.898666z m14.208-63.317333v-8.448h9.856v8.448h-9.856z m36.565333-26.112v40.746666h-10.88v-40.746666h10.88z m-12.501333 10.24v19.925333h-14.848v-19.882667h14.848z m-16.512 6.186666h-7.552v-17.749333h-12.714667v-6.4h0.469333l4.437334-7.552 15.189333 27.477333 0.170667 4.224z m-19.626667-31.658666h7.424l-7.381333 8.490666V406.186667z m-2.304 8.490666h-10.965333v-1.152h1.109333V409.6h0.768v-3.413333h9.258667l-0.170667 8.490666z m-7.253333-6.058666h-1.706667v5.973333h-1.706667v-8.448h3.413334v2.474667z m-2.389334 5.973333h-6.912v-8.448h6.912v8.448z m-4.693333 0h-9.472v-8.448h9.856l-0.341333 8.448z m-6.698667 0h-6.826666v-8.448h6.826666v8.448z m-5.632 0h-1.578666v-6.101333h-1.792V406.186667h3.413333l-0.042667 8.448z m-6.058666-5.077333v3.968h0.853333v1.109333h-10.666667v-8.448h9.216v3.413333h0.597334z m-6.826667 5.077333l-7.338667-8.448h7.338667v8.448z m7.722667-0.896h6.186666v8.448h-16.853333v-8.448h10.666667z m7.808 0h9.898666v8.448h-9.514666l-0.384-8.448z m6.442666 0h17.408v8.448h-17.194666l-0.213334-8.448z m23.893334-79.189333h32.896v26.709333h-32.768V334.506667h-0.170667z m2.346666 0v20.053333h-4.650666v-20.053333h4.693333z m-3.413333 1.792v17.365333h-5.717333v-17.365333h5.717333z m-45.226667-30.762667v-31.061333h37.248v31.061333h-37.205333z m15.146667 1.28h9.856v20.693333h-9.6l-0.256-20.650666z m-3.754667 22.016h14.762667v8.490667h-14.592l-0.170667-8.490667z m-11.349333 5.674667h36.693333v32.256h-36.522666l-0.170667-32.256z m-9.258667 26.709333h-32.725333V334.506667h32.597333v21.504h0.341334l-0.213334 5.205333z m6.869334-6.656h-3.413334v-20.053333h3.413334v20.053333z m-1.024-0.853333V336.213333h6.229333v17.450667h-6.229333z m3.413333 15.018666h36.693333v6.101334h-36.522666l-0.170667-6.101334z m36.693333 3.2v29.44h-36.522666v-29.525333l36.522666 0.085333z m-46.762666 30.976h8.832v0.938667h48.554666v5.12h-57.386666v-6.058667z m-0.256 3.242667h0.981333l4.736 7.552h0.426667v6.4h-12.757334v17.749333h-7.552v-3.626666l14.165334-28.074667z m-43.52 56.021333v-40.746666h10.88v40.746666h-10.88z m12.458666-10.581333v-19.882667h15.274667v19.882667h-15.274667z m16.896-4.053333v-8.448h9.898667v8.448h-9.898667z m9.216-26.112h67.925334v39.850666h-67.925334v-39.850666z m54.954667 41.173333v38.485333h-41.984v-38.485333h41.984z m-46.592 47.274667l9.088-6.912v8.448h-9.088v-1.536z m7.637333 11.562666l-7.637333-6.570666v-1.706667h9.088v8.448l-1.450667-0.170667z m-2.133333 0.512h39.722667v43.008h-39.722667v-43.008z m-28.501333 44.202667h96.725333v46.634667h-96.725333v-46.634667z m-1.621334 6.613333h-37.12l-14.848-5.845333h51.968v5.845333z m-59.306666-6.485333l21.162666 3.584-9.344 42.666667-19.669333-3.114667 7.850667-43.093333z m13.482666 46.378667l9.258667-42.666667h36.565333v6.784h-11.690666v-3.84h-10.624l-2.858667 12.928h11.690667l0.426666-2.048h13.269334v22.570667l-4.181334-2.218667 0.853334-6.186667h-12.373334l-1.834666 13.013334h11.776l2.645333 1.536-42.922667 0.128z m65.365334 13.098666l2.858666-2.133333h55.253334l3.2 2.389333-3.712 5.162667-0.213334 0.896h-53.333333l-4.053333-6.314667z m4.821333 2.858667h9.898667v8.490667h-1.877334l-8.021333-8.490667z m11.946667 7.978667l-5.546667 6.954666v-6.954666h5.546667z m-10.026667 20.010666l-12.8-7.168c-1.365333-0.981333-2.901333-2.432-2.56-3.584a2.218667 2.218667 0 0 1 0.725333-0.981333l3.285334-1.493333 11.349333-1.109334v14.336z m-103.850667 29.738667l4.394667 5.248-4.394667 2.005333c-3.413333 2.176-12.8 7.168-15.957333 4.736a3.114667 3.114667 0 0 1-1.450667-2.56 4.138667 4.138667 0 0 1 2.218667-2.432l15.189333-6.997333z m5.717334 4.608l-4.394667-5.290667 85.632-39.808c0.042667 1.834667 1.237333 3.584 3.157333 4.608l0.597334 0.341334-84.992 40.149333z m-33.493334-13.312s1.066667-4.266667 4.394667-4.437333h10.069333s3.498667 0 3.797334 2.346666c0.298667 2.389333 0 11.776 0 13.653334l-6.4 2.986666a5.290667 5.290667 0 0 0-2.986667 3.584 3.968 3.968 0 0 0 1.877333 3.626667 5.504 5.504 0 0 0 3.541334 1.066667c5.546667 0 13.482667-4.992 14.421333-5.632l91.306667-43.050667 11.605333 6.357333v15.872c-5.248 2.816-10.24 5.845333-14.976 9.173334l-13.824-0.384-22.826667 4.650666v-4.992l-4.693333-3.413333-5.205333 3.626667v6.954666l-54.442667 11.093334-7.594667 2.602666c-4.992 1.706667-12.16 4.181333-20.224 7.168l12.16-32.853333z m9.429334 26.794667l93.098666-6.4-85.76 25.557333v-0.170667l-7.338666-18.986666z m6.101333 19.626666l-68.522667 20.48 60.970667-39.68 7.466667 18.986667 0.128 0.170667-0.042667 0.085333z m-2.133333-21.248l2.730666-0.938666 86.101334-17.536 5.12 12.032-93.952 6.442666z m68.48-14.933333l-9.856 1.408v-6.101333l5.248-2.346667 4.608 2.261333v4.821334z m-173.568 65.792c1.28-3.584 7.04-17.493333 18.645333-21.077333a2.645333 2.645333 0 0 1 1.749333 0.426666c5.162667 3.029333 12.458667 16.085333 13.013334 20.650667h-33.408z m24.192-19.584c17.664-8.874667 51.968-21.205333 70.656-27.733333l-61.013334 39.68-1.408 0.426666a50.346667 50.346667 0 0 0-8.490666-12.373333h0.256z m176.384-38.314667l-4.949334-11.605333 11.306667 0.298667a3.072 3.072 0 0 0-0.768 3.584 5.973333 5.973333 0 0 0 3.370667 2.133333l-8.96 5.589333z m7.808-10.666666a101.12 101.12 0 0 1 14.933333-9.472v14.805333c-12.074667-0.042667-14.976-1.792-15.658667-2.816-0.426667-0.682667 0-1.493333 0.725334-2.56z m18.218666 7.893333l7.808 8.448h-7.808v-8.448z m2.858667 5.248v8.490667h-8.405333l8.405333-8.490667z m7.082667 8.021333l4.778666-8.448h5.12v8.448h-9.898666z m6.229333 51.2v-5.632h9.898667v5.674667h-9.898667z m9.386667-59.733333h5.674666l4.224 8.533333h-9.898666v-8.533333z m18.090666 0l9.514667 8.533333h-9.898667v-8.533333h0.384z m-5.333333 3.413333l8.405333-8.490666v8.490666h-8.405333z m5.973333-25.557333c5.333333 2.773333 10.325333 5.930667 14.933334 9.429333 0.938667 1.066667 1.152 1.92 0.768 2.56-0.426667 0.64-3.584 2.773333-15.701334 2.816v-14.805333z m13.781334 14.72a5.973333 5.973333 0 0 0 3.370666-2.133333 3.072 3.072 0 0 0-0.768-3.584l11.306667-0.256-4.949333 11.605333-8.96-5.632z m175.744 55.637333l-61.056-39.68c18.773333 6.570667 52.992 18.858667 70.656 27.733334a57.642667 57.642667 0 0 0-8.234667 12.373333l-1.365333-0.426667z m13.226666-12.928a2.645333 2.645333 0 0 1 1.792-0.469333c11.605333 3.584 17.365333 17.536 18.645334 21.077333h-33.237334c0.554667-4.522667 7.850667-17.578667 13.013334-20.565333l-0.213334-0.042667zM537.216 274.474667h-10.965333v-29.013334h-1.621334v29.013334h-13.909333v-29.013334h-1.664v29.013334h-12.202667 40.362667z" fill="#FFFFFF" p-id="16459"></path></svg>