<?xml version="1.0" standalone="no"?><!DOCTYPE svg PUBLIC "-//W3C//DTD SVG 1.1//EN" "http://www.w3.org/Graphics/SVG/1.1/DTD/svg11.dtd"><svg t="1748332635930" class="icon" viewBox="0 0 1024 1024" version="1.1" xmlns="http://www.w3.org/2000/svg" p-id="19128" data-spm-anchor-id="a313x.manage_type_myprojects.0.i2.b01b3a81eFhoFA" xmlns:xlink="http://www.w3.org/1999/xlink" width="32" height="32"><path d="M90.253313 278.83204C161.079177 108.576903 330.549256 0 509.064567 0 687.61401 0 857.186488 108.576903 928.012352 278.83204c65.825387 158.428071 30.105259 293.679872-43.877903 408.912699-60.995575 95.145588-150.355629 179.846495-229.95366 255.143775l-41.079001 39.15049a149.911901 149.911901 0 0 1-208.006176 0 6335.928193 6335.928193 0 0 0-43.451241-41.608062l-0.170665-0.170665c-78.642309-74.768219-166.858909-158.684068-227.325424-252.583804C60.148054 572.580177 24.240195 437.413709 90.253313 278.814973z" fill="#FFFFFF" p-id="19129" data-spm-anchor-id="a313x.manage_type_myprojects.0.i0.b01b3a81eFhoFA" class=""></path><path d="M125.085985 453.507394c0 212.067997 171.910585 383.995648 383.995648 383.995648 212.067997 0 383.995648-171.927651 383.995648-383.995648 0-212.085063-171.927651-383.995648-383.995648-383.995648-212.085063 0-383.995648 171.910585-383.995648 383.995648z" fill="#78919C" p-id="19130"></path><path d="M381.083084 453.507394a127.998549 127.998549 0 1 0 255.997098 0 127.998549 127.998549 0 0 0-255.997098 0z" fill="#FFFFFF" p-id="19131"></path></svg>