<?xml version="1.0" standalone="no"?><!DOCTYPE svg PUBLIC "-//W3C//DTD SVG 1.1//EN" "http://www.w3.org/Graphics/SVG/1.1/DTD/svg11.dtd"><svg t="1757488796220" class="icon" viewBox="0 0 1024 1024" version="1.1" xmlns="http://www.w3.org/2000/svg" p-id="8395" xmlns:xlink="http://www.w3.org/1999/xlink" width="200" height="200"><path d="M0 512.0032c0 282.750233 229.246567 511.9968 511.9968 511.9968s511.9968-229.246567 511.9968-511.9968S794.747033 0.0064 511.9968 0.0064 0 229.252967 0 512.0032z" fill="#000000" p-id="8396"></path><path d="M42.026404 512.0032c0 259.582378 210.388018 469.970396 469.970396 469.970396 259.582378 0 469.970396-210.388018 469.970396-469.970396C981.967196 252.420822 771.579178 42.032804 511.9968 42.032804 252.414422 42.032804 42.026404 252.420822 42.026404 512.0032z" fill="#FFFFFF" p-id="8397"></path><path d="M82.260819 514.861849C82.260819 752.215032 274.686283 944.640496 511.9968 944.640496c237.353183 0 429.735981-192.425464 429.735981-429.735981 0-237.353183-192.425464-429.735981-429.735981-429.735981-237.353183 0-429.735981 192.425464-429.735981 429.735981z" fill="#1E68D0" p-id="8398"></path><path d="M648.827945 242.778216a27.519828 27.519828 0 0 0-14.634575 3.839976L337.917888 419.20378h107.519328L661.3292 293.295234a26.325169 26.325169 0 0 0 9.514607-36.949103 25.557174 25.557174 0 0 0-22.015862-13.567915z m-28.245157 162.900315v54.314327H267.646327C237.651848 459.950192 213.332 484.27004 213.332 514.307186h27.13583v81.450157H213.332v108.585988h54.314327a81.492824 81.492824 0 1 0 162.900315 0h162.900316a81.492824 81.492824 0 1 0 162.900315 0H810.6616V527.875101l-95.018073-122.19657H620.582788z m54.314327 40.746412h27.178497l67.839576 81.450158v27.13583h-95.018073V446.424943zM294.824824 514.264519h81.492824v81.492824h-81.492824v-81.492824z m135.764485 0H511.9968v81.492824H430.503976v-81.492824z m135.764485 0h54.27166v81.492824H566.311127v-81.492824z m-217.214643 149.3324a40.746412 40.746412 0 1 1 0 81.492824 40.746412 40.746412 0 0 1 0-81.492824z m325.800631 0a40.746412 40.746412 0 1 1 0 81.492824 40.746412 40.746412 0 0 1 0-81.492824z" fill="#FFFFFF" p-id="8399"></path></svg>