<svg xmlns="http://www.w3.org/2000/svg" xmlns:xlink="http://www.w3.org/1999/xlink" fill="none" version="1.1" width="24" height="24" viewBox="0 0 24 24"><g><g transform="matrix(0,1,-1,0,29,-12)"><path d="M23.5,8.5L23.5,28.5L20.5,28.5L20.5,8.5L23.5,8.5Z" fill="#FFFFFF" fill-opacity="1"/></g><g transform="matrix(0,1,-1,0,29,-10)"><path d="M20.5,9.5L19.5,9.5L19.5,27.5L20.5,27.5L20.5,9.5Z" fill="#595959" fill-opacity="1"/></g><g><path d="M12,0L12,20L9,20L9,0L12,0Z" fill="#FFFFFF" fill-opacity="1"/></g><g><path d="M11,1L10,1L10,19L11,19L11,1Z" fill="#595959" fill-opacity="1"/></g><g><path d="M15,14L15,21L13,21L13,14L15,14Z" fill="#FFFFFF" fill-opacity="1"/></g><g><path d="M24,14L24,21L22,21L22,14L24,14Z" fill="#FFFFFF" fill-opacity="1"/></g><g transform="matrix(0,1,-1,0,42.28761291503906,-4.2876129150390625)"><path d="M25.287612915039062,19L25.287612915039062,28L23.287612915039062,28L23.287612915039062,19L25.287612915039062,19Z" fill="#FFFFFF" fill-opacity="1"/></g><g transform="matrix(0,1,-1,0,37.28761291503906,-9.287612915039062)"><path d="M25.287612915039062,14L25.287612915039062,23L23.287612915039062,23L23.287612915039062,14L25.287612915039062,14Z" fill="#FFFFFF" fill-opacity="1"/></g><g transform="matrix(0,1,-1,0,29,-10)"><path d="M20.5,9.5L19.5,9.5L19.5,27.5L20.5,27.5L20.5,9.5Z" fill="#595959" fill-opacity="1"/></g><g><path d="M14.46591567993164,14.422457695007324L13.46591567993164,14.422457695007324L13.46591567993164,20.614467695007324L14.46591567993164,20.614467695007324L14.46591567993164,14.422457695007324Z" fill="#595959" fill-opacity="1"/></g><g><path d="M23.46591567993164,14.422457695007324L22.46591567993164,14.422457695007324L22.46591567993164,20.614467695007324L23.46591567993164,20.614467695007324L23.46591567993164,14.422457695007324Z" fill="#595959" fill-opacity="1"/></g><g transform="matrix(0,1,-1,0,42.160539627075195,-2.9315967559814453)"><path d="M23.54606819152832,19.614471435546875L22.54606819152832,19.614471435546875L22.54606819152832,27.872931435546874L23.54606819152832,27.872931435546874L23.54606819152832,19.614471435546875Z" fill="#595959" fill-opacity="1"/></g><g transform="matrix(0,1,-1,0,37.14682865142822,-8.301913261413574)"><path d="M23.7243709564209,14.422457695007324L22.7243709564209,14.422457695007324L22.7243709564209,22.985207695007325L23.7243709564209,22.985207695007325L23.7243709564209,14.422457695007324Z" fill="#595959" fill-opacity="1"/></g></g></svg>