<svg xmlns="http://www.w3.org/2000/svg" xmlns:xlink="http://www.w3.org/1999/xlink" fill="none" version="1.1" width="30.49664306640625" height="30" viewBox="0 0 40.49664306640625 40"><g><g><g><path d="M20.28354550781252,35.10924983310699C22.32624550781252,35.25004983310699,24.40854550781252,34.93514983310699,26.47714550781252,34.620749833107C27.407945507812517,34.480049833106996,28.31864550781252,34.185749833106996,29.229445507812517,33.931249833106996C29.87234550781252,33.75024983310699,30.514845507812517,33.562949833107,31.130745507812517,33.301549833106996C32.87864550781252,32.57174983310699,34.51904550781252,31.654249833106995,35.72404550781252,30.128009833106994C36.18604550781252,29.538539833106995,36.494045507812515,28.862729833106997,36.60094550781251,28.132489833106995C36.76814550781252,27.014319833106995,36.306145507812516,26.083499833106995,35.63674550781252,25.233109833106994C35.06744550781252,24.503369833106994,34.324345507812524,23.981069833106993,33.55444550781252,23.478839833106996C32.51664550781251,22.789339833106993,31.36474550781252,22.340579833106993,30.213145507812516,21.911949833106995C29.489845507812518,21.637309833106993,28.712945507812517,21.496589833106995,27.96364550781252,21.295968833106993C27.60854550781252,21.202293833106996,27.24714550781252,21.128772833106993,26.898845507812517,21.001247833106994C26.771845507812518,20.954658833106993,26.68454550781252,20.786930833106993,26.577645507812516,20.673172833106996C26.724845507812518,20.552530833106996,26.879245507812517,20.318095733106993,27.00634550781252,20.331827611106995C27.903745507812516,20.412267333106996,28.820845507812518,20.351946433106995,29.68454550781252,20.686904833106993C29.811545507812518,20.733493833106994,29.93904550781252,20.767308833106995,30.072945507812516,20.800662833106994C30.84924550781252,21.001247833106994,31.63294550781252,21.168974833106994,32.38964550781252,21.410259833106995C32.93844550781252,21.584369833106994,33.46124550781252,21.845279833106993,33.98994550781252,22.072829833106994C34.438645507812524,22.267029833106996,34.90064550781251,22.434259833106996,35.32244550781252,22.682429833106994C36.086045507812514,23.137529833106996,36.84914550781252,23.599519833106996,37.55234550781252,24.135559833106996C38.389545507812514,24.771619833106996,39.11924550781252,25.535219833106993,39.62834550781251,26.472429833106993C40.270845507812524,27.657769833106997,40.46544550781252,28.882849833106995,39.969645507812515,30.195219833106997C39.36694550781252,31.795449833106993,38.228645507812516,32.927349833106994,36.86284550781252,33.851349833106994C36.11294550781251,34.360349833106994,35.30284550781252,34.795349833107,34.485745507812524,35.190649833106995C33.61524550781252,35.61244983310699,32.71824550781251,35.98764983310699,31.807545507812517,36.301949833106995C31.03074550781252,36.569749833107,30.220545507812517,36.750749833106994,29.423645507812516,36.931649833106995C28.586445507812517,37.119049833107,27.742945507812518,37.28624983310699,26.89934550781252,37.40694983310699C25.70764550781252,37.57414983310699,24.51544550781252,37.734949833106995,23.31734550781252,37.82174983310699C20.538645507812518,38.01604983310699,17.759845507812518,37.975749833106995,14.994345507812518,37.647649833106996C13.480945507812518,37.47354983310699,11.974345507812517,37.179349833107,10.494745507812517,36.817349833106995C9.363315507812517,36.542749833106996,8.264765507812518,36.11414983310699,7.180445507812518,35.699249833107C6.396775507812518,35.398149833107,5.620405507812518,35.049849833107,4.883815507812518,34.641449833106996C3.250185507812518,33.730649833106995,1.7701255078125178,32.61244983310699,0.8530335078125177,30.931849833106995C0.2571695178125178,29.833749833106992,0.049204507812517756,28.668529833106994,0.47145050781251774,27.416479833106994C0.8868485078125178,26.171279833106993,1.6631755078125177,25.200219833106996,2.6612055078125176,24.403309833106995C3.397835507812518,23.814299833106993,4.194775507812517,23.305259833106994,4.991185507812518,22.803029833106994C5.412975507812518,22.542159833106993,5.895045507812518,22.374439833106994,6.3506455078125175,22.180239833106995C6.913195507812517,21.939419833106996,7.475705507812518,21.698129833106997,8.044595507812517,21.490699833106994C8.553635507812517,21.303348833106995,9.069055507812518,21.122386833106994,9.598255507812517,20.995357833106993C10.461945507812517,20.781040833106996,11.332345507812517,20.600077833106994,12.209745507812517,20.439695833106995C12.564845507812517,20.372987733106996,12.946345507812518,20.379374633106995,13.307845507812518,20.406341633106994C13.448545507812518,20.419612233106996,13.582445507812517,20.580455833106996,13.716345507812518,20.674130833106993C13.622645507812518,20.794772833106993,13.549045507812517,20.955651833106995,13.428445507812517,21.035594833106995C13.261245507812518,21.136117833106994,13.053245507812518,21.182706833106995,12.859045507812517,21.229792833106995C12.155745507812517,21.403869833106995,11.446145507812517,21.544629833106995,10.756645507812518,21.758949833106996C10.066595507812517,21.973269833106993,9.397175507812518,22.247899833106995,8.734595507812518,22.522539833106993C8.292725507812518,22.703009833106996,7.850865507812518,22.897239833106994,7.442315507812518,23.138519833106994C5.882305507812518,24.062499833106994,4.482645507812518,25.147279833106992,3.9603455078125176,27.008929833106993C3.819585507812518,27.517999833106995,3.8465455078125177,28.020189833106993,3.987305507812518,28.528759833106996C4.281565507812518,29.586579833106995,4.918125507812518,30.416849833106994,5.721465507812518,31.133349833106994C6.6051955078125175,31.916649833106995,7.583105507812518,32.546349833106994,8.681165507812517,32.974949833107C9.692425507812517,33.369749833106994,10.703145507812518,33.791949833107,11.748245507812518,34.099949833107C12.632045507812517,34.367749833107,13.549545507812518,34.528649833106996,14.459845507812517,34.682549833107C16.36014550781252,34.995449833106996,18.27484550781252,35.20984983310699,20.28364550781252,35.10924983310699L20.28354550781252,35.10924983310699Z" fill="#4C90F0" fill-opacity="1"/><path d="M20.28354550781252,35.10894983310699L20.30074550781252,34.85984983310699Q21.642245507812518,34.952249833107,23.34644550781252,34.786849833107Q24.381645507812518,34.686349833106995,26.439745507812518,34.37354983310699Q27.168545507812517,34.26334983310699,28.61444550781252,33.846749833107Q28.979145507812518,33.74164983310699,29.16164550781252,33.69054983310699Q30.38604550781252,33.34594983310699,31.034445507812517,33.07084983310699Q34.089045507812514,31.795549833106996,35.52724550781252,29.973799833106995Q36.205345507812524,29.108589833106997,36.353645507812516,28.095509833106995Q36.54814550781252,26.795069833106993,35.439645507812514,25.386899833106995Q34.836045507812514,24.613319833106996,33.416145507812516,23.687069833106996Q32.33414550781252,22.968199833106993,30.124445507812517,22.145669833106993Q29.641545507812516,21.962329833106995,28.611845507812518,21.715149833106995Q28.13574550781252,21.600859833106995,27.89984550781252,21.537699833106995Q27.804145507812517,21.512439833106995,27.609645507812516,21.464419833106994Q27.07814550781252,21.333139833106994,26.81284550781252,21.235959833106996Q26.657945507812517,21.179159833106993,26.476645507812517,20.943845833106995Q26.42074550781252,20.871284833106994,26.395445507812518,20.844381833106993L26.21224550781252,20.649448833106995L26.41914550781252,20.479842833106996Q26.455045507812518,20.450450833106995,26.54134550781252,20.359413933106996Q26.824445507812516,20.060712833106994,27.028645507812517,20.082825833106995Q27.25914550781252,20.103491833106993,27.728145507812517,20.126078833106995Q29.100245507812517,20.192159833106995,29.770645507812517,20.452193833106996Q29.90244550781252,20.500553833106995,30.135445507812516,20.558610833106993Q30.368145507812518,20.618744833106994,30.836345507812517,20.733395833106993Q31.929145507812517,21.001004833106993,32.46524550781251,21.171964833106994Q32.88084550781252,21.303805833106995,33.66844550781252,21.657159833106995Q33.948945507812525,21.782999833106995,34.08924550781252,21.843389833106993Q34.199545507812516,21.891119833106995,34.42314550781252,21.983889833106996Q35.11764550781251,22.271889833106993,35.45044550781252,22.467679833106995Q36.94614550781252,23.359109833106995,37.703645507812524,23.936499833106993Q39.119845507812514,25.012579833106994,39.84814550781252,26.353299833106995Q40.93254550781252,28.353989833106994,40.203645507812524,30.283339833106993Q39.38994550781251,32.443649833106996,37.00324550781252,34.058149833106995Q36.017545507812514,34.727349833107,34.59474550781252,35.415649833107Q33.240045507812525,36.071949833107,31.88904550781252,36.53834983310699Q31.123045507812517,36.802349833106994,29.55194550781252,37.158949833106995L29.478245507812517,37.175649833106995Q28.054645507812516,37.49424983310699,26.934145507812516,37.654449833106995Q24.636845507812517,37.976849833106996,23.334745507812517,38.07114983310699Q18.997545507812518,38.37434983310699,14.965845507812517,37.896049833107Q12.863645507812517,37.654249833106995,10.435745507812518,37.060349833107Q9.342345507812517,36.794949833107,7.2451655078125174,35.99164983310699Q7.1443755078125175,35.953049833106995,7.090785507812518,35.932549833107Q5.807575507812518,35.439549833106994,4.762085507812518,34.859749833106996Q1.8151055078125178,33.21684983310699,0.6332995078125178,31.051049833106994Q-0.3851644921874823,29.174199833106996,0.23429910781251775,27.337369833106994Q0.8327775078125178,25.543369833106993,2.505075507812518,24.208059833106994Q3.2909555078125177,23.579659833106994,4.859685507812518,22.590409833106996Q5.197955507812518,22.381199833106994,5.924535507812518,22.085769833106994Q6.145035507812517,21.996119833106995,6.252255507812518,21.950409833106995L6.273955507812518,21.941119833106995Q7.390935507812518,21.462939833106994,7.958245507812518,21.256084833106996Q8.928205507812518,20.899095833106994,9.538045507812518,20.752716833106994Q10.743545507812518,20.453576833106993,12.163545507812518,20.193994833106995Q12.634945507812517,20.105439833106995,13.331245507812518,20.157445833106994Q13.507845507812517,20.174087833106995,13.756045507812518,20.385695833106993Q13.828645507812517,20.447614833106993,13.859645507812518,20.469294833106996L14.074945507812517,20.619926833106994L13.913745507812518,20.827454833106994Q13.890245507812518,20.857725833106993,13.840345507812518,20.934049833106993Q13.691845507812518,21.160963833106994,13.566545507812517,21.243993833106995L13.561945507812517,21.247030833106994L13.557245507812517,21.249863833106996Q13.366545507812518,21.364489833106994,12.950645507812517,21.464859833106996Q12.929045507812518,21.470059833106994,12.919145507812518,21.472469833106995Q12.700845507812518,21.526499833106996,12.265045507812518,21.627739833106993Q11.299345507812518,21.852069833106995,10.830745507812518,21.997699833106996Q10.124405507812519,22.217089833106996,8.829125507812519,22.753979833106996Q8.037855507812518,23.077149833106994,7.569715507812518,23.353629833106993Q6.228965507812518,24.147729833106993,5.4902855078125175,24.897549833106993Q4.542425507812518,25.859689833106994,4.201295507812517,27.075549833106994Q4.022985507812518,27.720449833106994,4.228165507812518,28.461759833106996Q4.599885507812518,29.798039833106994,5.887275507812518,30.946249833106997Q7.237715507812518,32.143149833106996,8.772075507812518,32.742049833107Q8.952485507812519,32.812449833106996,9.313045507812518,32.955049833107Q10.970545507812517,33.610149833106995,11.820745507812518,33.86074983310699Q12.731445507812518,34.13664983310699,14.500445507812518,34.435949833106996Q17.81904550781252,34.98224983310699,20.271145507812516,34.859549833106996L20.28354550781252,35.10894983310699ZM20.281245507812518,35.35964983310699Q17.78054550781252,35.48274983310699,14.419145507812518,34.929249833106994Q12.616745507812517,34.624349833107,11.675745507812518,34.33924983310699Q10.807645507812518,34.083449833107,9.129255507812518,33.420049833106994Q8.769975507812518,33.277949833106995,8.590245507812519,33.20784983310699Q6.972825507812518,32.57644983310699,5.5556455078125175,31.320449833106995Q4.157515507812517,30.073469833106994,3.746455507812518,28.595759833106996Q3.5042055078125176,27.720509833106995,3.7193855078125178,26.942299833106993Q4.095815507812517,25.600569833106995,5.134095507812518,24.546649833106994Q5.918325507812518,23.750599833106996,7.314905507812518,22.923419833106994Q7.815015507812518,22.628069833106995,8.640075507812519,22.291099833106994Q9.954165507812517,21.746399833106995,10.682445507812517,21.520199833106993Q11.168345507812518,21.369169833106994,12.151845507812517,21.140705833106995Q12.584245507812518,21.040276833106994,12.798945507812517,20.987116833106995Q12.811145507812517,20.984171833106995,12.833345507812517,20.978814833106995Q13.166745507812518,20.898342833106994,13.293745507812519,20.824811833106995Q13.323445507812517,20.802782833106995,13.379745507812517,20.722685833106993Q13.299345507812518,20.656648833106996,13.284345507812517,20.655237833106995Q12.662945507812518,20.608921833106994,12.255945507812518,20.685396833106996Q10.848745507812518,20.942618833106994,9.658465507812517,21.237998833106996Q9.073405507812518,21.378449833106995,8.130945507812518,21.725309833106994Q7.575105507812518,21.927989833106995,6.470735507812518,22.400769833106995L6.449035507812518,22.410059833106995Q6.337215507812518,22.457729833106995,6.112865507812518,22.548949833106995Q5.425215507812518,22.828539833106994,5.122695507812518,23.015649833106995Q3.5813455078125176,23.987649833106996,2.8173355078125177,24.598569833106993Q1.2602955078125178,25.841839833106995,0.7086025078125178,27.495599833106994Q0.15829590781251776,29.127379833106993,1.0727675078125176,30.812649833106995Q2.1847955078125176,32.85044983310699,5.005555507812518,34.423049833106994Q6.0195155078125175,34.985349833106994,7.270115507812518,35.465849833106994Q7.320395507812518,35.485049833107,7.423995507812518,35.524749833106995Q9.491345507812518,36.316549833107,10.553745507812518,36.574449833106996Q12.951945507812518,37.16104983310699,15.022945507812517,37.399349833106996Q19.009645507812518,37.87224983310699,23.299945507812517,37.572349833107Q24.58394550781252,37.479349833106994,26.86464550781252,37.159349833106994Q27.964545507812517,37.002049833106994,29.36904550781252,36.68774983310699L29.441245507812518,36.671349833106994Q30.985845507812517,36.320749833106994,31.72604550781252,36.065649833106995Q33.048845507812516,35.609049833106994,34.376745507812515,34.965649833106994Q35.76694550781252,34.293149833106995,36.72234550781252,33.644449833107Q38.978045507812524,32.118549833107,39.735745507812524,30.107099833106993Q40.38394550781251,28.391209833106995,39.40854550781252,26.591549833106995Q38.73184550781252,25.345679833106995,37.401145507812515,24.334619833106995Q36.66564550781251,23.774019833106994,35.19444550781252,22.897179833106996Q34.89404550781252,22.720439833106994,34.231645507812516,22.445739833106995Q34.004345507812516,22.351479833106996,33.89064550781252,22.302269833106994Q33.747845507812514,22.240819833106993,33.46374550781252,22.113349833106994Q32.702345507812524,21.771729833106995,32.31404550781252,21.648549833106994Q31.793545507812517,21.482579833106996,30.717445507812517,21.219044833106995Q30.246245507812517,21.103658833106994,30.010345507812517,21.042714833106995Q29.755545507812517,20.979229833106995,29.598445507812517,20.921615833106994Q28.995145507812516,20.687675833106994,27.704145507812516,20.625499833106996Q27.264345507812518,20.604320833106996,27.025345507812517,20.584401833106995L27.025345507812517,20.584411833106994Q26.993545507812517,20.609638833106995,26.91484550781252,20.692190833106995Q26.970645507812517,20.761274833106995,26.98494550781252,20.766535833106996Q27.22454550781252,20.854262833106993,27.729545507812517,20.979004833106995Q27.927845507812517,21.027975833106993,28.02744550781252,21.054238833106993Q28.258845507812516,21.116198833106996,28.728545507812516,21.228966833106995Q29.789245507812517,21.483589833106993,30.30194550781252,21.678229833106993Q32.56264550781252,22.519759833106995,33.69284550781252,23.270609833106995Q35.17904550781252,24.240059833106994,35.83384550781251,25.079329833106996Q37.07464550781252,26.655459833106995,36.84814550781252,28.169469833106994Q36.68084550781252,29.312459833106995,35.920845507812516,30.282229833106996Q34.40124550781252,32.20704983310699,31.22704550781252,33.532249833106995Q30.55214550781252,33.818649833106996,29.297145507812516,34.171849833107Q29.115645507812516,34.222649833107,28.752845507812516,34.32714983310699Q27.275645507812516,34.75284983310699,26.514445507812518,34.86794983310699Q24.443345507812516,35.182749833106996,23.39474550781252,35.28454983310699Q21.65864550781252,35.453049833106995,20.281245507812518,35.35964983310699ZM26.98954550781252,20.581329833106995Q26.98674550781252,20.581078833106993,26.983945507812518,20.580829833106996Q26.986845507812518,20.581138833106994,26.98954550781252,20.581328833106994L26.98954550781252,20.581329833106995Z" fill-rule="evenodd" fill="#FFFFFF" fill-opacity="1"/></g><g><path d="M20.295302567749033,15.631266626930486L17.784322567749033,15.631266626930486C17.362572567749034,15.631266626930486,17.26889256774903,15.530766626930486,17.275782567749033,15.122266626930486C17.282622567749033,14.185066626930485,17.289012567749033,13.247266626930486,17.289012567749033,12.310166626930485C17.289012567749033,11.787866626930485,17.20172256774903,11.700566626930485,16.69315256774903,11.700566626930485L13.947762567749033,11.700566626930485C13.932992567749032,11.700566626930485,13.917962567749033,11.700666626930486,13.902742567749032,11.700666626930486C13.676372567749032,11.701866626930485,13.408852567749033,11.703366626930485,13.358752567749033,11.445986626930486C13.318552567749032,11.231676626930485,13.365632567749032,10.943796626930485,13.485782567749032,10.762836626930486C13.954152567749032,10.073296626930485,14.470072567749032,9.410226626930486,14.965382567749032,8.740846626930486C15.869232567749032,7.508876626930485,16.766702567749032,6.276916626930485,17.67741256774903,5.051366626930486C18.487592567749033,3.9601966269304856,19.30465256774903,2.8822266269304855,20.121682567749033,1.7905626269304855C20.24871256774903,1.6233326269304855,20.342382567749034,1.6233326269304855,20.476262567749032,1.8037986269304855C21.808752567749032,3.6120066269304854,23.154472567749032,5.419686626930485,24.48747256774903,7.227356626930486C25.35797256774903,8.399006626930486,26.221572567749032,9.577496626930486,27.09207256774903,10.749606626930486C27.252972567749033,10.970306626930485,27.366672567749035,11.191466626930486,27.259272567749033,11.459256626930486C27.154772567749035,11.711466626930486,26.92627256774903,11.709366626930485,26.707772567749032,11.707266626930485C26.68827256774903,11.707066626930485,26.668872567749034,11.706966626930486,26.649672567749032,11.706966626930486C25.732672567749034,11.706966626930486,24.821972567749032,11.706966626930486,23.904372567749032,11.700066626930486C23.43547256774903,11.693166626930486,23.334972567749034,11.780466626930485,23.334972567749034,12.262566626930486C23.334972567749034,13.200266626930485,23.334972567749034,14.137466626930486,23.341872567749032,15.074666626930485C23.341872567749032,15.543466626930485,23.26137256774903,15.630266626930485,22.806272567749033,15.630266626930485L20.295302567749033,15.630266626930485L20.295302567749033,15.631266626930486ZM22.793072567749032,16.977366626930486L20.32229256774903,16.977366626930486C19.48304256774903,16.970766626930484,18.643732567749034,16.976866626930487,17.798312567749033,16.983066626930487L17.70394256774903,16.983766626930485C17.416072567749033,16.977366626930486,17.262072567749033,17.091166626930487,17.262072567749033,17.392266626930486C17.268922567749033,17.894466626930484,17.268922567749033,18.396666626930486,17.282152567749034,18.898866626930484C17.295882567749032,19.246966626930487,17.416072567749033,19.347566626930487,17.764262567749032,19.347566626930487C19.44494256774903,19.340666626930485,21.132472567749033,19.340666626930485,22.81317256774903,19.340666626930485C23.22167256774903,19.340666626930485,23.328572567749035,19.233766626930485,23.335472567749033,18.825266626930485C23.338872567749032,18.610866626930484,23.337172567749032,18.398166626930486,23.335472567749033,18.186266626930486C23.33377256774903,17.974666626930485,23.33207256774903,17.763866626930486,23.335472567749033,17.553066626930487C23.342272567749035,17.057766626930487,23.27517256774903,16.977366626930486,22.793072567749032,16.977366626930486ZM22.846472567749032,20.546266626930485L20.30857256774903,20.546266626930485C19.451802567749034,20.546266626930485,18.594532567749035,20.546266626930485,17.731412567749032,20.539466626930487C17.356212567749033,20.546266626930485,17.262542567749033,20.653166626930485,17.269422567749032,21.028366626930485C17.275812567749032,21.209366626930485,17.282662567749032,21.383466626930485,17.282662567749032,21.563966626930487C17.28954256774903,22.032766626930485,17.456772567749034,22.233366626930486,17.918762567749035,22.240266626930485C19.505242567749033,22.253466626930486,21.085892567749035,22.253466626930486,22.666072567749033,22.240266626930485C23.114272567749033,22.233366626930486,23.328572567749035,21.978766626930486,23.335472567749033,21.536966626930486C23.342272567749035,21.369666626930485,23.342272567749035,21.201966626930485,23.342272567749035,21.034766626930484C23.342272567749035,20.639966626930484,23.255072567749032,20.546266626930485,22.846472567749032,20.546266626930485ZM21.066772567749034,26.007766626930486C20.803582567749032,26.008566626930484,20.54065256774903,26.009366626930486,20.277712567749035,26.009366626930486L20.277712567749035,25.961766626930487L17.699562567749034,25.961766626930487C17.244422567749034,25.961766626930487,17.090432567749033,25.814166626930486,17.110542567749032,25.359066626930485C17.130662567749035,25.017266626930486,17.17775256774903,24.675866626930485,17.19098256774903,24.327666626930487C17.20422256774903,23.831866626930484,17.05707256774903,23.684766626930486,16.561272567749032,23.684766626930486L14.619682567749033,23.684766626930486C14.010092567749032,23.684766626930486,13.755572567749033,23.892166626930486,13.608422567749033,24.481666626930487C13.273962567749033,25.820566626930486,12.932152567749032,27.159866626930487,12.577573567749033,28.492366626930487C12.403458567749032,29.169066626930487,12.209260567749032,29.844966626930486,11.981673567749032,30.507966626930486C11.834561567749033,30.930266626930486,11.927739567749033,31.130866626930487,12.383339567749033,31.137666626930486C13.602072567749033,31.150966626930487,14.813882567749033,31.150966626930487,16.032572567749032,31.137666626930486C16.487712567749032,31.131266626930486,16.60147256774903,30.976866626930484,16.648562567749032,30.521766626930486C16.72218256774903,29.701166626930487,16.809162567749034,28.881866626930485,16.90946256774903,28.064166626930486C16.963402567749032,27.656166626930485,17.14390256774903,27.488466626930485,17.55241256774903,27.488466626930485C19.438422567749033,27.481566626930487,21.32444256774903,27.481566626930487,23.210472567749033,27.488466626930485C23.61847256774903,27.488466626930485,23.766072567749035,27.642966626930484,23.786172567749034,28.057866626930487C23.819572567749034,28.841566626930486,23.85287256774903,29.617866626930486,23.879872567749032,30.401566626930485C23.90637256774903,31.037666626930484,24.013772567749033,31.151466626930485,24.663072567749033,31.151466626930485C25.701272567749033,31.151466626930485,26.739072567749034,31.145066626930486,27.776772567749035,31.138166626930484C27.94447256774903,31.138166626930484,28.11807256774903,31.124966626930487,28.27897256774903,31.097966626930486C28.506472567749036,31.058266626930486,28.600172567749034,30.903766626930487,28.53987256774903,30.683066626930486C28.386372567749035,30.126966626930486,28.22547256774903,29.571266626930484,28.071472567749034,29.015566626930486C27.837072567749033,28.178966626930485,27.602672567749032,27.341766626930486,27.38197256774903,26.504666626930486C27.187272567749034,25.774966626930485,27.020072567749033,25.038266626930486,26.832672567749032,24.301666626930487C26.739072567749034,23.947066626930486,26.51147256774903,23.719066626930484,26.149572567749033,23.705766626930487C25.422672567749032,23.685966626930487,24.695172567749033,23.699066626930485,23.96777256774903,23.712166626930486L23.94017256774903,23.712666626930485C23.63217256774903,23.719066626930484,23.464472567749034,23.906866626930487,23.471372567749032,24.214866626930487C23.478172567749034,24.489466626930486,23.511572567749035,24.770466626930485,23.531672567749034,25.045166626930484C23.605272567749033,25.888666626930487,23.484572567749034,26.016166626930485,22.654272567749032,26.009366626930486C22.12277256774903,26.004766626930486,21.594242567749035,26.006266626930486,21.066772567749034,26.007766626930486Z" fill-rule="evenodd" fill="#4C90F0" fill-opacity="1"/><path d="M20.295302567749033,15.881266626930486L17.784322567749033,15.881266626930486Q17.36497256774903,15.881266626930486,17.19146256774903,15.705666626930485Q17.018852567749033,15.530966626930486,17.025812567749032,15.118066626930485L17.03439256774903,13.822566626930486L17.039012567749033,12.309366626930485Q17.039012567749033,12.020966626930486,17.003272567749033,11.984466626930486Q16.970002567749034,11.950566626930485,16.69315256774903,11.950566626930485L13.947762567749033,11.950566626930485L13.903622567749032,11.950666626930486Q13.203052567749033,11.954366626930485,13.113362567749032,11.493766626930485Q13.022382567749032,11.008816626930486,13.277502567749032,10.624556626930486Q13.622632567749033,10.116426626930485,14.356042567749032,9.138936626930485Q14.629552567749032,8.774406626930485,14.764412567749032,8.592146626930486L16.353612567749032,6.423756626930485L17.47627256774903,4.9028966269304854L18.379312567749032,3.6940666269304856L19.92179256774903,1.6404223269304854Q20.09622256774903,1.4107746269304855,20.303782567749032,1.4169036269304855Q20.50493256774903,1.4228426269304855,20.677042567749034,1.6548481269304856L22.66237256774903,4.339706626930486L24.688372567749035,7.078686626930486L26.182572567749034,9.099556626930486L27.293072567749032,10.600936626930485Q27.66707256774903,11.114136626930485,27.491372567749032,11.552326626930485Q27.32117256774903,11.962966626930486,26.70537256774903,11.957266626930485L26.648172567749032,11.956966626930486L25.32387256774903,11.956166626930486L23.903272567749035,11.950066626930486Q23.649872567749032,11.946366626930486,23.617872567749032,11.977366626930486Q23.584972567749034,12.009366626930486,23.584972567749034,12.262566626930486L23.591872567749032,15.074066626930486Q23.591872567749032,15.527466626930485,23.42517256774903,15.701266626930485Q23.253572567749032,15.880266626930485,22.806272567749033,15.880266626930485L20.295302567749033,15.880266626930485L20.295302567749033,15.630266626930485L20.545302567749033,15.630266626930485L20.545302567749033,15.881266626930486L20.295302567749033,15.881266626930486ZM20.295302567749033,15.381266626930486L20.295302567749033,15.631266626930486L20.045302567749033,15.631266626930486L20.045302567749033,15.380266626930485L22.806272567749033,15.380266626930485Q23.04027256774903,15.380266626930485,23.064272567749033,15.355266626930485Q23.091872567749032,15.326566626930486,23.091872567749032,15.075266626930485L23.084972567749034,12.262566626930486Q23.084972567749034,11.797766626930486,23.26977256774903,11.618496626930485Q23.450272567749032,11.443356626930486,23.905372567749033,11.450046626930485L25.32417256774903,11.456156626930486L26.651272567749032,11.456936626930485L26.71007256774903,11.457306626930485Q26.98847256774903,11.459886626930485,27.02727256774903,11.366196626930485Q27.099972567749035,11.184916626930486,26.891072567749035,10.898276626930485L25.780472567749033,9.396806626930484L24.28647256774903,7.376026626930486L22.26037256774903,4.636986626930486L20.27548256774903,1.9527486269304855Q20.24544256774903,1.9122556269304856,20.229812567749033,1.9002326269304854Q20.249692567749033,1.9155236269304856,20.289022567749033,1.9166856269304855Q20.332402567749032,1.9179666269304856,20.35795256774903,1.8995656269304855Q20.346642567749033,1.9077146269304854,20.321582567749033,1.9407026269304855L18.779882567749034,3.9933066269304853L17.878542567749033,5.199846626930485L16.75690256774903,6.719326626930486L15.166342567749032,8.889546626930485Q15.030452567749032,9.073206626930485,14.755992567749033,9.439006626930485Q14.029632567749033,10.407106626930485,13.694052567749033,10.901116626930486Q13.551252567749032,11.116206626930486,13.604142567749033,11.398206626930486Q13.614662567749033,11.452226626930486,13.901852567749032,11.450706626930485L13.947762567749033,11.450546626930485L16.69315256774903,11.450546626930485Q17.18002256774903,11.450546626930485,17.360322567749034,11.634466626930486Q17.539012567749033,11.816766626930486,17.539012567749033,12.310866626930485L17.534382567749034,13.825866626930486L17.52574256774903,15.126466626930485Q17.522332567749032,15.329066626930485,17.54715256774903,15.354266626930485Q17.573862567749032,15.381266626930486,17.784322567749033,15.381266626930486L20.295302567749033,15.381266626930486ZM22.793072567749032,17.227366626930486L20.32229256774903,17.227366626930486Q19.48294256774903,17.220766626930484,17.80014256774903,17.233066626930487L17.70208256774903,17.233766626930485L17.698392567749032,17.233666626930486Q17.573802567749034,17.230866626930485,17.539842567749034,17.260666626930487Q17.512072567749033,17.285066626930487,17.512072567749033,17.392266626930486Q17.514392567749034,17.560766626930487,17.51747256774903,17.903666626930484Q17.52340256774903,18.563466626930484,17.532072567749033,18.892266626930486Q17.538052567749034,19.043366626930485,17.566252567749032,19.069066626930486Q17.59752256774903,19.097566626930487,17.764262567749032,19.097566626930487L20.28034256774903,19.091566626930486L22.813072567749032,19.090666626930485Q23.016472567749034,19.090666626930485,23.049072567749032,19.058466626930485Q23.08207256774903,19.025866626930487,23.085472567749033,18.821066626930484Q23.088872567749032,18.609866626930486,23.085472567749033,18.188366626930485Q23.081972567749034,17.762866626930485,23.085472567749033,17.549066626930486Q23.089272567749035,17.276366626930486,23.064472567749032,17.249666626930484Q23.04377256774903,17.227366626930486,22.793072567749032,17.227366626930486ZM22.793072567749032,16.727366626930486Q23.26167256774903,16.727366626930486,23.43077256774903,16.909366626930485Q23.591972567749032,17.082866626930485,23.585472567749033,17.557166626930485Q23.58207256774903,17.764966626930484,23.585472567749033,18.184266626930487Q23.588872567749032,18.611866626930485,23.585472567749033,18.829466626930486Q23.572572567749035,19.590666626930485,22.81327256774903,19.590666626930485L20.281532567749032,19.591566626930486L17.764262567749032,19.597566626930487Q17.05952256774903,19.597566626930487,17.03224256774903,18.905366626930487Q17.023462567749032,18.572266626930485,17.01749256774903,17.908166626930484Q17.014422567749033,17.566266626930485,17.012072567749033,17.392266626930486Q17.012072567749033,17.058366626930486,17.210272567749033,16.884666626930485Q17.390482567749032,16.726766626930484,17.70948256774903,16.733766626930485L17.70394256774903,16.983766626930485L17.702112567749033,16.733766626930485L17.79648256774903,16.733066626930487Q19.483102567749032,16.720766626930484,20.32229256774903,16.727366626930486L22.793072567749032,16.727366626930486ZM22.846472567749032,20.796266626930485L20.30857256774903,20.796266626930485L17.730752567749033,20.789466626930487Q17.562092567749033,20.792566626930487,17.539972567749032,20.816266626930485Q17.516042567749032,20.841966626930486,17.519382567749034,21.023766626930485Q17.519872567749033,21.036666626930487,17.521012567749032,21.068566626930487Q17.532662567749032,21.395366626930485,17.532662567749032,21.563966626930487Q17.536462567749034,21.821366626930484,17.614382567749033,21.906466626930484Q17.68798256774903,21.986766626930486,17.922482567749032,21.990266626930485L22.666072567749033,21.990266626930485Q23.07847256774903,21.983866626930485,23.085472567749033,21.533066626930484L23.085572567749033,21.529866626930485L23.085672567749032,21.526766626930485Q23.092272567749035,21.364566626930486,23.092272567749035,21.034766626930484Q23.092272567749035,20.840666626930485,23.07097256774903,20.819366626930485Q23.04787256774903,20.796266626930485,22.846472567749032,20.796266626930485ZM22.846472567749032,20.296266626930485Q23.254672567749033,20.296266626930485,23.424272567749032,20.465566626930485Q23.592272567749035,20.633366626930485,23.592272567749035,21.034766626930484Q23.592272567749035,21.374866626930487,23.58527256774903,21.547166626930487L23.335472567749033,21.536966626930486L23.585472567749033,21.540866626930484Q23.570872567749035,22.476366626930485,22.666072567749033,22.490266626930485L17.915042567749033,22.490166626930485Q17.046042567749033,22.477266626930486,17.032662567749032,21.563966626930487Q17.032662567749032,21.404266626930486,17.02133256774903,21.086366626930484Q17.020152567749033,21.053466626930486,17.01946256774903,21.032966626930484Q17.012422567749034,20.648866626930484,17.17430256774903,20.475266626930484Q17.341002567749033,20.296566626930485,17.732072567749032,20.289466626930487L20.30857256774903,20.296266626930485L22.846472567749032,20.296266626930485ZM21.06725256774903,26.257766626930486L20.027712567749035,26.259766626930485L20.027712567749035,25.961766626930487L20.277712567749035,25.961766626930487L20.277712567749035,26.211766626930487L17.699562567749034,26.211766626930487Q17.25198256774903,26.211766626930487,17.049182567749032,26.006966626930485Q16.84095256774903,25.796666626930485,16.860792567749034,25.347966626930486Q16.870072567749034,25.189866626930485,16.898592567749034,24.885066626930485Q16.934012567749033,24.506566626930486,16.941162567749032,24.318166626930484Q16.948152567749034,24.055966626930484,16.888762567749033,23.995566626930486Q16.82895256774903,23.934766626930486,16.561272567749032,23.934766626930486L14.619682567749033,23.934766626930486Q14.251352567749032,23.934766626930486,14.096032567749033,24.057966626930487Q13.941182567749031,24.180866626930484,13.850982567749032,24.542266626930484L13.448742567749033,26.136866626930484L12.819517567749033,28.555266626930486Q12.530094567749032,29.680266626930486,12.218132567749032,30.589166626930485Q12.143346567749033,30.803766626930486,12.171242567749033,30.850566626930487Q12.191602567749033,30.884766626930485,12.387116567749032,30.887766626930485Q14.207962567749032,30.907466626930486,16.02986256774903,30.887766626930485Q16.25670256774903,30.884566626930486,16.31208256774903,30.826066626930487Q16.37232256774903,30.762466626930486,16.39989256774903,30.495966626930485Q16.51037256774903,29.264366626930485,16.661322567749032,28.033766626930486Q16.766432567749032,27.238466626930485,17.55241256774903,27.238466626930485L20.17027256774903,27.233366626930486L23.210872567749032,27.238466626930485Q23.996772567749034,27.238466626930485,24.03587256774903,28.045666626930487L24.08607256774903,29.240166626930485L24.129672567749033,30.392066626930486Q24.14547256774903,30.771066626930484,24.211972567749033,30.835566626930486Q24.27987256774903,30.901466626930485,24.663072567749033,30.901466626930485L27.775672567749034,30.888166626930484Q28.01827256774903,30.888166626930484,28.23767256774903,30.851366626930485Q28.295772567749033,30.841266626930487,28.305172567749032,30.826266626930487Q28.31537256774903,30.809866626930486,28.29867256774903,30.748966626930486L28.09067256774903,30.006966626930485L27.830872567749033,29.083366626930484Q27.363172567749032,27.414066626930484,27.140172567749033,26.568366626930487Q27.024572567749033,26.134766626930485,26.812472567749033,25.262866626930485Q26.666572567749032,24.662966626930487,26.590372567749032,24.363266626930486Q26.486072567749034,23.968266626930486,26.140372567749033,23.955666626930487Q25.42137256774903,23.936066626930486,23.97227256774903,23.962166626930486L23.94467256774903,23.962666626930485Q23.822172567749032,23.965166626930486,23.771472567749033,24.020166626930486Q23.718372567749032,24.077766626930487,23.721272567749033,24.209266626930486Q23.725672567749033,24.385266626930484,23.758072567749032,24.751166626930484Q23.77427256774903,24.934866626930486,23.780972567749032,25.026866626930484Q23.84537256774903,25.764466626930485,23.61647256774903,26.014866626930484Q23.387372567749033,26.265366626930486,22.652172567749034,26.259266626930486L21.066532567749032,26.257766626930486L21.06725256774903,26.257766626930486ZM21.067012567749032,25.757766626930486L22.65637256774903,25.759366626930486Q23.168672567749034,25.763566626930487,23.247372567749032,25.677466626930485Q23.328172567749032,25.589166626930485,23.282372567749032,25.063366626930485Q23.275872567749033,24.975266626930484,23.25997256774903,24.795166626930484Q23.22627256774903,24.413466626930486,23.221372567749032,24.220466626930484Q23.213972567749032,23.887066626930487,23.403972567749033,23.681166626930487Q23.599072567749033,23.469666626930486,23.93567256774903,23.462766626930485L23.96327256774903,23.462266626930486Q25.423572567749034,23.435866626930487,26.158672567749033,23.455966626930486Q26.87487256774903,23.482166626930486,27.074972567749032,24.240066626930485Q27.151772567749035,24.542166626930484,27.298372567749034,25.144766626930487Q27.50907256774903,26.011266626930485,27.623672567749033,26.440966626930486Q27.84557256774903,27.282566626930485,28.31217256774903,28.947866626930484L28.572172567749035,29.872066626930486L28.781072567749035,30.617166626930487Q28.855272567749033,30.888766626930487,28.72957256774903,31.090566626930485Q28.602072567749033,31.295366626930484,28.32027256774903,31.344566626930487Q28.059972567749035,31.388166626930484,27.777872567749032,31.388166626930484L24.663072567749033,31.401466626930485Q24.077272567749034,31.401466626930485,23.863872567749034,31.194466626930485Q23.654172567749033,30.991166626930486,23.630072567749032,30.411066626930484L23.586472567749034,29.261166626930486L23.53647256774903,28.069966626930487Q23.525972567749033,27.853366626930484,23.466972567749032,27.794266626930487Q23.411172567749034,27.738466626930485,23.21007256774903,27.738466626930485L20.171242567749033,27.733366626930486L17.55241256774903,27.738466626930485Q17.20469256774903,27.738466626930485,17.15760256774903,28.094666626930486Q17.00764256774903,29.317266626930486,16.897232567749032,30.547466626930486Q16.852172567749033,30.982966626930484,16.675102567749033,31.169866626930485Q16.474652567749033,31.381566626930486,16.035292567749032,31.387666626930486Q14.207962567749032,31.407566626930485,12.379563567749033,31.387666626930486Q11.904982767749033,31.380466626930485,11.741736567749033,31.106566626930487Q11.594468567749033,30.859466626930484,11.745214567749032,30.426866626930487Q12.050777567749032,29.536566626930487,12.335628567749032,28.429366626930484L12.963932567749032,26.014566626930485L13.365862567749032,24.421166626930486Q13.612082567749033,23.434766626930486,14.619682567749033,23.434766626930486L16.561272567749032,23.434766626930486Q17.038532567749034,23.434766626930486,17.245282567749033,23.644966626930486Q17.453642567749032,23.856866626930486,17.44080256774903,24.337166626930486Q17.43312256774903,24.539366626930484,17.39642256774903,24.931666626930486Q17.368702567749033,25.227866626930485,17.36030256774903,25.370066626930484Q17.350122567749032,25.600266626930484,17.40448256774903,25.655166626930484Q17.460532567749034,25.711766626930487,17.699562567749034,25.711766626930487L20.527712567749035,25.711766626930487L20.527712567749035,26.009366626930486L20.277712567749035,26.009366626930486L20.27723256774903,25.759366626930486L21.06629256774903,25.757766626930486L21.067012567749032,25.757766626930486Z" fill="#FFFFFF" fill-opacity="1"/></g></g></g></svg>